<svg width="24" height="24" viewBox="0 0 24 24" fill="none" xmlns="http://www.w3.org/2000/svg">
    <path d="M0 12C0 5.373 5.373 0 12 0s12 5.373 12 12-5.373 12-12 12S0 18.627 0 12z" fill="#fff"/>
    <path fill-rule="evenodd" clip-rule="evenodd" d="M16.349 0c.214 1.458-.379 2.886-1.162 3.896-.837 1.084-2.28 1.922-3.679 1.879-.255-1.396.398-2.834 1.194-3.8C13.574.906 15.069.088 16.349 0zm4.2 20.518c.722-1.104.991-1.662 1.55-2.91-4.07-1.547-4.722-7.335-.694-9.556-1.229-1.54-2.955-2.434-4.585-2.434-1.175 0-1.98.306-2.71.585-.61.232-1.17.445-1.85.445-.734 0-1.384-.233-2.065-.477-.748-.269-1.534-.55-2.508-.55-1.83 0-3.777 1.117-5.01 3.028C.94 11.34 1.236 16.4 4.05 20.71c1.005 1.542 2.35 3.275 4.107 3.29.73.008 1.215-.21 1.74-.445.6-.27 1.254-.563 2.385-.569 1.138-.007 1.781.29 2.374.564.512.236.987.454 1.71.447 1.759-.014 3.177-1.935 4.183-3.477z" fill="#0B0B0A"/>
</svg>
