<svg width="24" height="24" viewBox="0 0 24 24" fill="none" xmlns="http://www.w3.org/2000/svg">
    <path d="M0 12C0 5.373 5.373 0 12 0s12 5.373 12 12-5.373 12-12 12S0 18.627 0 12z" fill="#fff"/>
    <path d="M12 5.253c2.065 0 3.459.892 4.253 1.638l3.105-3.031C17.45 2.088 14.97 1 12 1 7.698 1 3.982 3.469 2.174 7.062L5.73 9.824c.892-2.652 3.361-4.57 6.27-4.57z" fill="#EA4335"/>
    <path d="M22.56 12.244c0-.904-.074-1.564-.232-2.249H12v4.083h6.062c-.122 1.014-.782 2.542-2.249 3.568l3.471 2.69c2.078-1.92 3.276-4.743 3.276-8.092z" fill="#4285F4"/>
    <path d="M5.742 14.175A6.772 6.772 0 0 1 5.375 12c0-.758.135-1.491.355-2.176L2.173 7.062A11.01 11.01 0 0 0 1 12c0 1.772.428 3.446 1.173 4.937l3.57-2.762z" fill="#FBBC05"/>
    <path d="M12 23c2.97 0 5.463-.978 7.284-2.665l-3.471-2.689c-.929.648-2.176 1.1-3.813 1.1-2.909 0-5.378-1.919-6.258-4.57l-3.556 2.761C3.994 20.531 7.698 23 12 23z" fill="#34A853"/>
</svg>
