<svg width="24" height="24" viewBox="0 0 24 24" fill="none" xmlns="http://www.w3.org/2000/svg">
    <path fill-rule="evenodd" clip-rule="evenodd" d="m10.442 17.653-.077-.015-.077-.01C5.124 16.97 2 13.638 2 10.368 2 6.74 5.999 3 12 3c6.002 0 10 3.74 10 7.369 0 1.445-.552 2.836-2.023 4.388l-.017.018-.016.017c-1.088 1.205-2.955 2.64-4.808 3.882-.74.496-1.434.933-2.03 1.291a2.918 2.918 0 0 0-.165-.55l-.003-.006c-.366-.873-1.116-1.269-1.437-1.418a4.947 4.947 0 0 0-1.06-.338zm2.466 4.732.058-.032c2.102-1.15 6.364-3.896 8.462-6.22C23.167 14.298 24 12.436 24 10.369 24 5.203 18.617 1 12 1 5.384 1 0 5.203 0 10.369c0 4.63 4.27 8.51 10.036 9.243.39.08.923.248 1.057.569.095.23.09.56.063.835a5.155 5.155 0 0 1-.024.209l-.171.988-.005.026c-.057.312-.2 1.101 1.044.596.158-.064.383-.172.66-.318l.01-.005.238-.127zM7.5 12a1.5 1.5 0 1 0 0-3 1.5 1.5 0 0 0 0 3zm6.5-1.5a1.5 1.5 0 1 1-3 0 1.5 1.5 0 0 1 3 0zm3.5 1.5a1.5 1.5 0 1 0 0-3 1.5 1.5 0 0 0 0 3z" fill="#26BED6"/>
</svg>
