<svg width="12" height="12" viewBox="0 0 12 12" fill="none" xmlns="http://www.w3.org/2000/svg">
    <path fill-rule="evenodd" clip-rule="evenodd" d="M2.063 4.23a.038.038 0 0 0-.011.026.24.24 0 0 1-.013.079L.48 8.84v2.92a.24.24 0 1 1-.48 0V8.8a.24.24 0 0 1 .013-.079L1.574 4.21a.513.513 0 0 1 .507-.47H9.92c.27 0 .484.212.507.47l1.561 4.605a.24.24 0 0 1 .013.077v2.868a.24.24 0 1 1-.48 0V8.931L9.96 4.333a.24.24 0 0 1-.012-.077c0-.01-.004-.02-.01-.027a.026.026 0 0 0-.02-.008H2.082a.026.026 0 0 0-.018.008z" fill="#868998"/>
    <path fill-rule="evenodd" clip-rule="evenodd" d="M2.274.487a.04.04 0 0 0-.01.028v3.19a.24.24 0 1 1-.48 0V.515A.51.51 0 0 1 2.287 0h7.4a.51.51 0 0 1 .504.515v3.19a.24.24 0 1 1-.48 0V.515a.04.04 0 0 0-.01-.028C9.696.481 9.69.48 9.687.48H2.288c-.003 0-.008.001-.014.007z" fill="#868998"/>
    <path fill-rule="evenodd" clip-rule="evenodd" d="M2.984 1.93v.087H2.84a.159.159 0 0 0 .135-.068.06.06 0 0 0 .009-.018v-.002zm2.399.087v1.688a.24.24 0 0 0 .48 0V1.93c0-.08-.02-.164-.065-.236a.323.323 0 0 0-.272-.158H2.84a.323.323 0 0 0-.272.158.447.447 0 0 0-.064.236v1.774a.24.24 0 0 0 .48 0V2.017h2.399zM6.597 1.93v.087h-.143a.159.159 0 0 0 .135-.068.06.06 0 0 0 .008-.018v-.002zm2.399.087v1.688a.24.24 0 0 0 .48 0V1.93c0-.08-.02-.164-.065-.236a.323.323 0 0 0-.272-.158H6.454a.323.323 0 0 0-.272.158.447.447 0 0 0-.065.236v1.774a.24.24 0 0 0 .48 0V2.017h2.399zM0 8.8a.24.24 0 0 1 .24-.24h11.52a.24.24 0 1 1 0 .48H.24A.24.24 0 0 1 0 8.8zM0 10.75a.24.24 0 0 1 .24-.24h11.498a.24.24 0 1 1 0 .48H.24a.24.24 0 0 1-.24-.24z" fill="#868998"/>
</svg>
