<svg width="11" height="12" viewBox="0 0 11 12" fill="none" xmlns="http://www.w3.org/2000/svg">
    <path fill-rule="evenodd" clip-rule="evenodd" d="M.478 2.289v3.565h4.783V2.289H.478zm5.261 0v3.565h4.783V2.289H5.739zm4.418-.488H.843c.252-.216.58-.45 1.03-.66C2.64.783 3.773.488 5.5.488c1.727 0 2.86.295 3.627.653.45.21.778.444 1.03.66zm.365 4.54H.478v3.66c0 .403.321.731.718.731h8.608a.725.725 0 0 0 .718-.732V6.342zM1.674.699C2.515.305 3.719 0 5.5 0c1.78 0 2.985.305 3.826.698.843.393 1.306.869 1.604 1.175l.07.072V10c0 .674-.535 1.22-1.196 1.22H1.196C.536 11.22 0 10.674 0 10V1.945l.07-.072c.297-.306.76-.782 1.604-1.175z" fill="#868998"/>
    <path d="M3.108 8.049a.966.966 0 0 1-.956.976.966.966 0 0 1-.957-.976c0-.539.429-.976.957-.976s.956.437.956.976zM1.197 11.025c-.022-.029.456-.029.456-.029h.721c.013.538.072.974-.456.987-.528.013-.708-.42-.721-.958zM10.05 11.025c.021-.029-.457-.029-.457-.029h-.721c-.013.538-.072.974.456.987.528.013.708-.42.721-.958zM9.804 8.049a.966.966 0 0 1-.957.976.966.966 0 0 1-.956-.976c0-.539.428-.976.956-.976s.957.437.957.976z" fill="#868998"/>
</svg>
