<svg width="14" height="14" viewBox="0 0 14 14" fill="none" xmlns="http://www.w3.org/2000/svg">
<g clip-path="url(#clip0_3066_76672)">
<path d="M1.57562 10.9279C1.63918 11.0869 1.76358 11.2143 1.92148 11.282C2.07938 11.3497 2.25782 11.3522 2.41757 11.2889C2.57731 11.2256 2.70527 11.1018 2.77328 10.9446C2.8413 10.7874 2.84381 10.6098 2.78025 10.4508L2.05488 8.63275L6.35529 7.68505V10.7474C6.35529 10.9183 6.42353 11.0823 6.54498 11.2032C6.66644 11.3241 6.83118 11.392 7.00294 11.392C7.17471 11.392 7.33944 11.3241 7.4609 11.2032C7.58236 11.0823 7.65059 10.9183 7.65059 10.7474V7.68505L11.951 8.63275L11.2256 10.4508C11.1941 10.5295 11.1784 10.6137 11.1796 10.6984C11.1808 10.7832 11.1987 10.8669 11.2324 10.9447C11.2661 11.0226 11.3148 11.093 11.3759 11.1521C11.437 11.2111 11.5092 11.2576 11.5883 11.2889C11.6646 11.3189 11.7459 11.3342 11.8279 11.334C11.9577 11.3341 12.0844 11.2955 12.1918 11.2231C12.2992 11.1507 12.3823 11.0478 12.4303 10.9279L13.4341 8.40711C13.4686 8.31992 13.4835 8.22631 13.4779 8.13278C13.4723 8.03925 13.4463 7.94807 13.4017 7.86556C13.3585 7.78336 13.2979 7.71143 13.2241 7.65469C13.1503 7.59794 13.0651 7.55772 12.9743 7.53677L10.8889 7.07904V3.22348C10.8889 3.05249 10.8206 2.88851 10.6992 2.76761C10.5777 2.6467 10.413 2.57878 10.2412 2.57878H8.9459V0.644695C8.9459 0.473711 8.87766 0.309731 8.7562 0.188827C8.63475 0.0679231 8.47001 0 8.29825 0H5.70764C5.53587 0 5.37114 0.0679231 5.24968 0.188827C5.12822 0.309731 5.05999 0.473711 5.05999 0.644695V2.57878H3.76468C3.59292 2.57878 3.42818 2.6467 3.30673 2.76761C3.18527 2.88851 3.11703 3.05249 3.11703 3.22348V7.07904L1.03159 7.52387C0.94077 7.54482 0.85556 7.58505 0.781788 7.64179C0.708016 7.69854 0.647421 7.77047 0.604144 7.85267C0.55954 7.93517 0.533536 8.02636 0.527944 8.11989C0.522351 8.21341 0.537304 8.30703 0.571761 8.39421L1.57562 10.9279ZM6.35529 1.28939H7.65059V2.57878H6.35529V1.28939ZM4.41234 3.86817H9.59355V6.78892L7.14543 6.23448H7.08066H7.00294H6.92523H6.86046L4.41234 6.78892V3.86817ZM12.644 12.2173C12.4167 12.2866 12.1992 12.384 11.9963 12.5074C11.79 12.6275 11.5553 12.6908 11.3163 12.6908C11.0773 12.6908 10.8426 12.6275 10.6363 12.5074C10.1876 12.2554 9.68122 12.123 9.1661 12.123C8.65098 12.123 8.14458 12.2554 7.69593 12.5074C7.48678 12.6261 7.25018 12.6885 7.00942 12.6885C6.76866 12.6885 6.53206 12.6261 6.32291 12.5074C5.87386 12.2566 5.36762 12.1249 4.85274 12.1249C4.33786 12.1249 3.83162 12.2566 3.38257 12.5074C3.17625 12.6275 2.94154 12.6908 2.70254 12.6908C2.46353 12.6908 2.22882 12.6275 2.0225 12.5074C1.81968 12.384 1.60209 12.2866 1.37485 12.2173C1.28867 12.1868 1.19699 12.1748 1.10582 12.1821C1.01466 12.1894 0.926087 12.2159 0.845935 12.2597C0.765784 12.3036 0.695872 12.3638 0.640801 12.4365C0.58573 12.5092 0.54675 12.5927 0.526426 12.6814C0.478076 12.8447 0.496564 13.0204 0.577857 13.1702C0.659151 13.3199 0.796649 13.4316 0.960353 13.4809C1.09077 13.516 1.21519 13.5704 1.32951 13.642C1.72245 13.8715 2.16924 13.9939 2.62482 13.9966C3.09799 13.9967 3.56276 13.8721 3.97193 13.6356C4.2258 13.4962 4.511 13.4231 4.80093 13.4231C5.09086 13.4231 5.37606 13.4962 5.62992 13.6356C6.03619 13.8668 6.49608 13.9885 6.96408 13.9885C7.43208 13.9885 7.89197 13.8668 8.29825 13.6356C8.55211 13.4962 8.83731 13.4231 9.12724 13.4231C9.41717 13.4231 9.70237 13.4962 9.95623 13.6356C10.3577 13.8741 10.8164 14 11.2839 14C11.7514 14 12.2102 13.8741 12.6116 13.6356C12.7259 13.5639 12.8504 13.5096 12.9808 13.4744C13.067 13.4571 13.1487 13.4224 13.221 13.3726C13.2933 13.3228 13.3546 13.2588 13.4013 13.1846C13.448 13.1104 13.479 13.0275 13.4924 12.941C13.5058 12.8545 13.5014 12.7662 13.4795 12.6814C13.4589 12.5942 13.4202 12.5122 13.366 12.4406C13.3118 12.3691 13.2432 12.3095 13.1646 12.2659C13.086 12.2222 12.9991 12.1953 12.9094 12.1869C12.8198 12.1786 12.7294 12.1889 12.644 12.2173Z" fill="#868998"/>
</g>
<defs>
<clipPath id="clip0_3066_76672">
<rect width="14" height="14" fill="white"/>
</clipPath>
</defs>
</svg>
