<svg width="14" height="14" viewBox="0 0 14 14" fill="none" xmlns="http://www.w3.org/2000/svg">
    <path d="M12.05 1h-10v10.85h10V1zM2.05 2.5h10M2.102 6.85h9.9" stroke="#868998" stroke-miterlimit="10" stroke-linecap="round" stroke-linejoin="round"/>
    <path d="M3.75 9.4a.5.5 0 1 0 0-1 .5.5 0 0 0 0 1zM10.352 9.4a.5.5 0 1 0 0-1 .5.5 0 0 0 0 1zM4.248 11.9v.8c0 .15-.15.3-.3.3h-1.25c-.15 0-.3-.15-.3-.3v-.8M11.55 11.9v.8c0 .15-.15.3-.3.3H10c-.15 0-.3-.15-.3-.3v-.8M1 4.7V2.8c0-.15.15-.3.3-.3h.85M13.002 4.7V2.8c0-.15-.15-.3-.3-.3h-.85" stroke="#868998" stroke-miterlimit="10" stroke-linecap="round" stroke-linejoin="round"/>
</svg>
