<svg width="20" height="20" viewBox="0 0 20 20" fill="none" xmlns="http://www.w3.org/2000/svg">
    <path fill-rule="evenodd" clip-rule="evenodd" d="M15 3.333h.833c.917 0 1.667.75 1.667 1.667v11.666c0 .917-.75 1.667-1.667 1.667H4.167c-.925 0-1.667-.75-1.667-1.666L2.508 5a1.66 1.66 0 0 1 1.659-1.667H5V2.5c0-.458.375-.833.833-.833.459 0 .834.375.834.833v.833h6.666V2.5c0-.458.375-.833.834-.833.458 0 .833.375.833.833v.833zM5.001 16.667h10a.836.836 0 0 0 .834-.834V7.5H4.168v8.333c0 .458.375.833.833.833z" fill="#38383D"/>
</svg>
