<svg width="24" height="24" viewBox="0 0 24 24" fill="none" xmlns="http://www.w3.org/2000/svg">
    <g clip-path="url(#i02vx92dsa)">
        <path d="M23.512 7.34C23.174 3.347 20.55.45 17.26.45c-2.188 0-4.196 1.268-5.323 3.298C10.817 1.692 8.896.45 6.74.45 3.455.451.825 3.347.49 7.34.464 7.516.356 8.445.69 9.956a11.38 11.38 0 0 0 3.198 5.739l8.044 7.854 8.184-7.854a11.398 11.398 0 0 0 3.198-5.739c.334-1.515.221-2.44.198-2.616z" stroke="#38383D" stroke-miterlimit="10" stroke-linecap="round" stroke-linejoin="round"/>
    </g>
    <defs>
        <clipPath id="i02vx92dsa">
            <path fill="#fff" d="M0 0h24v24H0z"/>
        </clipPath>
    </defs>
</svg>
