<svg width="14" height="14" viewBox="0 0 14 14" fill="none" xmlns="http://www.w3.org/2000/svg">
<path fill-rule="evenodd" clip-rule="evenodd" d="M12.5028 0.00511537C12.8663 0.0285533 13.2639 0.139554 13.5637 0.441837C13.5684 0.446553 13.5729 0.451356 13.5774 0.456242C13.8644 0.767907 13.9721 1.16778 13.995 1.53814C14.0181 1.91126 13.9591 2.30415 13.8624 2.66769C13.6739 3.37695 13.3041 4.10881 12.9208 4.49534C12.9038 4.51249 12.8857 4.52847 12.8665 4.54318L10.9421 6.02166L13.1442 11.4215C13.2257 11.6215 13.18 11.8507 13.028 12.004L12.1708 12.8683C12.0588 12.9813 11.9026 13.0389 11.7441 13.0258C11.5856 13.0127 11.441 12.9302 11.3491 12.8004L8.20975 8.36861L5.15851 11.0058L5.61468 12.8458C5.65991 13.0282 5.60673 13.2211 5.47438 13.3545L4.99223 13.8407C4.87578 13.9581 4.71182 14.0155 4.54755 13.9964C4.38328 13.9772 4.23692 13.8836 4.1506 13.7426L2.66359 11.3124L0.254009 9.81325C0.114852 9.72667 0.022703 9.58143 0.00365347 9.41865C-0.0153961 9.25587 0.0407281 9.09327 0.156134 8.9769L0.638278 8.49073C0.772292 8.35559 0.967687 8.30124 1.15223 8.34776L2.9702 8.80605L5.58955 5.7246L1.18805 2.55439C1.05792 2.46066 0.976341 2.31381 0.965519 2.1538C0.954696 1.99379 1.01576 1.83729 1.13208 1.72689L2.0428 0.862583C2.19711 0.716131 2.42319 0.674268 2.61971 0.755757L7.98788 2.98168L9.55535 1.12218C9.5647 1.11109 9.5745 1.10037 9.58472 1.09007C9.96805 0.703536 10.6945 0.330043 11.3922 0.139501C11.7495 0.041905 12.1367 -0.0184968 12.5028 0.00511537ZM10.3629 1.83504L8.55732 3.97705C8.4061 4.15645 8.15611 4.21727 7.93937 4.1274L2.53038 1.88455L2.34499 2.0605L6.69246 5.1918C6.81443 5.27965 6.89413 5.41449 6.91228 5.56371C6.93043 5.71292 6.88538 5.86294 6.78803 5.97747L3.57374 9.75882C3.44088 9.91512 3.23076 9.98235 3.03185 9.93221L2.11042 9.69993L3.34078 10.4654C3.41198 10.5097 3.47185 10.57 3.51562 10.6416L4.26046 11.8588L4.03369 10.9442C3.98489 10.7473 4.05081 10.5398 4.20422 10.4072L7.95423 7.16604C8.0691 7.06676 8.22054 7.02058 8.37126 7.03889C8.52198 7.0572 8.65796 7.13828 8.74573 7.26217L11.8574 11.655L12.0126 11.4985L9.78989 6.04813C9.69832 5.82359 9.76814 5.56554 9.96043 5.41781L12.1781 3.71403C12.3829 3.49166 12.6676 2.97074 12.8217 2.39103C12.8991 2.09959 12.9339 1.82736 12.9201 1.60458C12.9067 1.38763 12.8509 1.26202 12.7922 1.19361C12.7411 1.14627 12.6365 1.0929 12.4335 1.07981C12.2238 1.06628 11.9614 1.10041 11.6759 1.17838C11.1003 1.33555 10.578 1.62797 10.3629 1.83504Z" fill="#868998"/>
</svg>
