<svg width="14" height="15" viewBox="0 0 14 15" fill="none" xmlns="http://www.w3.org/2000/svg">
<path fill-rule="evenodd" clip-rule="evenodd" d="M2.26079 3.72814H6.40694V6.54612H2.26079V3.72814ZM2.26079 7.75383V10.7731C2.26079 11.1066 2.52597 11.377 2.85309 11.377H11.1454C11.4725 11.377 11.7377 11.1066 11.7377 10.7731V7.75383H2.26079ZM11.7377 6.54612V3.72814H7.59156V6.54612H11.7377ZM10.1204 2.52043H3.8781C4.59338 2.29222 5.59059 2.11786 6.99925 2.11786C8.40791 2.11786 9.40511 2.29222 10.1204 2.52043ZM3.0014 1.55798C3.90128 1.18731 5.16427 0.910156 6.99925 0.910156C8.83423 0.910156 10.0972 1.18731 10.9971 1.55798C11.906 1.93236 12.4106 2.38941 12.7235 2.67296L12.9223 2.85312V10.7731C12.9223 11.6851 12.2612 12.4397 11.401 12.5661L12.2963 15.0001H1.70224L2.59754 12.5661C1.73725 12.4397 1.07617 11.6851 1.07617 10.7731V2.85312L1.27497 2.67296C1.58786 2.38941 2.09254 1.93236 3.0014 1.55798ZM3.85587 12.5847L3.41164 13.7924H10.5869L10.1426 12.5847H3.85587ZM5.22148 9.56528C5.22148 10.01 4.82371 10.3704 4.33302 10.3704C3.84234 10.3704 3.44456 10.01 3.44456 9.56528C3.44456 9.12062 3.84234 8.76015 4.33302 8.76015C4.82371 8.76015 5.22148 9.12062 5.22148 9.56528ZM9.66505 10.3704C10.1557 10.3704 10.5535 10.01 10.5535 9.56528C10.5535 9.12062 10.1557 8.76015 9.66505 8.76015C9.17437 8.76015 8.77659 9.12062 8.77659 9.56528C8.77659 10.01 9.17437 10.3704 9.66505 10.3704Z" fill="#868998"/>
</svg>
