<svg width="14" height="14" viewBox="0 0 14 14" fill="none" xmlns="http://www.w3.org/2000/svg">
<g clip-path="url(#clip0_3068_76687)">
<path d="M0.931524 13.9706C0.696416 13.9706 0.500493 13.775 0.500493 13.5402V12.6499C0.490697 12.4542 0.627843 12.2683 0.833562 12.2194L1.92094 11.9651C2.02869 11.7596 2.53809 11.1041 3.5471 9.85185L3.76261 8.44305C3.52751 8.57023 3.25321 8.63871 2.96913 8.6485C2.85157 8.6485 2.73402 8.63871 2.62626 8.60936C2.57728 8.59958 2.5185 8.5898 2.45973 8.58001C1.46052 8.32565 0.843358 7.29839 1.09806 6.29071C1.09806 6.28092 1.39194 4.79385 1.68583 3.61006C1.82297 2.92523 2.24421 2.30887 2.85157 1.94689C3.12586 1.80014 3.42955 1.72187 3.73323 1.72187C3.92915 1.72187 4.13487 1.75122 4.321 1.81971C4.74223 1.97624 5.0753 2.29909 5.24184 2.70021C5.33 2.90566 5.40837 3.12089 5.44755 3.34591C5.63368 3.27743 5.8394 3.24808 6.04512 3.24808C6.44676 3.24808 6.83861 3.38505 7.15209 3.62963L8.70968 4.8232L10.2673 4.79385V3.13068C10.2673 2.88609 10.4632 2.69043 10.6983 2.69043C10.9432 2.69043 11.1293 2.88609 11.1293 3.13068V4.79385C11.3057 4.81342 11.4526 4.87212 11.5897 4.96017C11.8738 5.14605 12.0404 5.47869 12.0208 5.8211C12.0208 5.86024 12.0208 5.91894 12.0208 5.98742C11.9718 6.45702 11.5995 6.81901 11.1293 6.84836V10.9867L12.8339 9.90077C12.9024 9.86163 12.9808 9.84207 13.0592 9.84207C13.1375 9.84207 13.2061 9.86163 13.2747 9.90077C13.4118 9.97904 13.5 10.1258 13.5 10.2823V13.5597C13.5 13.8043 13.3041 14 13.069 14H0.931524V13.9706ZM12.6379 13.0999L12.6183 11.0356L11.1195 11.9846V12.2977C11.1195 12.5423 10.9236 12.7379 10.6885 12.7379C10.4436 12.7379 10.2575 12.5423 10.2575 12.2977V12.1705H10.0028C9.10152 12.1705 9.04275 12.1607 8.9154 12.0433C8.85662 11.9846 8.81743 11.9161 8.79784 11.8477C8.51375 10.7324 8.10231 9.07897 8.06313 8.95178C8.03374 8.8833 7.97496 8.79525 7.90639 8.71698L6.38799 7.82669C6.24104 7.73864 6.15288 7.56254 6.18227 7.38644L6.53493 5.33194C6.55452 5.18518 6.65248 5.058 6.79942 4.9993C6.84841 4.97973 6.90718 4.96995 6.96596 4.96995C7.05413 4.96995 7.15209 4.9993 7.22066 5.058L8.40599 5.90915C8.44518 5.9385 8.50396 5.95807 8.56273 5.95807H11.002C11.1587 5.95807 11.1587 5.95807 11.1587 5.80154C11.1587 5.75262 11.1489 5.72327 11.1293 5.69392C11.1195 5.68414 11.0803 5.67435 11.0412 5.66457H8.54314C8.44518 5.66457 8.35701 5.63522 8.27865 5.57652L6.64269 4.31447C6.47615 4.18728 6.27043 4.10901 6.06471 4.10901C5.85899 4.10901 5.65327 4.1775 5.48674 4.31447C5.39857 4.38295 5.3398 4.471 5.31041 4.56883L4.36018 10.1258C4.35038 10.1943 4.321 10.2725 4.27202 10.3312C3.63526 11.1139 2.61646 12.3955 2.49891 12.5618C2.44993 12.6597 2.35197 12.7477 2.22462 12.7771L1.37235 12.9825V13.0999H12.6379ZM10.2771 11.3194V6.81901H8.59212C8.33742 6.81901 8.11211 6.75052 7.91619 6.60377L7.28923 6.16352L7.10311 7.23969L8.3962 8.0028C8.63131 8.16911 8.79784 8.39413 8.8958 8.65828C8.9056 8.68763 8.9056 8.74633 8.8958 8.77568C8.95458 8.92243 9.09173 9.46052 9.56194 11.3096H10.2771V11.3194ZM3.75282 2.58281C3.59608 2.58281 3.43934 2.62194 3.2924 2.70021C2.91035 2.94479 2.63606 3.34591 2.54789 3.79595C2.2638 4.95038 1.96992 6.38854 1.96012 6.46681C1.85236 7.12229 2.23441 7.66038 2.79279 7.74843C2.85157 7.75821 2.91035 7.76799 2.95933 7.76799C3.44914 7.76799 3.8116 7.26904 4.03691 6.89727C4.03691 6.88749 4.0467 6.88749 4.0467 6.87771L4.46794 4.39273C4.49733 4.22641 4.5659 4.06988 4.66386 3.93291C4.66386 3.6492 4.5561 2.79804 4.0663 2.63173C3.96833 2.59259 3.86058 2.58281 3.75282 2.58281ZM3.89976 12.7869C3.77241 12.7869 3.66465 12.7282 3.58628 12.6401C3.41975 12.4542 3.43934 12.1803 3.61567 12.0238L4.8206 10.4584C4.84999 10.4291 4.85978 10.3899 4.85978 10.3508C4.85978 10.3019 4.86958 10.2334 4.89897 10.1845L5.20265 8.38435C5.24184 8.18868 5.40837 8.07128 5.62389 8.07128C5.70225 8.07128 5.78062 8.09085 5.8492 8.12998L7.41658 9.0594C7.52434 9.1181 7.61251 9.22572 7.6419 9.3529L8.17089 11.9748C8.20028 12.0922 8.17089 12.2194 8.09252 12.327C8.01415 12.4249 7.90639 12.4934 7.77904 12.5031L3.91935 12.7966H3.89976V12.7869ZM5.71205 10.3802L5.68266 10.478C5.66307 10.6737 5.5847 10.8693 5.46715 11.0259L4.84019 11.8379L7.22066 11.652L6.82881 9.7051L5.91777 9.16702L5.71205 10.3802ZM6.8582 3.25786C5.96675 3.25786 5.24184 2.52411 5.24184 1.63382C5.24184 0.733753 5.96675 0 6.8582 0C7.74965 0 8.47457 0.733753 8.47457 1.62404C8.47457 2.52411 7.74965 3.25786 6.8582 3.25786ZM6.8582 0.87072C6.44676 0.87072 6.1039 1.21314 6.1039 1.62404C6.1039 2.03494 6.43697 2.37736 6.8582 2.37736C7.27944 2.37736 7.60271 2.03494 7.60271 1.62404C7.60271 1.21314 7.26964 0.87072 6.8582 0.87072Z" fill="#868998"/>
</g>
<defs>
<clipPath id="clip0_3068_76687">
<rect width="14" height="14" fill="white"/>
</clipPath>
</defs>
</svg>
