<svg width="24" height="24" viewBox="0 0 24 24" fill="none" xmlns="http://www.w3.org/2000/svg">
    <g clip-path="url(#h7omltjlxa)">
        <rect width="24" height="24" rx="4" fill="#F4F5F6"/>
        <path d="M19 9.552a1.068 1.068 0 0 0-.047-.216v-.072a.857.857 0 0 0-.147-.224l-4.667-4.8a.831.831 0 0 0-.218-.152.242.242 0 0 0-.07 0A.672.672 0 0 0 13.594 4h-3.15a2.3 2.3 0 0 0-1.65.703A2.435 2.435 0 0 0 8.112 6.4v.8h-.778a2.3 2.3 0 0 0-1.65.703A2.435 2.435 0 0 0 5 9.6v8c0 .636.246 1.247.683 1.697.438.45 1.031.703 1.65.703h6.223c.618 0 1.212-.253 1.65-.703.437-.45.683-1.06.683-1.697v-.8h.778c.618 0 1.212-.253 1.65-.703.437-.45.683-1.06.683-1.697V9.552zm-4.667-2.824L16.348 8.8H15.11a.767.767 0 0 1-.55-.234.812.812 0 0 1-.228-.566V6.728zm0 10.872a.812.812 0 0 1-.228.566.767.767 0 0 1-.55.234H7.334a.767.767 0 0 1-.55-.234.812.812 0 0 1-.227-.566v-8c0-.212.082-.416.227-.566a.767.767 0 0 1 .55-.234h.778v5.6c0 .636.246 1.247.684 1.697.437.45 1.03.703 1.65.703h3.888v.8zm3.111-3.2a.812.812 0 0 1-.227.566.767.767 0 0 1-.55.234h-6.223a.767.767 0 0 1-.55-.234.812.812 0 0 1-.227-.566v-8c0-.212.082-.416.227-.566a.767.767 0 0 1 .55-.234h2.334V8c0 .637.246 1.247.683 1.697.438.45 1.031.703 1.65.703h2.333v4z" fill="#868998"/>
    </g>
    <defs>
        <clipPath id="h7omltjlxa">
            <path fill="#fff" d="M0 0h24v24H0z"/>
        </clipPath>
    </defs>
</svg>
