<svg width="360" height="224" viewBox="0 0 360 224" fill="none" xmlns="http://www.w3.org/2000/svg">
<rect width="360" height="224" fill="#F7F7F7"/>
<path d="M159.375 200H113.542C109.738 200 106.667 196.927 106.667 193.119V85.7856C106.667 81.9785 109.738 78.9053 113.542 78.9053H159.375C163.179 78.9053 166.25 81.9785 166.25 85.7856V193.119C166.25 196.927 163.179 200 159.375 200Z" fill="#C0C0C0"/>
<path d="M246 200H200.167C196.363 200 193.292 196.927 193.292 193.119V85.7856C193.292 81.9785 196.363 78.9053 200.167 78.9053H246C249.804 78.9053 252.875 81.9785 252.875 85.7856V193.119C252.875 196.927 249.804 200 246 200Z" fill="#C0C0C0"/>
<path d="M264.333 163.304H209.563V73.4009C209.563 69.5937 206.492 66.5205 202.688 66.5205H156.854C153.05 66.5205 149.979 69.5937 149.979 73.4009V163.304H95.6667C93.65 163.304 92 164.956 92 166.974V196.33C92 198.348 93.65 200 95.6667 200H264.333C266.35 200 268 198.348 268 196.33V166.974C268 164.956 266.35 163.304 264.333 163.304Z" fill="#CACACA"/>
<path d="M134.625 102.758H121.792C120.279 102.758 119.042 101.519 119.042 100.005V94.0424C119.042 92.2535 120.463 90.8315 122.25 90.8315H134.625C136.138 90.8315 137.375 92.07 137.375 93.5837V100.005C137.375 101.519 136.138 102.758 134.625 102.758Z" fill="#E7E7E7"/>
<path d="M134.625 127.068H121.792C120.279 127.068 119.042 125.83 119.042 124.316V118.353C119.042 116.564 120.463 115.142 122.25 115.142H134.625C136.138 115.142 137.375 116.381 137.375 117.894V124.316C137.375 125.83 136.138 127.068 134.625 127.068Z" fill="#E7E7E7"/>
<path d="M134.625 151.379H121.792C120.279 151.379 119.042 150.14 119.042 148.626V142.663C119.042 140.875 120.463 139.453 122.25 139.453H134.625C136.138 139.453 137.375 140.691 137.375 142.205V148.626C137.375 150.14 136.138 151.379 134.625 151.379Z" fill="#E7E7E7"/>
<path d="M170.834 93.5837H164.417C162.904 93.5837 161.667 92.3452 161.667 90.8315V84.4099C161.667 82.8962 162.904 81.6577 164.417 81.6577H170.834C172.346 81.6577 173.584 82.8962 173.584 84.4099V90.8315C173.584 92.3452 172.346 93.5837 170.834 93.5837Z" fill="#E7E7E7"/>
<path d="M195.125 93.5837H188.708C187.196 93.5837 185.958 92.3452 185.958 90.8315V84.4099C185.958 82.8962 187.196 81.6577 188.708 81.6577H195.125C196.637 81.6577 197.875 82.8962 197.875 84.4099V90.8315C197.875 92.3452 196.637 93.5837 195.125 93.5837Z" fill="#E7E7E7"/>
<path d="M170.834 121.105H164.417C162.904 121.105 161.667 119.867 161.667 118.353V111.931C161.667 110.418 162.904 109.179 164.417 109.179H170.834C172.346 109.179 173.584 110.418 173.584 111.931V118.353C173.584 119.867 172.346 121.105 170.834 121.105Z" fill="#E7E7E7"/>
<path d="M195.125 121.105H188.708C187.196 121.105 185.958 119.867 185.958 118.353V111.931C185.958 110.418 187.196 109.179 188.708 109.179H195.125C196.637 109.179 197.875 110.418 197.875 111.931V118.353C197.875 119.867 196.637 121.105 195.125 121.105Z" fill="#E7E7E7"/>
<path d="M170.834 148.627H164.417C162.904 148.627 161.667 147.388 161.667 145.875V139.453C161.667 137.939 162.904 136.701 164.417 136.701H170.834C172.346 136.701 173.584 137.939 173.584 139.453V145.875C173.584 147.388 172.346 148.627 170.834 148.627Z" fill="#E7E7E7"/>
<path d="M195.125 148.627H188.708C187.196 148.627 185.958 147.388 185.958 145.875V139.453C185.958 137.939 187.196 136.701 188.708 136.701H195.125C196.637 136.701 197.875 137.939 197.875 139.453V145.875C197.875 147.388 196.637 148.627 195.125 148.627Z" fill="#E7E7E7"/>
<path d="M237.75 102.758H224.917C223.404 102.758 222.167 101.519 222.167 100.005V94.0424C222.167 92.2535 223.588 90.8315 225.375 90.8315H237.75C239.263 90.8315 240.5 92.07 240.5 93.5837V100.005C240.5 101.519 239.263 102.758 237.75 102.758Z" fill="#E7E7E7"/>
<path d="M237.75 127.068H224.917C223.404 127.068 222.167 125.83 222.167 124.316V118.353C222.167 116.564 223.588 115.142 225.375 115.142H237.75C239.263 115.142 240.5 116.381 240.5 117.894V124.316C240.5 125.83 239.263 127.068 237.75 127.068Z" fill="#E7E7E7"/>
<path d="M237.75 151.379H224.917C223.404 151.379 222.167 150.14 222.167 148.626V142.663C222.167 140.875 223.588 139.453 225.375 139.453H237.75C239.263 139.453 240.5 140.691 240.5 142.205V148.626C240.5 150.14 239.263 151.379 237.75 151.379Z" fill="#E7E7E7"/>
<path d="M128.208 181.652H109.875V200H128.208V181.652Z" fill="#BABABA"/>
<path d="M249.666 181.652H231.333V200H249.666V181.652Z" fill="#BABABA"/>
<path d="M179.542 178.9H164.417V200H179.542V178.9Z" fill="#B6B6B6"/>
<path d="M194.667 178.9H179.542V200H194.667V178.9Z" fill="#BABABA"/>
<path d="M131.416 181.652H106.666C104.879 181.652 103.458 180.23 103.458 178.441C103.458 176.652 104.879 175.23 106.666 175.23H131.416C133.204 175.23 134.625 176.652 134.625 178.441C134.625 180.184 133.204 181.652 131.416 181.652Z" fill="#C0C0C0"/>
<path d="M200.854 178.9H158.688C156.9 178.9 155.479 177.478 155.479 175.689C155.479 173.9 156.9 172.479 158.688 172.479H200.854C202.642 172.479 204.063 173.9 204.063 175.689C204.063 177.432 202.642 178.9 200.854 178.9Z" fill="#C0C0C0"/>
<path d="M252.875 181.652H228.125C226.338 181.652 224.917 180.23 224.917 178.441C224.917 176.652 226.338 175.23 228.125 175.23H252.875C254.663 175.23 256.084 176.652 256.084 178.441C256.084 180.184 254.663 181.652 252.875 181.652Z" fill="#C0C0C0"/>
<path d="M267.542 52.2553C266.258 53.6773 264.883 55.0992 263.692 56.6129C263.233 57.2092 262.958 58.1266 263.004 58.8605C263.05 60.2365 263.508 61.5668 263.508 62.9428C263.508 63.8143 263.233 65.0069 262.592 65.4656C261.996 65.9243 260.758 65.8785 259.933 65.6032C258.742 65.2363 257.733 64.3189 256.588 63.9061C255.9 63.6309 254.983 63.6309 254.296 63.9061C253.15 64.3189 252.096 65.1446 250.95 65.6491C248.888 66.6124 247.238 65.5574 247.375 63.2639C247.467 61.8878 247.925 60.5576 247.925 59.1816C247.925 58.2642 247.604 57.2092 247.054 56.4753C246.275 55.3744 245.129 54.5029 244.258 53.4479C242.838 51.7507 243.525 49.4114 245.725 49.4114C249.758 49.3656 252.142 47.6225 253.288 43.7695C253.517 43.0815 254.708 42.2558 255.442 42.21C256.175 42.21 257.092 43.0356 257.642 43.7236C258.192 44.4117 258.558 45.3291 258.833 46.1547C259.383 48.0812 260.713 48.7693 262.592 48.9527C264.471 49.1362 266.579 49.0445 267.542 51.2462C267.542 51.5673 267.542 51.8884 267.542 52.2553Z" fill="#E7E7E7"/>
<path d="M169.459 50.1913C169.688 48.6317 170.1 46.6594 170.284 44.687C170.329 43.9072 170.054 42.8981 169.55 42.3018C168.359 40.834 166.938 39.5955 165.654 38.2194C163.729 36.1095 164.509 33.5408 167.35 32.9445C169.092 32.5775 170.834 32.3482 172.621 32.1647C173.767 32.073 174.317 31.5225 174.775 30.5134C175.463 28.9539 176.059 27.3026 177.021 25.8806C177.617 25.0091 178.809 24 179.771 24C180.688 24 181.925 24.9633 182.521 25.8348C183.529 27.3484 184.079 29.1373 184.95 30.7428C185.271 31.3391 186.05 31.8895 186.738 32.0271C188.571 32.4399 190.45 32.6234 192.284 32.9904C194.988 33.5867 195.767 36.1095 193.934 38.1736C192.65 39.5955 191.229 40.834 190.038 42.2559C189.534 42.8522 189.213 43.8613 189.259 44.6411C189.396 46.5676 189.9 48.4941 190.038 50.4206C190.221 53.2645 188.067 54.6406 185.5 53.3563C183.988 52.5765 182.521 51.6591 180.963 50.9711C180.275 50.6959 179.313 50.6959 178.625 50.9711C177.021 51.6591 175.509 52.7141 173.95 53.448C171.521 54.6406 169.413 53.2187 169.459 50.1913Z" fill="#E7E7E7"/>
<path d="M129.676 53.5398C129.905 52.1178 130.271 50.4665 130.363 48.7235C130.409 47.8979 130.042 46.8887 129.538 46.2007C128.667 45.054 127.43 44.2283 126.605 43.0816C126.009 42.1642 125.321 40.7881 125.642 39.9625C125.917 39.091 127.246 38.3571 128.301 37.9901C129.446 37.5773 130.776 37.5314 132.013 37.3938C133.251 37.2562 134.121 36.7517 134.534 35.5132C134.992 34.2289 135.68 32.9904 136.23 31.7519C136.78 30.6511 137.605 29.6419 138.842 30.0089C139.759 30.2382 140.721 30.9721 141.271 31.7519C142.051 32.8528 142.601 34.183 143.059 35.4673C143.517 36.7975 144.434 37.3021 145.717 37.4397C147.138 37.6232 148.559 37.8066 149.934 38.1277C152.317 38.6782 153.005 40.8799 151.401 42.7146C150.301 43.9531 149.017 45.054 148.009 46.3383C147.505 46.9805 147.23 47.9437 147.276 48.7235C147.367 50.2372 147.917 51.7509 147.917 53.3104C147.917 54.3195 147.505 55.558 146.863 56.3378C146.038 57.301 144.801 57.0717 143.701 56.4295C143.288 56.2002 142.83 56.0626 142.509 55.7415C139.942 53.4939 137.421 53.6774 134.901 55.7874C134.534 56.0626 134.121 56.2461 133.709 56.4754C131.417 57.6221 129.584 56.4295 129.676 53.5398Z" fill="#E7E7E7"/>
<path d="M211.396 53.815C211.625 52.2554 211.992 50.5583 212.084 48.8611C212.129 48.0813 211.9 47.0722 211.396 46.43C210.525 45.2374 209.425 44.2283 208.371 43.1733C207.454 42.2559 206.721 41.1092 207.363 40.0084C207.867 39.1368 209.059 38.4488 210.113 38.0819C211.396 37.6232 212.863 37.7608 214.146 37.3938C214.925 37.1645 215.704 36.5223 216.117 35.8801C216.942 34.5958 217.309 32.9904 218.179 31.7519C218.729 30.9721 219.829 30.1924 220.7 30.1465C221.479 30.1465 222.488 30.9721 223.038 31.706C223.817 32.8069 224.367 34.0912 224.825 35.3756C225.329 36.7516 226.246 37.3021 227.621 37.4856C229.042 37.669 230.463 37.8525 231.838 38.1736C234.084 38.724 234.771 40.8799 233.259 42.6688C232.204 43.8614 231.104 45.054 229.913 46.109C228.996 46.9346 228.767 47.8061 228.996 48.9987C229.317 50.4665 229.684 51.9343 229.638 53.4021C229.638 54.4113 229.225 55.6497 228.584 56.3836C227.713 57.3469 226.384 57.0717 225.467 56.2919C222.167 53.5856 219.096 53.7691 215.704 56.246C213.596 57.8515 211.259 56.3836 211.396 53.815Z" fill="#E7E7E7"/>
<path d="M115.925 52.1636C115.696 52.5305 115.375 53.402 114.779 53.8607C111.984 56.1083 110.746 58.7229 111.984 62.3465C112.35 63.4474 112.442 65.0069 111.067 65.5115C110.15 65.8326 108.684 65.7408 107.904 65.1904C105.246 63.3098 102.863 63.1722 100.159 65.1904C99.3794 65.7867 97.8211 65.8784 96.8586 65.5115C95.5752 65.0528 95.5752 63.585 95.9877 62.3924C97.0877 58.9981 96.4002 56.2001 93.4211 54.0442C92.4586 53.3562 91.6794 52.347 92.1836 50.9251C92.6877 49.5949 93.8336 49.2279 95.0711 49.2279C98.3711 49.2279 100.571 47.8977 101.396 44.5493C101.442 44.2741 101.579 43.953 101.763 43.7695C102.45 43.1732 103.229 42.21 103.963 42.21C104.696 42.21 105.934 43.0356 106.163 43.7236C107.309 47.5767 109.738 49.3656 113.725 49.3197C115.009 49.3197 115.925 50.2371 115.925 52.1636Z" fill="#E7E7E7"/>
</svg>
