<svg width="290" height="319" viewBox="0 0 290 319" fill="none" xmlns="http://www.w3.org/2000/svg">
<path d="M270.886 311.684C282.25 291.167 288.743 267.62 288.743 242.508C288.743 163.36 224.384 99.196 144.995 99.196C65.606 99.196 1.24658 163.36 1.24658 242.508C1.24658 267.62 7.74013 291.167 19.1038 311.684H43.9259L147.351 298.632L230.039 311.684H270.886Z" fill="#EEFEFF"/>
<path d="M30.9044 148.289L28.9751 149.229L92.994 279.932L94.9233 278.993L30.9044 148.289Z" fill="#D8F5F9"/>
<path d="M32.3004 153.597C4.17919 167.276 -7.86529 200.376 5.38364 227.525C3.76025 224.183 6.27389 219.693 10.9346 217.396C15.6476 215.099 20.7273 215.934 22.3507 219.276C20.7273 215.934 23.1885 211.392 27.9016 209.147C32.6146 206.902 37.6943 207.685 39.3177 211.027C37.6943 207.685 40.1555 203.143 44.8686 200.898C49.5817 198.653 54.6613 199.436 56.2847 202.778C54.6613 199.436 57.1226 194.894 61.8356 192.649C66.5487 190.352 71.6283 191.187 73.2517 194.529C71.6283 191.187 74.0896 186.645 78.8026 184.4C83.5157 182.103 88.5953 182.939 90.2187 186.28C88.5953 182.939 91.0566 178.396 95.7696 176.151C100.43 173.854 105.562 174.69 107.186 178.031C93.9891 150.778 60.4217 139.867 32.3004 153.597Z" fill="#D8F5F9"/>
<path d="M151.75 259.789C151.75 259.789 215.063 205.649 182.333 91.7303C190.398 86.9271 188.093 91.5737 188.093 91.5737C188.093 91.5737 229.516 189.047 185.004 271.954C151.75 265.689 151.75 259.789 151.75 259.789Z" fill="#CFE1ED"/>
<path d="M184.06 93.9753C184.06 93.9753 156.149 83.7946 134.835 103.06C113.522 122.324 108.128 150.517 108.128 150.517C108.128 150.517 79.8495 133.393 99.8015 99.3005C118.706 67.0357 176.153 76.2244 184.689 91.8347C185.213 92.7745 183.903 93.0877 184.06 93.9753Z" fill="#CFE1ED"/>
<path d="M187.675 93.3487C187.675 93.3487 223.494 69.5416 258.894 79.2002C277.38 83.7423 290 99.2482 290 99.2482C290 99.2482 288.639 57.2726 244.807 55.6542C210.559 54.4012 191.969 71.6822 186.313 90.3728C185.894 91.678 187.989 91.939 187.675 93.3487Z" fill="#CFE1ED"/>
<path d="M186.836 91.3125C186.836 91.3125 200.399 31.7949 243.969 26.9917C214.486 12.0079 193.434 24.2247 182.175 43.855C175.315 55.8108 180.604 82.5937 185.265 93.4531C185.579 94.184 186.574 90.686 186.836 91.3125Z" fill="#CFE1ED"/>
<path d="M185.632 93.9752C185.632 93.9752 162.433 52.6783 81.8398 87.2925C92.837 58.2646 127.399 41.0881 148.765 47.5619C179.086 56.8028 185.632 93.9752 185.632 93.9752Z" fill="#CFE1ED"/>
<path d="M185.632 93.9752C185.632 93.9752 145.78 31.7949 178.667 0C180.971 12.0079 185.632 93.9752 185.632 93.9752Z" fill="#CFE1ED"/>
<path d="M120.644 203.77L203.542 199.645C203.542 199.645 205.532 177.091 184.689 183.095C181.652 171.348 146.252 160.071 136.721 186.854C131.17 181.633 110.852 191.657 120.644 203.77Z" fill="white"/>
<path d="M205.793 117.991H262.664C262.664 117.991 260.779 100.084 248.158 106.505C244.964 99.8226 229.097 92.0435 220.927 105.043C212.496 105.67 198.043 110.212 205.793 117.991Z" fill="#F6FCFC"/>
<path d="M43.6641 311.685C43.6641 311.685 64.2968 248.408 136.983 252.95C209.668 257.492 230.092 311.685 230.092 311.685C230.092 311.685 190.345 315.287 173.43 307.508C156.516 299.729 132.112 307.508 121.115 312.729C110.171 317.95 49.9481 324.215 43.6641 311.685Z" fill="#DFF6F7"/>
</svg>
