<svg width="4" height="8" viewBox="0 0 4 8" fill="none" xmlns="http://www.w3.org/2000/svg">
<path d="M3.98898 2.74374C3.9697 2.6968 3.92816 2.66668 3.8824 2.66668H2.48828L3.86416 0.204672C3.8871 0.16361 3.88851 0.11161 3.86781 0.0690783C3.8471 0.0264063 3.80756 0 3.76474 0H1.8824C1.83781 0 1.7971 0.0285313 1.77711 0.0737345L0.0124054 4.07374C-0.00583443 4.11495 -0.00383535 4.16401 0.0175755 4.20334C0.0391103 4.24266 0.0768722 4.26666 0.117695 4.26666H1.32745L0.00922065 7.81494C-0.0132517 7.87561 0.00675286 7.946 0.0562748 7.98041C0.0753281 7.99361 0.0965045 8 0.117571 8C0.151334 8 0.184629 7.98359 0.207695 7.95267L3.9724 2.88599C4.00192 2.84627 4.00827 2.7908 3.98898 2.74374Z" fill="#F59233"/>
</svg>
