<svg xmlns="http://www.w3.org/2000/svg" width="12" height="12" fill="none" viewBox="0 0 12 12">
    <path fill="#EC971F" fill-rule="evenodd" d="M6 12A6 6 0 1 0 6 0a6 6 0 0 0 0 12zm1.882-7.333c.046 0 .088.03.107.077a.148.148 0 0 1-.017.142L4.208 9.953a.113.113 0 0 1-.09.047.107.107 0 0 1-.062-.02.143.143 0 0 1-.047-.165l1.318-3.548h-1.21a.115.115 0 0 1-.1-.064.149.149 0 0 1-.005-.13l1.765-4A.117.117 0 0 1 5.882 2h1.883c.043 0 .082.026.103.07.02.042.02.094-.004.135L6.488 4.667h1.394z" clip-rule="evenodd"/>
</svg>
