<svg width="32" height="32" viewBox="0 0 32 32" fill="none" xmlns="http://www.w3.org/2000/svg">
<g clip-path="url(#clip0)">
<path d="M24.11 10C24.676 9.59802 25.22 9.14902 25.718 8.65202C26.762 7.60802 27.46 6.32402 27.684 5.03602C27.93 3.62402 27.569 2.31302 26.696 1.43902C25.999 0.742023 25.055 0.374023 23.966 0.374023C22.415 0.374023 20.781 1.11802 19.483 2.41702C17.406 4.49402 16.195 7.36202 15.543 9.40802C15.061 7.35202 14.099 4.57502 12.23 2.70602C11.227 1.70302 9.94498 1.18802 8.73498 1.18802C7.74598 1.18802 6.80398 1.53202 6.10198 2.23402C4.53998 3.79602 4.75098 6.54002 6.57298 8.36202C7.22298 9.01202 7.98198 9.55102 8.78298 10H2.00098V18H4.00098V32H28.001V18H30.001V10H24.111H24.11ZM21.073 4.00702C21.939 3.14102 23.021 2.62302 23.965 2.62302C24.299 2.62302 24.768 2.69302 25.104 3.02902C25.917 3.84202 25.461 5.72602 24.127 7.06002C22.754 8.43302 20.906 9.37802 19.301 9.99902H17.717C18.297 8.20102 19.344 5.73502 21.073 4.00602V4.00702ZM7.30998 5.02802C7.28798 4.74302 7.30798 4.20802 7.69098 3.82502C8.01098 3.50502 8.43398 3.43802 8.73298 3.43802C9.39698 3.43802 10.091 3.75102 10.637 4.29702C11.696 5.35502 12.567 7.04002 13.158 9.16802C13.174 9.22502 13.189 9.28302 13.205 9.33902C13.148 9.32402 13.091 9.30802 13.034 9.29202C10.906 8.70102 9.22098 7.83002 8.16298 6.77102C7.66798 6.27602 7.35798 5.64102 7.30998 5.02802V5.02802ZM14 30H5.99998V17H14V30ZM14 16H3.99998V12H14V16ZM26 30H18V17H26V30ZM28 16H18V12H28V16Z" fill="#E52822"/>
</g>
<defs>
<clipPath id="clip0">
<rect width="32" height="32" fill="white"/>
</clipPath>
</defs>
</svg>
