<svg width="24" height="24" viewBox="0 0 24 24" fill="none" xmlns="http://www.w3.org/2000/svg">
<path d="M12.9145 8.07324L12.9121 13.7214C12.9121 13.9358 12.9972 14.1408 13.1486 14.2921L17.1892 18.3319L18.3308 17.1903L14.5267 13.387L14.5291 8.07324H12.9145Z" fill="#333333"/>
<path d="M13.5 2C8.22083 2 3.85164 5.92066 3.11987 11H0L3.75 14.75L7.49999 11H4.63548C5.353 6.75031 9.04917 3.50002 13.5 3.50002C18.4629 3.50002 22.5 7.53712 22.5 12.5C22.5 17.4629 18.4629 21.5 13.5 21.5C10.7102 21.5 8.12332 20.2373 6.40283 18.0357L5.22071 18.9585C7.22752 21.5264 10.2451 23 13.5 23C19.2898 23 24 18.2891 24 12.5C24 6.71099 19.2898 2.00004 13.5 2Z" fill="#333333"/>
</svg>
