<svg width="24" height="24" viewBox="0 0 24 24" fill="none" xmlns="http://www.w3.org/2000/svg">
    <path d="M8.555 23h11.883c.857 0 1.555-.74 1.555-1.648v-1.481c.002-.013.007-.022.007-.036 0-.013-.005-.024-.007-.035v-2.216c.002-.013.007-.022.007-.035 0-.013-.005-.024-.007-.036V5.907c0-.872-.643-1.59-1.452-1.646-.015-.002-.031-.004-.049-.004h-2.32v-1.61c0-.909-.698-1.647-1.556-1.647H12.38c-.858 0-1.556.74-1.556 1.647v1.607H8.555C7.698 4.256 7 4.994 7 5.903v15.45C7 22.261 7.698 23 8.555 23zm2.968-20.352c0-.5.384-.906.854-.906h4.237c.472 0 .854.407.854.905v1.607h-5.945V2.648zM7.7 5.903c0-.5.383-.906.854-.906h11.883c.472 0 .854.408.854.906v11.272H7.702V5.903zm0 12.014h13.592v1.546H7.701v-1.546zm0 2.288h13.592v1.148c0 .5-.382.905-.853.905H8.555c-.471 0-.854-.407-.854-.905v-1.148z" fill="#003C71"/>
    <path fill-rule="evenodd" clip-rule="evenodd" d="M19.849 5.808a.58.58 0 0 1-.078-.24.285.285 0 0 1 .031-.143.804.804 0 0 1 .123-.172c.037-.043.068-.076.102-.112.03-.03.06-.063.1-.106l-.39-.369-.075.081a6.11 6.11 0 0 0-.133.144c-.071.082-.148.18-.205.296a.846.846 0 0 0-.087.415c.008.154.056.31.142.472.006.013.026.07-.053.223a2.416 2.416 0 0 1-.37.491 8.907 8.907 0 0 1-.504.493l-.085.078-.021.02a1.043 1.043 0 0 0-.72-.204l-1.773.165a.986.986 0 0 0-.723.422l-2.563 3.733c-.311.454-.185 1.082.282 1.402l2.256 1.549c.467.32 1.099.212 1.41-.242l2.563-3.732a.986.986 0 0 0 .133-.827l-.483-1.714a1.03 1.03 0 0 0-.047-.131l.026-.025.099-.09c.162-.15.357-.332.534-.524a2.94 2.94 0 0 0 .458-.615c.105-.204.187-.48.05-.738zm-4.368 8.09-2.256-1.549a.337.337 0 0 1-.093-.467l2.562-3.733a.328.328 0 0 1 .24-.14l1.774-.166a.35.35 0 0 1 .367.252l.483 1.714a.329.329 0 0 1-.044.276l-2.563 3.732a.337.337 0 0 1-.47.08zm1.506-4.611a.337.337 0 0 1 .094.467.337.337 0 0 1-.47.08.337.337 0 0 1-.094-.467.337.337 0 0 1 .47-.08zm.376-.548c.467.32.593.948.282 1.402-.312.454-.943.563-1.41.242-.468-.32-.594-.949-.282-1.403.312-.454.943-.562 1.41-.241z" fill="#003C71"/>
</svg>
