<svg xmlns="http://www.w3.org/2000/svg" width="11" height="11" fill="none" viewBox="0 0 11 11">
    <path fill="#fff" stroke="#fff" stroke-linecap="round" stroke-linejoin="round" stroke-miterlimit="10" stroke-width=".5" d="M9.655 9.715H1.417a.247.247 0 0 1-.248-.246V.507c0-.135.112-.245.248-.245h8.238c.136 0 .248.11.248.245V9.47a.247.247 0 0 1-.248.246z"/>
    <path fill="#003C71" d="M2.755 7.775a.526.526 0 0 0 .528-.524.526.526 0 0 0-.528-.523.526.526 0 0 0-.528.523c0 .29.237.524.528.524zM8.53 7.775a.526.526 0 0 0 .527-.524.526.526 0 0 0-.528-.523.526.526 0 0 0-.528.523c0 .29.237.524.528.524z"/>
    <path fill="#fff" d="M3.087 9.797v.695a.247.247 0 0 1-.247.246H1.767a.247.247 0 0 1-.247-.245v-.696"/>
    <path stroke="#fff" stroke-linecap="round" stroke-linejoin="round" stroke-miterlimit="10" stroke-width=".5" d="M3.087 9.797v.695a.247.247 0 0 1-.247.246H1.767a.247.247 0 0 1-.247-.245v-.696"/>
    <path fill="#fff" d="M9.46 9.797v.695a.247.247 0 0 1-.248.246H8.14a.247.247 0 0 1-.248-.245v-.696"/>
    <path stroke="#fff" stroke-linecap="round" stroke-linejoin="round" stroke-miterlimit="10" stroke-width=".5" d="M9.46 9.797v.695a.247.247 0 0 1-.248.246H8.14a.247.247 0 0 1-.248-.245v-.696M.262 3.474V1.817c0-.135.111-.246.247-.246h.743M10.738 3.474V1.817a.247.247 0 0 0-.247-.246h-.743"/>
    <path stroke="#003C71" stroke-miterlimit="10" stroke-width=".5" d="M.953 1.31h9.25M.262 5.5h10.476"/>
</svg>
