<svg xmlns="http://www.w3.org/2000/svg" width="13" height="13" fill="none" viewBox="0 0 13 13">
    <path stroke="#26BED6" stroke-linecap="round" stroke-linejoin="round" stroke-miterlimit="10" d="M12.45 9.839c-.05-.1-.25-.251-.65-.452-.1-.05-.25-.15-.45-.251-.2-.1-.4-.2-.55-.301-.15-.1-.3-.201-.45-.251 0 0-.1-.05-.2-.151-.1-.1-.2-.15-.3-.2-.1-.051-.15-.051-.25-.051s-.25.1-.45.251c-.15.15-.35.351-.45.552-.15.201-.3.352-.45.553-.15.15-.3.25-.4.25-.05 0-.1 0-.2-.05s-.15-.05-.15-.05c-.05 0-.1-.05-.2-.1s-.15-.1-.15-.1a9.089 9.089 0 0 1-2-1.507 9.12 9.12 0 0 1-1.5-2.008s-.05-.05-.1-.15c-.05-.101-.1-.151-.1-.202 0-.05-.05-.1-.05-.15 0-.05-.1-.251-.1-.302 0-.1.1-.25.25-.401.2-.15.35-.301.55-.452.2-.15.35-.301.55-.452.15-.15.25-.301.25-.452 0-.1 0-.15-.05-.25-.1-.101-.15-.202-.25-.302-.05-.15-.1-.201-.15-.201-.05-.15-.15-.301-.25-.502-.1-.15-.2-.301-.3-.502-.1-.201-.2-.352-.25-.502C3.45.8 3.3.55 3.2.55 3.15.55 3.1.5 3 .5c-.15 0-.35.05-.6.1s-.4.1-.55.151c-.3.15-.6.502-.9 1.054C.65 2.358.5 2.86.5 3.412c0 .15 0 .301.05.452 0 .15.05.301.1.502.05.15.1.301.1.402.05.1.1.25.15.452.1.25.15.351.15.401.2.553.45 1.055.7 1.507.45.753 1.05 1.506 1.85 2.259.8.803 1.55 1.406 2.25 1.858.45.25.95.502 1.5.703.05 0 .2.05.4.15.25.1.4.15.45.15.1.051.2.051.4.101.2.05.35.1.5.1.15 0 .3.051.45.051.5 0 1.05-.15 1.6-.452.55-.301.9-.602 1.05-.904.05-.15.1-.351.2-.602.05-.251.1-.452.1-.603 0 0 0-.05-.05-.1z"/>
</svg>
