<svg xmlns="http://www.w3.org/2000/svg" width="13" height="13" fill="none" viewBox="0 0 13 13">
    <path stroke="#000" stroke-linecap="round" stroke-linejoin="round" stroke-miterlimit="10" stroke-width=".5" d="M9.286 12.74H7.785l-.01-4.405h-2.46l-.02 4.405H3.717V.554c0-.162.103-.294.23-.294h5.108c.127 0 .23.132.23.294V12.74h.002zM11.4 12.74H9.293V4.395c0-.161.132-.293.293-.293h1.521c.16 0 .293.132.293.293v8.345zM3.707 12.74H1.6V4.395c0-.161.131-.293.292-.293h1.521c.161 0 .293.132.293.293v8.345zM4.55 6.672h3.9M4.55 5.13h3.9M4.55 3.588h3.9M4.55 2.046h3.9M.26 12.74h4.826M7.914 12.74h4.826"/>
</svg>
