<svg width="18" height="18" viewBox="0 0 18 18" fill="none" xmlns="http://www.w3.org/2000/svg">
    <path d="M16.558 10.112a16.72 16.72 0 0 0-1.253.006 1.48 1.48 0 0 0-.565.16c-.466.234-.928.5-1.391.752-.366.2-.731.394-1.097.594l-.39.216c-.857-.11-1.713-.216-2.569-.316-.85-.1-1.703-.175-2.553-.284-.231-.028-1.343.634-1.215.697.468.234.953.418 1.43.625.638.275 1.276.562 1.916.83l.156.067c-.371.23-.74.465-1.112.696-.528.332-1.053.669-1.581 1.003-.094.06-.181.07-.275-.003-.61-.465-1.222-.928-1.834-1.387-.028-.022-.069-.031-.097-.016-.178.094-.353.194-.531.294.015.05.022.087.037.116.466.915.934 1.827 1.397 2.743.047.094.087.11.16.084.424-.143.852-.274 1.277-.421.557-.191 1.11-.388 1.663-.594.443-.166.88-.353 1.321-.531.329-.131 3.535-1.597 3.588-1.628.24-.14.484-.275.728-.406.797-.432 1.587-.894 2.334-1.494.29-.234.581-.475.79-.869A.902.902 0 0 0 17 10.7c.025-.309-.178-.584-.44-.587z" stroke="#F79321" stroke-miterlimit="10"/>
    <path d="M4.425 12.227h-1.16V1.494c0-.272.203-.494.457-.494h7.383c.25 0 .457.222.457.494v8.949M4.044 12.227H1" stroke="#F79321" stroke-miterlimit="10" stroke-linecap="round"/>
    <path d="M6.265 4.562H5.147a.459.459 0 0 1-.457-.456V2.987c0-.25.207-.456.457-.456h1.118c.25 0 .457.206.457.456v1.119a.455.455 0 0 1-.457.456zM9.677 4.562H8.56a.459.459 0 0 1-.456-.456V2.987c0-.25.206-.456.456-.456h1.118c.25 0 .457.206.457.456v1.119c0 .25-.207.456-.457.456zM6.265 8.178H5.147a.459.459 0 0 1-.457-.457V6.603c0-.25.207-.457.457-.457h1.118c.25 0 .457.207.457.457V7.72a.455.455 0 0 1-.457.457zM9.759 8.178H8.478a.376.376 0 0 1-.375-.375V6.52c0-.206.168-.375.375-.375h1.28c.207 0 .376.17.376.375v1.282a.376.376 0 0 1-.375.375z" stroke="#F79321" stroke-miterlimit="10" stroke-linecap="round"/>
</svg>
