<svg xmlns="http://www.w3.org/2000/svg" width="13" height="14" fill="none" viewBox="0 0 13 14">
    <path stroke="#000" stroke-linecap="round" stroke-linejoin="round" stroke-miterlimit="10" stroke-width=".5" d="M11.46 6.101V4.36v-.281C11.46 2 9.254.259 6.482.259S1.504 1.944 1.504 4.08V6.1M2.183 6.157h-.566-.113c-.679 0-1.245.674-1.245 1.46 0 .787.566 1.461 1.245 1.461H2.183v-2.92zM10.781 6.101H11.46c.679 0 1.244.674 1.244 1.46 0 .787-.565 1.46-1.244 1.46H10.78v-2.92zM6.878 13.74h-.736c-.34 0-.565-.224-.565-.561v-.056c0-.281.226-.562.565-.562h.736c.34 0 .565.225.565.562v.056c-.056.337-.282.562-.565.562zM11.46 9.079v1.291c0 1.573-1.244 2.81-2.828 2.81H7.557"/>
</svg>
