<svg width="20" height="20" viewBox="0 0 20 20" fill="none" xmlns="http://www.w3.org/2000/svg">
<rect opacity="0.5" width="20" height="20" rx="4" fill="black"/>
<path d="M15.7338 4.2753C15.5637 4.10488 15.3329 4.0091 15.0921 4.0091C14.8514 4.0091 14.6206 4.10488 14.4505 4.2753L10 8.71672L5.54949 4.2662C5.37945 4.09578 5.14859 4 4.90785 4C4.66711 4 4.43625 4.09578 4.26621 4.2662C3.91126 4.62115 3.91126 5.19453 4.26621 5.54948L8.71672 9.99999L4.26621 14.4505C3.91126 14.8055 3.91126 15.3788 4.26621 15.7338C4.62116 16.0887 5.19454 16.0887 5.54949 15.7338L10 11.2833L14.4505 15.7338C14.8055 16.0887 15.3788 16.0887 15.7338 15.7338C16.0887 15.3788 16.0887 14.8055 15.7338 14.4505L11.2833 9.99999L15.7338 5.54948C16.0796 5.20363 16.0796 4.62115 15.7338 4.2753Z" fill="white"/>
</svg>
