<svg xmlns="http://www.w3.org/2000/svg" width="25" height="17" fill="none" viewBox="0 0 25 17">
    <path stroke="#828282" stroke-linecap="round" stroke-linejoin="round" stroke-miterlimit="10" d="M12.5.5C7.91.5 3.818 3.297.725 7.885c-.3.335-.3.895 0 1.23C3.818 13.703 7.91 16.5 12.5 16.5c4.59 0 8.682-2.797 11.776-7.385.299-.335.299-.895 0-1.23C21.181 3.297 17.09.5 12.5.5z"/>
    <path stroke="#828282" stroke-linecap="round" stroke-linejoin="round" stroke-miterlimit="10" d="M12.8 14.15c-2.994.224-5.589-2.573-5.39-6.042.2-2.797 2.196-5.147 4.69-5.259 2.995-.223 5.59 2.574 5.39 6.042-.1 2.798-2.196 5.035-4.69 5.26z"/>
    <path fill="#828282" d="M12.7 11.577c-1.597.112-2.994-1.343-2.894-3.245.1-1.566 1.197-2.797 2.495-2.909 1.596-.112 2.993 1.343 2.894 3.245-.1 1.566-1.198 2.797-2.495 2.909z"/>
</svg>
