<svg xmlns="http://www.w3.org/2000/svg" width="16" height="16" fill="none"><rect id="backgroundrect" width="100%" height="100%" x="0" y="0" fill="none" stroke="none"/>
    
<g class="currentLayer" style=""><title>Layer 1</title><path fill="#ffffff" d="M1.879 1.392H.313A.314.314 0 0 1 0 1.08C0 .907.14.767.313.767H1.88c.172 0 .313.14.313.312s-.141.313-.313.313zM15.687 1.392H5.76a.314.314 0 0 1-.313-.313c0-.172.14-.312.313-.312h9.926c.172 0 .313.14.313.312s-.141.313-.313.313zM3.804 2.158c-.595 0-1.08-.485-1.08-1.079S3.21 0 3.804 0c.595 0 1.08.485 1.08 1.08 0 .593-.485 1.078-1.08 1.078zm0-1.532a.454.454 0 1 0 0 .908.454.454 0 0 0 0-.908zM15.687 8.29h-2.192a.314.314 0 0 1-.313-.314c0-.172.14-.313.313-.313h2.192c.172 0 .313.141.313.313 0 .172-.141.313-.313.313zM9.8 8.29H.313A.314.314 0 0 1 0 7.975c0-.172.14-.313.313-.313H9.8c.172 0 .313.141.313.313a.314.314 0 0 1-.313.313zM11.632 9.056c-.595 0-1.08-.485-1.08-1.08 0-.594.485-1.079 1.08-1.079.595 0 1.08.485 1.08 1.08 0 .594-.485 1.079-1.08 1.079zm0-1.533a.454.454 0 1 0 0 .908.454.454 0 0 0 0-.908zM15.687 15.233H9.894a.314.314 0 0 1-.313-.312c0-.172.141-.313.313-.313h5.793c.172 0 .313.14.313.313 0 .172-.141.312-.313.312zM6.043 15.233H.313A.314.314 0 0 1 0 14.921c0-.172.14-.313.313-.313h5.73c.172 0 .313.14.313.313 0 .172-.14.312-.313.312zM7.969 16c-.595 0-1.08-.485-1.08-1.08 0-.594.485-1.078 1.08-1.078.594 0 1.08.484 1.08 1.079 0 .594-.486 1.079-1.08 1.079zm0-1.533a.454.454 0 1 0 0 .908.454.454 0 0 0 0-.908z" id="svg_1" class="" fill-opacity="1"/></g></svg>