<svg width="48" height="48" viewBox="0 0 48 48" fill="none" xmlns="http://www.w3.org/2000/svg">
<rect width="48" height="48" fill="white"/>
<path d="M17.8787 17.3922H16.3131C16.1409 17.3922 16 17.2514 16 17.0794C16 16.9074 16.1409 16.7666 16.3131 16.7666H17.8787C18.0509 16.7666 18.1918 16.9074 18.1918 17.0794C18.1918 17.2514 18.0509 17.3922 17.8787 17.3922Z" fill="#27BED7"/>
<path d="M31.6866 17.3922H21.761C21.5888 17.3922 21.4479 17.2514 21.4479 17.0794C21.4479 16.9074 21.5888 16.7666 21.761 16.7666H31.6866C31.8588 16.7666 31.9997 16.9074 31.9997 17.0794C31.9997 17.2514 31.8588 17.3922 31.6866 17.3922Z" fill="#27BED7"/>
<path d="M19.8044 18.1584C19.2094 18.1584 18.7241 17.6735 18.7241 17.0792C18.7241 16.4848 19.2094 16 19.8044 16C20.3993 16 20.8846 16.4848 20.8846 17.0792C20.8846 17.6735 20.3993 18.1584 19.8044 18.1584ZM19.8044 16.6256C19.5539 16.6256 19.3503 16.8289 19.3503 17.0792C19.3503 17.3294 19.5539 17.5327 19.8044 17.5327C20.0548 17.5327 20.2584 17.3294 20.2584 17.0792C20.2584 16.8289 20.0548 16.6256 19.8044 16.6256Z" fill="#27BED7"/>
<path d="M31.6868 24.2897H29.495C29.3228 24.2897 29.1819 24.1489 29.1819 23.9769C29.1819 23.8048 29.3228 23.6641 29.495 23.6641H31.6868C31.859 23.6641 31.9999 23.8048 31.9999 23.9769C31.9999 24.1489 31.859 24.2897 31.6868 24.2897Z" fill="#27BED7"/>
<path d="M25.8003 24.2897H16.3131C16.1409 24.2897 16 24.1489 16 23.9769C16 23.8048 16.1409 23.6641 16.3131 23.6641H25.8003C25.9725 23.6641 26.1134 23.8048 26.1134 23.9769C26.1134 24.1489 25.9725 24.2897 25.8003 24.2897Z" fill="#27BED7"/>
<path d="M27.6324 25.0558C27.0374 25.0558 26.5521 24.571 26.5521 23.9766C26.5521 23.3823 27.0374 22.8975 27.6324 22.8975C28.2273 22.8975 28.7126 23.3823 28.7126 23.9766C28.7126 24.571 28.2273 25.0558 27.6324 25.0558ZM27.6324 23.5231C27.3819 23.5231 27.1783 23.7264 27.1783 23.9766C27.1783 24.2269 27.3819 24.4302 27.6324 24.4302C27.8828 24.4302 28.0864 24.2269 28.0864 23.9766C28.0864 23.7264 27.8828 23.5231 27.6324 23.5231Z" fill="#27BED7"/>
<path d="M31.6871 31.234H25.8945C25.7223 31.234 25.5814 31.0932 25.5814 30.9212C25.5814 30.7492 25.7223 30.6084 25.8945 30.6084H31.6871C31.8593 30.6084 32.0002 30.7492 32.0002 30.9212C32.0002 31.0932 31.8593 31.234 31.6871 31.234Z" fill="#27BED7"/>
<path d="M22.043 31.234H16.3131C16.1409 31.234 16 31.0932 16 30.9212C16 30.7492 16.1409 30.6084 16.3131 30.6084H22.043C22.2152 30.6084 22.3561 30.7492 22.3561 30.9212C22.3561 31.0932 22.2152 31.234 22.043 31.234Z" fill="#27BED7"/>
<path d="M23.9687 32.0002C23.3737 32.0002 22.8884 31.5153 22.8884 30.921C22.8884 30.3266 23.3737 29.8418 23.9687 29.8418C24.5636 29.8418 25.0489 30.3266 25.0489 30.921C25.0489 31.5153 24.5636 32.0002 23.9687 32.0002ZM23.9687 30.4674C23.7182 30.4674 23.5146 30.6707 23.5146 30.921C23.5146 31.1712 23.7182 31.3745 23.9687 31.3745C24.2191 31.3745 24.4227 31.1712 24.4227 30.921C24.4227 30.6707 24.2191 30.4674 23.9687 30.4674Z" fill="#27BED7"/>
</svg>
