<svg width="20" height="20" viewBox="0 0 20 20" fill="none" xmlns="http://www.w3.org/2000/svg">
    <path fill-rule="evenodd" clip-rule="evenodd" d="M12.24 1.605c.75.716 1.417 1.516 2 2.375a14.006 14.006 0 0 1 2.425 7.866A6.665 6.665 0 0 1 10 18.513a6.665 6.665 0 0 1-6.667-6.667c0-2.116.567-4.1 1.558-5.8.134-.241.275-.466.425-.691.2-.309.659-.2.75.15.05.183.084.283.167.45.458 1.108 1.508 1.883 2.792 1.883 1.716 0 2.841-1.392 2.841-3.108 0-.925-.166-1.959-.325-2.742-.083-.4.409-.667.7-.383zM7.074 13.396c0 1.45 1.2 2.617 2.683 2.617 2.208 0 4-1.792 3.992-4 0-.892-.1-1.775-.292-2.625-.067-.308-.45-.408-.683-.192-.875.825-2.134 1.35-3.359 1.6-1.466.3-2.341 1.25-2.341 2.6z" fill="#E52822"/>
</svg>
