<svg xmlns="http://www.w3.org/2000/svg" width="30.512397371642123" height="30.512397371642123" fill="none"><rect id="backgroundrect" width="100%" height="100%" x="0" y="0" fill="none" stroke="none" class="" style=""/>
    
<g class="currentLayer" style=""><title>Layer 1</title><path stroke="#ffffff" stroke-linecap="round" stroke-linejoin="round" stroke-miterlimit="10" stroke-width="1.25" d="M15.990844299316407,15.633290832519535 l-13.307,-12.620000000000001 a0.3940000000000001,0.3940000000000001 0 0 0 -0.46900000000000003,-0.05600000000000001 a0.42800000000000005,0.42800000000000005 0 0 0 -0.203,0.44200000000000006 c0.6560000000000001,3.781 2.5,7.24 5.25,9.849 l4.87,4.614 a1.343,1.343 0 0 0 1.9420000000000002,-0.08300000000000002 l0.39000000000000007,-0.43200000000000005 c3.907,4.494 9.656,10.468 10.36,11.135 c1.109,1.052 2.63,1.198 3.406,0.3330000000000001 c0.776,-0.8640000000000001 0.505,-2.416 -0.6050000000000001,-3.468 c-0.7030000000000001,-0.6620000000000001 -6.963,-6.073 -11.634,-9.714 zM17.34984429931641,14.055290832519532 c0.7080000000000001,0.552 1.453,1.146 2.208,1.7550000000000001 a3.753,3.753 0 0 0 2.802,-1.114 l6.068,-6.849 a0.6860000000000002,0.6860000000000002 0 0 0 -0.016000000000000004,-0.916 a0.6360000000000001,0.6360000000000001 0 0 0 -0.9430000000000001,0.010000000000000002 l-4.921,5.432 a0.7190000000000001,0.7190000000000001 0 0 1 -1.037,-0.016000000000000004 a0.77,0.77 0 0 1 0.016000000000000004,-1.067 l5.046,-5.297 a0.7400000000000001,0.7400000000000001 0 0 0 0,-1.01 a0.6870000000000002,0.6870000000000002 0 0 0 -0.979,-0.026000000000000006 l-5.296,5.03 a0.7190000000000001,0.7190000000000001 0 0 1 -1.037,-0.015000000000000003 a0.77,0.77 0 0 1 0.016000000000000004,-1.068 l5.422,-4.9 a0.6800000000000002,0.6800000000000002 0 0 0 0.036000000000000004,-0.97 a0.6370000000000001,0.6370000000000001 0 0 0 -0.8900000000000001,-0.04000000000000001 l-6.828,6.035 a4.026,4.026 0 0 0 -1.073,3.688 l1.4060000000000001,1.338 zM13.058844299316405,20.320290832519532 c-0.8800000000000001,0 -1.7240000000000002,-0.3380000000000001 -2.365,-0.9470000000000001 l-0.3380000000000001,-0.32300000000000006 c-3.495,3.03 -6.823,6.072 -7.307,6.562 c-1.047,1.047 -1.271,2.557 -0.5,3.375 c0.77,0.8180000000000001 2.244,0.6350000000000001 3.291,-0.41200000000000003 c0.531,-0.53 4.11,-4.437 7.4,-8.26 c-0.06200000000000001,0.005000000000000001 -0.11900000000000002,0.005000000000000001 -0.18100000000000002,0.005000000000000001 z" id="svg_1" class="" stroke-opacity="1"/></g></svg>