<svg width="9" height="12" viewBox="0 0 9 12" fill="none" xmlns="http://www.w3.org/2000/svg">
    <g clip-path="url(#a)">
        <path d="m8.591 9.953.165-.384c.003-.022.004-.044.01-.066l.139-.47.009-.065.069-.468c0-.059-.005-.119.003-.177.03-.21.01-.417-.032-.623a1.966 1.966 0 0 0-.166-.587c-.004-.005-.01-.01-.013-.016a2.494 2.494 0 0 0-.427-.733l-.389-.5a1.837 1.837 0 0 1-.317-.66l-.034-.585.135-.534c.083-.197.2-.376.356-.554-.335.095-.632.22-.898.401-.109.085-.224.162-.324.255-.097.09-.178.194-.266.292a1.441 1.441 0 0 0-.256.452l-.077.245c-.01.045-.014.09-.03.133-.026.07-.05.144-.093.204a.214.214 0 0 1-.229.086c-.098-.022-.143-.09-.157-.174-.017-.094-.023-.19-.033-.284l.106-.453.182-.439.164-.439.136-.535c.014-.094.036-.188.039-.283.005-.172-.003-.344-.005-.516l-.12-.617-.26-.639-.42-.678L5.142 0l-.024.585-.167.658-.302.644-.397.632-.417.59c-.074.1-.149.199-.221.3-.07.096-.135.194-.203.291l-.435.672-.317.631-.182.586a1.88 1.88 0 0 0-.013.786l.152.589c.027.105.057.21.08.317a.22.22 0 0 1-.081.235c-.155.08-.307.082-.453-.017-.067-.088-.145-.17-.196-.265-.053-.099-.08-.21-.12-.315-.004-.026-.01-.052-.012-.078-.018-.192-.034-.384-.05-.576l.044-.507.194-.807c-.041.021-.092.044-.14.07a3.4 3.4 0 0 0-.792.56c-.203.179-.374.38-.514.602a2.662 2.662 0 0 0-.332.644L.076 7.4a2.983 2.983 0 0 0-.074.797l.047.576.135.59.21.548.17.329.174.276.305.382c.165.194.355.363.57.51.02.016.04.033.063.048.321.223.688.363 1.067.482l.092.029.01-.017-.111-.083.097-.073c.094.027.187.049.28.049.882.003 1.764.004 2.646-.001.098 0 .206.02.3-.035.006-.004.025.011.037.018l.035.018c-.152.093-.304.062-.46.156.025-.004.05-.005.073-.012.186-.052.378.03.556-.039.232-.09.453-.204.68-.308.165-.11.332-.219.498-.328l.175-.14.387-.382c.031-.035.066-.068.093-.105.089-.125.175-.25.262-.376l.198-.357z" fill="url(#b)"/>
        <path d="M2.677 11.908a2.716 2.716 0 0 1-.634-.33l-.015-.012a1.166 1.166 0 0 0-.026-.021l-.028-.021a2.32 2.32 0 0 1-.448-.423l-.28-.373-.147-.244-.145-.299-.187-.517-.119-.55-.042-.56a2.794 2.794 0 0 1 .058-.679l.159-.578c.063-.188.151-.367.262-.534l.015-.024c.026-.044.053-.087.082-.13l.01.123.039.464c.004.047.011.086.016.112l.002.014.024.092.027.086c.028.09.064.204.123.32.06.117.131.21.189.286.019.024.036.048.05.068l.136.136a1.015 1.015 0 0 0 1.116.057l.096-.066c.24-.2.34-.49.277-.799a6.401 6.401 0 0 0-.083-.353l-.149-.608a1.542 1.542 0 0 1 .007-.579l.164-.559.285-.6.415-.678.058-.09c.046-.07.09-.138.135-.204.047-.07.096-.138.147-.211l.069-.097.008-.012.417-.624.016-.027.397-.67.031-.06.262-.592.187.488.102.556.002.118c.003.125.006.244.003.36-.001.03-.01.078-.018.13l-.012.079-.123.512-.151.428-.179.455-.025.084-.106.48-.01.178.007.084c.007.075.015.16.03.25.054.331.289.583.612.658a.821.821 0 0 0 .876-.338c.08-.117.12-.233.149-.317l.01-.028c.027-.078.039-.147.046-.193l.001-.006.067-.225a.868.868 0 0 1 .086-.187l.02.343.013.095c.073.315.21.616.405.896l.007.01.392.534c.177.237.282.425.341.609.013.04.03.079.051.115.055.14.09.275.105.413l.006.042c.037.194.045.348.027.483a1.347 1.347 0 0 0-.008.224l-.064.456a2.439 2.439 0 0 1-.004.033l-.022.08-.107.382a.726.726 0 0 0-.016.074l-.127.314-.172.328-.057.087a22.73 22.73 0 0 1-.182.275 1.519 1.519 0 0 1-.02.023l-.026.03-.354.37-.127.107-.44.307-.167.083-.15.076a.635.635 0 0 0-.504-.028 1.746 1.746 0 0 0-.08-.002h-.007a225.004 225.004 0 0 1-2.64.002.53.53 0 0 1-.098-.025l-.338.064z" fill="url(#c)"/>
        <path d="M2.747 11.871a1.787 1.787 0 0 1-.312-.185l-.03-.027-.014-.012-.028-.023-.014-.01a1.8 1.8 0 0 1-.33-.333l-.258-.364-.12-.214-.123-.271-.166-.49-.105-.516-.038-.543.006.008.136.145.072.066a1.581 1.581 0 0 0 1.805.102l.05-.032.095-.07.045-.037c.39-.348.563-.868.463-1.392-.02-.106-.044-.207-.064-.295v-.003l-.023-.097-.144-.63a1.2 1.2 0 0 1 .001-.384l.147-.534.255-.575.396-.691.054-.089a12.992 12.992 0 0 1 .27-.426l.07-.106.015-.023.198-.316-.033.147-.14.422-.175.479-.013.04-.026.09-.01.04-.106.512-.01.085-.011.19.002.086.007.079v.003c.007.086.016.192.034.307.09.591.497 1.045 1.06 1.184a1.4 1.4 0 0 0 1.258-.297l.055.086.014.022.395.574c.14.2.22.35.26.486.02.064.045.127.075.187a1.2 1.2 0 0 1 .06.271l.003.02.006.046.004.02c.026.148.033.261.022.346a1.968 1.968 0 0 0-.013.28l-.058.445-.013.049a93.362 93.362 0 0 0-.122.478l-.1.262-.147.301-.044.072-.158.256-.015.018-.325.362-.082.075-.38.282-.048.026a1.21 1.21 0 0 0-.533.02 214.71 214.71 0 0 1-2.622 0l-.235-.013-.145.029z" fill="url(#d)"/>
        <path d="m4.406 11.987-1.258-.003-.216-.015-.062.005a.868.868 0 0 1-.032-.025l-.016-.017-.02-.02-.008-.006-.027-.027-.007-.006-.021-.02a1.33 1.33 0 0 1-.22-.252l-.233-.382-.096-.198-.104-.263-.1-.341c.134.028.27.043.407.043.409 0 .8-.126 1.163-.373l.026-.018.05-.038.024-.02.095-.08.023-.02.046-.043.021-.021c.532-.548.769-1.358.634-2.168a10.934 10.934 0 0 0-.068-.362l-.001-.008-.02-.104-.054-.27c.269.43.667.744 1.145.88a1.813 1.813 0 0 0 1.221-.078l.149.25c.103.172.165.299.189.39.023.09.053.18.088.266a.891.891 0 0 1 .028.155v.01l.003.023.001.01.007.053.001.01.003.023.002.01c.025.164.02.223.019.23a3.242 3.242 0 0 0-.018.359 496.9 496.9 0 0 0-.05.438l-.004.02a98.979 98.979 0 0 0-.119.533l-.078.237-.125.296-.031.058-.134.25-.285.368-.04.042-.197.168H6.06c-.131 0-.262.015-.39.047-.392.003-.807.004-1.263.004z" fill="url(#e)"/>
    </g>
    <defs>
        <linearGradient id="b" x1="4.5" y1="0" x2="4.5" y2="12" gradientUnits="userSpaceOnUse">
            <stop offset=".162" stop-color="#E61200"/>
            <stop offset=".998" stop-color="#FDCE00"/>
        </linearGradient>
        <linearGradient id="c" x1="4.5" y1="1.542" x2="4.5" y2="11.908" gradientUnits="userSpaceOnUse">
            <stop offset=".025" stop-color="#FD6C01"/>
            <stop offset="1" stop-color="#FDCE00"/>
        </linearGradient>
        <linearGradient id="d" x1="4.501" y1="3.504" x2="4.501" y2="11.871" gradientUnits="userSpaceOnUse">
            <stop offset=".011" stop-color="#FEBA0D"/>
            <stop offset="1" stop-color="#FEE800"/>
        </linearGradient>
        <linearGradient id="e" x1="4.587" y1="6.935" x2="4.587" y2="11.987" gradientUnits="userSpaceOnUse">
            <stop offset=".025" stop-color="#FDFD26"/>
            <stop offset="1" stop-color="#FEFEF4"/>
        </linearGradient>
        <clipPath id="a">
            <path fill="#fff" d="M0 0h9v12H0z"/>
        </clipPath>
    </defs>
</svg>
