<svg width="24" height="24" viewBox="0 0 24 24" fill="none" xmlns="http://www.w3.org/2000/svg">
    <path d="M19.473 10.044a.27.27 0 0 0-.054-.004h-1.66V8.73c0-.548-.19-1.077-.532-1.497.003-.028.004-.057.006-.09.026-.42.067-1.057.067-1.368 0-.195.006-.404.012-.623.042-1.501.106-3.755-2-4.082a.32.32 0 0 0-.085-.015A7.732 7.732 0 0 0 14.324 1c-1.026 0-1.836.23-2.406.682-1.096.87-1.205 4.544-1.205 4.58 0 .566.391 1.026.871 1.026.056 0 .11-.008.162-.02a2.36 2.36 0 0 0-.503 1.464v1.309H9.688C8.205 10.04 7 11.284 7 12.81v7.417C7 21.757 8.205 23 9.688 23h9.625C20.795 23 22 21.757 22 20.228v-7.416c0-1.473-1.12-2.68-2.527-2.768zm-1.745.642h1.584c.11 0 .215.016.319.033a.334.334 0 0 0-.021.11v2.476c0 .841-.664 1.524-1.478 1.524h-.404v-4.143zm.348 6.52v1.09H16.71v-1.09h1.367zm-.975-2.375h-5.158v-4.144h5.158v4.144zm.032-6.1v1.309H11.87V8.73c0-.191.04-.373.1-.55 0 .032 0 .06.002.092.028.27.225.785.771.793h.02c.309 0 .525-.122.666-.287a.928.928 0 0 0 .496.142.943.943 0 0 0 .748-.374c.374.262.953.19 1.254-.165.104.04.215.061.329.061a.94.94 0 0 0 .74-.368c.086.207.136.428.136.657zm-5.548-2.09c-.116 0-.244-.157-.244-.38.004-.675.264-3.514.961-4.067.59-.468 1.633-.643 2.866-.495h.003c1.488.181 1.566 1.599 1.515 3.435-.006.224-.013.44-.013.642 0 .29-.042.938-.065 1.325-.012.19-.02.325-.02.355 0 .187-.149.34-.33.34a.328.328 0 0 1-.123-.026l.038-2.321a.32.32 0 0 0-.308-.329c-.192.007-.317.14-.32.318l-.04 2.432a.327.327 0 0 1-.295.2.33.33 0 0 1-.314-.238c-.002-.007-.007-.012-.01-.02l.04-2.364a.319.319 0 0 0-.308-.33h-.006c-.17 0-.31.141-.313.319l-.041 2.502v.002c-.001.006-.005.01-.006.016a.333.333 0 0 1-.329.315.326.326 0 0 1-.285-.17c-.004-.023-.013-.041-.02-.062a.292.292 0 0 0 .019-.09l.041-2.502a.319.319 0 0 0-.308-.33c-.186.008-.316.14-.319.319l-.041 2.502a.305.305 0 0 0 .021.12c-.008.029-.018.057-.018.089v.085c-.018.124-.102.186-.252.186v.323l-.01-.323c-.125-.003-.154-.19-.156-.19-.012-.421-.019-.712-.021-.971a.334.334 0 0 0-.002-.193c0-.294.002-.574.006-.998l.004-.31a.322.322 0 0 0-.272-.324.313.313 0 0 0-.344.237l-.03.115c-.109.413-.109.422-.109.475.002.225-.127.38-.242.38zm.706 10.566v1.09h-1.367v-1.09h1.367zm-2.603-6.52h1.628v4.142h-.448c-.815 0-1.478-.684-1.478-1.524V10.83c0-.039-.01-.074-.021-.11.104-.016.209-.033.319-.033zm11.685 9.541c0 1.172-.924 2.125-2.06 2.125H9.688c-1.137 0-2.061-.953-2.061-2.125v-7.416c0-.828.466-1.538 1.136-1.889v2.384c0 1.196.945 2.17 2.105 2.17h.448v1.083h-.705a.318.318 0 0 0-.313.323v1.737c0 .178.14.322.313.322h1.993a.318.318 0 0 0 .313-.322v-1.737a.318.318 0 0 0-.313-.323h-.66v-1.083H17.1v1.083h-.705a.318.318 0 0 0-.313.323v1.737c0 .178.14.322.313.322h1.993a.318.318 0 0 0 .313-.322v-1.737a.318.318 0 0 0-.313-.323h-.661v-1.083h.404c1.16 0 2.104-.974 2.104-2.17v-2.384c.671.351 1.136 1.061 1.136 1.889v7.416h.001z" fill="#003C71"/>
</svg>
