<svg xmlns="http://www.w3.org/2000/svg" width="13" height="13" fill="none" viewBox="0 0 13 13">
    <path fill="#000" d="M4.42 3.692a.41.41 0 0 1 .416.416c0 .208-.156.364-.416.364a.41.41 0 0 1-.416-.416c0-.208.156-.364.416-.364zm-.312 1.3h.572v3.744h-.572V4.992zM7.644 3.848c.936 0 1.56.624 1.56 1.508 0 .936-.624 1.508-1.56 1.508H6.5v1.82h-.624V3.848h1.768zM6.5 6.344h.728c.832 0 1.3-.156 1.3-.936 0-.624-.364-.936-.936-.936H6.5v1.872z"/>
    <path stroke="#000" stroke-linecap="round" stroke-linejoin="round" stroke-miterlimit="10" stroke-width=".5" d="M6.5 12.74A6.24 6.24 0 1 0 6.5.26a6.24 6.24 0 0 0 0 12.48z"/>
</svg>
