<svg xmlns="http://www.w3.org/2000/svg" width="13" height="13" fill="none" viewBox="0 0 13 13">
    <path stroke="#000" stroke-linecap="round" stroke-linejoin="round" stroke-miterlimit="10" stroke-width=".5" d="M6.05 2.532h.767v.643c.707 0 1.277.161 1.711.486.417.312.626.711.626 1.201 0 .073-.004.144-.017.217H7.52c0-.383-.234-.619-.702-.71v1.203c.295.112.59.219.885.326.46.178.814.38 1.06.61.344.321.517.714.517 1.177 0 .638-.234 1.13-.702 1.477-.434.317-1.022.475-1.76.475v.834h-.768v-.834c-.568 0-1.082-.17-1.543-.51-.524-.377-.785-.864-.785-1.46 0-.06.003-.124.008-.192h1.67c.05.283.104.478.165.585.095.19.256.298.485.327V7.044c-.724-.161-1.246-.368-1.57-.617-.412-.312-.616-.76-.616-1.343 0-1.09.728-1.723 2.186-1.901v-.651zm-.418 2.052c-.105.112-.158.225-.158.342 0 .26.192.429.575.5V4.364a.783.783 0 0 0-.417.22zm1.185 3.94c.19 0 .373-.076.55-.225.179-.151.252-.31.218-.475-.034-.161-.137-.298-.31-.41a.821.821 0 0 0-.458-.15v1.26z"/>
    <path stroke="#000" stroke-linecap="round" stroke-linejoin="round" stroke-miterlimit="10" stroke-width=".5" d="M6.5 12.74A6.24 6.24 0 1 0 6.5.26a6.24 6.24 0 0 0 0 12.48z"/>
</svg>
