<svg width="11" height="11" viewBox="0 0 11 11" fill="none" xmlns="http://www.w3.org/2000/svg">
<path d="M3.69342 6.86998C2.57169 5.29904 2.82908 3.01085 4.26691 1.5617C4.41366 1.41496 4.56589 1.27969 4.72645 1.15873C4.89599 1.02879 5.11261 1.18552 5.0399 1.38834C4.51864 2.83166 4.80365 4.46433 5.9124 5.57307C7.02114 6.68182 8.6538 6.96682 10.1 6.44839C10.2998 6.37868 10.4595 6.59231 10.3296 6.76185C10.2058 6.91957 10.0705 7.07181 9.92377 7.21855C8.47462 8.65639 6.18642 8.91377 4.61548 7.79205C4.43297 7.66344 4.27424 7.5167 4.12151 7.36396C3.96877 7.21123 3.82203 7.0525 3.69342 6.86998V6.86998Z" stroke="#828282" stroke-width="0.5" stroke-miterlimit="10" stroke-linecap="round" stroke-linejoin="round"/>
</svg>
