<svg xmlns="http://www.w3.org/2000/svg" width="10" height="13" fill="none" viewBox="0 0 10 13">
    <path stroke="#000" stroke-linecap="round" stroke-linejoin="round" stroke-miterlimit="10" stroke-width=".5" d="M3.976 11.872c.028.485.408.868.878.868.469 0 .85-.383.877-.868H3.976zM9.582 10.673l-.316-.782a2.977 2.977 0 0 1-.204-.875l-.265-3.571h-.014v-.013c0-2.028-1.426-3.707-3.284-3.995V.816A.572.572 0 0 0 4.94.26c-.299 0-.545.246-.561.556v.621c-1.86.288-3.284 1.967-3.284 3.995 0 .105.004.21.011.315L.85 9.19a1.766 1.766 0 0 1-.126.536L.29 10.805c-.107.263.079.556.35.556h8.508c.337 0 .564-.361.434-.688z"/>
</svg>
