<svg xmlns="http://www.w3.org/2000/svg" width="24" height="24" fill="none" viewBox="0 0 24 24">
    <circle cx="12" cy="12" r="12" fill="#003C71"/>
    <path fill="#fff" d="M15.95 18a.241.241 0 0 1-.12-.033l-5.614-3.328a.234.234 0 0 1-.11-.162.24.24 0 0 1 .049-.19l3.65-4.483-4.628 4.109a.236.236 0 0 1-.26.035l-3.788-1.903a.235.235 0 0 1 .002-.42l11.533-5.601a.235.235 0 0 1 .335.227l-.818 11.531a.231.231 0 0 1-.124.19.219.219 0 0 1-.108.028zM9.656 18a.236.236 0 0 1-.232-.27l.374-2.507a.235.235 0 0 1 .356-.164l1.311.827a.237.237 0 0 1 .04.366l-1.683 1.68a.24.24 0 0 1-.166.068z"/>
</svg>
