<svg xmlns="http://www.w3.org/2000/svg" width="72" height="72" fill="none" viewBox="0 0 72 72">
    <path stroke="#003C71" stroke-linecap="round" stroke-linejoin="round" stroke-miterlimit="10" stroke-width="1.25" d="M36.652 35.468l-13.307-12.62a.394.394 0 0 0-.469-.056.428.428 0 0 0-.203.442c.656 3.781 2.5 7.24 5.25 9.849l4.87 4.614a1.343 1.343 0 0 0 1.942-.083l.39-.432c3.907 4.494 9.656 10.468 10.36 11.135 1.109 1.052 2.63 1.198 3.406.333.776-.864.505-2.416-.605-3.468-.703-.662-6.963-6.073-11.634-9.714zM38.011 33.89c.708.552 1.453 1.146 2.208 1.755a3.753 3.753 0 0 0 2.802-1.114l6.068-6.849a.686.686 0 0 0-.016-.916.636.636 0 0 0-.943.01l-4.921 5.432a.719.719 0 0 1-1.037-.016.77.77 0 0 1 .016-1.067l5.046-5.297a.74.74 0 0 0 0-1.01.687.687 0 0 0-.979-.026l-5.296 5.03a.719.719 0 0 1-1.037-.015.77.77 0 0 1 .016-1.068l5.422-4.9a.68.68 0 0 0 .036-.97.637.637 0 0 0-.89-.04l-6.828 6.035a4.026 4.026 0 0 0-1.073 3.688l1.406 1.338zM33.72 40.155c-.88 0-1.724-.338-2.365-.947l-.338-.323c-3.495 3.03-6.823 6.072-7.307 6.562-1.047 1.047-1.271 2.557-.5 3.375.77.818 2.244.635 3.291-.412.531-.53 4.11-4.437 7.4-8.26-.062.005-.119.005-.181.005z"/>
</svg>
