<svg xmlns="http://www.w3.org/2000/svg" width="72" height="72" fill="none" viewBox="0 0 72 72">
    <path stroke="#003C71" stroke-linecap="round" stroke-linejoin="round" stroke-miterlimit="10" stroke-width="1.25" d="M36 27.667c-5.1 0-9.647 2.913-13.084 7.692a.948.948 0 0 0 0 1.282C26.353 41.42 30.9 44.333 36 44.333c5.1 0 9.647-2.913 13.084-7.692a.948.948 0 0 0 0-1.282C45.647 30.58 41.1 27.667 36 27.667z"/>
    <path stroke="#003C71" stroke-linecap="round" stroke-linejoin="round" stroke-miterlimit="10" stroke-width="1.25" d="M36.333 41.886c-3.327.233-6.21-2.681-5.988-6.294.222-2.914 2.44-5.361 5.212-5.478 3.326-.233 6.209 2.68 5.987 6.294-.11 2.914-2.44 5.245-5.211 5.478z"/>
    <path stroke="#003C71" stroke-width="1.25" d="M38.37 36.136c-.094 1.355-1.098 2.354-2.194 2.445-1.374.088-2.635-1.092-2.546-2.717.094-1.355 1.099-2.355 2.194-2.446 1.375-.087 2.635 1.092 2.546 2.718z"/>
</svg>
