<svg width="16" height="16" fill="none" xmlns="http://www.w3.org/2000/svg">
    <path fill-rule="evenodd" clip-rule="evenodd" d="M8 1.333A6.67 6.67 0 0 0 1.333 8 6.669 6.669 0 0 0 8 14.667 6.669 6.669 0 0 0 14.667 8 6.669 6.669 0 0 0 8 1.333zm-.667 3.334V6h1.334V4.667H7.334zm1.334 6c0 .367-.3.667-.667.667a.669.669 0 0 1-.667-.667V8c0-.367.3-.667.667-.667.367 0 .667.3.667.667v2.667zM2.667 8A5.34 5.34 0 0 0 8 13.334 5.34 5.34 0 0 0 13.334 8 5.34 5.34 0 0 0 8 2.667 5.34 5.34 0 0 0 2.667 8z" fill="#BDBDBD"/>
</svg>
