<svg xmlns="http://www.w3.org/2000/svg" width="72" height="72" fill="none" viewBox="0 0 72 72">
    <path stroke="#003C71" stroke-linecap="round" stroke-linejoin="round" stroke-miterlimit="10" stroke-width="1.25" d="M30.978 26.935l-7.81 22.9 22.44-9.068"/>
    <path stroke="#003C71" stroke-linecap="round" stroke-linejoin="round" stroke-miterlimit="10" stroke-width="1.25" d="M45.713 40.62c1.271-1.344-.969-5.526-5.003-9.34-4.035-3.814-8.336-5.817-9.607-4.474-1.272 1.344.968 5.525 5.003 9.34 4.035 3.814 8.336 5.817 9.607 4.473zM41.653 38.428s6.67-2.762 8.18.885M33.786 31.813s9.014-6.614 2.397-8.645M48.135 28.553l-2.152-.422-1.568 1.537-.266-2.177-1.943-1.016 1.99-.927.364-2.161 1.496 1.604 2.167-.318-1.063 1.917.975 1.963zM46.89 35.2a1.693 1.693 0 1 0 0-3.387 1.693 1.693 0 0 0 0 3.387z"/>
</svg>
