<svg xmlns="http://www.w3.org/2000/svg" width="72" height="72" fill="none" viewBox="0 0 72 72">
    <path fill="#003C71" d="M29.333 27.667v.625h.625v-.625h-.625zm-5 0v.625-.625zm23.334 0v.625-.625zm-5 0h-.625v.625h.625v-.625zm-12.709 0c0-.576.467-1.042 1.042-1.042v-1.25a2.292 2.292 0 0 0-2.292 2.292h1.25zm-5.625.625h5v-1.25h-5v1.25zm-1.041 1.041c0-.575.466-1.041 1.041-1.041v-1.25a2.292 2.292 0 0 0-2.291 2.291h1.25zm0 13.334V29.333h-1.25v13.334h1.25zm1.041 1.041a1.042 1.042 0 0 1-1.041-1.041h-1.25a2.292 2.292 0 0 0 2.291 2.291v-1.25zm23.334 0H24.333v1.25h23.334v-1.25zm1.041-1.041c0 .575-.466 1.041-1.041 1.041v1.25a2.292 2.292 0 0 0 2.291-2.291h-1.25zm0-13.334v13.334h1.25V29.333h-1.25zm-1.041-1.041c.575 0 1.041.466 1.041 1.041h1.25a2.292 2.292 0 0 0-2.291-2.291v1.25zm-5 0h5v-1.25h-5v1.25zM41 26.625c.575 0 1.042.466 1.042 1.042h1.25A2.292 2.292 0 0 0 41 25.375v1.25zm-10 0h10v-1.25H31v1.25z"/>
    <circle cx="36" cy="36" r="5" stroke="#003C71" stroke-width="1.25"/>
    <circle cx="45.167" cy="31.833" r=".625" stroke="#003C71" stroke-width=".417"/>
</svg>
