<svg width="16" height="13" viewBox="0 0 16 13" fill="none" xmlns="http://www.w3.org/2000/svg">
<path fill-rule="evenodd" clip-rule="evenodd" d="M1.45455 0H14.5455C15.2727 0 16 0.722222 16 1.44444V11.5556C16 12.2778 15.2727 13 14.5455 13H1.45455C0.654545 13 0 12.35 0 11.5556V1.44444C0 0.722222 0.727273 0 1.45455 0ZM5.17774 7.21496L3.36683 9.52607C3.17774 9.7644 3.35229 10.1111 3.65047 10.1183H12.3705C12.6687 10.1183 12.8432 9.77884 12.6614 9.54051L10.1087 6.16051C9.9632 5.96551 9.67229 5.96551 9.52683 6.15329L7.27229 9.03496L5.74501 7.20773C5.59956 7.02718 5.3232 7.0344 5.17774 7.21496Z" fill="#003C71"/>
</svg>
