<svg xmlns="http://www.w3.org/2000/svg" width="18" height="18" fill="none" viewBox="0 0 18 18">
    <path fill="#6D6E71" d="M13.5 3.36C12.306 2.167 10.687 1.496 9 1.496c-1.688 0-3.307.67-4.5 1.864-1.194 1.194-1.864 2.812-1.864 4.5 0 1.688.67 3.307 1.864 4.5l3.952 3.96c.07.07.153.126.244.164.092.038.19.058.289.058.099 0 .197-.02.288-.058.092-.038.174-.094.244-.164l3.983-3.997c1.188-1.189 1.856-2.8 1.856-4.482 0-1.68-.668-3.292-1.856-4.48V3.36zm-1.073 7.89L9 14.693 5.572 11.25c-.677-.678-1.138-1.541-1.325-2.48-.186-.94-.09-1.914.277-2.8.367-.884.988-1.64 1.784-2.173C7.105 3.265 8.042 2.98 9 2.98c.958 0 1.894.284 2.691.816.797.532 1.418 1.289 1.784 2.174.367.885.463 1.859.277 2.798-.187.94-.648 1.803-1.325 2.481zM6.75 5.558c-.606.607-.946 1.43-.946 2.287 0 .858.34 1.68.946 2.288.45.45 1.022.758 1.646.884.624.126 1.272.066 1.861-.175.59-.24 1.096-.65 1.454-1.176.357-.526.552-1.147.559-1.783.003-.426-.079-.847-.241-1.24-.162-.393-.402-.75-.704-1.048-.297-.304-.652-.546-1.043-.713-.391-.166-.812-.254-1.237-.257-.425-.004-.847.077-1.24.237-.395.16-.753.396-1.055.696zm3.517 3.51c-.284.288-.66.469-1.062.511-.403.043-.808-.056-1.146-.28-.338-.223-.588-.557-.707-.944-.12-.387-.1-.803.054-1.178.154-.375.433-.684.79-.876.357-.191.77-.253 1.167-.174.397.08.754.294 1.011.607.257.313.397.706.396 1.111-.011.463-.205.903-.54 1.223h.037z"/>
</svg>
