<svg xmlns="http://www.w3.org/2000/svg" width="16" height="16" fill="none" viewBox="0 0 16 16">
    <path fill="#000" d="M.411 1.465c.228 0 .415.187.415.415v11.004a2.11 2.11 0 0 0 2.107 2.107h10.13a2.11 2.11 0 0 0 2.108-2.107V1.012H3.034v10.676a.416.416 0 0 1-.415.415.416.416 0 0 1-.415-.415V.598c0-.228.187-.415.415-.415h12.966c.228 0 .415.187.415.415V12.88a2.939 2.939 0 0 1-2.937 2.937H2.937A2.939 2.939 0 0 1 0 12.88v-11a.41.41 0 0 1 .411-.415z"/>
    <path fill="#000" d="M4.623 3.403a.416.416 0 0 1-.414-.414c0-.228.186-.415.414-.415h9.039a.416.416 0 0 1 0 .83H4.623zM14.214 4.85v4.485a.416.416 0 0 1-.415.415H9.297a.416.416 0 0 1-.414-.415V4.851c0-.228.186-.415.414-.415H13.8c.228 0 .415.187.415.415zm-.83.415H9.713v3.656h3.673V5.265zM4.402 4.85h2.981a.416.416 0 0 1 0 .83H4.402a.414.414 0 1 1 0-.83zM4.402 6.723h2.981a.416.416 0 0 1 0 .83H4.402a.414.414 0 1 1 0-.83zM3.987 9.128c0-.228.187-.415.415-.415h2.981a.416.416 0 0 1 0 .83H4.402a.414.414 0 0 1-.415-.415z"/>
</svg>
