<svg width="16" height="16" viewBox="0 0 16 16" fill="none" xmlns="http://www.w3.org/2000/svg">
    <path d="m5.645 5.596-.001.002h-.002l.003-.002zm6.636-.124a.825.825 0 0 0-.153-.117.666.666 0 0 0-.933.274c-.23.453-.546.856-.932 1.185A5.81 5.81 0 0 0 7.418.753a.667.667 0 0 0-.994.537 4.678 4.678 0 0 1-1.647 3.295l-.154.125c-.505.34-.953.76-1.325 1.242a5.989 5.989 0 0 0 2.437 9.272.666.666 0 0 0 .885-.826 4.651 4.651 0 0 1-.126-1.72 6.003 6.003 0 0 0 2.875 2.677c.15.068.32.077.476.026a5.996 5.996 0 0 0 2.436-9.91zm-2.603 8.554a4.643 4.643 0 0 1-2.384-2.935 5.937 5.937 0 0 1-.12-.643.667.667 0 0 0-1.238-.241 5.973 5.973 0 0 0-.804 3.145 4.657 4.657 0 0 1-.784-6.579 4.37 4.37 0 0 1 1.042-.972.498.498 0 0 0 .05-.036s.197-.164.204-.167a5.978 5.978 0 0 0 1.932-3.089A4.49 4.49 0 0 1 8.5 7.901a.667.667 0 0 0 .79.945 5.237 5.237 0 0 0 2.574-1.791 4.667 4.667 0 0 1-2.186 6.971z" fill="#F79321"/>
</svg>
