<svg xmlns="http://www.w3.org/2000/svg" width="20" height="20" fill="none" viewBox="0 0 20 20">
    <path stroke="#333" stroke-linecap="round" stroke-linejoin="round" stroke-width="1.25" d="M.833 16.666v-5h5M19.167 3.333v5h-5"/>
    <path stroke="#333" stroke-linecap="round" stroke-linejoin="round" stroke-width="1.25" d="M2.925 7.5c.422-1.194 1.14-2.262 2.088-3.104.947-.841 2.091-1.43 3.327-1.71 1.236-.279 2.522-.24 3.739.111 1.217.352 2.325 1.007 3.22 1.903l3.867 3.633M.833 11.667L4.7 15.3c.895.896 2.003 1.55 3.22 1.903 1.217.352 2.504.39 3.74.11 1.235-.28 2.38-.867 3.327-1.71.947-.84 1.665-1.909 2.088-3.103"/>
</svg>
