<svg xmlns="http://www.w3.org/2000/svg" width="26" height="25" fill="none" viewBox="0 0 26 25">
    <path fill="#F2C94C" d="M26 9.61c0-.47-.5-.657-.875-.72l-7.844-1.14L13.766.64C13.625.345 13.359 0 13 0c-.36 0-.625.344-.766.64L8.72 7.75.875 8.89c-.39.063-.875.25-.875.72 0 .28.203.546.39.75l5.688 5.53-1.344 7.813c-.015.11-.03.203-.03.313 0 .406.202.78.655.78.22 0 .422-.077.625-.187L13 20.922l7.016 3.687c.187.11.406.188.625.188.453 0 .64-.375.64-.781 0-.11 0-.203-.015-.313l-1.344-7.812 5.672-5.532c.203-.203.406-.468.406-.75z"/>
</svg>
