<svg width="36" height="36" viewBox="0 0 36 36" fill="none" xmlns="http://www.w3.org/2000/svg">
    <path fill-rule="evenodd" clip-rule="evenodd" d="M6 13a2 2 0 0 1 2-2h14.715v2.333h.857V11h4.429a2 2 0 0 1 2 2v1.89c-1.894 0-3.429 1.393-3.429 3.111 0 1.718 1.535 3.111 3.429 3.111V23a2 2 0 0 1-2 2h-4.429v-2.333h-.857V25H8a2 2 0 0 1-2-2v-1.888c1.894 0 3.429-1.393 3.429-3.111 0-1.718-1.535-3.111-3.429-3.111V13zm17.572 1.89h-.857v2.333h.857v-2.334zm-.857 3.887h.857v2.334h-.857v-2.334z" fill="#F79321"/>
</svg>
