<svg width="76" height="42" viewBox="0 0 76 42" fill="none" xmlns="http://www.w3.org/2000/svg">
<rect x="0.5" y="0.5" width="75" height="41" rx="3.5" stroke="#C8252C"/>
<path fill-rule="evenodd" clip-rule="evenodd" d="M8 26.9241V16.2466C8 15.9214 8.1084 15.5962 8.3794 15.3794C8.65041 15.1084 8.92141 15 9.24661 15H10.439V19.4445H15.3171V15H17.7561V26.9241H15.3171V21.6125H10.439V26.9241H8Z" fill="#C8252C"/>
<path fill-rule="evenodd" clip-rule="evenodd" d="M21.3873 24.7561H22.9591C24.0973 24.7561 24.9103 24.4851 25.4523 23.8347C25.9401 23.2927 26.2111 22.3171 26.2111 20.9079C26.2111 19.5529 25.9943 18.5772 25.4523 17.981C24.9645 17.3848 24.2599 17.0596 23.2301 17.0596H21.3331V24.7561H21.3873ZM19.0024 26.9241V16.2466C19.0024 15.9214 19.1108 15.5962 19.3818 15.3794C19.6528 15.1084 19.9239 15 20.3033 15H23.3385C25.1813 15 26.5363 15.4878 27.4577 16.4634C28.3791 17.4932 28.8128 19.0108 28.8128 20.9621C28.8128 22.0461 28.6502 22.9675 28.3249 23.8347C27.9455 24.7019 27.4577 25.4065 26.8615 25.8401C26.3737 26.2195 25.8317 26.4905 25.2355 26.6531C24.6935 26.8157 23.8263 26.8699 22.6881 26.8699H19.0024V26.9241Z" fill="#C8252C"/>
<path fill-rule="evenodd" clip-rule="evenodd" d="M32.2823 24.7561H35.2091C35.8595 24.7561 36.3473 24.6477 36.7267 24.3767C37.0519 24.1599 37.2145 23.7805 37.2145 23.1843C37.2145 22.6423 37.0519 22.2087 36.7267 21.9919C36.4015 21.7751 35.9137 21.6667 35.2091 21.6667H32.3365V24.7561H32.2823ZM32.2823 19.6071H35.1007C35.6969 19.6071 36.1305 19.4987 36.4015 19.2818C36.6725 19.065 36.8351 18.7398 36.8351 18.3062C36.8351 17.8726 36.6725 17.5474 36.4015 17.3306C36.1847 17.168 35.6969 17.0596 35.0465 17.0596H32.2823V19.6071ZM29.9517 26.9241V16.2466C29.9517 15.9214 30.0601 15.5962 30.3311 15.3794C30.5479 15.1084 30.8731 15 31.1983 15H35.5885C36.7809 15 37.7565 15.271 38.407 15.7588C39.0574 16.3008 39.3826 17.0596 39.3826 17.981C39.3826 18.5772 39.2742 19.1192 39.0032 19.4987C38.7322 19.8781 38.407 20.2033 37.9192 20.4201C38.5154 20.6911 38.949 21.0163 39.2742 21.5041C39.5452 21.9377 39.7078 22.5339 39.7078 23.2385C39.7078 24.3767 39.3284 25.2981 38.6238 25.9485C37.865 26.5447 36.7809 26.8699 35.4259 26.8699H29.9517V26.9241Z" fill="#58595B"/>
<path fill-rule="evenodd" clip-rule="evenodd" d="M58.5149 26.9241H57.2682C56.943 26.9241 56.6178 26.8157 56.401 26.5989C56.1842 26.3821 56.0758 26.0569 56.0758 25.7317V20.7995C56.0758 20.2575 55.9132 19.8239 55.5338 19.6071C55.2086 19.3361 54.8292 19.2277 54.3956 19.2277C53.962 19.2277 53.5826 19.3361 53.2574 19.6071C52.9322 19.8781 52.7696 20.2575 52.7696 20.7995V26.9241H50.2764V21.2873C50.2764 19.7155 50.71 18.6856 51.523 18.1436C52.3902 17.6016 53.3116 17.3306 54.2872 17.2764C55.317 17.2764 56.2926 17.5474 57.1598 18.0352C58.0271 18.5772 58.4607 19.6613 58.4607 21.2873V26.9241H58.5149Z" fill="#58595B"/>
<path fill-rule="evenodd" clip-rule="evenodd" d="M46.7536 22.0461C46.4284 22.2087 45.9406 22.3713 45.3444 22.4797L44.5313 22.6423C44.0977 22.7507 43.7725 22.9133 43.5557 23.0759C43.3931 23.3469 43.2847 23.5637 43.2847 23.8347C43.2847 24.2141 43.3931 24.4851 43.6099 24.6477C43.8267 24.8645 44.1519 24.9187 44.5855 24.9187C45.236 24.9187 45.778 24.7561 46.1574 24.3767C46.5368 23.9973 46.7536 23.5095 46.7536 22.8591V22.0461ZM47.3498 26.0569C46.4284 26.8157 45.3444 26.9241 44.2061 26.9241C43.3389 26.9241 42.5801 26.7073 41.8755 26.2737C41.2251 25.7859 40.8999 25.0813 40.8999 23.9973C40.8999 23.0217 41.1709 22.3171 41.8213 21.8835C42.4175 21.4499 43.1763 21.1789 44.0977 21.0705C44.2061 21.0705 44.3687 21.0705 44.5313 21.0163C44.6939 20.9621 44.9107 20.9621 45.1276 20.9079C46.2116 20.7453 46.7536 20.4743 46.7536 19.9865C46.7536 19.6071 46.5368 19.3903 46.2116 19.3361C45.8322 19.2276 45.4528 19.1734 45.1818 19.1734C44.8565 19.1734 44.5313 19.2276 44.2603 19.3361C43.9893 19.4445 43.7725 19.6071 43.6641 19.8781H41.2251C41.3335 19.1734 41.6587 18.5772 42.2549 18.0894C42.9053 17.5474 43.8267 17.2764 45.0734 17.2764C46.4284 17.2764 47.4582 17.4932 48.1628 17.9268C48.8674 18.3604 49.1926 19.0108 49.1926 19.8781V23.0759C49.1926 23.9973 49.03 24.7019 48.6506 25.2439C48.1086 25.6233 47.8376 25.7317 47.3498 26.0569Z" fill="#58595B"/>
<path fill-rule="evenodd" clip-rule="evenodd" d="M49.1382 26.9241H48.0542C47.729 26.9241 47.458 26.8157 47.2954 26.5989C47.1328 26.3821 47.0244 26.1111 47.0244 25.7317V22.9133H49.1924V26.9241H49.1382Z" fill="#58595B"/>
<path fill-rule="evenodd" clip-rule="evenodd" d="M62.1465 17.71V20.9621L65.0734 17.2764H67.946L64.694 21.2873L68.0002 26.9783H65.1276L63.4474 23.8889C63.1222 23.2385 62.797 22.9675 62.5259 23.0759C62.2549 23.1843 62.1465 23.2927 62.1465 23.5095V24.8103V27.0325H59.7617V15.1084H61.0083C61.3335 15.1084 61.6045 15.2168 61.8213 15.4878C62.0381 15.7046 62.1465 15.9756 62.1465 16.3008V17.71V17.71Z" fill="#58595B"/>
</svg>
