<svg width="76" height="42" viewBox="0 0 76 42" fill="none" xmlns="http://www.w3.org/2000/svg">
<rect x="0.5" y="0.5" width="75" height="41" rx="3.5" stroke="#BDBDBD"/>
<g clip-path="url(#clip0)">
<path d="M27.3276 19.631H28.6691V19.9376C28.6095 19.9376 28.52 19.9376 28.4008 19.9376H28.0133V20.3361H28.4604C28.5499 20.3361 28.6095 20.3361 28.6691 20.3361V20.6427C28.6393 20.6427 28.6095 20.6427 28.5499 20.6427H28.0133V21.1026H28.6393H28.6691V21.4091H28.4604H27.3276V19.631ZM32.0675 19.631V20.0602L31.6203 20.704H32.0675V21.0106H31.4116L31.1135 21.4091H30.3683L31.6799 19.631H32.0675ZM28.6691 19.631C28.9374 19.631 29.1461 19.631 29.2951 19.6616C29.4144 19.6616 29.5336 19.6923 29.6528 19.723C29.7423 19.7536 29.8317 19.8149 29.9211 19.8762C29.9808 19.9376 30.0404 19.9989 30.0404 20.0908C30.0404 20.1522 30.0106 20.2441 29.9211 20.3055C29.8317 20.3668 29.7125 20.4281 29.5634 20.4587C29.7721 20.4894 29.9211 20.5507 30.0404 20.612C30.1596 20.6733 30.2192 20.7653 30.2192 20.8879C30.2192 20.9493 30.1894 21.0412 30.1 21.1332C30.0404 21.1945 29.9211 21.2558 29.8019 21.3172C29.6826 21.3478 29.5336 21.3785 29.3547 21.4091C29.2653 21.4091 29.0566 21.4091 28.7287 21.4091V21.1026C28.9672 21.1026 29.1163 21.1026 29.1759 21.1026C29.2653 21.1026 29.3547 21.0719 29.4144 21.0412C29.474 21.0106 29.5038 20.9493 29.5038 20.8879C29.5038 20.8573 29.474 20.796 29.4442 20.7653C29.3845 20.7347 29.3249 20.704 29.2355 20.704C29.1461 20.6733 28.997 20.6733 28.7287 20.6733V20.3668C28.8778 20.3668 28.9672 20.3668 29.0268 20.3668C29.1461 20.3668 29.2355 20.3361 29.2951 20.3055C29.3547 20.2748 29.3845 20.2441 29.3845 20.1522C29.3845 20.0908 29.3547 20.0602 29.2951 20.0295C29.2355 19.9989 29.1461 19.9682 29.0268 19.9682C28.997 19.9682 28.8778 19.9682 28.6989 19.9682V19.631H28.6691ZM37.5526 21.4091V19.631H38.2382V20.4281L39.6095 19.631H40.5336L39.2816 20.3055L40.623 21.3785H39.7287L38.8046 20.5507L38.268 20.8573V21.4091H37.5526ZM34.1542 21.4091V19.631H34.81L36.1813 20.796V19.631H36.8073V21.4091H36.1217L34.7504 20.2441V21.4091H34.1542ZM32.0675 21.0106V20.704H32.5444L32.0675 20.0602V19.631H32.4252L33.7667 21.4091H33.0214L32.7233 21.0106H32.0675Z" fill="#BDBDBD"/>
<path fill-rule="evenodd" clip-rule="evenodd" d="M27.3279 15.6148C27.2385 15.9827 27.1789 16.32 27.1192 16.6878H32.0976L33.1409 15.6148H27.3279ZM41.8455 14.5418H48.4038C48.2846 14.1739 48.1355 13.806 47.9566 13.4688H40.8022L41.8455 14.5418ZM28.0732 13.4688C27.9241 13.806 27.7751 14.1739 27.626 14.5418H34.1843L35.2276 13.4688H28.0732ZM39.729 12.3958H47.3604C47.1518 12.0279 46.8835 11.66 46.6152 11.3227H38.6856L39.729 12.3958ZM29.355 11.3227C29.0867 11.66 28.8482 12.0279 28.6098 12.3958H36.271L37.3144 11.3227H29.355V11.3227ZM31.5312 9.14604C31.084 9.48328 30.6667 9.85117 30.2791 10.2191H45.6612C45.3035 9.85117 44.8862 9.48328 44.4688 9.14604H31.5312ZM43.2764 20.6427V18.8645H35.1084H27C27 18.6806 27 18.4967 27 18.3127C27 18.1288 27 17.9755 27 17.7915H48.9702C48.9702 17.9755 48.9702 18.1594 48.9702 18.3127C48.9702 24.5669 44.0515 29.6254 37.9702 29.6254C33.1707 29.6254 29.1165 26.4983 27.5962 22.0836H34.1545L38.0298 26.0691L43.2764 20.6427ZM38 7C36.3306 7 34.7209 7.39855 33.3198 8.07302H42.71C41.2791 7.39855 39.6694 7 38 7Z" fill="#BDBDBD"/>
<path d="M38.9241 33.2737L39.7886 33.4576C39.6395 33.7949 39.4309 34.0708 39.1328 34.2241C38.8048 34.408 38.4173 34.5 37.9403 34.5C37.3441 34.5 36.8672 34.3467 36.4796 34.0708C36.0921 33.7949 35.9132 33.3963 35.9132 32.9058C35.9132 32.3846 36.0921 31.9554 36.4796 31.6795C36.8672 31.3729 37.3739 31.2503 38 31.2503C38.5365 31.2503 38.9837 31.3729 39.3414 31.5875C39.5501 31.7408 39.6991 31.9247 39.7886 32.17L38.8943 32.3233C38.8346 32.17 38.7154 32.0167 38.5664 31.9247C38.4173 31.8328 38.2086 31.7714 37.9701 31.7714C37.6422 31.7714 37.3739 31.8634 37.1653 32.0167C36.9566 32.2007 36.8672 32.4766 36.8672 32.8445C36.8672 33.243 36.9566 33.5189 37.1653 33.7029C37.3739 33.8868 37.6422 33.9481 37.9701 33.9481C38.2086 33.9481 38.4173 33.8868 38.5962 33.7949C38.7452 33.6722 38.8645 33.5189 38.9241 33.2737ZM42.3523 31.2809V31.8021C42.2628 31.8021 42.1436 31.8021 41.9945 31.8021H41.4878V32.5379H42.084C42.2032 32.5379 42.2926 32.5379 42.3523 32.5379V33.0591C42.3225 33.0591 42.2628 33.0591 42.2032 33.0591H41.458V33.9175H42.2926H42.3225V34.4387C42.2628 34.4387 42.1734 34.4387 42.0542 34.4387H40.5636V31.2809H42.3523ZM31.6802 33.427L32.5447 33.3656C32.6043 33.5803 32.6937 33.7335 32.8726 33.8255C33.0216 33.9175 33.2601 33.9788 33.5284 33.9788C33.8265 33.9788 34.0352 33.9481 34.1842 33.8562C34.3333 33.7642 34.3929 33.6722 34.3929 33.5496C34.3929 33.4883 34.3631 33.3963 34.3035 33.3656C34.2439 33.3043 34.1246 33.243 33.9756 33.2124C33.8563 33.1817 33.6178 33.151 33.2601 33.0591C32.7832 32.9671 32.4254 32.8751 32.2466 32.7525C31.9783 32.5685 31.8292 32.3846 31.8292 32.1087C31.8292 31.9554 31.8888 31.8021 32.0379 31.6488C32.1571 31.4955 32.336 31.4036 32.5745 31.3422C32.813 31.2809 33.1111 31.2196 33.4688 31.2196C34.0352 31.2196 34.4525 31.3116 34.7208 31.4955C35.0189 31.6795 35.168 31.8941 35.168 32.2007L34.2737 32.2313C34.2439 32.078 34.1544 31.9554 34.0352 31.8941C33.9159 31.8328 33.7073 31.7714 33.4688 31.7714C33.2005 31.7714 32.9918 31.8021 32.8428 31.8941C32.7533 31.9247 32.6937 32.0167 32.6937 32.078C32.6937 32.1393 32.7235 32.2313 32.813 32.262C32.9322 32.3233 33.2005 32.3846 33.6477 32.4766C34.0948 32.5379 34.4227 32.6299 34.6314 32.6912C34.8401 32.7525 34.9891 32.8751 35.1382 33.0284C35.2574 33.151 35.317 33.335 35.317 33.5189C35.317 33.7029 35.2574 33.8562 35.1084 34.0401C34.9593 34.1934 34.7804 34.316 34.5122 34.3774C34.2439 34.4387 33.9159 34.5 33.5284 34.5C32.962 34.5 32.5447 34.408 32.2168 34.2241C31.9485 34.0401 31.7696 33.7642 31.6802 33.427ZM42.3523 34.4387V33.9175C42.6504 33.9175 42.859 33.9175 42.9485 33.8868C43.0975 33.8562 43.187 33.8255 43.2764 33.7642C43.3658 33.7029 43.3956 33.6109 43.3956 33.4883C43.3956 33.3963 43.3658 33.3043 43.3062 33.243C43.2466 33.1817 43.1571 33.1204 43.0081 33.0897C42.8888 33.0591 42.6802 33.0591 42.3523 33.0591V32.5379C42.5311 32.5379 42.6802 32.5379 42.7398 32.5379C42.8888 32.5379 43.0081 32.5072 43.0975 32.4153C43.187 32.3539 43.2168 32.262 43.2168 32.17C43.2168 32.078 43.187 31.986 43.0975 31.9247C43.0081 31.8634 42.9187 31.8328 42.7696 31.8021C42.71 31.8021 42.5609 31.8021 42.3523 31.8021V31.2809C42.71 31.2809 42.9783 31.2809 43.1571 31.3116C43.336 31.3422 43.4851 31.3729 43.6341 31.4342C43.7832 31.4955 43.9024 31.5875 43.962 31.7101C44.0515 31.8328 44.1111 31.9247 44.1111 32.078C44.1111 32.2313 44.0515 32.3539 43.9322 32.4766C43.813 32.5992 43.6639 32.6912 43.4851 32.7525C43.7533 32.8138 43.962 32.9058 44.1111 33.0284C44.2601 33.1817 44.3197 33.335 44.3197 33.5189C44.3197 33.6722 44.2601 33.7949 44.1707 33.9481C44.0813 34.0708 43.962 34.1934 43.7832 34.2854C43.6341 34.3467 43.4254 34.408 43.187 34.4387C43.0379 34.4387 42.7696 34.4387 42.3523 34.4387Z" fill="#BDBDBD"/>
</g>
<defs>
<clipPath id="clip0">
<rect width="22" height="27.5" fill="white" transform="translate(27 7)"/>
</clipPath>
</defs>
</svg>
