<svg width="76" height="42" viewBox="0 0 76 42" fill="none" xmlns="http://www.w3.org/2000/svg">
<rect x="0.5" y="0.5" width="75" height="41" rx="3.5" stroke="#EC1C24"/>
<path d="M27.3271 19.6355H28.663V19.9299C28.5903 19.9299 28.5039 19.9299 28.3994 19.9299H28.0087V20.3318H28.454C28.5403 20.3318 28.6039 20.3318 28.6675 20.3318V20.6262C28.6357 20.6262 28.6039 20.6262 28.563 20.6262H28.0041V21.1028H28.6402H28.663V21.3972H28.4721H27.3271V19.6355ZM32.0525 19.6355V20.0514L31.5981 20.7056H32.0525V21H31.3846L31.1074 21.4019H30.3804L31.6935 19.6355H32.0525ZM28.663 19.6355H28.672C28.9356 19.6355 29.14 19.6448 29.2763 19.6589C29.4036 19.6682 29.5217 19.6916 29.6262 19.7243C29.7216 19.7663 29.817 19.8131 29.8806 19.8785C29.9533 19.9346 29.9851 20.0093 29.9851 20.0841C29.9851 20.1589 29.9442 20.2383 29.8579 20.3131C29.7716 20.3785 29.658 20.4346 29.5081 20.4673C29.7216 20.5 29.867 20.5561 29.9851 20.6308C30.0896 20.7056 30.1533 20.7944 30.1533 20.8925C30.1533 20.9673 30.1124 21.0561 30.0351 21.1308C29.9715 21.1962 29.867 21.2617 29.7489 21.3037C29.6217 21.3458 29.4717 21.3785 29.2945 21.3925C29.1991 21.3925 28.9856 21.4019 28.6584 21.4019V21.1075C28.8901 21.1075 29.0401 21.0981 29.1037 21.0981C29.1991 21.0888 29.2854 21.0654 29.349 21.0233C29.4127 20.9906 29.4445 20.9346 29.4445 20.8691C29.4445 20.8271 29.4217 20.7804 29.3718 20.7383C29.3172 20.7056 29.2536 20.6729 29.1582 20.6635C29.0719 20.6402 28.9129 20.6402 28.6584 20.6308V20.3364C28.8084 20.3364 28.9038 20.3364 28.9447 20.3364C29.0628 20.3271 29.1582 20.3037 29.2218 20.271C29.2854 20.2383 29.3172 20.1962 29.3172 20.1308C29.3172 20.0748 29.2945 20.0327 29.2309 20C29.1764 19.9673 29.0946 19.9439 28.9765 19.9439C28.9356 19.9346 28.8265 19.9346 28.6584 19.9346V19.6355H28.663ZM37.5411 21.4019V19.6355H38.2181V20.4205L39.5948 19.6355H40.5035L39.245 20.3224L40.5808 21.4019H39.6993L38.7679 20.5748L38.2181 20.8691V21.4019H37.5411ZM34.138 21.4019V19.6355H34.7968L36.1735 20.8131V19.6355H36.8096V21.4019H36.1326L34.765 20.2476V21.4019H34.138ZM32.0525 21V20.7056H32.5205L32.0525 20.0514V19.6355H32.4114L33.7654 21.4019H33.0248L32.7295 21H32.0525Z" fill="#0066B2"/>
<path fill-rule="evenodd" clip-rule="evenodd" d="M27.3181 15.6262C27.2317 15.986 27.159 16.3458 27.1181 16.7056H32.107L33.1429 15.6262H27.3181ZM41.8302 14.5514H48.3775C48.2503 14.1822 48.1004 13.8224 47.9413 13.472H40.7898L41.8302 14.5514ZM28.0587 13.472C27.8996 13.8224 27.7497 14.1776 27.6225 14.5514H34.1925L35.242 13.472H28.0587ZM39.7311 12.3925H47.3689C47.1462 12.0234 46.9009 11.6636 46.6373 11.3131H38.6815L39.7311 12.3925ZM29.3627 11.3131C29.0991 11.6636 28.8538 12.0234 28.6311 12.3925H36.278L37.3276 11.3131H29.3627V11.3131ZM31.5436 9.15888C31.1074 9.48598 30.6848 9.85514 30.3032 10.2383H45.6923C45.3015 9.85514 44.8881 9.48598 44.4519 9.15888H31.5436V9.15888ZM43.2615 20.6402V18.8645H35.1012H27.0091C27 18.6916 27 18.5047 27 18.3178C27 18.1449 27 17.9673 27.0091 17.785H48.9909C49 17.972 49 18.1449 49 18.3178C49 24.5701 44.0748 29.6355 38.0045 29.6355C33.2156 29.6355 29.14 26.5 27.6225 22.0981H34.1789L38.0227 26.0514L43.2615 20.6402ZM38.0045 7C36.3325 7 34.7332 7.39252 33.311 8.07944H42.6844C41.2805 7.39252 39.6811 7 38.0045 7Z" fill="#EC1C24"/>
<path d="M38.9267 33.2743L39.8036 33.4706C39.6673 33.807 39.4447 34.0687 39.1357 34.2323C38.8177 34.4051 38.4269 34.4939 37.9499 34.4939C37.3547 34.4939 36.8685 34.3397 36.4868 34.0594C36.1052 33.7743 35.9143 33.3724 35.9143 32.8818C35.9143 32.3491 36.1052 31.9425 36.4868 31.6528C36.8776 31.3584 37.3774 31.2182 37.9998 31.2182C38.5496 31.2182 38.9858 31.3257 39.3357 31.5547C39.5356 31.6949 39.6855 31.8911 39.79 32.1435L38.8995 32.2977C38.8449 32.1341 38.7314 32.0033 38.5587 31.9052C38.3997 31.807 38.1861 31.765 37.9544 31.765C37.6273 31.765 37.3501 31.8537 37.1502 32.0173C36.9366 32.1902 36.8412 32.4659 36.8412 32.8351C36.8412 33.2369 36.9366 33.522 37.1366 33.6949C37.3501 33.8678 37.6046 33.9472 37.9317 33.9472C38.177 33.9472 38.377 33.8911 38.5451 33.7837C38.7359 33.6809 38.854 33.5033 38.9267 33.2743ZM42.339 31.2696V31.793C42.2435 31.793 42.1254 31.793 41.9891 31.793H41.4711V32.522H42.0663C42.1708 32.522 42.2663 32.522 42.3435 32.522V33.0547C42.3026 33.0547 42.2481 33.0547 42.2072 33.0547H41.4757V33.9051H42.3117H42.3435V34.4379C42.2708 34.4379 42.1845 34.4379 42.0891 34.4379H40.5851V31.265H42.339V31.2696ZM31.6934 33.4051L32.5748 33.3397C32.6293 33.5594 32.7338 33.7089 32.8929 33.807C33.0519 33.9051 33.2745 33.9472 33.5517 33.9472C33.8379 33.9472 34.0606 33.9052 34.2105 33.8164C34.3604 33.7276 34.424 33.6294 34.424 33.5126C34.424 33.4379 34.4013 33.3724 34.3377 33.3257C34.2741 33.2696 34.1696 33.2182 34.0106 33.1855C33.9061 33.1528 33.6607 33.1108 33.2882 33.0453C32.802 32.9566 32.4612 32.8584 32.2704 32.7276C31.9932 32.5547 31.8569 32.3444 31.8569 32.0967C31.8569 31.9332 31.9205 31.779 32.0568 31.6388C32.1841 31.4986 32.3658 31.4005 32.6066 31.321C32.852 31.2463 33.1473 31.2136 33.4881 31.2136C34.0515 31.2136 34.474 31.3023 34.7466 31.4752C35.0329 31.6481 35.1828 31.8771 35.1919 32.1715L34.2923 32.1949C34.2605 32.0313 34.1742 31.9238 34.0469 31.8444C33.9197 31.779 33.7289 31.7369 33.4744 31.7369C33.2109 31.7369 33.0065 31.779 32.8611 31.8584C32.7656 31.9005 32.7248 31.9659 32.7248 32.0547C32.7248 32.1294 32.7656 32.1949 32.852 32.2509C32.9701 32.3164 33.2427 32.3818 33.6789 32.4566C34.1242 32.5313 34.4422 32.6108 34.6558 32.6855C34.8693 32.7603 35.0283 32.8724 35.1556 33.0126C35.2737 33.1435 35.3237 33.3164 35.3237 33.5126C35.3237 33.6995 35.2601 33.8631 35.1101 34.0266C34.9738 34.1809 34.7694 34.2977 34.5149 34.3771C34.2514 34.4519 33.9197 34.4986 33.5426 34.4986C32.9792 34.4986 32.5476 34.4005 32.2386 34.2136C31.9342 34.0266 31.757 33.765 31.6934 33.4051ZM42.339 34.4425V33.9098C42.6479 33.9098 42.8388 33.9005 42.9205 33.8865C43.0568 33.8631 43.1659 33.821 43.2477 33.7556C43.334 33.6902 43.3749 33.6014 43.3749 33.4846C43.3749 33.3958 43.3431 33.3117 43.2795 33.2463C43.2159 33.1809 43.1205 33.1388 42.9932 33.1061C42.8887 33.0734 42.6661 33.064 42.3344 33.064V32.5313C42.5252 32.5313 42.6525 32.5313 42.7161 32.522C42.866 32.5126 42.9932 32.4799 43.075 32.4145C43.1613 32.3491 43.2022 32.2743 43.2022 32.1622C43.2022 32.064 43.1704 31.9893 43.0977 31.9238C43.0114 31.8678 42.9069 31.8257 42.757 31.8164C42.6934 31.8164 42.5571 31.807 42.3344 31.807V31.2837H42.3435C42.7024 31.2837 42.9705 31.293 43.1386 31.307C43.3067 31.3304 43.4658 31.3724 43.6066 31.4379C43.7429 31.5126 43.8611 31.6014 43.9428 31.7089C44.0383 31.8164 44.0791 31.9379 44.0791 32.078C44.0791 32.2182 44.0246 32.3631 43.911 32.4799C43.8065 32.6108 43.6475 32.6995 43.4567 32.765C43.7338 32.821 43.9338 32.9192 44.0837 33.05C44.2336 33.1902 44.3063 33.3444 44.3063 33.5313C44.3063 33.6715 44.2518 33.8164 44.1564 33.9566C44.0701 34.0874 43.9338 34.1949 43.7747 34.2837C43.6157 34.3584 43.4158 34.4145 43.1704 34.4379C43.0478 34.4285 42.7706 34.4285 42.339 34.4425Z" fill="#0066B2"/>
</svg>
