<svg width="32" height="32" viewBox="0 0 32 32" fill="none" xmlns="http://www.w3.org/2000/svg">
<path d="M28.5762 3.90323C28.5762 2.29968 26.8587 1 24.7397 1C18.4928 1 6.52823 1 3.6394 1C3.28645 1 3 1.21677 3 1.48387V30.5161C3 30.7832 3.28645 31 3.6394 31H24.7397C26.8587 31 28.5762 29.7003 28.5762 28.0968C28.5762 22.3615 28.5762 9.63855 28.5762 3.90323Z" fill="#003C71"/>
<path d="M12.332 20.05C12.247 19.9083 12.1078 19.8043 11.9443 19.7615C11.7801 19.7194 11.6057 19.7417 11.4594 19.8234C9.99534 20.6424 6.03171 22.8605 4.56763 23.6795C4.42071 23.7618 4.31403 23.8967 4.26995 24.0552C4.22588 24.2143 4.24888 24.3827 4.33383 24.5251C5.08951 25.7935 6.97966 28.9667 7.73534 30.2351C7.8203 30.3775 7.95955 30.4809 8.12308 30.5236C8.28725 30.5663 8.46163 30.544 8.60791 30.4617C10.072 29.6427 14.0356 27.4247 15.4997 26.6057C15.6466 26.5233 15.7533 26.3884 15.7974 26.2299C15.8415 26.0714 15.8185 25.9024 15.7335 25.7601C14.9778 24.4916 13.0877 21.3184 12.332 20.05Z" fill="#FEEEC7"/>
<path d="M8.09961 30.5169L8.64513 27.4582C8.6892 27.2131 8.84315 26.9989 9.06545 26.8745C9.28774 26.7501 9.55603 26.7278 9.79749 26.8138C10.5001 27.0645 11.3255 27.3586 11.3255 27.3586C11.3255 27.3586 11.694 25.291 11.9227 24.0096C11.9668 23.7644 12.1207 23.5508 12.343 23.4258C12.5653 23.3014 12.8336 23.2791 13.0751 23.3651C13.7905 23.6202 14.6382 23.9223 14.6382 23.9223L15.733 25.7602C15.818 25.9026 15.841 26.0716 15.7969 26.2301C15.7528 26.3885 15.6462 26.5241 15.4992 26.6058C14.0352 27.4248 10.0715 29.6428 8.60744 30.4618C8.46116 30.5442 8.28677 30.5665 8.12261 30.5237C8.11494 30.5219 8.10727 30.5194 8.09961 30.5169V30.5169Z" fill="#26BED6"/>
<path d="M8.39145 23.3586C8.91078 23.0677 9.57638 23.2404 9.87661 23.7443C10.1762 24.2476 9.99798 24.8926 9.47865 25.1835C8.95868 25.4739 8.29371 25.3012 7.99349 24.7979C7.69326 24.294 7.87148 23.6496 8.39145 23.3586Z" fill="#F79321"/>
<path d="M11.4834 13.1209C11.4898 11.4792 12.9673 10.6527 14.0718 10.8533C15.1762 11.0545 15.9083 12.2827 15.9012 13.9244C15.9332 15.1352 15.1526 16.8005 14.4103 18.0342C12.9367 18.0404 11.058 17.8627 9.99252 17.2307C8.52205 16.4154 7.79001 15.1872 8.16242 14.1596C8.53547 13.132 10.013 12.3056 11.4834 13.1209V13.1209Z" fill="#F79321"/>
<path d="M26.0093 24.5239C26.0093 24.688 25.9423 24.8452 25.8222 24.9616C25.7027 25.0773 25.5398 25.143 25.3706 25.143C24.6136 25.143 23.4542 25.143 23.4542 25.143V21.4287H25.3706C25.5398 21.4287 25.7027 21.4937 25.8222 21.6101C25.9423 21.7259 26.0093 21.8837 26.0093 22.0478V24.5239ZM17.0664 22.0478C17.0664 21.8837 17.1335 21.7259 17.2536 21.6101C17.373 21.4937 17.5359 21.4287 17.7052 21.4287H19.6215V25.143H17.7052C17.5359 25.143 17.373 25.0773 17.2536 24.9616C17.1335 24.8452 17.0664 24.688 17.0664 24.5239C17.0664 23.8368 17.0664 22.7349 17.0664 22.0478Z" fill="#9FC43A"/>
<path d="M19.6094 1H23.4302V31H19.6094V1Z" fill="#26BED6"/>
<path d="M4.87305 2.66211H15.0935V10.0906H4.87305V2.66211Z" fill="#FEEEC7"/>
<path d="M13.174 5.44814H6.78619C6.60988 5.44814 6.4668 5.30948 6.4668 5.13862C6.4668 4.96777 6.60988 4.8291 6.78619 4.8291H13.174C13.3503 4.8291 13.4934 4.96777 13.4934 5.13862C13.4934 5.30948 13.3503 5.44814 13.174 5.44814Z" fill="#26BED6"/>
<path d="M13.174 7.92471H6.78619C6.60988 7.92471 6.4668 7.78604 6.4668 7.61519C6.4668 7.44433 6.60988 7.30566 6.78619 7.30566H13.174C13.3503 7.30566 13.4934 7.44433 13.4934 7.61519C13.4934 7.78604 13.3503 7.92471 13.174 7.92471Z" fill="#26BED6"/>
</svg>
