<svg xmlns="http://www.w3.org/2000/svg" width="32" height="32" fill="none" viewBox="0 0 32 32">
    <g opacity=".5">
        <path fill="#003C71" d="M21.5 0H11.47c-.26 0-.47.208-.47.465V22c.156-.018.313-.026.47-.026h10.5V.465c0-.257-.21-.465-.47-.465zm-5.884 17.395h-2.278v-2.258h2.278v2.258zm0-4.056h-2.278v-2.258h2.278v2.258zm0-4.055h-2.278V7.026h2.278v2.258zm0-4.056h-2.278V2.97h2.278v2.258zm4.007 12.167h-2.27v-2.258h2.27v2.258zm0-4.056h-2.27v-2.258h2.27v2.258zm0-4.055h-2.27V7.026h2.27v2.258zm0-4.056h-2.27V2.97h2.27v2.258zM31.53 6.418h-8.857v15.535h1.603v-7.098h6.027v7.119h1.228c.157 0 .313.008.47.025V6.883c0-.257-.211-.465-.47-.465zm-5.12 5.342h-2.277V9.502h2.279l-.002 2.258zm4.008 0h-2.272V9.502h2.272v2.258z"/>
        <path fill="#26BED6" d="M2.796 30.306l-.002.001c-.298.152-.427.501-.297.804.13.303.478.457.797.354l9.006-2.931-1.684 2.69c-.122.195-.096.446.063.614.16.167.414.21.622.104l1.766-.897c.051-.026.097-.06.137-.1l5.231-5.345 6.457-3.295c2.445-1.29 2.162-2.28 2.017-2.554-.113-.211-.364-.495-.923-.645-.566-.153-1.332-.14-2.34.037-.335.059-.521.054-.718.049-.69-.019-1.16.026-3.487 1.21L6.71 26.871l-4.937-2.506c-.186-.094-.408-.094-.594 0l-.832.424c-.171.087-.293.244-.333.429-.04.185.007.377.128.524l3.426 4.175-.772.388z"/>
    </g>
</svg>
