<svg xmlns="http://www.w3.org/2000/svg" width="32" height="32" fill="none" viewBox="0 0 32 32">
    <g clip-path="url(#prefix__clip0)" opacity=".5">
        <path fill="#003C71" d="M26.643 10.427l-4.87-4.576-15.223-1.4-2.055 1.93 12.938 4.028 4.36 4.096 4.286 12.155 2.056-1.932-1.492-14.301zM12.842 21.281l-2.626-2.466-7.107-1.786L2 18.069l5.877 3.202 2.35 2.208L13.635 29l1.108-1.04-1.901-6.679z"/>
        <path fill="#26BED6" d="M27.47 2.547l-.686.217c-1.924.608-3.647 1.675-5 3.096L11.218 16.954c-1.57 1.648-2.75 3.588-3.465 5.694-.045.132-.05.273-.016.407.035.135.109.258.213.356.104.098.235.167.378.2.143.032.293.027.433-.015 2.242-.672 4.308-1.781 6.061-3.255l11.81-9.927c1.512-1.272 2.647-2.89 3.294-4.697l.231-.645c.126-.352.145-.73.055-1.09-.09-.362-.286-.692-.566-.955-.279-.262-.63-.446-1.015-.53-.384-.086-.786-.068-1.16.05z"/>
        <path fill="#EBECF1" d="M26.204 8.513c-.052-.049-.093-.107-.12-.17-.03-.064-.044-.133-.044-.202s.015-.137.043-.201c.028-.064.07-.122.122-.17.212-.2.331-.471.331-.754 0-.282-.119-.553-.332-.752-.212-.2-.5-.312-.8-.312-.301 0-.59.112-.802.312-.105.098-.247.154-.396.154-.148 0-.29-.056-.396-.154-.105-.099-.164-.233-.164-.372 0-.14.06-.273.164-.372.423-.397.996-.62 1.593-.62.598 0 1.17.223 1.593.62.423.397.66.935.66 1.496 0 .562-.237 1.1-.66 1.497-.052.049-.113.088-.181.114-.068.027-.141.04-.215.04-.073 0-.146-.013-.214-.04-.068-.026-.13-.065-.181-.114z"/>
    </g>
    <defs>
        <clipPath id="prefix__clip0">
            <path fill="#fff" d="M0 0H32V32H0z"/>
        </clipPath>
    </defs>
</svg>
