<svg xmlns="http://www.w3.org/2000/svg" width="32" height="32" fill="none"><rect id="backgroundrect" width="100%" height="100%" x="0" y="0" fill="none" stroke="none"/>
    
<g class="currentLayer" style=""><title>Layer 1</title><g opacity="1" id="svg_1" class="selected">
        <path fill="#003C71" d="M16 29c7.18 0 13-5.82 13-13S23.18 3 16 3 3 8.82 3 16s5.82 13 13 13z" id="svg_2" opacity="1"/>
        <path fill="#FFFEFE" d="M16 24.438c4.694 0 8.5-3.806 8.5-8.5 0-4.695-3.806-8.5-8.5-8.5s-8.5 3.805-8.5 8.5c0 4.694 3.806 8.5 8.5 8.5z" id="svg_3" opacity="1"/>
        <path fill="#26BED6" d="M30.76 4.08c-.377-1.648-1.178-2.661-2.258-2.852-1.054-.186-2.145.493-3.072 1.91-.77 1.18-1.375 2.771-1.655 4.365-.263 1.487-.116 2.81.425 3.828.296.578.751 1.058 1.311 1.386l-3.733 15.941c-.039.166-.043.337-.013.505.03.167.093.327.187.469.093.141.215.263.357.356.142.093.302.157.47.186l1.336.236c.167.03.339.025.504-.015.166-.039.321-.111.458-.212.136-.102.25-.23.336-.377.085-.147.14-.31.16-.479l1.95-16.307c.585-.134 1.125-.42 1.567-.826.856-.772 1.446-1.966 1.709-3.453.283-1.61.27-3.308-.04-4.66zM11.176 28.654L7.48 12.876l.166-.03c.307-.054.6-.168.863-.335.263-.168.49-.386.67-.641.179-.256.305-.544.373-.849.067-.304.074-.619.02-.926L9.117 7.51 7.902.616 6.917.79 8.046 7.19l-.985.174L5.932.964l-.985.173 1.13 6.402-.986.173-1.128-6.401-.985.173 1.129 6.402-.985.173-1.129-6.4-.985.173 1.216 6.894.456 2.585c.054.307.168.6.335.864.168.263.385.49.641.67.256.178.544.305.848.372.305.068.62.074.927.02l.025-.004 1.925 16.09c.02.17.075.332.16.48.085.146.2.274.336.376.136.101.292.174.458.213.165.039.337.044.504.014l1.337-.235c.167-.03.327-.093.469-.187.142-.093.264-.214.357-.356.094-.142.157-.302.187-.47.03-.167.025-.338-.013-.504z" id="svg_4" opacity="1"/>
        <path fill="#003C71" d="M16 20.5l-4.245-4.14c-.237-.228-.426-.501-.557-.803-.13-.302-.2-.627-.205-.957-.005-.329.055-.656.177-.961.122-.306.303-.585.533-.82.23-.237.504-.425.806-.554.303-.13.628-.198.957-.201.33-.004.656.058.962.18.305.124.583.306.818.537l.754.736.755-.736c.235-.23.513-.413.818-.536.305-.123.632-.185.961-.181.33.003.655.072.957.201.303.13.577.317.807.553.23.236.41.515.533.82.121.306.182.633.177.962-.005.33-.075.655-.206.957-.13.302-.32.575-.556.804L16 20.5z" id="svg_5" opacity="1"/>
    </g></g></svg>