<svg xmlns="http://www.w3.org/2000/svg" width="24" height="24" fill="none"><rect id="backgroundrect" width="100%" height="100%" x="0" y="0" fill="none" stroke="none"/>

<g class="currentLayer" style=""><title>Layer 1</title><path d="M5.20898 13H16.379L11.499 17.88C11.109 18.27 11.109 18.91 11.499 19.3C11.889 19.69 12.519 19.69 12.909 19.3L19.499 12.71C19.889 12.32 19.889 11.69 19.499 11.3L12.919 4.69999C12.7322 4.51273 12.4785 4.4075 12.214 4.4075C11.9495 4.4075 11.6958 4.51273 11.509 4.69999C11.119 5.08999 11.119 5.71999 11.509 6.10999L16.379 11H5.20898C4.65898 11 4.20898 11.45 4.20898 12C4.20898 12.55 4.65898 13 5.20898 13Z" fill="#ffffff" id="svg_1" class="" fill-opacity="1"/></g></svg>