<svg width="32" height="32" viewBox="0 0 32 32" fill="none" xmlns="http://www.w3.org/2000/svg">
    <path d="M28.998 29H24v-7l5.543.677L28.997 29z" fill="#003C71"/>
    <rect width=".867" height="3.62" rx=".434" transform="matrix(.97061 .24065 -.07557 .99714 25.318 23.963)" fill="#26BED6"/>
    <rect width=".867" height="3.62" rx=".434" transform="matrix(.97061 .24065 -.07557 .99714 27.406 24.39)" fill="#26BED6"/>
    <path d="M8.867 3.708c-.928 1.124-.879 2.264-.738 2.694h1.58c0-.82.107-1.757-.842-2.694z" fill="#FEEEC7"/>
    <path d="m31.022 9.088-.759 6.502-9.038-.966.535-6.723.841-.052.418-5.19 7.678 1.168-.215 5.06.54.2z" fill="#003C71"/>
    <path d="m30.179 15.947-.53 6.018-5.332-.373C24.5 20.5 25 17.5 25.001 17 24 16.5 23 15.5 22 15L22 14l8.179 1.947z" fill="#003C71"/>
    <path d="m14.54 14.541.827-.613c1.18-.082 3.635-.197 4.012 0 .378.196 2.614 3.058 4.621 4.572l-.5 1.5-.168.76-1.828-1.8L23 28c-3.698.164-10.523 0-11 0 0-.393.377-6.096.77-8.673L9.7 14.787l1.534-3.19 3.305 2.944z" fill="#26BED6"/>
    <path d="m21.812 17.273 2.5.8-1.26 4.01-2.628-.907 1.388-3.903z" fill="#9FC43A"/>
    <path d="m12.5 19 3.329-4.164 2.636-.703L19 15l-1 9-1 1-2 1-1 1-2 1 .5-9zM.078 29.539l2.109-6.091h6.747l2.003 6.09H8.723l-.835-2.41a2.685 2.685 0 0 0-.713-1.091l-.114-.106a2.287 2.287 0 0 0-3.107 0l-.115.106c-.323.3-.568.675-.713 1.091l-.834 2.41H.078zM5.033 2.316a.422.422 0 0 1 .844 0V4.47h-.844V2.316zM4.61 4.47h1.688L7.352 14.78H3.557L4.61 4.47z" fill="#003C71"/>
    <path d="m9.394 8.861 2.003 3.28-1.16 2.46-1.792-3.631c-.422-.156-1.244-.773-1.16-1.991.085-1.219 1.441-.586 2.109-.118zM5.242 7.048h.421l.844 7.731H4.398l.844-7.73z" fill="#26BED6"/>
    <rect x="2.713" y="14.779" width="5.482" height=".937" rx=".469" fill="#003C71"/>
    <rect x="1.662" y="22.51" width="7.801" height=".937" rx=".469" fill="#003C71"/>
    <path d="M3.345 15.717h4.217l1.054 6.794H2.502l.843-6.794z" fill="#003C71"/>
    <path d="M4.19 15.951h2.53l.843 6.56H3.557l.632-6.56z" fill="#26BED6"/>
    <rect width="6.562" height=".935" rx=".467" transform="matrix(.99189 .1271 -.09197 .99576 23.703 21.114)" fill="#003C71"/>
    <rect width="9.873" height=".935" rx=".467" transform="matrix(.99292 .11877 -.08512 .99637 21.113 14.149)" fill="#003C71"/>
    <rect width="10.217" height=".935" rx=".467" transform="matrix(.99292 .11877 -.08512 .99637 21.385 7.597)" fill="#003C71"/>
    <rect width="9.2" height=".935" rx=".467" transform="matrix(.99292 .11877 -.08512 .99637 22.297 2.06)" fill="#003C71"/>
    <rect width=".867" height="3.62" rx=".434" transform="matrix(.97061 .24065 -.07557 .99714 22.602 9.607)" fill="#26BED6"/>
    <rect width=".848" height="2.799" rx=".424" transform="matrix(.98483 .1735 -.13035 .99147 24.383 4.196)" fill="#26BED6"/>
    <rect width=".867" height="3.62" rx=".434" transform="matrix(.97061 .24065 -.07557 .99714 24.684 10.034)" fill="#26BED6"/>
    <rect width=".848" height="2.799" rx=".424" transform="matrix(.98483 .1735 -.13035 .99147 26.445 4.493)" fill="#26BED6"/>
    <rect width=".867" height="3.62" rx=".434" transform="matrix(.97061 .24065 -.07557 .99714 26.777 10.46)" fill="#26BED6"/>
    <rect width=".867" height="3.62" rx=".434" transform="matrix(.97061 .24065 -.07557 .99714 28.867 10.886)" fill="#26BED6"/>
    <rect width=".867" height="3.62" rx=".434" transform="matrix(.97061 .24065 -.07557 .99714 25.797 17.275)" fill="#26BED6"/>
    <rect width=".867" height="3.62" rx=".434" transform="matrix(.97061 .24065 -.07557 .99714 27.89 17.701)" fill="#26BED6"/>
    <rect width=".848" height="2.799" rx=".424" transform="matrix(.98483 .1735 -.13035 .99147 28.506 4.79)" fill="#26BED6"/>
    <rect x="16" y="5" width=".843" height="3.046" rx=".422" fill="#003C71"/>
    <rect width=".886" height="2.914" rx=".443" transform="matrix(.70976 .70444 -.62655 .77938 19.826 6)" fill="#003C71"/>
    <rect width=".881" height="2.932" rx=".44" transform="matrix(.7511 -.66018 .57996 .81465 13 6.582)" fill="#003C71"/>
    <rect x="13.615" y="6.87" width="6.325" height="7.965" rx="3.163" fill="#003C71"/>
    <path d="M16.972 7.538c-.129.876-.928 2.717-3.09 3.069-.312-1.139.542-4.491 3.09-3.07z" fill="#26BED6"/>
    <path d="M16.553 7.505c.104.88.85 2.749 3.002 3.178.344-1.127-.415-4.508-3.002-3.178zM7.709 6.4h2.319v1.64H7.709z" fill="#26BED6"/>
    <path fill="#003C71" d="M8.342 8.041h1.054v3.748H8.342zM0 29h30v2H0z"/>
    <path fill="#26BED6" d="M12 28h11v1H12z"/>
</svg>
