<svg width="24" height="24" viewBox="0 0 24 24" fill="none" xmlns="http://www.w3.org/2000/svg">
    <path fill-rule="evenodd" clip-rule="evenodd" d="M16.765 6.083v3.792l2.424-2.492c.668-.682 1.811-.195 1.811.77v6.684c0 .964-1.143 1.451-1.81.769l-2.425-2.481v3.792c0 .595-.477 1.083-1.06 1.083H4.06C3.476 18 3 17.512 3 16.917V6.083C3 5.487 3.476 5 4.059 5h11.647c.582 0 1.059.487 1.059 1.083zm-8.26 8.777 3.991-2.432c.672-.416.672-1.44 0-1.855L8.504 8.142C7.832 7.736 7 8.248 7 9.069v4.863c0 .81.832 1.333 1.504.928z" fill="#fff"/>
</svg>
