<svg width="58" height="48" viewBox="0 0 58 48" fill="none" xmlns="http://www.w3.org/2000/svg">
<path fill-rule="evenodd" clip-rule="evenodd" d="M54 0.545455H4C2.067 0.545455 0.5 2.25491 0.5 4.36364V43.6364C0.5 45.7451 2.067 47.4545 4 47.4545H54C55.933 47.4545 57.5 45.7451 57.5 43.6364V4.36364C57.5 2.25491 55.933 0.545455 54 0.545455ZM4 0C1.79086 0 0 1.95367 0 4.36364V43.6364C0 46.0463 1.79086 48 4 48H54C56.2091 48 58 46.0463 58 43.6364V4.36364C58 1.95367 56.2091 0 54 0H4Z" fill="#828282"/>
<path d="M20.8074 29.4546V19.2976H20.1101C19.7341 19.5139 18.1345 20.6325 17.7722 20.9159V21.766C18.1072 21.5125 19.7957 20.3416 20.0486 20.1925H20.0623V29.4546H20.8074Z" fill="#828282"/>
<path d="M40 21.8778C40 21.6221 39.75 21.5199 39.5625 21.4858L35.6406 20.8636L33.8828 16.9858C33.8125 16.8239 33.6797 16.6364 33.5 16.6364C33.3203 16.6364 33.1875 16.8239 33.1172 16.9858L31.3594 20.8636L27.4375 21.4858C27.2422 21.5199 27 21.6221 27 21.8778C27 22.0312 27.1016 22.1761 27.1953 22.2869L30.0391 25.304L29.3672 29.5653C29.3594 29.625 29.3516 29.6761 29.3516 29.7358C29.3516 29.9574 29.4531 30.1619 29.6797 30.1619C29.7891 30.1619 29.8906 30.1193 29.9922 30.0596L33.5 28.0483L37.0078 30.0596C37.1016 30.1193 37.2109 30.1619 37.3203 30.1619C37.5469 30.1619 37.6406 29.9574 37.6406 29.7358C37.6406 29.6761 37.6406 29.625 37.6328 29.5653L36.9609 25.304L39.7969 22.2869C39.8984 22.1761 40 22.0312 40 21.8778Z" fill="#828282"/>
</svg>
