<svg width="58" height="48" viewBox="0 0 58 48" fill="none" xmlns="http://www.w3.org/2000/svg">
<path d="M0 4.36364C0 1.95367 1.79086 0 4 0H54C56.2091 0 58 1.95367 58 4.36364V43.6364C58 46.0463 56.2091 48 54 48H4C1.79086 48 0 46.0463 0 43.6364V4.36364Z" fill="#F79221"/>
<path d="M20.8064 29.4546V19.2753H19.3298C18.7966 19.581 17.5798 20.4237 17.0603 20.8264V22.4447C17.5388 22.0792 18.865 21.162 19.2273 20.9457H19.2751V29.4546H20.8064Z" fill="white"/>
<path d="M40 21.8778C40 21.6221 39.75 21.5199 39.5625 21.4858L35.6406 20.8636L33.8828 16.9858C33.8125 16.8239 33.6797 16.6364 33.5 16.6364C33.3203 16.6364 33.1875 16.8239 33.1172 16.9858L31.3594 20.8636L27.4375 21.4858C27.2422 21.5199 27 21.6221 27 21.8778C27 22.0312 27.1016 22.1761 27.1953 22.2869L30.0391 25.304L29.3672 29.5653C29.3594 29.625 29.3516 29.6761 29.3516 29.7358C29.3516 29.9574 29.4531 30.1619 29.6797 30.1619C29.7891 30.1619 29.8906 30.1193 29.9922 30.0596L33.5 28.0483L37.0078 30.0596C37.1016 30.1193 37.2109 30.1619 37.3203 30.1619C37.5469 30.1619 37.6406 29.9574 37.6406 29.7358C37.6406 29.6761 37.6406 29.625 37.6328 29.5653L36.9609 25.304L39.7969 22.2869C39.8984 22.1761 40 22.0312 40 21.8778Z" fill="white"/>
</svg>
