<svg width="58" height="48" viewBox="0 0 58 48" fill="none" xmlns="http://www.w3.org/2000/svg">
<path fill-rule="evenodd" clip-rule="evenodd" d="M54 0.545455H4C2.067 0.545455 0.5 2.25491 0.5 4.36364V43.6364C0.5 45.7451 2.067 47.4545 4 47.4545H54C55.933 47.4545 57.5 45.7451 57.5 43.6364V4.36364C57.5 2.25491 55.933 0.545455 54 0.545455ZM4 0C1.79086 0 0 1.95367 0 4.36364V43.6364C0 46.0463 1.79086 48 4 48H54C56.2091 48 58 46.0463 58 43.6364V4.36364C58 1.95367 56.2091 0 54 0H4Z" fill="#828282"/>
<path d="M18.0945 21.93V21.9002C18.0945 20.8263 18.8259 19.7972 20.1521 19.7972C21.4236 19.7972 22.1687 20.7145 22.1687 21.8033C22.1687 22.892 21.5671 23.6452 21.0134 24.3388L17.4041 28.8803V29.4545H23.1394V28.7237H18.4363V28.7013L21.4646 24.8906C22.196 23.951 22.9343 23.0486 22.9343 21.7958C22.9343 20.3043 21.9226 19.0739 20.1658 19.0739C18.3064 19.0739 17.3562 20.4908 17.3562 21.9002V21.93H18.0945Z" fill="#828282"/>
<path d="M41 21.8778C41 21.6221 40.75 21.5199 40.5625 21.4858L36.6406 20.8636L34.8828 16.9858C34.8125 16.8239 34.6797 16.6364 34.5 16.6364C34.3203 16.6364 34.1875 16.8239 34.1172 16.9858L32.3594 20.8636L28.4375 21.4858C28.2422 21.5199 28 21.6221 28 21.8778C28 22.0312 28.1016 22.1761 28.1953 22.2869L31.0391 25.304L30.3672 29.5653C30.3594 29.625 30.3516 29.6761 30.3516 29.7358C30.3516 29.9574 30.4531 30.1619 30.6797 30.1619C30.7891 30.1619 30.8906 30.1193 30.9922 30.0596L34.5 28.0483L38.0078 30.0596C38.1016 30.1193 38.2109 30.1619 38.3203 30.1619C38.5469 30.1619 38.6406 29.9574 38.6406 29.7358C38.6406 29.6761 38.6406 29.625 38.6328 29.5653L37.9609 25.304L40.7969 22.2869C40.8984 22.1761 41 22.0312 41 21.8778Z" fill="#828282"/>
</svg>
