<svg width="58" height="48" viewBox="0 0 58 48" fill="none" xmlns="http://www.w3.org/2000/svg">
<path d="M0 4.36364C0 1.95367 1.79086 0 4 0H54C56.2091 0 58 1.95367 58 4.36364V43.6364C58 46.0463 56.2091 48 54 48H4C1.79086 48 0 46.0463 0 43.6364V4.36364Z" fill="#F79221"/>
<path d="M18.5457 22.2134C18.5457 22.1985 18.5457 22.1463 18.5457 22.1239C18.5457 21.2365 19.1404 20.4609 20.1111 20.4609C20.9929 20.4609 21.6423 21.0724 21.6423 22.0344C21.6423 22.8771 21.157 23.5259 20.5896 24.2045L17.1511 28.3956V29.4545H23.365V28.0451H19.2839V28.0003L21.5808 25.1293C22.572 23.9212 23.1941 23.0934 23.1941 21.8927C23.1941 20.2596 21.991 19.0739 20.1726 19.0739C18.2244 19.0739 17.0623 20.4833 17.0623 22.1314V22.2134H18.5457Z" fill="white"/>
<path d="M41 21.8778C41 21.6221 40.75 21.5199 40.5625 21.4858L36.6406 20.8636L34.8828 16.9858C34.8125 16.8239 34.6797 16.6364 34.5 16.6364C34.3203 16.6364 34.1875 16.8239 34.1172 16.9858L32.3594 20.8636L28.4375 21.4858C28.2422 21.5199 28 21.6221 28 21.8778C28 22.0312 28.1016 22.1761 28.1953 22.2869L31.0391 25.304L30.3672 29.5653C30.3594 29.625 30.3516 29.6761 30.3516 29.7358C30.3516 29.9574 30.4531 30.1619 30.6797 30.1619C30.7891 30.1619 30.8906 30.1193 30.9922 30.0596L34.5 28.0483L38.0078 30.0596C38.1016 30.1193 38.2109 30.1619 38.3203 30.1619C38.5469 30.1619 38.6406 29.9574 38.6406 29.7358C38.6406 29.6761 38.6406 29.625 38.6328 29.5653L37.9609 25.304L40.7969 22.2869C40.8984 22.1761 41 22.0312 41 21.8778Z" fill="white"/>
</svg>
