<svg width="58" height="48" viewBox="0 0 58 48" fill="none" xmlns="http://www.w3.org/2000/svg">
<path d="M0 4.36364C0 1.95367 1.79086 0 4 0H54C56.2091 0 58 1.95367 58 4.36364V43.6364C58 46.0463 56.2091 48 54 48H4C1.79086 48 0 46.0463 0 43.6364V4.36364Z" fill="#F79221"/>
<path d="M19.1062 24.8906H20.0906C21.2732 24.8906 21.95 25.5767 21.9636 26.5611C21.9705 27.5529 21.2937 28.2912 20.0974 28.2912C18.9763 28.2912 18.3816 27.5902 18.2859 26.7102H16.8435C16.8914 28.3136 17.9167 29.6633 20.0564 29.6633C22.0183 29.6633 23.5427 28.4105 23.5222 26.6133C23.4949 24.9726 22.3396 24.2269 21.5125 24.1523V24.1001C22.2234 23.9883 23.2283 23.1381 23.2009 21.6914C23.1667 20.185 21.9158 19.0739 20.1111 19.0739C18.1218 19.0739 17.0828 20.446 17.0417 21.9449H18.5046C18.5525 21.229 19.0242 20.4311 20.0769 20.4311C21.0339 20.4311 21.656 21.0575 21.6628 21.9375C21.6628 22.8697 20.9998 23.5259 20.0359 23.5259H19.1062V24.8906Z" fill="white"/>
<path d="M41 21.8778C41 21.6221 40.75 21.5199 40.5625 21.4858L36.6406 20.8636L34.8828 16.9858C34.8125 16.8239 34.6797 16.6364 34.5 16.6364C34.3203 16.6364 34.1875 16.8239 34.1172 16.9858L32.3594 20.8636L28.4375 21.4858C28.2422 21.5199 28 21.6221 28 21.8778C28 22.0312 28.1016 22.1761 28.1953 22.2869L31.0391 25.304L30.3672 29.5653C30.3594 29.625 30.3516 29.6761 30.3516 29.7358C30.3516 29.9574 30.4531 30.1619 30.6797 30.1619C30.7891 30.1619 30.8906 30.1193 30.9922 30.0596L34.5 28.0483L38.0078 30.0596C38.1016 30.1193 38.2109 30.1619 38.3203 30.1619C38.5469 30.1619 38.6406 29.9574 38.6406 29.7358C38.6406 29.6761 38.6406 29.625 38.6328 29.5653L37.9609 25.304L40.7969 22.2869C40.8984 22.1761 41 22.0312 41 21.8778Z" fill="white"/>
</svg>
