<svg width="58" height="48" viewBox="0 0 58 48" fill="none" xmlns="http://www.w3.org/2000/svg">
<path fill-rule="evenodd" clip-rule="evenodd" d="M54 0.545455H4C2.067 0.545455 0.5 2.25491 0.5 4.36364V43.6364C0.5 45.7451 2.067 47.4545 4 47.4545H54C55.933 47.4545 57.5 45.7451 57.5 43.6364V4.36364C57.5 2.25491 55.933 0.545455 54 0.545455ZM4 0C1.79086 0 0 1.95367 0 4.36364V43.6364C0 46.0463 1.79086 48 4 48H54C56.2091 48 58 46.0463 58 43.6364V4.36364C58 1.95367 56.2091 0 54 0H4Z" fill="#828282"/>
<path d="M19.0994 24.5774H20.0359C21.4919 24.5774 22.4968 25.4275 22.5037 26.74C22.5105 28.0153 21.5945 28.9623 20.1453 28.9623C18.6687 28.9623 17.8962 27.9481 17.8279 26.8967H17.1033C17.1375 28.3285 18.1423 29.6857 20.1179 29.6857C21.95 29.6857 23.283 28.4478 23.2625 26.7251C23.2488 25.0845 21.9978 24.2642 20.9998 24.1822V24.1672C21.8406 24.0554 22.8796 23.153 22.8591 21.6541C22.8318 20.1999 21.7791 19.0739 20.0564 19.0739C18.1218 19.0739 17.3289 20.6101 17.3152 21.7511H18.0466C18.074 20.9457 18.614 19.7972 20.0496 19.7972C21.3279 19.7972 22.0867 20.6474 22.0867 21.766C22.0935 22.9219 21.2869 23.8466 19.947 23.8466H19.0994V24.5774Z" fill="#828282"/>
<path d="M41 21.8778C41 21.6221 40.75 21.5199 40.5625 21.4858L36.6406 20.8636L34.8828 16.9858C34.8125 16.8239 34.6797 16.6364 34.5 16.6364C34.3203 16.6364 34.1875 16.8239 34.1172 16.9858L32.3594 20.8636L28.4375 21.4858C28.2422 21.5199 28 21.6221 28 21.8778C28 22.0312 28.1016 22.1761 28.1953 22.2869L31.0391 25.304L30.3672 29.5653C30.3594 29.625 30.3516 29.6761 30.3516 29.7358C30.3516 29.9574 30.4531 30.1619 30.6797 30.1619C30.7891 30.1619 30.8906 30.1193 30.9922 30.0596L34.5 28.0483L38.0078 30.0596C38.1016 30.1193 38.2109 30.1619 38.3203 30.1619C38.5469 30.1619 38.6406 29.9574 38.6406 29.7358C38.6406 29.6761 38.6406 29.625 38.6328 29.5653L37.9609 25.304L40.7969 22.2869C40.8984 22.1761 41 22.0312 41 21.8778Z" fill="#828282"/>
</svg>
