<svg width="58" height="48" viewBox="0 0 58 48" fill="none" xmlns="http://www.w3.org/2000/svg">
<path fill-rule="evenodd" clip-rule="evenodd" d="M54 0.545455H4C2.067 0.545455 0.5 2.25491 0.5 4.36364V43.6364C0.5 45.7451 2.067 47.4545 4 47.4545H54C55.933 47.4545 57.5 45.7451 57.5 43.6364V4.36364C57.5 2.25491 55.933 0.545455 54 0.545455ZM4 0C1.79086 0 0 1.95367 0 4.36364V43.6364C0 46.0463 1.79086 48 4 48H54C56.2091 48 58 46.0463 58 43.6364V4.36364C58 1.95367 56.2091 0 54 0H4Z" fill="#828282"/>
<path d="M21.116 19.2976C20.3914 20.461 17.5681 25.2039 16.9666 26.3821V27.098H21.4919V29.4546H22.2029V27.098H23.5154V26.3672H22.2029V19.2976H21.116ZM17.7458 26.3672V26.3448C18.2654 25.3679 20.8835 20.9606 21.4714 20.0284H21.4919V26.3672H17.7458Z" fill="#828282"/>
<path d="M41 21.8778C41 21.6221 40.75 21.5199 40.5625 21.4858L36.6406 20.8636L34.8828 16.9858C34.8125 16.8239 34.6797 16.6364 34.5 16.6364C34.3203 16.6364 34.1875 16.8239 34.1172 16.9858L32.3594 20.8636L28.4375 21.4858C28.2422 21.5199 28 21.6221 28 21.8778C28 22.0312 28.1016 22.1761 28.1953 22.2869L31.0391 25.304L30.3672 29.5653C30.3594 29.625 30.3516 29.6761 30.3516 29.7358C30.3516 29.9574 30.4531 30.1619 30.6797 30.1619C30.7891 30.1619 30.8906 30.1193 30.9922 30.0596L34.5 28.0483L38.0078 30.0596C38.1016 30.1193 38.2109 30.1619 38.3203 30.1619C38.5469 30.1619 38.6406 29.9574 38.6406 29.7358C38.6406 29.6761 38.6406 29.625 38.6328 29.5653L37.9609 25.304L40.7969 22.2869C40.8984 22.1761 41 22.0312 41 21.8778Z" fill="#828282"/>
</svg>
