<svg width="58" height="48" viewBox="0 0 58 48" fill="none" xmlns="http://www.w3.org/2000/svg">
<path fill-rule="evenodd" clip-rule="evenodd" d="M54 0.545455H4C2.067 0.545455 0.5 2.25491 0.5 4.36364V43.6364C0.5 45.7451 2.067 47.4545 4 47.4545H54C55.933 47.4545 57.5 45.7451 57.5 43.6364V4.36364C57.5 2.25491 55.933 0.545455 54 0.545455ZM4 0C1.79086 0 0 1.95367 0 4.36364V43.6364C0 46.0463 1.79086 48 4 48H54C56.2091 48 58 46.0463 58 43.6364V4.36364C58 1.95367 56.2091 0 54 0H4Z" fill="#828282"/>
<path d="M17.2058 26.9787C17.2537 28.2167 18.1765 29.6783 20.1726 29.6783C21.9978 29.6783 23.3513 28.2092 23.3513 26.2479C23.3513 24.2717 22.0457 22.8622 20.3162 22.8622C19.1541 22.8622 18.3406 23.5707 18.1355 23.9287H18.1218L18.5662 20.021H22.6814V19.2902H17.9373L17.3562 24.9727H18.0125C18.2791 24.3686 19.0242 23.5856 20.2341 23.5856C21.5876 23.5856 22.5925 24.6893 22.5925 26.2628C22.5925 27.8736 21.4578 28.9549 20.2273 28.9549C18.7712 28.9549 18.033 27.9482 17.9441 26.9787H17.2058Z" fill="#828282"/>
<path d="M41 21.8778C41 21.6221 40.75 21.5199 40.5625 21.4858L36.6406 20.8636L34.8828 16.9858C34.8125 16.8239 34.6797 16.6364 34.5 16.6364C34.3203 16.6364 34.1875 16.8239 34.1172 16.9858L32.3594 20.8636L28.4375 21.4858C28.2422 21.5199 28 21.6221 28 21.8778C28 22.0312 28.1016 22.1761 28.1953 22.2869L31.0391 25.304L30.3672 29.5653C30.3594 29.625 30.3516 29.6761 30.3516 29.7358C30.3516 29.9574 30.4531 30.1619 30.6797 30.1619C30.7891 30.1619 30.8906 30.1193 30.9922 30.0596L34.5 28.0483L38.0078 30.0596C38.1016 30.1193 38.2109 30.1619 38.3203 30.1619C38.5469 30.1619 38.6406 29.9574 38.6406 29.7358C38.6406 29.6761 38.6406 29.625 38.6328 29.5653L37.9609 25.304L40.7969 22.2869C40.8984 22.1761 41 22.0312 41 21.8778Z" fill="#828282"/>
</svg>
