<svg width="58" height="48" viewBox="0 0 58 48" fill="none" xmlns="http://www.w3.org/2000/svg">
<path d="M0 4.36364C0 1.95367 1.79086 0 4 0H54C56.2091 0 58 1.95367 58 4.36364V43.6364C58 46.0463 56.2091 48 54 48H4C1.79086 48 0 46.0463 0 43.6364V4.36364Z" fill="#F79221"/>
<path d="M16.946 26.7997C17.0212 28.3359 18.1355 29.6558 20.1658 29.6558C22.1619 29.6558 23.6589 28.2315 23.6589 26.0688C23.6589 24.0106 22.2302 22.6832 20.5759 22.6832C19.53 22.6832 18.7986 23.2052 18.573 23.5557H18.5251L18.7986 20.6697H22.9617V19.2677H17.5339L17.0623 25.2187H18.4021C18.6414 24.6519 19.2087 24.0181 20.2478 24.0181C21.2869 24.0181 22.1208 24.8384 22.1208 26.136C22.1208 27.5156 21.1296 28.2762 20.2341 28.2762C19.2429 28.2762 18.5251 27.7393 18.3953 26.7997H16.946Z" fill="white"/>
<path d="M41 21.8778C41 21.6221 40.75 21.5199 40.5625 21.4858L36.6406 20.8636L34.8828 16.9858C34.8125 16.8239 34.6797 16.6364 34.5 16.6364C34.3203 16.6364 34.1875 16.8239 34.1172 16.9858L32.3594 20.8636L28.4375 21.4858C28.2422 21.5199 28 21.6221 28 21.8778C28 22.0312 28.1016 22.1761 28.1953 22.2869L31.0391 25.304L30.3672 29.5653C30.3594 29.625 30.3516 29.6761 30.3516 29.7358C30.3516 29.9574 30.4531 30.1619 30.6797 30.1619C30.7891 30.1619 30.8906 30.1193 30.9922 30.0596L34.5 28.0483L38.0078 30.0596C38.1016 30.1193 38.2109 30.1619 38.3203 30.1619C38.5469 30.1619 38.6406 29.9574 38.6406 29.7358C38.6406 29.6761 38.6406 29.625 38.6328 29.5653L37.9609 25.304L40.7969 22.2869C40.8984 22.1761 41 22.0312 41 21.8778Z" fill="white"/>
</svg>
