<svg width="13" height="13" viewBox="0 0 13 13" fill="none" xmlns="http://www.w3.org/2000/svg">
<path d="M13 5.03781C13 4.79206 12.75 4.69376 12.5625 4.661L8.64062 4.06301L6.88281 0.335854C6.8125 0.180215 6.67969 0 6.5 0C6.32031 0 6.1875 0.180215 6.11719 0.335854L4.35938 4.06301L0.4375 4.661C0.242187 4.69376 0 4.79206 0 5.03781C0 5.18526 0.101562 5.32451 0.195312 5.431L3.03906 8.33081L2.36719 12.4266C2.35938 12.4839 2.35156 12.5331 2.35156 12.5904C2.35156 12.8034 2.45312 13 2.67969 13C2.78906 13 2.89062 12.959 2.99219 12.9017L6.5 10.9685L10.0078 12.9017C10.1016 12.959 10.2109 13 10.3203 13C10.5469 13 10.6406 12.8034 10.6406 12.5904C10.6406 12.5331 10.6406 12.4839 10.6328 12.4266L9.96094 8.33081L12.7969 5.431C12.8984 5.32451 13 5.18526 13 5.03781Z" fill="#F2C94C"/>
</svg>
