<svg width="51" height="13" viewBox="0 0 51 13" fill="none" xmlns="http://www.w3.org/2000/svg">
<path d="M13 5.03781C13 4.79206 12.75 4.69376 12.5625 4.661L8.64062 4.06301L6.88281 0.335854C6.8125 0.180215 6.67969 0 6.5 0C6.32031 0 6.1875 0.180215 6.11719 0.335854L4.35938 4.06301L0.4375 4.661C0.242187 4.69376 0 4.79206 0 5.03781C0 5.18526 0.101562 5.32451 0.195312 5.431L3.03906 8.33081L2.36719 12.4266C2.35938 12.4839 2.35156 12.5331 2.35156 12.5904C2.35156 12.8034 2.45312 13 2.67969 13C2.78906 13 2.89062 12.959 2.99219 12.9017L6.5 10.9685L10.0078 12.9017C10.1016 12.959 10.2109 13 10.3203 13C10.5469 13 10.6406 12.8034 10.6406 12.5904C10.6406 12.5331 10.6406 12.4839 10.6328 12.4266L9.96094 8.33081L12.7969 5.431C12.8984 5.32451 13 5.18526 13 5.03781Z" fill="#F2C94C"/>
<path d="M32 5.03781C32 4.79206 31.75 4.69376 31.5625 4.661L27.6406 4.06301L25.8828 0.335854C25.8125 0.180215 25.6797 0 25.5 0C25.3203 0 25.1875 0.180215 25.1172 0.335854L23.3594 4.06301L19.4375 4.661C19.2422 4.69376 19 4.79206 19 5.03781C19 5.18526 19.1016 5.32451 19.1953 5.431L22.0391 8.33081L21.3672 12.4266C21.3594 12.4839 21.3516 12.5331 21.3516 12.5904C21.3516 12.8034 21.4531 13 21.6797 13C21.7891 13 21.8906 12.959 21.9922 12.9017L25.5 10.9685L29.0078 12.9017C29.1016 12.959 29.2109 13 29.3203 13C29.5469 13 29.6406 12.8034 29.6406 12.5904C29.6406 12.5331 29.6406 12.4839 29.6328 12.4266L28.9609 8.33081L31.7969 5.431C31.8984 5.32451 32 5.18526 32 5.03781Z" fill="#F2C94C"/>
<path d="M51 5.03781C51 4.79206 50.75 4.69376 50.5625 4.661L46.6406 4.06301L44.8828 0.335854C44.8125 0.180215 44.6797 0 44.5 0C44.3203 0 44.1875 0.180215 44.1172 0.335854L42.3594 4.06301L38.4375 4.661C38.2422 4.69376 38 4.79206 38 5.03781C38 5.18526 38.1016 5.32451 38.1953 5.431L41.0391 8.33081L40.3672 12.4266C40.3594 12.4839 40.3516 12.5331 40.3516 12.5904C40.3516 12.8034 40.4531 13 40.6797 13C40.7891 13 40.8906 12.959 40.9922 12.9017L44.5 10.9685L48.0078 12.9017C48.1016 12.959 48.2109 13 48.3203 13C48.5469 13 48.6406 12.8034 48.6406 12.5904C48.6406 12.5331 48.6406 12.4839 48.6328 12.4266L47.9609 8.33081L50.7969 5.431C50.8984 5.32451 51 5.18526 51 5.03781Z" fill="#F2C94C"/>
</svg>
