<svg xmlns="http://www.w3.org/2000/svg" width="256" height="15" fill="none" viewBox="0 0 256 15">
    <path fill="#26BED6" d="M12 4.758a.727.727 0 0 0-.217-.516l-1.053-1.03a.76.76 0 0 0-1.053 0L4.6 8.19 2.323 5.955a.76.76 0 0 0-1.053 0L.217 6.985A.727.727 0 0 0 0 7.5c0 .19.077.379.217.515l2.802 2.743 1.053 1.03a.76.76 0 0 0 1.053 0l1.053-1.03 5.605-5.485A.727.727 0 0 0 12 4.758zM92 4.758a.727.727 0 0 0-.217-.516l-1.053-1.03a.76.76 0 0 0-1.053 0L84.6 8.19l-2.276-2.234a.76.76 0 0 0-1.053 0l-1.053 1.03A.726.726 0 0 0 80 7.5c0 .19.077.379.217.515l2.802 2.743 1.053 1.03a.76.76 0 0 0 1.053 0l1.053-1.03 5.605-5.485A.727.727 0 0 0 92 4.758z" opacity=".7"/>
    <circle cx="191.5" cy="7.5" r="7.5" fill="#26BED6"/>
    <path fill="#fff" d="M190.256 7.783h.789c.854 0 1.338.462 1.343 1.095.006.645-.489 1.128-1.332 1.128-.8 0-1.267-.456-1.327-1.047h-1.337c.027 1.176.865 2.186 2.627 2.186 1.557 0 2.835-.87 2.819-2.197-.016-1.176-.886-1.719-1.563-1.767v-.054c.559-.08 1.343-.655 1.327-1.691-.021-1.112-1.069-1.907-2.524-1.907-1.628 0-2.514.961-2.546 2.132h1.353c.032-.478.392-1.01 1.144-1.01.688 0 1.144.414 1.144.978.006.607-.467 1.037-1.165 1.037h-.752v1.117z"/>
    <path fill="#26BED6" d="M23.973 3.674h-.908l-3.357 3.674h-.027V3.674h-.752V11h.752V8.336l.924-.994L23.162 11h.966l-2.964-4.179 2.809-3.147zM24.845 11h.742V5.387h-.742V11zM24.7 4.001c0 .29.231.521.516.521a.521.521 0 0 0 .521-.52.52.52 0 0 0-.521-.516A.516.516 0 0 0 24.7 4zm4.423 7.09c1.225 0 1.945-.698 2.138-1.568h-.752c-.166.532-.612.93-1.364.93-.994 0-1.58-.774-1.58-1.95v-.135h3.777v-.467c0-1.58-.838-2.61-2.262-2.61-1.439 0-2.26 1.036-2.26 2.55v.64c0 1.59.864 2.61 2.303 2.61zm-1.557-3.367v-.016c0-1.021.59-1.773 1.514-1.773.914 0 1.515.752 1.515 1.773v.016h-3.03zm2.218-5.441a.977.977 0 0 1 .462-.118c.328 0 .57.204.57.467 0 .236-.14.387-.479.532l.263.376c.414-.172.72-.478.72-.914 0-.537-.403-.902-1.004-.902-.231 0-.44.048-.532.108v.45zm-2.079 2.32h.634l.73-1.101h.017l.73 1.101h.634L29.3 2.965h-.445l-1.15 1.638zM32.494 11h.74V7.412c0-.886.554-1.44 1.333-1.44.822 0 1.31.51 1.31 1.424V11h.736V7.401c0-.8.473-1.428 1.348-1.428.838 0 1.295.553 1.295 1.348V11h.741V7.176c0-1.176-.72-1.885-1.88-1.885-.95 0-1.53.483-1.724.96h-.032c-.21-.563-.736-.96-1.638-.96-.79 0-1.273.44-1.45.827h-.038v-.73h-.741V11zm11.112-5.613h-.79v.634h.79v3.48c0 1.07.253 1.553 1.504 1.553.194 0 .382-.022.468-.043v-.607c-.086.01-.178.016-.285.016-.715 0-.95-.177-.95-.865V6.021h1.186v-.634h-1.187V3.985h-.736v1.402zM46.633 11h.741V7.536c0-.87.365-1.547 1.375-1.547.172 0 .354.01.435.027v-.693a3.288 3.288 0 0 0-.349-.022c-.849 0-1.268.462-1.44.849h-.02v-.763h-.742V11zm6.475-.752h.021V11h.72V7.08c0-1.145-.833-1.79-2.004-1.79-1.289 0-1.95.677-2.02 1.639h.704c.076-.602.5-.994 1.29-.994.81 0 1.289.424 1.289 1.235v.634h-1.553c-1.278.006-1.95.629-1.95 1.595 0 1.026.747 1.692 1.832 1.692.892 0 1.418-.408 1.67-.843zm-1.499.204c-.66 0-1.235-.36-1.235-1.074 0-.564.36-.967 1.208-.967h1.526v.714c0 .785-.65 1.327-1.499 1.327z" opacity=".7"/>
    <path stroke="#26BED6" stroke-width=".5" d="M61 8h15M167 7.5h15" opacity=".7"/>
    <path fill="#26BED6" d="M102.105 11c2.165 0 3.228-1.29 3.228-3.663 0-2.38-1.074-3.663-3.228-3.663h-2.213v3.244h-.526v.66h.526V11h2.213zm-1.461-.688V7.58h2.09v-.661h-2.09V4.361h1.44c1.67 0 2.47 1.026 2.47 2.976s-.8 2.976-2.47 2.976h-1.44zm6.163.688h.742V5.387h-.742V11zm-.145-6.999c0 .29.231.521.516.521a.521.521 0 0 0 .521-.52.52.52 0 0 0-.521-.516.516.516 0 0 0-.516.515zm4.423 7.09c1.225 0 1.945-.698 2.138-1.568h-.752c-.166.532-.612.93-1.364.93-.994 0-1.579-.774-1.579-1.95v-.135h3.776v-.467c0-1.58-.838-2.61-2.262-2.61-1.439 0-2.261 1.036-2.261 2.55v.64c0 1.59.865 2.61 2.304 2.61zm-1.557-3.367v-.016c0-1.021.591-1.773 1.514-1.773.914 0 1.515.752 1.515 1.773v.016h-3.029zm3.77-4.335l-1.036-1.482h-.784l1.23 1.482h.59zm-3.631 1.214h.634l.731-1.101h.016l.73 1.101h.634l-1.149-1.638h-.446l-1.15 1.638zM114.456 11h.741V7.562c0-.821.462-1.59 1.515-1.59.891 0 1.455.56 1.455 1.52V11h.741V7.385c0-1.359-.854-2.094-2.008-2.094-.94 0-1.472.499-1.682.902h-.021v-.806h-.741V11zm8.008-5.613h-.79v.634h.79v3.48c0 1.07.252 1.553 1.504 1.553.193 0 .381-.022.467-.043v-.607c-.086.01-.177.016-.285.016-.714 0-.95-.177-.95-.865V6.021h1.187v-.634H123.2V3.985h-.736v1.402zM125.507 11h.741V7.562c0-.821.456-1.59 1.514-1.59.892 0 1.461.56 1.461 1.52V11h.736V7.385c0-1.359-.859-2.094-2.009-2.094-.94 0-1.477.499-1.681.902h-.021V3.282h-.741V11zm7.914-5.71c-1.504 0-2.364 1.085-2.364 2.606v.585c0 1.525.86 2.61 2.364 2.61s2.358-1.085 2.358-2.61v-.585c0-1.515-.86-2.605-2.358-2.605zm0 .656c1.01 0 1.616.746 1.616 1.992v.505c0 1.241-.606 1.988-1.616 1.988-1.015 0-1.622-.747-1.622-1.988v-.505c0-1.246.612-1.992 1.622-1.992zm-1.37-1.343h.634l.73-1.101h.017l.73 1.101h.634l-1.15-1.638h-.445l-1.15 1.638zM136.958 11h.741V7.562c0-.821.462-1.59 1.514-1.59.892 0 1.456.56 1.456 1.52V11h.741V7.385c0-1.359-.854-2.094-2.009-2.094-.94 0-1.471.499-1.681.902h-.021v-.806h-.741V11zm7.892 1.391c-.821 0-1.348-.446-1.445-.961h-.768c.119.929.865 1.6 2.208 1.6 1.278 0 2.315-.73 2.315-2.1V5.387h-.714v.849h-.022c-.252-.516-.897-.945-1.681-.945-1.316 0-2.24.934-2.24 2.535v.548c0 1.622.929 2.545 2.24 2.545.779 0 1.445-.435 1.66-.956h.021v.973c0 .907-.628 1.455-1.574 1.455zm0-6.445c.951 0 1.574.773 1.574 1.955v.413c0 1.193-.602 1.95-1.574 1.95-1.004 0-1.606-.746-1.606-1.955v-.408c0-1.23.597-1.955 1.606-1.955zm5.967-.559h-.789v.634h.789v3.48c0 1.07.253 1.553 1.504 1.553.194 0 .382-.022.468-.043v-.607c-.086.01-.178.016-.285.016-.714 0-.951-.177-.951-.865V6.021h1.187v-.634h-1.187V3.985h-.736v1.402zM153.892 11h.742V5.387h-.742V11zm-.145-6.999c0 .29.231.521.516.521a.521.521 0 0 0 .521-.52.52.52 0 0 0-.521-.516.516.516 0 0 0-.516.515zm2.35 6.999h.741V7.562c0-.821.462-1.59 1.515-1.59.892 0 1.455.56 1.455 1.52V11h.742V7.385c0-1.359-.854-2.094-2.009-2.094-.94 0-1.472.499-1.681.902h-.022v-.806h-.741V11z" opacity=".7"/>
    <path fill="#26BED6" d="M208.762 11V3.668h-1.455V6.65h-3.078V3.67h-1.45V11h1.45V7.858h3.078V11h1.455zm3.548-5.8c-1.681 0-2.611 1.154-2.611 2.728v.419c0 1.654.93 2.755 2.611 2.755s2.605-1.101 2.605-2.76v-.42c0-1.573-.929-2.723-2.605-2.723zm0 1.095c.816 0 1.176.698 1.176 1.627v.44c0 .903-.354 1.639-1.176 1.639-.827 0-1.182-.741-1.182-1.638v-.44c0-.924.365-1.628 1.182-1.628zm6.598 4.012h.059V11h1.338V7.149c0-1.327-.999-1.939-2.31-1.939-1.644 0-2.256.88-2.299 1.832h1.321c.038-.457.371-.763.951-.763.596 0 .94.317.94.886v.516h-1.391c-1.321 0-2.03.655-2.03 1.675 0 1.075.762 1.73 1.874 1.73.838 0 1.321-.36 1.547-.779zm-1.09-.252c-.473 0-.924-.258-.924-.79 0-.435.306-.736.929-.736h1.085v.602c0 .553-.483.924-1.09.924zm.768-5.436l-1.091-1.563h-1.246l1.343 1.563h.994zM221.344 11h1.407V7.66c0-.72.397-1.247 1.128-1.247.607 0 1.112.35 1.112 1.225V11h1.412V7.332c0-1.397-.811-2.122-1.971-2.122-.951 0-1.472.532-1.654.924h-.059V5.3h-1.375V11zm8.389-5.699h-.832v1.096h.805v2.992c0 1.165.468 1.643 1.886 1.643.284 0 .537-.027.644-.048V9.937a4.05 4.05 0 0 1-.301.01c-.585 0-.827-.172-.827-.74v-2.81h1.107V5.301h-1.107V3.937h-1.375v1.364zM233.147 11h1.412V7.66c0-.72.403-1.247 1.133-1.247.618 0 1.118.35 1.118 1.225V11h1.412V7.332c0-1.397-.822-2.122-1.971-2.122-.945 0-1.45.532-1.633.924h-.059V3.282h-1.412V11zm9.219-.693h.059V11h1.337V7.149c0-1.327-.999-1.939-2.309-1.939-1.644 0-2.256.88-2.299 1.832h1.321c.038-.457.371-.763.951-.763.596 0 .94.317.94.886v.516h-1.391c-1.321 0-2.03.655-2.03 1.675 0 1.075.762 1.73 1.874 1.73.838 0 1.321-.36 1.547-.779zm-1.09-.252c-.473 0-.924-.258-.924-.79 0-.435.306-.736.929-.736h1.085v.602c0 .553-.483.924-1.09.924zm.768-5.436l-1.091-1.563h-1.246l1.343 1.563h.994zM244.802 11h1.407V7.66c0-.72.397-1.247 1.128-1.247.607 0 1.112.35 1.112 1.225V11h1.412V7.332c0-1.397-.811-2.122-1.971-2.122-.951 0-1.472.532-1.654.924h-.059V5.3h-1.375V11zm6.104 0h1.412V7.66c0-.72.403-1.247 1.134-1.247.617 0 1.117.35 1.117 1.225V11h1.412V7.332c0-1.397-.821-2.122-1.971-2.122-.945 0-1.45.532-1.633.924h-.059V3.282h-1.412V11z"/>
</svg>
