<svg xmlns="http://www.w3.org/2000/svg" width="255" height="15" fill="none" viewBox="0 0 255 15">
    <circle cx="7.5" cy="7.5" r="7.5" fill="#26BED6"/>
    <path fill="#fff" d="M8.647 11V3.668H7.245c-.322.172-1.455.903-1.772 1.134v1.326c.295-.204 1.46-.961 1.686-1.085h.049V11h1.439z"/>
    <circle cx="86.5" cy="7.5" r="7.5" fill="#BDBDBD"/>
    <path fill="#fff" d="M85.88 5.854v-.08c0-.586.43-1.085 1.112-1.085.623 0 1.085.403 1.085 1.026 0 .553-.339.988-.817 1.493l-2.664 2.89V11h5.049V9.818h-3.072v-.043l1.654-1.858c.843-.902 1.29-1.482 1.29-2.336 0-1.198-.984-2.052-2.46-2.052-1.564 0-2.552 1.02-2.552 2.256v.07h1.375z"/>
    <circle cx="191.5" cy="7.5" r="7.5" fill="#BDBDBD"/>
    <path fill="#fff" d="M190.256 7.783h.789c.854 0 1.338.462 1.343 1.095.006.645-.489 1.128-1.332 1.128-.8 0-1.267-.456-1.327-1.047h-1.337c.027 1.176.865 2.186 2.627 2.186 1.557 0 2.835-.87 2.819-2.197-.016-1.176-.886-1.719-1.563-1.767v-.054c.559-.08 1.343-.655 1.327-1.691-.021-1.112-1.069-1.907-2.524-1.907-1.628 0-2.514.961-2.546 2.132h1.353c.032-.478.392-1.01 1.144-1.01.688 0 1.144.414 1.144.978.006.607-.467 1.037-1.165 1.037h-.752v1.117z"/>
    <path fill="#26BED6" d="M25.666 3.668H24.07L21.294 6.95h-.065V3.668h-1.45V11h1.45V8.647l.752-.854L24.033 11h1.745L23.05 6.827l2.616-3.159zM26.2 11h1.413V5.301H26.2V11zm-.097-7.111c0 .44.365.74.8.74.44 0 .8-.3.8-.74s-.36-.747-.8-.747c-.435 0-.8.306-.8.747zm5.014 7.213c1.525 0 2.267-.908 2.4-1.82h-1.31c-.118.461-.515.74-1.08.74-.719 0-1.208-.547-1.208-1.412v-.156h3.653v-.558c0-1.639-.962-2.697-2.514-2.697-1.499 0-2.524.989-2.524 2.659v.52c0 1.746 1.02 2.724 2.583 2.724zm-1.198-3.545v-.01c0-.731.457-1.295 1.15-1.295.687 0 1.133.559 1.133 1.294v.011h-2.283zm1.902-5.376c.091-.043.257-.092.435-.092.322 0 .531.183.531.425 0 .215-.14.354-.467.51l.382.483c.483-.21.832-.52.832-1.063 0-.58-.44-.978-1.144-.978-.252 0-.462.043-.57.097v.618zM29.35 4.619h1.074l.618-.934h.027l.612.934h1.074l-1.224-1.665h-.951L29.35 4.62zM34.423 11h1.407V7.541c0-.79.451-1.15 1.005-1.15.574 0 .998.339.998 1.16V11h1.365V7.552c0-.73.381-1.16 1.01-1.16.601 0 .993.38.993 1.106V11h1.413V7.106c0-1.139-.682-1.896-1.859-1.896-.956 0-1.547.494-1.735.978h-.059c-.193-.586-.72-.978-1.595-.978-.854 0-1.337.494-1.493.908h-.075V5.3h-1.375V11zM45.98 5.301h-.832v1.096h.806v2.992c0 1.165.467 1.643 1.885 1.643.284 0 .537-.027.644-.048V9.937a4.07 4.07 0 0 1-.3.01c-.586 0-.828-.172-.828-.74v-2.81h1.107V5.301h-1.107V3.937h-1.375v1.364zM49.378 11h1.445V7.75c0-.762.322-1.32 1.252-1.32.22 0 .445.015.558.048V5.253a2.396 2.396 0 0 0-.45-.038c-.78 0-1.204.505-1.333.87h-.059v-.784h-1.413V11zm6.926-.693h.06V11H57.7V7.149c0-1.327-1-1.939-2.31-1.939-1.643 0-2.256.88-2.298 1.832h1.32c.038-.457.371-.763.952-.763.596 0 .94.317.94.886v.516h-1.392c-1.321 0-2.03.655-2.03 1.675 0 1.075.763 1.73 1.874 1.73.838 0 1.322-.36 1.547-.779zm-1.09-.252c-.473 0-.924-.258-.924-.79 0-.435.306-.736.93-.736h1.084v.602c0 .553-.483.924-1.09.924z"/>
    <path stroke="#26BED6" stroke-width=".5" d="M62 8h15"/>
    <path stroke="#BDBDBD" stroke-width=".5" d="M167 7.5h15"/>
    <path fill="#BDBDBD" d="M103.105 11c2.165 0 3.228-1.29 3.228-3.663 0-2.38-1.074-3.663-3.228-3.663h-2.213v3.244h-.526v.66h.526V11h2.213zm-1.461-.688V7.58h2.09v-.661h-2.09V4.361h1.44c1.67 0 2.47 1.026 2.47 2.976s-.8 2.976-2.47 2.976h-1.44zm6.163.688h.742V5.387h-.742V11zm-.145-6.999c0 .29.231.521.516.521a.521.521 0 0 0 .521-.52.52.52 0 0 0-.521-.516.516.516 0 0 0-.516.515zm4.423 7.09c1.225 0 1.945-.698 2.138-1.568h-.752c-.166.532-.612.93-1.364.93-.994 0-1.579-.774-1.579-1.95v-.135h3.776v-.467c0-1.58-.838-2.61-2.262-2.61-1.439 0-2.261 1.036-2.261 2.55v.64c0 1.59.865 2.61 2.304 2.61zm-1.557-3.367v-.016c0-1.021.591-1.773 1.514-1.773.914 0 1.515.752 1.515 1.773v.016h-3.029zm3.77-4.335l-1.036-1.482h-.784l1.23 1.482h.59zm-3.631 1.214h.634l.731-1.101h.016l.73 1.101h.634l-1.149-1.638h-.446l-1.15 1.638zM115.456 11h.741V7.562c0-.821.462-1.59 1.515-1.59.891 0 1.455.56 1.455 1.52V11h.741V7.385c0-1.359-.854-2.094-2.008-2.094-.94 0-1.472.499-1.682.902h-.021v-.806h-.741V11zm8.008-5.613h-.79v.634h.79v3.48c0 1.07.252 1.553 1.504 1.553.193 0 .381-.022.467-.043v-.607c-.086.01-.177.016-.285.016-.714 0-.95-.177-.95-.865V6.021h1.187v-.634H124.2V3.985h-.736v1.402zM126.507 11h.741V7.562c0-.821.456-1.59 1.514-1.59.892 0 1.461.56 1.461 1.52V11h.736V7.385c0-1.359-.859-2.094-2.009-2.094-.94 0-1.477.499-1.681.902h-.021V3.282h-.741V11zm7.914-5.71c-1.504 0-2.364 1.085-2.364 2.606v.585c0 1.525.86 2.61 2.364 2.61s2.358-1.085 2.358-2.61v-.585c0-1.515-.86-2.605-2.358-2.605zm0 .656c1.01 0 1.616.746 1.616 1.992v.505c0 1.241-.606 1.988-1.616 1.988-1.015 0-1.622-.747-1.622-1.988v-.505c0-1.246.612-1.992 1.622-1.992zm-1.37-1.343h.634l.73-1.101h.017l.73 1.101h.634l-1.15-1.638h-.445l-1.15 1.638zM137.958 11h.741V7.562c0-.821.462-1.59 1.514-1.59.892 0 1.456.56 1.456 1.52V11h.741V7.385c0-1.359-.854-2.094-2.009-2.094-.94 0-1.471.499-1.681.902h-.021v-.806h-.741V11zm7.892 1.391c-.821 0-1.348-.446-1.445-.961h-.768c.119.929.865 1.6 2.208 1.6 1.278 0 2.315-.73 2.315-2.1V5.387h-.714v.849h-.022c-.252-.516-.897-.945-1.681-.945-1.316 0-2.24.934-2.24 2.535v.548c0 1.622.929 2.545 2.24 2.545.779 0 1.445-.435 1.66-.956h.021v.973c0 .907-.628 1.455-1.574 1.455zm0-6.445c.951 0 1.574.773 1.574 1.955v.413c0 1.193-.602 1.95-1.574 1.95-1.004 0-1.606-.746-1.606-1.955v-.408c0-1.23.597-1.955 1.606-1.955zm5.967-.559h-.789v.634h.789v3.48c0 1.07.253 1.553 1.504 1.553.194 0 .382-.022.468-.043v-.607c-.086.01-.178.016-.285.016-.714 0-.951-.177-.951-.865V6.021h1.187v-.634h-1.187V3.985h-.736v1.402zM154.892 11h.742V5.387h-.742V11zm-.145-6.999c0 .29.231.521.516.521a.521.521 0 0 0 .521-.52.52.52 0 0 0-.521-.516.516.516 0 0 0-.516.515zm2.35 6.999h.741V7.562c0-.821.462-1.59 1.515-1.59.892 0 1.455.56 1.455 1.52V11h.742V7.385c0-1.359-.854-2.094-2.009-2.094-.94 0-1.472.499-1.681.902h-.022v-.806h-.741V11zM209.333 11V3.674h-.752v3.174h-3.9V3.674h-.752V11h.752V7.53h3.9V11h.752zm3.606-5.71c-1.504 0-2.363 1.085-2.363 2.606v.585c0 1.525.859 2.61 2.363 2.61s2.358-1.085 2.358-2.61v-.585c0-1.515-.859-2.605-2.358-2.605zm0 .656c1.01 0 1.617.746 1.617 1.992v.505c0 1.241-.607 1.988-1.617 1.988-1.015 0-1.622-.747-1.622-1.988v-.505c0-1.246.612-1.992 1.622-1.992zm6.706 4.302h.021V11h.72V7.08c0-1.145-.832-1.79-2.003-1.79-1.289 0-1.95.677-2.02 1.639h.704c.075-.602.499-.994 1.289-.994.811 0 1.289.424 1.289 1.235v.634h-1.552c-1.279.006-1.95.629-1.95 1.595 0 1.026.746 1.692 1.831 1.692.892 0 1.418-.408 1.671-.843zm-1.499.204c-.66 0-1.235-.36-1.235-1.074 0-.564.36-.967 1.208-.967h1.526v.714c0 .785-.65 1.327-1.499 1.327zm.618-5.849l-1.037-1.482h-.784l1.23 1.482h.591zM221.748 11h.741V7.562c0-.821.462-1.59 1.514-1.59.892 0 1.456.56 1.456 1.52V11h.741V7.385c0-1.359-.854-2.094-2.009-2.094-.94 0-1.471.499-1.681.902h-.021v-.806h-.741V11zm8.008-5.613h-.79v.634h.79v3.48c0 1.07.252 1.553 1.504 1.553.193 0 .381-.022.467-.043v-.607c-.086.01-.177.016-.285.016-.714 0-.95-.177-.95-.865V6.021h1.187v-.634h-1.187V3.985h-.736v1.402zM232.798 11h.742V7.562c0-.821.456-1.59 1.514-1.59.892 0 1.461.56 1.461 1.52V11h.736V7.385c0-1.359-.859-2.094-2.009-2.094-.94 0-1.477.499-1.681.902h-.021V3.282h-.742V11zm8.951-.752h.022V11h.719V7.08c0-1.145-.832-1.79-2.003-1.79-1.289 0-1.95.677-2.02 1.639h.704c.075-.602.5-.994 1.289-.994.811 0 1.289.424 1.289 1.235v.634h-1.552c-1.278.006-1.95.629-1.95 1.595 0 1.026.747 1.692 1.832 1.692.891 0 1.418-.408 1.67-.843zm-1.498.204c-.661 0-1.236-.36-1.236-1.074 0-.564.36-.967 1.209-.967h1.525v.714c0 .785-.65 1.327-1.498 1.327zm.617-5.849l-1.036-1.482h-.784l1.23 1.482h.59zM243.852 11h.741V7.562c0-.821.462-1.59 1.515-1.59.891 0 1.455.56 1.455 1.52V11h.742V7.385c0-1.359-.854-2.094-2.009-2.094-.94 0-1.472.499-1.681.902h-.022v-.806h-.741V11zm5.793 0h.741V7.562c0-.821.456-1.59 1.514-1.59.892 0 1.461.56 1.461 1.52V11h.736V7.385c0-1.359-.859-2.094-2.009-2.094-.94 0-1.477.499-1.681.902h-.021V3.282h-.741V11z"/>
</svg>
