<svg xmlns="http://www.w3.org/2000/svg" width="254" height="15" fill="none" viewBox="0 0 254 15">
    <path fill="#26BED6" d="M12.11 4.813a.757.757 0 0 0-.22-.532L10.829 3.22a.757.757 0 0 0-1.062 0L4.64 8.352 2.344 6.047a.758.758 0 0 0-1.063 0L.22 7.109a.758.758 0 0 0 0 1.063L3.047 11l1.062 1.063a.758.758 0 0 0 1.063 0L6.234 11l5.657-5.656a.757.757 0 0 0 .218-.532z" opacity=".7"/>
    <circle cx="86.5" cy="7.5" r="7.5" fill="#26BED6"/>
    <path fill="#fff" d="M85.88 5.854v-.08c0-.586.43-1.085 1.112-1.085.623 0 1.085.403 1.085 1.026 0 .553-.339.988-.817 1.493l-2.664 2.89V11h5.049V9.818h-3.072v-.043l1.654-1.858c.843-.902 1.29-1.482 1.29-2.336 0-1.198-.984-2.052-2.46-2.052-1.564 0-2.552 1.02-2.552 2.256v.07h1.375z"/>
    <circle cx="191.5" cy="7.5" r="7.5" fill="#BDBDBD"/>
    <path fill="#fff" d="M190.256 7.783h.789c.854 0 1.338.462 1.343 1.095.006.645-.489 1.128-1.332 1.128-.8 0-1.267-.456-1.327-1.047h-1.337c.027 1.176.865 2.186 2.627 2.186 1.557 0 2.835-.87 2.819-2.197-.016-1.176-.886-1.719-1.563-1.767v-.054c.559-.08 1.343-.655 1.327-1.691-.021-1.112-1.069-1.907-2.524-1.907-1.628 0-2.514.961-2.546 2.132h1.353c.032-.478.392-1.01 1.144-1.01.688 0 1.144.414 1.144.978.006.607-.467 1.037-1.165 1.037h-.752v1.117z"/>
    <path fill="#26BED6" d="M23.973 3.674h-.908l-3.357 3.674h-.027V3.674h-.752V11h.752V8.336l.924-.994L23.162 11h.966l-2.964-4.179 2.809-3.147zM24.845 11h.742V5.387h-.742V11zM24.7 4.001c0 .29.231.521.516.521a.521.521 0 0 0 .521-.52.52.52 0 0 0-.521-.516A.516.516 0 0 0 24.7 4zm4.423 7.09c1.225 0 1.945-.698 2.138-1.568h-.752c-.166.532-.612.93-1.364.93-.994 0-1.58-.774-1.58-1.95v-.135h3.777v-.467c0-1.58-.838-2.61-2.262-2.61-1.439 0-2.26 1.036-2.26 2.55v.64c0 1.59.864 2.61 2.303 2.61zm-1.557-3.367v-.016c0-1.021.59-1.773 1.514-1.773.914 0 1.515.752 1.515 1.773v.016h-3.03zm2.218-5.441a.977.977 0 0 1 .462-.118c.328 0 .57.204.57.467 0 .236-.14.387-.479.532l.263.376c.414-.172.72-.478.72-.914 0-.537-.403-.902-1.004-.902-.231 0-.44.048-.532.108v.45zm-2.079 2.32h.634l.73-1.101h.017l.73 1.101h.634L29.3 2.965h-.445l-1.15 1.638zM32.494 11h.74V7.412c0-.886.554-1.44 1.333-1.44.822 0 1.31.51 1.31 1.424V11h.736V7.401c0-.8.473-1.428 1.348-1.428.838 0 1.295.553 1.295 1.348V11h.741V7.176c0-1.176-.72-1.885-1.88-1.885-.95 0-1.53.483-1.724.96h-.032c-.21-.563-.736-.96-1.638-.96-.79 0-1.273.44-1.45.827h-.038v-.73h-.741V11zm11.112-5.613h-.79v.634h.79v3.48c0 1.07.253 1.553 1.504 1.553.194 0 .382-.022.468-.043v-.607c-.086.01-.178.016-.285.016-.715 0-.95-.177-.95-.865V6.021h1.186v-.634h-1.187V3.985h-.736v1.402zM46.633 11h.741V7.536c0-.87.365-1.547 1.375-1.547.172 0 .354.01.435.027v-.693a3.288 3.288 0 0 0-.349-.022c-.849 0-1.268.462-1.44.849h-.02v-.763h-.742V11zm6.475-.752h.021V11h.72V7.08c0-1.145-.833-1.79-2.004-1.79-1.289 0-1.95.677-2.02 1.639h.704c.076-.602.5-.994 1.29-.994.81 0 1.289.424 1.289 1.235v.634h-1.553c-1.278.006-1.95.629-1.95 1.595 0 1.026.747 1.692 1.832 1.692.892 0 1.418-.408 1.67-.843zm-1.499.204c-.66 0-1.235-.36-1.235-1.074 0-.564.36-.967 1.208-.967h1.526v.714c0 .785-.65 1.327-1.499 1.327z" opacity=".7"/>
    <path stroke="#26BED6" stroke-width=".5" d="M61 8h15" opacity=".7"/>
    <path stroke="#BDBDBD" stroke-width=".5" d="M167 7.5h15"/>
    <path fill="#26BED6" d="M102.551 11c2.213 0 3.276-1.354 3.276-3.685 0-2.32-1.047-3.647-3.276-3.647h-2.68V6.65h-.65v1.257h.65V11h2.68zm-1.23-1.214v-1.88h1.558V6.65h-1.558V4.83h1.026c1.45 0 1.982.972 1.982 2.486 0 1.853-.763 2.471-1.982 2.471h-1.026zM106.904 11h1.413V5.301h-1.413V11zm-.097-7.111c0 .44.366.74.801.74.44 0 .8-.3.8-.74s-.36-.747-.8-.747c-.435 0-.801.306-.801.747zm5.014 7.213c1.526 0 2.267-.908 2.401-1.82h-1.31c-.119.461-.516.74-1.08.74-.72 0-1.208-.547-1.208-1.412v-.156h3.652v-.558c0-1.639-.962-2.697-2.514-2.697-1.498 0-2.524.989-2.524 2.659v.52c0 1.746 1.02 2.724 2.583 2.724zm-1.197-3.545v-.01c0-.731.456-1.295 1.149-1.295.687 0 1.133.559 1.133 1.294v.011h-2.282zm3.926-4.136l-1.091-1.563h-1.24l1.337 1.563h.994zm-4.496 1.198h1.074l.618-.934h.027l.612.934h1.074l-1.224-1.665h-.951l-1.23 1.665zM115.127 11h1.407V7.66c0-.72.398-1.247 1.128-1.247.607 0 1.112.35 1.112 1.225V11h1.413V7.332c0-1.397-.811-2.122-1.971-2.122-.951 0-1.472.532-1.655.924h-.059V5.3h-1.375V11zm8.39-5.699h-.833v1.096h.806v2.992c0 1.165.467 1.643 1.885 1.643.285 0 .537-.027.645-.048V9.937c-.065.005-.183.01-.301.01-.586 0-.827-.172-.827-.74v-2.81h1.106V5.301h-1.106V3.937h-1.375v1.364zM126.93 11h1.412V7.66c0-.72.403-1.247 1.134-1.247.617 0 1.117.35 1.117 1.225V11h1.413V7.332c0-1.397-.822-2.122-1.972-2.122-.945 0-1.45.532-1.632.924h-.06V3.282h-1.412V11zm8.473-5.8c-1.681 0-2.611 1.154-2.611 2.728v.419c0 1.654.93 2.755 2.611 2.755s2.605-1.101 2.605-2.76v-.42c0-1.573-.93-2.723-2.605-2.723zm0 1.095c.816 0 1.176.698 1.176 1.627v.44c0 .903-.355 1.639-1.176 1.639-.827 0-1.182-.741-1.182-1.638v-.44c0-.924.365-1.628 1.182-1.628zm-1.698-1.676h1.075l.617-.934h.027l.612.934h1.075l-1.225-1.665h-.951l-1.23 1.665zm5.17 6.381h1.407V7.66c0-.72.398-1.247 1.128-1.247.607 0 1.112.35 1.112 1.225V11h1.413V7.332c0-1.397-.811-2.122-1.972-2.122-.95 0-1.471.532-1.654.924h-.059V5.3h-1.375V11zm8.5 1.047c-.623 0-1.042-.29-1.134-.693h-1.369c.08.951.843 1.73 2.481 1.73 1.289 0 2.648-.596 2.648-2.154V5.301h-1.396v.838h-.059c-.231-.52-.838-.913-1.622-.913-1.3 0-2.176.935-2.176 2.664v.355c0 1.75.881 2.68 2.176 2.68.794 0 1.391-.398 1.606-.897h.059v.81c0 .769-.457 1.21-1.214 1.21zm.032-5.693c.709 0 1.182.58 1.182 1.584v.333c0 1.016-.452 1.59-1.182 1.59-.752 0-1.209-.569-1.209-1.59v-.333c0-1.025.457-1.584 1.209-1.584zm5.999-1.053h-.832v1.096h.805v2.992c0 1.165.468 1.643 1.886 1.643.284 0 .537-.027.644-.048V9.937a4.05 4.05 0 0 1-.301.01c-.585 0-.827-.172-.827-.74v-2.81h1.107V5.301h-1.107V3.937h-1.375v1.364zM156.857 11h1.413V5.301h-1.413V11zm-.097-7.111c0 .44.366.74.801.74.44 0 .8-.3.8-.74s-.36-.747-.8-.747c-.435 0-.801.306-.801.747zM159.422 11h1.407V7.66c0-.72.397-1.247 1.128-1.247.607 0 1.112.35 1.112 1.225V11h1.412V7.332c0-1.397-.811-2.122-1.971-2.122-.951 0-1.472.532-1.654.924h-.059V5.3h-1.375V11z"/>
    <path fill="#BDBDBD" d="M208.333 11V3.674h-.752v3.174h-3.9V3.674h-.752V11h.752V7.53h3.9V11h.752zm3.606-5.71c-1.504 0-2.363 1.085-2.363 2.606v.585c0 1.525.859 2.61 2.363 2.61s2.358-1.085 2.358-2.61v-.585c0-1.515-.859-2.605-2.358-2.605zm0 .656c1.01 0 1.617.746 1.617 1.992v.505c0 1.241-.607 1.988-1.617 1.988-1.015 0-1.622-.747-1.622-1.988v-.505c0-1.246.612-1.992 1.622-1.992zm6.706 4.302h.021V11h.72V7.08c0-1.145-.832-1.79-2.003-1.79-1.289 0-1.95.677-2.02 1.639h.704c.075-.602.499-.994 1.289-.994.811 0 1.289.424 1.289 1.235v.634h-1.552c-1.279.006-1.95.629-1.95 1.595 0 1.026.746 1.692 1.831 1.692.892 0 1.418-.408 1.671-.843zm-1.499.204c-.66 0-1.235-.36-1.235-1.074 0-.564.36-.967 1.208-.967h1.526v.714c0 .785-.65 1.327-1.499 1.327zm.618-5.849l-1.037-1.482h-.784l1.23 1.482h.591zM220.748 11h.741V7.562c0-.821.462-1.59 1.514-1.59.892 0 1.456.56 1.456 1.52V11h.741V7.385c0-1.359-.854-2.094-2.009-2.094-.94 0-1.471.499-1.681.902h-.021v-.806h-.741V11zm8.008-5.613h-.79v.634h.79v3.48c0 1.07.252 1.553 1.504 1.553.193 0 .381-.022.467-.043v-.607c-.086.01-.177.016-.285.016-.714 0-.95-.177-.95-.865V6.021h1.187v-.634h-1.187V3.985h-.736v1.402zM231.798 11h.742V7.562c0-.821.456-1.59 1.514-1.59.892 0 1.461.56 1.461 1.52V11h.736V7.385c0-1.359-.859-2.094-2.009-2.094-.94 0-1.477.499-1.681.902h-.021V3.282h-.742V11zm8.951-.752h.022V11h.719V7.08c0-1.145-.832-1.79-2.003-1.79-1.289 0-1.95.677-2.02 1.639h.704c.075-.602.5-.994 1.289-.994.811 0 1.289.424 1.289 1.235v.634h-1.552c-1.278.006-1.95.629-1.95 1.595 0 1.026.747 1.692 1.832 1.692.891 0 1.418-.408 1.67-.843zm-1.498.204c-.661 0-1.236-.36-1.236-1.074 0-.564.36-.967 1.209-.967h1.525v.714c0 .785-.65 1.327-1.498 1.327zm.617-5.849l-1.036-1.482h-.784l1.23 1.482h.59zM242.852 11h.741V7.562c0-.821.462-1.59 1.515-1.59.891 0 1.455.56 1.455 1.52V11h.742V7.385c0-1.359-.854-2.094-2.009-2.094-.94 0-1.472.499-1.681.902h-.022v-.806h-.741V11zm5.793 0h.741V7.562c0-.821.456-1.59 1.514-1.59.892 0 1.461.56 1.461 1.52V11h.736V7.385c0-1.359-.859-2.094-2.009-2.094-.94 0-1.477.499-1.681.902h-.021V3.282h-.741V11z"/>
</svg>
