<svg xmlns="http://www.w3.org/2000/svg" width="285" height="15" fill="none" viewBox="0 0 285 15">
    <path fill="#26BED6" d="M12 4.758c0-.19-.077-.38-.217-.516l-1.053-1.03c-.139-.136-.333-.212-.526-.212-.194 0-.387.076-.527.212L4.6 8.19 2.323 5.955c-.14-.137-.333-.213-.527-.213-.193 0-.387.076-.526.213L.217 6.985C.077 7.12 0 7.31 0 7.5c0 .19.077.379.217.515l2.802 2.743 1.053 1.03c.14.136.333.212.527.212.193 0 .387-.076.526-.212l1.053-1.03 5.605-5.485c.14-.137.217-.326.217-.515z" opacity=".7"/>
    <circle cx="131.5" cy="7.5" r="7.5" fill="#26BED6"/>
    <path fill="#fff" d="M130.88 5.854v-.08c0-.586.43-1.085 1.112-1.085.623 0 1.085.403 1.085 1.026 0 .553-.339.988-.817 1.493l-2.664 2.89V11h5.049V9.818h-3.072v-.043l1.654-1.858c.843-.902 1.289-1.482 1.289-2.336 0-1.198-.983-2.052-2.46-2.052-1.563 0-2.551 1.02-2.551 2.256v.07h1.375z"/>
    <circle cx="222.5" cy="7.5" r="7.5" fill="#BDBDBD"/>
    <path fill="#fff" d="M221.256 7.783h.789c.854 0 1.338.462 1.343 1.095.006.645-.489 1.128-1.332 1.128-.8 0-1.267-.456-1.327-1.047h-1.337c.027 1.176.865 2.186 2.627 2.186 1.557 0 2.835-.87 2.819-2.197-.016-1.176-.886-1.719-1.563-1.767v-.054c.559-.08 1.343-.655 1.327-1.691-.021-1.112-1.069-1.907-2.524-1.907-1.628 0-2.514.961-2.546 2.132h1.353c.032-.478.392-1.01 1.144-1.01.688 0 1.144.414 1.144.978.006.607-.467 1.037-1.165 1.037h-.752v1.117z"/>
    <path stroke="#26BED6" stroke-width=".5" d="M107 7.5h15" opacity=".7"/>
    <path stroke="#BDBDBD" stroke-width=".5" d="M198 7.5h15"/>
    <path fill="#26BED6" d="M20.174 11V4.356h2.288v-.682H17.15v.682h2.283V11h.741zm3.005 0h.742V7.562c0-.821.456-1.59 1.514-1.59.892 0 1.461.56 1.461 1.52V11h.736V7.385c0-1.359-.86-2.094-2.009-2.094-.94 0-1.477.499-1.68.902h-.022V3.282h-.742V11zm7.915-5.71c-1.504 0-2.364 1.085-2.364 2.606v.585c0 1.525.86 2.61 2.364 2.61 1.503 0 2.358-1.085 2.358-2.61v-.585c0-1.515-.86-2.605-2.358-2.605zm0 .656c1.01 0 1.616.746 1.616 1.992v.505c0 1.241-.607 1.988-1.616 1.988-1.016 0-1.623-.747-1.623-1.988v-.505c0-1.246.613-1.992 1.623-1.992zm-1.37-1.343h.634l.73-1.101h.016l.73 1.101h.635l-1.15-1.638h-.446l-1.149 1.638zM34.63 11h.742V7.562c0-.821.462-1.59 1.514-1.59.892 0 1.456.56 1.456 1.52V11h.741V7.385c0-1.359-.854-2.094-2.009-2.094-.94 0-1.471.499-1.68.902h-.022v-.806h-.742V11zm7.893 1.391c-.822 0-1.348-.446-1.445-.961h-.768c.118.929.865 1.6 2.208 1.6 1.278 0 2.315-.73 2.315-2.1V5.387h-.715v.849h-.021c-.253-.516-.897-.945-1.681-.945-1.316 0-2.24.934-2.24 2.535v.548c0 1.622.93 2.545 2.24 2.545.779 0 1.445-.435 1.66-.956h.02v.973c0 .907-.628 1.455-1.573 1.455zm0-6.445c.95 0 1.574.773 1.574 1.955v.413c0 1.193-.602 1.95-1.574 1.95-1.004 0-1.606-.746-1.606-1.955v-.408c0-1.23.596-1.955 1.606-1.955zm5.967-.559h-.79v.634h.79v3.48c0 1.07.253 1.553 1.504 1.553.194 0 .382-.022.468-.043v-.607c-.087.01-.178.016-.285.016-.715 0-.95-.177-.95-.865V6.021h1.186v-.634h-1.187V3.985h-.736v1.402zM51.565 11h.741V5.387h-.74V11zm-.145-6.999c0 .29.231.521.516.521.284 0 .52-.23.52-.52 0-.285-.236-.516-.52-.516-.285 0-.516.23-.516.515zM53.77 11h.741V7.562c0-.821.462-1.59 1.515-1.59.891 0 1.455.56 1.455 1.52V11h.741V7.385c0-1.359-.854-2.094-2.008-2.094-.94 0-1.472.499-1.681.902h-.022v-.806h-.741V11zm9.802 1.391c-.822 0-1.348-.446-1.445-.961h-.768c.118.929.865 1.6 2.208 1.6 1.278 0 2.315-.73 2.315-2.1V5.387h-.715v.849h-.021c-.253-.516-.897-.945-1.681-.945-1.316 0-2.24.934-2.24 2.535v.548c0 1.622.929 2.545 2.24 2.545.778 0 1.444-.435 1.66-.956h.02v.973c0 .907-.628 1.455-1.573 1.455zm0-6.445c.95 0 1.574.773 1.574 1.955v.413c0 1.193-.602 1.95-1.574 1.95-1.004 0-1.606-.746-1.606-1.955v-.408c0-1.23.596-1.955 1.606-1.955zM67.356 11h.741V5.387h-.741V11zm-.145-6.999c0 .29.23.521.516.521.284 0 .52-.23.52-.52 0-.285-.236-.516-.52-.516-.285 0-.516.23-.516.515zm5.519 6.247h.021V11h.72V7.08c0-1.145-.833-1.79-2.004-1.79-1.289 0-1.95.677-2.02 1.639h.704c.076-.602.5-.994 1.29-.994.81 0 1.288.424 1.288 1.235v.634h-1.552c-1.278.006-1.95.629-1.95 1.595 0 1.026.747 1.692 1.832 1.692.892 0 1.418-.408 1.67-.843zm-1.499.204c-.66 0-1.235-.36-1.235-1.074 0-.564.36-.967 1.208-.967h1.526v.714c0 .785-.65 1.327-1.499 1.327zm5.734-5.161c-1.504 0-2.364 1.084-2.364 2.605v.585c0 1.525.86 2.61 2.364 2.61s2.358-1.085 2.358-2.61v-.585c0-1.515-.86-2.605-2.358-2.605zm0 .655c1.01 0 1.616.746 1.616 1.992v.505c0 1.241-.607 1.988-1.616 1.988-1.016 0-1.623-.747-1.623-1.988v-.505c0-1.246.613-1.992 1.623-1.992zM82.427 11h.741V7.562c0-.821.457-1.59 1.515-1.59.891 0 1.46.56 1.46 1.52V11h.736V7.385c0-1.359-.859-2.094-2.008-2.094-.94 0-1.477.499-1.681.902h-.022V3.282h-.741V11zm8.95-.752h.022V11h.72V7.08c0-1.145-.833-1.79-2.004-1.79-1.289 0-1.95.677-2.02 1.639h.705c.075-.602.5-.994 1.289-.994.81 0 1.289.424 1.289 1.235v.634h-1.553c-1.278.006-1.95.629-1.95 1.595 0 1.026.747 1.692 1.832 1.692.892 0 1.418-.408 1.67-.843zm-1.498.204c-.66 0-1.235-.36-1.235-1.074 0-.564.36-.967 1.208-.967h1.526v.714c0 .785-.65 1.327-1.499 1.327zm.618-5.849L89.46 3.121h-.784l1.23 1.482h.59zM93.48 11h.742V7.562c0-.821.462-1.59 1.514-1.59.892 0 1.456.56 1.456 1.52V11h.741V7.385c0-1.359-.854-2.094-2.009-2.094-.94 0-1.471.499-1.68.902h-.022v-.806h-.742V11zm7.893 1.391c-.822 0-1.348-.446-1.445-.961h-.768c.118.929.865 1.6 2.208 1.6 1.278 0 2.315-.73 2.315-2.1V5.387h-.715v.849h-.021c-.253-.516-.897-.945-1.681-.945-1.316 0-2.24.934-2.24 2.535v.548c0 1.622.93 2.545 2.24 2.545.779 0 1.445-.435 1.659-.956h.022v.973c0 .907-.629 1.455-1.574 1.455zm0-6.445c.951 0 1.574.773 1.574 1.955v.413c0 1.193-.602 1.95-1.574 1.95-1.004 0-1.606-.746-1.606-1.955v-.408c0-1.23.596-1.955 1.606-1.955z" opacity=".7"/>
    <path fill="#26BED6" d="M146.615 11V4.882h2.084V3.668h-5.618v1.214h2.084V11h1.45zm2.57 0h1.412V7.66c0-.72.403-1.247 1.134-1.247.617 0 1.117.35 1.117 1.225V11h1.412V7.332c0-1.397-.821-2.122-1.971-2.122-.945 0-1.45.532-1.633.924h-.059V3.282h-1.412V11zm9.219-.693h.059V11h1.338V7.149c0-1.327-.999-1.939-2.31-1.939-1.643 0-2.256.88-2.299 1.832h1.322c.037-.457.37-.763.95-.763.596 0 .94.317.94.886v.516h-1.391c-1.321 0-2.03.655-2.03 1.675 0 1.075.762 1.73 1.874 1.73.838 0 1.322-.36 1.547-.779zm-1.09-.252c-.473 0-.924-.258-.924-.79 0-.435.306-.736.929-.736h1.085v.602c0 .553-.483.924-1.09.924zm3.526.945h1.407V7.66c0-.72.398-1.247 1.128-1.247.607 0 1.112.35 1.112 1.225V11h1.412V7.332c0-1.397-.811-2.122-1.971-2.122-.95 0-1.471.532-1.654.924h-.059V5.3h-1.375V11zm6.104 0h1.413V7.66c0-.72.402-1.247 1.133-1.247.618 0 1.117.35 1.117 1.225V11h1.413V7.332c0-1.397-.822-2.122-1.971-2.122-.946 0-1.451.532-1.633.924h-.059V3.282h-1.413V11zm8.395-5.699h-.833v1.096h.806v2.992c0 1.165.467 1.643 1.885 1.643.285 0 .537-.027.645-.048V9.937c-.065.005-.183.01-.301.01-.585 0-.827-.172-.827-.74v-2.81h1.106V5.301h-1.106V3.937h-1.375v1.364zm5.69-.102c-1.681 0-2.61 1.155-2.61 2.729v.419c0 1.654.929 2.755 2.61 2.755 1.682 0 2.605-1.101 2.605-2.76v-.42c0-1.573-.929-2.723-2.605-2.723zm0 1.096c.817 0 1.177.698 1.177 1.627v.44c0 .903-.355 1.639-1.177 1.639-.827 0-1.181-.741-1.181-1.638v-.44c0-.924.365-1.628 1.181-1.628zm6.599 4.012h.059V11h1.337V7.149c0-1.327-.999-1.939-2.309-1.939-1.644 0-2.256.88-2.299 1.832h1.321c.038-.457.371-.763.951-.763.596 0 .94.317.94.886v.516h-1.391c-1.322 0-2.031.655-2.031 1.675 0 1.075.763 1.73 1.875 1.73.838 0 1.321-.36 1.547-.779zm-1.091-.252c-.472 0-.923-.258-.923-.79 0-.435.306-.736.929-.736h1.085v.602c0 .553-.484.924-1.091.924zm.634-5.436l1.343-1.563h-1.246l-1.09 1.563h.993zM190.064 11h1.407V7.66c0-.72.397-1.247 1.128-1.247.607 0 1.111.35 1.111 1.225V11h1.413V7.332c0-1.397-.811-2.122-1.971-2.122-.951 0-1.472.532-1.654.924h-.059V5.3h-1.375V11z"/>
    <path fill="#BDBDBD" d="M239.333 11V3.674h-.752v3.174h-3.9V3.674h-.752V11h.752V7.53h3.9V11h.752zm3.606-5.71c-1.504 0-2.363 1.085-2.363 2.606v.585c0 1.525.859 2.61 2.363 2.61s2.358-1.085 2.358-2.61v-.585c0-1.515-.859-2.605-2.358-2.605zm0 .656c1.01 0 1.617.746 1.617 1.992v.505c0 1.241-.607 1.988-1.617 1.988-1.015 0-1.622-.747-1.622-1.988v-.505c0-1.246.612-1.992 1.622-1.992zm6.706 4.302h.021V11h.72V7.08c0-1.145-.832-1.79-2.003-1.79-1.289 0-1.95.677-2.02 1.639h.704c.075-.602.499-.994 1.289-.994.811 0 1.289.424 1.289 1.235v.634h-1.552c-1.279.006-1.95.629-1.95 1.595 0 1.026.746 1.692 1.831 1.692.892 0 1.418-.408 1.671-.843zm-1.499.204c-.66 0-1.235-.36-1.235-1.074 0-.564.36-.967 1.208-.967h1.526v.714c0 .785-.65 1.327-1.499 1.327zm.618-5.849l-1.037-1.482h-.784l1.23 1.482h.591zM251.748 11h.741V7.562c0-.821.462-1.59 1.514-1.59.892 0 1.456.56 1.456 1.52V11h.741V7.385c0-1.359-.854-2.094-2.009-2.094-.94 0-1.471.499-1.681.902h-.021v-.806h-.741V11zm8.008-5.613h-.79v.634h.79v3.48c0 1.07.252 1.553 1.504 1.553.193 0 .381-.022.467-.043v-.607c-.086.01-.177.016-.285.016-.714 0-.95-.177-.95-.865V6.021h1.187v-.634h-1.187V3.985h-.736v1.402zM262.798 11h.742V7.562c0-.821.456-1.59 1.514-1.59.892 0 1.461.56 1.461 1.52V11h.736V7.385c0-1.359-.859-2.094-2.009-2.094-.94 0-1.477.499-1.681.902h-.021V3.282h-.742V11zm8.951-.752h.022V11h.719V7.08c0-1.145-.832-1.79-2.003-1.79-1.289 0-1.95.677-2.02 1.639h.704c.075-.602.5-.994 1.289-.994.811 0 1.289.424 1.289 1.235v.634h-1.552c-1.278.006-1.95.629-1.95 1.595 0 1.026.747 1.692 1.832 1.692.891 0 1.418-.408 1.67-.843zm-1.498.204c-.661 0-1.236-.36-1.236-1.074 0-.564.36-.967 1.209-.967h1.525v.714c0 .785-.65 1.327-1.498 1.327zm.617-5.849l-1.036-1.482h-.784l1.23 1.482h.59zM273.852 11h.741V7.562c0-.821.462-1.59 1.515-1.59.891 0 1.455.56 1.455 1.52V11h.742V7.385c0-1.359-.854-2.094-2.009-2.094-.94 0-1.472.499-1.681.902h-.022v-.806h-.741V11zm5.793 0h.741V7.562c0-.821.456-1.59 1.514-1.59.892 0 1.461.56 1.461 1.52V11h.736V7.385c0-1.359-.859-2.094-2.009-2.094-.94 0-1.477.499-1.681.902h-.021V3.282h-.741V11z"/>
</svg>
