<svg xmlns="http://www.w3.org/2000/svg" width="298" height="15" fill="none" viewBox="0 0 298 15">
    <path fill="#26BED6" d="M12.11 4.172c0-.195-.079-.39-.22-.531l-1.062-1.063c-.14-.14-.336-.219-.531-.219s-.39.079-.531.22L4.64 7.71 2.344 5.406c-.14-.14-.336-.218-.531-.218-.196 0-.391.078-.532.218L.22 6.47C.079 6.609 0 6.805 0 7s.078.39.219.531l2.828 2.828 1.062 1.063c.141.14.336.219.532.219.195 0 .39-.079.53-.22l1.063-1.062 5.657-5.656c.14-.14.218-.336.218-.531zM18.284 10V3.356h2.288v-.682H15.26v.682h2.283V10h.74zm3.005 0h.741V6.562c0-.821.456-1.59 1.515-1.59.891 0 1.46.56 1.46 1.52V10h.736V6.385c0-1.359-.859-2.094-2.008-2.094-.94 0-1.477.499-1.682.902h-.021V2.282h-.741V10zm7.914-5.71c-1.504 0-2.363 1.085-2.363 2.606v.585c0 1.525.86 2.61 2.363 2.61 1.504 0 2.358-1.085 2.358-2.61v-.585c0-1.515-.86-2.605-2.358-2.605zm0 .656c1.01 0 1.617.746 1.617 1.992v.505c0 1.241-.607 1.988-1.617 1.988-1.015 0-1.622-.747-1.622-1.988v-.505c0-1.246.612-1.992 1.622-1.992zm-1.37-1.343h.634l.73-1.101h.017l.73 1.101h.634l-1.15-1.638h-.445l-1.15 1.638zM32.74 10h.741V6.562c0-.821.462-1.59 1.515-1.59.891 0 1.455.56 1.455 1.52V10h.741V6.385c0-1.359-.854-2.094-2.008-2.094-.94 0-1.472.499-1.681.902h-.022v-.806h-.741V10zm7.892 1.391c-.821 0-1.348-.446-1.444-.961h-.768c.118.929.864 1.6 2.207 1.6 1.279 0 2.315-.73 2.315-2.1V4.387h-.714v.849h-.022c-.252-.516-.897-.945-1.68-.945-1.317 0-2.24.934-2.24 2.535v.548c0 1.622.928 2.545 2.24 2.545.778 0 1.444-.435 1.659-.956h.021v.973c0 .907-.628 1.455-1.574 1.455zm0-6.445c.951 0 1.574.773 1.574 1.955v.413c0 1.193-.601 1.95-1.574 1.95-1.004 0-1.605-.746-1.605-1.955v-.408c0-1.23.596-1.955 1.605-1.955zm5.968-.559h-.79v.634h.79v3.48c0 1.07.252 1.553 1.503 1.553.194 0 .382-.022.468-.043v-.607c-.086.01-.177.016-.285.016-.714 0-.95-.177-.95-.865V5.021h1.187v-.634h-1.188V2.985H46.6v1.402zM49.675 10h.74V4.387h-.74V10zm-.145-6.999c0 .29.23.521.515.521.285 0 .521-.23.521-.52 0-.285-.236-.516-.52-.516-.286 0-.517.23-.517.515zM51.88 10h.74V6.562c0-.821.462-1.59 1.515-1.59.892 0 1.456.56 1.456 1.52V10h.74V6.385c0-1.359-.853-2.094-2.008-2.094-.94 0-1.472.499-1.681.902h-.022v-.806h-.74V10zm9.801 1.391c-.821 0-1.348-.446-1.444-.961h-.769c.119.929.865 1.6 2.208 1.6 1.278 0 2.315-.73 2.315-2.1V4.387h-.714v.849h-.022c-.252-.516-.897-.945-1.681-.945-1.316 0-2.24.934-2.24 2.535v.548c0 1.622.93 2.545 2.24 2.545.779 0 1.445-.435 1.66-.956h.021v.973c0 .907-.628 1.455-1.574 1.455zm0-6.445c.951 0 1.574.773 1.574 1.955v.413c0 1.193-.602 1.95-1.574 1.95-1.004 0-1.606-.746-1.606-1.955v-.408c0-1.23.597-1.955 1.606-1.955zM65.465 10h.741V4.387h-.74V10zm-.145-6.999c0 .29.231.521.516.521.285 0 .52-.23.52-.52 0-.285-.235-.516-.52-.516-.285 0-.516.23-.516.515zm5.519 6.247h.021V10h.72V6.08c0-1.145-.832-1.79-2.003-1.79-1.29 0-1.95.677-2.02 1.639h.704c.075-.602.5-.994 1.289-.994.81 0 1.289.424 1.289 1.235v.634h-1.552c-1.279.006-1.95.629-1.95 1.595 0 1.026.747 1.692 1.831 1.692.892 0 1.418-.408 1.67-.843zm-1.499.204c-.66 0-1.235-.36-1.235-1.074 0-.564.36-.967 1.209-.967h1.525v.714c0 .785-.65 1.327-1.499 1.327zm5.734-5.161c-1.504 0-2.363 1.084-2.363 2.605v.585c0 1.525.859 2.61 2.363 2.61s2.358-1.085 2.358-2.61v-.585c0-1.515-.86-2.605-2.358-2.605zm0 .655c1.01 0 1.617.746 1.617 1.992v.505c0 1.241-.607 1.988-1.617 1.988-1.015 0-1.622-.747-1.622-1.988v-.505c0-1.246.612-1.992 1.622-1.992zM80.536 10h.741V6.562c0-.821.457-1.59 1.515-1.59.892 0 1.461.56 1.461 1.52V10h.736V6.385c0-1.359-.86-2.094-2.009-2.094-.94 0-1.477.499-1.681.902h-.022V2.282h-.74V10zm8.951-.752h.022V10h.72V6.08c0-1.145-.833-1.79-2.004-1.79-1.29 0-1.95.677-2.02 1.639h.704c.075-.602.5-.994 1.289-.994.811 0 1.29.424 1.29 1.235v.634h-1.553c-1.279.006-1.95.629-1.95 1.595 0 1.026.747 1.692 1.832 1.692.891 0 1.418-.408 1.67-.843zm-1.498.204c-.661 0-1.236-.36-1.236-1.074 0-.564.36-.967 1.209-.967h1.525v.714c0 .785-.65 1.327-1.498 1.327zm.617-5.849L87.57 2.121h-.785l1.23 1.482h.591zM91.59 10h.741V6.562c0-.821.462-1.59 1.515-1.59.891 0 1.455.56 1.455 1.52V10h.741V6.385c0-1.359-.854-2.094-2.008-2.094-.94 0-1.472.499-1.681.902h-.022v-.806h-.741V10zm7.892 1.391c-.821 0-1.348-.446-1.444-.961h-.768c.118.929.864 1.6 2.207 1.6 1.278 0 2.315-.73 2.315-2.1V4.387h-.714v.849h-.022c-.252-.516-.897-.945-1.68-.945-1.317 0-2.24.934-2.24 2.535v.548c0 1.622.928 2.545 2.24 2.545.778 0 1.444-.435 1.659-.956h.021v.973c0 .907-.628 1.455-1.573 1.455zm0-6.445c.951 0 1.574.773 1.574 1.955v.413c0 1.193-.601 1.95-1.573 1.95-1.005 0-1.607-.746-1.607-1.955v-.408c0-1.23.597-1.955 1.606-1.955z" opacity=".7"/>
    <path stroke="#26BED6" stroke-width=".5" d="M113.109 7h15"/>
    <path fill="#26BED6" d="M143.219 4.172c0-.195-.078-.39-.219-.531l-1.062-1.063c-.141-.14-.336-.219-.532-.219-.195 0-.39.079-.531.22L135.75 7.71l-2.297-2.305c-.141-.14-.336-.218-.531-.218s-.391.078-.531.218l-1.063 1.063c-.141.14-.219.336-.219.531s.078.39.219.531l2.828 2.828 1.063 1.063c.14.14.336.219.531.219s.391-.079.531-.22l1.063-1.062L143 4.703c.141-.14.219-.336.219-.531zM150.393 10V3.356h2.288v-.682h-5.312v.682h2.283V10h.741zm3.005 0h.741V6.562c0-.821.457-1.59 1.515-1.59.892 0 1.461.56 1.461 1.52V10h.736V6.385c0-1.359-.86-2.094-2.009-2.094-.94 0-1.477.499-1.681.902h-.022V2.282h-.741V10zm8.951-.752h.021V10h.72V6.08c0-1.145-.832-1.79-2.003-1.79-1.289 0-1.95.677-2.02 1.639h.704c.075-.602.499-.994 1.289-.994.811 0 1.289.424 1.289 1.235v.634h-1.552c-1.279.006-1.95.629-1.95 1.595 0 1.026.747 1.692 1.832 1.692.891 0 1.418-.408 1.67-.843zm-1.499.204c-.66 0-1.235-.36-1.235-1.074 0-.564.36-.967 1.209-.967h1.525v.714c0 .785-.65 1.327-1.499 1.327zm3.602.548h.741V6.562c0-.821.462-1.59 1.515-1.59.891 0 1.455.56 1.455 1.52V10h.741V6.385c0-1.359-.854-2.094-2.008-2.094-.94 0-1.472.499-1.682.902h-.021v-.806h-.741V10zm5.792 0h.742V6.562c0-.821.456-1.59 1.514-1.59.892 0 1.461.56 1.461 1.52V10h.736V6.385c0-1.359-.859-2.094-2.009-2.094-.94 0-1.477.499-1.681.902h-.021V2.282h-.742V10zm8.014-5.613h-.79v.634h.79v3.48c0 1.07.252 1.553 1.504 1.553.193 0 .381-.022.467-.043v-.607c-.086.01-.177.016-.285.016-.714 0-.95-.177-.95-.865V5.021h1.187v-.634h-1.187V2.985h-.736v1.402zm5.073-.096c-1.504 0-2.364 1.084-2.364 2.605v.585c0 1.525.86 2.61 2.364 2.61s2.358-1.085 2.358-2.61v-.585c0-1.515-.86-2.605-2.358-2.605zm0 .655c1.01 0 1.616.746 1.616 1.992v.505c0 1.241-.606 1.988-1.616 1.988-1.015 0-1.622-.747-1.622-1.988v-.505c0-1.246.612-1.992 1.622-1.992zm6.705 4.302h.022V10h.72V6.08c0-1.145-.833-1.79-2.004-1.79-1.289 0-1.949.677-2.019 1.639h.703c.076-.602.5-.994 1.289-.994.811 0 1.289.424 1.289 1.235v.634h-1.552c-1.278.006-1.949.629-1.949 1.595 0 1.026.746 1.692 1.831 1.692.892 0 1.418-.408 1.67-.843zm-1.498.204c-.661 0-1.235-.36-1.235-1.074 0-.564.359-.967 1.208-.967h1.525v.714c0 .785-.649 1.327-1.498 1.327zm.51-5.849l1.23-1.482h-.784l-1.037 1.482h.591zM192.139 10h.741V6.562c0-.821.462-1.59 1.515-1.59.892 0 1.456.56 1.456 1.52V10h.741V6.385c0-1.359-.854-2.094-2.009-2.094-.94 0-1.472.499-1.681.902h-.022v-.806h-.741V10z" opacity=".7"/>
    <path stroke="#26BED6" stroke-width=".5" d="M207.219 7.5h15"/>
    <circle cx="232.719" cy="7.5" r="7.5" fill="#26BED6"/>
    <path fill="#fff" d="M231.475 7.783h.789c.854 0 1.338.462 1.343 1.095.005.645-.489 1.128-1.332 1.128-.8 0-1.268-.456-1.327-1.047h-1.337c.027 1.176.865 2.186 2.626 2.186 1.558 0 2.836-.87 2.82-2.197-.016-1.176-.886-1.719-1.563-1.767v-.054c.559-.08 1.343-.655 1.327-1.691-.022-1.112-1.069-1.907-2.525-1.907-1.627 0-2.513.961-2.546 2.132h1.354c.032-.478.392-1.01 1.144-1.01.688 0 1.144.414 1.144.978.005.607-.467 1.037-1.165 1.037h-.752v1.117z"/>
    <path fill="#26BED6" d="M248.981 10.5V3.168h-1.456V6.15h-3.077V3.17h-1.45V10.5h1.45V7.358h3.077V10.5h1.456zm3.547-5.8c-1.681 0-2.61 1.154-2.61 2.728v.419c0 1.654.929 2.755 2.61 2.755 1.682 0 2.605-1.101 2.605-2.76v-.42c0-1.573-.929-2.723-2.605-2.723zm0 1.095c.817 0 1.177.698 1.177 1.627v.44c0 .903-.355 1.639-1.177 1.639-.827 0-1.181-.741-1.181-1.638v-.44c0-.924.365-1.628 1.181-1.628zm6.599 4.012h.059v.693h1.337V6.649c0-1.327-.999-1.939-2.309-1.939-1.644 0-2.256.88-2.299 1.832h1.321c.038-.457.371-.763.951-.763.596 0 .94.317.94.886v.516h-1.391c-1.322 0-2.031.655-2.031 1.675 0 1.075.763 1.73 1.875 1.73.838 0 1.321-.36 1.547-.779zm-1.091-.252c-.472 0-.923-.258-.923-.79 0-.435.306-.736.929-.736h1.085v.602c0 .553-.484.924-1.091.924zm.769-5.436l-1.091-1.563h-1.246l1.343 1.563h.994zm2.758 6.381h1.407V7.16c0-.72.397-1.247 1.128-1.247.607 0 1.111.35 1.111 1.225V10.5h1.413V6.832c0-1.397-.811-2.122-1.971-2.122-.951 0-1.472.532-1.654.924h-.059V4.8h-1.375V10.5zm8.389-5.699h-.833v1.096h.806v2.992c0 1.165.467 1.643 1.885 1.643.285 0 .538-.027.645-.048V9.437c-.065.005-.183.01-.301.01-.585 0-.827-.172-.827-.74v-2.81h1.106V4.801h-1.106V3.437h-1.375v1.364zm3.413 5.699h1.413V7.16c0-.72.403-1.247 1.133-1.247.618 0 1.117.35 1.117 1.225V10.5h1.413V6.832c0-1.397-.822-2.122-1.971-2.122-.946 0-1.45.532-1.633.924h-.059V2.782h-1.413V10.5zm9.22-.693h.059v.693h1.337V6.649c0-1.327-.999-1.939-2.309-1.939-1.644 0-2.256.88-2.299 1.832h1.321c.038-.457.371-.763.951-.763.596 0 .94.317.94.886v.516h-1.391c-1.322 0-2.031.655-2.031 1.675 0 1.075.763 1.73 1.875 1.73.838 0 1.321-.36 1.547-.779zm-1.091-.252c-.472 0-.923-.258-.923-.79 0-.435.306-.736.929-.736h1.085v.602c0 .553-.484.924-1.091.924zm.768-5.436l-1.09-1.563h-1.246l1.343 1.563h.993zm2.758 6.381h1.408V7.16c0-.72.397-1.247 1.128-1.247.606 0 1.111.35 1.111 1.225V10.5h1.413V6.832c0-1.397-.811-2.122-1.971-2.122-.951 0-1.472.532-1.655.924h-.059V4.8h-1.375V10.5zm6.105 0h1.412V7.16c0-.72.403-1.247 1.133-1.247.618 0 1.118.35 1.118 1.225V10.5h1.412V6.832c0-1.397-.822-2.122-1.971-2.122-.945 0-1.45.532-1.633.924h-.059V2.782h-1.412V10.5z"/>
</svg>
