<svg xmlns="http://www.w3.org/2000/svg" width="293" height="15" fill="none" viewBox="0 0 293 15">
    <circle cx="7.5" cy="7.5" r="7.5" fill="#26BED6"/>
    <path fill="#fff" d="M8.647 11V3.668H7.245c-.322.172-1.455.903-1.772 1.134v1.326c.295-.204 1.46-.961 1.686-1.085h.049V11h1.439z"/>
    <circle cx="230.5" cy="7.5" r="7.5" fill="#BDBDBD"/>
    <path fill="#fff" d="M229.256 7.783h.789c.854 0 1.338.462 1.343 1.095.006.645-.489 1.128-1.332 1.128-.8 0-1.267-.456-1.327-1.047h-1.337c.027 1.176.865 2.186 2.627 2.186 1.557 0 2.835-.87 2.819-2.197-.016-1.176-.886-1.719-1.563-1.767v-.054c.559-.08 1.343-.655 1.327-1.691-.021-1.112-1.069-1.907-2.524-1.907-1.628 0-2.514.961-2.546 2.132h1.353c.032-.478.392-1.01 1.144-1.01.688 0 1.144.414 1.144.978.006.607-.467 1.037-1.165 1.037h-.752v1.117z"/>
    <circle cx="138.5" cy="7.5" r="7.5" fill="#BDBDBD"/>
    <path fill="#fff" d="M136.88 5.854v-.08c0-.586.43-1.085 1.112-1.085.623 0 1.085.403 1.085 1.026 0 .553-.339.988-.817 1.493l-2.664 2.89V11h5.049V9.818h-3.072v-.043l1.654-1.858c.843-.902 1.289-1.482 1.289-2.336 0-1.198-.983-2.052-2.46-2.052-1.563 0-2.551 1.02-2.551 2.256v.07h1.375z"/>
    <path stroke="#BDBDBD" stroke-width=".5" d="M204 7.5h15M114 7.5h15"/>
    <path fill="#26BED6" d="M21.615 11V4.882h2.084V3.668H18.08v1.214h2.084V11h1.45zm2.57 0h1.412V7.66c0-.72.403-1.247 1.134-1.247.617 0 1.117.35 1.117 1.225V11h1.412V7.332c0-1.397-.821-2.122-1.97-2.122-.946 0-1.451.532-1.634.924h-.059V3.282h-1.412V11zm8.473-5.8c-1.682 0-2.61 1.154-2.61 2.728v.419c0 1.654.928 2.755 2.61 2.755 1.68 0 2.605-1.101 2.605-2.76v-.42c0-1.573-.93-2.723-2.605-2.723zm0 1.095c.816 0 1.176.698 1.176 1.627v.44c0 .903-.355 1.639-1.176 1.639-.828 0-1.182-.741-1.182-1.638v-.44c0-.924.365-1.628 1.182-1.628zM30.96 4.619h1.075l.617-.934h.027l.612.934h1.075L33.14 2.954h-.95L30.96 4.62zM36.13 11h1.407V7.66c0-.72.398-1.247 1.128-1.247.607 0 1.112.35 1.112 1.225V11h1.413V7.332c0-1.397-.812-2.122-1.972-2.122-.95 0-1.471.532-1.654.924h-.06V5.3H36.13V11zm8.5 1.047c-.623 0-1.042-.29-1.134-.693h-1.37c.081.951.844 1.73 2.482 1.73 1.29 0 2.648-.596 2.648-2.154V5.301H45.86v.838h-.06c-.23-.52-.837-.913-1.622-.913-1.3 0-2.175.935-2.175 2.664v.355c0 1.75.881 2.68 2.175 2.68.795 0 1.392-.398 1.606-.897h.06v.81c0 .769-.457 1.21-1.214 1.21zm.032-5.693c.709 0 1.181.58 1.181 1.584v.333c0 1.016-.45 1.59-1.181 1.59-.752 0-1.209-.569-1.209-1.59v-.333c0-1.025.457-1.584 1.209-1.584zm6-1.053h-.833v1.096h.805v2.992c0 1.165.468 1.643 1.886 1.643.284 0 .537-.027.644-.048V9.937c-.064.005-.183.01-.3.01-.586 0-.828-.172-.828-.74v-2.81h1.107V5.301h-1.107V3.937h-1.375v1.364zM54.111 11h1.413V5.301h-1.413V11zm-.097-7.111c0 .44.366.74.8.74.441 0 .8-.3.8-.74s-.359-.747-.8-.747c-.434 0-.8.306-.8.747zM56.677 11h1.407V7.66c0-.72.397-1.247 1.128-1.247.607 0 1.112.35 1.112 1.225V11h1.412V7.332c0-1.397-.81-2.122-1.971-2.122-.95 0-1.472.532-1.654.924h-.06V5.3h-1.374V11zm10.355 1.047c-.623 0-1.042-.29-1.133-.693h-1.37c.08.951.843 1.73 2.481 1.73 1.29 0 2.648-.596 2.648-2.154V5.301h-1.396v.838h-.06c-.23-.52-.837-.913-1.621-.913-1.3 0-2.175.935-2.175 2.664v.355c0 1.75.88 2.68 2.175 2.68.795 0 1.39-.398 1.606-.897h.059v.81c0 .769-.457 1.21-1.214 1.21zm.032-5.693c.71 0 1.182.58 1.182 1.584v.333c0 1.016-.451 1.59-1.182 1.59-.752 0-1.208-.569-1.208-1.59v-.333c0-1.025.456-1.584 1.208-1.584zM70.816 11h1.412V5.301h-1.412V11zm-.097-7.111c0 .44.365.74.8.74.44 0 .8-.3.8-.74s-.36-.747-.8-.747c-.435 0-.8.306-.8.747zm5.787 6.418h.06V11h1.337V7.149c0-1.327-1-1.939-2.31-1.939-1.643 0-2.255.88-2.299 1.832h1.322c.037-.457.37-.763.95-.763.597 0 .94.317.94.886v.516h-1.39c-1.322 0-2.031.655-2.031 1.675 0 1.075.763 1.73 1.875 1.73.837 0 1.32-.36 1.546-.779zm-1.09-.252c-.473 0-.924-.258-.924-.79 0-.435.306-.736.93-.736h1.084v.602c0 .553-.483.924-1.09.924zm5.906-4.856c-1.682 0-2.61 1.155-2.61 2.729v.419c0 1.654.928 2.755 2.61 2.755 1.68 0 2.605-1.101 2.605-2.76v-.42c0-1.573-.93-2.723-2.606-2.723zm0 1.096c.816 0 1.176.698 1.176 1.627v.44c0 .903-.355 1.639-1.177 1.639-.827 0-1.181-.741-1.181-1.638v-.44c0-.924.365-1.628 1.181-1.628zM86.665 11h1.412V7.66c0-.72.403-1.247 1.133-1.247.618 0 1.118.35 1.118 1.225V11h1.412V7.332c0-1.397-.822-2.122-1.97-2.122-.946 0-1.451.532-1.634.924h-.059V3.282h-1.412V11zm9.219-.693h.06V11h1.337V7.149c0-1.327-1-1.939-2.31-1.939-1.644 0-2.256.88-2.299 1.832h1.321c.038-.457.371-.763.951-.763.596 0 .94.317.94.886v.516h-1.391c-1.321 0-2.03.655-2.03 1.675 0 1.075.762 1.73 1.874 1.73.838 0 1.321-.36 1.547-.779zm-1.09-.252c-.473 0-.924-.258-.924-.79 0-.435.306-.736.929-.736h1.085v.602c0 .553-.483.924-1.09.924zm.768-5.436l-1.09-1.563h-1.247L94.57 4.62h.994zM98.32 11h1.407V7.66c0-.72.397-1.247 1.128-1.247.607 0 1.112.35 1.112 1.225V11h1.412V7.332c0-1.397-.811-2.122-1.971-2.122-.951 0-1.472.532-1.654.924h-.06V5.3h-1.374V11zm8.499 1.047c-.623 0-1.042-.29-1.133-.693h-1.37c.081.951.844 1.73 2.482 1.73 1.289 0 2.648-.596 2.648-2.154V5.301h-1.397v.838h-.059c-.231-.52-.838-.913-1.622-.913-1.3 0-2.175.935-2.175 2.664v.355c0 1.75.881 2.68 2.175 2.68.795 0 1.391-.398 1.606-.897h.059v.81c0 .769-.456 1.21-1.214 1.21zm.033-5.693c.709 0 1.181.58 1.181 1.584v.333c0 1.016-.451 1.59-1.181 1.59-.752 0-1.209-.569-1.209-1.59v-.333c0-1.025.457-1.584 1.209-1.584z"/>
    <path fill="#BDBDBD" d="M247.333 11V3.674h-.752v3.174h-3.9V3.674h-.752V11h.752V7.53h3.9V11h.752zm3.606-5.71c-1.504 0-2.363 1.085-2.363 2.606v.585c0 1.525.859 2.61 2.363 2.61s2.358-1.085 2.358-2.61v-.585c0-1.515-.859-2.605-2.358-2.605zm0 .656c1.01 0 1.617.746 1.617 1.992v.505c0 1.241-.607 1.988-1.617 1.988-1.015 0-1.622-.747-1.622-1.988v-.505c0-1.246.612-1.992 1.622-1.992zm6.706 4.302h.021V11h.72V7.08c0-1.145-.832-1.79-2.003-1.79-1.289 0-1.95.677-2.02 1.639h.704c.075-.602.499-.994 1.289-.994.811 0 1.289.424 1.289 1.235v.634h-1.552c-1.279.006-1.95.629-1.95 1.595 0 1.026.746 1.692 1.831 1.692.892 0 1.418-.408 1.671-.843zm-1.499.204c-.66 0-1.235-.36-1.235-1.074 0-.564.36-.967 1.208-.967h1.526v.714c0 .785-.65 1.327-1.499 1.327zm.618-5.849l-1.037-1.482h-.784l1.23 1.482h.591zM259.748 11h.741V7.562c0-.821.462-1.59 1.514-1.59.892 0 1.456.56 1.456 1.52V11h.741V7.385c0-1.359-.854-2.094-2.009-2.094-.94 0-1.471.499-1.681.902h-.021v-.806h-.741V11zm8.008-5.613h-.79v.634h.79v3.48c0 1.07.252 1.553 1.504 1.553.193 0 .381-.022.467-.043v-.607c-.086.01-.177.016-.285.016-.714 0-.95-.177-.95-.865V6.021h1.187v-.634h-1.187V3.985h-.736v1.402zM270.798 11h.742V7.562c0-.821.456-1.59 1.514-1.59.892 0 1.461.56 1.461 1.52V11h.736V7.385c0-1.359-.859-2.094-2.009-2.094-.94 0-1.477.499-1.681.902h-.021V3.282h-.742V11zm8.951-.752h.022V11h.719V7.08c0-1.145-.832-1.79-2.003-1.79-1.289 0-1.95.677-2.02 1.639h.704c.075-.602.5-.994 1.289-.994.811 0 1.289.424 1.289 1.235v.634h-1.552c-1.278.006-1.95.629-1.95 1.595 0 1.026.747 1.692 1.832 1.692.891 0 1.418-.408 1.67-.843zm-1.498.204c-.661 0-1.236-.36-1.236-1.074 0-.564.36-.967 1.209-.967h1.525v.714c0 .785-.65 1.327-1.498 1.327zm.617-5.849l-1.036-1.482h-.784l1.23 1.482h.59zM281.852 11h.741V7.562c0-.821.462-1.59 1.515-1.59.891 0 1.455.56 1.455 1.52V11h.742V7.385c0-1.359-.854-2.094-2.009-2.094-.94 0-1.472.499-1.681.902h-.022v-.806h-.741V11zm5.793 0h.741V7.562c0-.821.456-1.59 1.514-1.59.892 0 1.461.56 1.461 1.52V11h.736V7.385c0-1.359-.859-2.094-2.009-2.094-.94 0-1.477.499-1.681.902h-.021V3.282h-.741V11zM152.174 11V4.356h2.288v-.682h-5.312v.682h2.283V11h.741zm3.005 0h.742V7.562c0-.821.456-1.59 1.514-1.59.892 0 1.461.56 1.461 1.52V11h.736V7.385c0-1.359-.859-2.094-2.009-2.094-.94 0-1.477.499-1.681.902h-.021V3.282h-.742V11zm8.951-.752h.022V11h.719V7.08c0-1.145-.832-1.79-2.003-1.79-1.289 0-1.95.677-2.02 1.639h.704c.075-.602.5-.994 1.289-.994.811 0 1.289.424 1.289 1.235v.634h-1.552c-1.278.006-1.95.629-1.95 1.595 0 1.026.747 1.692 1.832 1.692.891 0 1.418-.408 1.67-.843zm-1.498.204c-.661 0-1.236-.36-1.236-1.074 0-.564.36-.967 1.209-.967h1.525v.714c0 .785-.65 1.327-1.498 1.327zm3.601.548h.741V7.562c0-.821.462-1.59 1.515-1.59.891 0 1.455.56 1.455 1.52V11h.742V7.385c0-1.359-.854-2.094-2.009-2.094-.94 0-1.472.499-1.681.902h-.022v-.806h-.741V11zm5.793 0h.741V7.562c0-.821.456-1.59 1.514-1.59.892 0 1.461.56 1.461 1.52V11h.736V7.385c0-1.359-.859-2.094-2.009-2.094-.94 0-1.477.499-1.681.902h-.021V3.282h-.741V11zm8.013-5.613h-.789v.634h.789v3.48c0 1.07.253 1.553 1.504 1.553.193 0 .381-.022.467-.043v-.607c-.086.01-.177.016-.284.016-.715 0-.951-.177-.951-.865V6.021h1.187v-.634h-1.187V3.985h-.736v1.402zm5.073-.096c-1.504 0-2.363 1.084-2.363 2.605v.585c0 1.525.859 2.61 2.363 2.61s2.358-1.085 2.358-2.61v-.585c0-1.515-.859-2.605-2.358-2.605zm0 .655c1.01 0 1.617.746 1.617 1.992v.505c0 1.241-.607 1.988-1.617 1.988-1.015 0-1.622-.747-1.622-1.988v-.505c0-1.246.612-1.992 1.622-1.992zm6.706 4.302h.021V11h.72V7.08c0-1.145-.833-1.79-2.003-1.79-1.29 0-1.95.677-2.02 1.639h.704c.075-.602.499-.994 1.289-.994.811 0 1.289.424 1.289 1.235v.634h-1.553c-1.278.006-1.949.629-1.949 1.595 0 1.026.746 1.692 1.831 1.692.892 0 1.418-.408 1.671-.843zm-1.499.204c-.66 0-1.235-.36-1.235-1.074 0-.564.36-.967 1.208-.967h1.526v.714c0 .785-.65 1.327-1.499 1.327zm.51-5.849l1.23-1.482h-.784l-1.036 1.482h.59zM193.92 11h.742V7.562c0-.821.462-1.59 1.514-1.59.892 0 1.456.56 1.456 1.52V11h.741V7.385c0-1.359-.854-2.094-2.009-2.094-.94 0-1.471.499-1.681.902h-.021v-.806h-.742V11z"/>
</svg>
