<svg width="345" height="15" viewBox="0 0 345 15" fill="none" xmlns="http://www.w3.org/2000/svg">
<g opacity="0.7">
<path d="M12 4.75758C12 4.56818 11.9226 4.37879 11.7832 4.24242L10.7303 3.21212C10.591 3.07576 10.3974 3 10.2039 3C10.0103 3 9.81677 3.07576 9.67742 3.21212L4.59871 8.18939L2.32258 5.95455C2.18323 5.81818 1.98968 5.74242 1.79613 5.74242C1.60258 5.74242 1.40903 5.81818 1.26968 5.95455L0.216774 6.98485C0.0774192 7.12121 0 7.31061 0 7.5C0 7.68939 0.0774192 7.87879 0.216774 8.01515L3.01935 10.7576L4.07226 11.7879C4.21161 11.9242 4.40516 12 4.59871 12C4.79226 12 4.98581 11.9242 5.12516 11.7879L6.17806 10.7576L11.7832 5.27273C11.9226 5.13636 12 4.94697 12 4.75758Z" fill="#26BED6"/>
</g>
<g opacity="0.7">
<path d="M92 4.75758C92 4.56818 91.9226 4.37879 91.7832 4.24242L90.7303 3.21212C90.591 3.07576 90.3974 3 90.2039 3C90.0103 3 89.8168 3.07576 89.6774 3.21212L84.5987 8.18939L82.3226 5.95455C82.1832 5.81818 81.9897 5.74242 81.7961 5.74242C81.6026 5.74242 81.409 5.81818 81.2697 5.95455L80.2168 6.98485C80.0774 7.12121 80 7.31061 80 7.5C80 7.68939 80.0774 7.87879 80.2168 8.01515L83.0194 10.7576L84.0723 11.7879C84.2116 11.9242 84.4052 12 84.5987 12C84.7923 12 84.9858 11.9242 85.1252 11.7879L86.1781 10.7576L91.7832 5.27273C91.9226 5.13636 92 4.94697 92 4.75758Z" fill="#26BED6"/>
</g>
<circle cx="191.5" cy="7.5" r="7.5" fill="#26BED6"/>
<path d="M191.256 7.78271H192.045C192.899 7.78271 193.383 8.24463 193.388 8.87842C193.394 9.52295 192.899 10.0063 192.056 10.0063C191.256 10.0063 190.789 9.5498 190.729 8.95898H189.392C189.419 10.1353 190.257 11.145 192.019 11.145C193.576 11.145 194.854 10.2749 194.838 8.94824C194.822 7.77197 193.952 7.22949 193.275 7.18115V7.12744C193.834 7.04688 194.618 6.47217 194.602 5.43555C194.581 4.32373 193.533 3.52881 192.078 3.52881C190.45 3.52881 189.564 4.49023 189.532 5.66113H190.885C190.917 5.18311 191.277 4.65137 192.029 4.65137C192.717 4.65137 193.173 5.06494 193.173 5.62891C193.179 6.23584 192.706 6.66553 192.008 6.66553H191.256V7.78271Z" fill="white"/>
<circle cx="282.5" cy="7.5" r="7.5" fill="#BDBDBD"/>
<path d="M282.223 3.66846C281.229 5.23145 280.235 6.85889 279.376 8.47021V9.64111H282.921V11H284.285V9.64111H285.182V8.47021H284.285V3.66846H282.223ZM280.692 8.47021V8.4541C281.347 7.20801 282.121 5.92969 282.873 4.76416H282.921V8.47021H280.692Z" fill="white"/>
<path opacity="0.7" d="M23.9727 3.67383H23.0649L19.708 7.34766H19.6812V3.67383H18.9292V11H19.6812V8.33594L20.605 7.34229L23.1616 11H24.1284L21.1636 6.82129L23.9727 3.67383ZM24.8454 11H25.5866V5.38721H24.8454V11ZM24.7004 4.00146C24.7004 4.2915 24.9313 4.52246 25.216 4.52246C25.5007 4.52246 25.737 4.2915 25.737 4.00146C25.737 3.7168 25.5007 3.48584 25.216 3.48584C24.9313 3.48584 24.7004 3.7168 24.7004 4.00146ZM29.1234 11.0913C30.348 11.0913 31.0677 10.3931 31.2611 9.52295H30.5091C30.3426 10.0547 29.8968 10.4521 29.1449 10.4521C28.1512 10.4521 27.5658 9.67871 27.5658 8.50244V8.36816H31.3416V7.90088C31.3416 6.32178 30.5038 5.29053 29.0804 5.29053C27.641 5.29053 26.8192 6.32715 26.8192 7.8418V8.48096C26.8192 10.0708 27.6839 11.0913 29.1234 11.0913ZM27.5658 7.72363V7.70752C27.5658 6.68701 28.1566 5.93506 29.0804 5.93506C29.9935 5.93506 30.5951 6.68701 30.5951 7.70752V7.72363H27.5658ZM29.784 2.28271C29.8753 2.229 30.0526 2.16455 30.2459 2.16455C30.5736 2.16455 30.8153 2.36865 30.8153 2.63184C30.8153 2.86816 30.6756 3.01855 30.3372 3.16357L30.6004 3.53955C31.014 3.36768 31.3202 3.06152 31.3202 2.62646C31.3202 2.08936 30.9173 1.72412 30.3158 1.72412C30.0848 1.72412 29.8753 1.77246 29.784 1.83154V2.28271ZM27.7054 4.60303H28.3392L29.0697 3.50195H29.0858L29.8163 4.60303H30.45L29.3006 2.96484H28.8548L27.7054 4.60303ZM32.4937 11H33.2349V7.41211C33.2349 6.52588 33.7881 5.97266 34.5669 5.97266C35.3887 5.97266 35.8775 6.48291 35.8775 7.396V11H36.6133V7.40137C36.6133 6.60107 37.086 5.97266 37.9614 5.97266C38.7993 5.97266 39.2559 6.52588 39.2559 7.3208V11H39.9971V7.17578C39.9971 5.99951 39.2774 5.29053 38.1172 5.29053C37.1665 5.29053 36.5864 5.77393 36.3931 6.25195H36.3609C36.1514 5.68799 35.625 5.29053 34.7227 5.29053C33.9331 5.29053 33.4497 5.73096 33.2725 6.11768H33.2349V5.38721H32.4937V11ZM43.6063 5.38721H42.8168V6.021H43.6063V9.50146C43.6063 10.5703 43.8587 11.0537 45.1102 11.0537C45.3036 11.0537 45.4916 11.0322 45.5775 11.0107V10.4038C45.4916 10.4146 45.4003 10.4199 45.2928 10.4199C44.5785 10.4199 44.3421 10.2427 44.3421 9.55518V6.021H45.5292V5.38721H44.3421V3.98535H43.6063V5.38721ZM46.6328 11H47.3741V7.53564C47.3741 6.66553 47.7393 5.98877 48.7491 5.98877C48.9209 5.98877 49.1035 5.99951 49.1841 6.01562V5.32275C49.0821 5.31201 48.9639 5.30127 48.835 5.30127C47.9864 5.30127 47.5674 5.76318 47.3955 6.1499H47.3741V5.38721H46.6328V11ZM53.1076 10.248H53.1291V11H53.8488V7.0791C53.8488 5.93506 53.0163 5.29053 51.8454 5.29053C50.5563 5.29053 49.8957 5.96729 49.8259 6.92871H50.5295C50.6047 6.32715 51.029 5.93506 51.8186 5.93506C52.6296 5.93506 53.1076 6.35938 53.1076 7.17041V7.8042H51.5554C50.2771 7.80957 49.6057 8.43262 49.6057 9.39941C49.6057 10.4253 50.3522 11.0913 51.4372 11.0913C52.3288 11.0913 52.8552 10.6831 53.1076 10.248ZM51.6091 10.4521C50.9484 10.4521 50.3737 10.0923 50.3737 9.37793C50.3737 8.81396 50.7336 8.41113 51.5822 8.41113H53.1076V9.12549C53.1076 9.90967 52.4577 10.4521 51.6091 10.4521Z" fill="#26BED6"/>
<path opacity="0.7" d="M61 8H76" stroke="#26BED6" stroke-width="0.5"/>
<path opacity="0.7" d="M167 7.5H182" stroke="#26BED6" stroke-width="0.5"/>
<path d="M258 7.5H273" stroke="#BDBDBD" stroke-width="0.5"/>
<path opacity="0.7" d="M102.105 11C104.27 11 105.333 9.71094 105.333 7.33691C105.333 4.95752 104.259 3.67383 102.105 3.67383H99.8923V6.91797H99.3659V7.57861H99.8923V11H102.105ZM100.644 10.3125V7.57861H102.734V6.91797H100.644V4.36133H102.084C103.754 4.36133 104.554 5.38721 104.554 7.33691C104.554 9.28662 103.754 10.3125 102.084 10.3125H100.644ZM106.807 11H107.549V5.38721H106.807V11ZM106.662 4.00146C106.662 4.2915 106.893 4.52246 107.178 4.52246C107.463 4.52246 107.699 4.2915 107.699 4.00146C107.699 3.7168 107.463 3.48584 107.178 3.48584C106.893 3.48584 106.662 3.7168 106.662 4.00146ZM111.085 11.0913C112.31 11.0913 113.03 10.3931 113.223 9.52295H112.471C112.305 10.0547 111.859 10.4521 111.107 10.4521C110.113 10.4521 109.528 9.67871 109.528 8.50244V8.36816H113.304V7.90088C113.304 6.32178 112.466 5.29053 111.042 5.29053C109.603 5.29053 108.781 6.32715 108.781 7.8418V8.48096C108.781 10.0708 109.646 11.0913 111.085 11.0913ZM109.528 7.72363V7.70752C109.528 6.68701 110.119 5.93506 111.042 5.93506C111.956 5.93506 112.557 6.68701 112.557 7.70752V7.72363H109.528ZM113.298 3.38916L112.262 1.90674H111.478L112.708 3.38916H113.298ZM109.667 4.60303H110.301L111.032 3.50195H111.048L111.778 4.60303H112.412L111.263 2.96484H110.817L109.667 4.60303ZM114.456 11H115.197V7.5625C115.197 6.74072 115.659 5.97266 116.712 5.97266C117.603 5.97266 118.167 6.53125 118.167 7.49268V11H118.908V7.38525C118.908 6.02637 118.054 5.29053 116.9 5.29053C115.96 5.29053 115.428 5.79004 115.218 6.19287H115.197V5.38721H114.456V11ZM122.464 5.38721H121.674V6.021H122.464V9.50146C122.464 10.5703 122.716 11.0537 123.968 11.0537C124.161 11.0537 124.349 11.0322 124.435 11.0107V10.4038C124.349 10.4146 124.258 10.4199 124.15 10.4199C123.436 10.4199 123.2 10.2427 123.2 9.55518V6.021H124.387V5.38721H123.2V3.98535H122.464V5.38721ZM125.507 11H126.248V7.5625C126.248 6.74072 126.704 5.97266 127.762 5.97266C128.654 5.97266 129.223 6.53125 129.223 7.49268V11H129.959V7.38525C129.959 6.02637 129.1 5.29053 127.95 5.29053C127.01 5.29053 126.473 5.79004 126.269 6.19287H126.248V3.28174H125.507V11ZM133.421 5.29053C131.917 5.29053 131.057 6.37549 131.057 7.89551V8.48096C131.057 10.0063 131.917 11.0913 133.421 11.0913C134.925 11.0913 135.779 10.0063 135.779 8.48096V7.89551C135.779 6.38086 134.919 5.29053 133.421 5.29053ZM133.421 5.9458C134.431 5.9458 135.037 6.69238 135.037 7.93848V8.44336C135.037 9.68408 134.431 10.4307 133.421 10.4307C132.406 10.4307 131.799 9.68408 131.799 8.44336V7.93848C131.799 6.69238 132.411 5.9458 133.421 5.9458ZM132.051 4.60303H132.685L133.415 3.50195H133.432L134.162 4.60303H134.796L133.646 2.96484H133.201L132.051 4.60303ZM136.958 11H137.699V7.5625C137.699 6.74072 138.161 5.97266 139.213 5.97266C140.105 5.97266 140.669 6.53125 140.669 7.49268V11H141.41V7.38525C141.41 6.02637 140.556 5.29053 139.401 5.29053C138.461 5.29053 137.93 5.79004 137.72 6.19287H137.699V5.38721H136.958V11ZM144.85 12.3911C144.029 12.3911 143.502 11.9453 143.405 11.4297H142.637C142.756 12.3589 143.502 13.0303 144.845 13.0303C146.123 13.0303 147.16 12.2998 147.16 10.9302V5.38721H146.446V6.23584H146.424C146.172 5.72021 145.527 5.29053 144.743 5.29053C143.427 5.29053 142.503 6.2251 142.503 7.82568V8.37354C142.503 9.99561 143.432 10.9194 144.743 10.9194C145.522 10.9194 146.188 10.4844 146.403 9.96338H146.424V10.9355C146.424 11.8433 145.796 12.3911 144.85 12.3911ZM144.85 5.9458C145.801 5.9458 146.424 6.71924 146.424 7.90088V8.31445C146.424 9.50684 145.822 10.2642 144.85 10.2642C143.846 10.2642 143.244 9.51758 143.244 8.30908V7.90088C143.244 6.6709 143.841 5.9458 144.85 5.9458ZM150.817 5.38721H150.028V6.021H150.817V9.50146C150.817 10.5703 151.07 11.0537 152.321 11.0537C152.515 11.0537 152.703 11.0322 152.789 11.0107V10.4038C152.703 10.4146 152.611 10.4199 152.504 10.4199C151.79 10.4199 151.553 10.2427 151.553 9.55518V6.021H152.74V5.38721H151.553V3.98535H150.817V5.38721ZM153.892 11H154.634V5.38721H153.892V11ZM153.747 4.00146C153.747 4.2915 153.978 4.52246 154.263 4.52246C154.548 4.52246 154.784 4.2915 154.784 4.00146C154.784 3.7168 154.548 3.48584 154.263 3.48584C153.978 3.48584 153.747 3.7168 153.747 4.00146ZM156.097 11H156.838V7.5625C156.838 6.74072 157.3 5.97266 158.353 5.97266C159.245 5.97266 159.808 6.53125 159.808 7.49268V11H160.55V7.38525C160.55 6.02637 159.696 5.29053 158.541 5.29053C157.601 5.29053 157.069 5.79004 156.86 6.19287H156.838V5.38721H156.097V11Z" fill="#26BED6"/>
<path d="M206.615 11V4.88232H208.699V3.66846H203.081V4.88232H205.165V11H206.615ZM209.185 11H210.597V7.65918C210.597 6.93945 211 6.41309 211.731 6.41309C212.348 6.41309 212.848 6.76221 212.848 7.6377V11H214.26V7.33154C214.26 5.93506 213.439 5.20996 212.289 5.20996C211.344 5.20996 210.839 5.7417 210.656 6.13379H210.597V3.28174H209.185V11ZM218.404 10.3071H218.463V11H219.801V7.14893C219.801 5.82227 218.802 5.20996 217.491 5.20996C215.848 5.20996 215.235 6.09082 215.192 7.0415H216.514C216.551 6.58496 216.884 6.27881 217.464 6.27881C218.06 6.27881 218.404 6.5957 218.404 7.16504V7.68066H217.013C215.692 7.68066 214.983 8.33594 214.983 9.35645C214.983 10.4307 215.745 11.0859 216.857 11.0859C217.695 11.0859 218.179 10.7261 218.404 10.3071ZM217.314 10.0547C216.841 10.0547 216.39 9.79688 216.39 9.26514C216.39 8.83008 216.696 8.5293 217.319 8.5293H218.404V9.13086C218.404 9.68408 217.921 10.0547 217.314 10.0547ZM220.84 11H222.247V7.65918C222.247 6.93945 222.645 6.41309 223.375 6.41309C223.982 6.41309 224.487 6.76221 224.487 7.6377V11H225.899V7.33154C225.899 5.93506 225.088 5.20996 223.928 5.20996C222.978 5.20996 222.457 5.7417 222.274 6.13379H222.215V5.30127H220.84V11ZM226.944 11H228.357V7.65918C228.357 6.93945 228.759 6.41309 229.49 6.41309C230.108 6.41309 230.607 6.76221 230.607 7.6377V11H232.02V7.33154C232.02 5.93506 231.198 5.20996 230.049 5.20996C229.103 5.20996 228.598 5.7417 228.416 6.13379H228.357V3.28174H226.944V11ZM235.339 5.30127H234.506V6.39697H235.312V9.38867C235.312 10.5542 235.779 11.0322 237.197 11.0322C237.482 11.0322 237.734 11.0054 237.842 10.9839V9.93652C237.777 9.94189 237.659 9.94727 237.541 9.94727C236.956 9.94727 236.714 9.77539 236.714 9.20605V6.39697H237.82V5.30127H236.714V3.93701H235.339V5.30127ZM241.029 5.19922C239.348 5.19922 238.419 6.354 238.419 7.92773V8.34668C238.419 10.001 239.348 11.1021 241.029 11.1021C242.711 11.1021 243.634 10.001 243.634 8.34131V7.92236C243.634 6.34863 242.705 5.19922 241.029 5.19922ZM241.029 6.29492C241.846 6.29492 242.206 6.99316 242.206 7.92236V8.36279C242.206 9.26514 241.851 10.001 241.029 10.001C240.202 10.001 239.848 9.25977 239.848 8.36279V7.92236C239.848 6.99854 240.213 6.29492 241.029 6.29492ZM247.628 10.3071H247.687V11H249.024V7.14893C249.024 5.82227 248.025 5.20996 246.715 5.20996C245.071 5.20996 244.459 6.09082 244.416 7.0415H245.737C245.775 6.58496 246.108 6.27881 246.688 6.27881C247.284 6.27881 247.628 6.5957 247.628 7.16504V7.68066H246.237C244.915 7.68066 244.206 8.33594 244.206 9.35645C244.206 10.4307 244.969 11.0859 246.081 11.0859C246.919 11.0859 247.402 10.7261 247.628 10.3071ZM246.537 10.0547C246.065 10.0547 245.614 9.79688 245.614 9.26514C245.614 8.83008 245.92 8.5293 246.543 8.5293H247.628V9.13086C247.628 9.68408 247.144 10.0547 246.537 10.0547ZM247.171 4.61914L248.514 3.05615H247.268L246.178 4.61914H247.171ZM250.064 11H251.471V7.65918C251.471 6.93945 251.868 6.41309 252.599 6.41309C253.206 6.41309 253.71 6.76221 253.71 7.6377V11H255.123V7.33154C255.123 5.93506 254.312 5.20996 253.152 5.20996C252.201 5.20996 251.68 5.7417 251.498 6.13379H251.439V5.30127H250.064V11Z" fill="#26BED6"/>
<path d="M299.333 11V3.67383H298.581V6.84814H294.681V3.67383H293.929V11H294.681V7.53027H298.581V11H299.333ZM302.939 5.29053C301.435 5.29053 300.576 6.37549 300.576 7.89551V8.48096C300.576 10.0063 301.435 11.0913 302.939 11.0913C304.443 11.0913 305.297 10.0063 305.297 8.48096V7.89551C305.297 6.38086 304.438 5.29053 302.939 5.29053ZM302.939 5.9458C303.949 5.9458 304.556 6.69238 304.556 7.93848V8.44336C304.556 9.68408 303.949 10.4307 302.939 10.4307C301.924 10.4307 301.317 9.68408 301.317 8.44336V7.93848C301.317 6.69238 301.929 5.9458 302.939 5.9458ZM309.645 10.248H309.666V11H310.386V7.0791C310.386 5.93506 309.554 5.29053 308.383 5.29053C307.094 5.29053 306.433 5.96729 306.363 6.92871H307.067C307.142 6.32715 307.566 5.93506 308.356 5.93506C309.167 5.93506 309.645 6.35938 309.645 7.17041V7.8042H308.093C306.814 7.80957 306.143 8.43262 306.143 9.39941C306.143 10.4253 306.889 11.0913 307.974 11.0913C308.866 11.0913 309.392 10.6831 309.645 10.248ZM308.146 10.4521C307.486 10.4521 306.911 10.0923 306.911 9.37793C306.911 8.81396 307.271 8.41113 308.119 8.41113H309.645V9.12549C309.645 9.90967 308.995 10.4521 308.146 10.4521ZM308.764 4.60303L307.727 3.12061H306.943L308.173 4.60303H308.764ZM311.748 11H312.489V7.5625C312.489 6.74072 312.951 5.97266 314.003 5.97266C314.895 5.97266 315.459 6.53125 315.459 7.49268V11H316.2V7.38525C316.2 6.02637 315.346 5.29053 314.191 5.29053C313.251 5.29053 312.72 5.79004 312.51 6.19287H312.489V5.38721H311.748V11ZM319.756 5.38721H318.966V6.021H319.756V9.50146C319.756 10.5703 320.008 11.0537 321.26 11.0537C321.453 11.0537 321.641 11.0322 321.727 11.0107V10.4038C321.641 10.4146 321.55 10.4199 321.442 10.4199C320.728 10.4199 320.492 10.2427 320.492 9.55518V6.021H321.679V5.38721H320.492V3.98535H319.756V5.38721ZM322.798 11H323.54V7.5625C323.54 6.74072 323.996 5.97266 325.054 5.97266C325.946 5.97266 326.515 6.53125 326.515 7.49268V11H327.251V7.38525C327.251 6.02637 326.392 5.29053 325.242 5.29053C324.302 5.29053 323.765 5.79004 323.561 6.19287H323.54V3.28174H322.798V11ZM331.749 10.248H331.771V11H332.49V7.0791C332.49 5.93506 331.658 5.29053 330.487 5.29053C329.198 5.29053 328.537 5.96729 328.467 6.92871H329.171C329.246 6.32715 329.671 5.93506 330.46 5.93506C331.271 5.93506 331.749 6.35938 331.749 7.17041V7.8042H330.197C328.919 7.80957 328.247 8.43262 328.247 9.39941C328.247 10.4253 328.994 11.0913 330.079 11.0913C330.97 11.0913 331.497 10.6831 331.749 10.248ZM330.251 10.4521C329.59 10.4521 329.015 10.0923 329.015 9.37793C329.015 8.81396 329.375 8.41113 330.224 8.41113H331.749V9.12549C331.749 9.90967 331.099 10.4521 330.251 10.4521ZM330.868 4.60303L329.832 3.12061H329.048L330.278 4.60303H330.868ZM333.852 11H334.593V7.5625C334.593 6.74072 335.055 5.97266 336.108 5.97266C336.999 5.97266 337.563 6.53125 337.563 7.49268V11H338.305V7.38525C338.305 6.02637 337.451 5.29053 336.296 5.29053C335.356 5.29053 334.824 5.79004 334.615 6.19287H334.593V5.38721H333.852V11ZM339.645 11H340.386V7.5625C340.386 6.74072 340.842 5.97266 341.9 5.97266C342.792 5.97266 343.361 6.53125 343.361 7.49268V11H344.097V7.38525C344.097 6.02637 343.238 5.29053 342.088 5.29053C341.148 5.29053 340.611 5.79004 340.407 6.19287H340.386V3.28174H339.645V11Z" fill="#BDBDBD"/>
</svg>
