<svg width="348" height="15" viewBox="0 0 348 15" fill="none" xmlns="http://www.w3.org/2000/svg">
<g opacity="0.7">
<path d="M12 4.75758C12 4.56818 11.9226 4.37879 11.7832 4.24242L10.7303 3.21212C10.591 3.07576 10.3974 3 10.2039 3C10.0103 3 9.81677 3.07576 9.67742 3.21212L4.59871 8.18939L2.32258 5.95455C2.18323 5.81818 1.98968 5.74242 1.79613 5.74242C1.60258 5.74242 1.40903 5.81818 1.26968 5.95455L0.216774 6.98485C0.0774192 7.12121 0 7.31061 0 7.5C0 7.68939 0.0774192 7.87879 0.216774 8.01515L3.01935 10.7576L4.07226 11.7879C4.21161 11.9242 4.40516 12 4.59871 12C4.79226 12 4.98581 11.9242 5.12516 11.7879L6.17806 10.7576L11.7832 5.27273C11.9226 5.13636 12 4.94697 12 4.75758Z" fill="#26BED6"/>
</g>
<g opacity="0.7">
<path d="M92 4.75758C92 4.56818 91.9226 4.37879 91.7832 4.24242L90.7303 3.21212C90.591 3.07576 90.3974 3 90.2039 3C90.0103 3 89.8168 3.07576 89.6774 3.21212L84.5987 8.18939L82.3226 5.95455C82.1832 5.81818 81.9897 5.74242 81.7961 5.74242C81.6026 5.74242 81.409 5.81818 81.2697 5.95455L80.2168 6.98485C80.0774 7.12121 80 7.31061 80 7.5C80 7.68939 80.0774 7.87879 80.2168 8.01515L83.0194 10.7576L84.0723 11.7879C84.2116 11.9242 84.4052 12 84.5987 12C84.7923 12 84.9858 11.9242 85.1252 11.7879L86.1781 10.7576L91.7832 5.27273C91.9226 5.13636 92 4.94697 92 4.75758Z" fill="#26BED6"/>
</g>
<g opacity="0.7">
<path d="M198 4.75758C198 4.56818 197.923 4.37879 197.783 4.24242L196.73 3.21212C196.591 3.07576 196.397 3 196.204 3C196.01 3 195.817 3.07576 195.677 3.21212L190.599 8.18939L188.323 5.95455C188.183 5.81818 187.99 5.74242 187.796 5.74242C187.603 5.74242 187.409 5.81818 187.27 5.95455L186.217 6.98485C186.077 7.12121 186 7.31061 186 7.5C186 7.68939 186.077 7.87879 186.217 8.01515L189.019 10.7576L190.072 11.7879C190.212 11.9242 190.405 12 190.599 12C190.792 12 190.986 11.9242 191.125 11.7879L192.178 10.7576L197.783 5.27273C197.923 5.13636 198 4.94697 198 4.75758Z" fill="#26BED6"/>
</g>
<circle cx="282.5" cy="7.5" r="7.5" fill="#26BED6"/>
<path d="M282.223 3.66846C281.229 5.23145 280.235 6.85889 279.376 8.47021V9.64111H282.921V11H284.285V9.64111H285.182V8.47021H284.285V3.66846H282.223ZM280.692 8.47021V8.4541C281.347 7.20801 282.121 5.92969 282.873 4.76416H282.921V8.47021H280.692Z" fill="white"/>
<path opacity="0.7" d="M23.9727 3.67383H23.0649L19.708 7.34766H19.6812V3.67383H18.9292V11H19.6812V8.33594L20.605 7.34229L23.1616 11H24.1284L21.1636 6.82129L23.9727 3.67383ZM24.8454 11H25.5866V5.38721H24.8454V11ZM24.7004 4.00146C24.7004 4.2915 24.9313 4.52246 25.216 4.52246C25.5007 4.52246 25.737 4.2915 25.737 4.00146C25.737 3.7168 25.5007 3.48584 25.216 3.48584C24.9313 3.48584 24.7004 3.7168 24.7004 4.00146ZM29.1234 11.0913C30.348 11.0913 31.0677 10.3931 31.2611 9.52295H30.5091C30.3426 10.0547 29.8968 10.4521 29.1449 10.4521C28.1512 10.4521 27.5658 9.67871 27.5658 8.50244V8.36816H31.3416V7.90088C31.3416 6.32178 30.5038 5.29053 29.0804 5.29053C27.641 5.29053 26.8192 6.32715 26.8192 7.8418V8.48096C26.8192 10.0708 27.6839 11.0913 29.1234 11.0913ZM27.5658 7.72363V7.70752C27.5658 6.68701 28.1566 5.93506 29.0804 5.93506C29.9935 5.93506 30.5951 6.68701 30.5951 7.70752V7.72363H27.5658ZM29.784 2.28271C29.8753 2.229 30.0526 2.16455 30.2459 2.16455C30.5736 2.16455 30.8153 2.36865 30.8153 2.63184C30.8153 2.86816 30.6756 3.01855 30.3372 3.16357L30.6004 3.53955C31.014 3.36768 31.3202 3.06152 31.3202 2.62646C31.3202 2.08936 30.9173 1.72412 30.3158 1.72412C30.0848 1.72412 29.8753 1.77246 29.784 1.83154V2.28271ZM27.7054 4.60303H28.3392L29.0697 3.50195H29.0858L29.8163 4.60303H30.45L29.3006 2.96484H28.8548L27.7054 4.60303ZM32.4937 11H33.2349V7.41211C33.2349 6.52588 33.7881 5.97266 34.5669 5.97266C35.3887 5.97266 35.8775 6.48291 35.8775 7.396V11H36.6133V7.40137C36.6133 6.60107 37.086 5.97266 37.9614 5.97266C38.7993 5.97266 39.2559 6.52588 39.2559 7.3208V11H39.9971V7.17578C39.9971 5.99951 39.2774 5.29053 38.1172 5.29053C37.1665 5.29053 36.5864 5.77393 36.3931 6.25195H36.3609C36.1514 5.68799 35.625 5.29053 34.7227 5.29053C33.9331 5.29053 33.4497 5.73096 33.2725 6.11768H33.2349V5.38721H32.4937V11ZM43.6063 5.38721H42.8168V6.021H43.6063V9.50146C43.6063 10.5703 43.8587 11.0537 45.1102 11.0537C45.3036 11.0537 45.4916 11.0322 45.5775 11.0107V10.4038C45.4916 10.4146 45.4003 10.4199 45.2928 10.4199C44.5785 10.4199 44.3421 10.2427 44.3421 9.55518V6.021H45.5292V5.38721H44.3421V3.98535H43.6063V5.38721ZM46.6328 11H47.3741V7.53564C47.3741 6.66553 47.7393 5.98877 48.7491 5.98877C48.9209 5.98877 49.1035 5.99951 49.1841 6.01562V5.32275C49.0821 5.31201 48.9639 5.30127 48.835 5.30127C47.9864 5.30127 47.5674 5.76318 47.3955 6.1499H47.3741V5.38721H46.6328V11ZM53.1076 10.248H53.1291V11H53.8488V7.0791C53.8488 5.93506 53.0163 5.29053 51.8454 5.29053C50.5563 5.29053 49.8957 5.96729 49.8259 6.92871H50.5295C50.6047 6.32715 51.029 5.93506 51.8186 5.93506C52.6296 5.93506 53.1076 6.35938 53.1076 7.17041V7.8042H51.5554C50.2771 7.80957 49.6057 8.43262 49.6057 9.39941C49.6057 10.4253 50.3522 11.0913 51.4372 11.0913C52.3288 11.0913 52.8552 10.6831 53.1076 10.248ZM51.6091 10.4521C50.9484 10.4521 50.3737 10.0923 50.3737 9.37793C50.3737 8.81396 50.7336 8.41113 51.5822 8.41113H53.1076V9.12549C53.1076 9.90967 52.4577 10.4521 51.6091 10.4521Z" fill="#26BED6"/>
<path opacity="0.7" d="M61 8H76" stroke="#26BED6" stroke-width="0.5"/>
<path opacity="0.7" d="M167 7.5H182" stroke="#26BED6" stroke-width="0.5"/>
<path d="M258 7.5H273" stroke="#26BED6" stroke-width="0.5"/>
<path opacity="0.7" d="M102.105 11C104.27 11 105.333 9.71094 105.333 7.33691C105.333 4.95752 104.259 3.67383 102.105 3.67383H99.8923V6.91797H99.3659V7.57861H99.8923V11H102.105ZM100.644 10.3125V7.57861H102.734V6.91797H100.644V4.36133H102.084C103.754 4.36133 104.554 5.38721 104.554 7.33691C104.554 9.28662 103.754 10.3125 102.084 10.3125H100.644ZM106.807 11H107.549V5.38721H106.807V11ZM106.662 4.00146C106.662 4.2915 106.893 4.52246 107.178 4.52246C107.463 4.52246 107.699 4.2915 107.699 4.00146C107.699 3.7168 107.463 3.48584 107.178 3.48584C106.893 3.48584 106.662 3.7168 106.662 4.00146ZM111.085 11.0913C112.31 11.0913 113.03 10.3931 113.223 9.52295H112.471C112.305 10.0547 111.859 10.4521 111.107 10.4521C110.113 10.4521 109.528 9.67871 109.528 8.50244V8.36816H113.304V7.90088C113.304 6.32178 112.466 5.29053 111.042 5.29053C109.603 5.29053 108.781 6.32715 108.781 7.8418V8.48096C108.781 10.0708 109.646 11.0913 111.085 11.0913ZM109.528 7.72363V7.70752C109.528 6.68701 110.119 5.93506 111.042 5.93506C111.956 5.93506 112.557 6.68701 112.557 7.70752V7.72363H109.528ZM113.298 3.38916L112.262 1.90674H111.478L112.708 3.38916H113.298ZM109.667 4.60303H110.301L111.032 3.50195H111.048L111.778 4.60303H112.412L111.263 2.96484H110.817L109.667 4.60303ZM114.456 11H115.197V7.5625C115.197 6.74072 115.659 5.97266 116.712 5.97266C117.603 5.97266 118.167 6.53125 118.167 7.49268V11H118.908V7.38525C118.908 6.02637 118.054 5.29053 116.9 5.29053C115.96 5.29053 115.428 5.79004 115.218 6.19287H115.197V5.38721H114.456V11ZM122.464 5.38721H121.674V6.021H122.464V9.50146C122.464 10.5703 122.716 11.0537 123.968 11.0537C124.161 11.0537 124.349 11.0322 124.435 11.0107V10.4038C124.349 10.4146 124.258 10.4199 124.15 10.4199C123.436 10.4199 123.2 10.2427 123.2 9.55518V6.021H124.387V5.38721H123.2V3.98535H122.464V5.38721ZM125.507 11H126.248V7.5625C126.248 6.74072 126.704 5.97266 127.762 5.97266C128.654 5.97266 129.223 6.53125 129.223 7.49268V11H129.959V7.38525C129.959 6.02637 129.1 5.29053 127.95 5.29053C127.01 5.29053 126.473 5.79004 126.269 6.19287H126.248V3.28174H125.507V11ZM133.421 5.29053C131.917 5.29053 131.057 6.37549 131.057 7.89551V8.48096C131.057 10.0063 131.917 11.0913 133.421 11.0913C134.925 11.0913 135.779 10.0063 135.779 8.48096V7.89551C135.779 6.38086 134.919 5.29053 133.421 5.29053ZM133.421 5.9458C134.431 5.9458 135.037 6.69238 135.037 7.93848V8.44336C135.037 9.68408 134.431 10.4307 133.421 10.4307C132.406 10.4307 131.799 9.68408 131.799 8.44336V7.93848C131.799 6.69238 132.411 5.9458 133.421 5.9458ZM132.051 4.60303H132.685L133.415 3.50195H133.432L134.162 4.60303H134.796L133.646 2.96484H133.201L132.051 4.60303ZM136.958 11H137.699V7.5625C137.699 6.74072 138.161 5.97266 139.213 5.97266C140.105 5.97266 140.669 6.53125 140.669 7.49268V11H141.41V7.38525C141.41 6.02637 140.556 5.29053 139.401 5.29053C138.461 5.29053 137.93 5.79004 137.72 6.19287H137.699V5.38721H136.958V11ZM144.85 12.3911C144.029 12.3911 143.502 11.9453 143.405 11.4297H142.637C142.756 12.3589 143.502 13.0303 144.845 13.0303C146.123 13.0303 147.16 12.2998 147.16 10.9302V5.38721H146.446V6.23584H146.424C146.172 5.72021 145.527 5.29053 144.743 5.29053C143.427 5.29053 142.503 6.2251 142.503 7.82568V8.37354C142.503 9.99561 143.432 10.9194 144.743 10.9194C145.522 10.9194 146.188 10.4844 146.403 9.96338H146.424V10.9355C146.424 11.8433 145.796 12.3911 144.85 12.3911ZM144.85 5.9458C145.801 5.9458 146.424 6.71924 146.424 7.90088V8.31445C146.424 9.50684 145.822 10.2642 144.85 10.2642C143.846 10.2642 143.244 9.51758 143.244 8.30908V7.90088C143.244 6.6709 143.841 5.9458 144.85 5.9458ZM150.817 5.38721H150.028V6.021H150.817V9.50146C150.817 10.5703 151.07 11.0537 152.321 11.0537C152.515 11.0537 152.703 11.0322 152.789 11.0107V10.4038C152.703 10.4146 152.611 10.4199 152.504 10.4199C151.79 10.4199 151.553 10.2427 151.553 9.55518V6.021H152.74V5.38721H151.553V3.98535H150.817V5.38721ZM153.892 11H154.634V5.38721H153.892V11ZM153.747 4.00146C153.747 4.2915 153.978 4.52246 154.263 4.52246C154.548 4.52246 154.784 4.2915 154.784 4.00146C154.784 3.7168 154.548 3.48584 154.263 3.48584C153.978 3.48584 153.747 3.7168 153.747 4.00146ZM156.097 11H156.838V7.5625C156.838 6.74072 157.3 5.97266 158.353 5.97266C159.245 5.97266 159.808 6.53125 159.808 7.49268V11H160.55V7.38525C160.55 6.02637 159.696 5.29053 158.541 5.29053C157.601 5.29053 157.069 5.79004 156.86 6.19287H156.838V5.38721H156.097V11Z" fill="#26BED6"/>
<path opacity="0.7" d="M206.174 11V4.35596H208.462V3.67383H203.15V4.35596H205.433V11H206.174ZM209.179 11H209.921V7.5625C209.921 6.74072 210.377 5.97266 211.435 5.97266C212.327 5.97266 212.896 6.53125 212.896 7.49268V11H213.632V7.38525C213.632 6.02637 212.773 5.29053 211.623 5.29053C210.683 5.29053 210.146 5.79004 209.942 6.19287H209.921V3.28174H209.179V11ZM218.13 10.248H218.152V11H218.871V7.0791C218.871 5.93506 218.039 5.29053 216.868 5.29053C215.579 5.29053 214.918 5.96729 214.848 6.92871H215.552C215.627 6.32715 216.052 5.93506 216.841 5.93506C217.652 5.93506 218.13 6.35938 218.13 7.17041V7.8042H216.578C215.3 7.80957 214.628 8.43262 214.628 9.39941C214.628 10.4253 215.375 11.0913 216.46 11.0913C217.351 11.0913 217.878 10.6831 218.13 10.248ZM216.632 10.4521C215.971 10.4521 215.396 10.0923 215.396 9.37793C215.396 8.81396 215.756 8.41113 216.605 8.41113H218.13V9.12549C218.13 9.90967 217.48 10.4521 216.632 10.4521ZM220.233 11H220.974V7.5625C220.974 6.74072 221.436 5.97266 222.489 5.97266C223.38 5.97266 223.944 6.53125 223.944 7.49268V11H224.686V7.38525C224.686 6.02637 223.832 5.29053 222.677 5.29053C221.737 5.29053 221.205 5.79004 220.996 6.19287H220.974V5.38721H220.233V11ZM226.026 11H226.767V7.5625C226.767 6.74072 227.223 5.97266 228.281 5.97266C229.173 5.97266 229.742 6.53125 229.742 7.49268V11H230.478V7.38525C230.478 6.02637 229.619 5.29053 228.469 5.29053C227.529 5.29053 226.992 5.79004 226.788 6.19287H226.767V3.28174H226.026V11ZM234.039 5.38721H233.25V6.021H234.039V9.50146C234.039 10.5703 234.292 11.0537 235.543 11.0537C235.736 11.0537 235.924 11.0322 236.01 11.0107V10.4038C235.924 10.4146 235.833 10.4199 235.726 10.4199C235.011 10.4199 234.775 10.2427 234.775 9.55518V6.021H235.962V5.38721H234.775V3.98535H234.039V5.38721ZM239.112 5.29053C237.608 5.29053 236.749 6.37549 236.749 7.89551V8.48096C236.749 10.0063 237.608 11.0913 239.112 11.0913C240.616 11.0913 241.47 10.0063 241.47 8.48096V7.89551C241.47 6.38086 240.611 5.29053 239.112 5.29053ZM239.112 5.9458C240.122 5.9458 240.729 6.69238 240.729 7.93848V8.44336C240.729 9.68408 240.122 10.4307 239.112 10.4307C238.097 10.4307 237.49 9.68408 237.49 8.44336V7.93848C237.49 6.69238 238.102 5.9458 239.112 5.9458ZM245.818 10.248H245.839V11H246.559V7.0791C246.559 5.93506 245.726 5.29053 244.556 5.29053C243.266 5.29053 242.606 5.96729 242.536 6.92871H243.24C243.315 6.32715 243.739 5.93506 244.529 5.93506C245.34 5.93506 245.818 6.35938 245.818 7.17041V7.8042H244.265C242.987 7.80957 242.316 8.43262 242.316 9.39941C242.316 10.4253 243.062 11.0913 244.147 11.0913C245.039 11.0913 245.565 10.6831 245.818 10.248ZM244.319 10.4521C243.659 10.4521 243.084 10.0923 243.084 9.37793C243.084 8.81396 243.444 8.41113 244.292 8.41113H245.818V9.12549C245.818 9.90967 245.168 10.4521 244.319 10.4521ZM244.829 4.60303L246.059 3.12061H245.275L244.239 4.60303H244.829ZM247.92 11H248.662V7.5625C248.662 6.74072 249.124 5.97266 250.176 5.97266C251.068 5.97266 251.632 6.53125 251.632 7.49268V11H252.373V7.38525C252.373 6.02637 251.519 5.29053 250.364 5.29053C249.424 5.29053 248.893 5.79004 248.683 6.19287H248.662V5.38721H247.92V11Z" fill="#26BED6"/>
<path d="M299.762 11V3.66846H298.307V6.64941H295.229V3.66846H293.779V11H295.229V7.85791H298.307V11H299.762ZM303.31 5.19922C301.629 5.19922 300.699 6.354 300.699 7.92773V8.34668C300.699 10.001 301.629 11.1021 303.31 11.1021C304.991 11.1021 305.915 10.001 305.915 8.34131V7.92236C305.915 6.34863 304.986 5.19922 303.31 5.19922ZM303.31 6.29492C304.126 6.29492 304.486 6.99316 304.486 7.92236V8.36279C304.486 9.26514 304.132 10.001 303.31 10.001C302.483 10.001 302.128 9.25977 302.128 8.36279V7.92236C302.128 6.99854 302.493 6.29492 303.31 6.29492ZM309.908 10.3071H309.967V11H311.305V7.14893C311.305 5.82227 310.306 5.20996 308.995 5.20996C307.351 5.20996 306.739 6.09082 306.696 7.0415H308.017C308.055 6.58496 308.388 6.27881 308.968 6.27881C309.564 6.27881 309.908 6.5957 309.908 7.16504V7.68066H308.517C307.196 7.68066 306.487 8.33594 306.487 9.35645C306.487 10.4307 307.249 11.0859 308.361 11.0859C309.199 11.0859 309.682 10.7261 309.908 10.3071ZM308.818 10.0547C308.345 10.0547 307.894 9.79688 307.894 9.26514C307.894 8.83008 308.2 8.5293 308.823 8.5293H309.908V9.13086C309.908 9.68408 309.425 10.0547 308.818 10.0547ZM309.586 4.61914L308.495 3.05615H307.249L308.592 4.61914H309.586ZM312.344 11H313.751V7.65918C313.751 6.93945 314.148 6.41309 314.879 6.41309C315.486 6.41309 315.991 6.76221 315.991 7.6377V11H317.403V7.33154C317.403 5.93506 316.592 5.20996 315.432 5.20996C314.481 5.20996 313.96 5.7417 313.778 6.13379H313.719V5.30127H312.344V11ZM320.733 5.30127H319.901V6.39697H320.706V9.38867C320.706 10.5542 321.174 11.0322 322.592 11.0322C322.876 11.0322 323.129 11.0054 323.236 10.9839V9.93652C323.172 9.94189 323.054 9.94727 322.935 9.94727C322.35 9.94727 322.108 9.77539 322.108 9.20605V6.39697H323.215V5.30127H322.108V3.93701H320.733V5.30127ZM324.147 11H325.559V7.65918C325.559 6.93945 325.962 6.41309 326.692 6.41309C327.31 6.41309 327.81 6.76221 327.81 7.6377V11H329.222V7.33154C329.222 5.93506 328.4 5.20996 327.251 5.20996C326.306 5.20996 325.801 5.7417 325.618 6.13379H325.559V3.28174H324.147V11ZM333.366 10.3071H333.425V11H334.762V7.14893C334.762 5.82227 333.763 5.20996 332.453 5.20996C330.809 5.20996 330.197 6.09082 330.154 7.0415H331.475C331.513 6.58496 331.846 6.27881 332.426 6.27881C333.022 6.27881 333.366 6.5957 333.366 7.16504V7.68066H331.975C330.654 7.68066 329.945 8.33594 329.945 9.35645C329.945 10.4307 330.707 11.0859 331.819 11.0859C332.657 11.0859 333.14 10.7261 333.366 10.3071ZM332.276 10.0547C331.803 10.0547 331.352 9.79688 331.352 9.26514C331.352 8.83008 331.658 8.5293 332.281 8.5293H333.366V9.13086C333.366 9.68408 332.883 10.0547 332.276 10.0547ZM333.044 4.61914L331.953 3.05615H330.707L332.05 4.61914H333.044ZM335.802 11H337.209V7.65918C337.209 6.93945 337.606 6.41309 338.337 6.41309C338.944 6.41309 339.449 6.76221 339.449 7.6377V11H340.861V7.33154C340.861 5.93506 340.05 5.20996 338.89 5.20996C337.939 5.20996 337.418 5.7417 337.236 6.13379H337.177V5.30127H335.802V11ZM341.906 11H343.318V7.65918C343.318 6.93945 343.721 6.41309 344.452 6.41309C345.069 6.41309 345.569 6.76221 345.569 7.6377V11H346.981V7.33154C346.981 5.93506 346.16 5.20996 345.01 5.20996C344.065 5.20996 343.56 5.7417 343.377 6.13379H343.318V3.28174H341.906V11Z" fill="#26BED6"/>
</svg>
