<svg width="345" height="15" viewBox="0 0 345 15" fill="none" xmlns="http://www.w3.org/2000/svg">
<g opacity="0.7">
<path d="M12.1094 4.8125C12.1094 4.61719 12.0313 4.42187 11.8906 4.28125L10.8281 3.21875C10.6875 3.07812 10.4922 3 10.2969 3C10.1016 3 9.90625 3.07812 9.76562 3.21875L4.64062 8.35156L2.34375 6.04687C2.20312 5.90625 2.00781 5.82812 1.8125 5.82812C1.61719 5.82812 1.42187 5.90625 1.28125 6.04687L0.21875 7.10937C0.0781249 7.25 0 7.44531 0 7.64062C0 7.83594 0.0781249 8.03125 0.21875 8.17187L3.04688 11L4.10938 12.0625C4.25 12.2031 4.44531 12.2812 4.64062 12.2812C4.83594 12.2812 5.03125 12.2031 5.17188 12.0625L6.23438 11L11.8906 5.34375C12.0313 5.20312 12.1094 5.00781 12.1094 4.8125Z" fill="#26BED6"/>
</g>
<circle cx="86.5" cy="7.5" r="7.5" fill="#26BED6"/>
<path d="M85.8799 5.85449C85.8799 5.83838 85.8799 5.80078 85.8799 5.77393C85.8799 5.18848 86.3096 4.68896 86.9917 4.68896C87.6147 4.68896 88.0767 5.0918 88.0767 5.71484C88.0767 6.26807 87.7383 6.70312 87.2603 7.20801L84.5962 10.0977V11H89.645V9.81836H86.5728V9.77539L88.2271 7.91699C89.0703 7.01465 89.5161 6.43457 89.5161 5.58057C89.5161 4.38281 88.5332 3.52881 87.0562 3.52881C85.4932 3.52881 84.5049 4.54932 84.5049 5.78467V5.85449H85.8799Z" fill="white"/>
<circle cx="191.5" cy="7.5" r="7.5" fill="#BDBDBD"/>
<path d="M191.256 7.78271H192.045C192.899 7.78271 193.383 8.24463 193.388 8.87842C193.394 9.52295 192.899 10.0063 192.056 10.0063C191.256 10.0063 190.789 9.5498 190.729 8.95898H189.392C189.419 10.1353 190.257 11.145 192.019 11.145C193.576 11.145 194.854 10.2749 194.838 8.94824C194.822 7.77197 193.952 7.22949 193.275 7.18115V7.12744C193.834 7.04688 194.618 6.47217 194.602 5.43555C194.581 4.32373 193.533 3.52881 192.078 3.52881C190.45 3.52881 189.564 4.49023 189.532 5.66113H190.885C190.917 5.18311 191.277 4.65137 192.029 4.65137C192.717 4.65137 193.173 5.06494 193.173 5.62891C193.179 6.23584 192.706 6.66553 192.008 6.66553H191.256V7.78271Z" fill="white"/>
<circle cx="282.5" cy="7.5" r="7.5" fill="#BDBDBD"/>
<path d="M282.223 3.66846C281.229 5.23145 280.235 6.85889 279.376 8.47021V9.64111H282.921V11H284.285V9.64111H285.182V8.47021H284.285V3.66846H282.223ZM280.692 8.47021V8.4541C281.347 7.20801 282.121 5.92969 282.873 4.76416H282.921V8.47021H280.692Z" fill="white"/>
<path opacity="0.7" d="M23.9727 3.67383H23.0649L19.708 7.34766H19.6812V3.67383H18.9292V11H19.6812V8.33594L20.605 7.34229L23.1616 11H24.1284L21.1636 6.82129L23.9727 3.67383ZM24.8454 11H25.5866V5.38721H24.8454V11ZM24.7004 4.00146C24.7004 4.2915 24.9313 4.52246 25.216 4.52246C25.5007 4.52246 25.737 4.2915 25.737 4.00146C25.737 3.7168 25.5007 3.48584 25.216 3.48584C24.9313 3.48584 24.7004 3.7168 24.7004 4.00146ZM29.1234 11.0913C30.348 11.0913 31.0677 10.3931 31.2611 9.52295H30.5091C30.3426 10.0547 29.8968 10.4521 29.1449 10.4521C28.1512 10.4521 27.5658 9.67871 27.5658 8.50244V8.36816H31.3416V7.90088C31.3416 6.32178 30.5038 5.29053 29.0804 5.29053C27.641 5.29053 26.8192 6.32715 26.8192 7.8418V8.48096C26.8192 10.0708 27.6839 11.0913 29.1234 11.0913ZM27.5658 7.72363V7.70752C27.5658 6.68701 28.1566 5.93506 29.0804 5.93506C29.9935 5.93506 30.5951 6.68701 30.5951 7.70752V7.72363H27.5658ZM29.784 2.28271C29.8753 2.229 30.0526 2.16455 30.2459 2.16455C30.5736 2.16455 30.8153 2.36865 30.8153 2.63184C30.8153 2.86816 30.6756 3.01855 30.3372 3.16357L30.6004 3.53955C31.014 3.36768 31.3202 3.06152 31.3202 2.62646C31.3202 2.08936 30.9173 1.72412 30.3158 1.72412C30.0848 1.72412 29.8753 1.77246 29.784 1.83154V2.28271ZM27.7054 4.60303H28.3392L29.0697 3.50195H29.0858L29.8163 4.60303H30.45L29.3006 2.96484H28.8548L27.7054 4.60303ZM32.4937 11H33.2349V7.41211C33.2349 6.52588 33.7881 5.97266 34.5669 5.97266C35.3887 5.97266 35.8775 6.48291 35.8775 7.396V11H36.6133V7.40137C36.6133 6.60107 37.086 5.97266 37.9614 5.97266C38.7993 5.97266 39.2559 6.52588 39.2559 7.3208V11H39.9971V7.17578C39.9971 5.99951 39.2774 5.29053 38.1172 5.29053C37.1665 5.29053 36.5864 5.77393 36.3931 6.25195H36.3609C36.1514 5.68799 35.625 5.29053 34.7227 5.29053C33.9331 5.29053 33.4497 5.73096 33.2725 6.11768H33.2349V5.38721H32.4937V11ZM43.6063 5.38721H42.8168V6.021H43.6063V9.50146C43.6063 10.5703 43.8587 11.0537 45.1102 11.0537C45.3036 11.0537 45.4916 11.0322 45.5775 11.0107V10.4038C45.4916 10.4146 45.4003 10.4199 45.2928 10.4199C44.5785 10.4199 44.3421 10.2427 44.3421 9.55518V6.021H45.5292V5.38721H44.3421V3.98535H43.6063V5.38721ZM46.6328 11H47.3741V7.53564C47.3741 6.66553 47.7393 5.98877 48.7491 5.98877C48.9209 5.98877 49.1035 5.99951 49.1841 6.01562V5.32275C49.0821 5.31201 48.9639 5.30127 48.835 5.30127C47.9864 5.30127 47.5674 5.76318 47.3955 6.1499H47.3741V5.38721H46.6328V11ZM53.1076 10.248H53.1291V11H53.8488V7.0791C53.8488 5.93506 53.0163 5.29053 51.8454 5.29053C50.5563 5.29053 49.8957 5.96729 49.8259 6.92871H50.5295C50.6047 6.32715 51.029 5.93506 51.8186 5.93506C52.6296 5.93506 53.1076 6.35938 53.1076 7.17041V7.8042H51.5554C50.2771 7.80957 49.6057 8.43262 49.6057 9.39941C49.6057 10.4253 50.3522 11.0913 51.4372 11.0913C52.3288 11.0913 52.8552 10.6831 53.1076 10.248ZM51.6091 10.4521C50.9484 10.4521 50.3737 10.0923 50.3737 9.37793C50.3737 8.81396 50.7336 8.41113 51.5822 8.41113H53.1076V9.12549C53.1076 9.90967 52.4577 10.4521 51.6091 10.4521Z" fill="#26BED6"/>
<path opacity="0.7" d="M61 8H76" stroke="#26BED6" stroke-width="0.5"/>
<path d="M167 7.5H182" stroke="#BDBDBD" stroke-width="0.5"/>
<path d="M258 7.5H273" stroke="#BDBDBD" stroke-width="0.5"/>
<path d="M102.551 11C104.764 11 105.827 9.64648 105.827 7.31543C105.827 4.99512 104.78 3.66846 102.551 3.66846H99.8708V6.64941H99.2209V7.90625H99.8708V11H102.551ZM101.321 9.78613V7.90625H102.879V6.64941H101.321V4.82861H102.347C103.797 4.82861 104.329 5.80078 104.329 7.31543C104.329 9.16846 103.566 9.78613 102.347 9.78613H101.321ZM106.904 11H108.317V5.30127H106.904V11ZM106.807 3.88867C106.807 4.3291 107.173 4.62988 107.608 4.62988C108.048 4.62988 108.408 4.3291 108.408 3.88867C108.408 3.44824 108.048 3.14209 107.608 3.14209C107.173 3.14209 106.807 3.44824 106.807 3.88867ZM111.821 11.1021C113.347 11.1021 114.088 10.1943 114.222 9.28125H112.912C112.793 9.74316 112.396 10.0225 111.832 10.0225C111.112 10.0225 110.624 9.47461 110.624 8.60986V8.4541H114.276V7.89551C114.276 6.25732 113.314 5.19922 111.762 5.19922C110.264 5.19922 109.238 6.1875 109.238 7.85791V8.37891C109.238 10.1245 110.258 11.1021 111.821 11.1021ZM110.624 7.55713V7.54639C110.624 6.81592 111.08 6.25195 111.773 6.25195C112.46 6.25195 112.906 6.81055 112.906 7.54639V7.55713H110.624ZM114.55 3.42139L113.459 1.8584H112.219L113.556 3.42139H114.55ZM110.054 4.61914H111.128L111.746 3.68457H111.773L112.385 4.61914H113.459L112.235 2.9541H111.284L110.054 4.61914ZM115.127 11H116.534V7.65918C116.534 6.93945 116.932 6.41309 117.662 6.41309C118.269 6.41309 118.774 6.76221 118.774 7.6377V11H120.187V7.33154C120.187 5.93506 119.376 5.20996 118.216 5.20996C117.265 5.20996 116.744 5.7417 116.561 6.13379H116.502V5.30127H115.127V11ZM123.517 5.30127H122.684V6.39697H123.49V9.38867C123.49 10.5542 123.957 11.0322 125.375 11.0322C125.66 11.0322 125.912 11.0054 126.02 10.9839V9.93652C125.955 9.94189 125.837 9.94727 125.719 9.94727C125.133 9.94727 124.892 9.77539 124.892 9.20605V6.39697H125.998V5.30127H124.892V3.93701H123.517V5.30127ZM126.93 11H128.342V7.65918C128.342 6.93945 128.745 6.41309 129.476 6.41309C130.093 6.41309 130.593 6.76221 130.593 7.6377V11H132.006V7.33154C132.006 5.93506 131.184 5.20996 130.034 5.20996C129.089 5.20996 128.584 5.7417 128.402 6.13379H128.342V3.28174H126.93V11ZM135.403 5.19922C133.722 5.19922 132.792 6.354 132.792 7.92773V8.34668C132.792 10.001 133.722 11.1021 135.403 11.1021C137.084 11.1021 138.008 10.001 138.008 8.34131V7.92236C138.008 6.34863 137.078 5.19922 135.403 5.19922ZM135.403 6.29492C136.219 6.29492 136.579 6.99316 136.579 7.92236V8.36279C136.579 9.26514 136.224 10.001 135.403 10.001C134.576 10.001 134.221 9.25977 134.221 8.36279V7.92236C134.221 6.99854 134.586 6.29492 135.403 6.29492ZM133.705 4.61914H134.78L135.397 3.68457H135.424L136.036 4.61914H137.111L135.886 2.9541H134.935L133.705 4.61914ZM138.875 11H140.282V7.65918C140.282 6.93945 140.68 6.41309 141.41 6.41309C142.017 6.41309 142.522 6.76221 142.522 7.6377V11H143.935V7.33154C143.935 5.93506 143.124 5.20996 141.963 5.20996C141.013 5.20996 140.492 5.7417 140.309 6.13379H140.25V5.30127H138.875V11ZM147.375 12.0474C146.752 12.0474 146.333 11.7573 146.241 11.3545H144.872C144.952 12.3052 145.715 13.084 147.353 13.084C148.642 13.084 150.001 12.4878 150.001 10.9302V5.30127H148.605V6.13916H148.546C148.315 5.61816 147.708 5.22607 146.924 5.22607C145.624 5.22607 144.748 6.16064 144.748 7.89014V8.24463C144.748 9.99561 145.629 10.9248 146.924 10.9248C147.718 10.9248 148.315 10.5273 148.53 10.0278H148.589V10.8389C148.589 11.6069 148.132 12.0474 147.375 12.0474ZM147.407 6.354C148.116 6.354 148.589 6.93408 148.589 7.93848V8.27148C148.589 9.28662 148.137 9.86133 147.407 9.86133C146.655 9.86133 146.198 9.29199 146.198 8.27148V7.93848C146.198 6.9126 146.655 6.354 147.407 6.354ZM153.406 5.30127H152.574V6.39697H153.379V9.38867C153.379 10.5542 153.847 11.0322 155.265 11.0322C155.549 11.0322 155.802 11.0054 155.909 10.9839V9.93652C155.845 9.94189 155.727 9.94727 155.608 9.94727C155.023 9.94727 154.781 9.77539 154.781 9.20605V6.39697H155.888V5.30127H154.781V3.93701H153.406V5.30127ZM156.857 11H158.27V5.30127H156.857V11ZM156.76 3.88867C156.76 4.3291 157.126 4.62988 157.561 4.62988C158.001 4.62988 158.361 4.3291 158.361 3.88867C158.361 3.44824 158.001 3.14209 157.561 3.14209C157.126 3.14209 156.76 3.44824 156.76 3.88867ZM159.422 11H160.829V7.65918C160.829 6.93945 161.226 6.41309 161.957 6.41309C162.564 6.41309 163.069 6.76221 163.069 7.6377V11H164.481V7.33154C164.481 5.93506 163.67 5.20996 162.51 5.20996C161.559 5.20996 161.038 5.7417 160.856 6.13379H160.797V5.30127H159.422V11Z" fill="#26BED6"/>
<path d="M206.174 11V4.35596H208.462V3.67383H203.15V4.35596H205.433V11H206.174ZM209.179 11H209.921V7.5625C209.921 6.74072 210.377 5.97266 211.435 5.97266C212.327 5.97266 212.896 6.53125 212.896 7.49268V11H213.632V7.38525C213.632 6.02637 212.773 5.29053 211.623 5.29053C210.683 5.29053 210.146 5.79004 209.942 6.19287H209.921V3.28174H209.179V11ZM218.13 10.248H218.152V11H218.871V7.0791C218.871 5.93506 218.039 5.29053 216.868 5.29053C215.579 5.29053 214.918 5.96729 214.848 6.92871H215.552C215.627 6.32715 216.052 5.93506 216.841 5.93506C217.652 5.93506 218.13 6.35938 218.13 7.17041V7.8042H216.578C215.3 7.80957 214.628 8.43262 214.628 9.39941C214.628 10.4253 215.375 11.0913 216.46 11.0913C217.351 11.0913 217.878 10.6831 218.13 10.248ZM216.632 10.4521C215.971 10.4521 215.396 10.0923 215.396 9.37793C215.396 8.81396 215.756 8.41113 216.605 8.41113H218.13V9.12549C218.13 9.90967 217.48 10.4521 216.632 10.4521ZM220.233 11H220.974V7.5625C220.974 6.74072 221.436 5.97266 222.489 5.97266C223.38 5.97266 223.944 6.53125 223.944 7.49268V11H224.686V7.38525C224.686 6.02637 223.832 5.29053 222.677 5.29053C221.737 5.29053 221.205 5.79004 220.996 6.19287H220.974V5.38721H220.233V11ZM226.026 11H226.767V7.5625C226.767 6.74072 227.223 5.97266 228.281 5.97266C229.173 5.97266 229.742 6.53125 229.742 7.49268V11H230.478V7.38525C230.478 6.02637 229.619 5.29053 228.469 5.29053C227.529 5.29053 226.992 5.79004 226.788 6.19287H226.767V3.28174H226.026V11ZM234.039 5.38721H233.25V6.021H234.039V9.50146C234.039 10.5703 234.292 11.0537 235.543 11.0537C235.736 11.0537 235.924 11.0322 236.01 11.0107V10.4038C235.924 10.4146 235.833 10.4199 235.726 10.4199C235.011 10.4199 234.775 10.2427 234.775 9.55518V6.021H235.962V5.38721H234.775V3.98535H234.039V5.38721ZM239.112 5.29053C237.608 5.29053 236.749 6.37549 236.749 7.89551V8.48096C236.749 10.0063 237.608 11.0913 239.112 11.0913C240.616 11.0913 241.47 10.0063 241.47 8.48096V7.89551C241.47 6.38086 240.611 5.29053 239.112 5.29053ZM239.112 5.9458C240.122 5.9458 240.729 6.69238 240.729 7.93848V8.44336C240.729 9.68408 240.122 10.4307 239.112 10.4307C238.097 10.4307 237.49 9.68408 237.49 8.44336V7.93848C237.49 6.69238 238.102 5.9458 239.112 5.9458ZM245.818 10.248H245.839V11H246.559V7.0791C246.559 5.93506 245.726 5.29053 244.556 5.29053C243.266 5.29053 242.606 5.96729 242.536 6.92871H243.24C243.315 6.32715 243.739 5.93506 244.529 5.93506C245.34 5.93506 245.818 6.35938 245.818 7.17041V7.8042H244.265C242.987 7.80957 242.316 8.43262 242.316 9.39941C242.316 10.4253 243.062 11.0913 244.147 11.0913C245.039 11.0913 245.565 10.6831 245.818 10.248ZM244.319 10.4521C243.659 10.4521 243.084 10.0923 243.084 9.37793C243.084 8.81396 243.444 8.41113 244.292 8.41113H245.818V9.12549C245.818 9.90967 245.168 10.4521 244.319 10.4521ZM244.829 4.60303L246.059 3.12061H245.275L244.239 4.60303H244.829ZM247.92 11H248.662V7.5625C248.662 6.74072 249.124 5.97266 250.176 5.97266C251.068 5.97266 251.632 6.53125 251.632 7.49268V11H252.373V7.38525C252.373 6.02637 251.519 5.29053 250.364 5.29053C249.424 5.29053 248.893 5.79004 248.683 6.19287H248.662V5.38721H247.92V11Z" fill="#BDBDBD"/>
<path d="M299.333 11V3.67383H298.581V6.84814H294.681V3.67383H293.929V11H294.681V7.53027H298.581V11H299.333ZM302.939 5.29053C301.435 5.29053 300.576 6.37549 300.576 7.89551V8.48096C300.576 10.0063 301.435 11.0913 302.939 11.0913C304.443 11.0913 305.297 10.0063 305.297 8.48096V7.89551C305.297 6.38086 304.438 5.29053 302.939 5.29053ZM302.939 5.9458C303.949 5.9458 304.556 6.69238 304.556 7.93848V8.44336C304.556 9.68408 303.949 10.4307 302.939 10.4307C301.924 10.4307 301.317 9.68408 301.317 8.44336V7.93848C301.317 6.69238 301.929 5.9458 302.939 5.9458ZM309.645 10.248H309.666V11H310.386V7.0791C310.386 5.93506 309.554 5.29053 308.383 5.29053C307.094 5.29053 306.433 5.96729 306.363 6.92871H307.067C307.142 6.32715 307.566 5.93506 308.356 5.93506C309.167 5.93506 309.645 6.35938 309.645 7.17041V7.8042H308.093C306.814 7.80957 306.143 8.43262 306.143 9.39941C306.143 10.4253 306.889 11.0913 307.974 11.0913C308.866 11.0913 309.392 10.6831 309.645 10.248ZM308.146 10.4521C307.486 10.4521 306.911 10.0923 306.911 9.37793C306.911 8.81396 307.271 8.41113 308.119 8.41113H309.645V9.12549C309.645 9.90967 308.995 10.4521 308.146 10.4521ZM308.764 4.60303L307.727 3.12061H306.943L308.173 4.60303H308.764ZM311.748 11H312.489V7.5625C312.489 6.74072 312.951 5.97266 314.003 5.97266C314.895 5.97266 315.459 6.53125 315.459 7.49268V11H316.2V7.38525C316.2 6.02637 315.346 5.29053 314.191 5.29053C313.251 5.29053 312.72 5.79004 312.51 6.19287H312.489V5.38721H311.748V11ZM319.756 5.38721H318.966V6.021H319.756V9.50146C319.756 10.5703 320.008 11.0537 321.26 11.0537C321.453 11.0537 321.641 11.0322 321.727 11.0107V10.4038C321.641 10.4146 321.55 10.4199 321.442 10.4199C320.728 10.4199 320.492 10.2427 320.492 9.55518V6.021H321.679V5.38721H320.492V3.98535H319.756V5.38721ZM322.798 11H323.54V7.5625C323.54 6.74072 323.996 5.97266 325.054 5.97266C325.946 5.97266 326.515 6.53125 326.515 7.49268V11H327.251V7.38525C327.251 6.02637 326.392 5.29053 325.242 5.29053C324.302 5.29053 323.765 5.79004 323.561 6.19287H323.54V3.28174H322.798V11ZM331.749 10.248H331.771V11H332.49V7.0791C332.49 5.93506 331.658 5.29053 330.487 5.29053C329.198 5.29053 328.537 5.96729 328.467 6.92871H329.171C329.246 6.32715 329.671 5.93506 330.46 5.93506C331.271 5.93506 331.749 6.35938 331.749 7.17041V7.8042H330.197C328.919 7.80957 328.247 8.43262 328.247 9.39941C328.247 10.4253 328.994 11.0913 330.079 11.0913C330.97 11.0913 331.497 10.6831 331.749 10.248ZM330.251 10.4521C329.59 10.4521 329.015 10.0923 329.015 9.37793C329.015 8.81396 329.375 8.41113 330.224 8.41113H331.749V9.12549C331.749 9.90967 331.099 10.4521 330.251 10.4521ZM330.868 4.60303L329.832 3.12061H329.048L330.278 4.60303H330.868ZM333.852 11H334.593V7.5625C334.593 6.74072 335.055 5.97266 336.108 5.97266C336.999 5.97266 337.563 6.53125 337.563 7.49268V11H338.305V7.38525C338.305 6.02637 337.451 5.29053 336.296 5.29053C335.356 5.29053 334.824 5.79004 334.615 6.19287H334.593V5.38721H333.852V11ZM339.645 11H340.386V7.5625C340.386 6.74072 340.842 5.97266 341.9 5.97266C342.792 5.97266 343.361 6.53125 343.361 7.49268V11H344.097V7.38525C344.097 6.02637 343.238 5.29053 342.088 5.29053C341.148 5.29053 340.611 5.79004 340.407 6.19287H340.386V3.28174H339.645V11Z" fill="#BDBDBD"/>
</svg>
