<svg width="346" height="15" viewBox="0 0 346 15" fill="none" xmlns="http://www.w3.org/2000/svg">
<circle cx="7.5" cy="7.5" r="7.5" fill="#26BED6"/>
<path d="M8.64697 11V3.66846H7.24512C6.92285 3.84033 5.78955 4.5708 5.47266 4.80176V6.12842C5.76807 5.92432 6.93359 5.16699 7.15918 5.04346H7.20752V11H8.64697Z" fill="white"/>
<circle cx="86.5" cy="7.5" r="7.5" fill="#BDBDBD"/>
<path d="M85.8799 5.85449C85.8799 5.83838 85.8799 5.80078 85.8799 5.77393C85.8799 5.18848 86.3096 4.68896 86.9917 4.68896C87.6147 4.68896 88.0767 5.0918 88.0767 5.71484C88.0767 6.26807 87.7383 6.70312 87.2603 7.20801L84.5962 10.0977V11H89.645V9.81836H86.5728V9.77539L88.2271 7.91699C89.0703 7.01465 89.5161 6.43457 89.5161 5.58057C89.5161 4.38281 88.5332 3.52881 87.0562 3.52881C85.4932 3.52881 84.5049 4.54932 84.5049 5.78467V5.85449H85.8799Z" fill="white"/>
<circle cx="191.5" cy="7.5" r="7.5" fill="#BDBDBD"/>
<path d="M191.256 7.78271H192.045C192.899 7.78271 193.383 8.24463 193.388 8.87842C193.394 9.52295 192.899 10.0063 192.056 10.0063C191.256 10.0063 190.789 9.5498 190.729 8.95898H189.392C189.419 10.1353 190.257 11.145 192.019 11.145C193.576 11.145 194.854 10.2749 194.838 8.94824C194.822 7.77197 193.952 7.22949 193.275 7.18115V7.12744C193.834 7.04688 194.618 6.47217 194.602 5.43555C194.581 4.32373 193.533 3.52881 192.078 3.52881C190.45 3.52881 189.564 4.49023 189.532 5.66113H190.885C190.917 5.18311 191.277 4.65137 192.029 4.65137C192.717 4.65137 193.173 5.06494 193.173 5.62891C193.179 6.23584 192.706 6.66553 192.008 6.66553H191.256V7.78271Z" fill="white"/>
<circle cx="282.5" cy="7.5" r="7.5" fill="#BDBDBD"/>
<path d="M282.223 3.66846C281.229 5.23145 280.235 6.85889 279.376 8.47021V9.64111H282.921V11H284.285V9.64111H285.182V8.47021H284.285V3.66846H282.223ZM280.692 8.47021V8.4541C281.347 7.20801 282.121 5.92969 282.873 4.76416H282.921V8.47021H280.692Z" fill="white"/>
<path d="M25.6655 3.66846H24.0703L21.2935 6.9502H21.229V3.66846H19.7788V11H21.229V8.64746L21.981 7.79346L24.0327 11H25.7783L23.0498 6.82666L25.6655 3.66846ZM26.1999 11H27.6125V5.30127H26.1999V11ZM26.1032 3.88867C26.1032 4.3291 26.4684 4.62988 26.9035 4.62988C27.3439 4.62988 27.7038 4.3291 27.7038 3.88867C27.7038 3.44824 27.3439 3.14209 26.9035 3.14209C26.4684 3.14209 26.1032 3.44824 26.1032 3.88867ZM31.117 11.1021C32.6424 11.1021 33.3836 10.1943 33.5179 9.28125H32.2074C32.0892 9.74316 31.6917 10.0225 31.1278 10.0225C30.408 10.0225 29.9193 9.47461 29.9193 8.60986V8.4541H33.5716V7.89551C33.5716 6.25732 32.6102 5.19922 31.058 5.19922C29.5594 5.19922 28.5335 6.1875 28.5335 7.85791V8.37891C28.5335 10.1245 29.554 11.1021 31.117 11.1021ZM29.9193 7.55713V7.54639C29.9193 6.81592 30.3758 6.25195 31.0687 6.25195C31.7562 6.25195 32.202 6.81055 32.202 7.54639V7.55713H29.9193ZM31.8206 2.18066C31.912 2.1377 32.0785 2.08936 32.2557 2.08936C32.578 2.08936 32.7874 2.27197 32.7874 2.51367C32.7874 2.72852 32.6478 2.86816 32.3202 3.02393L32.7015 3.50732C33.1849 3.29785 33.534 2.98633 33.534 2.44385C33.534 1.86377 33.0936 1.46631 32.39 1.46631C32.1375 1.46631 31.9281 1.50928 31.8206 1.56299V2.18066ZM29.3499 4.61914H30.4242L31.0418 3.68457H31.0687L31.681 4.61914H32.7552L31.5306 2.9541H30.5799L29.3499 4.61914ZM34.4229 11H35.8301V7.54102C35.8301 6.75146 36.2813 6.3916 36.8345 6.3916C37.4092 6.3916 37.8335 6.72998 37.8335 7.55176V11H39.1978V7.55176C39.1978 6.82129 39.5791 6.3916 40.2075 6.3916C40.8091 6.3916 41.2012 6.77295 41.2012 7.49805V11H42.6138V7.10596C42.6138 5.96729 41.9317 5.20996 40.7554 5.20996C39.7993 5.20996 39.2085 5.7041 39.0205 6.1875H38.9614C38.7681 5.60205 38.2417 5.20996 37.3662 5.20996C36.5122 5.20996 36.0288 5.7041 35.8731 6.11768H35.7979V5.30127H34.4229V11ZM45.9813 5.30127H45.1488V6.39697H45.9545V9.38867C45.9545 10.5542 46.4217 11.0322 47.8397 11.0322C48.1244 11.0322 48.3768 11.0054 48.4842 10.9839V9.93652C48.4198 9.94189 48.3016 9.94727 48.1835 9.94727C47.598 9.94727 47.3563 9.77539 47.3563 9.20605V6.39697H48.4628V5.30127H47.3563V3.93701H45.9813V5.30127ZM49.3784 11H50.8233V7.75049C50.8233 6.98779 51.1455 6.4292 52.0747 6.4292C52.295 6.4292 52.5205 6.44531 52.6333 6.47754V5.25293C52.5205 5.23145 52.3755 5.21533 52.1822 5.21533C51.4033 5.21533 50.979 5.72021 50.8501 6.08545H50.791V5.30127H49.3784V11ZM56.3044 10.3071H56.3635V11H57.7009V7.14893C57.7009 5.82227 56.7019 5.20996 55.3913 5.20996C53.7478 5.20996 53.1354 6.09082 53.0925 7.0415H54.4138C54.4514 6.58496 54.7844 6.27881 55.3645 6.27881C55.9606 6.27881 56.3044 6.5957 56.3044 7.16504V7.68066H54.9133C53.592 7.68066 52.883 8.33594 52.883 9.35645C52.883 10.4307 53.6457 11.0859 54.7575 11.0859C55.5954 11.0859 56.0788 10.7261 56.3044 10.3071ZM55.2141 10.0547C54.7414 10.0547 54.2902 9.79688 54.2902 9.26514C54.2902 8.83008 54.5964 8.5293 55.2194 8.5293H56.3044V9.13086C56.3044 9.68408 55.821 10.0547 55.2141 10.0547Z" fill="#26BED6"/>
<path d="M62 8H77" stroke="#26BED6" stroke-width="0.5"/>
<path d="M167 7.5H182" stroke="#BDBDBD" stroke-width="0.5"/>
<path d="M258 7.5H273" stroke="#BDBDBD" stroke-width="0.5"/>
<path d="M103.105 11C105.27 11 106.333 9.71094 106.333 7.33691C106.333 4.95752 105.259 3.67383 103.105 3.67383H100.892V6.91797H100.366V7.57861H100.892V11H103.105ZM101.644 10.3125V7.57861H103.734V6.91797H101.644V4.36133H103.084C104.754 4.36133 105.554 5.38721 105.554 7.33691C105.554 9.28662 104.754 10.3125 103.084 10.3125H101.644ZM107.807 11H108.549V5.38721H107.807V11ZM107.662 4.00146C107.662 4.2915 107.893 4.52246 108.178 4.52246C108.463 4.52246 108.699 4.2915 108.699 4.00146C108.699 3.7168 108.463 3.48584 108.178 3.48584C107.893 3.48584 107.662 3.7168 107.662 4.00146ZM112.085 11.0913C113.31 11.0913 114.03 10.3931 114.223 9.52295H113.471C113.305 10.0547 112.859 10.4521 112.107 10.4521C111.113 10.4521 110.528 9.67871 110.528 8.50244V8.36816H114.304V7.90088C114.304 6.32178 113.466 5.29053 112.042 5.29053C110.603 5.29053 109.781 6.32715 109.781 7.8418V8.48096C109.781 10.0708 110.646 11.0913 112.085 11.0913ZM110.528 7.72363V7.70752C110.528 6.68701 111.119 5.93506 112.042 5.93506C112.956 5.93506 113.557 6.68701 113.557 7.70752V7.72363H110.528ZM114.298 3.38916L113.262 1.90674H112.478L113.708 3.38916H114.298ZM110.667 4.60303H111.301L112.032 3.50195H112.048L112.778 4.60303H113.412L112.263 2.96484H111.817L110.667 4.60303ZM115.456 11H116.197V7.5625C116.197 6.74072 116.659 5.97266 117.712 5.97266C118.603 5.97266 119.167 6.53125 119.167 7.49268V11H119.908V7.38525C119.908 6.02637 119.054 5.29053 117.9 5.29053C116.96 5.29053 116.428 5.79004 116.218 6.19287H116.197V5.38721H115.456V11ZM123.464 5.38721H122.674V6.021H123.464V9.50146C123.464 10.5703 123.716 11.0537 124.968 11.0537C125.161 11.0537 125.349 11.0322 125.435 11.0107V10.4038C125.349 10.4146 125.258 10.4199 125.15 10.4199C124.436 10.4199 124.2 10.2427 124.2 9.55518V6.021H125.387V5.38721H124.2V3.98535H123.464V5.38721ZM126.507 11H127.248V7.5625C127.248 6.74072 127.704 5.97266 128.762 5.97266C129.654 5.97266 130.223 6.53125 130.223 7.49268V11H130.959V7.38525C130.959 6.02637 130.1 5.29053 128.95 5.29053C128.01 5.29053 127.473 5.79004 127.269 6.19287H127.248V3.28174H126.507V11ZM134.421 5.29053C132.917 5.29053 132.057 6.37549 132.057 7.89551V8.48096C132.057 10.0063 132.917 11.0913 134.421 11.0913C135.925 11.0913 136.779 10.0063 136.779 8.48096V7.89551C136.779 6.38086 135.919 5.29053 134.421 5.29053ZM134.421 5.9458C135.431 5.9458 136.037 6.69238 136.037 7.93848V8.44336C136.037 9.68408 135.431 10.4307 134.421 10.4307C133.406 10.4307 132.799 9.68408 132.799 8.44336V7.93848C132.799 6.69238 133.411 5.9458 134.421 5.9458ZM133.051 4.60303H133.685L134.415 3.50195H134.432L135.162 4.60303H135.796L134.646 2.96484H134.201L133.051 4.60303ZM137.958 11H138.699V7.5625C138.699 6.74072 139.161 5.97266 140.213 5.97266C141.105 5.97266 141.669 6.53125 141.669 7.49268V11H142.41V7.38525C142.41 6.02637 141.556 5.29053 140.401 5.29053C139.461 5.29053 138.93 5.79004 138.72 6.19287H138.699V5.38721H137.958V11ZM145.85 12.3911C145.029 12.3911 144.502 11.9453 144.405 11.4297H143.637C143.756 12.3589 144.502 13.0303 145.845 13.0303C147.123 13.0303 148.16 12.2998 148.16 10.9302V5.38721H147.446V6.23584H147.424C147.172 5.72021 146.527 5.29053 145.743 5.29053C144.427 5.29053 143.503 6.2251 143.503 7.82568V8.37354C143.503 9.99561 144.432 10.9194 145.743 10.9194C146.522 10.9194 147.188 10.4844 147.403 9.96338H147.424V10.9355C147.424 11.8433 146.796 12.3911 145.85 12.3911ZM145.85 5.9458C146.801 5.9458 147.424 6.71924 147.424 7.90088V8.31445C147.424 9.50684 146.822 10.2642 145.85 10.2642C144.846 10.2642 144.244 9.51758 144.244 8.30908V7.90088C144.244 6.6709 144.841 5.9458 145.85 5.9458ZM151.817 5.38721H151.028V6.021H151.817V9.50146C151.817 10.5703 152.07 11.0537 153.321 11.0537C153.515 11.0537 153.703 11.0322 153.789 11.0107V10.4038C153.703 10.4146 153.611 10.4199 153.504 10.4199C152.79 10.4199 152.553 10.2427 152.553 9.55518V6.021H153.74V5.38721H152.553V3.98535H151.817V5.38721ZM154.892 11H155.634V5.38721H154.892V11ZM154.747 4.00146C154.747 4.2915 154.978 4.52246 155.263 4.52246C155.548 4.52246 155.784 4.2915 155.784 4.00146C155.784 3.7168 155.548 3.48584 155.263 3.48584C154.978 3.48584 154.747 3.7168 154.747 4.00146ZM157.097 11H157.838V7.5625C157.838 6.74072 158.3 5.97266 159.353 5.97266C160.245 5.97266 160.808 6.53125 160.808 7.49268V11H161.55V7.38525C161.55 6.02637 160.696 5.29053 159.541 5.29053C158.601 5.29053 158.069 5.79004 157.86 6.19287H157.838V5.38721H157.097V11Z" fill="#BDBDBD"/>
<path d="M207.174 11V4.35596H209.462V3.67383H204.15V4.35596H206.433V11H207.174ZM210.179 11H210.921V7.5625C210.921 6.74072 211.377 5.97266 212.435 5.97266C213.327 5.97266 213.896 6.53125 213.896 7.49268V11H214.632V7.38525C214.632 6.02637 213.773 5.29053 212.623 5.29053C211.683 5.29053 211.146 5.79004 210.942 6.19287H210.921V3.28174H210.179V11ZM219.13 10.248H219.152V11H219.871V7.0791C219.871 5.93506 219.039 5.29053 217.868 5.29053C216.579 5.29053 215.918 5.96729 215.848 6.92871H216.552C216.627 6.32715 217.052 5.93506 217.841 5.93506C218.652 5.93506 219.13 6.35938 219.13 7.17041V7.8042H217.578C216.3 7.80957 215.628 8.43262 215.628 9.39941C215.628 10.4253 216.375 11.0913 217.46 11.0913C218.351 11.0913 218.878 10.6831 219.13 10.248ZM217.632 10.4521C216.971 10.4521 216.396 10.0923 216.396 9.37793C216.396 8.81396 216.756 8.41113 217.605 8.41113H219.13V9.12549C219.13 9.90967 218.48 10.4521 217.632 10.4521ZM221.233 11H221.974V7.5625C221.974 6.74072 222.436 5.97266 223.489 5.97266C224.38 5.97266 224.944 6.53125 224.944 7.49268V11H225.686V7.38525C225.686 6.02637 224.832 5.29053 223.677 5.29053C222.737 5.29053 222.205 5.79004 221.996 6.19287H221.974V5.38721H221.233V11ZM227.026 11H227.767V7.5625C227.767 6.74072 228.223 5.97266 229.281 5.97266C230.173 5.97266 230.742 6.53125 230.742 7.49268V11H231.478V7.38525C231.478 6.02637 230.619 5.29053 229.469 5.29053C228.529 5.29053 227.992 5.79004 227.788 6.19287H227.767V3.28174H227.026V11ZM235.039 5.38721H234.25V6.021H235.039V9.50146C235.039 10.5703 235.292 11.0537 236.543 11.0537C236.736 11.0537 236.924 11.0322 237.01 11.0107V10.4038C236.924 10.4146 236.833 10.4199 236.726 10.4199C236.011 10.4199 235.775 10.2427 235.775 9.55518V6.021H236.962V5.38721H235.775V3.98535H235.039V5.38721ZM240.112 5.29053C238.608 5.29053 237.749 6.37549 237.749 7.89551V8.48096C237.749 10.0063 238.608 11.0913 240.112 11.0913C241.616 11.0913 242.47 10.0063 242.47 8.48096V7.89551C242.47 6.38086 241.611 5.29053 240.112 5.29053ZM240.112 5.9458C241.122 5.9458 241.729 6.69238 241.729 7.93848V8.44336C241.729 9.68408 241.122 10.4307 240.112 10.4307C239.097 10.4307 238.49 9.68408 238.49 8.44336V7.93848C238.49 6.69238 239.102 5.9458 240.112 5.9458ZM246.818 10.248H246.839V11H247.559V7.0791C247.559 5.93506 246.726 5.29053 245.556 5.29053C244.266 5.29053 243.606 5.96729 243.536 6.92871H244.24C244.315 6.32715 244.739 5.93506 245.529 5.93506C246.34 5.93506 246.818 6.35938 246.818 7.17041V7.8042H245.265C243.987 7.80957 243.316 8.43262 243.316 9.39941C243.316 10.4253 244.062 11.0913 245.147 11.0913C246.039 11.0913 246.565 10.6831 246.818 10.248ZM245.319 10.4521C244.659 10.4521 244.084 10.0923 244.084 9.37793C244.084 8.81396 244.444 8.41113 245.292 8.41113H246.818V9.12549C246.818 9.90967 246.168 10.4521 245.319 10.4521ZM245.829 4.60303L247.059 3.12061H246.275L245.239 4.60303H245.829ZM248.92 11H249.662V7.5625C249.662 6.74072 250.124 5.97266 251.176 5.97266C252.068 5.97266 252.632 6.53125 252.632 7.49268V11H253.373V7.38525C253.373 6.02637 252.519 5.29053 251.364 5.29053C250.424 5.29053 249.893 5.79004 249.683 6.19287H249.662V5.38721H248.92V11Z" fill="#BDBDBD"/>
<path d="M300.333 11V3.67383H299.581V6.84814H295.681V3.67383H294.929V11H295.681V7.53027H299.581V11H300.333ZM303.939 5.29053C302.435 5.29053 301.576 6.37549 301.576 7.89551V8.48096C301.576 10.0063 302.435 11.0913 303.939 11.0913C305.443 11.0913 306.297 10.0063 306.297 8.48096V7.89551C306.297 6.38086 305.438 5.29053 303.939 5.29053ZM303.939 5.9458C304.949 5.9458 305.556 6.69238 305.556 7.93848V8.44336C305.556 9.68408 304.949 10.4307 303.939 10.4307C302.924 10.4307 302.317 9.68408 302.317 8.44336V7.93848C302.317 6.69238 302.929 5.9458 303.939 5.9458ZM310.645 10.248H310.666V11H311.386V7.0791C311.386 5.93506 310.554 5.29053 309.383 5.29053C308.094 5.29053 307.433 5.96729 307.363 6.92871H308.067C308.142 6.32715 308.566 5.93506 309.356 5.93506C310.167 5.93506 310.645 6.35938 310.645 7.17041V7.8042H309.093C307.814 7.80957 307.143 8.43262 307.143 9.39941C307.143 10.4253 307.889 11.0913 308.974 11.0913C309.866 11.0913 310.392 10.6831 310.645 10.248ZM309.146 10.4521C308.486 10.4521 307.911 10.0923 307.911 9.37793C307.911 8.81396 308.271 8.41113 309.119 8.41113H310.645V9.12549C310.645 9.90967 309.995 10.4521 309.146 10.4521ZM309.764 4.60303L308.727 3.12061H307.943L309.173 4.60303H309.764ZM312.748 11H313.489V7.5625C313.489 6.74072 313.951 5.97266 315.003 5.97266C315.895 5.97266 316.459 6.53125 316.459 7.49268V11H317.2V7.38525C317.2 6.02637 316.346 5.29053 315.191 5.29053C314.251 5.29053 313.72 5.79004 313.51 6.19287H313.489V5.38721H312.748V11ZM320.756 5.38721H319.966V6.021H320.756V9.50146C320.756 10.5703 321.008 11.0537 322.26 11.0537C322.453 11.0537 322.641 11.0322 322.727 11.0107V10.4038C322.641 10.4146 322.55 10.4199 322.442 10.4199C321.728 10.4199 321.492 10.2427 321.492 9.55518V6.021H322.679V5.38721H321.492V3.98535H320.756V5.38721ZM323.798 11H324.54V7.5625C324.54 6.74072 324.996 5.97266 326.054 5.97266C326.946 5.97266 327.515 6.53125 327.515 7.49268V11H328.251V7.38525C328.251 6.02637 327.392 5.29053 326.242 5.29053C325.302 5.29053 324.765 5.79004 324.561 6.19287H324.54V3.28174H323.798V11ZM332.749 10.248H332.771V11H333.49V7.0791C333.49 5.93506 332.658 5.29053 331.487 5.29053C330.198 5.29053 329.537 5.96729 329.467 6.92871H330.171C330.246 6.32715 330.671 5.93506 331.46 5.93506C332.271 5.93506 332.749 6.35938 332.749 7.17041V7.8042H331.197C329.919 7.80957 329.247 8.43262 329.247 9.39941C329.247 10.4253 329.994 11.0913 331.079 11.0913C331.97 11.0913 332.497 10.6831 332.749 10.248ZM331.251 10.4521C330.59 10.4521 330.015 10.0923 330.015 9.37793C330.015 8.81396 330.375 8.41113 331.224 8.41113H332.749V9.12549C332.749 9.90967 332.099 10.4521 331.251 10.4521ZM331.868 4.60303L330.832 3.12061H330.048L331.278 4.60303H331.868ZM334.852 11H335.593V7.5625C335.593 6.74072 336.055 5.97266 337.108 5.97266C337.999 5.97266 338.563 6.53125 338.563 7.49268V11H339.305V7.38525C339.305 6.02637 338.451 5.29053 337.296 5.29053C336.356 5.29053 335.824 5.79004 335.615 6.19287H335.593V5.38721H334.852V11ZM340.645 11H341.386V7.5625C341.386 6.74072 341.842 5.97266 342.9 5.97266C343.792 5.97266 344.361 6.53125 344.361 7.49268V11H345.097V7.38525C345.097 6.02637 344.238 5.29053 343.088 5.29053C342.148 5.29053 341.611 5.79004 341.407 6.19287H341.386V3.28174H340.645V11Z" fill="#BDBDBD"/>
</svg>
