<svg width="20" height="20" viewBox="0 0 20 20" fill="none" xmlns="http://www.w3.org/2000/svg">
    <path d="M18.925 15.008c-.075-.15-.375-.376-.975-.677-.15-.076-.375-.226-.675-.377-.3-.15-.6-.301-.825-.452-.225-.15-.45-.301-.675-.377 0 0-.15-.075-.3-.225-.15-.151-.3-.226-.45-.302-.15-.075-.225-.075-.375-.075s-.375.15-.675.377c-.225.226-.525.527-.675.828-.225.301-.45.527-.675.829-.225.225-.45.376-.6.376-.075 0-.15 0-.3-.075-.15-.076-.225-.076-.225-.076-.075 0-.15-.075-.3-.15s-.225-.15-.225-.15a13.637 13.637 0 0 1-3-2.26 13.682 13.682 0 0 1-2.25-3.013s-.075-.075-.15-.226c-.075-.15-.15-.226-.15-.301 0-.075-.075-.15-.075-.226 0-.075-.15-.377-.15-.452 0-.15.15-.376.375-.602.3-.226.525-.452.825-.678.3-.226.525-.452.825-.678.225-.226.375-.452.375-.678 0-.15 0-.226-.075-.376-.15-.151-.225-.302-.375-.452-.075-.226-.15-.302-.225-.302-.075-.225-.225-.451-.375-.753-.15-.226-.3-.452-.45-.753-.15-.301-.3-.527-.375-.753-.3-.527-.525-.904-.675-.904-.075 0-.15-.075-.3-.075-.225 0-.525.075-.9.15-.375.076-.6.151-.825.227-.45.226-.9.753-1.35 1.581C1.225 3.787 1 4.54 1 5.368c0 .226 0 .452.075.678 0 .226.075.452.15.753.075.226.15.452.15.603.075.15.15.376.225.677.15.377.225.528.225.603.3.828.675 1.582 1.05 2.26.675 1.13 1.575 2.259 2.775 3.389 1.2 1.205 2.325 2.108 3.375 2.786a15.62 15.62 0 0 0 2.25 1.055c.075 0 .3.075.6.226.375.15.6.225.675.225.15.076.3.076.6.151s.525.15.75.15c.225 0 .45.076.675.076.75 0 1.575-.226 2.4-.678.825-.452 1.35-.904 1.575-1.355.075-.226.15-.528.3-.904.075-.377.15-.678.15-.904 0 0 0-.075-.075-.15z" stroke="#26BED6" stroke-miterlimit="10" stroke-linecap="round" stroke-linejoin="round"/>
</svg>
