<svg width="25" height="25" viewBox="0 0 25 25" fill="none" xmlns="http://www.w3.org/2000/svg">
    <circle cx="12.215" cy="12.214" fill="#F2F2F2" r="12"/>
    <path fill-rule="evenodd" clip-rule="evenodd" d="M9.643 7.286a.262.262 0 0 0-.262.262v.786h4.976c.724 0 1.31.586 1.31 1.309v4.976h.786a.262.262 0 0 0 .262-.262v-6.81a.262.262 0 0 0-.262-.261h-6.81zm6.024 8.38h.786a1.31 1.31 0 0 0 1.31-1.309v-6.81a1.31 1.31 0 0 0-1.31-1.309h-6.81a1.31 1.31 0 0 0-1.31 1.31v.786h-.785a1.31 1.31 0 0 0-1.31 1.309v6.81c0 .723.587 1.31 1.31 1.31h6.81a1.31 1.31 0 0 0 1.309-1.31v-.786zm-8.12-6.285a.262.262 0 0 0-.261.262v6.81c0 .144.117.262.262.262h6.81a.262.262 0 0 0 .261-.262v-6.81a.262.262 0 0 0-.262-.262h-6.81z" fill="#003C71"/>
</svg>
