<svg width="16" height="16" viewBox="0 0 16 16" fill="none" xmlns="http://www.w3.org/2000/svg">
    <path d="M5.472 4.572c.283 0 .565.212.565.565 0 .283-.212.495-.565.495a.558.558 0 0 1-.566-.565c0-.283.212-.495.566-.495zm-.424 1.767h.777v5.09h-.777v-5.09zM9.857 4.784c1.272 0 2.12.848 2.12 2.05 0 1.272-.848 2.05-2.12 2.05H8.3v2.474h-.848V4.784h2.404zM8.3 8.177h.99c1.131 0 1.767-.212 1.767-1.273 0-.848-.494-1.272-1.272-1.272H8.301v2.545z" fill="#26BED6"/>
    <path fill-rule="evenodd" clip-rule="evenodd" d="M8.002 1.643a6.357 6.357 0 1 0 0 12.714 6.357 6.357 0 0 0 0-12.714zM.645 8a7.357 7.357 0 1 1 14.714 0A7.357 7.357 0 0 1 .645 8z" fill="#26BED6"/>
</svg>
