<svg width="16" height="16" viewBox="0 0 16 16" fill="none" xmlns="http://www.w3.org/2000/svg">
    <path d="M12.717 15.857H3.272c-.863 0-1.684-.32-2.302-.906A3.044 3.044 0 0 1 0 12.723v-2.078c0-.299.235-.533.533-.533.704 0 1.28-.533 1.268-1.183-.02-.65-.554-1.13-1.247-1.12A.499.499 0 0 1 .16 7.66.523.523 0 0 1 0 7.276V5.134C0 3.407 1.471 2 3.272 2h9.455c1.802 0 3.262 1.407 3.262 3.145v2.068a.528.528 0 0 1-.533.532c-.703 0-1.268.533-1.268 1.184 0 .65.575 1.183 1.279 1.183.298 0 .533.234.533.533v2.079c-.01 1.726-1.471 3.133-3.283 3.133zM1.066 11.125v1.598c0 .544.224 1.066.64 1.46.415.385.97.608 1.566.608h9.455c1.216 0 2.207-.927 2.207-2.068v-1.598c-1.034-.235-1.812-1.13-1.812-2.196 0-1.066.767-1.962 1.801-2.196v-1.6c0-1.14-.98-2.067-2.196-2.067H3.272c-1.215 0-2.206.927-2.206 2.068v1.663c1.002.202 1.77 1.044 1.801 2.068a2.291 2.291 0 0 1-1.801 2.26z" fill="#868998"/>
    <path d="M9.306 11.423a.862.862 0 0 1-.395-.096l-.916-.458-.907.458a.885.885 0 0 1-.927-.085.816.816 0 0 1-.32-.821l.17-.927-.724-.661c-.235-.224-.33-.565-.235-.874a.866.866 0 0 1 .704-.597l1.023-.139.448-.863a.867.867 0 0 1 .768-.459c.33 0 .628.182.778.47l.447.852 1.013.139a.864.864 0 0 1 .714.597c.096.309.01.64-.234.863l-.725.672.17.927a.822.822 0 0 1-.33.82.886.886 0 0 1-.522.182zm-2.953-3.06.458.427c.213.192.31.48.256.768l-.117.64.64-.32a.859.859 0 0 1 .788 0l.64.32-.117-.64a.904.904 0 0 1 .277-.768l.469-.426-.672-.096a.885.885 0 0 1-.66-.459l-.32-.618-.32.618a.886.886 0 0 1-.65.459l-.672.096z" fill="#868998"/>
</svg>
