<svg width="18" height="18" viewBox="0 0 18 18" fill="none" xmlns="http://www.w3.org/2000/svg">
<path fill-rule="evenodd" clip-rule="evenodd" d="M0.625 11.5928C0.625 11.3857 0.792893 11.2178 1 11.2178H7.075C7.28211 11.2178 7.45 11.3857 7.45 11.5928C7.45 11.7999 7.28211 11.9678 7.075 11.9678H1C0.792893 11.9678 0.625 11.7999 0.625 11.5928Z" fill="#828282"/>
<path fill-rule="evenodd" clip-rule="evenodd" d="M4.58277 9.37076C4.71671 9.2128 4.95335 9.19333 5.11131 9.32727L7.44569 11.3067C7.52971 11.378 7.57816 11.4826 7.57816 11.5927C7.57816 11.7029 7.52971 11.8075 7.44569 11.8788L5.11131 13.8582C4.95335 13.9921 4.71671 13.9727 4.58277 13.8147C4.44882 13.6567 4.46829 13.4201 4.62625 13.2862L6.62333 11.5927L4.62625 9.8993C4.46829 9.76536 4.44882 9.52872 4.58277 9.37076Z" fill="#828282"/>
<path fill-rule="evenodd" clip-rule="evenodd" d="M1.37688 3.08276C1.37531 3.08435 1.375 3.08564 1.375 3.08715V9.61363C1.375 9.82074 1.20711 9.98863 1 9.98863C0.792893 9.98863 0.625 9.82074 0.625 9.61363V3.08715C0.625 2.67553 0.957488 2.3327 1.375 2.3327H16.625C17.0425 2.3327 17.375 2.67553 17.375 3.08715V16.6207C17.375 17.0324 17.0425 17.3752 16.625 17.3752H1.375C0.957488 17.3752 0.625 17.0324 0.625 16.6207V13.1267C0.625 12.9196 0.792893 12.7517 1 12.7517C1.20711 12.7517 1.375 12.9196 1.375 13.1267V16.6207C1.375 16.6223 1.37531 16.6235 1.37688 16.6251C1.3769 16.6252 1.37692 16.6252 1.37694 16.6252H16.6231C16.6231 16.6252 16.6231 16.6252 16.6231 16.6251C16.6247 16.6235 16.625 16.6223 16.625 16.6207V3.08715C16.625 3.08564 16.6247 3.08435 16.6231 3.08276C16.6231 3.08274 16.6231 3.08272 16.6231 3.0827H1.37694C1.37692 3.08272 1.3769 3.08274 1.37688 3.08276Z" fill="#828282"/>
<path fill-rule="evenodd" clip-rule="evenodd" d="M0.625 6.09082C0.625 5.88371 0.792893 5.71582 1 5.71582H17C17.2071 5.71582 17.375 5.88371 17.375 6.09082C17.375 6.29793 17.2071 6.46582 17 6.46582H1C0.792893 6.46582 0.625 6.29793 0.625 6.09082Z" fill="#828282"/>
<path fill-rule="evenodd" clip-rule="evenodd" d="M3.54688 0.625C3.75398 0.625 3.92188 0.792893 3.92188 1V4.41502C3.92188 4.62213 3.75398 4.79002 3.54688 4.79002C3.33977 4.79002 3.17188 4.62213 3.17188 4.41502V1C3.17188 0.792893 3.33977 0.625 3.54688 0.625Z" fill="#828282"/>
<path fill-rule="evenodd" clip-rule="evenodd" d="M14.4844 0.625C14.6915 0.625 14.8594 0.792893 14.8594 1V4.41502C14.8594 4.62213 14.6915 4.79002 14.4844 4.79002C14.2773 4.79002 14.1094 4.62213 14.1094 4.41502V1C14.1094 0.792893 14.2773 0.625 14.4844 0.625Z" fill="#828282"/>
</svg>
