<svg width="18" height="18" viewBox="0 0 18 18" fill="none" xmlns="http://www.w3.org/2000/svg">
<path fill-rule="evenodd" clip-rule="evenodd" d="M0.75 11.7035C0.75 11.4964 0.917893 11.3285 1.125 11.3285H7.20312C7.41023 11.3285 7.57812 11.4964 7.57812 11.7035C7.57812 11.9106 7.41023 12.0785 7.20312 12.0785H1.125C0.917893 12.0785 0.75 11.9106 0.75 11.7035Z" fill="#828282"/>
<path fill-rule="evenodd" clip-rule="evenodd" d="M3.61711 9.48123C3.75115 9.6391 3.73184 9.87575 3.57397 10.0098L1.57938 11.7034L3.57397 13.397C3.73184 13.531 3.75115 13.7677 3.61711 13.9256C3.48306 14.0834 3.24641 14.1027 3.08853 13.9687L0.757282 11.9892C0.673369 11.918 0.625 11.8135 0.625 11.7034C0.625 11.5933 0.673369 11.4888 0.757282 11.4175L3.08853 9.43809C3.24641 9.30404 3.48306 9.32335 3.61711 9.48123Z" fill="#828282"/>
<path fill-rule="evenodd" clip-rule="evenodd" d="M1.37688 3.0824C1.37531 3.08399 1.375 3.08528 1.375 3.08678V9.61327C1.375 9.82037 1.20711 9.98827 1 9.98827C0.792893 9.98827 0.625 9.82037 0.625 9.61327V3.08678C0.625 2.67516 0.957488 2.33234 1.375 2.33234H16.625C17.0425 2.33234 17.375 2.67516 17.375 3.08678V16.6204C17.375 17.032 17.0425 17.3748 16.625 17.3748H1.375C0.957488 17.3748 0.625 17.032 0.625 16.6204V13.1263C0.625 12.9192 0.792893 12.7513 1 12.7513C1.20711 12.7513 1.375 12.9192 1.375 13.1263V16.6204C1.375 16.6219 1.37531 16.6232 1.37688 16.6248C1.3769 16.6248 1.37692 16.6248 1.37694 16.6248H16.6231C16.6231 16.6248 16.6231 16.6248 16.6231 16.6248C16.6247 16.6232 16.625 16.6219 16.625 16.6204V3.08678C16.625 3.08528 16.6247 3.08399 16.6231 3.0824C16.6231 3.08238 16.6231 3.08236 16.6231 3.08234H1.37694C1.37692 3.08236 1.3769 3.08238 1.37688 3.0824Z" fill="#828282"/>
<path fill-rule="evenodd" clip-rule="evenodd" d="M0.625 6.09082C0.625 5.88371 0.792893 5.71582 1 5.71582H17C17.2071 5.71582 17.375 5.88371 17.375 6.09082C17.375 6.29793 17.2071 6.46582 17 6.46582H1C0.792893 6.46582 0.625 6.29793 0.625 6.09082Z" fill="#828282"/>
<path fill-rule="evenodd" clip-rule="evenodd" d="M3.54688 0.625C3.75398 0.625 3.92188 0.792893 3.92188 1V4.41502C3.92188 4.62213 3.75398 4.79002 3.54688 4.79002C3.33977 4.79002 3.17188 4.62213 3.17188 4.41502V1C3.17188 0.792893 3.33977 0.625 3.54688 0.625Z" fill="#828282"/>
<path fill-rule="evenodd" clip-rule="evenodd" d="M14.4844 0.625C14.6915 0.625 14.8594 0.792893 14.8594 1V4.41502C14.8594 4.62213 14.6915 4.79002 14.4844 4.79002C14.2773 4.79002 14.1094 4.62213 14.1094 4.41502V1C14.1094 0.792893 14.2773 0.625 14.4844 0.625Z" fill="#828282"/>
</svg>
