<svg width="14" height="18" viewBox="0 0 14 18" fill="none" xmlns="http://www.w3.org/2000/svg">
<path fill-rule="evenodd" clip-rule="evenodd" d="M7.00153 1.375C3.90191 1.375 1.375 3.9464 1.375 7.12719C1.375 7.87882 1.71432 8.85182 2.27014 9.92325C2.82016 10.9835 3.55772 12.0947 4.30167 13.1095C5.04463 14.123 5.78843 15.0329 6.34692 15.6899C6.61355 16.0035 6.83757 16.259 6.9986 16.4401C7.15972 16.2591 7.38385 16.0037 7.65061 15.6902C8.20938 15.0335 8.95354 14.1239 9.69687 13.1106C10.4412 12.096 11.1791 10.9849 11.7294 9.92452C12.2855 8.85299 12.625 7.8796 12.625 7.12719C12.625 3.94315 10.101 1.375 7.00153 1.375ZM6.99847 17C6.72304 17.2545 6.72298 17.2544 6.7229 17.2543L6.72168 17.253L6.71817 17.2492L6.70477 17.2346L6.6535 17.1784C6.60881 17.1292 6.54357 17.0569 6.46071 16.9639C6.29502 16.7779 6.05879 16.5089 5.7755 16.1756C5.20928 15.5096 4.45346 14.5851 3.6968 13.553C2.94113 12.5221 2.17908 11.3764 1.60439 10.2686C1.03549 9.17198 0.625 8.06577 0.625 7.12719C0.625 3.54716 3.47287 0.625 7.00153 0.625C10.5303 0.625 13.375 3.54417 13.375 7.12719C13.375 8.06656 12.9643 9.17315 12.3951 10.27C11.8201 11.378 11.0577 12.5236 10.3016 13.5542C9.54455 14.5862 8.78833 15.5104 8.22181 16.1762C7.93838 16.5093 7.70202 16.7782 7.53625 16.9641C7.45335 17.0571 7.38807 17.1293 7.34336 17.1785L7.29206 17.2347L7.27865 17.2493L7.27418 17.2542C7.27411 17.2543 7.27378 17.2546 6.99847 17ZM6.99847 17L7.27418 17.2542C7.20318 17.331 7.10295 17.375 6.99838 17.375C6.89381 17.375 6.79387 17.3311 6.7229 17.2543L6.99847 17Z" fill="#828282"/>
<path fill-rule="evenodd" clip-rule="evenodd" d="M6.96184 4.23114C5.42018 4.23114 4.15723 5.50925 4.15723 7.10234C4.15723 8.69542 5.42018 9.97353 6.96184 9.97353C8.5035 9.97353 9.76646 8.69542 9.76646 7.10234C9.76646 5.50925 8.5035 4.23114 6.96184 4.23114ZM3.40723 7.10234C3.40723 5.10977 4.9914 3.48114 6.96184 3.48114C8.93229 3.48114 10.5165 5.10977 10.5165 7.10234C10.5165 9.0949 8.93229 10.7235 6.96184 10.7235C4.9914 10.7235 3.40723 9.0949 3.40723 7.10234Z" fill="#828282"/>
</svg>
