<svg width="18" height="18" viewBox="0 0 18 18" fill="none" xmlns="http://www.w3.org/2000/svg">
<path fill-rule="evenodd" clip-rule="evenodd" d="M9.00165 1.37494C7.38134 1.37494 6.06091 2.70386 6.06091 4.35172C6.06091 5.99958 7.38134 7.3285 9.00165 7.3285C10.622 7.3285 11.9424 5.99958 11.9424 4.35172C11.9424 2.70386 10.622 1.37494 9.00165 1.37494ZM5.31091 4.35172C5.31091 2.29731 6.9595 0.624939 9.00165 0.624939C11.0438 0.624939 12.6924 2.29731 12.6924 4.35172C12.6924 6.40613 11.0438 8.0785 9.00165 8.0785C6.9595 8.0785 5.31091 6.40613 5.31091 4.35172Z" fill="#828282"/>
<path fill-rule="evenodd" clip-rule="evenodd" d="M9.00156 9.28638C4.79254 9.28638 1.375 12.7352 1.375 16.9999C1.375 17.207 1.20711 17.3749 1 17.3749C0.792893 17.3749 0.625 17.207 0.625 16.9999C0.625 12.3287 4.3707 8.53638 9.00156 8.53638C13.6326 8.53638 17.375 12.3288 17.375 16.9999C17.375 17.207 17.2071 17.3749 17 17.3749C16.7929 17.3749 16.625 17.207 16.625 16.9999C16.625 12.735 13.2104 9.28638 9.00156 9.28638Z" fill="#828282"/>
</svg>
