<svg width="16" height="16" viewBox="0 0 16 16" fill="none" xmlns="http://www.w3.org/2000/svg">
    <path fill-rule="evenodd" clip-rule="evenodd" d="M3.667 2.667V8c0 1.107.894 2 2 2h2c.367 0 .667.3.667.667 0 .366-.3.666-.667.666h-2A3.335 3.335 0 0 1 2.334 8V2.667c0-.367.3-.667.667-.667.366 0 .666.3.666.667zm9 11.333c.614 0 1.1-.56.98-1.2-.093-.473-.533-.8-1.02-.8h-.96l1.334-4.667C13 6.6 12.4 6 11.667 6H8.334V2h-4v5.333c0 1.1.9 2 2 2h4l-.753 3.007A1.333 1.333 0 0 0 10.874 14h1.793z" fill="#26BED6"/>
</svg>
