<svg width="16" height="16" viewBox="0 0 16 16" fill="none" xmlns="http://www.w3.org/2000/svg">
    <path fill-rule="evenodd" clip-rule="evenodd" d="M3.67 4.093a1.342 1.342 0 0 1-.327-1.86 1.34 1.34 0 0 1 1.86-.326c.6.426.747 1.253.327 1.86-.427.6-1.253.746-1.86.326zm7.1 9.574c0-.367-.3-.667-.667-.667H6.057c-.987 0-1.827-.72-1.974-1.693L2.877 5.52a.651.651 0 0 0-.64-.52c-.414 0-.72.38-.64.787l1.166 5.72a3.34 3.34 0 0 0 3.3 2.826h4.04c.367 0 .667-.3.667-.666zm-3.1-3.334h2.793c.3 0 .587.1.82.28l2.86 2.234c.334.26.367.746.067 1.046a.702.702 0 0 1-.927.054l-2.06-1.614H6.657c-.96 0-1.78-.68-1.967-1.626l-.9-3.947a1.512 1.512 0 0 1 1.227-1.74h.013c.22-.04.447-.02.66.04.18.053.353.133.507.253l1.093.847c.653.513 1.533.86 2.407.887.393.013.72.313.72.706 0 .387-.314.72-.7.714-.98-.014-1.88-.387-2.734-.867l.687 2.733z" fill="#26BED6"/>
</svg>
