<svg width="16" height="16" viewBox="0 0 16 16" fill="none" xmlns="http://www.w3.org/2000/svg">
    <path fill-rule="evenodd" clip-rule="evenodd" d="M5.712 4.299a2.006 2.006 0 0 1-.94 2.667c-1 .48-2.193.06-2.666-.934-.48-1-.06-2.193.933-2.666 1-.48 2.193-.06 2.673.933zm9.027 5.394-.46 1.26-8.24-2.98.927-2.527a1.338 1.338 0 0 1 1.706-.793l4.46 1.606c1.4.507 2.12 2.04 1.607 3.434zM1.54 8.486l3.7 1.333v2.347c0 .367.3.667.667.667h4c.366 0 .666-.3.666-.667v-.42l2.387.86a.672.672 0 0 0 .86-.4.672.672 0 0 0-.4-.86L1.992 7.226a.672.672 0 0 0-.86.4c-.12.347.06.733.407.86z" fill="#26BED6"/>
</svg>
