<svg width="16" height="16" viewBox="0 0 16 16" fill="none" xmlns="http://www.w3.org/2000/svg">
    <path fill-rule="evenodd" clip-rule="evenodd" d="M2.333 2.876v5.333c0 1.107.893 2 2 2h3.333c.367 0 .667.3.667.667 0 .366-.3.666-.667.666H4.333A3.335 3.335 0 0 1 1 8.21V2.876c0-.367.3-.667.666-.667.367 0 .667.3.667.667zm11.2 8.406c.493-.226 1.1-.06 1.353.42a1.008 1.008 0 0 1-.46 1.374l-1.3.593c-.66.3-1.433.027-1.753-.627l-1.707-3.5H5c-1.107 0-2-.893-2-2V2.21h4v4h2.34c.506 0 .966.3 1.193.753l2.273 4.654.727-.334z" fill="#26BED6"/>
</svg>
