<svg width="16" height="16" viewBox="0 0 16 16" fill="none" xmlns="http://www.w3.org/2000/svg">
    <path fill-rule="evenodd" clip-rule="evenodd" d="M5.202 3.918a1.336 1.336 0 0 1 0-1.887c.52-.52 1.367-.52 1.887 0s.52 1.367 0 1.887a1.324 1.324 0 0 1-1.887 0zm-1.06 7.06V5.644c0-.366-.3-.666-.667-.666-.366 0-.666.3-.666.666v5.334a3.335 3.335 0 0 0 3.333 3.333h3.333c.367 0 .667-.3.667-.667 0-.366-.3-.666-.667-.666H6.142c-1.107 0-2-.894-2-2zm6.34-.28 2.513 2.513a.668.668 0 0 1 0 .953.68.68 0 0 1-.953 0l-1.853-1.853h-3.38c-1.107 0-2-.893-2-2V6.478c0-.827.673-1.5 1.5-1.5h.02c.226 0 .446.06.64.153.173.08.333.193.46.333l.933 1.034c.58.64 1.553 1.153 2.5 1.313.353.06.613.347.613.7 0 .453-.42.787-.866.693-1.027-.213-2.074-.753-2.8-1.346v2.453h1.733c.353 0 .693.14.94.387z" fill="#26BED6"/>
</svg>
