<svg width="16" height="16" viewBox="0 0 16 16" fill="none" xmlns="http://www.w3.org/2000/svg">
    <path fill-rule="evenodd" clip-rule="evenodd" d="M7.132 7.976a2.666 2.666 0 1 0 0-5.333 2.666 2.666 0 1 0 0 5.333zm.666 5.334-.573-.574a1.998 1.998 0 0 1 .013-2.84l.56-.546a6.226 6.226 0 0 0-.666-.04c-1.78 0-5.334.893-5.334 2.666v1.334h6zm.46-1.54 1.38 1.393c.26.26.687.26.947 0l3.427-3.454a.66.66 0 0 0 0-.926l-.007-.007a.664.664 0 0 0-.94 0l-2.953 2.973-.914-.913a.656.656 0 0 0-.933 0l-.007.007a.66.66 0 0 0 0 .926z" fill="#26BED6"/>
</svg>
