<svg width="18" height="18" viewBox="0 0 18 18" fill="none" xmlns="http://www.w3.org/2000/svg">
    <path fill-rule="evenodd" clip-rule="evenodd" d="M9.563 1.125H3.375c-.619 0-1.125.506-1.125 1.125v7.312c0 .31.253.563.563.563.309 0 .562-.253.562-.563v-6.75c0-.309.253-.562.563-.562h5.624c.31 0 .563-.253.563-.563a.564.564 0 0 0-.563-.562zM14.4 4.5H6.975c-.742 0-1.35.619-1.35 1.375V15.5c0 .756.607 1.375 1.35 1.375H14.4c.742 0 1.35-.619 1.35-1.375V5.875c0-.756-.607-1.375-1.35-1.375zM7.466 15.75h6.443a.722.722 0 0 0 .716-.723V6.348a.722.722 0 0 0-.716-.723H7.466a.722.722 0 0 0-.716.723v8.679c0 .397.322.723.716.723z" fill="#003C71"/>
</svg>
