<svg width="312" height="175" viewBox="0 0 312 175" fill="none" xmlns="http://www.w3.org/2000/svg">
    <path d="M122.049 22.817a.537.537 0 0 0-.738-.197l-.13.078a.558.558 0 0 0-.197.75l52.713 92.451c.15.26.481.349.738.197l.132-.078a.554.554 0 0 0 .195-.75l-52.713-92.45z" fill="#154976"/>
    <path d="M92.616 57.364c-3.216.019-6.524.435-8.834 1.195l34.485-39.712c.071.007.143.005.213 0-6.386 13.218-12.774 26.434-19.16 39.651-1.057-.751-3.485-1.143-6.704-1.134z" fill="#65DAED"/>
    <path d="M83.158 59.668a.26.26 0 0 0 .066-.055l35.249-40.577a.277.277 0 0 0-.024-.386.266.266 0 0 0-.381.025L82.82 59.25a.277.277 0 0 0 .024.386c.089.081.216.09.314.032z" fill="#154976"/>
    <path d="M80.636 62.863a.436.436 0 0 0 .111-.093l2.61-3.005a.46.46 0 0 0-.04-.645.446.446 0 0 0-.636.04l-2.613 3.006a.46.46 0 0 0 .041.645.447.447 0 0 0 .527.052z" fill="#154976"/>
    <path d="M107.338 55.98c-3.104.58-6.103 1.487-8.03 2.52 6.389-13.222 12.781-26.443 19.171-39.662.07-.007.14-.02.207-.039-1.457 12.31-2.914 24.619-4.373 36.928-1.326-.435-3.867-.32-6.975.253z" fill="#65DAED"/>
    <path d="M99.022 59.612a.265.265 0 0 0 .106-.116l19.596-40.531a.278.278 0 0 0-.123-.368.27.27 0 0 0-.363.124L98.642 59.252c-.064.137-.009.3.124.368.085.044.18.037.256-.008z" fill="#154976"/>
    <path d="M97.662 62.789a.45.45 0 0 0 .178-.194l1.452-3.002a.461.461 0 0 0-.207-.612.449.449 0 0 0-.603.209l-1.453 3.002a.462.462 0 0 0 .208.612c.14.069.3.056.425-.015z" fill="#154976"/>
    <path d="M121.4 52.06c-2.93 1.104-5.578 2.43-7.102 3.657 1.457-12.31 2.914-24.62 4.374-36.93.066-.018.133-.043.195-.073l9.592 31.698c-1.543-.078-4.125.554-7.059 1.648z" fill="#65DAED"/>
    <path d="M114.335 56.78a.272.272 0 0 0 .132-.204l4.486-37.753a.272.272 0 1 0-.539-.065l-4.485 37.753a.272.272 0 0 0 .237.305.279.279 0 0 0 .169-.037z" fill="#154976"/>
    <path d="M114.093 59.736a.454.454 0 0 0 .221-.341l.331-2.796a.45.45 0 1 0-.895-.11l-.332 2.795a.455.455 0 0 0 .675.452z" fill="#154976"/>
    <path d="M134.506 45.792c-2.691 1.587-4.941 3.265-6.052 4.611l-9.586-31.69c.062-.03.123-.064.179-.106 7.47 8.048 14.943 16.094 22.413 24.142-1.71.312-4.259 1.46-6.954 3.043z" fill="#65DAED"/>
    <path d="M128.811 51.349a.277.277 0 0 0 .122-.318l-9.813-32.398a.269.269 0 0 0-.337-.182.273.273 0 0 0-.179.342l9.814 32.398a.269.269 0 0 0 .393.158z" fill="#154976"/>
    <path d="M129.605 53.907a.458.458 0 0 0 .203-.529l-.726-2.399a.447.447 0 0 0-.563-.303.457.457 0 0 0-.298.57l.726 2.4a.448.448 0 0 0 .658.26z" fill="#154976"/>
    <path d="M146.357 37.344c-2.389 2.036-4.207 3.993-4.903 5.39-7.468-8.044-14.937-16.086-22.404-24.13.056-.04.11-.086.158-.135 11.264 4.813 22.53 9.627 33.796 14.439-1.807.736-4.253 2.407-6.647 4.436z" fill="#65DAED"/>
    <path d="M142.092 43.513a.275.275 0 0 0 .06-.424L119.243 18.42a.267.267 0 0 0-.383-.011.278.278 0 0 0-.011.388l22.911 24.668a.266.266 0 0 0 .332.048z" fill="#154976"/>
    <path d="M143.86 45.5a.461.461 0 0 0 .102-.708l-1.697-1.826a.445.445 0 0 0-.636-.021.46.46 0 0 0-.02.645l1.697 1.826c.147.16.377.188.554.084z" fill="#154976"/>
    <path d="M156.667 26.894c-2.027 2.449-3.381 4.62-3.666 6.003-11.261-4.809-22.524-9.618-33.788-14.424.051-.05.094-.106.136-.164l43.452 2.776c-1.838 1.182-4.101 3.37-6.134 5.81z" fill="#65DAED"/>
    <path d="M153.886 33.457a.276.276 0 0 0-.031-.489l-34.536-14.746a.27.27 0 0 0-.354.145c-.058.14.006.3.144.36l34.536 14.747a.277.277 0 0 0 .241-.017z" fill="#154976"/>
    <path d="M156.526 34.708a.46.46 0 0 0-.053-.815l-2.561-1.092a.446.446 0 0 0-.589.244.46.46 0 0 0 .241.598l2.561 1.092a.447.447 0 0 0 .401-.027z" fill="#154976"/>
    <path d="M165.158 14.6c-1.604 2.824-2.468 5.156-2.349 6.457l-43.452-2.777c.04-.058.077-.122.108-.188 17.03-3.556 34.063-7.11 51.092-10.667-1.796 1.655-3.789 4.356-5.399 7.175z" fill="#65DAED"/>
    <path d="M163.9 21.357a.273.273 0 0 0-.119-.507l-44.402-2.815a.269.269 0 0 0-.285.256.27.27 0 0 0 .253.289l44.403 2.815a.276.276 0 0 0 .15-.038z" fill="#154976"/>
    <path d="M167.279 21.72a.453.453 0 0 0 .222-.365.454.454 0 0 0-.421-.484l-3.291-.21a.453.453 0 0 0-.478.425.455.455 0 0 0 .421.485l3.289.21a.455.455 0 0 0 .258-.06zM171.822 7.43a.273.273 0 0 0 .128-.292.269.269 0 0 0-.319-.212l-52.222 10.896a.274.274 0 0 0-.211.322.27.27 0 0 0 .319.212L171.742 7.46a.277.277 0 0 0 .08-.031z" fill="#154976"/>
    <path d="M175.78 6.745a.456.456 0 0 0 .214-.487.452.452 0 0 0-.532-.355l-3.869.81a.457.457 0 0 0 .182.893l3.869-.808a.443.443 0 0 0 .136-.053zM117.161 19.687c.662-.764.482-2.085.15-2.664l-.845-1.475a.643.643 0 0 1 .229-.874.624.624 0 0 1 .861.234l.844 1.475c.332.58 1.372 1.396 2.355 1.189l-3.594 2.115z" fill="#154976"/>
    <ellipse cx="150.309" cy="169.221" rx="150.309" ry="5.779" fill="#D9D9D9"/>
    <path d="M22.323 158.297c3.05-1.023 4.847 2.005 5.47 3.963 1.085 2.618 1.676 5.324 1.992 7.692h-5.863c-.985-1.959-2.333-4.135-4.133-6.101-.002-.002-1.5-4.199 2.534-5.554z" fill="#2878BF"/>
    <path d="M33.125 156.959c7.55 1.264 4.313 12.994 4.313 12.994h-7.655c-.316-2.369-.907-5.076-1.993-7.693-.044-3.433 1.169-5.999 5.335-5.301zM8.543 166.693c1.675-1.657 3.992 0 3.992 0a25.583 25.583 0 0 1 4.642 3.26H9.52c-1.782-.627-1.777-2.466-.976-3.26z" fill="#2878BF"/>
    <path d="M14.422 161.919c3.134-1.048 5.369 1.93 5.369 1.93 1.8 1.966 3.147 4.142 4.132 6.101h-6.738a25.613 25.613 0 0 0-4.643-3.26c-.004.003-1.69-3.578 1.88-4.771z" fill="#2878BF"/>
    <path opacity=".25" d="M24.512 169.951h-.593c-.985-1.96-2.333-4.135-4.133-6.102 0 0-1.345-3.778 1.961-5.322-2.23 1.233-1.699 4.183-.338 6.102 1.13 1.593 2.414 3.476 3.103 5.322z" fill="url(#rcgxxgt12a)"/>
    <path opacity=".25" d="M13.25 162.518c-1.42 1.511-.459 3.614.625 4.305.736.471 2.576 1.755 3.825 3.128h-.521a25.61 25.61 0 0 0-4.643-3.26c0 .003-1.258-2.678.714-4.173z" fill="url(#hwu20l39nb)"/>
    <path opacity=".25" d="M8.616 166.627c-.873 1.266.262 2.682 1.67 3.326h-.765c-1.782-.625-1.78-2.464-.979-3.26.027-.023.05-.046.074-.066z" fill="url(#3ib05jsmoc)"/>
    <mask id="pdng80k8ye" style="mask-type:alpha" maskUnits="userSpaceOnUse" x="15" y="164" width="6" height="6">
        <path d="M15.97 164.753c-.078.1-.06.246.039.325.036.03 2.38 1.937 4.072 4.872h.521c-1.748-3.151-4.273-5.203-4.311-5.235a.227.227 0 0 0-.32.038z" fill="url(#4zlnkyu59d)"/>
    </mask>
    <g mask="url(#pdng80k8ye)">
        <path opacity=".5" d="M15.97 164.753c-.078.1-.06.246.039.325.036.03 2.38 1.937 4.072 4.872h.521c-1.748-3.151-4.273-5.203-4.311-5.235a.227.227 0 0 0-.32.038z" fill="url(#l1kzze4hpf)"/>
    </g>
    <mask id="uuz300no5h" style="mask-type:alpha" maskUnits="userSpaceOnUse" x="23" y="162" width="5" height="8">
        <path d="M23.722 162.356c.024.045 1.871 3.332 3.004 7.595h.47c-1.146-4.388-3.054-7.782-3.078-7.827a.228.228 0 0 0-.311-.087.238.238 0 0 0-.085.319z" fill="url(#10sh7igd0g)"/>
    </mask>
    <g mask="url(#uuz300no5h)">
        <path opacity=".5" d="M23.722 162.356c.024.045 1.871 3.332 3.004 7.595h.47c-1.146-4.388-3.054-7.782-3.078-7.827a.228.228 0 0 0-.311-.087.238.238 0 0 0-.085.319z" fill="url(#pincp3fxti)"/>
    </g>
    <mask id="kjquverftk" style="mask-type:alpha" maskUnits="userSpaceOnUse" x="32" y="160" width="2" height="10">
        <path d="M32.733 160.581c.01.061.701 4.638.708 9.371h.454c-.007-4.777-.703-9.38-.712-9.441a.23.23 0 0 0-.26-.194.229.229 0 0 0-.19.264z" fill="url(#yk0f4n07zj)"/>
    </mask>
    <g mask="url(#kjquverftk)">
        <path opacity=".5" d="M32.733 160.585c.01.061.701 4.637.708 9.37h.454c-.007-4.776-.703-9.379-.712-9.44a.228.228 0 0 0-.26-.194.228.228 0 0 0-.19.264z" fill="url(#03zlwtq8ul)"/>
    </g>
    <mask id="q8rtwcmlkn" style="mask-type:alpha" maskUnits="userSpaceOnUse" x="10" y="168" width="5" height="2">
        <path d="M10.713 168.508c.025.009 1.252.464 2.6 1.446h.783c-1.551-1.264-3.11-1.837-3.228-1.88a.227.227 0 0 0-.291.141.227.227 0 0 0 .136.293z" fill="url(#rwt00olrcm)"/>
    </mask>
    <g mask="url(#q8rtwcmlkn)">
        <path opacity=".5" d="M10.713 168.508c.025.009 1.252.464 2.6 1.446h.783c-1.551-1.264-3.11-1.837-3.228-1.88a.227.227 0 0 0-.291.141.227.227 0 0 0 .136.293z" fill="url(#fr9fe565ro)"/>
    </g>
    <path d="M51.208 152.731v-.004a74.419 74.419 0 0 1-6.5-7.892.27.27 0 0 1-.048-.199 67.116 67.116 0 0 1 2.87-11.142c.094-.011.19-.032.285-.068a.863.863 0 0 0 .18-.089c.514-.299.752-.88.53-1.291-.2-.37-.726-.504-1.224-.311a1.664 1.664 0 0 0-.137.061 1.167 1.167 0 0 0-.584.672.804.804 0 0 0 .05.622.75.75 0 0 0 .363.331 67.694 67.694 0 0 0-2.674 10.084.265.265 0 0 1-.204.211.262.262 0 0 1-.272-.109 75.375 75.375 0 0 1-3.943-6.443.258.258 0 0 1-.02-.204c.353-1.18.752-2.392 1.186-3.6a.258.258 0 0 1 .152-.159l.05-.018c1.7-.656 5.665-5.876 8.518-10.545 1.581-2.644 2.188-4.437 1.85-5.483-.166-.52-.57-.901-1.272-1.201-.91-.358-1.857-.352-2.818.018-1.487.577-2.982 2.016-4.444 4.279-2.611 3.906-3.417 10.186-2.667 12.351.02.057.02.123-.003.179a68.904 68.904 0 0 0-.922 2.692.256.256 0 0 1-.23.182.265.265 0 0 1-.255-.143 75.414 75.414 0 0 1-3.597-8.178.258.258 0 0 1 .009-.204c.799-1.723 1.659-3.402 2.56-4.993.174.029.358.022.536-.034.025-.009.047-.016.067-.025.528-.202.833-.731.696-1.203-.141-.495-.725-.772-1.3-.618-.04.012-.083.023-.121.039-.51.198-.788.708-.649 1.189a.88.88 0 0 0 .285.434 69.45 69.45 0 0 0-2.106 4.035.266.266 0 0 1-.251.15.265.265 0 0 1-.234-.177 75.491 75.491 0 0 1-2.214-7.651.265.265 0 0 1 .034-.202 68.608 68.608 0 0 1 2.095-3.15.248.248 0 0 1 .121-.093.297.297 0 0 1 .079-.018c.206-.012.471-.08.786-.2 2.213-.856 6.278-4.09 8.925-6.72 1.868-1.887 2.746-3.307 2.685-4.345-.031-.547-.32-1.016-.907-1.482-1.053-.798-2.308-.923-3.734-.372-1.069.413-2.232 1.21-3.456 2.372-3.008 2.776-5.011 7.864-4.892 9.941a.27.27 0 0 1-.05.17 70.745 70.745 0 0 0-1.61 2.358.272.272 0 0 1-.125.102.266.266 0 0 1-.352-.195 75.26 75.26 0 0 1-1.328-9.337.27.27 0 0 1 .063-.195 71.442 71.442 0 0 1 2.903-3.2 1.148 1.148 0 0 0 .793-.016c.413-.159.685-.538.678-.94-.009-.536-.5-.976-1.093-.98a1.052 1.052 0 0 0-.407.072.994.994 0 0 0-.655.947.961.961 0 0 0 .242.615 72.8 72.8 0 0 0-2.167 2.353.26.26 0 0 1-.283.075.262.262 0 0 1-.175-.236 75.963 75.963 0 0 1-.123-5.367c0-.071.029-.139.08-.187 1.022-1 2.096-1.988 3.184-2.932a.321.321 0 0 1 .077-.045.339.339 0 0 1 .083-.019c.667-.027 1.718-.308 2.964-.79 1.796-.694 3.869-1.754 5.409-2.766 1.72-1.144 2.665-2.17 2.81-3.05.082-.488-.066-.956-.462-1.473-.893-1.135-2.254-1.358-4.046-.665-.581.224-1.21.549-1.872.962-2.91 1.784-5.44 5.635-5.553 7.204a.257.257 0 0 1-.09.181 71.644 71.644 0 0 0-2.09 1.89.304.304 0 0 1-.086.055.266.266 0 0 1-.204-.006.265.265 0 0 1-.153-.252c.14-3.6.542-7.222 1.193-10.77a.273.273 0 0 1 .096-.16c1.32-1.047 3.485-4.946 4.632-8.346 1.482-4.524.194-5.658-.904-6.12-.569-.242-1.128-.26-1.666-.054-1.164.45-2.199 1.961-2.99 4.374-1.234 3.697-.848 8.55.014 10.018.034.055.045.12.034.184a75.604 75.604 0 0 0-1.177 10.908.266.266 0 0 1-.168.238.261.261 0 0 1-.287-.068 71.493 71.493 0 0 1-1.972-2.267.279.279 0 0 1-.063-.186c.095-1.662-1.556-6.147-3.525-9.599-1.63-2.79-3.145-3.94-4.5-3.416a2.754 2.754 0 0 0-.743.448c-1.75 1.409-1.58 4.037.468 7.206 2.076 3.232 5.93 5.712 7.566 5.935.065.009.124.04.166.09a70.25 70.25 0 0 0 2.944 3.323.27.27 0 0 1 .074.186c-.018 1.832.03 3.679.14 5.488a.262.262 0 0 1-.147.254l-.004.003c-.112.043-.213.025-.287-.041a71.082 71.082 0 0 1-2.648-2.506c.12-.197.187-.433.182-.681-.013-.644-.503-1.173-1.096-1.178a.926.926 0 0 0-.348.064c-.435.168-.723.633-.714 1.155.007.345.144.67.38.892a.996.996 0 0 0 1.048.216c.063-.023.12-.055.175-.089a70.085 70.085 0 0 0 3.472 3.232.263.263 0 0 1 .09.18c.256 3.152.71 6.309 1.347 9.384a.271.271 0 0 1-.108.275l-.054.03a.27.27 0 0 1-.238-.025 73.511 73.511 0 0 1-2.483-1.714.261.261 0 0 1-.099-.141c-.674-2.276-4.16-7.017-7.142-10.286-2.56-2.748-4.599-3.858-6.05-3.297-.433.168-.823.476-1.19.941-1.733 2.157-.722 5.425 2.702 8.741 3.792 3.695 9.94 5.59 11.478 4.995l.05-.02a.261.261 0 0 1 .244.029 73.408 73.408 0 0 0 3.193 2.143.261.261 0 0 1 .117.163 77.042 77.042 0 0 0 2.25 7.778.267.267 0 0 1-.072.286.26.26 0 0 1-.29.041 72.334 72.334 0 0 1-4.21-2.201c.052-.209.05-.436-.014-.659-.18-.617-.79-.996-1.36-.844-.034.009-.067.021-.099.032-.514.2-.781.824-.608 1.423.096.331.314.61.597.763.247.131.52.161.772.079l.056-.02a1.03 1.03 0 0 0 .414-.305c1.679.949 3.42 1.843 5.18 2.66a.26.26 0 0 1 .136.148 76.072 76.072 0 0 0 2.8 6.605c.236.485.501 1.021.816 1.631a.264.264 0 0 1-.14.37.276.276 0 0 1-.173.007c-.9-.288-1.85-.613-2.82-.967a.27.27 0 0 1-.132-.109c-1.32-2.133-6.539-6.216-11.007-9.146-3.29-2.097-5.694-2.874-7.154-2.311-.642.248-1.122.754-1.47 1.541-1.267 2.79.822 6.067 5.588 8.772 4.87 2.785 11.467 3.337 13.692 2.474a1.7 1.7 0 0 0 .459-.252.27.27 0 0 1 .256-.045c1.232.44 2.45.84 3.619 1.189a.27.27 0 0 1 .157.127 75.097 75.097 0 0 0 4.02 6.573c.06.089.062.205.004.295a.272.272 0 0 1-.126.105.253.253 0 0 1-.141.013 74.22 74.22 0 0 1-10.704-2.837 1.422 1.422 0 0 0-.168-.631c-.308-.572-.932-.853-1.45-.651a.964.964 0 0 0-.566.633 1.4 1.4 0 0 0 .125 1.062c.31.575.925.861 1.43.665a.924.924 0 0 0 .128-.061 1 1 0 0 0 .414-.486 74.815 74.815 0 0 0 11.743 3.017c.07.011.128.05.168.106a75.087 75.087 0 0 0 6.112 7.493c.757.801 2.407 2.482 3.579 3.599.224.211.451.418.678.624l.406-.683a52.613 52.613 0 0 1-3.693-3.643z" fill="#C2D48F"/>
    <path d="M79.383 169.953c11.72-7.675 15.012-24.006 9.12-29.168-7.953-6.97-13.433 1.423-13.433 1.423s-2.364-13.863-13.723-11.867c-10.579 1.857-7.535 15.492-7.535 15.492s-9.106-5.987-14.118 5.224c-3.564 7.971 2.702 16.013 9.91 18.896h29.78z" fill="#26639A"/>
    <mask id="yga5655c7q" style="mask-type:alpha" maskUnits="userSpaceOnUse" x="57" y="150" width="9" height="20">
        <path d="M57.33 150.948a.358.358 0 0 0-.076.493c.071.098 5.726 8.104 7.756 18.516h.707c-2.043-10.644-7.83-18.83-7.902-18.932a.342.342 0 0 0-.485-.077z" fill="url(#l8x6dpd9vp)"/>
    </mask>
    <g mask="url(#yga5655c7q)">
        <path d="M57.33 150.948a.358.358 0 0 0-.076.493c.071.098 5.726 8.104 7.756 18.516h.707c-2.043-10.644-7.83-18.83-7.902-18.932a.342.342 0 0 0-.485-.077z" fill="url(#nd8372q0qr)"/>
    </g>
    <mask id="2n5xa588nt" style="mask-type:alpha" maskUnits="userSpaceOnUse" x="47" y="152" width="16" height="18">
        <path d="M47.888 153.023a.513.513 0 0 0-.72.14.531.531 0 0 0 .138.732c.115.08 9.422 6.577 14.038 16.059h1.169c-4.587-9.925-14.137-16.595-14.625-16.931z" fill="url(#c4pwywdbos)"/>
    </mask>
    <g mask="url(#2n5xa588nt)">
        <path d="M47.888 153.023a.513.513 0 0 0-.72.14.531.531 0 0 0 .138.732c.115.08 9.422 6.577 14.038 16.059h1.169c-4.587-9.925-14.137-16.595-14.625-16.931z" fill="url(#0j0snsh0qu)"/>
    </g>
    <mask id="hhmvd6zepw" style="mask-type:alpha" maskUnits="userSpaceOnUse" x="71" y="149" width="12" height="21">
        <path d="M82.06 149.077a.522.522 0 0 0-.645.361c-.039.132-3.26 11.342-9.747 20.514h1.274c6.312-9.215 9.437-20.091 9.476-20.22a.534.534 0 0 0-.359-.655z" fill="url(#g2484m248v)"/>
    </mask>
    <g mask="url(#hhmvd6zepw)">
        <path d="M82.06 149.077a.522.522 0 0 0-.645.361c-.039.132-3.26 11.342-9.747 20.514h1.274c6.312-9.215 9.437-20.091 9.476-20.22a.534.534 0 0 0-.359-.655z" fill="url(#usg8mc7oix)"/>
    </g>
    <mask id="9iekfwobjz" style="mask-type:alpha" maskUnits="userSpaceOnUse" x="63" y="139" width="6" height="31">
        <path d="M63.956 139.347a.527.527 0 0 0-.331.666c.049.157 4.342 13.667 3.816 29.941h1.041c.524-16.456-3.816-30.114-3.868-30.273a.521.521 0 0 0-.658-.334z" fill="url(#625l7000ey)"/>
    </mask>
    <g mask="url(#9iekfwobjz)">
        <path d="M63.956 139.345a.527.527 0 0 0-.331.666c.049.157 4.342 13.667 3.816 29.941h1.041c.524-16.456-3.816-30.114-3.868-30.273a.521.521 0 0 0-.658-.334z" fill="url(#9wvconlwzA)"/>
    </g>
    <mask id="fdkmc5cwtC" style="mask-type:alpha" maskUnits="userSpaceOnUse" x="69" y="149" width="6" height="21">
        <path d="M74.088 149.236a.36.36 0 0 0-.363.335c-.006.14-.566 11.248-4.479 20.384h.748c3.861-9.22 4.419-20.209 4.423-20.35a.348.348 0 0 0-.329-.369z" fill="url(#z20u4rsanB)"/>
    </mask>
    <g mask="url(#fdkmc5cwtC)">
        <path d="M74.088 149.235a.359.359 0 0 0-.363.334c-.006.141-.566 11.248-4.479 20.384h.748c3.861-9.22 4.419-20.209 4.423-20.35a.347.347 0 0 0-.329-.368z" fill="url(#lkcx1at99D)"/>
    </g>
    <path d="M31.732 169.948c-5.764-6.311-8.233-16.122-4.69-19.541 3.886-3.749 7.455 1.684 7.455 1.684s2.6-8.931 9.205-6.867c6.597 2.064 4.479 9.195 4.479 9.195s6.37-4.226 9.089 3.367c1.643 4.596-1.91 9.402-6.378 12.162h-19.16z" fill="#FEEEC7"/>
    <mask id="iinjywbbkF" style="mask-type:alpha" maskUnits="userSpaceOnUse" x="38" y="151" width="4" height="19">
        <path d="M41.85 152.338a.326.326 0 0 0-.213-.407.32.32 0 0 0-.403.216c-.034.112-2.854 9.487-2.192 17.807h.645c-.674-8.188 2.127-17.504 2.162-17.616z" fill="url(#lghyo2e0fE)"/>
    </mask>
    <g mask="url(#iinjywbbkF)">
        <path d="M41.85 152.338a.326.326 0 0 0-.213-.407.32.32 0 0 0-.403.216c-.034.112-2.854 9.487-2.192 17.807h.645c-.674-8.188 2.127-17.504 2.162-17.616z" fill="url(#u8dw32j69G)"/>
    </g>
    <mask id="8cgjag4opI" style="mask-type:alpha" maskUnits="userSpaceOnUse" x="35" y="159" width="4" height="11">
        <path d="M35.547 159.187a.242.242 0 0 0-.218.266c.007.075.533 5.515 2.805 10.498h.529c-2.31-4.944-2.848-10.466-2.855-10.541a.24.24 0 0 0-.261-.223z" fill="url(#fgsix8urzH)"/>
    </mask>
    <g mask="url(#8cgjag4opI)">
        <path d="M35.543 159.187a.243.243 0 0 0-.218.266c.007.075.533 5.515 2.805 10.498h.529c-2.31-4.944-2.848-10.466-2.855-10.541a.24.24 0 0 0-.261-.223z" fill="url(#kcfhyw4txJ)"/>
    </g>
    <mask id="67a7zvxabL" style="mask-type:alpha" maskUnits="userSpaceOnUse" x="30" y="156" width="7" height="14">
        <path d="M30.315 156.337a.326.326 0 0 0-.235.395c.02.091 1.81 7.386 6.057 13.222h.806c-4.37-5.772-6.218-13.285-6.239-13.376a.326.326 0 0 0-.39-.241z" fill="url(#nnvr0tq7gK)"/>
    </mask>
    <g mask="url(#67a7zvxabL)">
        <path d="M30.315 156.333a.326.326 0 0 0-.235.395c.02.091 1.81 7.386 6.057 13.222h.806c-4.37-5.772-6.218-13.285-6.239-13.376a.326.326 0 0 0-.39-.241z" fill="url(#jw733bqm7M)"/>
    </g>
    <mask id="ljg9pnqxuO" style="mask-type:alpha" maskUnits="userSpaceOnUse" x="40" y="160" width="12" height="10">
        <path d="M51.295 160.076a.32.32 0 0 0-.452.054c-.053.068-4.492 5.711-10.199 9.821h1.093c5.437-4.11 9.56-9.348 9.612-9.414a.332.332 0 0 0-.053-.461z" fill="url(#0m94ggsxwN)"/>
    </mask>
    <g mask="url(#ljg9pnqxuO)">
        <path d="M51.295 160.074a.32.32 0 0 0-.452.054c-.053.068-4.492 5.711-10.199 9.821h1.093c5.437-4.11 9.56-9.348 9.612-9.414a.332.332 0 0 0-.053-.461z" fill="url(#upyn2lf4yP)"/>
    </g>
    <mask id="oxdr6sfu7R" style="mask-type:alpha" maskUnits="userSpaceOnUse" x="39" y="159" width="7" height="11">
        <path d="M45.219 159.644a.24.24 0 0 0-.323.113c-.035.08-2.641 5.577-5.115 10.191h.549c2.444-4.58 4.967-9.902 5.003-9.977a.246.246 0 0 0-.114-.327z" fill="url(#5iubj4w2lQ)"/>
    </mask>
    <g mask="url(#oxdr6sfu7R)">
        <path d="M45.219 159.645a.241.241 0 0 0-.323.114c-.035.08-2.641 5.576-5.115 10.191h.549c2.444-4.58 4.967-9.902 5.003-9.977a.248.248 0 0 0-.114-.328z" fill="url(#lc3xro6ncS)"/>
    </g>
    <path d="M274.169 155.459v-.005a74.63 74.63 0 0 0 6.5-7.891.268.268 0 0 0 .047-.2 67.135 67.135 0 0 0-2.869-11.142 1.191 1.191 0 0 1-.286-.069.875.875 0 0 1-.179-.088c-.514-.3-.752-.881-.53-1.292.2-.37.725-.503 1.224-.313.047.018.092.039.137.061.285.148.496.393.583.672a.799.799 0 0 1-.049.622.753.753 0 0 1-.364.332 67.695 67.695 0 0 1 2.675 10.084.262.262 0 0 0 .164.2c.013.004.026.009.04.011a.263.263 0 0 0 .272-.109 75.91 75.91 0 0 0 3.943-6.444.263.263 0 0 0 .02-.204 70.253 70.253 0 0 0-1.186-3.6.263.263 0 0 0-.152-.159l-.05-.018c-1.7-.656-5.665-5.876-8.519-10.545-1.581-2.644-2.187-4.437-1.85-5.484.166-.519.57-.901 1.273-1.2.909-.359 1.857-.352 2.818.018 1.486.576 2.982 2.015 4.444 4.276 2.611 3.906 3.417 10.187 2.667 12.352a.256.256 0 0 0 .003.179c.345.947.646 1.827.922 2.692a.256.256 0 0 0 .229.182.264.264 0 0 0 .256-.143 75.44 75.44 0 0 0 3.598-8.178.263.263 0 0 0-.009-.204 70.38 70.38 0 0 0-2.56-4.994 1.13 1.13 0 0 1-.537-.034c-.025-.009-.047-.016-.067-.025-.528-.202-.833-.731-.696-1.203.141-.495.725-.772 1.3-.617.04.011.083.023.121.038.51.198.788.709.649 1.19a.874.874 0 0 1-.285.433 69.665 69.665 0 0 1 2.106 4.036.27.27 0 0 0 .142.132.314.314 0 0 0 .11.018.265.265 0 0 0 .233-.177 75.484 75.484 0 0 0 2.214-7.652.26.26 0 0 0-.034-.202 68.747 68.747 0 0 0-2.095-3.15.244.244 0 0 0-.121-.093.211.211 0 0 0-.078-.018c-.207-.012-.472-.08-.786-.2-2.214-.856-6.279-4.09-8.926-6.721-1.868-1.886-2.746-3.307-2.686-4.344.032-.547.322-1.017.908-1.482 1.053-.799 2.308-.924 3.734-.373 1.069.414 2.232 1.21 3.456 2.372 3.008 2.776 5.011 7.865 4.892 9.942a.272.272 0 0 0 .05.17 72.44 72.44 0 0 1 1.61 2.358.277.277 0 0 0 .126.103.24.24 0 0 0 .143.011.265.265 0 0 0 .209-.207 75.185 75.185 0 0 0 1.327-9.337.27.27 0 0 0-.063-.196 71.379 71.379 0 0 0-2.903-3.2c-.13.045-.272.068-.413.064a1.205 1.205 0 0 1-.38-.08c-.413-.159-.685-.538-.678-.94.009-.535.501-.976 1.094-.98a1.07 1.07 0 0 1 .406.073.991.991 0 0 1 .656.946.96.96 0 0 1-.243.615 72.987 72.987 0 0 1 2.167 2.354.262.262 0 0 0 .103.073.262.262 0 0 0 .355-.234c.106-1.814.148-3.618.124-5.368a.256.256 0 0 0-.079-.186 71.495 71.495 0 0 0-3.184-2.933.316.316 0 0 0-.076-.045.346.346 0 0 0-.083-.018c-.667-.028-1.718-.31-2.964-.79-1.797-.695-3.869-1.755-5.41-2.767-1.72-1.144-2.665-2.17-2.811-3.05-.081-.489.067-.956.463-1.474.893-1.135 2.254-1.357 4.046-.665.581.225 1.21.55 1.873.963 2.91 1.784 5.44 5.635 5.553 7.204.004.07.036.136.089.181.757.661 1.442 1.278 2.091 1.891a.318.318 0 0 0 .085.055.27.27 0 0 0 .205-.007.265.265 0 0 0 .152-.252 76.148 76.148 0 0 0-1.192-10.77.27.27 0 0 0-.097-.161c-1.32-1.047-3.485-4.946-4.632-8.346-1.482-4.524-.193-5.659.905-6.12.568-.242 1.127-.26 1.666-.054 1.163.45 2.198 1.961 2.989 4.374 1.235 3.697.849 8.55-.014 10.019a.262.262 0 0 0-.033.183 75.668 75.668 0 0 1 1.176 10.909c.005.107.07.2.169.238a.259.259 0 0 0 .287-.068 73.113 73.113 0 0 0 1.972-2.267.278.278 0 0 0 .062-.186c-.094-1.662 1.557-6.147 3.528-9.6 1.63-2.789 3.146-3.94 4.5-3.415.247.095.496.245.743.447 1.752 1.41 1.581 4.038-.467 7.206-2.077 3.232-5.93 5.713-7.567 5.936a.264.264 0 0 0-.166.09 70.217 70.217 0 0 1-2.944 3.323.272.272 0 0 0-.074.187 78.191 78.191 0 0 1-.139 5.488.26.26 0 0 0 .146.254l.004.002c.112.043.213.025.288-.041a70.611 70.611 0 0 0 2.647-2.505 1.304 1.304 0 0 1-.184-.681c.013-.645.503-1.174 1.096-1.178.119 0 .235.02.345.063.436.168.723.634.714 1.156a1.255 1.255 0 0 1-.379.892.996.996 0 0 1-1.224.127 70.47 70.47 0 0 1-3.471 3.232.257.257 0 0 0-.09.179 77.301 77.301 0 0 1-1.347 9.386.27.27 0 0 0 .107.274c.018.012.036.021.054.03a.27.27 0 0 0 .238-.025 73.522 73.522 0 0 0 2.484-1.714.264.264 0 0 0 .099-.141c.673-2.276 4.16-7.018 7.142-10.288 2.571-2.754 4.61-3.864 6.061-3.303.433.168.824.477 1.19.942 1.733 2.156.723 5.425-2.701 8.741-3.793 3.697-9.941 5.59-11.479 4.998l-.05-.021a.263.263 0 0 0-.244.03 73.717 73.717 0 0 1-3.193 2.143.26.26 0 0 0-.117.163 77.145 77.145 0 0 1-2.25 7.778.266.266 0 0 0 .155.336.262.262 0 0 0 .207-.009 72.528 72.528 0 0 0 4.21-2.201 1.284 1.284 0 0 1 .013-.659c.18-.617.791-.996 1.361-.844.034.009.067.02.099.032.514.2.781.824.608 1.423-.096.331-.314.61-.597.763a.998.998 0 0 1-.772.079l-.057-.02a1.029 1.029 0 0 1-.413-.305 73.656 73.656 0 0 1-5.18 2.661.257.257 0 0 0-.137.147 76.22 76.22 0 0 1-2.8 6.605 79.31 79.31 0 0 1-.815 1.632.264.264 0 0 0 .312.375c.9-.289 1.85-.613 2.82-.967a.278.278 0 0 0 .133-.109c1.32-2.134 6.539-6.217 11.007-9.145 3.29-2.097 5.694-2.874 7.154-2.311.642.248 1.123.754 1.471 1.541 1.266 2.79-.822 6.067-5.589 8.773-4.871 2.785-11.468 3.337-13.693 2.474a1.705 1.705 0 0 1-.458-.252.26.26 0 0 0-.256-.045c-1.233.44-2.45.84-3.62 1.189a.268.268 0 0 0-.157.127 75.764 75.764 0 0 1-4.017 6.573.266.266 0 0 0 .263.413 74.25 74.25 0 0 0 10.704-2.837c.007-.211.058-.426.168-.631.308-.572.932-.853 1.451-.651a.964.964 0 0 1 .566.633c.103.336.056.722-.126 1.062-.31.575-.925.861-1.431.665a.923.923 0 0 1-.127-.061 1.004 1.004 0 0 1-.414-.486 74.825 74.825 0 0 1-11.743 3.017.255.255 0 0 0-.169.107 74.98 74.98 0 0 1-6.112 7.492c-.757.801-2.407 2.483-3.579 3.6-.225.211-.451.417-.678.624l-.407-.683a53.668 53.668 0 0 0 3.681-3.634z" fill="#C2D58F"/>
    <path d="M295.976 169.327c.886-1.159 1.665-2.51 2.306-3.915a23.652 23.652 0 0 0 2.173-10.543 22.596 22.596 0 0 0-1.448-7.418 16.83 16.83 0 0 0-1.122-2.4l-.022-.023c-.007-.014-.018-.025-.027-.041l-.054-.093v-.021l-.042-.002a4.589 4.589 0 0 0-.401.346c-.645.593-2.357 2.166-4.526 3.626l-.023.015-.029.016c-2.572 1.805-6.174 3.713-9.883 5.238l-.013.004v.014c-.036.384-.085.775-.144 1.164l-.109.714-.578-.423a47.87 47.87 0 0 1-.893-.666l-.011-.009-.014.007c-1.061.504-1.902.966-2.652 1.45a46.496 46.496 0 0 0-5.751 4.242 50.63 50.63 0 0 0-4.363 4.26c-1.332 1.435-2.319 2.705-2.912 3.555-.273.394-.482.773-.629.903h31.167z" fill="#FEEEC7"/>
    <path d="M265.168 169.326c.473-.644 1.632-2.389 3.405-4.297a49.84 49.84 0 0 1 4.327-4.201l.448-.377-.15.539c-.752 2.914-2.078 5.762-3.844 8.336h.672a26.24 26.24 0 0 0 3.989-9.4l.013-.043.052-.03a46.02 46.02 0 0 1 3.77-2.737l.259-.168.025.314c.295 3.796-.291 7.804-1.695 11.589l-.033.088-.09-.018c-.584.171-1.171.277-1.764.407h2.796l-.134-.05.353-.093a29.784 29.784 0 0 0 6.544-3.06l.078-.041.085.039c2.776 1.055 5.735 1.687 8.798 1.948.989.084 1.999.1 3.008.1h.347l-.194.277c-.2.3-.406.623-.618.882h.673a21.66 21.66 0 0 0 2.219-3.803 23.946 23.946 0 0 0 2.198-10.659 22.86 22.86 0 0 0-1.466-7.504 17.03 17.03 0 0 0-1.148-2.455c-.007-.01-.014-.014-.021-.023-.004-.007-.011-.014-.015-.023l-.023-.039-.006-.181-.249-.021c-.13-.011-.15-.011-.611.409-.642.589-2.344 2.153-4.497 3.603l-.023.014-.006.002c-2.559 1.799-6.152 3.704-9.859 5.229l-.154.064-.016.168c-.036.379-.083.764-.141 1.146l-.047.3-.244-.178c-.3-.218-.6-.441-.889-.664l-.134-.102-.15.073c-1.07.511-1.921.975-2.677 1.466a46.541 46.541 0 0 0-5.783 4.267 50.494 50.494 0 0 0-4.383 4.278c-1.341 1.446-2.337 2.726-2.934 3.585-.336.482-.571.921-.721 1.051h.66v-.007zm34.357-8.384a23.24 23.24 0 0 1-1.515 4.387 23.2 23.2 0 0 1-1.175 2.24l-.052.088h-.103c-4.061.066-7.947-.55-11.553-1.827l-.349-.123.309-.209a30.514 30.514 0 0 0 5.054-4.324l.063-.066.09.009a31.952 31.952 0 0 0 9.023-.402l.28-.053-.072.28zm.596-6.863a23.476 23.476 0 0 1-.376 5.858l-.025.125-.123.025a31.554 31.554 0 0 1-8.551.53l-.37-.027.247-.282a30.56 30.56 0 0 0 3.519-4.995l.044-.077.09-.014a30.637 30.637 0 0 0 5.305-1.307l.229-.079.011.243zm-2.322-7.825.11-.548.237.503c.202.425.399.884.582 1.364a22.328 22.328 0 0 1 1.31 5.538l.016.147-.139.05a30.313 30.313 0 0 1-4.721 1.244l-.37.066.175-.337a30.79 30.79 0 0 0 2.8-8.027zm-5.77 3.481c.335-.219.655-.437.958-.648a36.506 36.506 0 0 0 3.964-3.117l.414-.37-.112.547a29.779 29.779 0 0 1-2.753 7.827l-.175.335-.159-.344a30.444 30.444 0 0 0-2.193-3.971l-.106-.159.162-.1zm-4.292 2.468a49.644 49.644 0 0 0 3.508-1.973l.152-.093.099.15a29.994 29.994 0 0 1 2.451 4.551l.038.087-.047.081a30.133 30.133 0 0 1-3.443 4.856l-.244.282-.076-.368a29.14 29.14 0 0 0-2.518-7.318l-.085-.17.165-.085zm-4.446 2.065a62.602 62.602 0 0 0 3.622-1.648l.164-.082.083.163c1.222 2.41 2.097 5.054 2.605 7.861l.016.094-.065.07a30.13 30.13 0 0 1-4.922 4.219l-.307.212.02-.375c.179-3.551-.278-7.107-1.316-10.28l-.056-.166.156-.068zm-4.645 2.464-.011-.116.097-.061a22.454 22.454 0 0 1 2.263-1.244l.1-.05.09.068c.419.316.846.63 1.276.932l.349.246.005-.025.36-.009c.703 2.83.956 5.931.732 8.966l-.007.095-.08.05a29.609 29.609 0 0 1-6.389 3.03l-.356.118.123-.359c1.319-3.821 1.818-7.847 1.448-11.641z" fill="#fff"/>
    <path d="M277.169 169.328c1.166-.975 1.715-2.355 1.323-3.203-1.31-2.835-5.37-.766-7.052.243 3.031-1.984 14.17-9.761 10.448-14.767-4.296-5.772-11.372 1.389-11.372 1.389s2.744-2.862 4.889-6.899c2.147-4.038.302-11.471-5.648-9.85-4.352 1.184-7.076 6.228-8.229 8.858 1.713-4.612 5.758-17.711-2.494-19.995-10.048-2.785-14.808 16.301-14.808 16.301s-.544-3.51-2.216-5.503c-1.674-1.996-6.357-3.581-9.744 2.014-3.387 5.594-1.005 14.206-1.005 14.206s-2.069-4.031-5.431-5.347c-3.362-1.319-7.804 2.751-7.28 9.632.383 5.055 2.754 10.482 3.983 12.919h54.636v.002z" fill="#2D79BC"/>
    <path d="M266.609 169.327c-.694-.487-1.54-.409-1.54-.409s6.411-3.169 4.967-6.079c-1.446-2.91-6.454-.452-6.454-.452s5.46-4.27 1.845-7.109c-3.613-2.839-8.865 2.366-8.865 2.366s4.213-6.515-1.703-7.879c-5.917-1.361-6.539 4.858-6.539 4.858s-3.076-5.14-7.443-1.184c-4.37 3.955-1.032 9.343-1.032 9.343s-5.601-3.492-8.18.534c-1.11 1.73-.855 4.065-.204 6.013h35.148v-.002z" fill="#26639A"/>
    <mask id="03xp0s34dU" style="mask-type:alpha" maskUnits="userSpaceOnUse" x="234" y="152" width="33" height="18">
        <path d="M251.558 169.327h.942c4.054-6.024 10.513-11.068 10.593-11.132a.393.393 0 0 0 .074-.55.384.384 0 0 0-.544-.075c-.342.268-7.015 5.476-11.065 11.757zm14.824-5.39c-.298.137-5.239 2.401-9.552 5.393h1.417c4.07-2.665 8.383-4.642 8.45-4.674.195-.089.282-.321.195-.521a.384.384 0 0 0-.51-.198zm-23.077-7.727c.031.057 2.565 5.027 1.913 13.117h.784c.667-8.259-1.887-13.248-2.013-13.487a.381.381 0 0 0-.523-.161.394.394 0 0 0-.161.531zm10.221-3.255c-.025.105-2.384 9.796-5.333 16.375h.851c2.912-6.643 5.212-16.084 5.236-16.186a.39.39 0 0 0-.284-.475.383.383 0 0 0-.47.286zm-18.947 12.63c.024.023 1.717 1.537 3.313 3.745h.96c-1.712-2.501-3.649-4.236-3.765-4.336a.384.384 0 0 0-.546.037.395.395 0 0 0 .038.554z" fill="url(#r01w99mwoT)"/>
    </mask>
    <g mask="url(#03xp0s34dU)">
        <path d="M251.558 169.329h.942c4.054-6.024 10.513-11.068 10.593-11.132a.393.393 0 0 0 .074-.55.384.384 0 0 0-.544-.075c-.342.268-7.015 5.476-11.065 11.757zm14.824-5.39c-.298.137-5.239 2.401-9.552 5.393h1.417c4.07-2.665 8.383-4.643 8.45-4.674a.397.397 0 0 0 .195-.521.384.384 0 0 0-.51-.198zm-23.077-7.727c.031.057 2.565 5.027 1.913 13.117h.784c.667-8.259-1.887-13.248-2.013-13.487a.382.382 0 0 0-.523-.162.395.395 0 0 0-.161.532zm10.221-3.255c-.025.105-2.384 9.796-5.333 16.375h.851c2.912-6.643 5.212-16.084 5.236-16.186a.39.39 0 0 0-.284-.475.383.383 0 0 0-.47.286zm-18.947 12.63c.024.023 1.717 1.537 3.313 3.745h.96c-1.712-2.501-3.649-4.236-3.765-4.336a.384.384 0 0 0-.546.037.395.395 0 0 0 .038.554z" fill="url(#otj2dvug4V)"/>
    </g>
    <path d="m99.307 102.496 172.983-27.07-152.076 54.829-20.002-24.16-.905-3.599z" fill="#26BED6"/>
    <path d="m117.55 123.867 154.738-48.44-93.329 94.92-61.409-46.48z" fill="#94ECFA"/>
    <path d="m99.894 105.443 172.397-29.98-203.545-4.117 31.148 34.097z" fill="#94ECFA"/>
    <path d="M119.73 96.427c2.393 6.156 6.12 11.278 10.373 14.336l-.002.006c.636.46.83 1.132.36 1.61l.009-.005c-.365.391-.72.794-1.056 1.207-.175.239.174.451.333.255l.005.002a22.721 22.721 0 0 1 2.008-2.168 22.605 22.605 0 0 1 4.331-3.21 22.653 22.653 0 0 1 2.785-1.341 22.186 22.186 0 0 1 8.258-1.614c.978-.003 1.959.065 2.926.19l.002-.004c.246.034.358-.364.072-.416a23.273 23.273 0 0 0-1.583-.148l.009-.002c-.665-.023-.976-.65-.819-1.425-.003-.003-.005 0-.007-.003 1.05-5.183.327-11.51-2.064-17.665-2.393-6.156-6.12-11.276-10.373-14.333 0-.003.002-.003.002-.005-.636-.46-.831-1.132-.361-1.61 0 0-.002.003-.006.005.365-.39.721-.793 1.056-1.205.175-.238-.174-.45-.333-.254l-.005-.003a22.718 22.718 0 0 1-2.008 2.17 22.63 22.63 0 0 1-4.331 3.209 22.809 22.809 0 0 1-5.722 2.294 22.203 22.203 0 0 1-5.321.661 22.476 22.476 0 0 1-2.926-.19l-.002.004c-.246-.034-.36.364-.072.418a23.02 23.02 0 0 0 1.583.148c-.007 0-.009.002-.009.002.665.023.976.65.819 1.425.003.003.005 0 .007.003-1.052 5.174-.329 11.5 2.062 17.656zm21.967 7.995a.36.36 0 0 1-.012-.047c-.839-4.245-2.453-9.578-4.533-14.931-2.079-5.354-4.488-10.369-6.731-14.049l-.022-.043c-.401-.666-.345-1.298.21-1.646 0 0-.004.002-.009.002a23.019 23.019 0 0 0 2.317-1.71c.029-.02.063-.05.114-.093.681-.606 1.419-.263 1.872.028 4.251 2.996 7.985 8.1 10.375 14.253 2.393 6.154 3.098 12.471 2.011 17.609-.135.525-.444 1.289-1.35 1.318-.067.003-.112.005-.146.01-.953.059-1.905.179-2.843.359a.018.018 0 0 1 .007-.005c-.638.132-1.104-.291-1.26-1.055zm-6.279 2.556c-2.252-3.669-4.684-8.718-6.783-14.12-2.1-5.399-3.721-10.773-4.542-15.017-.094-.548-.114-1.191.546-1.396l.022-.007a22.67 22.67 0 0 0 3.96-1.589c.007-.004.014-.004.023-.009.62-.309 1.038.175 1.338.641 2.252 3.67 4.683 8.72 6.783 14.12 2.098 5.399 3.718 10.773 4.542 15.015.094.55.114 1.191-.546 1.395l-.022.007a22.687 22.687 0 0 0-3.96 1.589c-.009.005-.014.005-.023.009-.622.31-1.039-.172-1.338-.638zm-15.299-10.705c-2.393-6.154-3.098-12.471-2.01-17.61.134-.524.443-1.288 1.35-1.317.065-.003.11-.007.145-.01.954-.059 1.903-.18 2.843-.359l-.009.005c.638-.132 1.106.293 1.261 1.055.004.015.009.031.011.047.839 4.245 2.453 9.578 4.535 14.931 2.082 5.354 4.489 10.369 6.732 14.049.008.014.013.027.024.043.399.666.343 1.298-.21 1.646 0 0 .004-.002.009-.002a22.968 22.968 0 0 0-2.317 1.709c-.027.021-.063.048-.112.093-.681.607-1.419.264-1.872-.027-4.253-2.996-7.987-8.1-10.38-14.253z" fill="#FEEEC7"/>
    <path d="M135.647 68.626a22.98 22.98 0 0 1-2.008 2.17 22.634 22.634 0 0 1-4.331 3.209 22.838 22.838 0 0 1-5.722 2.294 22.197 22.197 0 0 1-5.321.661 22.459 22.459 0 0 1-2.926-.19c-.331-.078-.163-.471.184-.901a22.786 22.786 0 0 1 8.77-6.254 22.449 22.449 0 0 1 10.613-1.516c.544.068.929.241.741.527z" fill="#26639A"/>
    <path d="M113.811 78.105c.533-.76 1.021-.973 1.43-.916a.688.688 0 0 0 .092.006c.502.064 1.01.11 1.516.141-.007 0-.009.002-.009.002.665.023.976.65.819 1.426.002.002.005 0 .007.002-1.05 5.183-.327 11.51 2.064 17.663 2.393 6.156 6.12 11.276 10.373 14.333l-.002.007c.636.459.83 1.132.36 1.61 0 0 .003-.003.009-.005-.351.375-.689.759-1.014 1.155a.628.628 0 0 0-.062.07c-.26.326-.759.51-1.661.323-7.162-1.623-13.427-6.704-16.324-14.155a23.519 23.519 0 0 1 2.402-21.662zM124.636 76.447l.023-.007a22.794 22.794 0 0 0 3.96-1.59c.006-.004.013-.004.022-.008.62-.31 1.039.175 1.339.64 2.252 3.67 4.683 8.721 6.782 14.12 2.098 5.4 3.719 10.773 4.542 15.015.094.55.115 1.191-.546 1.396l-.022.007a22.574 22.574 0 0 0-3.96 1.589c-.009.004-.014.004-.023.009-.62.307-1.036-.175-1.338-.641-2.252-3.669-4.683-8.718-6.783-14.12-2.1-5.399-3.721-10.773-4.542-15.017-.092-.545-.112-1.186.546-1.393zM148.558 105.125c-.665-.023-.976-.65-.82-1.425-.002-.002-.004 0-.006-.002 1.049-5.183.326-11.51-2.064-17.666-2.393-6.156-6.121-11.275-10.374-14.333 0-.002.002-.002.002-.005-.635-.459-.83-1.132-.36-1.609l-.007.005c.349-.376.69-.76 1.014-1.155.02-.02.043-.044.063-.07.262-.326.759-.51 1.661-.324 7.159 1.624 13.427 6.704 16.323 14.156a23.519 23.519 0 0 1-2.401 21.662c-.535.759-1.021.973-1.431.916a.77.77 0 0 0-.092-.007 22.608 22.608 0 0 0-1.515-.138c.004-.005.007-.005.007-.005z" fill="#B2D5EA"/>
    <path d="M129.747 113.834a22.895 22.895 0 0 1 2.011-2.169 22.647 22.647 0 0 1 4.331-3.21 22.653 22.653 0 0 1 2.785-1.341 22.564 22.564 0 0 1 2.935-.952 22.187 22.187 0 0 1 5.323-.662c.978-.002 1.959.066 2.926.191.331.08.163.473-.184.9a22.758 22.758 0 0 1-8.771 6.254 22.45 22.45 0 0 1-10.612 1.516c-.544-.068-.932-.238-.744-.527z" fill="#26639A"/>
    <path d="M137.151 89.443c-2.08-5.353-4.489-10.368-6.732-14.049a.493.493 0 0 0-.022-.043c-.401-.666-.345-1.298.21-1.646 0 0-.004.003-.009.003a23.019 23.019 0 0 0 2.317-1.71c.029-.02.063-.05.114-.093.681-.607 1.42-.264 1.872.027 4.251 2.996 7.985 8.1 10.376 14.254 2.393 6.153 3.098 12.47 2.01 17.608-.135.526-.443 1.289-1.35 1.319a22.656 22.656 0 0 0-2.989.368.078.078 0 0 1 .007-.004c-.638.132-1.106-.294-1.26-1.055a.277.277 0 0 1-.011-.048c-.838-4.242-2.452-9.577-4.533-14.93zM118.113 78.665c.134-.525.443-1.289 1.349-1.318.065-.003.11-.007.146-.01.954-.059 1.903-.18 2.843-.359l-.009.005c.638-.132 1.106.293 1.26 1.055a.274.274 0 0 1 .011.047c.84 4.245 2.454 9.578 4.536 14.931 2.082 5.354 4.488 10.369 6.731 14.049.009.014.014.027.025.043.398.666.342 1.298-.211 1.646l.009-.002c-.806.52-1.58 1.091-2.317 1.709-.027.021-.062.048-.112.094-.68.607-1.419.263-1.871-.028-4.249-2.996-7.985-8.099-10.376-14.253-2.399-6.154-3.105-12.474-2.014-17.609z" fill="#85C1E0"/>
    <path d="M129.747 113.834a22.895 22.895 0 0 1 2.011-2.169 22.647 22.647 0 0 1 4.331-3.21 22.653 22.653 0 0 1 2.785-1.341 22.564 22.564 0 0 1 2.935-.952 22.187 22.187 0 0 1 5.323-.662c.978-.002 1.959.066 2.926.191.331.08.163.473-.184.9a22.758 22.758 0 0 1-8.771 6.254 22.45 22.45 0 0 1-10.612 1.516c-.544-.068-.932-.238-.744-.527zM113.811 78.105c.533-.76 1.021-.973 1.43-.916a.688.688 0 0 0 .092.006c.502.064 1.01.11 1.516.141-.007 0-.009.002-.009.002.665.023.976.65.819 1.426.002.002.005 0 .007.002-1.05 5.183-.327 11.51 2.064 17.663 2.393 6.156 6.12 11.276 10.373 14.333l-.002.007c.636.459.83 1.132.36 1.61 0 0 .003-.003.009-.005-.351.375-.689.759-1.014 1.155a.628.628 0 0 0-.062.07c-.26.326-.759.51-1.661.323-7.162-1.623-13.427-6.704-16.324-14.155a23.519 23.519 0 0 1 2.402-21.662zM124.636 76.447l.023-.007a22.794 22.794 0 0 0 3.96-1.59c.006-.004.013-.004.022-.008.62-.31 1.039.175 1.339.64 2.252 3.67 4.683 8.721 6.782 14.12 2.098 5.4 3.719 10.773 4.542 15.015.094.55.115 1.191-.546 1.396l-.022.007a22.574 22.574 0 0 0-3.96 1.589c-.009.004-.014.004-.023.009-.62.307-1.036-.175-1.338-.641-2.252-3.669-4.683-8.718-6.783-14.12-2.1-5.399-3.721-10.773-4.542-15.017-.092-.545-.112-1.186.546-1.393zM148.558 105.125c-.665-.023-.976-.65-.82-1.425-.002-.002-.004 0-.006-.002 1.049-5.183.326-11.51-2.064-17.666-2.393-6.156-6.121-11.275-10.374-14.333 0-.002.002-.002.002-.005-.635-.459-.83-1.132-.36-1.609l-.007.005c.349-.376.69-.76 1.014-1.155.02-.02.043-.044.063-.07.262-.326.759-.51 1.661-.324 7.159 1.624 13.427 6.704 16.323 14.156a23.519 23.519 0 0 1-2.401 21.662c-.535.759-1.021.973-1.431.916a.77.77 0 0 0-.092-.007 22.608 22.608 0 0 0-1.515-.138c.004-.005.007-.005.007-.005z" fill="#26639A"/>
    <path d="M137.151 89.443c-2.08-5.353-4.489-10.368-6.732-14.049a.493.493 0 0 0-.022-.043c-.401-.666-.345-1.298.21-1.646 0 0-.004.003-.009.003a23.019 23.019 0 0 0 2.317-1.71c.029-.02.063-.05.114-.093.681-.607 1.42-.264 1.872.027 4.251 2.996 7.985 8.1 10.376 14.254 2.393 6.153 3.098 12.47 2.01 17.608-.135.526-.443 1.289-1.35 1.319a22.656 22.656 0 0 0-2.989.368.078.078 0 0 1 .007-.004c-.638.132-1.106-.294-1.26-1.055a.277.277 0 0 1-.011-.048c-.838-4.242-2.452-9.577-4.533-14.93zM118.113 78.665c.134-.525.443-1.289 1.349-1.318.065-.003.11-.007.146-.01.954-.059 1.903-.18 2.843-.359l-.009.005c.638-.132 1.106.293 1.26 1.055a.274.274 0 0 1 .011.047c.84 4.245 2.454 9.578 4.536 14.931 2.082 5.354 4.488 10.369 6.731 14.049.009.014.014.027.025.043.398.666.342 1.298-.211 1.646l.009-.002c-.806.52-1.58 1.091-2.317 1.709-.027.021-.062.048-.112.094-.68.607-1.419.263-1.871-.028-4.249-2.996-7.985-8.099-10.376-14.253-2.399-6.154-3.105-12.474-2.014-17.609z" fill="#26639A"/>
    <path d="M111.288 97.365h.005l.044.002c.103.002.206.007.309.01.188.004.314-.226.282-.512-.02-.173-.036-.348-.053-.52-.482-3.602.508-8.285 1.119-8.19.488.083.483 4.556 1.43 7.635.041.152.083.302.128.452.071.248.275.373.443.282.103-.055.206-.11.309-.162 2.1-1.161 5.019-2.116 5.276-1.614.244.455-2.117 2.471-3.633 4.506-.074.098-.148.193-.222.293-.12.162-.089.434.074.6l.296.296c2.03 2.075 5.061 3.726 4.976 4.276-.069.634-3.443.036-5.966-1.414a11.57 11.57 0 0 1-.364-.198c-.202-.111-.388-.011-.408.232-.013.146-.025.293-.036.441a16.461 16.461 0 0 0-.074 1.541c.007.751.321 1.296.838 1.871.255.273.514.541.781.8l.004.007s-.817-.341-1.585-.982a15.033 15.033 0 0 1-2.198-2.319c-.353-.509-.571-1.248-.645-2.159-.008-.134-.02-.266-.026-.398-.016-.28-.188-.55-.39-.602-.074-.021-.145-.039-.219-.059-.41-.107-.728-.378-.929-.853a13.293 13.293 0 0 1-.694-3.312c-.027-.416.105-.891.179-1.12.033.152.072.304.107.456.108.37.473.696.842.714z" fill="#FEEEC7"/>
    <path d="m111.303 97.71.467.014c.39.01.435-.273.376-.6-.349-2.344-.015-7.066.661-7.02.398.068.92 4.374 1.567 6.427.087.293.338.477.539.356 1.366-.793 4.258-2.023 4.531-1.48.213.403-1.795 2.485-2.856 3.85-.208.274-.455.563-.103.933 1.321 1.403 4.296 3.538 4.217 4.006-.1.671-3.322-.402-4.996-1.378-.302-.186-.587-.17-.625.219-.067.616-.092 1.432-.105 2.268-.009.58.356 1.846 1.466 2.492a7.133 7.133 0 0 1-1.182-.784c-.103-.087-.203-.178-.306-.271v.002a15.195 15.195 0 0 1-1.487-1.541l-.033-.043c-.58-.712-.643-1.275-.75-2.207a18.64 18.64 0 0 1-.07-.935c-.015-.45-.091-.63-.595-.786l-.007-.003c-.539-.15-1.112-.502-1.323-1.104-.02-.064-.036-.128-.056-.194a13.21 13.21 0 0 1-.439-2.241h.005c-.013-.125-.027-.25-.036-.377-.013-.23.02-.476.065-.692-.132.564.526 1.078 1.075 1.09z" fill="#26BED6"/>
    <path d="M112.793 92.035c-.002-.148.078-.27.177-.275.101-.004.181.111.183.257.003.145-.076.268-.174.275-.101.007-.184-.109-.186-.257zm.107-.004c0 .059.034.104.074.102.041-.002.072-.052.07-.11 0-.056-.034-.104-.074-.102-.038 0-.07.05-.07.11zM112.667 94.902c-.016-.132.042-.254.132-.268.089-.013.174.082.192.213.016.132-.04.252-.13.268-.089.016-.179-.08-.194-.213zm.107-.018c.005.045.036.077.065.072.029-.004.049-.045.045-.09-.005-.046-.036-.078-.065-.073-.032.005-.052.048-.045.09zM112.787 93.537c-.018-.24.103-.45.266-.464.164-.015.305.164.323.4.018.235-.097.442-.26.464-.161.018-.311-.159-.329-.4zm.107-.011c.012.152.106.263.209.252.103-.014.176-.145.165-.293-.011-.15-.103-.264-.206-.252-.105.006-.179.14-.168.293zM112.262 92.626c-.007-.141.067-.261.159-.268.094-.007.172.102.177.24.004.139-.065.259-.157.266-.092.011-.174-.098-.179-.238zm.108-.01c.002.05.031.091.065.087.033-.002.058-.046.055-.096-.002-.05-.031-.088-.062-.086-.034.002-.061.046-.058.096zM113.218 94.724c-.022-.178.063-.337.184-.355.121-.018.235.11.257.284.023.175-.058.332-.179.355-.121.02-.239-.105-.262-.284zm.108-.016c.011.09.072.157.134.145.063-.011.103-.09.094-.182-.011-.09-.071-.154-.132-.145-.065.009-.107.09-.096.182zM112.174 94.033c-.018-.193.074-.364.202-.377.127-.016.241.127.259.318.018.189-.069.36-.197.377-.125.018-.246-.123-.264-.318zm.108-.014c.009.103.073.18.141.17.067-.008.114-.1.105-.2-.009-.102-.072-.177-.139-.17-.067.007-.116.098-.107.2zM112.559 91.046c.004-.172.103-.314.217-.314s.204.14.199.307c-.004.17-.098.31-.213.314-.114.002-.208-.134-.203-.307zm.109-.002c-.002.082.043.15.099.148.056-.002.101-.068.103-.15.002-.082-.043-.148-.096-.148-.059 0-.106.068-.106.15zM112.132 95.469c-.034-.232.064-.441.217-.466.152-.025.297.138.331.363.034.225-.06.435-.21.466-.15.03-.303-.131-.338-.363zm.107-.02c.02.14.114.238.206.22.092-.019.15-.146.13-.284-.02-.14-.11-.24-.204-.223-.094.018-.152.145-.132.286zM118.347 96.16c.083-.056.197-.022.251.075.054.098.034.225-.049.284-.083.059-.197.027-.251-.073-.058-.1-.036-.229.049-.286zm.059.107c-.034.023-.043.075-.021.114.023.038.068.052.101.029.034-.023.043-.075.02-.113-.022-.039-.067-.053-.1-.03zM116.569 96.973c.074-.057.179-.023.231.075.053.097.038.222-.036.281-.072.06-.177.027-.233-.072-.054-.098-.036-.225.038-.284zm.065.118c-.025.018-.031.063-.013.095.018.034.053.046.078.025.025-.02.031-.063.013-.095-.017-.032-.053-.043-.078-.025zM117.459 96.684c.135-.1.323-.041.415.125.094.166.064.382-.068.486-.132.105-.32.055-.418-.116-.096-.173-.065-.395.071-.495zm.061.113c-.085.064-.105.205-.045.312.06.107.181.14.264.075.085-.066.103-.203.043-.31-.058-.106-.175-.14-.262-.077zM117.739 95.811c.081-.052.184-.016.233.08.049.095.027.217-.051.272-.079.054-.186.02-.235-.077-.05-.098-.025-.22.053-.275zm.059.114a.078.078 0 0 0-.018.1c.018.033.056.047.085.027.029-.019.035-.064.02-.098-.02-.036-.058-.05-.087-.03zM116.96 97.55c.098-.082.242-.039.318.088.076.128.058.298-.038.38-.097.082-.24.045-.318-.084-.081-.13-.063-.305.038-.384zm.067.113c-.052.041-.061.13-.02.198.04.066.114.087.163.043.049-.043.058-.13.02-.195-.04-.066-.114-.087-.163-.046zM116.859 96.157c.11-.077.253-.025.325.112.069.136.042.31-.065.388-.105.08-.253.032-.325-.107-.074-.138-.042-.316.065-.393zm.061.118c-.059.041-.074.137-.036.21.038.075.116.1.174.056.056-.043.072-.136.034-.209-.038-.07-.114-.098-.172-.057zM118.792 95.545c.098-.063.228-.02.286.091a.246.246 0 0 1-.067.318c-.096.063-.226.027-.289-.087-.06-.113-.029-.258.07-.322zm.056.107c-.047.03-.063.1-.034.154.029.055.092.073.139.043.047-.032.062-.1.033-.154-.029-.054-.091-.073-.138-.043zM115.963 96.488c.13-.096.302-.032.392.139.087.17.058.386-.068.486-.125.1-.304.041-.394-.132-.094-.175-.06-.397.07-.493zm.06.123c-.078.059-.098.195-.042.3.056.107.163.143.239.082.076-.062.097-.194.043-.298-.054-.105-.161-.143-.24-.084zM119.339 103.594a.28.28 0 0 1 .141.293c-.025.109-.13.157-.235.104a.274.274 0 0 1-.141-.294c.027-.112.132-.155.235-.103zm-.029.118c-.043-.02-.085-.004-.094.041a.11.11 0 0 0 .056.118c.042.021.083.002.094-.041a.109.109 0 0 0-.056-.118zM117.495 102.087c.09.061.137.188.105.286-.031.097-.129.131-.221.07a.27.27 0 0 1-.108-.288c.034-.1.135-.13.224-.068zm-.038.115c-.031-.02-.065-.009-.076.023a.091.091 0 0 0 .036.098c.031.02.065.009.076-.023.011-.032-.007-.075-.036-.098zM118.32 102.935c.168.097.262.32.215.5-.047.179-.222.25-.392.152s-.271-.33-.219-.509c.051-.182.23-.243.396-.143zm-.034.118c-.105-.062-.219-.023-.25.091-.032.113.031.259.138.323.108.063.22.018.249-.096a.303.303 0 0 0-.137-.318zM119.118 102.797a.256.256 0 0 1 .121.275c-.027.1-.127.141-.224.088a.254.254 0 0 1-.12-.279c.029-.1.129-.136.223-.084zm-.033.116c-.034-.018-.069-.004-.081.032-.011.036.009.081.043.1.036.018.071.004.08-.032.012-.036-.009-.082-.042-.1zM117.36 102.749a.377.377 0 0 1 .157.393c-.038.136-.172.184-.3.104a.381.381 0 0 1-.159-.4c.04-.136.177-.179.302-.097zm-.036.12c-.064-.041-.134-.018-.154.052-.02.071.018.162.083.205.065.041.134.018.154-.052a.201.201 0 0 0-.083-.205zM118.258 102.062c.127.08.195.255.152.394-.042.138-.181.188-.313.106a.359.359 0 0 1-.153-.397c.045-.139.186-.185.314-.103zm-.038.116c-.067-.043-.144-.018-.168.055-.025.073.013.17.08.211.07.043.144.016.168-.057a.193.193 0 0 0-.08-.209zM120.093 103.678a.305.305 0 0 1 .166.324c-.027.125-.148.182-.268.127a.307.307 0 0 1-.168-.329c.029-.124.152-.177.27-.122zm-.026.118c-.059-.027-.117 0-.13.059-.014.059.022.131.08.159.059.027.117 0 .13-.062a.15.15 0 0 0-.08-.156zM117.429 101.225a.45.45 0 0 1 .161.486c-.058.164-.229.216-.381.111a.448.448 0 0 1-.163-.495c.062-.166.233-.209.383-.102zm-.045.113c-.092-.063-.197-.036-.233.064-.038.1.009.236.101.302.094.064.197.034.233-.066a.281.281 0 0 0-.101-.3zM112.693 98.204c.085.1.112.27.058.38-.054.108-.168.117-.257.017-.088-.1-.114-.275-.058-.384.058-.109.172-.116.257-.013zm-.058.118c-.034-.041-.081-.039-.103.007-.023.043-.011.113.024.152.036.04.081.036.103-.007.021-.043.009-.111-.024-.152zM113.287 98.965c.081.088.11.238.063.338-.047.1-.15.111-.233.025a.332.332 0 0 1-.063-.34c.047-.102.153-.111.233-.023zm-.056.118c-.027-.03-.063-.025-.078.01a.111.111 0 0 0 .022.115c.029.03.063.027.079-.007a.126.126 0 0 0-.023-.118zM113.993 99.577c.15.15.209.413.132.595-.076.182-.261.214-.416.064-.154-.148-.215-.423-.134-.605.08-.182.268-.202.418-.054zm-.053.12c-.094-.095-.215-.08-.264.034a.368.368 0 0 0 .085.382c.096.096.214.077.264-.039a.376.376 0 0 0-.085-.377zM115.104 100.027a.307.307 0 0 1 .081.324c-.043.103-.148.123-.237.044-.09-.08-.126-.227-.081-.329.045-.103.15-.118.237-.039zm-.051.116c-.032-.028-.07-.021-.085.016-.016.036-.003.088.029.118.031.027.069.022.085-.014a.111.111 0 0 0-.029-.12zM112.719 99.777a.48.48 0 0 1 .101.471c-.058.141-.199.161-.316.041-.116-.121-.163-.337-.103-.478.061-.14.204-.154.318-.034zm-.053.123c-.059-.061-.133-.052-.164.018-.031.073-.007.182.054.246.06.061.132.052.161-.021.031-.073.007-.182-.051-.243zM114.774 98.542c.112.115.15.316.083.452-.067.136-.213.154-.329.039-.114-.116-.152-.323-.083-.457.069-.137.217-.15.329-.034zm-.058.113c-.061-.061-.139-.052-.175.018a.227.227 0 0 0 .045.244c.06.061.139.052.175-.02.035-.074.013-.18-.045-.242zM113.825 101.222a.485.485 0 0 1 .134.472c-.051.148-.197.18-.325.066a.482.482 0 0 1-.134-.479c.054-.148.202-.173.325-.059zm-.045.125c-.067-.062-.146-.046-.175.031-.029.08.005.194.072.255.069.061.145.045.172-.034a.251.251 0 0 0-.069-.252zM114.745 101.273a.407.407 0 0 1 .121.409c-.045.129-.175.161-.289.066a.409.409 0 0 1-.123-.414c.049-.132.179-.157.291-.061zm-.045.122c-.053-.045-.116-.034-.138.03-.023.064.004.152.058.198.054.045.116.031.139-.03a.193.193 0 0 0-.059-.198zM113.87 97.626c.13.148.165.398.08.56-.085.161-.262.177-.396.03-.132-.15-.168-.408-.081-.57.09-.163.269-.167.397-.02zm-.063.114c-.081-.09-.188-.086-.242.014a.328.328 0 0 0 .05.345c.08.091.19.082.241-.018a.323.323 0 0 0-.049-.34zM110.25 98.157c.029.202.063.405.101.603a.222.222 0 0 0 .089.045c.128.025.222-.114.213-.311-.009-.196-.116-.378-.244-.407-.063-.012-.119.016-.159.07zm.163.107c.065.014.121.11.128.21.004.1-.045.172-.11.158-.065-.013-.123-.107-.127-.209-.005-.102.044-.175.109-.159zm.036.962c.016.063.029.13.045.193.009-.025.025-.041.047-.037.031.007.06.05.065.1.004.05-.018.087-.052.08-.009-.002-.017-.01-.026-.016.015.064.031.127.049.191.089.01.152-.093.141-.234-.011-.146-.096-.275-.19-.293-.03-.01-.056 0-.079.016zM113.483 105.232c.038.046.079.091.119.137a.152.152 0 0 1 .089.004c.119.041.226.194.242.344v.027l.121.132a.46.46 0 0 0 .002-.118c-.024-.235-.194-.476-.38-.539a.202.202 0 0 0-.193.013zm-.385-1.004c.009.179.13.368.269.418.139.052.242-.052.233-.227-.009-.178-.128-.362-.265-.416-.138-.053-.246.047-.237.225zm.242-.069c.072.028.132.123.136.214.005.091-.049.143-.12.116-.072-.027-.132-.123-.139-.216-.002-.089.054-.141.123-.114zm.891 1.262c.018.184.154.371.302.414.148.043.249-.071.231-.25-.02-.182-.153-.364-.298-.409-.148-.048-.253.061-.235.245zm.248-.093c.079.025.15.123.159.22.009.098-.044.157-.123.135-.078-.023-.15-.123-.161-.221-.009-.1.047-.159.125-.134zm.414-.971c-.013-.211-.158-.429-.329-.489-.17-.059-.304.064-.293.282.009.216.161.441.336.496.17.054.298-.075.286-.289zm-.297.137c-.105-.035-.197-.171-.204-.303-.007-.132.074-.209.179-.173.105.037.195.171.202.301.006.129-.072.209-.177.175zm-.558-.228c-.1-.036-.179.039-.172.168.007.13.098.264.199.298.103.034.177-.041.17-.17-.006-.128-.094-.259-.197-.296zm.018.312c-.036-.012-.065-.057-.067-.1-.002-.044.025-.071.058-.057.034.011.065.057.067.1.003.043-.022.07-.058.057z" fill="#ECF0F5"/>
    <path d="m152.355 84.745.376-.041c.208-.02.345-.221.298-.448a11.947 11.947 0 0 0-.088-.41c-.535-2.827-2.352-6.378-1.92-6.744.217-.18.844.272 1.594 1.082l.141.154a.5.5 0 0 1 .031.037c2.639 2.98 3.653 7.7 3.275 11.937-.076 1.161-.631 3.637-.631 3.637.154-1.323.194-2.667.121-4.017-.018-.257-.164.057-.224.139-.081.111-.164.22-.246.327-1.657 2.344-4.46 4.249-4.889 3.78-.41-.38 1.504-2.912 2.422-5.471.047-.12.091-.243.136-.366a.37.37 0 0 0-.233-.484l-.362-.11c-2.503-.777-5.738-1.007-5.691-1.44.034-.483 3.3-1.333 5.89-1.563z" fill="#FEEEC7"/>
    <path d="M152.951 84.858c.002 0 .002 0 0 0 .542-.053.533-.489.45-.907-.428-1.96-1.612-5.208-1.26-5.5.349-.245 1.329.892 2.236 2.274 1.35 2.623 1.9 5.87 1.733 8.927l-.009.15-.007.111c-.009.132-.018.264-.031.396l-.009.11c0 .013-.003.031-.005.045a2.15 2.15 0 0 1-.007.07l-.006.052c-.003.023-.005.048-.009.07a1.002 1.002 0 0 0-.007.055l-.009.075-.002.016a28.105 28.105 0 0 1-.271 1.63c.116-.882.15-2.146.025-2.544-.126-.4-.184-.452-.482-.056 0 0 0 .002-.002.002-1.124 1.562-3.506 3.746-3.96 3.269-.345-.291 1.137-2.93 1.786-4.667.186-.553.139-.798-.472-.962-.022-.004-.04-.011-.058-.016-1.726-.486-4.607-.98-4.567-1.357.027-.511 3.192-1.102 4.943-1.243z" fill="#26BED6"/>
    <path d="M149.432 86.024c-.109 0-.192-.077-.186-.177.005-.1.097-.184.206-.188.11-.005.195.077.188.179-.006.102-.1.186-.208.186zm.005-.11c.045 0 .08-.033.083-.074.002-.04-.032-.073-.074-.073a.081.081 0 0 0-.083.075c-.002.041.031.073.074.073zM151.51 86.437a.179.179 0 0 1-.166-.19.185.185 0 0 1 .193-.17.18.18 0 0 1 .168.192.183.183 0 0 1-.195.168zm.009-.12a.063.063 0 0 0 .067-.057.061.061 0 0 0-.058-.066.06.06 0 0 0-.065.057.06.06 0 0 0 .056.066zM150.538 86.115a.306.306 0 0 1-.307-.319.34.34 0 0 1 .338-.314.31.31 0 0 1 .313.323.333.333 0 0 1-.344.31zm.006-.116a.21.21 0 0 0 .217-.196.196.196 0 0 0-.197-.204.212.212 0 0 0-.214.197c-.007.11.08.2.194.203zM149.796 86.583c-.103-.002-.177-.081-.171-.174.009-.096.097-.17.2-.17.103.002.179.081.17.176-.007.096-.099.17-.199.168zm.009-.109c.035 0 .069-.027.071-.06.002-.035-.024-.064-.063-.064-.035 0-.069.027-.071.06-.002.035.027.062.063.064zM151.485 85.804a.247.247 0 0 1-.235-.254.252.252 0 0 1 .253-.243.247.247 0 0 1 .24.258.246.246 0 0 1-.258.239zm.007-.12a.128.128 0 0 0 .132-.123.128.128 0 0 0-.123-.132.128.128 0 0 0-.13.125.125.125 0 0 0 .121.13zM150.786 86.82c-.141-.012-.244-.125-.23-.262a.264.264 0 0 1 .275-.233.242.242 0 0 1 .235.263.26.26 0 0 1-.28.231zm.012-.114c.076.004.143-.05.147-.123a.13.13 0 0 0-.125-.14.141.141 0 0 0-.148.124.134.134 0 0 0 .126.139zM148.686 86.272c-.126.002-.22-.084-.213-.193.007-.111.114-.207.24-.211.125-.007.223.084.214.197-.006.11-.116.202-.241.207zm.009-.107c.06-.002.112-.048.116-.1.002-.054-.043-.097-.103-.093-.06.002-.112.048-.116.102-.005.052.042.093.103.091zM151.778 87.14a.31.31 0 0 1 .063-.617.31.31 0 0 1 .278.34.308.308 0 0 1-.341.278zm.014-.12a.19.19 0 0 0 .208-.17.19.19 0 0 0-.168-.21.192.192 0 0 0-.206.171.188.188 0 0 0 .166.21zM153.033 79.935c-.063-.116-.033-.254.063-.306.096-.055.228 0 .291.118.063.118.033.256-.065.308-.099.05-.226-.004-.289-.12zm.105-.057c.025.048.076.068.117.048.04-.02.051-.075.027-.123-.025-.047-.076-.068-.117-.047-.04.02-.051.077-.027.122zM153.756 82.373c-.043-.109-.005-.229.087-.267.094-.039.206.02.248.131.045.112.003.232-.089.268-.092.036-.202-.023-.246-.132zm.112-.045c.013.036.051.057.085.045.031-.01.044-.052.031-.09-.016-.039-.052-.057-.085-.046-.034.014-.045.055-.031.091zM153.55 81.176c-.09-.195-.031-.418.13-.498.163-.08.374.018.465.22.092.203.029.428-.136.5-.166.076-.37-.026-.459-.222zm.11-.05c.056.125.188.189.293.141.105-.048.145-.189.085-.316-.058-.127-.19-.189-.296-.141-.103.05-.141.191-.082.316zM152.714 80.65c-.053-.108-.024-.235.068-.282.091-.048.212.002.266.111.056.109.025.236-.069.281-.092.048-.211-.002-.265-.11zm.108-.053c.02.038.062.057.096.04.034-.015.045-.063.025-.101-.02-.039-.063-.057-.097-.041-.033.016-.044.061-.024.102zM154.311 82.062c-.061-.152-.011-.318.114-.37.125-.053.282.03.343.186.062.157.008.323-.119.373-.125.048-.278-.037-.338-.189zm.112-.045c.031.077.109.123.174.095.065-.025.092-.111.061-.19-.031-.08-.112-.123-.177-.096-.063.027-.09.113-.058.19zM153.04 81.807c-.065-.15-.015-.32.112-.38.13-.06.291.016.358.169.068.154.014.325-.116.38-.13.056-.289-.021-.354-.169zm.11-.05c.036.082.121.123.19.091.07-.03.099-.123.063-.202-.036-.082-.121-.123-.19-.091-.07.032-.097.123-.063.202zM152.375 79.29c-.076-.133-.049-.292.061-.358.109-.066.262-.011.34.123.076.134.049.293-.063.357s-.262.01-.338-.123zm.106-.062c.035.064.109.09.163.059.054-.032.067-.107.029-.173-.038-.063-.112-.09-.163-.059-.054.034-.068.11-.029.173zM153.272 82.986c-.068-.182.002-.38.159-.443.159-.064.347.034.416.22.072.187-.005.387-.166.446-.159.057-.342-.043-.409-.223zm.112-.043c.042.112.154.173.253.136.096-.036.143-.159.1-.27-.042-.114-.156-.173-.255-.136-.098.038-.141.159-.098.27zM152.234 91.998a.197.197 0 0 1-.28.03.2.2 0 0 1 .247-.313.2.2 0 0 1 .033.283zm-.094-.075a.081.081 0 0 0-.013-.113.08.08 0 0 0-.112.013.078.078 0 0 0 .013.111.08.08 0 0 0 .112-.01zM153.789 90.445a.174.174 0 0 1-.253.05.206.206 0 0 1-.049-.27.173.173 0 0 1 .251-.052.204.204 0 0 1 .051.272zm-.101-.075c.018-.03.012-.073-.018-.093a.057.057 0 0 0-.085.018c-.02.03-.011.07.016.093.031.02.069.014.087-.018zM152.983 91.134a.32.32 0 0 1-.457.073.34.34 0 0 1-.074-.466.323.323 0 0 1 .457-.082.35.35 0 0 1 .074.475zm-.099-.075a.222.222 0 0 0-.047-.302.204.204 0 0 0-.289.05.218.218 0 0 0 .047.298.198.198 0 0 0 .289-.046zM152.963 92.06a.184.184 0 0 1-.264.029.199.199 0 0 1-.029-.272.18.18 0 0 1 .262-.032c.083.066.096.19.031.274zm-.094-.08c.025-.03.018-.075-.011-.1a.067.067 0 0 0-.094.011c-.022.03-.018.075.011.098a.061.061 0 0 0 .094-.009zM153.227 90.123a.237.237 0 0 1-.342.07.263.263 0 0 1-.072-.354.241.241 0 0 1 .341-.077c.116.077.15.24.073.361zm-.098-.07a.138.138 0 0 0-.038-.185.122.122 0 0 0-.175.04.138.138 0 0 0 .038.183.124.124 0 0 0 .175-.038zM153.745 91.33a.245.245 0 0 1-.36.055.289.289 0 0 1-.054-.384.244.244 0 0 1 .358-.061c.117.09.141.268.056.39zm-.096-.076a.16.16 0 0 0-.029-.21.133.133 0 0 0-.193.032.157.157 0 0 0 .029.207.132.132 0 0 0 .193-.03zM151.959 92.738a.231.231 0 0 1-.324.022.225.225 0 0 1-.025-.32.233.233 0 0 1 .325-.027c.096.082.109.23.024.325zm-.089-.078a.108.108 0 0 0-.014-.154.113.113 0 0 0-.156.011.107.107 0 0 0 .013.155.114.114 0 0 0 .157-.012zM154.537 90.562a.287.287 0 0 1-.43.082.368.368 0 0 1-.083-.473c.094-.155.285-.2.428-.093.143.109.181.327.085.484zm-.099-.077a.226.226 0 0 0-.051-.293c-.087-.066-.204-.04-.262.054a.227.227 0 0 0 .049.291.178.178 0 0 0 .264-.052zM153.993 85.186c.09.081.106.224.038.317a.185.185 0 0 1-.282.02.243.243 0 0 1-.036-.312c.065-.093.191-.105.28-.025zm-.074.102a.077.077 0 0 0-.114.009c-.027.036-.02.093.016.125.036.032.085.03.112-.01.029-.033.022-.09-.014-.124zM154.579 85.83a.23.23 0 0 1 .025.294c-.065.084-.179.086-.258.01a.23.23 0 0 1-.024-.291c.063-.087.177-.093.257-.014zm-.078.099c-.027-.027-.065-.025-.087.004-.023.028-.018.073.009.1.026.028.064.025.087-.004a.078.078 0 0 0-.009-.1zM155.265 86.418c.139.15.15.398.029.545-.123.148-.331.144-.465-.004a.425.425 0 0 1-.029-.534c.118-.15.327-.157.465-.007zm-.078.1c-.087-.096-.219-.091-.295.002a.27.27 0 0 0 .017.341c.085.093.22.096.296.002a.276.276 0 0 0-.018-.345zM153.835 86.486c.103.102.115.28.023.386a.233.233 0 0 1-.349.007.287.287 0 0 1-.021-.38.228.228 0 0 1 .347-.013zm-.078.095c-.054-.052-.134-.05-.179.005a.149.149 0 0 0 .011.195c.052.053.134.053.179-.004.047-.052.043-.144-.011-.196zM154.702 87.804a.318.318 0 0 1-.002.414c-.103.109-.266.097-.365-.018a.315.315 0 0 1 .003-.407c.1-.11.264-.107.364.011zm-.085.093c-.053-.063-.141-.066-.194-.007a.167.167 0 0 0 0 .219c.053.063.141.068.194.009.054-.057.054-.157 0-.22zM155.671 88.06c.09.113.087.288-.007.386-.094.1-.239.086-.326-.025a.306.306 0 0 1 .004-.382c.092-.1.24-.093.329.02zm-.085.095c-.043-.055-.114-.06-.157-.011-.044.047-.044.131-.002.184.043.054.112.059.157.011a.149.149 0 0 0 .002-.184zM155.313 84.624c.141.135.17.371.067.521-.105.15-.3.16-.439.027a.419.419 0 0 1-.065-.511c.099-.15.294-.17.437-.037zm-.072.107c-.085-.081-.206-.07-.266.02a.253.253 0 0 0 .04.314c.085.082.204.076.269-.018.06-.09.042-.232-.043-.316z" fill="#ECF0F5"/>
    <path d="M189.972 65.502c-6.461-1.082-9.861 1.761-11.835 4.917-2.814 4.496-2.631 11.05.949 19.425.956 2.232 1.005 3.94.674 4.933-.256.766-1.019 1.252-1.997 1.655a6.682 6.682 0 0 1 2.72 4.803c.326 3.647-2.344 6.904-5.935 7.236l-.071.007c.134.009.273.007.416-.007 5.505-.509 11.866-1.573 13.463-8.518.946-4.124-.741-6.972-3.627-13.821-3.188-7.568.716-9.732 3.962-9.134 2.716.5 5.263-1.533 5.65-4.306.392-2.778-.447-6.533-4.369-7.19z" fill="#C2D48F"/>
    <path d="M189.972 65.502c-6.461-1.082-9.861 1.761-11.835 4.917-2.814 4.496-2.631 11.05.949 19.425.956 2.232 1.005 3.94.674 4.933-.256.766-1.019 1.252-1.997 1.655a6.682 6.682 0 0 1 2.72 4.803c.326 3.647-2.344 6.904-5.935 7.236l-.071.007c.134.009.273.007.416-.007 5.505-.509 11.866-1.573 13.463-8.518.946-4.124-.741-6.972-3.627-13.821-3.188-7.568.716-9.732 3.962-9.134 2.716.5 5.263-1.533 5.65-4.306.392-2.778-.447-6.533-4.369-7.19z" fill="#C2D48F"/>
    <path d="M200.558 80.278c-1.01.726-2.348.353-3.568-1.434-1.417-2.073-3.34-2.666-4.54-2.826-1.428-1.505-2.637-2.46-4.173-3.039 2.071-.445 3.723-.684 6.121-2.294 2.245.67 4.555 2.337 6.142 5.836.643 1.416.649 3.305.018 3.757z" fill="#F79321"/>
    <path d="M199.844 75.181c-.931.082-2.61.528-3.801 2.549.331.314.651.682.947 1.118 1.222 1.787 2.561 2.16 3.568 1.435.631-.453.625-2.342-.018-3.758-.219-.484-.452-.93-.696-1.344z" fill="#26639A"/>
    <path d="M186.28 68.988c.065-.01.11.288.361.636a1.6 1.6 0 0 0 .548.478 1.494 1.494 0 0 0 1.643-.152c.215-.169.361-.38.455-.571.185-.389.176-.691.241-.694.027-.002.065.069.088.207.02.139.022.348-.052.596a1.721 1.721 0 0 1-1.493 1.21 1.724 1.724 0 0 1-1.074-.255 1.673 1.673 0 0 1-.609-.662 1.35 1.35 0 0 1-.157-.577c-.004-.139.02-.214.049-.216z" fill="#3A042E"/>
    <path d="M187.93 70.46c.053.548.206.968.206.968s.076-.44.031-.989l-.237.02zM188.723 70.227c.318.448.656.732.656.732s-.153-.42-.462-.873l-.194.14zM189.297 69.626a4.2 4.2 0 0 0 .929.303s-.338-.287-.828-.523l-.101.22zM186.536 69.668c-.441.323-.724.666-.724.666s.415-.155.86-.468l-.136-.198zM187.13 70.252c-.224.502-.298.943-.298.943s.282-.343.515-.84l-.217-.103z" fill="#3A042E"/>
    <path d="m200.128 79.473.002.023c-1.784-4.774-6.464-6.233-9.368-6.674h.002c1.328-.17 3.634-2.133 3.634-2.133-2.4 1.61-4.05 1.849-6.121 2.294 1.536.58 2.747 1.534 4.173 3.04-.273-.858-2.091-2.58-2.442-2.799 2.686.273 7.877 1.416 9.852 6.131.277.86-1.106 1.348-2.769-.368 1.193 1.662 2.487 1.998 3.467 1.293.367-.263.517-1.011.452-1.87.025.895-.703 1.586-.882 1.063z" fill="#FEEEC7"/>
    <path d="M174.548 108.467c3.591-.332 6.264-3.588 5.935-7.236a6.67 6.67 0 0 0-.721-2.476c2.167 2.858 1.144 4.913 3.449 4.956 1.028.018 3.472-2.185 3.137-6.843-.374-5.162-6.501-14.224-3.273-19.052.029-.048.062-.093.096-.141.21-.293.49-.566.851-.811 1.708-1.069 4.074-.924 4.994-.817 1.665.196 1.789-1.573.844-2.264.866.555 1.681 1.285 2.585 2.237-1.032.825-2.37 1.23-3.756.973-1.292-.239-2.688-.039-3.7.766a3.627 3.627 0 0 0-.401.373l-.009.011a3.508 3.508 0 0 0-.34.441l-.014.02c-.031.049-.06.096-.089.146-.002.005-.007.01-.009.016a3.797 3.797 0 0 0-.253.532l-.013.039a4.9 4.9 0 0 0-.139.434l-.041.161c-.004.019-.008.04-.013.057-.013.06-.025.118-.036.18l-.006.036c-.014.073-.023.146-.034.22l-.007.055a4.637 4.637 0 0 0-.018.175l-.006.075c-.005.057-.007.116-.012.175l-.002.069c-.004.08-.004.161-.004.243v.054c0 .066.002.132.004.2.002.03.002.062.005.091l.009.18.006.09a12 12 0 0 0 .023.253c.002.016.004.03.004.046.009.082.02.166.032.25l.013.1c.009.063.02.13.031.195.007.034.011.07.018.105l.045.232.013.07c.021.1.043.2.068.302.006.035.015.066.024.1.018.073.036.148.056.223a5.334 5.334 0 0 0 .099.355l.026.093c.18.612.415 1.269.71 1.971 2.886 6.85 4.573 9.698 3.627 13.822-1.597 6.944-7.958 8.008-13.463 8.518a2.907 2.907 0 0 1-.416.006l.071-.006z" fill="#FEEEC7"/>
    <path d="M180.48 101.232c.327 3.646-2.343 6.904-5.934 7.236l-34.827 3.221c-3.591.332-6.799-2.38-7.126-6.027-.326-3.646 2.344-6.904 5.935-7.235l34.827-3.222c3.593-.331 6.799 2.38 7.125 6.027z" fill="#FEEEC7"/>
    <path d="M136.975 106.862c2.462-.227 2.178-3.405 4.641-3.632 2.462-.228 2.749 2.95 5.211 2.721 2.462-.228 2.178-3.406 4.64-3.633 2.463-.227 2.747 2.951 5.212 2.721 2.462-.227 2.178-3.405 4.64-3.632 2.463-.228 2.749 2.95 5.212 2.721 2.462-.228 2.178-3.406 4.642-3.635 2.465-.228 2.749 2.95 5.212 2.721 2.144-.198 2.207-2.63 3.81-3.408-.918-2.9-3.734-4.887-6.839-4.601l-34.827 3.224c-3.105.286-5.518 2.759-5.908 5.78 1.717.473 2.212 2.851 4.354 2.653z" fill="#C2D48F"/>
    <path d="m100.177 106.11.737 57.821 16.639-40.054-17.376-17.767z" fill="#26BED6"/>
    <path d="m141.128 141.704-40.216 22.226 16.496-40.089 23.72 17.863z" fill="#14ADC6"/>
    <defs>
        <linearGradient id="rcgxxgt12a" x1="17.934" y1="156.599" x2="29.15" y2="174.21" gradientUnits="userSpaceOnUse">
            <stop stop-color="#fff"/>
            <stop offset="1" stop-color="#404040"/>
        </linearGradient>
        <linearGradient id="hwu20l39nb" x1="4.371" y1="156.451" x2="22.993" y2="173.727" gradientUnits="userSpaceOnUse">
            <stop stop-color="#fff"/>
            <stop offset="1" stop-color="#404040"/>
        </linearGradient>
        <linearGradient id="3ib05jsmoc" x1="2.522" y1="162.906" x2="15.576" y2="173.53" gradientUnits="userSpaceOnUse">
            <stop stop-color="#fff"/>
            <stop offset="1" stop-color="#404040"/>
        </linearGradient>
        <linearGradient id="4zlnkyu59d" x1="16.282" y1="164.84" x2="20.026" y2="169.212" gradientUnits="userSpaceOnUse">
            <stop stop-color="#fff"/>
            <stop offset=".345" stop-color="#9D9D9D"/>
            <stop offset=".666" stop-color="#494949"/>
            <stop offset=".891" stop-color="#141414"/>
            <stop offset="1"/>
        </linearGradient>
        <linearGradient id="l1kzze4hpf" x1="16.282" y1="164.84" x2="20.026" y2="169.212" gradientUnits="userSpaceOnUse">
            <stop stop-color="#fff"/>
            <stop offset="1" stop-color="#fff"/>
        </linearGradient>
        <linearGradient id="10sh7igd0g" x1="24.009" y1="162.191" x2="26.813" y2="169.016" gradientUnits="userSpaceOnUse">
            <stop stop-color="#fff"/>
            <stop offset=".345" stop-color="#9D9D9D"/>
            <stop offset=".666" stop-color="#494949"/>
            <stop offset=".891" stop-color="#141414"/>
            <stop offset="1"/>
        </linearGradient>
        <linearGradient id="pincp3fxti" x1="24.009" y1="162.191" x2="26.813" y2="169.016" gradientUnits="userSpaceOnUse">
            <stop stop-color="#fff"/>
            <stop offset="1" stop-color="#fff"/>
        </linearGradient>
        <linearGradient id="yk0f4n07zj" x1="33.313" y1="160.352" x2="33.313" y2="169.541" gradientUnits="userSpaceOnUse">
            <stop stop-color="#fff"/>
            <stop offset=".345" stop-color="#9D9D9D"/>
            <stop offset=".666" stop-color="#494949"/>
            <stop offset=".891" stop-color="#141414"/>
            <stop offset="1"/>
        </linearGradient>
        <linearGradient id="03zlwtq8ul" x1="33.313" y1="160.356" x2="33.313" y2="169.545" gradientUnits="userSpaceOnUse">
            <stop stop-color="#fff"/>
            <stop offset="1" stop-color="#fff"/>
        </linearGradient>
        <linearGradient id="rwt00olrcm" x1="10.921" y1="168.25" x2="13.177" y2="169.625" gradientUnits="userSpaceOnUse">
            <stop stop-color="#fff"/>
            <stop offset=".345" stop-color="#9D9D9D"/>
            <stop offset=".666" stop-color="#494949"/>
            <stop offset=".891" stop-color="#141414"/>
            <stop offset="1"/>
        </linearGradient>
        <linearGradient id="fr9fe565ro" x1="10.921" y1="168.25" x2="13.177" y2="169.625" gradientUnits="userSpaceOnUse">
            <stop stop-color="#fff"/>
            <stop offset="1" stop-color="#fff"/>
        </linearGradient>
        <linearGradient id="l8x6dpd9vp" x1="57.955" y1="151.657" x2="65.513" y2="168.293" gradientUnits="userSpaceOnUse">
            <stop stop-color="gray"/>
            <stop offset=".393" stop-color="#484848"/>
            <stop offset=".8" stop-color="#141414"/>
            <stop offset="1"/>
        </linearGradient>
        <linearGradient id="nd8372q0qr" x1="57.955" y1="151.657" x2="65.513" y2="168.293" gradientUnits="userSpaceOnUse">
            <stop stop-color="#fff"/>
            <stop offset="1" stop-color="#fff"/>
        </linearGradient>
        <linearGradient id="c4pwywdbos" x1="48.959" y1="153.881" x2="60.869" y2="167.694" gradientUnits="userSpaceOnUse">
            <stop stop-color="gray"/>
            <stop offset=".393" stop-color="#484848"/>
            <stop offset=".8" stop-color="#141414"/>
            <stop offset="1"/>
        </linearGradient>
        <linearGradient id="0j0snsh0qu" x1="48.959" y1="153.881" x2="60.869" y2="167.694" gradientUnits="userSpaceOnUse">
            <stop stop-color="#fff"/>
            <stop offset="1" stop-color="#fff"/>
        </linearGradient>
        <linearGradient id="g2484m248v" x1="81.988" y1="150.455" x2="72.658" y2="169.441" gradientUnits="userSpaceOnUse">
            <stop stop-color="gray"/>
            <stop offset=".393" stop-color="#484848"/>
            <stop offset=".8" stop-color="#141414"/>
            <stop offset="1"/>
        </linearGradient>
        <linearGradient id="usg8mc7oix" x1="81.988" y1="150.455" x2="72.658" y2="169.441" gradientUnits="userSpaceOnUse">
            <stop stop-color="#fff"/>
            <stop offset="1" stop-color="#fff"/>
        </linearGradient>
        <linearGradient id="625l7000ey" x1="64.954" y1="141.097" x2="67.902" y2="166.257" gradientUnits="userSpaceOnUse">
            <stop stop-color="gray"/>
            <stop offset=".393" stop-color="#484848"/>
            <stop offset=".8" stop-color="#141414"/>
            <stop offset="1"/>
        </linearGradient>
        <linearGradient id="9wvconlwzA" x1="64.954" y1="141.095" x2="67.902" y2="166.256" gradientUnits="userSpaceOnUse">
            <stop stop-color="#fff"/>
            <stop offset="1" stop-color="#fff"/>
        </linearGradient>
        <linearGradient id="z20u4rsanB" x1="74.732" y1="148.684" x2="70.448" y2="167.138" gradientUnits="userSpaceOnUse">
            <stop stop-color="gray"/>
            <stop offset=".393" stop-color="#484848"/>
            <stop offset=".8" stop-color="#141414"/>
            <stop offset="1"/>
        </linearGradient>
        <linearGradient id="lkcx1at99D" x1="74.732" y1="148.682" x2="70.448" y2="167.136" gradientUnits="userSpaceOnUse">
            <stop stop-color="#fff"/>
            <stop offset="1" stop-color="#fff"/>
        </linearGradient>
        <linearGradient id="lghyo2e0fE" x1="41.297" y1="152.887" x2="38.975" y2="169" gradientUnits="userSpaceOnUse">
            <stop stop-color="gray"/>
            <stop offset=".393" stop-color="#484848"/>
            <stop offset=".8" stop-color="#141414"/>
            <stop offset="1"/>
        </linearGradient>
        <linearGradient id="u8dw32j69G" x1="41.297" y1="152.887" x2="38.975" y2="169" gradientUnits="userSpaceOnUse">
            <stop stop-color="#fff"/>
            <stop offset="1" stop-color="#fff"/>
        </linearGradient>
        <linearGradient id="fgsix8urzH" x1="35.741" y1="160.145" x2="37.839" y2="168.518" gradientUnits="userSpaceOnUse">
            <stop stop-color="gray"/>
            <stop offset=".393" stop-color="#484848"/>
            <stop offset=".8" stop-color="#141414"/>
            <stop offset="1"/>
        </linearGradient>
        <linearGradient id="kcfhyw4txJ" x1="35.737" y1="160.145" x2="37.835" y2="168.518" gradientUnits="userSpaceOnUse">
            <stop stop-color="#fff"/>
            <stop offset="1" stop-color="#fff"/>
        </linearGradient>
        <linearGradient id="nnvr0tq7gK" x1="30.743" y1="158.232" x2="36.133" y2="169.389" gradientUnits="userSpaceOnUse">
            <stop stop-color="gray"/>
            <stop offset=".393" stop-color="#484848"/>
            <stop offset=".8" stop-color="#141414"/>
            <stop offset="1"/>
        </linearGradient>
        <linearGradient id="jw733bqm7M" x1="30.743" y1="158.228" x2="36.133" y2="169.385" gradientUnits="userSpaceOnUse">
            <stop stop-color="#fff"/>
            <stop offset="1" stop-color="#fff"/>
        </linearGradient>
        <linearGradient id="0m94ggsxwN" x1="51.168" y1="160.764" x2="41.763" y2="168.954" gradientUnits="userSpaceOnUse">
            <stop stop-color="gray"/>
            <stop offset=".393" stop-color="#484848"/>
            <stop offset=".8" stop-color="#141414"/>
            <stop offset="1"/>
        </linearGradient>
        <linearGradient id="upyn2lf4yP" x1="51.168" y1="160.762" x2="41.763" y2="168.952" gradientUnits="userSpaceOnUse">
            <stop stop-color="#fff"/>
            <stop offset="1" stop-color="#fff"/>
        </linearGradient>
        <linearGradient id="5iubj4w2lQ" x1="44.896" y1="159.922" x2="40.771" y2="168.533" gradientUnits="userSpaceOnUse">
            <stop stop-color="gray"/>
            <stop offset=".393" stop-color="#484848"/>
            <stop offset=".8" stop-color="#141414"/>
            <stop offset="1"/>
        </linearGradient>
        <linearGradient id="lc3xro6ncS" x1="44.896" y1="159.924" x2="40.771" y2="168.535" gradientUnits="userSpaceOnUse">
            <stop stop-color="#fff"/>
            <stop offset="1" stop-color="#fff"/>
        </linearGradient>
        <linearGradient id="r01w99mwoT" x1="238.397" y1="194.558" x2="256.962" y2="150.953" gradientUnits="userSpaceOnUse">
            <stop stop-color="#fff"/>
            <stop offset="1"/>
        </linearGradient>
        <linearGradient id="otj2dvug4V" x1="238.397" y1="194.56" x2="256.962" y2="150.955" gradientUnits="userSpaceOnUse">
            <stop stop-color="#fff"/>
            <stop offset="1" stop-color="#fff"/>
        </linearGradient>
    </defs>
</svg>
