<svg width="16" height="16" viewBox="0 0 16 16" fill="none" xmlns="http://www.w3.org/2000/svg">
    <path fill-rule="evenodd" clip-rule="evenodd" d="M1.332 8a6.67 6.67 0 0 1 6.667-6.667A6.67 6.67 0 0 1 14.665 8 6.67 6.67 0 0 1 8 14.666 6.67 6.67 0 0 1 1.332 8zm7.606 4.446v-.387c1.16-.22 2.074-.886 2.087-2.106 0-1.68-1.44-2.26-2.787-2.607-1.346-.347-1.78-.713-1.78-1.273 0-.64.6-1.094 1.6-1.094.84 0 1.26.327 1.414.834a.54.54 0 0 0 .513.413h.174a.567.567 0 0 0 .54-.753c-.254-.707-.834-1.28-1.754-1.507v-.413a.89.89 0 0 0-.887-.887h-.006a.89.89 0 0 0-.887.887v.4c-1.147.246-2.073.993-2.073 2.14 0 1.366 1.133 2.046 2.786 2.446 1.487.354 1.78.874 1.78 1.427 0 .407-.293 1.06-1.6 1.06-.973 0-1.48-.347-1.673-.847-.093-.233-.293-.4-.54-.4h-.16c-.4 0-.687.407-.533.774.333.82 1.12 1.306 2.006 1.493v.4c0 .487.4.887.887.887h.007a.89.89 0 0 0 .886-.887z" fill="#F79321"/>
</svg>
