<svg width="16" height="16" viewBox="0 0 16 16" fill="none" xmlns="http://www.w3.org/2000/svg">
    <path fill-rule="evenodd" clip-rule="evenodd" d="M14.001 2h-12C1.268 2 .668 2.6.668 3.333v8c0 .734.6 1.334 1.333 1.334h3.334v.666c0 .367.3.667.666.667h4c.367 0 .667-.3.667-.667v-.666h3.333c.734 0 1.327-.6 1.327-1.334l.007-8c0-.74-.6-1.333-1.334-1.333zm-.666 9.333H2.668a.669.669 0 0 1-.667-.667V4c0-.367.3-.667.667-.667h10.667c.366 0 .666.3.666.667v6.666c0 .367-.3.667-.666.667zM7 9.433l2.654-1.52a.67.67 0 0 0 0-1.16L7 5.233a.668.668 0 0 0-1 .58v3.04a.67.67 0 0 0 1 .58z" fill="#26BED6"/>
</svg>
