<svg width="16" height="16" viewBox="0 0 16 16" fill="none" xmlns="http://www.w3.org/2000/svg">
    <path fill-rule="evenodd" clip-rule="evenodd" d="M2.001 2h12c.734 0 1.334.593 1.334 1.333l-.007 8c0 .734-.593 1.334-1.327 1.334h-3.333v.666c0 .367-.3.667-.667.667h-4a.669.669 0 0 1-.666-.667v-.666H2c-.733 0-1.333-.6-1.333-1.334v-8C.668 2.6 1.268 2 2.001 2zm.667 9.333h10.667c.366 0 .666-.3.666-.667V4c0-.367-.3-.667-.666-.667H2.668c-.367 0-.667.3-.667.667v6.666c0 .367.3.667.667.667z" fill="#26BED6"/>
</svg>
