<svg width="16" height="16" viewBox="0 0 16 16" fill="none" xmlns="http://www.w3.org/2000/svg">
    <path fill-rule="evenodd" clip-rule="evenodd" d="M14.284 6.305c-.146-.579-.692-.919-1.224-.767L9.526 6.566l-4.3-4.356a.666.666 0 0 0-.678-.181c-.453.137-.666.702-.433 1.143l2.29 4.313-3.308.962-1.045-.897a.64.64 0 0 0-.586-.13l-.22.065c-.212.058-.312.325-.199.528l1.251 2.352c.153.282.46.42.746.34l10.528-3.068c.532-.16.852-.753.712-1.332zm-5.52 6.604H1.43c-.237 0-.431.245-.431.545 0 .3.194.546.431.546h7.333c.237 0 .431-.245.431-.546 0-.3-.194-.545-.431-.545zm4.443.456c0 .35-.269.636-.598.636-.328 0-.597-.286-.597-.636v-1.273h-1.195c-.329 0-.598-.286-.598-.636 0-.35.27-.637.598-.637h1.195V9.547c0-.35.269-.637.598-.637.328 0 .597.287.597.637v1.272h1.195c.329 0 .598.287.598.637 0 .35-.27.636-.598.636h-1.195v1.273z" fill="#26BED6"/>
</svg>
