<svg width="16" height="16" viewBox="0 0 16 16" fill="none" xmlns="http://www.w3.org/2000/svg">
    <path fill-rule="evenodd" clip-rule="evenodd" d="M6 6h1.333V2c0-.367.3-.667.667-.667.367 0 .667.3.667.667v4A2.666 2.666 0 0 1 6 8.666V14c0 .366-.3.666-.667.666A.669.669 0 0 1 4.667 14V8.666A2.666 2.666 0 0 1 2 6V2c0-.367.3-.667.667-.667.366 0 .666.3.666.667v4h1.334V2c0-.367.3-.667.666-.667.367 0 .667.3.667.667v4zm4.666 2V4c0-.993 1.067-2.213 2.507-2.567.42-.1.827.22.827.654V14c0 .367-.3.667-.667.667a.669.669 0 0 1-.667-.667V9.333H12c-.733 0-1.334-.6-1.334-1.333z" fill="#26BED6"/>
</svg>
