<svg width="24" height="24" viewBox="0 0 24 24" fill="none" xmlns="http://www.w3.org/2000/svg">
    <path d="M19.962 15.515H14.31l-.542-2.996h4.86c.578 0 1.333.408 1.634.898H17.82c-.219 0-.397.19-.397.423 0 .235.178.423.397.423h2.974c.22 0 .397-.19.397-.423 0-1.304-1.542-2.171-2.561-2.171h-5.012l-1.574-8.73C11.812 1.664 10.73.809 9.624 1.038c-.543.111-1.005.46-1.303.987a2.603 2.603 0 0 0-.275 1.75l2.916 14.212c.01.05.03.098.054.139.19.987 1.013 1.732 1.996 1.732h5.6c-.167 1.295-1.17 2.297-2.393 2.297H9.542c-.22 0-.397.19-.397.423 0 .235.178.423.397.423h6.677c1.66 0 3.03-1.38 3.204-3.145h.54c1.123 0 2.037-.974 2.037-2.172 0-1.194-.914-2.168-2.038-2.168zm-8.527.813L8.823 3.603a1.703 1.703 0 0 1 .178-1.14c.18-.318.453-.529.772-.595.673-.139 1.341.416 1.49 1.232L13.5 15.514h-.488c-.639.002-1.204.321-1.578.814zm8.527 2.68h-6.95c-.685 0-1.242-.593-1.242-1.323s.557-1.323 1.242-1.323h6.952c.685 0 1.242.594 1.242 1.323-.002.731-.557 1.324-1.244 1.324z" fill="#828282"/>
</svg>
