<svg width="14" height="14" viewBox="0 0 14 14" fill="none" xmlns="http://www.w3.org/2000/svg">
    <path fill-rule="evenodd" clip-rule="evenodd" d="M4.818 2a.548.548 0 0 0-.545.55V4.2H2.636C1.733 4.2 1 4.937 1 5.85v5.5c0 .91.733 1.65 1.636 1.65h8.728c.903 0 1.636-.74 1.636-1.65v-5.5c0-.912-.733-1.65-1.636-1.65H9.727V2.55A.548.548 0 0 0 9.182 2H4.818zm-.03 3.3H11.365c.3 0 .545.245.545.55v5.5c0 .303-.244.55-.545.55H2.636a.548.548 0 0 1-.545-.55v-5.5c0-.305.244-.55.545-.55H4.79zm3.848-1.1V3.1H5.364v1.1h3.272z" fill="#26BED6"/>
</svg>
