<svg width="16" height="16" viewBox="0 0 16 16" fill="none" xmlns="http://www.w3.org/2000/svg">
    <path fill-rule="evenodd" clip-rule="evenodd" d="m5.665.667 6.667.007c.733 0 1.333.593 1.333 1.326v11.334c0 .733-.6 1.333-1.333 1.333h-1.387A8.673 8.673 0 0 0 10.312 12h2.02V3.334H5.665V7.34a8.18 8.18 0 0 0-1.333-.426V2c0-.733.6-1.333 1.333-1.333zM3.072 8.041a.67.67 0 0 0-.74.66c0 .333.247.626.58.66a5.998 5.998 0 0 1 5.387 5.386c.033.334.32.587.66.587a.67.67 0 0 0 .666-.733 7.317 7.317 0 0 0-6.553-6.56zm-.74 3.353c0-.407.36-.733.76-.667a4.665 4.665 0 0 1 3.847 3.847c.06.4-.26.76-.667.76-.327 0-.6-.24-.653-.567a3.346 3.346 0 0 0-2.72-2.72.665.665 0 0 1-.567-.653zm0 3.94v-2c1.107 0 2 .893 2 2h-2z" fill="#26BED6"/>
</svg>
