<svg width="16" height="16" viewBox="0 0 16 16" fill="none" xmlns="http://www.w3.org/2000/svg">
    <path fill-rule="evenodd" clip-rule="evenodd" d="M9.334 5.667h1.333V4.334H9.334v1.333zm1.333 3H9.334V7.334h1.333v1.333zm0 3H9.334v-1.333h1.333v1.333z" fill="#26BED6"/>
    <path fill-rule="evenodd" clip-rule="evenodd" d="M.715 4c0-1.083.871-1.958 1.952-1.958h10.666c1.079 0 1.959.88 1.959 1.958v1.694c0 .647-.318 1.333-.95 1.68l-.005.003a.71.71 0 0 0-.378.623c0 .264.148.5.378.624l.004.002c.633.348.95 1.034.95 1.681V12c0 1.079-.879 1.959-1.957 1.959H2.667A1.962 1.962 0 0 1 .708 12v-1.693c0-.647.318-1.333.951-1.681l.011-.006A.702.702 0 0 0 2.042 8a.722.722 0 0 0-.374-.63c-.65-.346-.953-1.04-.953-1.676V4zm1.952-.708A.702.702 0 0 0 1.965 4v1.694c0 .28.134.49.292.573l.007.003.006.004A1.972 1.972 0 0 1 3.292 8c0 .742-.418 1.397-1.034 1.723-.166.094-.3.313-.3.584V12c0 .389.32.709.709.709h10.666c.389 0 .709-.32.709-.709v-1.693c0-.272-.135-.492-.302-.585A1.96 1.96 0 0 1 12.71 8 1.96 1.96 0 0 1 13.74 6.28c.167-.093.302-.314.302-.585V4a.712.712 0 0 0-.708-.708H2.667z" fill="#26BED6"/>
</svg>
