<svg width="14" height="14" viewBox="0 0 14 14" fill="none" xmlns="http://www.w3.org/2000/svg">
    <path fill-rule="evenodd" clip-rule="evenodd" d="M6.96 3.476h.194a70.439 70.439 0 0 1 1.74.03c.503.015 1.03.037 1.484.07.46.033.816.076 1.005.125.177.055.337.16.465.304.127.142.217.318.264.51.16.967.236 1.948.23 2.931v.004a17.41 17.41 0 0 1-.23 2.888 1.182 1.182 0 0 1-.264.51c-.13.144-.29.25-.469.305-.184.053-.54.1-1.003.137-.455.036-.98.06-1.482.076a65.683 65.683 0 0 1-1.74.032H7v.426-.425h-.154a65.256 65.256 0 0 1-1.74-.033 32.879 32.879 0 0 1-1.482-.076c-.464-.037-.82-.084-1.005-.138a1.04 1.04 0 0 1-.464-.292 1.175 1.175 0 0 1-.268-.484 17.42 17.42 0 0 1-.23-2.924v-.005a17.42 17.42 0 0 1 .231-2.91c.046-.191.137-.367.264-.51.13-.144.29-.25.469-.305.184-.053.54-.1 1.003-.137.455-.036.98-.06 1.482-.076a65.304 65.304 0 0 1 1.74-.032h.114zM6.96 12.25h.199a67.876 67.876 0 0 0 1.759-.033 33.57 33.57 0 0 0 1.515-.078c.46-.037.887-.087 1.152-.164l.005-.002c.312-.096.595-.28.82-.533a2.057 2.057 0 0 0 .47-.936c.167-1.008.249-2.03.246-3.055a18.343 18.343 0 0 0-.246-3.1l-.385.075.38-.103a2.057 2.057 0 0 0-.465-.909 1.817 1.817 0 0 0-.82-.533l-.014-.003c-.261-.07-.685-.116-1.145-.15a36.809 36.809 0 0 0-1.514-.071 72.294 72.294 0 0 0-1.758-.03h-.316a65.44 65.44 0 0 0-1.759.033c-.507.016-1.045.04-1.516.078-.459.037-.886.087-1.15.164l-.006.002c-.312.096-.595.28-.82.533a2.058 2.058 0 0 0-.47.936A18.343 18.343 0 0 0 .875 7.45a18.343 18.343 0 0 0 .255 3.141c.087.332.25.633.475.875.225.243.504.418.81.509h.001c.265.078.692.128 1.151.165.47.037 1.01.062 1.516.078a66.16 66.16 0 0 0 1.76.032h.116zM6.02 5.224a.364.364 0 0 0-.39.002.434.434 0 0 0-.194.368v3.711c0 .152.074.292.195.368.12.076.268.077.39.002L9.017 7.82a.434.434 0 0 0 .197-.37.434.434 0 0 0-.197-.37L6.02 5.224zm.198 3.35V6.324L8.034 7.45 6.218 8.573z" fill="#26BED6"/>
</svg>
