<svg width="16" height="16" viewBox="0 0 16 16" fill="none" xmlns="http://www.w3.org/2000/svg">
    <path fill-rule="evenodd" clip-rule="evenodd" d="M1.284 6.676a.936.936 0 0 0 1.263.067C5.7 4.15 10.28 4.15 13.442 6.737a.953.953 0 0 0 1.277-.061.959.959 0 0 0-.068-1.419c-3.857-3.154-9.436-3.154-13.3 0a.953.953 0 0 0-.067 1.419zm5.241 5.241.993.993a.673.673 0 0 0 .952 0l.993-.993c.318-.317.25-.864-.155-1.074a2.892 2.892 0 0 0-2.641 0c-.385.21-.46.757-.142 1.074zm-1.283-2.43a.953.953 0 0 1-1.236-.089c-.412-.412-.385-1.094.08-1.432a6.694 6.694 0 0 1 7.823 0c.466.331.493 1.02.087 1.426l-.006.006a.961.961 0 0 1-1.236.088 4.771 4.771 0 0 0-5.512 0z" fill="#26BED6"/>
</svg>
