<svg width="16" height="16" viewBox="0 0 16 16" fill="none" xmlns="http://www.w3.org/2000/svg">
    <path fill-rule="evenodd" clip-rule="evenodd" d="M14.667 5.667c0-.74-.594-1.333-1.333-1.333h-2.667V3c0-.74-.594-1.333-1.333-1.333H6.667c-.74 0-1.333.593-1.333 1.333v1.334H2.667c-.74 0-1.327.593-1.327 1.333L1.333 13c0 .74.594 1.334 1.334 1.334h10.666c.74 0 1.334-.594 1.334-1.334V5.667zM9.334 4.333V3H6.667v1.333h2.667zm-6.667 2v6c0 .367.3.667.667.667h9.333c.367 0 .667-.3.667-.666v-6c0-.367-.3-.667-.667-.667H3.333c-.366 0-.666.3-.666.667z" fill="#26BED6"/>
</svg>
