<svg width="16" height="16" viewBox="0 0 16 16" fill="none" xmlns="http://www.w3.org/2000/svg">
    <path fill-rule="evenodd" clip-rule="evenodd" d="M4.818 2.818A4.5 4.5 0 0 1 12.5 6c0 2.26.484 3.676.939 4.51.228.42.452.697.611.865a2.186 2.186 0 0 0 .226.208l.006.004A.5.5 0 0 1 14 12.5H2a.5.5 0 0 1-.282-.913l.006-.004a2.184 2.184 0 0 0 .226-.208c.159-.168.383-.446.611-.864C3.017 9.676 3.5 8.26 3.5 6a4.5 4.5 0 0 1 1.318-3.182zM3.127 11.5h9.747a5.847 5.847 0 0 1-.313-.51C12.017 9.99 11.5 8.406 11.5 6a3.5 3.5 0 1 0-7 0c0 2.407-.516 3.991-1.061 4.99-.105.191-.21.361-.312.51z" fill="#868998"/>
    <path fill-rule="evenodd" clip-rule="evenodd" d="M10.5 12a2.5 2.5 0 0 1-5 0h1a1.5 1.5 0 0 0 3 0h1z" fill="#868998"/>
</svg>
