<svg width="16" height="16" viewBox="0 0 16 16" fill="none" xmlns="http://www.w3.org/2000/svg">
    <path fill-rule="evenodd" clip-rule="evenodd" d="M.668 5.176C.887 2.639 2.592.643 4.875.643c1.23 0 2.329.586 3.091 1.558.78-.966 1.917-1.558 3.156-1.558 2.287 0 3.99 1.999 4.21 4.537.02.165.081.767-.128 1.714a7.267 7.267 0 0 1-2.038 3.658l-.003.003-4.859 4.663a.5.5 0 0 1-.695-.003l-4.775-4.663a7.256 7.256 0 0 1-2.04-3.658C.59 5.966.643 5.36.669 5.176zm4.207-3.533c-1.612 0-3.028 1.435-3.211 3.632a.502.502 0 0 1-.004.034c-.008.048-.072.537.111 1.37.263 1.2.87 2.292 1.76 3.156v.001l4.43 4.325 4.508-4.327a6.268 6.268 0 0 0 1.759-3.154v-.001c.182-.825.119-1.314.11-1.381v-.001a.383.383 0 0 1-.002-.022c-.186-2.197-1.6-3.632-3.214-3.632-1.099 0-2.133.637-2.724 1.7a.5.5 0 0 1-.876-.003c-.589-1.083-1.573-1.697-2.647-1.697z" fill="#868998"/>
</svg>
