<svg width="16" height="16" viewBox="0 0 16 16" fill="none" xmlns="http://www.w3.org/2000/svg">
    <path fill-rule="evenodd" clip-rule="evenodd" d="M8 1.951A6.049 6.049 0 1 0 8 14.05 6.049 6.049 0 0 0 8 1.95zM1 8a7 7 0 1 1 14 0A7 7 0 0 1 1 8z" fill="#868998"/>
    <path d="M8.832 4.5a.833.833 0 1 0-1.667 0 .833.833 0 0 0 1.667 0zM6.832 6.667c0-.368.299-.667.667-.667h.666c.369 0 .667.299.667.667v4h.5a.667.667 0 0 1 0 1.333H6.999a.667.667 0 0 1 0-1.333h.5V7.333a.667.667 0 0 1-.667-.666z" fill="#868998"/>
</svg>
