<svg width="16" height="16" viewBox="0 0 16 16" fill="none" xmlns="http://www.w3.org/2000/svg">
    <path d="m8.074 10.26-2.587 2.587a1.647 1.647 0 0 1-2.333 0 1.64 1.64 0 0 1 0-2.334L5.74 7.927a.67.67 0 0 0-.947-.947L2.207 9.573a2.987 2.987 0 0 0 4.22 4.22l2.594-2.586a.67.67 0 1 0-.947-.947zm-2.187-.147a.665.665 0 0 0 .474.194.666.666 0 0 0 .473-.194l3.28-3.28a.67.67 0 0 0-.947-.946l-3.28 3.28a.667.667 0 0 0 0 .946zM14.001 12h-.667v-.667a.667.667 0 0 0-1.333 0V12h-.667a.667.667 0 1 0 0 1.333H12V14a.667.667 0 0 0 1.333 0v-.667H14A.667.667 0 0 0 14 12zm-2.794-2.98 2.587-2.593a2.987 2.987 0 0 0-4.22-4.22L6.98 4.793a.67.67 0 0 0 .946.947l2.587-2.587a1.647 1.647 0 0 1 2.333 0 1.64 1.64 0 0 1 0 2.334l-2.586 2.586a.669.669 0 1 0 .946.947z" fill="#868998"/>
</svg>
