<svg width="16" height="16" viewBox="0 0 16 16" fill="none" xmlns="http://www.w3.org/2000/svg">
<path fill-rule="evenodd" clip-rule="evenodd" d="M3.58333 1C3.58333 0.723858 3.80719 0.5 4.08333 0.5H14C14.2761 0.5 14.5 0.723858 14.5 1V15C14.5 15.2761 14.2761 15.5 14 15.5H4.08333C3.80719 15.5 3.58333 15.2761 3.58333 15V11.2667C3.58333 10.9905 3.80719 10.7667 4.08333 10.7667C4.35948 10.7667 4.58333 10.9905 4.58333 11.2667V14.5H13.5V1.5H4.58333V4.79167C4.58333 5.06781 4.35948 5.29167 4.08333 5.29167C3.80719 5.29167 3.58333 5.06781 3.58333 4.79167V1ZM1.5 7.97083C1.5 7.69469 1.72386 7.47083 2 7.47083H4.52406L9.04489 7.50001C9.32103 7.50179 9.54344 7.72709 9.54166 8.00323C9.53988 8.27936 9.31458 8.50177 9.03844 8.49999L4.51923 8.47083H2C1.72386 8.47083 1.5 8.24698 1.5 7.97083Z" fill="#868998"/>
<path fill-rule="evenodd" clip-rule="evenodd" d="M6.64395 5.64896C6.83782 5.45232 7.1544 5.45008 7.35104 5.64395L9.35104 7.61578C9.44547 7.70889 9.49905 7.8357 9.49999 7.96831C9.50092 8.10092 9.44913 8.22848 9.35602 8.3229L7.35602 10.3511C7.16213 10.5477 6.84555 10.5499 6.64893 10.356C6.4523 10.1621 6.45009 9.84555 6.64398 9.64893L8.29288 7.97681L6.64896 6.35605C6.45232 6.16218 6.45008 5.84561 6.64395 5.64896Z" fill="#868998"/>
</svg>
