<svg width="144" height="164" viewBox="0 0 144 164" fill="none" xmlns="http://www.w3.org/2000/svg">
    <ellipse cx="72" cy="144.746" rx="72" ry="19.005" fill="#E1E1E3"/>
    <mask id="14u4li8pta" style="mask-type:alpha" maskUnits="userSpaceOnUse" x="18" y="14" width="76" height="122">
        <path d="m18.07 16.682 7.139 118.952 61.393-2.363 7.139-118.953-75.67 2.364z" fill="#D9D9D9"/>
    </mask>
    <g mask="url(#14u4li8pta)">
        <path fill="#DCF6FF" d="M13.553 10.153h92.612v101.531H13.553z"/>
        <path d="M88.293 57.004c.922-1.318 4.225 1.262 5.762 2.716l-5.307 29.17L48 83.108c.185-.493.83-1.75 1.937-2.83 1.383-1.351 1.89-1.012 2.766-1.137.875-.125 1.06.425 2.35 1.146 1.29.72 1.752-.25 2.305-.165.553.085 1.522-.547 2.674-.63.922-.066 1.183-.251 1.199-.336.353-.38 1.281-1.106 2.166-.969 1.106.171 1.568-.8 1.752-1.815.185-1.015 3.78-.459 5.486-.456 1.705.003.875-.125-.6-1.396-1.474-1.271 1.384-2.916 2.86-3.209 1.474-.293 4.24.134 1.89-2.576-2.35-2.71-2.534-6.39-1.428-7.784 1.107-1.393 4.15-2.487 5.348-1.259.958.983 1.874.638 2.212.343-.076-1.142.213-3.67 1.983-4.649 2.213-1.222 4.978.77 5.393 1.617z" fill="#fff"/>
        <path d="M14.341 62.76c-.922-1.319-4.225 1.261-5.761 2.716l5.307 29.168 40.747-5.78c-.184-.493-.83-1.75-1.936-2.83-1.383-1.35-1.89-1.011-2.766-1.137-.876-.125-1.06.425-2.35 1.146-1.291.721-1.752-.25-2.306-.165-.553.086-1.52-.547-2.673-.63-.922-.066-1.184-.251-1.199-.336-.353-.38-1.282-1.105-2.167-.969-1.106.172-1.567-.8-1.752-1.815-.184-1.014-3.78-.458-5.485-.455-1.706.003-.876-.126.599-1.397s-1.384-2.915-2.859-3.209c-1.475-.293-4.24.135-1.89-2.576 2.35-2.71 2.534-6.39 1.427-7.783-1.106-1.394-4.149-2.488-5.347-1.26-.959.983-1.875.638-2.213.343.077-1.142-.212-3.67-1.983-4.648-2.213-1.223-4.978.77-5.393 1.616z" fill="#fff"/>
        <path d="M61.835 81.498c-15.36.16-35.2 1.408-43.2 2.012l6.777 44.871 68.894 1.006L105.6 83.51c-8.188-.738-28.405-2.173-43.765-2.012z" fill="#C7F2F9"/>
        <path d="M46.773 98.439c-3.824-2.365-16.964.985-23.056 2.956l.563 36.322 62.699-.422c1.124-5.139 3.374-15.585 3.374-16.261 0-.844-6.186-12.881-17.995-8.869-11.809 4.013-29.522 2.112-30.365-1.9-.844-4.013 9.56-8.87 4.78-11.826z" fill="#FBEDBF"/>
        <path d="M64.941 84.107c-7.002-.208-18.353 1.302-23.153 2.083H63.53c4.518 0 14.683.868 19.2 1.302-3.011-1.041-10.786-3.176-17.788-3.385zM73.567 100.244c-4.83-.159-12.657.995-15.967 1.593h14.994c3.115 0 10.125.663 13.24.995-2.076-.796-7.438-2.429-12.267-2.588zM49.27 92.416c-4.831-.112-12.645 1.12-15.948 1.75l14.993-.148c3.115-.03 10.133.564 13.252.865-2.086-.776-7.466-2.356-12.297-2.467z" fill="#82D2DF"/>
        <path d="M62.038 32.757 36.053 30.63l-.698 6.812.947 1.537-1.129.24-.891 8.691 5.29-3.037 2.03 2.828 20.436-14.944z" fill="#27BED7"/>
        <path d="M62.04 32.727 39.573 44.846l2.03 2.828L62.04 32.727z" fill="#00467F"/>
        <path d="m35.34 37.479.95 1.558 25.8-6.307-26.75 4.749z" fill="#00467F"/>
        <ellipse cx="9.232" cy="8.86" rx="9.232" ry="8.86" transform="matrix(.97585 -.21992 .27491 .96186 17.3 108.676)" fill="#82D2DF"/>
        <path d="M30.245 123.212c-3.857-3.583-4.899-11.892-4.937-15.598-5.343 2.605-3.237 10.022-1.665 11.987 1.572 1.966 4.697 4.043 6.602 3.611zM31.705 122.83c1.478-4.794-2.04-12.54-3.984-15.814 6.086.012 8.193 7.429 7.86 9.826-.333 2.398-1.97 5.556-3.876 5.988z" fill="#6EADB7"/>
    </g>
    <path fill-rule="evenodd" clip-rule="evenodd" d="M91.73 140.32H20.61L13.553 11.597l86.469-2.114-8.293 130.837zm-5.328-5.207H25.98L19.485 16.661l74.541-1.823-7.623 120.275z" fill="#447096"/>
    <path d="m134.967 0 5.929 1.562-20.047 138.759h-4.517L134.967 0z" fill="#447096"/>
    <path d="M134.968.26 93.462 15.88 86.12 134.853l30.494 5.467L134.968.26z" fill="#82D2DF"/>
    <path d="M128.473 79.142h-2.258v-6.509h3.105l-.847 6.509z" fill="#FBEDBF"/>
    <path d="M127.909 77.58h-.565v-3.384h1.129l-.564 3.384zM122.167 74.237c.226.625.848.608 1.13.52.226.21.094 1.129 0 1.563 0 .347-.226.885-1.13.26-1.129-.78-.847 1.302-3.105 1.562-2.259.26-4.518-4.165-1.695-5.988 2.824-1.822 4.518 1.302 4.8 2.083z" fill="#F2C94C"/>
    <path d="M116.651 72.282c.678-1.25 2.918-.52 3.953 0 .565 2.343 0 3.905-2.541 4.686-2.541.781-2.259-3.124-1.412-4.686z" fill="#FBEDBF"/>
    <path d="m112.661 130.949-23.153-2.082 2.824-1.562 19.2 1.562 4.518-43.736 1.694-3.645-5.083 49.463z" fill="#C7F2F9"/>
    <path d="m89.508 128.867 2.824-1.562 2.824-41.133 20.894-1.041 1.694-3.645-25.412 1.562-2.823 45.819zM107.579 17.183l-11.576 3.644-2.541 48.162 2.823-2.082 1.694-44.518 8.189-2.603 1.411-2.603zM127.909 10.153 114.92 14.84l-4.517 53.109 2.823-2.083 3.953-48.943 8.471-2.603 2.259-4.166z" fill="#6EADB7"/>
    <path d="m96.285 66.906-2.823 2.083 10.164-.781 3.953-51.286-1.411 2.864-3.671 47.12h-6.212zM113.226 65.865l-2.823 2.083 11.859-.521 5.647-57.274-2.259 4.166-5.082 51.546h-7.342z" fill="#C7F2F9"/>
    <path d="M107.663 144.966c-.752-3.065-7.568-8.227-10.832-8.266-3.041-.037-8.285-2.565-10.713-4.949-4.673-2.941-36.595.047-51.972 1.909-2.554.801-8.248 3.489-10.591 7.834-2.93 5.43 7.898 2.29 11.828 1.865-3.079 4.266 1.126 11.677 7.26 8.653 6.134-3.025 12.751.584 17.126 3.65 4.375 3.066 4.09-2.016 9.646-1.045 5.556.971 2.512-3.026.033-8.263-2.479-5.238 14.637 1.167 23.189 5.746 8.551 4.58 17.791 3.186 20.451 1.324 2.66-1.861 8.255 2.252 9.289-1.006 1.033-3.259-6.964-6.326-14.714-7.452z" fill="#FBEDBF"/>
    <path d="M58.845 127.498c-.452-.833-2.823 1.215-3.953 2.343-.847 0-2.936-.208-4.518-1.041-1.976-1.041-1.976.521.565 2.864-1.13 0-5.082 2.863-1.411 2.082 3.67-.781 5.364 2.083 6.494 3.645 1.129 1.562 1.411-2.864 1.694-3.645.282-.781 5.082-.26 5.364-1.041.283-.781-3.388-.781-4.235-1.041-.847-.261.565-3.124 0-4.166zM85.95 144.68c-.45-.833-2.823 1.215-3.952 2.343-.847 0-2.937-.208-4.518-1.041-1.976-1.042-1.976.52.565 2.863-1.13 0-5.082 2.864-1.412 2.083 3.67-.781 5.365 2.083 6.494 3.645 1.13 1.562 1.412-2.864 1.694-3.645.283-.781 5.083-.26 5.365-1.041.282-.781-3.388-.781-4.235-1.042-.847-.26.565-3.124 0-4.165z" fill="#F2C94C"/>
</svg>
