<svg width="16" height="16" viewBox="0 0 16 16" fill="none" xmlns="http://www.w3.org/2000/svg">
    <path d="M4 10.5a.5.5 0 0 1 .5-.5h2a.5.5 0 0 1 0 1h-2a.5.5 0 0 1-.5-.5z" fill="#868998"/>
    <path fill-rule="evenodd" clip-rule="evenodd" d="M3.595.5H8.588c.096 0 .173.025.213.04a.917.917 0 0 1 .12.055c.067.037.136.083.204.131.135.098.302.232.486.388.37.315.843.746 1.347 1.22 1.01.948 2.168 2.085 2.925 2.842a.5.5 0 0 1 .146.353v1.647a.5.5 0 1 1-1 0v-1.44c-.75-.747-1.818-1.793-2.755-2.673-.5-.47-.96-.888-1.31-1.187a7.016 7.016 0 0 0-.479-.376H3.647c-.456 0-.667.02-.812.141-.13.108-.335.422-.335 1.418v10.294c0 .497.16.757.335.902.19.16.475.245.812.245h4.53a.5.5 0 0 1 0 1h-4.53c-.486 0-1.026-.12-1.452-.476-.443-.37-.695-.933-.695-1.671V3.059c0-1.063.206-1.779.695-2.186C2.645.497 3.223.5 3.595.5z" fill="#868998"/>
    <path fill-rule="evenodd" clip-rule="evenodd" d="M8.088 1h1v3.987c0 .32.081.395.091.404.02.018.077.05.233.05h4.117v1H9.412c-.256 0-.611-.046-.9-.306-.3-.268-.424-.669-.424-1.148V1zM11.146 8.646a.5.5 0 0 1 .631-.062C12.38 8.985 13.217 9 14 9a.5.5 0 0 1 .5.5v3c0 .2-.065.383-.138.533a2.609 2.609 0 0 1-.288.447 6.628 6.628 0 0 1-.804.831c-.577.512-1.24.983-1.546 1.136a.5.5 0 0 1-.448 0c-.306-.153-.97-.624-1.546-1.136a6.624 6.624 0 0 1-.804-.831 2.61 2.61 0 0 1-.288-.447A1.221 1.221 0 0 1 8.5 12.5v-3a.5.5 0 0 1 .57-.495c.255.036.685.06 1.11.005.445-.056.786-.183.966-.364zm.397.954c-.381.242-.84.352-1.236.402-.28.036-.559.045-.807.038v2.457s.004.03.036.095c.035.072.094.164.178.272.17.217.41.46.68.7.406.36.833.676 1.106.854.273-.178.7-.493 1.105-.854.27-.24.511-.483.68-.7.085-.108.144-.2.18-.272.031-.065.035-.095.035-.095v-2.5c-.59-.014-1.315-.083-1.957-.397z" fill="#868998"/>
    <path d="M4 4.5a.5.5 0 0 1 .5-.5h2a.5.5 0 0 1 0 1h-2a.5.5 0 0 1-.5-.5zM4 7.5a.5.5 0 0 1 .5-.5h3a.5.5 0 0 1 0 1h-3a.5.5 0 0 1-.5-.5z" fill="#868998"/>
</svg>
