<svg width="16" height="16" viewBox="0 0 16 16" fill="none" xmlns="http://www.w3.org/2000/svg">
    <path fill-rule="evenodd" clip-rule="evenodd" d="M2.912 4.995c0-2.587 2.625-4.428 5.62-4.428 3 0 5.62 1.903 5.62 4.428v2.08a.5.5 0 1 1-1 0v-2.08c0-1.75-1.918-3.428-4.62-3.428-2.707 0-4.62 1.625-4.62 3.428v2.08a.5.5 0 0 1-1 0v-2.08z" fill="#868998"/>
    <path fill-rule="evenodd" clip-rule="evenodd" d="M1.633 8.635c0-1.005.731-2.002 1.78-2.002h.698a.5.5 0 0 1 .5.5v3.004a.5.5 0 0 1-.5.5h-.697c-1.049 0-1.781-.998-1.781-2.002zm1.78-1.002c-.348 0-.78.389-.78 1.002s.432 1.002.78 1.002h.198V7.633h-.198zM12.453 7.075a.5.5 0 0 1 .5-.5h.698c1.048 0 1.78.998 1.78 2.002 0 1.005-.731 2.002-1.78 2.002h-.698a.5.5 0 0 1-.5-.5V7.075zm1 .5v2.004h.198c.348 0 .78-.389.78-1.002s-.432-1.002-.78-1.002h-.198zM8.126 14.242a.088.088 0 0 0-.024.055v.058c0 .03.005.048.008.056a.034.034 0 0 0 .003.007l.002.002.009.004a.17.17 0 0 0 .06.008h.756c.005 0 .012 0 .026-.013a.243.243 0 0 0 .056-.114v-.008a.157.157 0 0 0-.012-.063v-.001l-.002-.001a.169.169 0 0 0-.068-.013h-.757a.082.082 0 0 0-.034.007.073.073 0 0 0-.023.016zm-1.024.055c0-.535.427-1.078 1.081-1.078h.757c.287 0 .565.097.774.304.209.208.308.486.308.774v.058a.498.498 0 0 1-.007.082c-.087.516-.474.995-1.075.995h-.757c-.287 0-.565-.097-.774-.303a1.075 1.075 0 0 1-.307-.774v-.058z" fill="#868998"/>
    <path fill-rule="evenodd" clip-rule="evenodd" d="M13.653 9.637a.5.5 0 0 1 .5.5v1.33c0 1.896-1.507 3.388-3.409 3.388H9.64a.5.5 0 1 1 0-1h1.105c1.356 0 2.41-1.05 2.41-2.389v-1.329a.5.5 0 0 1 .5-.5z" fill="#868998"/>
</svg>
