<svg width="16" height="16" viewBox="0 0 16 16" fill="none" xmlns="http://www.w3.org/2000/svg">
    <path fill-rule="evenodd" clip-rule="evenodd" d="M8.04 2.5c-.987 0-1.796.81-1.796 1.82 0 1.011.81 1.82 1.796 1.82s1.795-.809 1.795-1.82c0-1.01-.809-1.82-1.795-1.82zM5.244 4.32c0-1.552 1.247-2.82 2.796-2.82 1.549 0 2.795 1.268 2.795 2.82 0 1.553-1.246 2.82-2.795 2.82-1.55 0-2.796-1.267-2.796-2.82zM8.001 8.9c-2.761 0-5.007 2.278-5.007 5.1 0 .276-.223.5-.497.5A.498.498 0 0 1 2 14c0-3.364 2.681-6.1 6.001-6.1C11.321 7.9 14 10.636 14 14c0 .276-.222.5-.497.5a.498.498 0 0 1-.497-.5c0-2.822-2.244-5.1-5.005-5.1z" fill="#868998"/>
</svg>
