<svg width="48" height="48" viewBox="0 0 48 48" fill="none" xmlns="http://www.w3.org/2000/svg">
    <path d="m18.175 42.284 2.415 2.885 2.528-2.827.797.143-3.07 3.462-.273.305-.263-.313-2.678-3.2.544-.455z" fill="#26BED6"/>
    <path d="m23.732 42.284 2.416 2.885 2.527-2.827.796.143-3.069 3.462-.273.305-.263-.313-2.678-3.2.544-.455z" fill="#26BED6"/>
    <path d="m29.294 42.284 2.416 2.885 2.527-2.827.797.143-3.07 3.462-.273.305-.263-.313-2.678-3.2.544-.455zM12.617 42.284l2.416 2.885 2.528-2.827.796.143-3.07 3.462-.272.305-.263-.313-2.679-3.2.544-.455z" fill="#26BED6"/>
    <path fill-rule="evenodd" clip-rule="evenodd" d="M23.537 3.501c9.116 0 16.507 7.39 16.507 16.508 0 9.117-7.39 16.507-16.507 16.507S7.029 29.126 7.029 20.01 14.42 3.5 23.537 3.5zm0 1.08c8.52 0 15.428 6.907 15.428 15.428 0 8.52-6.908 15.428-15.428 15.428-8.521 0-15.428-6.907-15.428-15.428S15.016 4.58 23.537 4.58z" fill="#003C71"/>
    <path d="m23.142 21.266-12.6 25.094-1.151-.576 12.6-25.094 1.151.576zM25.174 20.69l12.601 25.094-1.15.576-12.602-25.094 1.151-.576z" fill="#003C71"/>
    <path d="M23.537 12.273c2.136 0 4.07.866 5.47 2.266a7.712 7.712 0 0 1 2.265 5.47c0 2.136-.866 4.07-2.265 5.47a7.712 7.712 0 0 1-5.47 2.265 7.711 7.711 0 0 1-5.47-2.265 7.711 7.711 0 0 1-2.266-5.47c0-2.137.866-4.07 2.266-5.47a7.711 7.711 0 0 1 5.47-2.266zm5.013 2.723a7.067 7.067 0 0 0-5.014-2.077c-1.957 0-3.73.793-5.013 2.076a7.067 7.067 0 0 0-2.076 5.014c0 1.957.793 3.73 2.076 5.013a7.07 7.07 0 0 0 5.014 2.076c1.957 0 3.73-.793 5.013-2.076a7.067 7.067 0 0 0 2.076-5.013 7.07 7.07 0 0 0-2.076-5.014z" fill="#26BED6"/>
    <path d="M23.537 8.426c3.198 0 6.094 1.297 8.19 3.393a11.546 11.546 0 0 1 3.392 8.19c0 3.198-1.297 6.094-3.392 8.19a11.546 11.546 0 0 1-8.19 3.392 11.546 11.546 0 0 1-8.19-3.392 11.546 11.546 0 0 1-3.393-8.19c0-3.199 1.297-6.094 3.393-8.19a11.546 11.546 0 0 1 8.19-3.393zm7.733 3.85a10.903 10.903 0 0 0-7.733-3.204c-3.02 0-5.754 1.225-7.734 3.204a10.902 10.902 0 0 0-3.203 7.733c0 3.02 1.225 5.753 3.203 7.733a10.902 10.902 0 0 0 7.734 3.203c3.02 0 5.753-1.224 7.733-3.203a10.903 10.903 0 0 0 3.203-7.733c0-3.02-1.224-5.754-3.203-7.733z" fill="#26BED6"/>
    <path d="m23.185 18.734-8.123-5.951 7.166 7.688-.473.439-9.423-10.11c.065-.21.195-.413.448-.488l10.786 7.902-.381.52z" fill="#003C71"/>
    <path d="m22.311 19.08-10.039.781 10.445 1.16-.072.641L8.91 20.136c-.088-.201-.122-.44.021-.661l13.331-1.037.05.643z" fill="#003C71"/>
    <path d="m23.185 21.181-8.123 5.952 7.166-7.688-.473-.44-9.423 10.111c.065.21.195.413.448.488l10.786-7.902-.381-.52zM24.044 18.734l8.122-5.951-7.165 7.688.472.439 9.424-10.11c-.065-.21-.194-.413-.448-.488l-10.786 7.902.381.52z" fill="#003C71"/>
    <path d="m24.917 19.08 10.04.781-10.445 1.16.072.641 13.736-1.526c.087-.201.121-.44-.021-.661l-13.331-1.037-.05.643z" fill="#003C71"/>
    <path d="m24.044 21.181 8.122 5.951-7.165-7.687.472-.44 9.424 10.111c-.065.21-.194.413-.448.488l-10.786-7.902.381-.52zM24.41 18.799l-.683-10.046-1.26 10.433-.64-.078 1.658-13.722c.202-.085.44-.117.662.028l.907 13.34-.644.044z" fill="#003C71"/>
    <path d="m24.624 21.35-1.01 10.019-.921-10.47-.642.057 1.21 13.769c.2.092.437.13.662-.007l1.342-13.304-.641-.064zM12.011 41.29c.255.128 22.768-.067 22.832-.068l.657 1.287c-.066 0-23.532.2-24.065-.068l.576-1.15z" fill="#003C71"/>
    <path fill-rule="evenodd" clip-rule="evenodd" d="M5.768 47.703h34.894L39.37 45.71H7.06l-1.292 1.993z" fill="#003C71"/>
    <path fill-rule="evenodd" clip-rule="evenodd" d="M8.116 28.617h3.923c.508 0 .923.415.923.922v3.308a.925.925 0 0 1-.923.923H8.116a.925.925 0 0 1-.923-.923v-3.308c0-.507.415-.922.923-.922z" fill="#26BED6"/>
    <path fill-rule="evenodd" clip-rule="evenodd" d="M7.616 29.847h4.788v1.635H7.616v-1.635z" fill="#fff"/>
    <path d="m9.027 31.482.006 1.769c.192.123 1.02.394 2.03.053l.062-1.823h.062V33.403l-.048.01c-1.212.286-2.186-.059-2.19-.06l-.042-.015.001-.045.047-1.813.072.002z" fill="#fff"/>
    <path fill-rule="evenodd" clip-rule="evenodd" d="M10.745 31.78h.557a.12.12 0 0 1 .12.121.12.12 0 0 1-.12.12h-.557a.12.12 0 0 1 0-.24z" fill="#fff"/>
    <path fill-rule="evenodd" clip-rule="evenodd" d="M8.452 28.802h3.433v-.686H8.452v.686zM4.071 17.013h3.923c.508 0 .923.415.923.922v3.308a.925.925 0 0 1-.923.923H4.07a.925.925 0 0 1-.923-.923v-3.307c0-.508.416-.923.923-.923z" fill="#26BED6"/>
    <path fill-rule="evenodd" clip-rule="evenodd" d="M3.571 18.244H8.36v1.634H3.57v-1.634z" fill="#fff"/>
    <path d="m4.982 19.878.006 1.768c.192.124 1.02.395 2.03.054l.062-1.823h.062V21.799l-.048.01c-1.212.285-2.186-.059-2.19-.06l-.042-.015.001-.045.047-1.814.072.003z" fill="#fff"/>
    <path fill-rule="evenodd" clip-rule="evenodd" d="M6.7 20.177h.557a.12.12 0 0 1 .12.12.12.12 0 0 1-.12.12H6.7a.12.12 0 0 1-.12-.12.12.12 0 0 1 .12-.12z" fill="#fff"/>
    <path fill-rule="evenodd" clip-rule="evenodd" d="M4.406 17.198H7.84v-.686H4.406v.686zM8.083 5.83h3.923c.507 0 .922.415.922.922v3.308a.925.925 0 0 1-.922.923H8.083a.925.925 0 0 1-.923-.923V6.752c0-.507.415-.922.923-.922z" fill="#26BED6"/>
    <path fill-rule="evenodd" clip-rule="evenodd" d="M7.582 7.06h4.788v1.635H7.582V7.06z" fill="#fff"/>
    <path d="m8.993 8.695.005 1.768c.193.124 1.02.395 2.03.054l.063-1.823h.062V10.616l-.048.01c-1.212.286-2.187-.059-2.19-.06l-.042-.015.001-.045.047-1.813.072.002z" fill="#fff"/>
    <path fill-rule="evenodd" clip-rule="evenodd" d="M10.711 8.994h.556a.12.12 0 0 1 .12.12.12.12 0 0 1-.12.12h-.556a.12.12 0 0 1 0-.24z" fill="#fff"/>
    <path fill-rule="evenodd" clip-rule="evenodd" d="M8.418 6.015h3.433V5.33H8.418v.686zM21.578.501h3.923c.508 0 .922.416.922.923v3.307a.925.925 0 0 1-.922.923h-3.923a.925.925 0 0 1-.923-.923V1.424c0-.507.416-.923.923-.923z" fill="#26BED6"/>
    <path fill-rule="evenodd" clip-rule="evenodd" d="M21.08 1.732h4.787v1.634h-4.788V1.732z" fill="#fff"/>
    <path d="m22.489 3.366.006 1.769c.192.124 1.02.395 2.03.054l.062-1.823h.062v1.921l-.048.011c-1.212.285-2.186-.06-2.19-.06l-.042-.015.001-.045.047-1.814.072.002z" fill="#fff"/>
    <path fill-rule="evenodd" clip-rule="evenodd" d="M24.207 3.665h.557a.12.12 0 0 1 .12.12.12.12 0 0 1-.12.12h-.557a.12.12 0 0 1-.12-.12.12.12 0 0 1 .12-.12z" fill="#fff"/>
    <path fill-rule="evenodd" clip-rule="evenodd" d="M21.914.686h3.433V0h-3.433v.686zM21.41 34.459h3.923c.508 0 .923.415.923.923v3.307a.926.926 0 0 1-.923.923H21.41a.926.926 0 0 1-.923-.923v-3.307c0-.508.415-.923.923-.923z" fill="#26BED6"/>
    <path fill-rule="evenodd" clip-rule="evenodd" d="M20.91 35.69h4.788v1.634H20.91v-1.635z" fill="#fff"/>
    <path d="m22.32 37.324.007 1.769c.192.123 1.02.394 2.03.053l.062-1.823h.062V39.245l-.048.01c-1.212.286-2.186-.059-2.19-.06l-.042-.015.001-.044.047-1.814.072.002z" fill="#fff"/>
    <path fill-rule="evenodd" clip-rule="evenodd" d="M24.038 37.622h.557a.12.12 0 0 1 .12.12.12.12 0 0 1-.12.12h-.557a.12.12 0 0 1-.12-.12.12.12 0 0 1 .12-.12z" fill="#fff"/>
    <path fill-rule="evenodd" clip-rule="evenodd" d="M21.745 34.644h3.433v-.686h-3.433v.686zM35.129 28.617h3.922c.508 0 .923.415.923.922v3.308a.925.925 0 0 1-.922.923h-3.923a.925.925 0 0 1-.923-.923v-3.308c0-.507.415-.922.923-.922z" fill="#26BED6"/>
    <path fill-rule="evenodd" clip-rule="evenodd" d="M34.629 29.847h4.788v1.635h-4.788v-1.635z" fill="#fff"/>
    <path d="m36.04 31.482.006 1.769c.193.123 1.02.394 2.03.053l.063-1.823h.062V33.403l-.048.01c-1.212.286-2.187-.059-2.19-.06l-.042-.015v-.045l.048-1.813.072.002z" fill="#fff"/>
    <path fill-rule="evenodd" clip-rule="evenodd" d="M37.758 31.78h.556a.12.12 0 0 1 .12.121.12.12 0 0 1-.12.12h-.556a.12.12 0 0 1-.12-.12.12.12 0 0 1 .12-.12z" fill="#fff"/>
    <path fill-rule="evenodd" clip-rule="evenodd" d="M35.465 28.802h3.433v-.686h-3.433v.686zM39.174 17.013h3.922c.508 0 .923.415.923.922v3.308a.925.925 0 0 1-.923.923h-3.922a.926.926 0 0 1-.923-.923v-3.307c0-.508.416-.923.923-.923z" fill="#26BED6"/>
    <path fill-rule="evenodd" clip-rule="evenodd" d="M38.675 18.244h4.788v1.634h-4.788v-1.634z" fill="#fff"/>
    <path fill-rule="evenodd" clip-rule="evenodd" d="M39.51 17.198h3.433v-.686H39.51v.686zM35.163 5.83h3.923c.508 0 .922.415.922.922v3.308a.925.925 0 0 1-.922.923h-3.923a.926.926 0 0 1-.923-.923V6.752c0-.507.415-.922.923-.922z" fill="#26BED6"/>
    <path fill-rule="evenodd" clip-rule="evenodd" d="M34.663 7.06h4.788v1.635h-4.788V7.06z" fill="#fff"/>
    <path d="m36.074 8.695.006 1.768c.192.124 1.02.395 2.03.054l.062-1.823h.062V10.616l-.048.01c-1.212.286-2.187-.059-2.19-.06l-.042-.015.001-.045.047-1.813.072.002zM39.965 19.873l.005 1.769c.193.124 1.02.395 2.03.053l.063-1.823h.061V21.794l-.047.01c-1.212.286-2.187-.059-2.19-.06l-.042-.015v-.044l.048-1.814.072.002z" fill="#fff"/>
    <path fill-rule="evenodd" clip-rule="evenodd" d="M37.792 8.994h.556a.12.12 0 0 1 .12.12.12.12 0 0 1-.12.12h-.556a.12.12 0 0 1-.12-.12.12.12 0 0 1 .12-.12zM41.683 20.172h.556a.12.12 0 0 1 .12.12.12.12 0 0 1-.12.12h-.556a.12.12 0 0 1-.12-.12.12.12 0 0 1 .12-.12z" fill="#fff"/>
    <path fill-rule="evenodd" clip-rule="evenodd" d="M35.499 6.015h3.433V5.33H35.5v.686zM23.535 16.929c1.683 0 3.046 1.375 3.046 3.07 0 1.697-1.364 3.072-3.046 3.072-1.682 0-3.045-1.375-3.045-3.071 0-1.697 1.363-3.071 3.045-3.071z" fill="#26BED6"/>
    <path d="M47.535 48H17.651c.698-5.345 6.814-5.508 7.35-4.044 0-.906 1.743-3.834 6.022-3.904 3.424-.055 5.055 2.58 5.442 3.904-.054-.333.786-.999 4.582-.999 3.795 0 5.907 3.362 6.488 5.043z" fill="#84A32F"/>
    <path d="M30.916 48H1.032c.698-5.345 6.814-5.508 7.35-4.044 0-.906 1.743-3.834 6.022-3.904 3.424-.055 5.055 2.58 5.442 3.904-.054-.333.786-.999 4.582-.999 3.795 0 5.907 3.362 6.488 5.043z" fill="#9FC43A"/>
</svg>
