<svg width="18" height="18" viewBox="0 0 18 18" fill="none" xmlns="http://www.w3.org/2000/svg">
    <path fill-rule="evenodd" clip-rule="evenodd" d="M2 5.25c0 .63.39 1.17.94 1.392a1.495 1.495 0 0 0-.127.608v6.938a1.5 1.5 0 0 0 1.5 1.5h9.375a1.5 1.5 0 0 0 1.5-1.5V7.25c0-.216-.046-.422-.129-.608A1.5 1.5 0 0 0 16 5.25V4a1.5 1.5 0 0 0-1.5-1.5h-11A1.5 1.5 0 0 0 2 4v1.25zm11.688.5H3.5a.5.5 0 0 1-.5-.5V4a.5.5 0 0 1 .5-.5h11a.5.5 0 0 1 .5.5v1.25a.5.5 0 0 1-.5.5h-.813zm-9.876 1.5a.5.5 0 0 1 .5-.5h9.375a.5.5 0 0 1 .5.5v6.938a.5.5 0 0 1-.5.5H4.313a.5.5 0 0 1-.5-.5V7.25zm8.938.938h-7.5v3.437h7.5V8.187zm-6.5 2.437V9.187h5.5v1.438h-5.5z" fill="#868998"/>
</svg>
