<svg width="16" height="16" viewBox="0 0 16 16" fill="none" xmlns="http://www.w3.org/2000/svg">
    <path fill-rule="evenodd" clip-rule="evenodd" d="M.666 2.815c0-.368.298-.667.667-.667h13.333c.368 0 .667.299.667.667v11.852a.667.667 0 0 1-.667.666H1.333a.667.667 0 0 1-.667-.666V2.815zm1.333.666V14h12V3.48H2z" fill="#868998"/>
    <path fill-rule="evenodd" clip-rule="evenodd" d="M.666 5.778c0-.369.298-.667.667-.667h13.333a.667.667 0 1 1 0 1.333H1.333a.667.667 0 0 1-.667-.666zM4.294.667c.368 0 .666.298.666.666v1.482a.667.667 0 0 1-1.333 0V1.333c0-.368.298-.666.667-.666zM11.704.667c.368 0 .666.298.666.666v1.482a.667.667 0 1 1-1.333 0V1.333c0-.368.299-.666.667-.666z" fill="#868998"/>
</svg>
