<svg width="48" height="48" viewBox="0 0 48 48" fill="none" xmlns="http://www.w3.org/2000/svg">
    <path d="M41.414 5.19H18.91a2.052 2.052 0 0 0-1.7.905 2.005 2.005 0 0 0-.307.735 2.03 2.03 0 0 0-.039.398v13.25a2.04 2.04 0 0 0 .909 1.696 2.083 2.083 0 0 0 .738.304c.132.026.264.04.399.04h7.477l3.661 4.077 3.653-4.078h7.712a2.05 2.05 0 0 0 1.89-1.258 2.058 2.058 0 0 0 .156-.78V7.229a2.03 2.03 0 0 0-.91-1.696 2.056 2.056 0 0 0-1.136-.344z" fill="#26BED6"/>
    <path d="M43.41 26.595H21.454a1.947 1.947 0 0 0-1.109.343 1.987 1.987 0 0 0-.735.915 2.083 2.083 0 0 0-.152.78v13.25a2.077 2.077 0 0 0 .336 1.133 1.987 1.987 0 0 0 .551.563 1.994 1.994 0 0 0 .72.305c.128.026.258.039.39.039h7.294L32.322 48l3.563-4.077h7.524a1.95 1.95 0 0 0 1.11-.344 2.013 2.013 0 0 0 .734-.915 2.036 2.036 0 0 0 .152-.78v-13.25a2.075 2.075 0 0 0-.584-1.442 2.02 2.02 0 0 0-.648-.442 1.98 1.98 0 0 0-.764-.155z" fill="#003C71"/>
    <path d="M38.27 35.351a6.082 6.082 0 0 1-.264 1.79 6.181 6.181 0 0 1-1.988 2.974 6.335 6.335 0 0 1-1.004.67 6.329 6.329 0 0 1-1.117.463 6.276 6.276 0 0 1-1.184.236 6.27 6.27 0 0 1-1.807-.089 6.31 6.31 0 0 1-1.155-.35 6.246 6.246 0 0 1-1.552-.93 6.006 6.006 0 0 1-.854-.854 6.075 6.075 0 0 1-.671-1.005 6.023 6.023 0 0 1-.462-1.116 6.131 6.131 0 0 1-.236-2.393 6.083 6.083 0 0 1 .44-1.754 6.114 6.114 0 0 1 1.335-1.999 5.985 5.985 0 0 1 .934-.766 6.043 6.043 0 0 1 1.066-.57 6.097 6.097 0 0 1 1.155-.35 6.235 6.235 0 0 1 1.806-.09 6.18 6.18 0 0 1 3.306 1.37 6.232 6.232 0 0 1 1.215 1.34 6.139 6.139 0 0 1 .92 2.22 6.269 6.269 0 0 1 .118 1.203z" fill="#fff"/>
    <path d="M31.783 38.919a3.535 3.535 0 0 1-.941-.126 3.416 3.416 0 0 1-1.116-.537 3.19 3.19 0 0 1-.45-.404 2.97 2.97 0 0 1-.49-.735A2.674 2.674 0 0 1 28.54 36a.913.913 0 0 1 .182-.54 1.046 1.046 0 0 1 .485-.36 1.185 1.185 0 0 1 .828 0 1.094 1.094 0 0 1 .485.36.94.94 0 0 1 .182.54.881.881 0 0 0 .182.54.999.999 0 0 0 .299.27 1.106 1.106 0 0 0 .39.144 1.194 1.194 0 0 0 .81-.145 1.083 1.083 0 0 0 .299-.269.91.91 0 0 0 .182-.54.878.878 0 0 1 .082-.373.944.944 0 0 1 .235-.315 1.116 1.116 0 0 1 .553-.266 1.196 1.196 0 0 1 .625.055 1.069 1.069 0 0 1 .585.526.92.92 0 0 1 .082.373 2.596 2.596 0 0 1-.14.847 2.697 2.697 0 0 1-.242.529 2.865 2.865 0 0 1-.354.476 3.12 3.12 0 0 1-.705.575 3.366 3.366 0 0 1-.86.366 3.472 3.472 0 0 1-.624.111c-.106.01-.212.015-.318.015z" fill="#003C71"/>
    <path d="M26.544 17.513H4.59a1.959 1.959 0 0 0-1.109.343 2.05 2.05 0 0 0-.55.563 2.039 2.039 0 0 0-.298.735 2.081 2.081 0 0 0-.038.398v13.251a2.082 2.082 0 0 0 .336 1.133 2.038 2.038 0 0 0 .55.562 1.958 1.958 0 0 0 1.11.344h7.295l3.572 4.077 3.562-4.077h7.524a1.965 1.965 0 0 0 1.412-.597 2.045 2.045 0 0 0 .585-1.442V19.552a2.081 2.081 0 0 0-.337-1.133 2.04 2.04 0 0 0-.55-.563 1.984 1.984 0 0 0-1.11-.343z" fill="#9FC43A"/>
    <path d="M35.33 10.378H22.4a1.022 1.022 0 0 1-.553-.164.948.948 0 0 1-.274-.268.929.929 0 0 1-.149-.35.955.955 0 0 1 .272-.879.98.98 0 0 1 .51-.266 1.02 1.02 0 0 1 .194-.019h12.93a1.013 1.013 0 0 1 .827.433.954.954 0 0 1 0 1.08.969.969 0 0 1-.447.36 1.027 1.027 0 0 1-.38.073zM30.162 14.27h-7.784a.979.979 0 0 1-.899-.6.971.971 0 0 1 .9-1.346h7.783a.972.972 0 0 1 .954.784.968.968 0 0 1-.582 1.088.984.984 0 0 1-.372.074zM15.896 32.432 11.53 28.14c-4.347-4.283 0-8.576 4.356-4.304 4.367-4.303 8.724 0 4.357 4.304l-4.347 4.292z" fill="#fff"/>
</svg>
