<svg width="32" height="32" viewBox="0 0 32 32" fill="none" xmlns="http://www.w3.org/2000/svg">
    <g clip-path="url(#d53vi26jaa)">
        <path d="M27.383 13.642H17.068l7.293-7.294-.628-.628-7.294 7.293V2.7h-.889v10.314L8.256 5.72l-.628.628 7.294 7.294H4.606v.889h10.316l-7.294 7.294.628.628 7.294-7.294v10.316h.89V15.16l7.293 7.293.628-.628-7.293-7.294h10.315v-.89z" fill="#003C71"/>
        <path d="M15.995 1.24C8.899 1.24 3.147 6.99 3.147 14.085S8.9 26.933 15.995 26.933c7.096 0 12.848-5.752 12.848-12.847C28.842 6.991 23.09 1.24 15.995 1.24zm0 23.717c-6.005 0-10.872-4.866-10.872-10.87 0-6.005 4.867-10.872 10.872-10.872 6.003 0 10.87 4.867 10.87 10.871 0 6.005-4.866 10.871-10.87 10.871z" fill="#003C71"/>
        <path d="M15.994 20.777a6.698 6.698 0 0 1-6.69-6.69c0-3.69 3.001-6.69 6.69-6.69 3.69 0 6.692 3 6.692 6.69 0 3.688-3.001 6.69-6.692 6.69zm0-12.047a5.363 5.363 0 0 0-5.357 5.356 5.364 5.364 0 0 0 5.357 5.358 5.364 5.364 0 0 0 5.358-5.358 5.363 5.363 0 0 0-5.358-5.356z" fill="#003C71"/>
        <path d="m24.248 30.604-7.445-16.306c-.019-.041-.052-.068-.076-.104-.034-.053-.064-.105-.11-.15-.044-.046-.097-.076-.15-.11-.037-.024-.063-.057-.104-.075-.01-.005-.021-.003-.031-.008-.057-.024-.118-.03-.179-.041-.054-.01-.107-.027-.162-.027-.048 0-.094.016-.143.024-.067.012-.132.02-.195.045-.01.005-.02.003-.03.008-.039.017-.066.05-.101.072-.054.035-.108.066-.154.111-.045.046-.076.1-.11.152-.023.036-.056.063-.074.103L7.741 30.603a.89.89 0 0 0 1.617.738l6.636-14.534 6.636 14.534a.89.89 0 0 0 1.618-.738z" fill="#003C71"/>
        <path d="M11.466 32H6.292a.889.889 0 1 1 0-1.778h5.174a.889.889 0 1 1 0 1.778zm14.222 0h-5.174a.888.888 0 1 1 0-1.778h5.174a.888.888 0 1 1 0 1.778z" fill="#003C71"/>
        <path d="M18.92 26.506a2.47 2.47 0 0 1-2.471 2.47h-.989a2.47 2.47 0 1 1 0-4.94h.989a2.47 2.47 0 0 1 2.47 2.47z" fill="#26BED6"/>
        <path opacity=".5" d="M18.868 26.012a2.47 2.47 0 0 0-2.42-1.977h-.989a2.47 2.47 0 0 0-2.42 1.977h5.83z" fill="#fff"/>
        <path d="M9.793 23.58a2.47 2.47 0 0 1-2.47 2.47h-.989a2.47 2.47 0 1 1 0-4.94h.988a2.47 2.47 0 0 1 2.47 2.47z" fill="#9FC43A"/>
        <path opacity=".5" d="M9.742 23.085a2.47 2.47 0 0 0-2.42-1.977h-.988a2.47 2.47 0 0 0-2.42 1.977h5.828z" fill="#fff"/>
        <path d="M31.09 15.674a2.47 2.47 0 0 1-2.47 2.47h-.988a2.47 2.47 0 1 1 0-4.94h.988a2.469 2.469 0 0 1 2.47 2.47z" fill="#26BED6"/>
        <path opacity=".5" d="M31.04 15.18a2.47 2.47 0 0 0-2.42-1.977h-.988a2.47 2.47 0 0 0-2.42 1.977h5.829z" fill="#fff"/>
        <path d="M28.128 7.01a2.47 2.47 0 0 1-2.47 2.47h-.989a2.47 2.47 0 1 1 0-4.94h.989a2.47 2.47 0 0 1 2.47 2.47z" fill="#9FC43A"/>
        <path opacity=".5" d="M28.078 6.516a2.47 2.47 0 0 0-2.42-1.976h-.989a2.47 2.47 0 0 0-2.42 1.976h5.83z" fill="#fff"/>
        <path d="M28.128 23.58a2.47 2.47 0 0 1-2.47 2.47h-.989a2.47 2.47 0 1 1 0-4.94h.989a2.47 2.47 0 0 1 2.47 2.47z" fill="#9FC43A"/>
        <path opacity=".5" d="M28.078 23.085a2.47 2.47 0 0 0-2.42-1.977h-.989a2.47 2.47 0 0 0-2.42 1.977h5.83z" fill="#fff"/>
        <path d="M9.793 7.01a2.47 2.47 0 0 1-2.47 2.47h-.989a2.47 2.47 0 1 1 0-4.94h.988a2.47 2.47 0 0 1 2.47 2.47z" fill="#9FC43A"/>
        <path opacity=".5" d="M9.742 6.516a2.47 2.47 0 0 0-2.42-1.976h-.988a2.47 2.47 0 0 0-2.42 1.976h5.828z" fill="#fff"/>
        <path d="M18.92 2.556a2.47 2.47 0 0 1-2.471 2.47h-.989a2.47 2.47 0 1 1 0-4.94h.989a2.47 2.47 0 0 1 2.47 2.47z" fill="#26BED6"/>
        <path opacity=".5" d="M18.868 2.062a2.47 2.47 0 0 0-2.42-1.977h-.989a2.47 2.47 0 0 0-2.42 1.977h5.83z" fill="#fff"/>
        <path d="M6.828 15.674a2.47 2.47 0 0 1-2.47 2.47h-.99a2.47 2.47 0 1 1 0-4.94h.99a2.47 2.47 0 0 1 2.47 2.47z" fill="#26BED6"/>
        <path opacity=".5" d="M6.778 15.18a2.47 2.47 0 0 0-2.42-1.977h-.989A2.47 2.47 0 0 0 .948 15.18h5.83z" fill="#fff"/>
        <path d="M13.29 14.086a2.703 2.703 0 1 1 5.407 0 2.703 2.703 0 0 1-5.406 0z" fill="#26BED6"/>
    </g>
    <defs>
        <clipPath id="d53vi26jaa">
            <path fill="#fff" d="M0 0h32v32H0z"/>
        </clipPath>
    </defs>
</svg>
