<svg width="296" height="170" viewBox="0 0 296 170" fill="none" xmlns="http://www.w3.org/2000/svg">
    <path d="M129.412 102.85c-2.949-.857-5.048.049-6.525 1.99l5.263 5.311 1.262-7.301zM122.45 146.778l4.02-1.232s2.339-5.403 4.549-12.384l-6.359.82-2.21 12.796zM120.234 131.998v15.458l1.551-.474 2.266-13.099-3.817-1.885zM126.642 118.887l1.379-7.985-5.497-5.551c-1.114 1.701-1.835 4.042-2.29 6.648v2.076l6.408 4.812zM124.771 133.347l6.451-.831a114.606 114.606 0 0 0 1.847-6.605l-7.184.986-1.114 6.45zM126.525 119.565l-6.291-4.719v8.403l5.152 2.89 1.139-6.574zM134.214 108.093c-.708-2.403-2.032-4.196-4.211-5.04l-1.256 7.252 5.467-2.212zM127.239 119.042l7.381-1.553c.363-3.272.357-6.315-.253-8.792l-5.749 2.323-1.379 8.022zM114.552 140.359l5.066-4.467v-9.143l-6.919 5.964 1.853 7.646zM125.996 126.256l7.227-.992c.566-2.397 1.034-4.818 1.329-7.141l-7.418 1.565-1.138 6.568zM125.276 126.78l-5.042-2.822v7.356l3.927 1.935 1.115-6.469zM110.279 125.362l-14.38-.887a77.326 77.326 0 0 0 2.278 8.398l13.789-.561-1.687-6.95zM108.008 115.992l-13.519-1.83c.179 3.117.616 6.389 1.28 9.685l14.357.887-2.118-8.742zM102.535 93.46c-3.83.937-6.2 4.504-7.332 9.519l10.336 2.847-3.004-12.366zM108.42 115.098l9.671-10.079c-.831-2.397-1.914-4.609-3.305-6.451l-8.49 7.8 2.124 8.73zM112.114 132.923l-13.734.554a68.05 68.05 0 0 0 3.127 7.634l12.478-.481-1.871-7.707zM101.802 141.714c1.81 3.623 3.903 6.876 6.236 9.476l7.923-2.428-1.828-7.522-12.331.474zM112.532 132.041l7.086-6.105v-8.244l-8.748 7.486 1.662 6.863zM110.704 124.506l8.914-7.628v-6.019a41.693 41.693 0 0 0-1.305-5.188l-9.727 10.135 2.118 8.7zM114.718 141.036l1.834 7.554 3.066-.943v-10.936l-4.9 4.325zM114.41 98.081c-2.056-2.52-4.746-4.276-8.274-4.762-1.077-.148-2.074-.136-2.991.018l2.998 12.347 8.267-7.603zM105.705 106.51l-10.625-2.927c-.591 2.933-.788 6.327-.616 9.956l13.39 1.812-2.149-8.841z" fill="#26639A"/>
    <path d="m114.496 141.227-.363.019 1.828 7.522.591-.178-1.834-7.554-.222.191zM105.878 105.918l.258-.24-2.998-12.347a9.53 9.53 0 0 0-.603.123l2.998 12.366.345.098zM114.552 140.359l-1.853-7.646-.228.197-.357.013 1.871 7.707.265-.006.302-.265zM112.532 132.041l-1.662-6.863-.24.209-.351-.024 1.687 6.949.271-.012.295-.259zM108.42 115.098l-2.117-8.736-.259.24-.338-.092 2.142 8.841.295.037.277-.29zM110.704 124.506l-2.111-8.699-.222.234-.363-.049 2.117 8.742.296.019.283-.247zM126.525 119.565l-1.139 6.574.296.16.314-.043 1.132-6.562-.338.068-.265-.197zM125.275 126.78l-1.114 6.469.283.142.327-.044 1.114-6.45-.326.043-.284-.16zM128.427 110.428l.321-.129 1.255-7.252a7.673 7.673 0 0 0-.566-.197c-.006 0-.012-.006-.025-.006l-1.262 7.301.277.283zM124.339 134.025l-.289-.142-2.265 13.099.665-.204 2.21-12.796-.321.043zM128.021 110.896l-1.379 7.991.289.216.308-.062 1.385-8.028-.344.142-.259-.259zM105.539 105.826l-10.335-2.847c-.044.197-.087.401-.13.604l10.625 2.927-.16-.684zM106.302 106.362l8.49-7.8c-.124-.167-.253-.327-.382-.487l-8.274 7.597.166.69z" fill="#72A7D5"/>
    <path d="m106.302 106.362-.166-.684-.258.24-.339-.092.166.683.339.093.258-.24zM107.848 115.351l-13.39-1.812c.013.21.019.419.031.629l13.519 1.83-.16-.647zM108.592 115.807l9.727-10.135-.222-.659-9.671 10.079.166.715z" fill="#72A7D5"/>
    <path d="m108.593 115.806-.173-.708-.277.289-.295-.037.16.641.363.05.222-.235zM110.87 125.178l8.748-7.486v-.813l-8.914 7.627.166.672zM110.125 124.734l-14.356-.887.13.622 14.38.887-.154-.622z" fill="#72A7D5"/>
    <path d="m110.87 125.178-.166-.672-.283.247-.296-.019.154.629.351.024.24-.209zM119.79 131.777l.271-.555.173.086v-7.356l-.456-.259.302-.536.16.086v-8.403l-.493-.37.37-.493.123.093v-2.077c-.074.438-.148.881-.203 1.331a48.213 48.213 0 0 0-.413-2.471v6.02l.105-.093.4.469-.511.437v8.25l.105-.093.4.469-.511.437v9.137l.104-.092.407.462-.511.449v10.936l.615-.191v-15.458l-.437-.215z" fill="#72A7D5"/>
    <path d="m120.129 117.255-.4-.469-.111.093v.813l.511-.437zM128.747 110.298l-.123.715 5.75-2.323c-.05-.203-.105-.406-.16-.597l-5.467 2.205zM128.15 110.151l-5.263-5.311a8.56 8.56 0 0 0-.364.511l5.498 5.551.129-.751z" fill="#72A7D5"/>
    <path d="m128.15 110.151-.129.745.259.259.344-.142.123-.714-.32.129-.277-.277zM127.128 119.694l7.418-1.565.074-.647-7.381 1.553-.111.659zM126.642 118.888l-6.408-4.812v.77l6.291 4.719.117-.677z" fill="#72A7D5"/>
    <path d="m126.642 118.887-.117.678.265.197.338-.068.111-.653-.308.062-.289-.216zM120.111 113.983l-.37.493.493.37v-.771l-.123-.092zM125.386 126.139l-5.152-2.89v.709l5.042 2.822.11-.641zM125.885 126.897l7.184-.986c.055-.216.104-.431.154-.641l-7.227.992-.111.635z" fill="#72A7D5"/>
    <path d="m125.386 126.139-.111.64.284.161.326-.044.111-.64-.314.043-.296-.16zM120.079 123.163l-.301.536.455.259v-.708l-.154-.087zM124.66 133.982l6.359-.82.203-.647-6.452.832-.11.635zM120.234 131.314v.684l3.817 1.886.11-.635-3.927-1.935z" fill="#72A7D5"/>
    <path d="m124.161 133.249-.111.634.29.142.32-.043.111-.635-.327.043-.283-.141zM120.068 131.228l-.277.548.443.222v-.684l-.166-.086zM111.966 132.312l-13.79.561c.069.203.136.406.204.61l13.734-.555-.148-.616zM112.698 132.713l6.92-5.964v-.813l-7.086 6.105.166.672z" fill="#72A7D5"/>
    <path d="m112.698 132.713-.166-.672-.295.259-.271.012.148.61.357-.012.227-.197zM120.129 126.311l-.4-.462-.111.087v.813l.511-.438zM114.718 141.036l4.9-4.325v-.819l-5.066 4.467.166.677zM113.985 140.63l-12.478.48c.098.204.197.407.295.604l12.331-.474-.148-.61z" fill="#72A7D5"/>
    <path d="m114.25 140.624-.265.006.148.616.363-.019.222-.191-.166-.677-.302.265zM120.129 136.262l-.406-.463-.105.093v.819l.511-.449z" fill="#72A7D5"/>
    <path d="M161.541 163.08s-4.334-29.314-30.583-33.818c-26.25-4.504-23.073-41.618-58.938-40.146-35.865 1.479-28.472 36.006-42.747 43.763-14.264 7.757-20.888 30.201-20.888 30.201h153.156z" fill="#5AA0DE"/>
    <path d="M157.059 163.081s0-23.77 28.145-32.137c28.145-8.372 21.447-51.968 56.629-45.26 35.182 6.71 18.093 51.311 31.833 61.033 13.74 9.728 10.724 16.364 10.724 16.364H157.059z" fill="#5AA0DE"/>
    <path d="m19.183 163.21 1.065.019L.96 94.039c-6.02 2.422 18.222 69.171 18.222 69.171zM26.17 163.333l18.388-52.61c-4.765-.234-10.927 20.338-13.796 31.003-.966 3.851-1.6 6.241-1.6 6.241s.603-2.514 1.6-6.241c3.86-15.409 12.97-54.316 7.523-58.007l-14.35 79.571 2.235.043zM21.657 163.253 20.02 69.265c-6.643 4.498-.837 81.61-.837 81.61s-11.297-55.4-17.6-56.879l19.305 69.251.77.006z" fill="#C2D48F"/>
    <path d="M30.756 141.733a232.159 232.159 0 0 0-1.6 6.241s.64-2.391 1.6-6.241zM23.307 163.284 37.7 83.492c-7.529-1.313-14.411 67.384-14.411 67.384s4.986-81.82-2.641-81.82c-.006 0-.012.006-.019.006l1.644 94.21 1.034.012zM28.86 163.383s22.882-48.963 16.43-52.45c-.043-.024-.086-.037-.135-.055l-18.34 52.474 2.045.031z" fill="#C2D48F"/>
    <path d="M20.888 163.241 1.582 93.991c-.203-.05-.4-.044-.59.024l-.037.018 19.286 69.19.647.018zM22.273 163.266l-1.643-94.21a1.086 1.086 0 0 0-.61.21l1.637 93.987.616.013zM23.929 163.297l14.35-79.571a1.651 1.651 0 0 0-.327-.173 1.312 1.312 0 0 0-.258-.061L23.3 163.284l.628.013zM26.816 163.346l18.339-52.474a1.745 1.745 0 0 0-.603-.148l-18.388 52.61.652.012z" fill="#fff"/>
    <path d="m269.437 163.284 14.392-79.792c-7.528-1.306-14.411 67.384-14.411 67.384s4.987-81.82-2.641-81.82c-.006 0-.012.006-.018.006l1.643 94.21 1.035.012zM272.299 163.333l18.388-52.61c-4.765-.234-10.927 20.338-13.796 31.003-.966 3.851-1.6 6.241-1.6 6.241s.603-2.514 1.6-6.241c3.86-15.409 12.971-54.316 7.523-58.007l-14.35 79.571 2.235.043z" fill="#C2D48F"/>
    <path d="M276.886 141.733c-1.004 3.721-1.601 6.241-1.601 6.241s.64-2.391 1.601-6.241zM274.99 163.383s22.881-48.963 16.43-52.45c-.043-.024-.092-.037-.135-.055l-18.339 52.474 2.044.031zM265.312 163.21l1.065.019-19.286-69.19c-6.021 2.422 18.221 69.171 18.221 69.171zM267.787 163.253l-1.637-93.988c-6.643 4.498-.838 81.61-.838 81.61s-11.296-55.4-17.6-56.879l19.306 69.251.769.006z" fill="#C2D48F"/>
    <path d="m267.018 163.241-19.306-69.25c-.203-.05-.4-.044-.591.024a1.063 1.063 0 0 1-.037.018l19.287 69.19.647.018zM268.403 163.266l-1.644-94.21a1.087 1.087 0 0 0-.61.21l1.638 93.987.616.013zM270.065 163.297l14.35-79.571a1.665 1.665 0 0 0-.327-.173 1.307 1.307 0 0 0-.258-.061l-14.393 79.792.628.013zM272.946 163.346l18.339-52.474a1.744 1.744 0 0 0-.604-.148l-18.388 52.61.653.012z" fill="#fff"/>
    <path d="m41.898 99.997 14.873 62.708 1.188-.013 3.645-18.397c.184-7.436-1.04-28.951-19.706-44.298zM41.646 162.834l6.58-.055-27.283-30.794c6.84 24.318 20.703 30.849 20.703 30.849zM21.097 131.228l27.948 31.545 1.736-.013-8.636-17.707c-3.239-4.99-10.115-13.03-21.048-13.825zM42.28 143.92l9.185 18.828 4.672-.043-14.762-62.24c-6.82 17.11-2.155 34.977.905 43.455zM68.874 162.6s20.999-8.126 21.368-40.152l-27.758 40.208 6.39-.056zM62.127 144.807l-3.546 17.879 3.14-.024 28.286-40.972c-19.982 8.367-26.107 18.718-27.88 23.117z" fill="#2878BF"/>
    <path d="M20.722 131.191c.074.271.154.524.227.789l27.284 30.793.819-.006-27.949-31.545c-.129-.006-.252-.019-.381-.031zM41.646 99.788c-.093.228-.185.45-.271.677l14.762 62.246.634-.006-14.873-62.708c-.086-.067-.166-.141-.252-.21zM90.014 121.69l-28.287 40.972.751-.006 27.758-40.208c.006-.283.006-.567.006-.856-.074.031-.148.061-.228.098z" fill="#94BCDF"/>
    <path d="M44.14 148.534c.129.284.203.438.203.438s-.062-.16-.204-.438z" fill="#2878BF"/>
    <path d="M44.14 148.534c.135.277.203.438.203.438s-.068-.154-.204-.438a33.664 33.664 0 0 0-2-3.487l8.637 17.707.683-.006-9.185-18.828a60.955 60.955 0 0 0 1.865 4.614zM61.45 146.939s.117-.961.154-2.649l-3.645 18.397.628-.006 3.546-17.88c-.548 1.349-.683 2.138-.683 2.138zM241.963 149.237l3.275 14.429h1.619l9.517-64.753c-16.683 16.832-15.87 39.838-14.411 50.324zM219.475 119.608l24.365 44.064h.763l-3.613-15.92c-2.857-8.263-9.173-21.595-21.515-28.144zM239.494 163.672h3.644l-24.175-43.713c.247 33.843 20.531 43.713 20.531 43.713zM258.559 163.672s16.597-7.744 24.212-33.541l-26.927 33.541h2.715zM258.941 150.167l-5.042 13.505h1.151l27.585-34.36c-13.112 4.097-20.327 14.386-23.694 20.855zM256.891 99.64l-9.407 64.032h5.762l5.048-13.523c2.777-9.975 7.006-31.545-1.403-50.509z" fill="#2878BF"/>
    <path d="M218.958 119.337c0 .209.006.412.006.622l24.174 43.713h.702l-24.365-44.064a19.803 19.803 0 0 0-.517-.271zM256.509 98.783c-.043.043-.086.093-.129.136l-9.517 64.753h.622l9.412-64.026a86.28 86.28 0 0 0-.388-.863zM282.635 129.311l-27.585 34.361h.788l26.927-33.541c.092-.321.19-.629.283-.955-.136.037-.271.086-.413.135zM242.664 153.34c.24.968.345 1.522.345 1.522s-.141-.536-.345-1.522a67.76 67.76 0 0 0-1.668-5.588l3.614 15.92h.628l-3.275-14.429c.24 1.738.504 3.13.701 4.097z" fill="#94BCDF"/>
    <path d="M242.664 153.34c.203.986.345 1.522.345 1.522s-.105-.554-.345-1.522zM256.897 154.658c-.246.709-.388 1.085-.388 1.085s.123-.401.388-1.085c.326-.948.831-2.495 1.391-4.509l-5.048 13.523h.659l5.042-13.505a43.959 43.959 0 0 0-2.044 4.491z" fill="#94BCDF"/>
    <path d="M256.897 154.658c-.265.684-.388 1.085-.388 1.085s.148-.382.388-1.085z" fill="#94BCDF"/>
    <path d="M148.114 145.577C44.034 145.577.229 162.773.229 162.773S44.035 170 148.114 170C252.194 170 296 162.773 296 162.773s-43.812-17.196-147.886-17.196z" fill="#BACFE2"/>
    <path d="m166.598 60.729-.054.431-2.614 21.364h50.452l-4.851-21.091-8.002-25.88-18.558 3.308-.389.066-.377-.08-24.543-5.101 8.795 26.564.141.419z" fill="#E0EEFB"/>
    <path d="m216.881 84.496-5.415-23.568-8.54-27.627-20.304 3.62-27.923-5.812 9.87 29.819-2.883 23.569h55.195zm-34.675-45.649.383.08.383-.066 18.557-3.308 8.002 25.88 4.851 21.09H163.93l2.614-21.356.054-.432-.135-.418-8.795-26.571 24.538 5.101z" fill="#fff"/>
    <path d="M165.948 65.4s11.048-8.737 22.873-2.684c11.825 6.04 14.755 1.828 20.016 5.982 7.052 5.568.47 13.934.47 13.934h-45.998l2.639-17.232z" fill="#5AA0DE"/>
    <path d="M186.427 60.006c-.046-.289-.27-.486-.27-.486s-.049.002-.123.03c-.014-.013-.029-.028-.044-.04a2.45 2.45 0 0 0-.299-.223c.082-.172.053-.462-.106-.545-.05-.026-.113-.018-.175.013l-.001-.033c-.008-.175-.126-.196-.238-.084-.058.058-.054.163-.032.264-.219-.169-.493.132-.279.347-.24-.162-.52.162-.247.373-.092-.02-.233.028-.281.123-.053.11.044.216.119.282-.074.01-.163.019-.222.061l-.236-2.821a.777.777 0 0 0 .913-.838l-8.37-1.506-.027-.321c.641.306.865.004 1.304-.485.311-.345.766-.986 1.297-.618-.576-.518-.715-.384-1.361-.147-.667.244-.81.269-1.368-.277v-.005l-.128.01.155 1.851-8.012 2.738a.794.794 0 0 0 .84.733.747.747 0 0 0 .321-.1l.168 2h-.002l-.074.003c-.034 0-.064.003-.094.005l-.024.002a.919.919 0 0 0-.07.007h-.01l-.07.01c-.005 0-.009 0-.014.002a3.535 3.535 0 0 0-.056.01.602.602 0 0 0-.177.053.59.59 0 0 0-.221.136 38.544 38.544 0 0 1-.693-.77s-.088.035-.198.196c-.098.142-.072.252-.072.252l.852.489a.796.796 0 0 0-.059.334c.008.494.338.626.338.626l-.237.495-.03-.013-.163.294.654.322.116-.335-.05-.022.16-.491s.138.035.331.034l.242 2.887-1.1.082.084 1.007 16.51-1.243-.084-1.007-.977.074-.161-1.919c.166-.07.267-.158.267-.158l.309.635-.086.074.202.312.664-.488-.229-.376-.129.111-.331-.483s-.014-.039.033-.127c.057-.104.024-.384.011-.652-.01-.269.188-.386.188-.386s.112.075.278.12a.71.71 0 0 0 .013.093s.379.186.597.045c.22-.129.309-.248.264-.536zm-15.995 4.805-.243-2.902c.269-.068.443-.218.443-.218l.308.635-.085.074.202.311.663-.487-.229-.377-.129.112-.331-.483s-.015-.039.033-.127c.057-.104.024-.384.012-.652a.432.432 0 0 1 .187-.386s.113.075.279.12a.874.874 0 0 0 .012.093s.379.186.597.045c.22-.14.308-.258.262-.548-.046-.289-.271-.486-.271-.486s-.048.002-.122.03c-.015-.013-.029-.028-.044-.04a2.439 2.439 0 0 0-.299-.223c.082-.172.054-.462-.107-.545-.049-.026-.112-.018-.174.013l-.001-.033c-.008-.175-.126-.196-.239-.084-.057.058-.054.163-.032.264-.218-.169-.492.132-.278.347-.24-.162-.52.162-.248.373-.091-.02-.232.028-.28.123-.053.11.044.216.118.282-.118.017-.276.027-.28.185 0 .036.006.065.016.088a.638.638 0 0 0-.071-.005l-.024-.001c-.009-.001-.015 0-.024-.002h-.002l-.194-2.327.022-.041a.78.78 0 0 0 .714.363.763.763 0 0 0 .645-.465.783.783 0 0 0 .715.362.763.763 0 0 0 .645-.465.783.783 0 0 0 .715.363.763.763 0 0 0 .645-.465.783.783 0 0 0 .715.362.756.756 0 0 0 .348-.117l1.321 6.484-5.911.445.001.005zm13.483-4.521H183.8c-.015 0-.032 0-.047.002a.085.085 0 0 1-.022 0l-.074.002a1.71 1.71 0 0 0-.094.005l-.024.002a.919.919 0 0 0-.07.007h-.01l-.07.01c-.005 0-.009 0-.014.002a3.535 3.535 0 0 0-.051.01h-.005a.592.592 0 0 0-.177.053.582.582 0 0 0-.221.136 35.52 35.52 0 0 1-.693-.77s-.089.035-.199.195c-.097.143-.071.253-.071.253l.851.489a.812.812 0 0 0-.058.334c.008.494.338.626.338.626l-.237.495-.03-.013-.163.294.654.322.115-.335-.049-.022.16-.491a1.526 1.526 0 0 0 .482.027c.01 0 .019-.003.029-.003l.155 1.854-5.765.434.188-6.518a.763.763 0 0 0 .773-.463.783.783 0 0 0 .715.363.763.763 0 0 0 .645-.465.783.783 0 0 0 .715.362.763.763 0 0 0 .645-.465.783.783 0 0 0 .715.363.763.763 0 0 0 .645-.465c.045.069.1.13.164.183l.267 3.187h.003zM169.083 65.926l.081.964 16.51-1.246-.081-.963a.778.778 0 0 1-.708.85.778.778 0 0 1-.714-.363.768.768 0 0 1-.646.465.78.78 0 0 1-.714-.362.767.767 0 0 1-1.36.103.766.766 0 0 1-1.36.102.766.766 0 0 1-1.36.103.766.766 0 0 1-1.359.102.768.768 0 0 1-1.36.103.768.768 0 0 1-1.36.102.768.768 0 0 1-.646.466.78.78 0 0 1-.714-.363.767.767 0 0 1-1.36.103.766.766 0 0 1-1.36.102.766.766 0 0 1-.645.465.796.796 0 0 1-.844-.733z" fill="#26639A"/>
    <path fill-rule="evenodd" clip-rule="evenodd" d="m192.895 41.093.224-.026c-.068-.29-.595-.467-1.217-.41.002-.013.004-.024.003-.038a.1.1 0 0 0-.198.024.105.105 0 0 0 .012.036c-.602.098-1.054.387-1.054.68l.192-.023.015.12a8.614 8.614 0 0 0-1.407.458c-.226-.112-.57-.165-.952-.13a.099.099 0 0 0-.107-.124.099.099 0 0 0-.087.11.105.105 0 0 0 .011.036c-.602.098-1.054.388-1.053.68l.192-.023.069.584a8.761 8.761 0 0 0-1.263 1.202 2.46 2.46 0 0 0-.357.007.099.099 0 0 0-.107-.124.1.1 0 0 0-.088.11.133.133 0 0 0 .012.037c-.602.098-1.054.387-1.054.68l.193-.023.146 1.233-.024.051-.004.01-.017.035-.042.005.008.068a8.664 8.664 0 0 0-.555 1.65c-.45.13-.762.37-.762.614l.192-.023.158 1.322-.098.012.039.327.07-.009.011.095a.57.57 0 0 0 .215.383c.007.07.014.141.023.212.031.266.075.529.129.786-.219.127-.354.286-.354.445l.193-.023.157 1.323-.098.012.039.326.07-.008.011.095a.574.574 0 0 0 .638.501l.376-.045c.219.367.465.715.733 1.042l.113.947-.098.012.039.326.07-.008.011.095a.574.574 0 0 0 .638.501l.948-.113a.572.572 0 0 0 .166-.045c.193.13.391.252.594.365l-1.842 3.488.251 2.117-.341.04.048.41-1.027.123.065.546 17.584-2.093-.065-.546-1.026.122-.049-.41-.48.057-.251-2.117-.094.011-2.617-2.966.131-.125c.12.118.29.182.47.16l.949-.112a.574.574 0 0 0 .503-.637l-.012-.095.059-.007-.039-.327-.081.01-.153-1.288.019-.037.2-.024a.347.347 0 0 0-.105-.17 8.66 8.66 0 0 0 .361-.887l.495-.059a.574.574 0 0 0 .503-.637l-.011-.095.058-.006-.038-.327-.082.01-.157-1.323.223-.027c-.041-.17-.239-.301-.522-.37a8.61 8.61 0 0 0-.077-1.128.574.574 0 0 0 .208-.513l-.011-.095.058-.007-.038-.327-.082.01-.157-1.323.223-.026c-.062-.26-.492-.43-1.03-.42a8.592 8.592 0 0 0-1.12-1.706l-.133-1.12.224-.026c-.07-.29-.595-.467-1.218-.41.003-.012.004-.024.003-.037a.1.1 0 0 0-.198.023.106.106 0 0 0 .012.036 2.422 2.422 0 0 0-.279.062 8.732 8.732 0 0 0-1.677-.944l-.058-.487.223-.027c-.07-.29-.595-.467-1.218-.41a.099.099 0 0 0-.107-.124.099.099 0 0 0-.087.11.105.105 0 0 0 .011.037c-.34.055-.632.171-.822.315a8.6 8.6 0 0 0-1.275-.102l-.016-.132zm-2.943 21.549-.479.057-.155-1.3.48-.056.154 1.299zm.137-.017.445-.053-.154-1.298-.445.053.154 1.298zm1.026-.122-.444.053-.155-1.299.445-.053.154 1.3zm.137-.016.445-.053-.155-1.299-.444.053.154 1.299zm1.026-.122-.444.053-.155-1.3.445-.052.154 1.299zm.137-.016.445-.053-.155-1.3-.444.054.154 1.299zm1.026-.123-.444.053-.155-1.299.445-.052.154 1.298zm.137-.016.445-.053-.155-1.299-.444.053.154 1.3zm1.026-.122-.445.053-.154-1.299.445-.053.154 1.299zm.137-.016.444-.053-.154-1.3-.444.054.154 1.299zm1.027-.123-.446.053-.154-1.298.446-.053.154 1.298zm.137-.016.444-.053-.154-1.299-.444.053.154 1.3zm1.026-.122-.445.053-.154-1.299.445-.053.154 1.299zm.137-.016.444-.053-.154-1.3-.445.054.155 1.299zm1.026-.122-.445.052-.154-1.298.444-.053.155 1.299zm.137-.017.444-.053-.154-1.299-.445.053.155 1.3zm1.026-.122-.445.053-.154-1.299.444-.053.155 1.3zm-.179-1.503-.04-.341-.939-1.478a.574.574 0 0 1-.46.345l-.949.112a.574.574 0 0 1-.638-.5l-.011-.095-.07.008-.011-.092c-.33.126-.67.233-1.019.32l.066.557.081-.01.039.327-.058.007.011.094a.574.574 0 0 1-.503.638l-.947.112a.573.573 0 0 1-.638-.501l-.011-.095-.07.009-.039-.327.097-.012-.064-.545a8.629 8.629 0 0 1-1.487-.118l.021.175-.059.007.011.095a.573.573 0 0 1-.502.637l-.949.113a.574.574 0 0 1-.267-.031l-.436 1.276.057.477 9.784-1.164zm-5.255-9.398 1.38 1.564.253-.528-1.633-1.036zm1.528 1.732.218.247.32-.668-.259-.164-.279.585zm.379.43 2.557 2.899c.111-.104.219-.21.323-.32l-.002-.016.019-.002.071-.076-.149-1.256-.192.023c-.001-.133.092-.265.25-.378l-2.528-1.605-.349.731zm2.694 3.054.068.077c.077-.073.154-.147.228-.222l-.003-.027-.07.008-.005-.047a9.23 9.23 0 0 1-.218.211zm-7.763.7c.388.048.674.198.724.406l-.223.027.082.696a7.91 7.91 0 0 0 1.575.163l-.007-.054-.192.023c0-.283.421-.562.991-.67l-.396-3.336-1.756.408-.798 2.338zm.883-2.586 1.644-.383-.037-.315-1.486.345-.121.353zm-.564-.994-.154.29-.538-.648.215-.215.477.573zm.764.41 1.382-.321-.264-2.218a.948.948 0 0 1-.241-.03l-.877 2.57zm.412-2.635-1.071 2.027-.434-.523 1.505-1.504zm-1.443 2.73-1.766 3.342a8.062 8.062 0 0 1-.602-.376l-.004-.036.058-.007-.038-.327-.082.01-.155-1.305.021-.02.2-.025a.305.305 0 0 0-.058-.118l1.842-1.842.584.703zm-1.862 3.525a8.158 8.158 0 0 1-.508-.311.684.684 0 0 1-.032.101c.16.106.324.206.492.3l.048-.09zm.671-14.658a8.198 8.198 0 0 1 1.399-.472l.012.103a8.112 8.112 0 0 0-1.398.475l-.013-.106zm-1.972 1.638.017.145.07-.008.011.095a.574.574 0 0 0 .638.501l.949-.113a.588.588 0 0 0 .136-.033l1.282 2.107-1.562.788-1.912-1.218-.028-.237-.081.01-.157-1.323.223-.026a.348.348 0 0 0-.109-.175c.166-.179.341-.35.523-.513zm-.405 2.488 1.773 1.129.006 1.743-2.993-.364-.076-.639.223-.026c-.058-.243-.436-.407-.922-.42a7.98 7.98 0 0 1 .237-.75c.091.04.193.057.298.044l.949-.112a.574.574 0 0 0 .505-.605zm1.996 1.271.004 1.628.288.035-.005-1.48-.287-.183zm-3.185 1.448 2.966.361-.357 1.712-2.301.829-.024-.201.224-.027c-.069-.29-.595-.467-1.218-.41a.099.099 0 0 0-.107-.124.1.1 0 0 0-.088.11.787.787 0 0 0 .003.013.093.093 0 0 0 .009.023l-.008.002a8.291 8.291 0 0 1-.107-.684l.634-.075a.574.574 0 0 0 .503-.638l-.011-.094.058-.007-.038-.327-.082.01-.056-.473zm.333 3.113.109.91.081-.01.039.327-.059.007.011.095a.572.572 0 0 1-.303.575c.067.104.137.206.209.307.162-.074.356-.133.569-.167a.107.107 0 0 1-.012-.037.1.1 0 0 1 .198-.023c.001.013-.001.025-.003.037.409-.037.777.027 1.001.157l1.848-1.848-1.442-1.139-2.246.81zm7.132 1.485.381 3.208a.1.1 0 0 1 .058.078l-.001.022-.001.007-.001.008c.622-.056 1.148.12 1.217.41l-.224.027.005.041c.383-.1.754-.226 1.111-.378l-.093-.786-.193.023c0-.238.298-.474.733-.606l-1.292-2.087-1.7.033zm1.563-.253-1.589.03-.038-.315 1.434-.028.193.313zm4.426-.164a2.197 2.197 0 0 0-.602.184l-2.624-1.665 1.113-1.45 2.525.287.132 1.103-.098.012.039.326.07-.008.011.095c.024.202.15.367.321.449a7.774 7.774 0 0 1-.278.643 2.42 2.42 0 0 0-.426.002c.003-.012.005-.024.003-.037a.099.099 0 0 0-.11-.087.099.099 0 0 0-.087.11.105.105 0 0 0 .011.036zm-2.374-2.96-1.043 1.358-.259-.165.947-1.234.355.04zm-3.334-.096 1.856 1.178.882-1.15-2.653-.302a.961.961 0 0 1-.085.274zm-.634.505a.937.937 0 0 0 .193-.068l1.403 2.266-1.331.026-.265-2.224zm.608 6.867v.001l-.811.097v-.002l.811-.096zm-3.174-5.578 1.617-1.618a.977.977 0 0 1-.139-.239l-2.627.947 1.149.91zm-.367.367.221-.221-1.232-.973-.342.123 1.353 1.07zm1.79-2.423-2.576.928.281-1.344 2.283.279c.001.046.005.092.012.137zm1.87-.219 2.633.3-.595-1.23-2.065.766a.894.894 0 0 1 .027.164zm2.878.327.327.037-.71-1.463-.264.098.647 1.328zm.592.067 2.341.266c.035-.28.474-.55 1.052-.643a.106.106 0 0 1-.012-.037.1.1 0 0 1 .087-.11.098.098 0 0 1 .077.024 7.723 7.723 0 0 0-.054-.77l-.004-.03-.001-.015-.535.064a.574.574 0 0 1-.638-.502l-.011-.094-.07.008-.039-.327.098-.011-.06-.505-2.997 1.111.766 1.571zm2.496.284.036.004-.001-.008-.035.004zm-10.641.551-.308.111.332-1.596.279.034-.303 1.451zm2.813-1.353c.012-.055.028-.108.048-.159l-2.345-1.494.003 1.373 2.294.28zm.27-.486a.966.966 0 0 0-.123.145l-2.311-1.472 1.244-.628 1.19 1.956zm-1.298-2.133-1.339.676-.258-.164 1.46-.736.137.224zm.17-.119-.139-.23 1.314-1.051.037.309-1.212.972zm1.294 2.126-1.186-1.948 1.133-.907.326 2.744a.947.947 0 0 0-.273.11zm-1.548-2.544-1.273-2.091a.573.573 0 0 0 .19-.497l-.012-.095.059-.007-.039-.326-.081.01-.105-.881a7.905 7.905 0 0 1 1.398-.484l.057.48-.098.011.039.327.07-.008.011.094a.573.573 0 0 0 .638.501l.321-.038.223 1.881-1.398 1.123zm8.649.781-3.034 1.125-.421-1.692 1.504-1.56a.573.573 0 0 0 .637.497l.949-.113a.57.57 0 0 0 .332-.159c.16.235.308.479.443.73-.403.136-.674.361-.674.588l.192-.023.072.607zm-3.246 1.204-.392-1.58-.233.24.357 1.44.268-.1zm1.2-3.532-1.574 1.633-1.72-.384.747-2.331c.029 0 .058 0 .087-.004l.949-.113a.574.574 0 0 0 .503-.637l-.012-.095.059-.007-.032-.267c.274.138.54.291.796.46a.367.367 0 0 0-.081.217l.193-.023.157 1.323-.098.011.026.217zm-1.967 2.041.213-.22-1.607-.362-.081.252 1.475.33zm-1.538-.133 1.37.308-1.862 1.932a.941.941 0 0 0-.19-.112l.682-2.128zm-.342 2.383a.913.913 0 0 1 .118.179l2.066-.766-.332-1.335-1.852 1.922zm1.097-5.417a.575.575 0 0 1-.348-.461l-.011-.095-.07.009-.039-.327.098-.012-.11-.93a7.928 7.928 0 0 0-1.197-.111l.055.466.082-.01.038.327-.058.007.011.094a.574.574 0 0 1-.503.638l-.42.05.234 1.974 1.5.685.738-2.304zm-.807 2.518-1.4-.64.036.306 1.283.587.081-.253zm-.145.452-1.19-.545.316 2.657a.957.957 0 0 1 .192.018l.682-2.13zm-6.112-3.195-.014-.121a8.297 8.297 0 0 0-.846.806c.036.012.069.026.101.041.237-.257.491-.5.759-.726zm-2.393 3.368a.579.579 0 0 1-.075-.092c-.113.293-.21.592-.29.898.006.011.01.023.012.036.001.014-.001.025-.003.037l.08-.006c.076-.297.168-.588.276-.873zm-.475 3.795-.102.012.001.008.002.02.002.017c.027.227.063.45.108.671.032-.01.065-.018.099-.027a8.265 8.265 0 0 1-.105-.656l-.001-.013-.004-.032zm.233 1.221-.103.013.103-.012zm.986 2.23-.113.013c.084.133.17.262.261.39.026-.021.054-.04.083-.06a8.709 8.709 0 0 1-.231-.343zm5.309 3.628.013.107c.511.099 1.037.15 1.573.15l-.013-.103a8.107 8.107 0 0 1-1.573-.154zm3.609-.102.013.103c.383-.097.754-.22 1.112-.368l-.012-.106a8.104 8.104 0 0 1-1.113.371zm4.063-2.473.152-.018.001-.002-.152.019h-.001zm1.044-1.466.126-.015-.125.014-.001.001zm-.255.03-.029.003v.001l.029-.003v-.001zm.503-.51.102.025c.099-.21.19-.426.272-.645a.588.588 0 0 1-.11.001 8.46 8.46 0 0 1-.264.62zm.785-3.56h.103a8.246 8.246 0 0 0-.058-.895l-.002-.017-.002-.011-.002-.017-.102.012.002.013.001.006.003.026c.035.297.054.592.057.884zm-.935-3.71a2.39 2.39 0 0 1 .104-.023 8.161 8.161 0 0 0-.586-.957.535.535 0 0 1-.039.124c.191.273.365.558.521.855zm-2.706-2.993a1.24 1.24 0 0 1 .092-.062 8.327 8.327 0 0 0-1.17-.657l.015.12c.369.173.725.374 1.063.599zm-3.21-1.263-.012-.106a8.22 8.22 0 0 0-1.196-.101l.012.102c.405.006.805.041 1.196.105zm-8.414 4.47.001-.001.036.301h-.001l-.036-.3zm-.721 2.117.766-.092h.001l-.767.092zm15.082-1.796-.664.08v-.001l.664-.08zm-15.86 5.484.201-.024v.001l-.201.024zm.474-3.652-.018.002.018-.003v.001zm-.859.102.412-.05v.002l-.412.049v-.002zm12.767 9.146-.003-.02h.001l.003.02h-.001zm4.62-5.598-.004-.032v-.003l.005.035h-.001zm.125-5.632-.516.062v-.002l.515-.06h.001zM190.91 41.33v-.001l.859-.103v.001l-.859.103zm.705 1.256.006.046h-.001l-.006-.046h.001zm.703.365h-.001l-.04-.338h.001l.04.338zm-.109.013h-.001l-.04-.338h.001l.04.338zm.63-1.865-.83.1v-.001l.83-.1zm1.347 17.972-.062.007.04.337h-.001l-.04-.338.063-.007zm.047-.006h-.001l.04.338h.002l-.041-.338zm-.657.018-.006-.046h-.001l.006.046h.001zm1.218-1.532-.83.099v-.001l.83-.1v.002zm-.393 1.494-.059.007.059-.008v.001zm5.873-10.979h.001l.04.338h-.001l-.04-.338zm-.117-.092.006.046h-.002l-.006-.046h.002zm-14.988 2.233-.04-.338h-.001l.04.338h.001zm12.933-5.458-.005-.046h.001l.005.046h-.001zm-11.807 1.465h-.001l.04.338h.001l-.04-.338zm14.264 5.587-.006-.046h.002l.005.046h-.001zm-13.6 4.542h.001l.04.338h-.001l-.04-.338zm-.113-.046-.006-.046h.003l.005.046h-.002zm10.34 1.415.04.338h-.001l-.04-.338h.001zm.108-.013h.001l.04.338h-.001l-.04-.338zm-11.109-5.806-.831.1v-.002l.831-.099v.001zm2.048-8.132-.006-.047h.001l.006.047h-.001zm6.673-.842.006.047h-.001l-.006-.047h.001z" fill="#26639A"/>
    <path d="m189.287 87.1-4.421 69.322h4.474l11.625-58.052 6.833 58.052h4.194l.235-69.323h-22.94zM200.928 55.14a3.555 3.555 0 0 1-3.549-3.552v-5.92h7.098v5.92a3.555 3.555 0 0 1-3.549 3.551z" fill="#F4D8BD"/>
    <path d="m203.377 59.489 7.091 14.572c.478.986 1.38 1.7 2.449 1.935 2.381.539 4.649-1.404 4.376-3.833-.827-7.392-7.28-17.372-7.28-17.372l-6.636 4.698z" fill="#F3A9B8"/>
    <path d="M198.129 31.84s-5.27 1.002-5.27 9.517c0 8.516 4.648 8.265 7.955 6.14 3.306-2.133 4.853-7.392 2.586-12.272-2.275-4.888-5.271-3.385-5.271-3.385z" fill="#F4D8BD"/>
    <path d="M200.427 50.404s-7.993-.524-9.418 8.424c-1.16 7.301 1.304 10.223 1.099 16.393-.098 2.945-2.813 8.349-2.813 11.878h22.939s-.644-3.681-2.51-11.878c-.485-2.132.63-4.675 1.479-7.513 4.049-13.487-4.444-17.304-10.776-17.304zM197.879 40.196s-5.46.509-6.051-5.935c-.599-6.443 7.803-8.417 12.99-3.218 1.433-4.895 8.789-3.582 7.439 3.104 3.056 4.418-.205 5.609-1.911 5.609 0 6.922-4.451 9.426-8.266 8.235-3.814-1.207-4.201-7.795-4.201-7.795z" fill="#F79321"/>
    <path d="m191.502 57.205-7.358 13.262-16.118-2.514-.436 2.544s9.309 6.305 18.246 5.276c5.083-.585 9.731-10.252 11.788-15.176.673-1.62.182-3.527-1.18-4.54-1.65-1.224-3.924-.699-4.942 1.148zM197.879 40.196s1.881-.197 1.881 1.769c0 1.973-2.419 2.17-2.419 2.17l.538-3.939z" fill="#F4D8BD"/>
    <path d="M189.743 84.056s-4.315 8.66-4.315 22.814c6.006 2.884 14.325 2.133 14.325 2.133l1.167-7.514.645 7.605s7.507 1.791 14.014-1.966c.409-14.405-3.951-23.065-3.951-23.065s-8.182 2.854-21.885-.007zM184.07 157.219v-9.646h8.577l-1.714 12.006h-12.725c.008 0 1.29-2.36 5.862-2.36zM214.35 157.219v-9.646h-8.577l1.684 12.006h12.747s-1.281-2.36-5.854-2.36z" fill="#26639A"/>
    <path d="M202.05 53.44s-6.848 12.022-6.848 25.31c0 13.283 27.611 13.093 27.611 0 0-13.091-5.248-25.31-5.248-25.31H202.05z" fill="#26BED6"/>
    <path d="M199.646 58.707h18.063c2.586 0 4.694-2.118 4.694-4.698a4.709 4.709 0 0 0-4.694-4.698h-17.836a4.025 4.025 0 0 0-4.011 4.015v1.601c0 2.072 1.706 3.78 3.784 3.78z" fill="#65DAED"/>
    <path d="M195.907 71.033s-6.074 12.773 2.829 12.773c8.895 0 4.906-12.773 4.906-12.773h-7.735zM209.072 71.033s-5.475 12.773 4.285 12.773c9.759 0 11.549-.448 11.549-6.262 0-5.813-2.502-6.511-2.502-6.511h-13.332zM195.604 54.01c0 2.542 1.555 4.606 3.481 4.606 1.918 0 3.48-2.064 3.48-4.607 0-2.542-1.554-4.607-3.48-4.607-1.919 0-3.481 2.065-3.481 4.607zM204.537 49.31s4.262 5.093 0 9.404h2.169s4.497-4.736-.114-9.403M214.851 49.31s4.261 5.093 0 9.404h2.168s4.497-4.736-.113-9.403" fill="#26639A"/>
    <path d="M168.33 68.317s-.961-4.026-1.576-4.054c-.618-.02-.198 1.945-.198 1.945s-2.925-1.838-3.361-2.023c-.436-.185-.507.855.155 1.378-.981.438-.885 2.525 1.316 3.702 2.201 1.176 3.035 1.047 3.035 1.047l.629-1.995z" fill="#F4D8BD"/>
    <path fill-rule="evenodd" clip-rule="evenodd" d="m204.674 31.624.212.132.213.132h-.001l-.002.005-.013.021c-.011.02-.028.05-.048.09-.041.08-.097.196-.153.342a3.393 3.393 0 0 0-.237 1.138c-.009.443.084.927.382 1.398.299.47.814.944 1.678 1.345l.227.106-.105.227c-.392.84-.142 1.717.472 2.308.615.592 1.587.885 2.609.53l.164.472c-1.207.42-2.375.075-3.119-.641-.692-.665-1.026-1.662-.673-2.653-.811-.413-1.344-.904-1.675-1.426a2.964 2.964 0 0 1-.46-1.676c.012-.521.143-.981.27-1.309a4.06 4.06 0 0 1 .234-.498l.017-.03.005-.009.002-.002.001-.001zm.425.264z" fill="#003C71"/>
    <path d="m104.684 12.268 47.418-7.387-41.687 14.962-5.483-6.593-.248-.982z" fill="#2878BF"/>
    <path d="m109.685 18.1 42.416-13.22-25.583 25.904-16.833-12.685z" fill="#65DAED"/>
    <path d="M104.847 13.073 152.104 4.9 96.307 3.767l8.54 9.306z" fill="#65DAED"/>
    <path d="m104.922 13.254.202 15.779 4.561-10.93-4.763-4.85z" fill="#2878BF"/>
    <path d="m116.148 22.968-11.024 6.065 4.522-10.94 6.502 4.875z" fill="#26639A"/>
</svg>
