<svg width="24" height="24" viewBox="0 0 24 24" fill="none" xmlns="http://www.w3.org/2000/svg">
    <path fill-rule="evenodd" clip-rule="evenodd" d="M23.26 2.573A.5.5 0 0 1 23.5 3v14.4a.5.5 0 0 1-.271.445l-7 3.6a.5.5 0 0 1-.434.011l-7.78-3.501-6.786 3.49A.5.5 0 0 1 .5 21V6.6a.5.5 0 0 1 .271-.445l7-3.6a.5.5 0 0 1 .434-.011l7.78 3.501 6.786-3.49a.5.5 0 0 1 .49.018zm-15.246.982L1.5 6.905v13.276l6.271-3.226a.5.5 0 0 1 .434-.011l7.78 3.501 6.515-3.35V3.819l-6.271 3.226a.5.5 0 0 1-.434.011l-7.78-3.501z" fill="#003C71"/>
    <path fill-rule="evenodd" clip-rule="evenodd" d="M16 6.5a.5.5 0 0 1 .5.5v14a.5.5 0 0 1-1 0V7a.5.5 0 0 1 .5-.5zM8 2.5a.5.5 0 0 1 .5.5v14a.5.5 0 0 1-1 0V3a.5.5 0 0 1 .5-.5z" fill="#003C71"/>
</svg>
