<svg width="223" height="150" viewBox="0 0 223 150" fill="none" xmlns="http://www.w3.org/2000/svg">
    <path d="M222.986 73.008c0-.013 0-.027-.013-.041h.013l-.342-1.854-.069-.344a.815.815 0 0 0-.822-.673h-.85l-.027-.11a.815.815 0 0 0-.822-.673h-.48v-.673h-1.398v-1.552a2.606 2.606 0 0 0 2.111-2.555 2.606 2.606 0 0 0-2.111-2.555 51.422 51.422 0 0 0-2.425-13.214v-.55a.53.53 0 0 0 .425-.522c0-.013 0-.027-.014-.04h.014l-.411-2.199a.823.823 0 0 0-.809-.687h-.671a50.444 50.444 0 0 0-1.686-3.598 2.603 2.603 0 0 0 .562-3.283 2.575 2.575 0 0 0-3.124-1.14 51.464 51.464 0 0 0-15.184-15.22 2.597 2.597 0 0 0-1.137-3.132 2.574 2.574 0 0 0-3.275.577 50.555 50.555 0 0 0-20.747-5.59 2.53 2.53 0 0 0-2.521-2.13 2.591 2.591 0 0 0-2.549 2.115 50.615 50.615 0 0 0-20.747 5.591c-.795-.934-2.179-1.209-3.275-.577a2.592 2.592 0 0 0-1.137 3.132 51.464 51.464 0 0 0-15.184 15.22c-1.164-.412-2.494.041-3.124 1.14a2.62 2.62 0 0 0 .562 3.283 54.344 54.344 0 0 0-1.686 3.612h-.657a.85.85 0 0 0-.823.687l-.411 2.198h.014c0 .014-.014.028-.014.041 0 .303.247.536.535.536.013 0 .041-.014.055-.014v.041a51.007 51.007 0 0 0-2.59 13.71 2.619 2.619 0 0 0-2.111 2.554c0 1.264.905 2.322 2.111 2.555.027.495.068.99.109 1.47v.082h-1.493V69.3h-.48a.85.85 0 0 0-.822.672l-.028.11h-.822a.85.85 0 0 0-.822.674l-.069.343-.342 1.868h.014c-.014.014-.014.028-.014.041 0 .302.247.536.534.536.014 0 .041-.014.055-.014v3.654c-.014 0-.041-.014-.055-.014a.548.548 0 0 0-.534.55c0 .014.014.027.014.041h-.014l.342 1.854.069.344c.055.288.26.535.534.632l.028.165a.81.81 0 0 0 .808.673h5.797a50.608 50.608 0 0 0 2.768 6.442 2.603 2.603 0 0 0-.562 3.283 2.57 2.57 0 0 0 1.864 1.264v1.593h-1.494v.673h-.48a.848.848 0 0 0-.822.687l-.027.11h-.822a.851.851 0 0 0-.823.673l-.411 2.198h.014c0 .013-.014.027-.014.04 0 .303.247.537.535.537.013 0 .041-.014.055-.014v3.64c-.014 0-.042-.014-.055-.014a.536.536 0 0 0-.535.536c0 .014.014.027.014.041h-.014l.411 2.198a.863.863 0 0 0 .535.632l.027.165a.815.815 0 0 0 .822.673h6.962a.85.85 0 0 0 .822-.673l.027-.165a.817.817 0 0 0 .535-.632l.411-2.198h-.014c0-.014.014-.027.014-.041a.544.544 0 0 0-.425-.522v-3.668a.53.53 0 0 0 .425-.522c0-.013-.014-.027-.014-.04h.014l-.055-.276a51.577 51.577 0 0 0 10.839 9.437c-.411 1.168.041 2.5 1.138 3.132.287.165.603.275.918.316v1.539h-1.494v.673h-.479a.85.85 0 0 0-.823.686l-.027.11h-.85a.85.85 0 0 0-.822.673l-.068.344-.343 1.854h.014c0 .014-.014.028-.014.041 0 .303.247.536.534.536.014 0 .042-.014.055-.014v3.64c-.013 0-.041-.013-.055-.013a.535.535 0 0 0-.534.535c0 .014.014.028.014.042h-.014l.343 1.854.068.343a.838.838 0 0 0 .535.632l.027.165a.827.827 0 0 0 .822.673h6.948a.85.85 0 0 0 .822-.673l.027-.165a.816.816 0 0 0 .535-.632l.068-.343.343-1.854h-.014c0-.014.014-.028.014-.042a.544.544 0 0 0-.425-.522v-3.667a.53.53 0 0 0 .425-.522c0-.014-.014-.028-.014-.041h.014l-.343-1.855-.068-.343a.812.812 0 0 0-.809-.673h-.849l-.014-.055a.824.824 0 0 0-.808-.687h-.48v-.673h-1.398v-1.566a2.57 2.57 0 0 0 1.494-.865 49.965 49.965 0 0 0 6.139 2.678L142.658 145h7.221l.178-1.003h.028l.246-1.634 4.865-28.077a50.972 50.972 0 0 0 9.442 1.373 2.595 2.595 0 0 0 2.165 2.075v1.552h-1.494v.673h-.493a.847.847 0 0 0-.822.687l-.028.109h-.849a.85.85 0 0 0-.823.687l-.411 2.198h.014c0 .014-.014.028-.014.041 0 .303.247.536.548.536.014 0 .042-.014.055-.014v3.64c-.013 0-.041-.013-.055-.013a.548.548 0 0 0-.548.535c0 .014.014.028.014.042h-.014l.411 2.197a.861.861 0 0 0 .535.632l.027.165a.838.838 0 0 0 .822.687h6.962c.397 0 .74-.289.808-.687l.028-.165a.815.815 0 0 0 .534-.632l.069-.343.342-1.854h-.014c0-.014.014-.028.014-.042a.53.53 0 0 0-.425-.522v-3.667a.53.53 0 0 0 .425-.522c0-.014 0-.028-.014-.041h.014l-.342-1.855-.069-.343a.827.827 0 0 0-.822-.687h-.85l-.027-.11a.827.827 0 0 0-.822-.687h-.48v-.645h-1.398v-1.552a2.624 2.624 0 0 0 2.069-2.061 50.824 50.824 0 0 0 9.428-1.374l5.139 29.698H192.181l-7.276-31.456a52.352 52.352 0 0 0 5.536-2.459c.411.481.987.783 1.59.88v1.552h-1.494v.673h-.48a.848.848 0 0 0-.822.687l-.027.11h-.85a.85.85 0 0 0-.822.673l-.411 2.197h.013c0 .014-.013.028-.013.042 0 .302.246.535.534.535.014 0 .041-.013.055-.013v3.64c-.014 0-.041-.014-.055-.014a.536.536 0 0 0-.534.536c0 .013 0 .027.013.041h-.013l.411 2.198c.055.288.26.522.534.632l.028.164a.827.827 0 0 0 .822.673h6.947c.398 0 .74-.288.809-.673l.027-.164a.819.819 0 0 0 .535-.632l.411-2.198h.055c0-.014.013-.028.013-.041a.53.53 0 0 0-.424-.522v-3.668a.505.505 0 0 0 .411-.508c0-.014 0-.028-.014-.041h.014l-.411-2.198a.815.815 0 0 0-.823-.673h-.849l-.014-.11a.838.838 0 0 0-.822-.687h-.48v-.673h-1.397v-1.566c.274-.055.548-.137.808-.288a2.587 2.587 0 0 0 1.137-3.132 51.603 51.603 0 0 0 10.84-9.437l-.055.275h.014c0 .013-.014.027-.014.04 0 .303.247.537.534.537.014 0 .041-.014.055-.014v3.64c-.014 0-.041-.014-.055-.014a.536.536 0 0 0-.534.536c0 .014.014.027.014.041h-.014l.342 1.855.069.343c.055.288.26.536.534.632l.028.165a.81.81 0 0 0 .808.673h6.962a.85.85 0 0 0 .822-.673l.027-.165a.817.817 0 0 0 .535-.632l.411-2.198h.027c0-.014.014-.027.014-.041a.544.544 0 0 0-.425-.522v-3.668a.53.53 0 0 0 .425-.522c0-.013-.014-.027-.014-.04h.014l-.411-2.199a.811.811 0 0 0-.809-.673h-.849l-.028-.11a.822.822 0 0 0-.808-.686h-.48v-.673h-1.398v-1.608a2.594 2.594 0 0 0 1.768-1.25 2.623 2.623 0 0 0-.562-3.283 50.601 50.601 0 0 0 2.768-6.442h5.797a.85.85 0 0 0 .822-.673l.027-.165a.815.815 0 0 0 .535-.632l.068-.343.343-1.854h-.014c0-.014.014-.028.014-.042a.53.53 0 0 0-.425-.522v-3.667a.493.493 0 0 0 .411-.495zm-85.275 43.943c.041.261.246.467.52.467s.48-.206.521-.467c.041.261.26.467.521.467a.522.522 0 0 0 .521-.467c.041.261.246.467.52.467a.522.522 0 0 0 .521-.467.532.532 0 0 0 .521.467.52.52 0 0 0 .52-.467c.042.261.247.467.521.467a.522.522 0 0 0 .521-.467.532.532 0 0 0 .521.467.52.52 0 0 0 .52-.467.532.532 0 0 0 .521.467.522.522 0 0 0 .521-.467c.041.261.246.467.521.467a.52.52 0 0 0 .52-.467.51.51 0 0 0 .411.439v2.789c-.027 0-.068-.014-.096-.014h-2.274a.781.781 0 0 0-.781.783v.11a.51.51 0 0 0-.412.439c-.041-.261-.246-.467-.52-.467a.522.522 0 0 0-.521.467.532.532 0 0 0-.521-.467.52.52 0 0 0-.52.467.541.541 0 0 0-.412-.453v-.069a.782.782 0 0 0-.781-.783h-2.192v-2.871a.472.472 0 0 0 .288-.37zm8.4 4.56a.532.532 0 0 0-.521-.467.522.522 0 0 0-.521.467c-.041-.261-.246-.467-.52-.467a.522.522 0 0 0-.521.467.512.512 0 0 0-.411-.44v-.109c0-.303.246-.564.562-.564h2.274c.028 0 .069.014.096.014v.646c-.246.055-.411.233-.438.453zm-8.647-1.071h2.192c.316 0 .562.247.562.563v.068a.512.512 0 0 0-.411.44.542.542 0 0 0-.52-.467c-.275 0-.48.206-.521.467a.543.543 0 0 0-.521-.467.522.522 0 0 0-.521.467.508.508 0 0 0-.246-.371v-.7h-.014zm25.516 3.296c.041.261.246.467.52.467a.522.522 0 0 0 .521-.467.532.532 0 0 0 .521.467.52.52 0 0 0 .52-.467c.042.261.247.467.521.467a.522.522 0 0 0 .521-.467.532.532 0 0 0 .521.467.52.52 0 0 0 .52-.467.532.532 0 0 0 .521.467.522.522 0 0 0 .521-.467c.041.261.246.467.521.467a.52.52 0 0 0 .52-.467.532.532 0 0 0 .521.467.522.522 0 0 0 .521-.467c.041.261.246.467.52.467a.522.522 0 0 0 .521-.467.51.51 0 0 0 .411.44v2.788c-.027 0-.068-.013-.096-.013h-2.261a.782.782 0 0 0-.781.783v.109a.525.525 0 0 0-.411.454.532.532 0 0 0-.521-.467.52.52 0 0 0-.52.467.532.532 0 0 0-.521-.467.522.522 0 0 0-.521.467.51.51 0 0 0-.411-.44v-.069a.782.782 0 0 0-.781-.783h-2.193v-2.87a.586.586 0 0 0 .275-.399zm8.4 4.561a.543.543 0 0 0-.521-.467c-.26 0-.48.206-.521.467-.041-.261-.246-.467-.521-.467a.52.52 0 0 0-.52.467.543.543 0 0 0-.411-.454v-.109c0-.316.26-.564.561-.564h2.262c.027 0 .068.014.095.014v.646a.568.568 0 0 0-.424.467zm-8.647-1.085h2.192c.316 0 .562.247.562.563v.068a.527.527 0 0 0-.411.454.532.532 0 0 0-.521-.467.52.52 0 0 0-.52.467.532.532 0 0 0-.521-.467.522.522 0 0 0-.521.467.506.506 0 0 0-.246-.371v-.714h-.014zm25.515-10.261c.042.261.247.467.521.467a.523.523 0 0 0 .521-.481.534.534 0 0 0 .521.481.52.52 0 0 0 .52-.467.543.543 0 0 0 .521.467.522.522 0 0 0 .521-.467c.041.261.246.467.52.467a.52.52 0 0 0 .521-.467.532.532 0 0 0 .521.467.522.522 0 0 0 .521-.467c.041.261.246.467.52.467a.522.522 0 0 0 .521-.467.532.532 0 0 0 .521.467.522.522 0 0 0 .521-.467c.041.261.26.467.52.467.274 0 .48-.206.521-.467a.51.51 0 0 0 .411.439v2.789c-.027 0-.068-.014-.096-.014h-2.206a.781.781 0 0 0-.781.783v.11a.524.524 0 0 0-.411.453.532.532 0 0 0-.521-.467.522.522 0 0 0-.521.467.542.542 0 0 0-.52-.467.522.522 0 0 0-.521.467.512.512 0 0 0-.411-.44v-.068a.782.782 0 0 0-.781-.783h-2.207v-2.871a.688.688 0 0 0 .233-.398zm8.401 4.56c-.042-.261-.247-.467-.521-.467a.522.522 0 0 0-.521.467.532.532 0 0 0-.521-.467.52.52 0 0 0-.52.467.542.542 0 0 0-.411-.453v-.11c0-.302.26-.563.561-.563h2.261c.028 0 .069.013.096.013v.646c-.233.069-.397.247-.424.467zm-8.661-1.071h2.206c.315 0 .562.247.562.563v.068a.525.525 0 0 0-.411.44.532.532 0 0 0-.521-.467.522.522 0 0 0-.52.481.535.535 0 0 0-.521-.481.522.522 0 0 0-.521.467.535.535 0 0 0-.247-.385v-.686h-.027zm21.035-32.35-16.129-9.34c2.275-4.066 3.59-8.736 3.7-13.681h18.581c.206.975.96 1.73 1.919 1.964a32.847 32.847 0 0 1-.123 1.593h-1.138V69.3h-.479a.851.851 0 0 0-.823.672l-.027.11h-.85a.823.823 0 0 0-.808.674l-.411 2.197h.013c0 .014-.013.028-.013.041 0 .303.246.536.534.536.014 0 .041-.014.055-.014v3.668c-.014 0-.041-.014-.055-.014a.536.536 0 0 0-.534.536c0 .014.013.028.013.041h-.013l.411 2.198a.86.86 0 0 0 .534.632l.028.165a.823.823 0 0 0 .808.673c-.726 2.046-1.603 4.01-2.576 5.92a2.602 2.602 0 0 0-2.617.756zm-83.686 0a2.6 2.6 0 0 0-2.631-.741 50.606 50.606 0 0 1-2.577-5.92c.398 0 .74-.289.809-.674l.027-.178a.817.817 0 0 0 .535-.632l.411-2.198h-.014c0-.013.014-.027.014-.041a.544.544 0 0 0-.425-.522v-3.668a.53.53 0 0 0 .425-.522c0-.013 0-.027-.014-.04h.014l-.411-2.198a.815.815 0 0 0-.823-.674h-.849l-.028-.11a.815.815 0 0 0-.822-.673h-.452v-.673h-1.151a29.984 29.984 0 0 1-.123-1.58 2.629 2.629 0 0 0 1.932-1.977h18.581c.11 4.959 1.426 9.615 3.7 13.681l-16.128 9.34zm-2.316-46.332v1.539h-1.11c.26-.55.52-1.085.795-1.621.109.041.205.069.315.082zm-3.097 6.429a.533.533 0 0 0 .329-.426c.041.261.26.467.52.467a.522.522 0 0 0 .521-.467c.041.261.26.467.521.467a.522.522 0 0 0 .521-.467c.041.261.246.467.52.467a.522.522 0 0 0 .521-.467.532.532 0 0 0 .521.467.52.52 0 0 0 .52-.467c.042.261.247.467.521.467a.523.523 0 0 0 .521-.48c.027.26.247.48.521.48a.52.52 0 0 0 .52-.467.532.532 0 0 0 .521.467.522.522 0 0 0 .521-.467.54.54 0 0 0 .411.453v2.789c-.028 0-.069-.014-.096-.014h-2.275a.782.782 0 0 0-.781.783v.11a.51.51 0 0 0-.411.453.532.532 0 0 0-.521-.467c-.274 0-.479.206-.52.467.027-.288-.192-.494-.466-.494a.522.522 0 0 0-.521.467.51.51 0 0 0-.411-.44V51.8a.781.781 0 0 0-.781-.782h-2.124c.26-.962.562-1.91.877-2.83zm7.687 4.12c-.041-.26-.246-.466-.52-.466a.522.522 0 0 0-.521.467.532.532 0 0 0-.521-.467.522.522 0 0 0-.521.467.524.524 0 0 0-.411-.454v-.11c0-.315.247-.563.562-.563h2.275c.027 0 .068.014.096.014v.646c-.247.068-.411.247-.439.467zm-8.633-1.07h2.179c.315 0 .562.246.562.562v.07a.51.51 0 0 0-.411.439.532.532 0 0 0-.521-.467.522.522 0 0 0-.521.467.545.545 0 0 0-.534-.467.522.522 0 0 0-.521.467.532.532 0 0 0-.246-.385v-.618c0-.027.013-.041.013-.069zm-.425 3.392a.817.817 0 0 0 .535.632l.027.165a.815.815 0 0 0 .822.673h6.948a.85.85 0 0 0 .822-.673l.028-.165a.816.816 0 0 0 .534-.632l.411-2.198h-.014c0-.013.014-.027.014-.04a.53.53 0 0 0-.425-.523V48.2a.53.53 0 0 0 .425-.521c0-.014 0-.028-.014-.042h.014l-.411-2.197a.837.837 0 0 0-.822-.687h-.85l-.027-.11a.815.815 0 0 0-.822-.673h-.48v-.673h-1.37V41.73a2.601 2.601 0 0 0 1.439-.797l16.032 9.286a29.283 29.283 0 0 0-3.617 13.736h-18.568a2.572 2.572 0 0 0-1.932-1.964 50.155 50.155 0 0 1 1.123-8.31l.178.947zm18.911-21.937h2.192c.316 0 .562.248.562.563v.07a.51.51 0 0 0-.411.439.542.542 0 0 0-.52-.467c-.275 0-.48.206-.521.467a.543.543 0 0 0-.521-.467.522.522 0 0 0-.521.467.507.507 0 0 0-.246-.371v-.7h-.014zm9.058.632a.51.51 0 0 0-.411.44.532.532 0 0 0-.521-.467.522.522 0 0 0-.521.467c-.041-.261-.246-.467-.52-.467a.522.522 0 0 0-.521.467.51.51 0 0 0-.411-.44v-.11c0-.316.246-.563.562-.563h2.274c.028 0 .069.014.096.014v.66h-.027zm0-.879c-.028 0-.069-.014-.096-.014h-2.275a.782.782 0 0 0-.781.783v.11a.51.51 0 0 0-.411.44.532.532 0 0 0-.521-.467.52.52 0 0 0-.52.467c-.042-.261-.247-.467-.521-.467a.522.522 0 0 0-.521.467.54.54 0 0 0-.411-.454v-.068a.781.781 0 0 0-.781-.783h-2.193v-2.871a.535.535 0 0 0 .247-.371.532.532 0 0 0 .521.467c.274 0 .479-.206.52-.467a.544.544 0 0 0 .521.467.522.522 0 0 0 .521-.467.532.532 0 0 0 .521.467.52.52 0 0 0 .52-.467.532.532 0 0 0 .521.467.522.522 0 0 0 .521-.467.532.532 0 0 0 .521.467.52.52 0 0 0 .52-.467.532.532 0 0 0 .521.467.522.522 0 0 0 .521-.467c.041.261.246.467.52.467a.52.52 0 0 0 .521-.467.532.532 0 0 0 .521.467.522.522 0 0 0 .521-.467.526.526 0 0 0 .342.426l.069.123v2.68h.041zm-4.125-9.258c.096-.014.206-.041.302-.069l.945 1.635h-1.247v-1.566zm1.384 1.91v-.083l.233.412h-.233v-.33zm3.275 3.378-.233-1.236-.068-.343a.811.811 0 0 0-.809-.674h-.192l-2.11-3.653a2.598 2.598 0 0 0 .74-2.638 49.7 49.7 0 0 1 20.254-5.467c.233.962 1 1.717 1.959 1.923v1.566h-1.329V18.627h-.452a.85.85 0 0 0-.822.672l-.028.11h-.849a.851.851 0 0 0-.823.673l-.041.371-.342 1.855h.013c0 .013-.013.027-.013.04 0 .303.246.537.534.537.014 0 .041-.014.055-.014v3.64c-.014 0-.041-.014-.055-.014a.536.536 0 0 0-.534.536c0 .014 0 .027.013.041h-.013l.342 1.855.069.343c.055.302.26.536.534.632l.028.165a.815.815 0 0 0 .822.673h2.919v4.148a29.224 29.224 0 0 0-13.731 3.695l-5.838-10.11zm43.508-2.98h-.274l.274-.481V25.494zm-2.316 3.777c.042.261.247.467.521.467a.523.523 0 0 0 .521-.48.523.523 0 0 0 1.041.013.543.543 0 0 0 .521.467.522.522 0 0 0 .521-.467c.041.261.246.467.52.467a.52.52 0 0 0 .521-.467.532.532 0 0 0 .521.467.522.522 0 0 0 .521-.467c.041.261.246.467.52.467a.522.522 0 0 0 .521-.467.532.532 0 0 0 .521.467.522.522 0 0 0 .521-.467c.041.261.26.467.52.467.274 0 .48-.206.521-.467a.51.51 0 0 0 .411.44V32.5c-.027 0-.068-.014-.096-.014h-2.206a.781.781 0 0 0-.781.783v.11a.525.525 0 0 0-.411.453.532.532 0 0 0-.521-.467.522.522 0 0 0-.521.467.542.542 0 0 0-.52-.467.522.522 0 0 0-.521.467.51.51 0 0 0-.411-.44v-.068a.782.782 0 0 0-.781-.783h-2.207v-2.884a.613.613 0 0 0 .233-.385zm8.401 4.56c-.042-.26-.247-.467-.521-.467a.522.522 0 0 0-.521.467.532.532 0 0 0-.521-.467.52.52 0 0 0-.52.467.51.51 0 0 0-.411-.44v-.109c0-.302.26-.563.561-.563h2.261c.028 0 .069.014.096.014v.645c-.233.055-.397.22-.424.453zm-8.661-1.085h2.206c.315 0 .562.248.562.563v.07a.525.525 0 0 0-.411.439.532.532 0 0 0-.521-.467.522.522 0 0 0-.52.48.534.534 0 0 0-.521-.48.522.522 0 0 0-.521.467.533.533 0 0 0-.247-.385v-.687h-.027zm2.686-7.926.973-1.69c.137.042.274.07.411.097v1.593h-1.384zm.027-2.252-2.137 3.709h-.151a.85.85 0 0 0-.822.673l-.274 1.483-5.852 10.165a29.225 29.225 0 0 0-13.73-3.695v-4.149h2.918c.398 0 .74-.288.823-.673l.027-.164a.814.814 0 0 0 .534-.632l.412-2.198h-.014c0-.014.014-.028.014-.041a.544.544 0 0 0-.425-.522V22.87a.53.53 0 0 0 .425-.522c0-.014 0-.028-.014-.041h.014l-.412-2.198a.814.814 0 0 0-.822-.673h-.849l-.028-.11a.815.815 0 0 0-.822-.673h-.48v-.687h-1.329v-1.566a2.575 2.575 0 0 0 1.96-1.923 49.424 49.424 0 0 1 20.253 5.467c-.233.934.041 1.964.781 2.624zm24.447 29.752a.532.532 0 0 0-.521-.467.52.52 0 0 0-.52.467c-.042-.26-.247-.467-.521-.467a.522.522 0 0 0-.521.467.51.51 0 0 0-.411-.44v-.109c0-.316.247-.563.562-.563h2.165c.055.22.137.44.192.673a.482.482 0 0 0-.425.44zm-8.414-4.574a.532.532 0 0 0 .521.467c.274 0 .48-.206.521-.467.041.261.246.467.52.467a.522.522 0 0 0 .521-.467.532.532 0 0 0 .521.467.522.522 0 0 0 .521-.467c.041.261.26.467.52.467a.522.522 0 0 0 .521-.467.532.532 0 0 0 .521.467.52.52 0 0 0 .52-.467c.042.261.247.467.521.467a.522.522 0 0 0 .521-.467.532.532 0 0 0 .521.467.52.52 0 0 0 .52-.467.533.533 0 0 0 .329.426c.315.92.603 1.855.877 2.788h-2.042a.782.782 0 0 0-.781.784v.11a.51.51 0 0 0-.411.439.542.542 0 0 0-.52-.467.52.52 0 0 0-.521.467.532.532 0 0 0-.521-.467.522.522 0 0 0-.521.467.51.51 0 0 0-.411-.44v-.068a.782.782 0 0 0-.781-.783h-2.192v-2.871a.589.589 0 0 0 .205-.385zm-.246 3.49h2.192c.315 0 .562.246.562.562v.07a.51.51 0 0 0-.411.439.543.543 0 0 0-.521-.467.522.522 0 0 0-.521.467c-.041-.261-.246-.467-.52-.467a.522.522 0 0 0-.521.467.537.537 0 0 0-.247-.385v-.687h-.013zm4.933-7.94V41.73c.068-.014.15-.028.219-.055.274.535.548 1.071.795 1.62h-1.014zm-2.398-2.363c.411.453.959.728 1.534.81v1.553h-1.493v.673h-.48a.823.823 0 0 0-.808.673l-.028.11h-.849a.85.85 0 0 0-.823.687l-.068.343-.343 1.854h.014c0 .014-.014.028-.014.042 0 .302.247.535.535.535.013 0 .041-.014.055-.014v3.64c-.014 0-.042-.013-.055-.013a.536.536 0 0 0-.535.536c0 .013 0 .027.014.04h-.014l.343 1.855.068.344a.817.817 0 0 0 .535.632l.027.164a.811.811 0 0 0 .809.673h6.961a.85.85 0 0 0 .822-.673l.028-.165a.816.816 0 0 0 .534-.631l.178-.934a50.156 50.156 0 0 1 1.124 8.31 2.596 2.596 0 0 0-1.919 1.964h-18.568c-.082-4.972-1.37-9.656-3.617-13.736l16.033-9.272zm4.494 32.143a.532.532 0 0 0 .521.467.522.522 0 0 0 .521-.467c.041.26.246.467.52.467a.52.52 0 0 0 .521-.467.532.532 0 0 0 .521.467.44.44 0 0 0 .192-.041 48.24 48.24 0 0 1-.603 2.87.801.801 0 0 0-.261-.054h-2.206v-2.871c.165-.069.247-.206.274-.371zm-.246 3.489h2.206c.082 0 .151.014.219.041-.068.247-.123.508-.192.756a.517.517 0 0 0-.397-.179.522.522 0 0 0-.521.467c-.041-.26-.246-.467-.521-.467a.52.52 0 0 0-.52.467.537.537 0 0 0-.247-.385v-.7h-.027zm-17.225-12.61h-1.261a27.431 27.431 0 0 0-3.371-12.83l1.082-.631a28.702 28.702 0 0 1 3.55 13.461zm-33.272 6.511c.082.055.151.124.233.165l-.37.645.137-.81zm8.797 0 .138.81-.37-.645c.082-.041.164-.11.232-.165zm-3.836-13.53v-8.984c2.603.083 5.07.77 7.235 1.937l-4.495 7.789a7.381 7.381 0 0 0-2.74-.742zm-1.11 0a7.314 7.314 0 0 0-2.741.742l-4.495-7.789a16.313 16.313 0 0 1 7.236-1.937v8.984zm-3.7 1.305a7.934 7.934 0 0 0-1.987 2.019l-7.756-4.492a16.5 16.5 0 0 1 5.262-5.316l4.481 7.789zm-2.522 2.994a7.314 7.314 0 0 0-.685 2.72h-8.962c.069-2.596.74-5.055 1.878-7.225l7.769 4.505zm-.685 3.833c.069.851.288 1.662.63 2.417l-.095.399-7.551 4.368a16.314 16.314 0 0 1-1.946-7.184h8.962zm.206 4.285-1.987 8.695a16.68 16.68 0 0 1-4.659-4.849l6.646-3.846zm2.165 5.11 1.891-3.283a7.465 7.465 0 0 0 2.645.7v8.984a16.362 16.362 0 0 1-5.454-1.126l.918-5.275zm5.646-2.582a7.388 7.388 0 0 0 2.644-.7l1.891 3.269.918 5.288a16.361 16.361 0 0 1-5.453 1.126v-8.983zm7.29-2.184 6.057 3.503a16.628 16.628 0 0 1-4.194 4.505l-1.863-8.008zm-.343-1.484-.356-1.566c.164-.508.26-1.044.315-1.593h8.962a16.365 16.365 0 0 1-1.946 7.184l-6.975-4.025zm-.041-4.258a7.43 7.43 0 0 0-.685-2.72l7.77-4.505a16.494 16.494 0 0 1 1.877 7.225h-8.962zm-1.233-3.695a7.33 7.33 0 0 0-1.987-2.02l4.481-7.774a16.648 16.648 0 0 1 5.262 5.316l-7.756 4.478zm4.152-12.679 3.659-6.346a27.318 27.318 0 0 1 9.14 9.217l-6.331 3.668a19.774 19.774 0 0 0-6.468-6.539zm-.946-.577c-2.658-1.456-5.687-2.294-8.893-2.39V37.28c4.536.096 8.811 1.291 12.552 3.38l-3.659 6.346zm-9.989-2.39c-3.207.096-6.235.934-8.894 2.39l-3.659-6.346a26.918 26.918 0 0 1 12.553-3.379v7.335zm-9.839 2.967a19.777 19.777 0 0 0-6.468 6.539l-6.331-3.668a27.318 27.318 0 0 1 9.14-9.217l3.659 6.346zm-7.044 7.487a19.694 19.694 0 0 0-2.316 8.887h-7.317c.068-4.547 1.247-8.819 3.302-12.555l6.331 3.668zm-2.302 10c.11 3.186.946 6.195 2.398 8.846l-6.331 3.667a27.02 27.02 0 0 1-3.385-12.5h7.318v-.013zm2.974 9.794a19.956 19.956 0 0 0 6.468 6.428l-3.659 6.346a27.27 27.27 0 0 1-9.14-9.12l6.331-3.654zm6.152 9.175-1.096 4.822c-.438-.206-.877-.412-1.302-.646l2.398-4.175zm4.029-.961a19.476 19.476 0 0 0 6.03 1.126v7.335a27.319 27.319 0 0 1-7.304-1.14l1.274-7.321zm7.14 1.126a19.552 19.552 0 0 0 6.029-1.126l1.261 7.321a27.14 27.14 0 0 1-7.29 1.14v-7.335zm10.976 1.456 1.466 2.555c-.26.138-.521.261-.795.399l-.671-2.954zm-.85-3.709-.178-.782a20.063 20.063 0 0 0 6.263-6.305l6.331 3.667a27.407 27.407 0 0 1-9.141 9.121l-3.275-5.7zm6.66-8.035a19.83 19.83 0 0 0 2.398-8.846h7.318c-.11 4.533-1.316 8.79-3.385 12.5l-6.331-3.654zm2.398-9.959a19.635 19.635 0 0 0-2.316-8.887l6.345-3.668c2.042 3.736 3.22 8.022 3.302 12.555h-7.331zm3.919-13.777a28.034 28.034 0 0 0-9.345-9.424l.63-1.085a29.132 29.132 0 0 1 9.812 9.877l-1.097.632zm-10.291-10c-3.809-2.13-8.181-3.352-12.826-3.448v-1.264c4.865.096 9.455 1.387 13.443 3.626l-.617 1.086zm-9.167-13.201a.532.532 0 0 0-.521-.467.522.522 0 0 0-.521.467c-.041-.261-.246-.467-.521-.467a.52.52 0 0 0-.52.467.51.51 0 0 0-.411-.44v-.096c0-.316.26-.563.561-.563h2.262c.027 0 .068.014.095.014v.645a.508.508 0 0 0-.424.44zm.315-1.332h-2.261a.781.781 0 0 0-.781.783v.11a.524.524 0 0 0-.411.453c-.042-.261-.233-.454-.494-.467v-3.64a.517.517 0 0 0 .494-.467c.041.26.246.467.52.467a.522.522 0 0 0 .521-.467.532.532 0 0 0 .521.467.52.52 0 0 0 .52-.467.544.544 0 0 0 .521.467.522.522 0 0 0 .521-.467.54.54 0 0 0 .411.453v2.788c-.027 0-.055-.013-.082-.013zm-8.715-3.215c.041.261.246.467.52.467a.522.522 0 0 0 .521-.467.532.532 0 0 0 .521.467.52.52 0 0 0 .52-.467c.042.261.247.467.521.467a.522.522 0 0 0 .521-.467.516.516 0 0 0 .493.467v3.627a.516.516 0 0 0-.493.467.542.542 0 0 0-.411-.454v-.068a.782.782 0 0 0-.781-.783h-2.207v-2.885a.534.534 0 0 0 .275-.37zm-.247 3.476h2.206c.315 0 .562.247.562.563v.069a.525.525 0 0 0-.411.453.532.532 0 0 0-.521-.467.522.522 0 0 0-.521.467c-.041-.261-.246-.467-.52-.467a.522.522 0 0 0-.521.467.534.534 0 0 0-.247-.385v-.7h-.027zm3.892 9.574v1.264c-4.646.096-9.003 1.318-12.827 3.447l-.63-1.085a28.446 28.446 0 0 1 13.457-3.626zm-13.772 5.274a27.792 27.792 0 0 0-9.346 9.424l-1.082-.632a29.12 29.12 0 0 1 9.811-9.877l.617 1.085zm-9.921 10.371a27.408 27.408 0 0 0-3.371 12.83H138.3c.082-4.876 1.343-9.45 3.549-13.462l1.083.632zm-24.721 22.432a.522.522 0 0 0 .521-.467c.041.26.246.467.52.467a.522.522 0 0 0 .521-.467c.041.26.247.467.521.467a.52.52 0 0 0 .52-.467c.028.22.192.398.412.453v2.788c-.028 0-.069-.013-.096-.013h-2.248a.881.881 0 0 0-.274.055 49.708 49.708 0 0 1-.603-2.844c.069.014.137.028.206.028zm2.631 4.08a.532.532 0 0 0-.521-.468.522.522 0 0 0-.521.467c-.041-.26-.246-.467-.52-.467a.529.529 0 0 0-.398.193l-.205-.783a.638.638 0 0 1 .233-.055h2.261c.027 0 .068.013.096.013v.66a.509.509 0 0 0-.425.44zm17.472-12.57h1.26a27.643 27.643 0 0 0 3.454 12.79l-1.083.631c-2.234-3.997-3.522-8.558-3.631-13.42zm5.289 13.737a27.958 27.958 0 0 0 9.346 9.313l-.631 1.085a29.058 29.058 0 0 1-9.798-9.78l1.083-.618zm10.291 9.89c.466.261.973.48 1.453.714l-.288 1.25c-.603-.288-1.206-.563-1.795-.893l.63-1.07zm5.331 2.24c2.343.713 4.823 1.098 7.386 1.153v1.25a28.926 28.926 0 0 1-7.605-1.168l.219-1.236zm8.51 1.153c2.562-.055 5.042-.44 7.386-1.154l.219 1.236a28.835 28.835 0 0 1-7.592 1.168v-1.25h-.013zm11.784-2.926a19.1 19.1 0 0 0 .932-.467l.631 1.085c-.412.234-.85.426-1.275.632l-.288-1.25zm1.891-1.044a27.949 27.949 0 0 0 9.346-9.313l1.083.632a29.182 29.182 0 0 1-9.798 9.78l-.631-1.099zm9.922-10.26a27.655 27.655 0 0 0 3.453-12.79h1.261c-.11 4.863-1.398 9.424-3.632 13.407l-1.082-.618zm30.585-.22c-.041-.262-.246-.468-.52-.468a.522.522 0 0 0-.521.467.532.532 0 0 0-.521-.467c-.274 0-.479.206-.52.467a.51.51 0 0 0-.412-.44v-.11c0-.315.247-.562.562-.562h2.261c.028 0 .069.013.096.013v.646a.54.54 0 0 0-.425.453zm.316-1.333h-2.261a.782.782 0 0 0-.782.783v.11a.512.512 0 0 0-.411.453c-.041-.26-.246-.467-.52-.467a.522.522 0 0 0-.521.467.532.532 0 0 0-.521-.467.522.522 0 0 0-.521.467.67.67 0 0 0-.054-.178c.342-1.32.616-2.652.863-3.998a.537.537 0 0 0 .247-.384c.041.26.246.467.52.467a.522.522 0 0 0 .521-.467c.041.26.247.467.521.467a.522.522 0 0 0 .521-.467c.041.26.246.467.52.467a.522.522 0 0 0 .521-.467c.041.26.247.467.521.467a.52.52 0 0 0 .52-.467.51.51 0 0 0 .412.44v2.788c-.028 0-.069-.014-.096-.014zM209.132 37.32a2.608 2.608 0 0 0-.658 2.651l-16.06 9.3a29.672 29.672 0 0 0-10.003-10.082l5.372-9.327v3.502c-.014 0-.042-.013-.055-.013a.536.536 0 0 0-.535.535c0 .014 0 .028.014.042h-.014l.411 2.197a.817.817 0 0 0 .535.632l.027.165a.815.815 0 0 0 .822.673h6.948c.397 0 .74-.288.808-.673l.028-.165a.816.816 0 0 0 .534-.632l.411-2.197h-.013V33.9a.53.53 0 0 0-.425-.522v-3.667c.247-.055.425-.248.425-.509 0-.013 0-.027-.014-.04h.014l-.411-2.199a.815.815 0 0 0-.823-.673h-.849l-.028-.11a.824.824 0 0 0-.822-.673h-.479v-.687h-1.398v-1.634a2.626 2.626 0 0 0 1.37-.728 50.336 50.336 0 0 1 14.868 14.862zM140.054 22.46a2.57 2.57 0 0 0 1.466.755v1.553h-1.494v.673h-.479a.848.848 0 0 0-.822.686l-.028.11h-.849a.851.851 0 0 0-.823.673l-.068.344-.315 1.854h.013c0 .014-.013.028-.013.041 0 .303.246.536.534.536.014 0 .041-.014.055-.014v3.64c-.014 0-.041-.013-.055-.013a.536.536 0 0 0-.534.535c0 .014 0 .028.013.042h-.013l.342 1.854.069.343c.055.303.26.536.534.632l.028.165a.814.814 0 0 0 .822.673h6.947c.398 0 .74-.288.823-.673l.027-.165a.817.817 0 0 0 .535-.632l.068-.343.343-1.854h-.014c0-.014.014-.028.014-.042a.544.544 0 0 0-.425-.522v-3.173l5.207 9.039a29.673 29.673 0 0 0-10.003 10.082l-16.061-9.3a2.607 2.607 0 0 0-.657-2.65 50.267 50.267 0 0 1 14.813-14.85zM112.442 73.09c.041.26.26.467.52.467a.52.52 0 0 0 .521-.467c.041.26.261.467.521.467a.522.522 0 0 0 .521-.467c.041.26.26.467.52.467a.522.522 0 0 0 .521-.467c.041.26.247.467.521.467a.522.522 0 0 0 .521-.467.533.533 0 0 0 .232.37 48.31 48.31 0 0 0 .864 4.011c-.028.056-.041.11-.055.165a.532.532 0 0 0-.521-.467.52.52 0 0 0-.52.467c-.042-.26-.247-.467-.521-.467a.522.522 0 0 0-.521.467.54.54 0 0 0-.411-.453v-.069a.781.781 0 0 0-.781-.783h-2.179v-2.87a.587.587 0 0 0 .247-.371zm-.247 3.475h2.193c.315 0 .561.247.561.563v.069a.51.51 0 0 0-.411.44c-.041-.262-.246-.468-.52-.468a.522.522 0 0 0-.521.467.532.532 0 0 0-.521-.467.522.522 0 0 0-.521.467.507.507 0 0 0-.246-.37v-.701h-.014zm13.1 17.775v-.344h-1.397V92.39c.137-.027.26-.055.383-.096.535.824 1.083 1.62 1.658 2.404a.676.676 0 0 0-.164-.028h-.48v-.33zm-6.084 4.12a.543.543 0 0 0 .521.468.522.522 0 0 0 .521-.468c.041.261.26.468.52.468a.522.522 0 0 0 .521-.468.532.532 0 0 0 .521.468.522.522 0 0 0 .521-.468c.041.261.246.468.52.468a.522.522 0 0 0 .521-.468.532.532 0 0 0 .521.468.52.52 0 0 0 .52-.468c.042.261.247.468.521.468a.522.522 0 0 0 .521-.468.532.532 0 0 0 .521.468.52.52 0 0 0 .52-.468.532.532 0 0 0 .521.468.522.522 0 0 0 .521-.468.51.51 0 0 0 .411.44v2.789c-.028 0-.069-.014-.096-.014h-2.275a.782.782 0 0 0-.781.783v.11a.524.524 0 0 0-.411.453.532.532 0 0 0-.521-.467.52.52 0 0 0-.52.467c-.042-.261-.247-.467-.521-.467a.522.522 0 0 0-.521.467.54.54 0 0 0-.411-.453v-.069a.781.781 0 0 0-.781-.783h-2.193v-2.87a.562.562 0 0 0 .288-.385zm8.4 4.547c-.041-.261-.246-.467-.52-.467a.522.522 0 0 0-.521.467.532.532 0 0 0-.521-.467.522.522 0 0 0-.521.467.507.507 0 0 0-.411-.439v-.11c0-.316.247-.563.562-.563h2.275c.027 0 .068.013.096.013v.646c-.247.055-.411.233-.439.453zm-8.646-1.071h2.192c.315 0 .562.247.562.563v.069a.508.508 0 0 0-.411.439.532.532 0 0 0-.521-.467.522.522 0 0 0-.521.467.542.542 0 0 0-.52-.467.522.522 0 0 0-.521.467.512.512 0 0 0-.247-.371v-.7h-.013zm6.248-10.234a2.608 2.608 0 0 0 .658-2.65l16.156-9.341a29.757 29.757 0 0 0 10.004 9.986l-9.346 16.222a2.57 2.57 0 0 0-2.645.673 50.945 50.945 0 0 1-14.827-14.89zm19.185 17.39a2.598 2.598 0 0 0-.74-2.637l9.332-16.195c.63.343 1.288.66 1.946.962l-4.673 20.439a49.403 49.403 0 0 1-5.865-2.569zm14.525-16.373a29.092 29.092 0 0 0 7.702 1.167v18.737a2.574 2.574 0 0 0-1.96 1.923 50.533 50.533 0 0 1-9.291-1.36l3.549-20.467zm10.771 21.84a2.595 2.595 0 0 0-1.959-1.923V93.901a29.464 29.464 0 0 0 7.687-1.167l3.536 20.467a49.996 49.996 0 0 1-9.264 1.359zm10.25-23.599c.48-.233.959-.453 1.425-.714l9.332 16.195a2.6 2.6 0 0 0-.74 2.638 49.344 49.344 0 0 1-5.275 2.349l-4.742-20.468zm14.348 15.605a2.59 2.59 0 0 0-2.645-.659l-9.332-16.223a29.641 29.641 0 0 0 10.003-9.986l16.156 9.34a2.608 2.608 0 0 0 .658 2.652 50.292 50.292 0 0 1-14.84 14.876zm12.442-8.118a.532.532 0 0 0 .521.467c.274 0 .48-.206.521-.467.041.26.246.467.52.467a.522.522 0 0 0 .521-.467.532.532 0 0 0 .521.467.522.522 0 0 0 .521-.467c.041.26.26.467.52.467a.522.522 0 0 0 .521-.467.532.532 0 0 0 .521.467.52.52 0 0 0 .52-.467c.042.26.247.467.521.467a.522.522 0 0 0 .521-.467.532.532 0 0 0 .521.467.52.52 0 0 0 .52-.467.532.532 0 0 0 .521.467.522.522 0 0 0 .521-.467.54.54 0 0 0 .411.453v2.789c-.028 0-.069-.014-.096-.014h-2.193a.782.782 0 0 0-.781.783v.11a.51.51 0 0 0-.411.439.542.542 0 0 0-.52-.467.52.52 0 0 0-.521.467.532.532 0 0 0-.521-.467.522.522 0 0 0-.521.467.508.508 0 0 0-.411-.439v-.069a.781.781 0 0 0-.781-.783h-2.192v-2.87a.66.66 0 0 0 .205-.4zm8.414 4.56a.532.532 0 0 0-.521-.467.52.52 0 0 0-.52.467c-.042-.261-.247-.467-.521-.467a.522.522 0 0 0-.521.467.508.508 0 0 0-.411-.439v-.11c0-.316.247-.563.562-.563h2.261c.041 0 .068.013.096.013v.646a.538.538 0 0 0-.425.453zm-8.66-1.071h2.192c.315 0 .562.247.562.563v.069a.508.508 0 0 0-.411.439.543.543 0 0 0-.521-.467.522.522 0 0 0-.521.467c-.041-.261-.246-.467-.52-.467a.522.522 0 0 0-.521.467.563.563 0 0 0-.247-.384v-.687h-.013zm2.576-7.94V94.671h-.48a.676.676 0 0 0-.164.027 58.569 58.569 0 0 0 1.658-2.404c.164.055.329.096.493.124v1.58h-1.507z" fill="#E2EFFA"/>
    <path fill-rule="evenodd" clip-rule="evenodd" d="M13.77 55.764c-5.232 2.198-8.918 6.128-10.978 11.68C1.294 71.47.586 75.656.522 79.827c0 0 0 4.165.635 7.33.635 3.166.999 4.594 1.302 5.552.215.678.449 1.347.703 2.005 1.674 4.316 3.96 7.813 6.663 11.278.37.466.757.931 1.144 1.38l1.143 1.283a43.843 43.843 0 0 0 10.817 8.712l1.142.625c3.252 1.749 6.842 3.177 10.818 4.316l1.143.321a70.49 70.49 0 0 0 6.374 1.411h12.185l.065-.722a112.102 112.102 0 0 1-6.68-.754V70.652c.29 5.406.852 10.17 1.642 13.572.901 3.93 2.205 8.085 3.88 12.224a61.355 61.355 0 0 0 1.399 3.337 71.81 71.81 0 0 0 3.896 7.396v16.764h1.143v-14.92c2.865 4.38 6.422 8.599 10.817 11.792v3.112h1.142v-2.342c1.418.93 2.898 1.78 4.476 2.486h4.442l.178-.706c-3.3-.85-6.343-2.358-9.128-4.331V83.694c.854.77 1.69 1.524 2.528 2.246.627.546 4.716 3.979 8.29 6.85v31.123h1.142V93.705a87.334 87.334 0 0 0 2.93 2.246c2.576 1.86 5.2 3.642 7.871 4.684v23.278h1.143v-22.877c1.127.337 2.254.546 3.397.546.901 0 1.803-.113 2.688-.321 1.803-.433 3.348-1.348 4.733-2.535v25.155h1.143V97.619c4.313-4.62 6.535-12.369 8.145-18.032.126-.424.244-.837.359-1.236.119-.416.234-.817.349-1.202.154-.494.293-.996.433-1.5l.195-.698c0 .016.016.016.016.016.155-.551.302-1.103.452-1.654.068-.25.137-.502.208-.752.128-.457.262-.914.391-1.374.099-.347.195-.697.285-1.049v53.775h1.143V65.807l.482-1.83c1.015-3.865 2.061-7.86 3.187-11.758l.031-.107c.071-.253-.043.118.212-.744.254-.862.765-1.425-.677-2.647a61.682 61.682 0 0 1-9.61-4.684c-13.711-8.24-21.61-16.258-28.582-23.336l-.054-.054c-1.739-1.765-3.38-3.433-5.07-5.07-3.928-3.802-8.79-5.903-13.007-5.63-3.445.224-6.455 1.925-8.966 5.069-7.148 8.952-9.739 28.812-9.82 45.336-.016.514-.016 1.027-.016 1.54-2.961-1.812-5.843-3.353-8.756-4.636-8.821-3.898-18.286-4.444-25.288-1.492zm71.647 36.593a53.989 53.989 0 0 1-1.513-1.187V22.62c3.236 3.289 6.696 6.786 10.817 10.412v65.197c-3.39-1.371-6.605-3.818-9.252-5.832l-.051-.04zm-5.736-73.993c1.027 1.014 2.052 2.048 3.096 3.101v68.807c-3.718-2.968-7.308-6.113-10.817-9.225V13.091c2.382.882 4.749 2.39 6.858 4.428.288.28.576.562.863.845zm-20.934-1.766.11-.122v53.31c-3.188-2.568-6.47-5.006-9.9-7.188v-.096c-.032-16.524 2.463-36.737 9.562-45.641a4.28 4.28 0 0 1 .228-.263zM70.449 79.7c-3.406-3.02-6.874-6.094-10.449-9.016V15.273c1.98-1.861 4.201-2.904 6.68-3.065 1.32-.08 2.72.113 4.137.514V80.02c-.032-.016-.064-.048-.097-.08l-.27-.24zm51.863-28.861a332.532 332.532 0 0 0-2.544 9.32V49.797c.853.37 1.69.722 2.544 1.043zm-9.578-4.7a61.484 61.484 0 0 0 5.907 3.128v15.24c-1.819 6.995-3.734 14.15-6.326 20.888-.998 2.599-2.382 6.192-4.491 9.08V43.042c.866.575 1.762 1.15 2.685 1.729.725.453 1.467.909 2.225 1.367zm-6.052 49.715c-1.385 1.525-3.027 2.696-5.007 3.16-1.931.466-3.879.241-5.811-.384V34.01a121.75 121.75 0 0 0 10.818 8.262v53.582zm-57.21-22.122a149.92 149.92 0 0 1-.466-8.631c3.413 2.214 6.68 4.684 9.852 7.267v31.363c-3.8-6.673-6.488-14.101-8.049-20.807a92.61 92.61 0 0 1-1.336-9.192zM24.137 115.65v-59.47c3.477.032 7.163.642 10.817 1.845v61.876c-4.105-1.171-7.727-2.583-10.817-4.251zm.397-60.61c.368-.004.735-.006 1.115.013-.325-.016-.65-.01-.975-.008a14.6 14.6 0 0 1-.537-.004l.397-.002zm-12.357 50.808V58.956c.66-.369 1.32-.721 2.044-1.026 2.608-1.107 5.602-1.685 8.773-1.765v58.844a33.738 33.738 0 0 1-3.622-2.406 49.799 49.799 0 0 1-7.195-6.754zM11.033 59.63v44.839c-5.15-6.352-8.258-13.588-9.078-20.935-.387-6 .611-12.032 2.929-16.861 1.497-2.936 3.542-5.294 6.149-7.043zm57.16-48.56a12.406 12.406 0 0 0-1.545 0c.007 0 .011 0 .014-.002.005-.002.009-.005.018-.015.5-.032.999-.016 1.513.016zm30.013 89.256c-.134-.015-.279-.031-.41-.06.086.009.168.022.248.035l.179.027-.017-.002zM70.483 82.392c.11.096.222.192.334.291v35.503c-4.218-3.273-7.823-7.637-10.817-12.514V73.315c.95.786 1.883 1.572 2.817 2.358 2.314 1.983 4.6 4.011 6.855 6.012l.292.26c.168.148.343.296.519.447zM38.607 59.406c2.769 1.219 5.505 2.663 8.306 4.38v58.619c-3.911-.578-7.517-1.316-10.817-2.198v-61.78c.25.091.5.182.75.275.587.217 1.174.445 1.761.704z" fill="#E2EFFA"/>
    <path fill-rule="evenodd" clip-rule="evenodd" d="M128.788 52.866c1.477 3.7 5.684 5.505 9.397 4.033a7.212 7.212 0 0 0 2.513-1.672l6.008 6.978c3.717 4.317 3.218 10.82-1.115 14.525l-48.635 41.587c-4.333 3.705-10.859 3.209-14.576-1.107L62.19 93.761c-3.716-4.316-3.216-10.82 1.116-14.524l48.636-41.588c4.332-3.705 10.858-3.209 14.575 1.108l4.796 5.57c-2.655 1.882-3.783 5.39-2.525 8.54z" fill="#2E5E88"/>
    <path fill-rule="evenodd" clip-rule="evenodd" d="M99.607 48.187a1.036 1.036 0 0 1 1.461.059l1.408 1.523c.387.418.36 1.07-.059 1.455-.42.386-1.074.36-1.461-.059l-1.408-1.522a1.028 1.028 0 0 1 .06-1.456zm4.225 4.568a1.037 1.037 0 0 1 1.461.06l2.816 3.045c.387.418.36 1.07-.059 1.455-.42.386-1.074.36-1.461-.059l-2.817-3.045a1.029 1.029 0 0 1 .06-1.456zm5.633 6.09a1.037 1.037 0 0 1 1.461.06l2.816 3.045c.387.419.361 1.07-.059 1.456-.42.386-1.074.36-1.461-.059l-2.817-3.045a1.029 1.029 0 0 1 .06-1.456zm5.633 6.092a1.037 1.037 0 0 1 1.461.059l2.816 3.045c.387.419.361 1.07-.059 1.456-.42.386-1.074.36-1.461-.059l-2.816-3.045a1.028 1.028 0 0 1 .059-1.456zm5.633 6.09a1.037 1.037 0 0 1 1.461.06l2.817 3.045c.386.419.36 1.07-.06 1.456-.42.386-1.074.36-1.461-.06l-2.816-3.044a1.028 1.028 0 0 1 .059-1.456zm5.633 6.092a1.037 1.037 0 0 1 1.461.059l2.817 3.045c.386.418.36 1.07-.06 1.456-.42.386-1.074.36-1.461-.06l-2.816-3.045a1.028 1.028 0 0 1 .059-1.455zm5.633 6.09a1.037 1.037 0 0 1 1.461.06l1.408 1.522c.387.419.361 1.07-.059 1.456-.42.386-1.074.36-1.461-.059l-1.408-1.523a1.028 1.028 0 0 1 .059-1.455z" fill="#82D2DF"/>
    <path d="M38.627 86.25c0-6.904 5.615-12.5 12.542-12.5h100.339c6.927 0 12.543 5.596 12.543 12.5v46.25c0 6.904-5.616 12.5-12.543 12.5H51.169c-6.926 0-12.542-5.596-12.542-12.5V86.25z" fill="#FEEEC7"/>
    <path d="M38.627 92.5h125.424v10H38.627v-10z" fill="#fff"/>
    <path d="M175.339 150H13.967c-10.492-15.305-6.512-30.609 18.091-34.617 24.604-4.009 35.097 24.778 45.59 25.872 10.492 1.093 26.774-8.017 40.523-7.288 11 .583 42.695 10.931 57.168 16.033z" fill="#74D0DE"/>
    <path d="M67.475 150H214.22c0-2.241-1.722-7.854-8.611-12.382-8.611-5.66-17.939 3.892-24.039-2.83-6.099-6.722-25.833-10.967-40.543-2.83-14.711 8.136-27.627 6.014-49.155 2.83-17.222-2.547-23.44 9.08-24.397 15.212z" fill="#A3F2FF"/>
    <path d="M96.994 85c1.931-3.333 6.759-3.333 8.69 0l19.552 33.75c1.931 3.333-.483 7.5-4.345 7.5H81.788c-3.862 0-6.276-4.167-4.345-7.5L96.994 85z" fill="#fff"/>
    <path d="M98.08 86.949c1.45-2.5 5.07-2.5 6.518 0L123 118.712c1.448 2.5-.363 5.625-3.259 5.625H82.938c-2.897 0-4.707-3.125-3.259-5.625l18.402-31.764z" fill="#F79321"/>
    <path d="M100.741 112.84c-.917 0-1.376-.297-1.376-.892V93.415c0-.61.612-.915 1.834-.915h.891c1.172 0 1.757.305 1.757.915-.169 2.746-.441 6.864-.814 12.355l-.408 6.178c-.034.595-.492.892-1.375.892h-.509zm-.102 7.16c-.629 0-1.087-.069-1.376-.206-.288-.152-.433-.381-.433-.686v-2.677c0-.595.603-.893 1.809-.893h.789c1.189 0 1.783.298 1.783.893v2.677c0 .305-.145.534-.433.686-.289.137-.739.206-1.35.206h-.789z" fill="#fff"/>
    <path d="m132.516 8.015-26.51-4.235-1.338 7.433.834 1.758-1.182.18-1.706 9.485 5.713-2.95 1.829 3.255 22.36-14.926z" fill="#27BED7"/>
    <path d="m132.519 8.015-24.188 11.669 1.829 3.255 22.359-14.924z" fill="#00467F"/>
    <path d="m104.669 11.213.834 1.758 27.014-4.954-27.848 3.196z" fill="#00467F"/>
</svg>
