<svg width="48" height="48" viewBox="0 0 48 48" fill="none" xmlns="http://www.w3.org/2000/svg">
    <g clip-path="url(#btlkl5faha)">
        <path d="m47.415 38.526-15.437 9.062c-.935.548-2.515.548-3.45 0L.585 31.183C.214 30.965 0 30.69 0 30.431v-1.896c.046.03 28.085 16.493 28.085 16.493.608.356 1.389.535 2.17.535.78 0 1.56-.179 2.168-.535 0 0 15.53-9.12 15.577-9.15v1.896c0 .258-.214.533-.585.75zm0-4.844-13.47-7.906c2.72 2.512 5.761 4.754 9.105 6.707a.451.451 0 0 1 .002.781l-15.233 8.941a.442.442 0 0 1-.445 0L2.293 27.48a.457.457 0 0 1-.223-.39.45.45 0 0 1 .223-.39l6.152-3.612c-.2-.354-.386-.7-.562-1.034L.585 26.339c-.371.217-.585.492-.585.75 0 .26.214.534.585.754L28.53 44.248c.935.548 2.515.548 3.45 0l15.437-9.062c.371-.218.585-.493.585-.75-.002-.263-.216-.536-.587-.754zm-6.849 3.758-5.634 3.308a.441.441 0 0 1-.606-.166.455.455 0 0 1 .161-.617l5.634-3.308a.441.441 0 0 1 .606.165.457.457 0 0 1-.161.618z" fill="#003C71"/>
        <path d="M33.035 26.67a47.005 47.005 0 0 1-6.264-6.844c-3.505-4.697-4.92-8.475-5.415-10.096-.878.502-2.716 1.548-3.473 1.98.21.53.32 1.106.32 1.687 0 2.385-1.818 4.325-4.057 4.325-1.383 0-2.645-.736-3.392-1.949l-3.62 2.063c.182 1.381 1.775 5.032 4.973 9.347 2.88 3.886 7.87 9.397 15.33 13.682l3.445-1.963c-.675-.544-1.041-1.208-1.041-1.92 0-.895.58-1.718 1.634-2.32.977-.556 2.268-.865 3.634-.865 1.268 0 2.468.264 3.416.748l2.988-1.703a51.788 51.788 0 0 1-8.478-6.171zm-8.876-8.784.523.758-1.613.922-.523-.757 1.613-.923zm-2.152 1.23.522.757-1.613.922-.523-.757 1.614-.923zm-2.153 1.23.523.758-1.613.923-.523-.758 1.613-.922zm-7.546 5.37-.522-.758 1.613-.922.523.758-1.614.922zm2.153-1.231-.523-.758 1.613-.922.523.757-1.613.923zm1.63-1.987 1.613-.922.523.757-1.614.923-.523-.758zm4.846 9.646a45.924 45.924 0 0 1-3.832-4.52l.959-.55a44.762 44.762 0 0 0 3.854 4.509l-.981.56zm1.286-.734a45.725 45.725 0 0 1-3.877-4.494l.607-.347a45.055 45.055 0 0 0 3.891 4.486l-.621.355zm1.134-.648a46.112 46.112 0 0 1-3.92-4.47l.557-.318a45.388 45.388 0 0 0 3.933 4.461l-.57.327zm.903-.516a46.486 46.486 0 0 1-3.957-4.449l.963-.55a45.108 45.108 0 0 0 3.96 4.41l.024.022-.99.567zm1.235-.707a46.16 46.16 0 0 1-4.007-4.42l.457-.26a45.698 45.698 0 0 0 4.02 4.412l-.47.268zm.63-.36a46.104 46.104 0 0 1-3.978-4.436l.304-.175a45.909 45.909 0 0 0 3.984 4.433l-.31.178zm.545-.31a46.627 46.627 0 0 1-4.046-4.398l.61-.348a46.09 46.09 0 0 0 4.033 4.362l.029.026-.626.358zm.936-.537a46.523 46.523 0 0 1-4.08-4.376l.965-.552a46.018 46.018 0 0 0 4.015 4.272l.094.09-.994.566zm1.305-.743a46.839 46.839 0 0 1-4.128-4.35l.611-.35a46.467 46.467 0 0 0 4.073 4.271l.074.07-.63.359z" fill="#26BED6"/>
        <path d="M36 24a8.108 8.108 0 1 0 0-16.216A8.108 8.108 0 0 0 36 24z" fill="#C1DC77"/>
        <path d="M36 22.703A6.81 6.81 0 1 0 36 9.08a6.81 6.81 0 0 0 0 13.622z" fill="#9FC43A"/>
        <path d="M35.831 15.218c-1.178-.361-1.556-.735-1.556-1.317 0-.668.524-1.133 1.4-1.133.738 0 1.106.33 1.24.857.063.245.234.43.452.43h.156c.342 0 .586-.4.467-.779-.218-.723-.727-1.323-1.536-1.556v-.423c0-.508-.348-.919-.778-.919-.431 0-.779.41-.779.92v.404c-1.006.257-1.816 1.029-1.816 2.211 0 1.415.991 2.12 2.439 2.53 1.297.368 1.557.907 1.557 1.477 0 .422-.255 1.096-1.401 1.096-.857 0-1.298-.361-1.469-.876-.078-.239-.254-.41-.467-.41h-.145c-.348 0-.592.416-.462.796.296.852.986 1.354 1.764 1.55v.41c0 .509.348.92.779.92.43 0 .778-.411.778-.92v-.398c1.012-.226 1.816-.919 1.816-2.174 0-1.74-1.26-2.335-2.439-2.696z" fill="#fff"/>
    </g>
    <defs>
        <clipPath id="btlkl5faha">
            <path fill="#fff" d="M0 0h48v48H0z"/>
        </clipPath>
    </defs>
</svg>
