<svg width="24" height="24" viewBox="0 0 24 24" fill="none" xmlns="http://www.w3.org/2000/svg">
    <g clip-path="url(#95g5ce2dwa)">
        <rect width="24" height="24" rx="4" fill="#ECF0F5"/>
        <path fill-rule="evenodd" clip-rule="evenodd" d="M14.526 8.576c.58.599 1.385.97 2.274.97 1.767 0 3.2-1.466 3.2-3.273C20 4.465 18.567 3 16.8 3c-1.767 0-3.2 1.465-3.2 3.273 0 .308.042.607.12.89L9.474 9.697a3.155 3.155 0 0 0-2.274-.97C5.433 8.727 4 10.193 4 12c0 1.807 1.433 3.273 3.2 3.273.89 0 1.694-.371 2.274-.97l4.247 2.53c-.079.285-.121.585-.121.894 0 1.808 1.433 3.273 3.2 3.273 1.767 0 3.2-1.465 3.2-3.273 0-1.807-1.433-3.273-3.2-3.273-.888 0-1.691.37-2.27.967l-4.25-2.531a3.346 3.346 0 0 0 0-1.78l4.246-2.534zm2.274-3.94c-.884 0-1.6.733-1.6 1.637a1.659 1.659 0 0 0 .24.863c.283.464.786.773 1.36.773.884 0 1.6-.733 1.6-1.636 0-.904-.716-1.637-1.6-1.637zm-8.24 6.501a.852.852 0 0 0 .045.079c.124.232.195.5.195.784a1.658 1.658 0 0 1-.24.863 1.592 1.592 0 0 1-1.36.773c-.884 0-1.6-.732-1.6-1.636 0-.904.716-1.636 1.6-1.636.574 0 1.078.309 1.36.773zm6.812 5.851a.814.814 0 0 0 .098-.17 1.59 1.59 0 0 1 1.33-.727c.884 0 1.6.732 1.6 1.636 0 .904-.716 1.637-1.6 1.637-.884 0-1.6-.733-1.6-1.637 0-.266.062-.517.172-.739z" fill="#003C71"/>
    </g>
    <defs>
        <clipPath id="95g5ce2dwa">
            <path fill="#fff" d="M0 0h24v24H0z"/>
        </clipPath>
    </defs>
</svg>
