<svg width="32" height="32" viewBox="0 0 32 32" fill="none" xmlns="http://www.w3.org/2000/svg">
    <path d="M7.233 21.662c.279.488.65.881.975 1.288-.011.112-.09.124-.152.141-.344.095-.69.183-1.035.277-.204.056-.345-.008-.475-.176a13.308 13.308 0 0 1-1.985-3.6 5.795 5.795 0 0 0-.115-.286c-.007-.019-.033-.03-.063-.054-.126.004-.213.108-.322.165-.753.39-1.491.365-2.192-.108-.525-.354-.806-.861-.861-1.496-.098-1.148.732-2.1 1.893-2.206.135-.013.275.007.412.02.136.015.271.042.428.067.021-.073.05-.133.055-.194.01-.102.004-.206.004-.31-.001-1.537.27-3.026.8-4.47.04-.107.076-.216.111-.325.007-.02 0-.045 0-.084-.1-.094-.244-.085-.375-.11a1.94 1.94 0 0 1-1.032-.523c-.594-.587-.773-1.297-.535-2.082.235-.78.796-1.256 1.6-1.398.674-.119 1.283.06 1.78.546.13.128.246.27.385.424.063-.053.128-.095.178-.15.328-.354.642-.72.98-1.064.82-.832 1.754-1.518 2.77-2.098.107-.06.232-.1.302-.222-.04-.132-.152-.204-.231-.3-.762-.909-.591-2.453.625-3.094 1.195-.629 2.671.04 2.966 1.346.035.154.03.318.041.478.007.1.006.201.009.308.138.066.261.02.383.004.285-.04.57-.085.854-.126.688-.097 1.38-.087 2.073-.075.624.011 1.24.088 1.854.2.112.02.226.026.33.039.107-.115.055-.234.057-.343.003-.424.11-.819.354-1.165.48-.678 1.149-.995 1.972-.882.88.121 1.47.634 1.713 1.49.192.675.035 1.291-.406 1.836-.072.088-.146.173-.218.256.036.13.144.16.23.209A13.31 13.31 0 0 1 27.092 6.9c.079.094.136.214.293.261.075-.09.152-.189.233-.283.992-1.14 2.858-.879 3.457.534.54 1.273-.322 2.618-1.551 2.795-.112.016-.23.017-.335.108-.001.225.168.416.17.658-.05.02-.089.044-.13.05a9.091 9.091 0 0 1-1.339-.034c-.06-.128-.131-.27-.195-.415A11.587 11.587 0 0 0 25.33 7.09c-.087-.088-.181-.17-.274-.254-.152.046-.219.16-.297.252-.403.472-.802.946-1.202 1.42-1.134 1.341-2.27 2.682-3.401 4.026-.15.178-.318.324-.519.447a12.814 12.814 0 0 0-3.757 3.454c-.186.256-.401.45-.68.61-2.531 1.439-5.056 2.89-7.583 4.339-.126.071-.27.124-.385.277zm8.932-8.558c.107-.153.08-.294.08-.426.002-2.873.002-5.745.001-8.617 0-.092 0-.183-.01-.274-.015-.128-.074-.178-.21-.172-.127.006-.252.03-.378.042-1.05.105-2.063.364-3.042.754a11.55 11.55 0 0 0-2.28 1.215c-.102.07-.222.124-.273.248.015.04.02.077.04.101a8766.88 8766.88 0 0 0 5.936 7.022c.028.033.07.056.136.107zM6.46 20.346c.19-.037.31-.128.437-.2l5.388-3.087 2.185-1.252c.095-.055.215-.086.261-.221-.045-.023-.082-.054-.125-.061-3.05-.534-6.1-1.066-9.15-1.597-.031-.005-.066.013-.108.023-.016.04-.044.08-.048.122-.026.262-.055.523-.066.786-.027.664.026 1.324.118 1.982.155 1.107.473 2.165.937 3.181.047.103.106.2.171.324zM8.87 6.811c-.13.122-.243.218-.345.325-.583.606-1.1 1.262-1.545 1.975a11.457 11.457 0 0 0-1.323 3.006c-.03.106-.085.214-.032.345.033.016.072.046.114.053 3.049.537 6.098 1.072 9.148 1.605.03.005.065-.011.093-.016.007-.018.014-.029.013-.039-.002-.022 0-.05-.013-.064-1.982-2.35-3.965-4.7-5.948-7.047-.036-.043-.084-.075-.162-.143zm8.82 6.297c.175-.041.226-.151.298-.234l4.225-4.99c.482-.57.964-1.138 1.443-1.71.08-.094.184-.176.194-.316-.022-.028-.039-.061-.065-.081a4.48 4.48 0 0 0-.25-.183 11.784 11.784 0 0 0-5.5-1.97 1.25 1.25 0 0 0-.206-.004c-.077.004-.132.05-.14.126-.011.102-.014.205-.014.308v8.68c0 .112.01.225.015.374z" fill="#003C71"/>
    <path d="M18.815 16.727c-.122.114-.186.161-.235.22-.27.329-.547.65-.8.992-.472.635-.924 1.285-1.395 1.922-.272.37-.552.734-.849 1.084a.75.75 0 0 0-.186.528c.007 1.408.004 2.816.004 4.224v4.26c0 .125.005.25.007.353.091.1.189.08.279.08.38.003.761 0 1.142.003.113 0 .232-.025.335.046-.016.342-.194 1.248-.302 1.524-.093.005-.195.016-.297.017-4.226.04-13.633.016-13.96-.038-.071-.154-.032-.327-.039-.494-.006-.16-.002-.32 0-.48 0-.171.004-.342.007-.53.346-.106.698.008 1.027-.077.017-.043.04-.075.04-.105.003-1.34.004-2.679.004-4.018 0-.043-.018-.086-.032-.148-.332-.061-.669.01-1.01-.05-.068-.258-.032-.509-.034-.756-.004-.25-.018-.501.017-.772.099-.013.186-.034.274-.035.392-.003.784-.002 1.177-.002.831 0 1.66-.04 2.481-.174a13.029 13.029 0 0 0 6.414-2.955 12.648 12.648 0 0 0 2.099-2.273c.504-.698 1.004-1.4 1.513-2.093 1.92-2.614 4.483-4.24 7.67-4.896a10.967 10.967 0 0 1 2.2-.226l5.19-.002c.092 0 .183.01.286.015.094.261.042.525.047.782.006.249.023.5-.018.762-.22.055-.427.021-.63.03-.206.01-.412-.021-.633.028-.01.076-.023.141-.026.207-.004.115-.002.23-.002.344 0 3.366 0 6.732-.002 10.097 0 .133.024.27-.031.406-.044-.005-.081 0-.11-.012-.433-.19-.864-.381-1.295-.574-.051-.023-.096-.06-.162-.103V13.497c-.084-.02-.148-.048-.211-.048-.9 0-1.8 0-2.7.006-.17.001-.342.032-.524.05-.012.095-.028.172-.032.25-.005.114-.002.229-.002.343v7.728c0 .136-.004.272-.007.434-.088-.016-.155-.017-.213-.042-.285-.122-.568-.252-.836-.37-.195-.005-.328.153-.51.136-.056-.139-.033-.277-.033-.413-.002-2.45-.001-4.9-.002-7.35 0-.134.028-.273-.05-.42-.058.01-.113.016-.165.03-1.09.291-2.1.754-3.049 1.36-.152.097-.238.206-.218.39.009.09.001.183.001.274v7.282c0 .148-.006.296-.01.429-.236.159-1.173.585-1.542.704-.017-.05-.044-.1-.047-.15-.008-.103-.004-.207-.004-.31v-6.593c-.003-.134-.007-.27-.01-.49zm-5.061 13.615v-7.18c0-.08.001-.16-.002-.24-.002-.054.01-.118-.074-.138-.35.252-.695.518-1.059.759-.372.247-.756.48-1.147.7-.379.212-.773.399-1.177.604-.003.128-.009.252-.009.376v3.12c0 .572-.002 1.144 0 1.715.002.1-.024.206.059.308.034.007.078.021.122.021 1.049 0 2.096 0 3.145-.003.03.002.063-.017.142-.042zm-8.524-4.29c-.01.136-.02.237-.02.339-.004.25-.001.503-.001.754 0 .949-.002 1.897.001 2.846 0 .121-.028.25.066.379.08.006.17.02.26.02.298.004.598.002.898.002.644 0 1.29.002 1.934-.001.1-.001.21.025.309-.089.002-.103.007-.228.007-.353v-3.052l-.001-1.2c-.001-.075.018-.16-.084-.234-.349.085-.713.184-1.082.262-.372.078-.746.145-1.122.2-.373.052-.75.082-1.165.127z" fill="#26BED6"/>
    <path d="M18.981 25.19c.248-.163 5.072-2.328 5.453-2.45.111.049.239.1.364.157l4.604 2.06c.063.028.124.063.19.086.182.064.257.189.292.381.184 1.025.386 2.047.578 3.069.204 1.08.405 2.159.607 3.239.01.054.014.11.023.183-.063.02-.113.045-.165.05-.092.009-.185.005-.277.005h-4.603c-.137 0-.274-.006-.385-.01-.135-.124-.147-.268-.183-.397-.31-1.102-.613-2.206-.92-3.308-.03-.108-.071-.213-.119-.356-.055.052-.096.075-.109.107-.033.086-.055.175-.08.263-.31 1.114-.62 2.227-.933 3.34-.03.11-.069.216-.106.33-.094.01-.173.03-.25.03a3941.5 3941.5 0 0 1-4.984 0c-.067 0-.135-.011-.182-.016-.092-.082-.067-.161-.052-.24l.484-2.562.673-3.576c.021-.125.05-.247.08-.386z" fill="#9FC43A"/>
</svg>
