<svg width="16" height="16" viewBox="0 0 16 16" fill="none" xmlns="http://www.w3.org/2000/svg">
    <path d="M9.233 2.834v1.613M9.233 11.84v1.35M9.233 9.55V6.336" stroke="#828282" stroke-linecap="round" stroke-linejoin="round"/>
    <path clip-rule="evenodd" d="M12.468 13.334c1.214 0 2.198-.972 2.198-2.172V9.434a1.44 1.44 0 0 1-1.45-1.433 1.44 1.44 0 0 1 1.45-1.434V4.838c0-1.2-.985-2.171-2.199-2.171H3.532c-1.214 0-2.198.972-2.198 2.171l-.001 1.786c.804 0 1.451.583 1.451 1.377a1.44 1.44 0 0 1-1.451 1.433v1.728c0 1.2.984 2.172 2.199 2.172h8.936z" stroke="#828282" stroke-linecap="round" stroke-linejoin="round"/>
</svg>
