<svg xmlns="http://www.w3.org/2000/svg" width="16" height="16" fill="none" viewBox="0 0 16 16">
    <path fill="#6D6E71" fill-rule="evenodd" d="M11.81 2.769h.816c.599 0 1.089.49 1.089 1.088v8.708c0 .598-.49 1.088-1.089 1.088H3.375c-.6 0-1.089-.49-1.089-1.088V3.857c0-.598.49-1.088 1.089-1.088h.816v-.544c0-.3.245-.545.544-.545.3 0 .544.245.544.545v.544h5.443v-.544c0-.3.244-.545.544-.545.299 0 .544.245.544.545v.544zM3.647 12.837h8.707c.3 0 .544-.245.544-.544V5.082H3.102v7.21c0 .3.245.545.545.545z" clip-rule="evenodd"/>
</svg>
