<svg xmlns="http://www.w3.org/2000/svg" width="24" height="24" fill="none" viewBox="0 0 24 24">
    <path fill="#003C71" d="M22.191 9.75l-1.683-5.611C20.124 2.859 18.969 2 17.634 2H6.366c-1.335 0-2.49.86-2.874 2.139L1.81 9.749C.746 10.211 0 11.27 0 12.5v6c0 .828.672 1.5 1.5 1.5v1.5c0 .828.672 1.5 1.5 1.5h1.5c.828 0 1.5-.672 1.5-1.5V20h12v1.5c0 .828.671 1.5 1.5 1.5H21c.828 0 1.5-.672 1.5-1.5V20c.828 0 1.5-.672 1.5-1.5v-6c0-1.231-.746-2.289-1.809-2.75zM6.366 5h11.268l1.35 4.5H5.016L6.366 5zM6 16.25c-.829 0-1.5-.672-1.5-1.5 0-.829.671-1.5 1.5-1.5.828 0 1.5.671 1.5 1.5 0 .828-.672 1.5-1.5 1.5zm12 0c-.828 0-1.5-.672-1.5-1.5 0-.829.672-1.5 1.5-1.5s1.5.671 1.5 1.5c0 .828-.672 1.5-1.5 1.5z"/>
</svg>
