<svg xmlns="http://www.w3.org/2000/svg" width="16" height="16" fill="none" viewBox="0 0 16 16">
    <path fill="#6D6E71" fill-rule="evenodd" d="M11.667 2.667c.44 0 .813.28.946.673l1.314 3.78c.046.14.073.293.073.44v4.773c0 .554-.453 1-1 1-.553 0-1-.453-1-1V12H4v.333c0 .554-.447 1-1 1-.553 0-1-.446-1-1V7.56c0-.153.027-.3.073-.44l1.314-3.78c.14-.393.506-.673.946-.673h7.334zM3.333 9c0 .553.447 1 1 1 .554 0 1-.447 1-1 0-.553-.446-1-1-1-.553 0-1 .447-1 1zm8.334 1c-.554 0-1-.447-1-1 0-.553.446-1 1-1 .553 0 1 .447 1 1 0 .553-.447 1-1 1zM4.18 4.12l-.847 2.547h9.334L11.82 4.12c-.093-.267-.347-.453-.633-.453H4.813c-.286 0-.54.186-.633.453z" clip-rule="evenodd"/>
</svg>
