<svg width="24" height="24" viewBox="0 0 24 24" fill="none" xmlns="http://www.w3.org/2000/svg">
<path d="M21.5377 5.85767H16.6854V4.67019C16.6854 3.19789 15.4875 2 14.0152 2H9.9847C8.51241 2 7.31452 3.19784 7.31452 4.67019V5.85767H2.46225C1.10456 5.85767 0 6.96219 0 8.31992V20.4157C0 21.7734 1.10456 22.8779 2.46225 22.8779H21.5377C22.8954 22.8779 24 21.7734 24 20.4157V8.31992C24 6.96219 22.8954 5.85767 21.5377 5.85767ZM8.74884 4.67019C8.74884 3.98872 9.30328 3.43428 9.98475 3.43428H14.0153C14.6967 3.43428 15.2512 3.98872 15.2512 4.67019V5.85767H8.74884V4.67019ZM22.5657 20.4157C22.5657 20.9825 22.1046 21.4437 21.5377 21.4437H2.46225C1.89544 21.4437 1.43428 20.9825 1.43428 20.4157V8.31992C1.43428 7.75311 1.89544 7.29195 2.46225 7.29195H21.5377C22.1046 7.29195 22.5657 7.75311 22.5657 8.31992V20.4157V20.4157Z" fill="#26BED6"/>
<path d="M6.14844 13.0586V12.25C6.91016 12.1758 7.44141 12.0527 7.74219 11.8809C8.04297 11.7051 8.26758 11.293 8.41602 10.6445H9.24805V19H8.12305V13.0586H6.14844Z" fill="#26BED6"/>
<path d="M13.1621 16.8613C13.2324 17.4629 13.5117 17.8789 14 18.1094C14.25 18.2266 14.5391 18.2852 14.8672 18.2852C15.4922 18.2852 15.9551 18.0859 16.2559 17.6875C16.5566 17.2891 16.707 16.8477 16.707 16.3633C16.707 15.7773 16.5273 15.3242 16.168 15.0039C15.8125 14.6836 15.3848 14.5234 14.8848 14.5234C14.5215 14.5234 14.209 14.5938 13.9473 14.7344C13.6895 14.875 13.4688 15.0703 13.2852 15.3203L12.3711 15.2676L13.0098 10.75H17.3691V11.7695H13.8008L13.4434 14.1016C13.6387 13.9531 13.8242 13.8418 14 13.7676C14.3125 13.6387 14.6738 13.5742 15.084 13.5742C15.8535 13.5742 16.5059 13.8223 17.041 14.3184C17.5762 14.8145 17.8438 15.4434 17.8438 16.2051C17.8438 16.998 17.5977 17.6973 17.1055 18.3027C16.6172 18.9082 15.8359 19.2109 14.7617 19.2109C14.0781 19.2109 13.4727 19.0195 12.9453 18.6367C12.4219 18.25 12.1289 17.6582 12.0664 16.8613H13.1621Z" fill="#26BED6"/>
</svg>
