<svg width="16" height="16" viewBox="0 0 16 16" fill="none" xmlns="http://www.w3.org/2000/svg">
<path d="M14.3585 3.90528H11.1236V3.11362C11.1236 2.13209 10.325 1.3335 9.34347 1.3335H6.65647C5.67494 1.3335 4.87634 2.13206 4.87634 3.11362V3.90528H1.6415C0.736375 3.90528 0 4.64162 0 5.54678V13.6106C0 14.5157 0.736375 15.2521 1.6415 15.2521H14.3585C15.2636 15.2521 16 14.5157 16 13.6106V5.54678C16 4.64162 15.2636 3.90528 14.3585 3.90528ZM5.83256 3.11362C5.83256 2.65931 6.20219 2.28968 6.6565 2.28968H9.3435C9.79781 2.28968 10.1674 2.65931 10.1674 3.11362V3.90528H5.83256V3.11362ZM15.0438 13.6106C15.0438 13.9885 14.7364 14.2959 14.3585 14.2959H1.6415C1.26362 14.2959 0.956187 13.9885 0.956187 13.6106V5.54678C0.956187 5.1689 1.26362 4.86146 1.6415 4.86146H14.3585C14.7364 4.86146 15.0438 5.1689 15.0438 5.54678V13.6106V13.6106Z" fill="#26BED6"/>
<path d="M3.58333 12.3335C3.60937 11.8517 3.70833 11.4325 3.8802 11.0757C4.05468 10.7189 4.39322 10.3947 4.89583 10.103L5.64583 9.66943C5.98177 9.47412 6.21744 9.30745 6.35286 9.16943C6.5664 8.95329 6.67317 8.70589 6.67317 8.42725C6.67317 8.10173 6.57552 7.84391 6.3802 7.65381C6.18489 7.4611 5.92447 7.36475 5.59895 7.36475C5.11718 7.36475 4.78385 7.54704 4.59895 7.91162C4.49999 8.10693 4.44531 8.37777 4.43489 8.72412H3.72005C3.72786 8.23714 3.8177 7.84001 3.98958 7.53271C4.29427 6.99105 4.83203 6.72021 5.60286 6.72021C6.24348 6.72021 6.71093 6.89339 7.0052 7.23975C7.30208 7.5861 7.45052 7.97152 7.45052 8.396C7.45052 8.84391 7.29296 9.22673 6.97786 9.54443C6.79557 9.72933 6.46874 9.95329 5.99739 10.2163L5.46223 10.5132C5.20703 10.6538 5.00651 10.7879 4.86067 10.9155C4.60026 11.1421 4.43619 11.3934 4.36848 11.6694H7.42317V12.3335H3.58333ZM9.86458 12.4858C9.20312 12.4858 8.72265 12.3049 8.42317 11.9429C8.1263 11.5783 7.97786 11.1356 7.97786 10.6147H8.71223C8.74348 10.9767 8.81119 11.2397 8.91536 11.4038C9.09765 11.6981 9.42708 11.8452 9.90364 11.8452C10.2734 11.8452 10.5703 11.7463 10.7943 11.5483C11.0182 11.3504 11.1302 11.0952 11.1302 10.7827C11.1302 10.3973 11.0117 10.1278 10.7747 9.97412C10.5404 9.82048 10.2135 9.74365 9.79427 9.74365C9.74739 9.74365 9.69921 9.74495 9.64973 9.74756C9.60286 9.74756 9.55468 9.74886 9.5052 9.75146V9.13037C9.57812 9.13818 9.63932 9.14339 9.6888 9.146C9.73828 9.1486 9.79166 9.1499 9.84895 9.1499C10.112 9.1499 10.3281 9.10824 10.4974 9.0249C10.7943 8.87907 10.9427 8.61865 10.9427 8.24365C10.9427 7.96501 10.8437 7.75016 10.6458 7.59912C10.4479 7.44808 10.2174 7.37256 9.95442 7.37256C9.48567 7.37256 9.16145 7.52881 8.98177 7.84131C8.88281 8.01318 8.82682 8.25798 8.8138 8.57568H8.11848C8.11848 8.15902 8.20182 7.80485 8.36848 7.51318C8.65494 6.99235 9.15885 6.73193 9.8802 6.73193C10.4505 6.73193 10.8919 6.85954 11.2044 7.11475C11.5169 7.36735 11.6732 7.73454 11.6732 8.21631C11.6732 8.56006 11.5807 8.8387 11.3958 9.05225C11.2812 9.18506 11.1328 9.28923 10.9505 9.36475C11.2448 9.44548 11.474 9.60173 11.638 9.8335C11.8047 10.0627 11.888 10.3439 11.888 10.6772C11.888 11.2111 11.7122 11.646 11.3607 11.9819C11.0091 12.3179 10.5104 12.4858 9.86458 12.4858Z" fill="#26BED6"/>
</svg>
