<svg width="16" height="16" viewBox="0 0 16 16" fill="none" xmlns="http://www.w3.org/2000/svg">
<path d="M14.3585 3.90528H11.1236V3.11362C11.1236 2.13209 10.325 1.3335 9.34347 1.3335H6.65647C5.67494 1.3335 4.87634 2.13206 4.87634 3.11362V3.90528H1.6415C0.736375 3.90528 0 4.64162 0 5.54678V13.6106C0 14.5157 0.736375 15.2521 1.6415 15.2521H14.3585C15.2636 15.2521 16 14.5157 16 13.6106V5.54678C16 4.64162 15.2636 3.90528 14.3585 3.90528ZM5.83256 3.11362C5.83256 2.65931 6.20219 2.28968 6.6565 2.28968H9.3435C9.79781 2.28968 10.1674 2.65931 10.1674 3.11362V3.90528H5.83256V3.11362ZM15.0438 13.6106C15.0438 13.9885 14.7364 14.2959 14.3585 14.2959H1.6415C1.26362 14.2959 0.956187 13.9885 0.956187 13.6106V5.54678C0.956187 5.1689 1.26362 4.86146 1.6415 4.86146H14.3585C14.7364 4.86146 15.0438 5.1689 15.0438 5.54678V13.6106V13.6106Z" fill="#26BED6"/>
<path d="M3.58333 12.3335C3.60937 11.8517 3.70833 11.4325 3.8802 11.0757C4.05468 10.7189 4.39322 10.3947 4.89583 10.103L5.64583 9.66943C5.98177 9.47412 6.21744 9.30745 6.35286 9.16943C6.5664 8.95329 6.67317 8.70589 6.67317 8.42725C6.67317 8.10173 6.57552 7.84391 6.3802 7.65381C6.18489 7.4611 5.92447 7.36475 5.59895 7.36475C5.11718 7.36475 4.78385 7.54704 4.59895 7.91162C4.49999 8.10693 4.44531 8.37777 4.43489 8.72412H3.72005C3.72786 8.23714 3.8177 7.84001 3.98958 7.53271C4.29427 6.99105 4.83203 6.72021 5.60286 6.72021C6.24348 6.72021 6.71093 6.89339 7.0052 7.23975C7.30208 7.5861 7.45052 7.97152 7.45052 8.396C7.45052 8.84391 7.29296 9.22673 6.97786 9.54443C6.79557 9.72933 6.46874 9.95329 5.99739 10.2163L5.46223 10.5132C5.20703 10.6538 5.00651 10.7879 4.86067 10.9155C4.60026 11.1421 4.43619 11.3934 4.36848 11.6694H7.42317V12.3335H3.58333ZM9.95052 6.73975C10.6745 6.73975 11.1979 7.03792 11.5208 7.63428C11.7708 8.09521 11.8958 8.72673 11.8958 9.52881C11.8958 10.2892 11.7825 10.9181 11.556 11.4155C11.2279 12.1291 10.6914 12.4858 9.94661 12.4858C9.27473 12.4858 8.77473 12.1942 8.44661 11.6108C8.17317 11.1239 8.03645 10.4702 8.03645 9.6499C8.03645 9.01449 8.11848 8.46891 8.28255 8.01318C8.58984 7.16423 9.14583 6.73975 9.95052 6.73975ZM9.9427 11.8452C10.3073 11.8452 10.5977 11.6838 10.8138 11.3608C11.0299 11.0379 11.138 10.4364 11.138 9.55615C11.138 8.92074 11.0599 8.3986 10.9036 7.98975C10.7474 7.57829 10.444 7.37256 9.99348 7.37256C9.57942 7.37256 9.27604 7.56787 9.08333 7.9585C8.89322 8.34652 8.79817 8.91943 8.79817 9.67725C8.79817 10.2476 8.85937 10.7059 8.98177 11.0522C9.16927 11.5809 9.48958 11.8452 9.9427 11.8452Z" fill="#26BED6"/>
</svg>
