<svg width="16" height="16" viewBox="0 0 16 16" fill="none" xmlns="http://www.w3.org/2000/svg">
<path d="M14.3585 3.90528H11.1236V3.11362C11.1236 2.13209 10.325 1.3335 9.34347 1.3335H6.65647C5.67494 1.3335 4.87634 2.13206 4.87634 3.11362V3.90528H1.6415C0.736375 3.90528 0 4.64162 0 5.54678V13.6106C0 14.5157 0.736375 15.2521 1.6415 15.2521H14.3585C15.2636 15.2521 16 14.5157 16 13.6106V5.54678C16 4.64162 15.2636 3.90528 14.3585 3.90528ZM5.83256 3.11362C5.83256 2.65931 6.20219 2.28968 6.6565 2.28968H9.3435C9.79781 2.28968 10.1674 2.65931 10.1674 3.11362V3.90528H5.83256V3.11362ZM15.0438 13.6106C15.0438 13.9885 14.7364 14.2959 14.3585 14.2959H1.6415C1.26362 14.2959 0.956187 13.9885 0.956187 13.6106V5.54678C0.956187 5.1689 1.26362 4.86146 1.6415 4.86146H14.3585C14.7364 4.86146 15.0438 5.1689 15.0438 5.54678V13.6106V13.6106Z" fill="#26BED6"/>
<path d="M5.41146 12.4858C4.75 12.4858 4.26953 12.3049 3.97005 11.9429C3.67318 11.5783 3.52474 11.1356 3.52474 10.6147H4.25912C4.29037 10.9767 4.35808 11.2397 4.46224 11.4038C4.64453 11.6981 4.97396 11.8452 5.45052 11.8452C5.82032 11.8452 6.11719 11.7463 6.34115 11.5483C6.56511 11.3504 6.67709 11.0952 6.67709 10.7827C6.67709 10.3973 6.5586 10.1278 6.32162 9.97412C6.08724 9.82048 5.76042 9.74365 5.34115 9.74365C5.29427 9.74365 5.2461 9.74495 5.19662 9.74756C5.14974 9.74756 5.10157 9.74886 5.05209 9.75146V9.13037C5.125 9.13818 5.1862 9.14339 5.23568 9.146C5.28516 9.1486 5.33854 9.1499 5.39584 9.1499C5.65886 9.1499 5.875 9.10824 6.04427 9.0249C6.34115 8.87907 6.48959 8.61865 6.48959 8.24365C6.48959 7.96501 6.39063 7.75016 6.19271 7.59912C5.99479 7.44808 5.76433 7.37256 5.5013 7.37256C5.03255 7.37256 4.70834 7.52881 4.52865 7.84131C4.42969 8.01318 4.3737 8.25798 4.36068 8.57568H3.66537C3.66537 8.15902 3.7487 7.80485 3.91537 7.51318C4.20183 6.99235 4.70573 6.73193 5.42709 6.73193C5.9974 6.73193 6.4388 6.85954 6.7513 7.11475C7.0638 7.36735 7.22005 7.73454 7.22005 8.21631C7.22005 8.56006 7.12761 8.8387 6.94271 9.05225C6.82813 9.18506 6.67969 9.28923 6.4974 9.36475C6.79167 9.44548 7.02084 9.60173 7.1849 9.8335C7.35157 10.0627 7.4349 10.3439 7.4349 10.6772C7.4349 11.2111 7.25912 11.646 6.90755 11.9819C6.55599 12.3179 6.05729 12.4858 5.41146 12.4858ZM8.03646 12.3335C8.0625 11.8517 8.16146 11.4325 8.33334 11.0757C8.50782 10.7189 8.84636 10.3947 9.34896 10.103L10.099 9.66943C10.4349 9.47412 10.6706 9.30745 10.806 9.16943C11.0195 8.95329 11.1263 8.70589 11.1263 8.42725C11.1263 8.10173 11.0286 7.84391 10.8333 7.65381C10.638 7.4611 10.3776 7.36475 10.0521 7.36475C9.57032 7.36475 9.23698 7.54704 9.05209 7.91162C8.95313 8.10693 8.89844 8.37777 8.88802 8.72412H8.17318C8.18099 8.23714 8.27084 7.84001 8.44271 7.53271C8.7474 6.99105 9.28516 6.72021 10.056 6.72021C10.6966 6.72021 11.1641 6.89339 11.4583 7.23975C11.7552 7.5861 11.9036 7.97152 11.9036 8.396C11.9036 8.84391 11.7461 9.22673 11.431 9.54443C11.2487 9.72933 10.9219 9.95329 10.4505 10.2163L9.91537 10.5132C9.66016 10.6538 9.45964 10.7879 9.3138 10.9155C9.05339 11.1421 8.88933 11.3934 8.82162 11.6694H11.8763V12.3335H8.03646Z" fill="#26BED6"/>
</svg>
