<svg width="24" height="24" viewBox="0 0 24 24" fill="none" xmlns="http://www.w3.org/2000/svg">
<path d="M21.5377 5.85767H16.6854V4.67019C16.6854 3.19789 15.4875 2 14.0152 2H9.9847C8.51241 2 7.31452 3.19784 7.31452 4.67019V5.85767H2.46225C1.10456 5.85767 0 6.96219 0 8.31992V20.4157C0 21.7734 1.10456 22.8779 2.46225 22.8779H21.5377C22.8954 22.8779 24 21.7734 24 20.4157V8.31992C24 6.96219 22.8954 5.85767 21.5377 5.85767ZM8.74884 4.67019C8.74884 3.98872 9.30328 3.43428 9.98475 3.43428H14.0153C14.6967 3.43428 15.2512 3.98872 15.2512 4.67019V5.85767H8.74884V4.67019ZM22.5657 20.4157C22.5657 20.9825 22.1046 21.4437 21.5377 21.4437H2.46225C1.89544 21.4437 1.43428 20.9825 1.43428 20.4157V8.31992C1.43428 7.75311 1.89544 7.29195 2.46225 7.29195H21.5377C22.1046 7.29195 22.5657 7.75311 22.5657 8.31992V20.4157V20.4157Z" fill="#26BED6"/>
<path d="M8.9668 16.0293V12.2266L6.27734 16.0293H8.9668ZM8.98438 19V16.9492H5.30469V15.918L9.14844 10.5859H10.0391V16.0293H11.2754V16.9492H10.0391V19H8.98438Z" fill="#26BED6"/>
<path d="M14.9258 10.6094C16.0117 10.6094 16.7969 11.0566 17.2812 11.9512C17.6562 12.6426 17.8438 13.5898 17.8438 14.793C17.8438 15.9336 17.6738 16.877 17.334 17.623C16.8418 18.6934 16.0371 19.2285 14.9199 19.2285C13.9121 19.2285 13.1621 18.791 12.6699 17.916C12.2598 17.1855 12.0547 16.2051 12.0547 14.9746C12.0547 14.0215 12.1777 13.2031 12.4238 12.5195C12.8848 11.2461 13.7188 10.6094 14.9258 10.6094ZM14.9141 18.2676C15.4609 18.2676 15.8965 18.0254 16.2207 17.541C16.5449 17.0566 16.707 16.1543 16.707 14.834C16.707 13.8809 16.5898 13.0977 16.3555 12.4844C16.1211 11.8672 15.666 11.5586 14.9902 11.5586C14.3691 11.5586 13.9141 11.8516 13.625 12.4375C13.3398 13.0195 13.1973 13.8789 13.1973 15.0156C13.1973 15.8711 13.2891 16.5586 13.4727 17.0781C13.7539 17.8711 14.2344 18.2676 14.9141 18.2676Z" fill="#26BED6"/>
</svg>
