<svg width="16" height="16" viewBox="0 0 16 16" fill="none" xmlns="http://www.w3.org/2000/svg">
<path d="M14.3585 3.90528H11.1236V3.11362C11.1236 2.13209 10.325 1.3335 9.34347 1.3335H6.65647C5.67494 1.3335 4.87634 2.13206 4.87634 3.11362V3.90528H1.6415C0.736375 3.90528 0 4.64162 0 5.54678V13.6106C0 14.5157 0.736375 15.2521 1.6415 15.2521H14.3585C15.2636 15.2521 16 14.5157 16 13.6106V5.54678C16 4.64162 15.2636 3.90528 14.3585 3.90528ZM5.83256 3.11362C5.83256 2.65931 6.20219 2.28968 6.6565 2.28968H9.3435C9.79781 2.28968 10.1674 2.65931 10.1674 3.11362V3.90528H5.83256V3.11362ZM15.0438 13.6106C15.0438 13.9885 14.7364 14.2959 14.3585 14.2959H1.6415C1.26362 14.2959 0.956187 13.9885 0.956187 13.6106V5.54678C0.956187 5.1689 1.26362 4.86146 1.6415 4.86146H14.3585C14.7364 4.86146 15.0438 5.1689 15.0438 5.54678V13.6106V13.6106Z" fill="#26BED6"/>
<path d="M5.41145 12.4858C4.74999 12.4858 4.26953 12.3049 3.97005 11.9429C3.67317 11.5783 3.52473 11.1356 3.52473 10.6147H4.25911C4.29036 10.9767 4.35807 11.2397 4.46223 11.4038C4.64453 11.6981 4.97395 11.8452 5.45052 11.8452C5.82031 11.8452 6.11718 11.7463 6.34114 11.5483C6.5651 11.3504 6.67708 11.0952 6.67708 10.7827C6.67708 10.3973 6.55859 10.1278 6.32161 9.97412C6.08723 9.82048 5.76041 9.74365 5.34114 9.74365C5.29427 9.74365 5.24609 9.74495 5.19661 9.74756C5.14973 9.74756 5.10156 9.74886 5.05208 9.75146V9.13037C5.12499 9.13818 5.18619 9.14339 5.23567 9.146C5.28515 9.1486 5.33854 9.1499 5.39583 9.1499C5.65885 9.1499 5.87499 9.10824 6.04427 9.0249C6.34114 8.87907 6.48958 8.61865 6.48958 8.24365C6.48958 7.96501 6.39062 7.75016 6.1927 7.59912C5.99479 7.44808 5.76432 7.37256 5.5013 7.37256C5.03255 7.37256 4.70833 7.52881 4.52864 7.84131C4.42968 8.01318 4.37369 8.25798 4.36067 8.57568H3.66536C3.66536 8.15902 3.74869 7.80485 3.91536 7.51318C4.20182 6.99235 4.70572 6.73193 5.42708 6.73193C5.99739 6.73193 6.4388 6.85954 6.7513 7.11475C7.0638 7.36735 7.22005 7.73454 7.22005 8.21631C7.22005 8.56006 7.1276 8.8387 6.9427 9.05225C6.82812 9.18506 6.67968 9.28923 6.49739 9.36475C6.79166 9.44548 7.02083 9.60173 7.18489 9.8335C7.35156 10.0627 7.43489 10.3439 7.43489 10.6772C7.43489 11.2111 7.25911 11.646 6.90755 11.9819C6.55598 12.3179 6.05729 12.4858 5.41145 12.4858ZM9.95052 6.73975C10.6745 6.73975 11.1979 7.03792 11.5208 7.63428C11.7708 8.09521 11.8958 8.72673 11.8958 9.52881C11.8958 10.2892 11.7825 10.9181 11.556 11.4155C11.2279 12.1291 10.6914 12.4858 9.94661 12.4858C9.27473 12.4858 8.77473 12.1942 8.44661 11.6108C8.17317 11.1239 8.03645 10.4702 8.03645 9.6499C8.03645 9.01449 8.11848 8.46891 8.28255 8.01318C8.58984 7.16423 9.14583 6.73975 9.95052 6.73975ZM9.9427 11.8452C10.3073 11.8452 10.5977 11.6838 10.8138 11.3608C11.0299 11.0379 11.138 10.4364 11.138 9.55615C11.138 8.92074 11.0599 8.3986 10.9036 7.98975C10.7474 7.57829 10.444 7.37256 9.99348 7.37256C9.57942 7.37256 9.27604 7.56787 9.08333 7.9585C8.89322 8.34652 8.79817 8.91943 8.79817 9.67725C8.79817 10.2476 8.85937 10.7059 8.98177 11.0522C9.16927 11.5809 9.48958 11.8452 9.9427 11.8452Z" fill="#26BED6"/>
</svg>
