<svg width="24" height="24" viewBox="0 0 24 24" fill="none" xmlns="http://www.w3.org/2000/svg">
    <path fill-rule="evenodd" clip-rule="evenodd" d="M14.888 7.267a.72.72 0 0 1-.002.998l-8.958 9.177a.672.672 0 0 1-.967 0L.89 13.27a.72.72 0 0 1-.003-.998.672.672 0 0 1 .97-.002l3.588 3.675 8.473-8.68a.672.672 0 0 1 .97.002z" fill="#868998"/>
    <path fill-rule="evenodd" clip-rule="evenodd" d="M14.888 7.267a.72.72 0 0 1-.002.998l-8.958 9.177a.672.672 0 0 1-.967 0L.89 13.27a.72.72 0 0 1-.003-.998.672.672 0 0 1 .97-.002l3.588 3.675 8.473-8.68a.672.672 0 0 1 .97.002zM15.771 10.588c0-.39.307-.706.686-.706h6.171c.38 0 .686.316.686.706 0 .39-.307.706-.686.706h-6.171a.696.696 0 0 1-.686-.706zm-3.428 3.53c0-.39.307-.706.685-.706H19.2c.378 0 .686.316.686.706 0 .39-.308.705-.686.705h-6.172a.696.696 0 0 1-.685-.705zm-3.429 3.529c0-.39.307-.706.686-.706h6.171c.379 0 .686.316.686.706 0 .39-.307.706-.686.706H9.6a.696.696 0 0 1-.686-.706z" fill="#868998"/>
    <path fill-rule="evenodd" clip-rule="evenodd" d="M15.771 10.588c0-.39.307-.706.686-.706h6.171c.38 0 .686.316.686.706 0 .39-.307.706-.686.706h-6.171a.696.696 0 0 1-.686-.706zm-3.428 3.53c0-.39.307-.706.685-.706H19.2c.378 0 .686.316.686.706 0 .39-.308.705-.686.705h-6.172a.696.696 0 0 1-.685-.705zm-3.429 3.529c0-.39.307-.706.686-.706h6.171c.379 0 .686.316.686.706 0 .39-.307.706-.686.706H9.6a.696.696 0 0 1-.686-.706z" fill="#868998"/>
</svg>
