<svg width="32" height="32" viewBox="0 0 32 32" fill="none" xmlns="http://www.w3.org/2000/svg">
    <path stroke="#26BED6" stroke-width="2" stroke-linejoin="round" d="M2.667 2.667h26.667v26.667H2.667z"/>
    <path d="M14 9.5h10M14 16h10M14 22.5h10" stroke="#26BED6" stroke-width="2" stroke-linecap="round"/>
    <path fill-rule="evenodd" clip-rule="evenodd" d="M8.333 10.667a1.333 1.333 0 1 0 0-2.667 1.333 1.333 0 0 0 0 2.667zM8.333 17.334a1.333 1.333 0 1 0 0-2.667 1.333 1.333 0 0 0 0 2.667zM8.333 24a1.333 1.333 0 1 0 0-2.667 1.333 1.333 0 0 0 0 2.667z" fill="#26BED6"/>
</svg>
