<svg xmlns="http://www.w3.org/2000/svg" width="18" height="14" fill="none" viewBox="0 0 18 14">
    <g clip-path="url(#prefix__clip0)">
        <path stroke="#828282" stroke-linecap="round" stroke-linejoin="round" stroke-miterlimit="10" stroke-width=".75" d="M17.365 8.827L16.2 7.685c-.212-.208-.423-.312-.635-.416-.636-.207-1.27-.415-2.012-.623-.53-.104-1.059-.311-1.588-.415-.106 0-.318 0-.53-.104-.635-.83-1.376-1.765-2.117-2.596C8.682 2.7 7.94 1.869 7.306 1.038c-.212-.207-1.8-.623-1.8-.519.212.623.53 1.246.741 1.87L7.2 4.88c0 .104.106.104.106.207-.53-.103-1.059-.207-1.694-.415-.741-.104-1.483-.311-2.224-.52-.212 0-.317-.103-.317-.207-.106-.934-.212-1.973-.424-2.908 0 0 0-.103-.106-.103C2.33.83 2.118.83 1.906.727 1.906.83 1.8.83 1.8.83L.53 4.569c0 .104 0 .208.105.208.53.208 1.06.52 1.589.727.635.415 1.27.727 2.011 1.038.53.208 1.165.416 1.694.727.424.104 4.66 1.662 4.765 1.766.318.103.741.207 1.059.311 1.165.312 2.223.623 3.494.727.53 0 .953.104 1.482-.104.106 0 .318-.104.424-.207.318-.312.424-.727.212-.935zM.53 12.98h16.94"/>
    </g>
    <defs>
        <clipPath id="prefix__clip0">
            <path fill="#fff" d="M0 0H18V13.5H0z"/>
        </clipPath>
    </defs>
</svg>
