<svg xmlns="http://www.w3.org/2000/svg" width="18" height="14" fill="none" viewBox="0 0 18 14">
    <g clip-path="url(#prefix__clip0)">
        <path stroke="#828282" stroke-linecap="round" stroke-linejoin="round" stroke-miterlimit="10" stroke-width=".75" d="M16.835 1.125c-.529 0-1.058.105-1.588.105-.212 0-.53.106-.741.317-.53.316-1.165.738-1.694 1.16-.424.316-.953.633-1.377.844-.211.105-.317.21-.529.316-1.059 0-2.224-.105-3.282-.105-1.165 0-2.224 0-3.389-.106-.317 0-1.694.95-1.482 1.055l1.906.633c.847.316 1.694.633 2.541.843.106 0 .106 0 .212.106-.424.316-.847.633-1.27 1.055-.636.422-1.271.949-1.907 1.476-.105.106-.211.106-.317 0-.953-.527-1.8-1.054-2.647-1.582h-.106c-.212.106-.424.211-.635.422 0 .106 0 .106.105.106.636 1.16 1.377 2.32 2.118 3.375.106.105.106.105.212.105.53-.21 1.059-.422 1.588-.738.741-.317 1.377-.633 2.118-.95.53-.21 1.059-.527 1.694-.843.423-.211 4.341-2.426 4.447-2.531.318-.211.635-.422.847-.633.953-.633 1.906-1.371 2.859-2.215.317-.317.741-.633.953-1.16.106-.106.106-.317.106-.422-.106-.317-.424-.633-.742-.633zM.53 13.465h16.94"/>
    </g>
    <defs>
        <clipPath id="prefix__clip0">
            <path fill="#fff" d="M0 0H18V13.5H0z"/>
        </clipPath>
    </defs>
</svg>
