<svg xmlns="http://www.w3.org/2000/svg" width="157" height="157" fill="none" viewBox="0 0 157 157">
    <g clip-path="url(#prefix__clip0)" opacity=".6">
        <path fill="#003C71" d="M123.545 103.645h-3.638c-1.62-.001-3.211-.428-4.612-1.24-1.402-.812-2.564-1.98-3.369-3.385l-9.11-15.895c-.805-1.406-1.968-2.573-3.37-3.385-1.401-.813-2.992-1.24-4.612-1.24H50.699l-5.623-44.77h3.17c1.627 0 3.187-.646 4.337-1.796s1.796-2.71 1.796-4.336V9.199c0-1.626-.646-3.186-1.796-4.336-1.15-1.15-2.71-1.797-4.337-1.797H25.144c-1.095 0-2.179.226-3.183.664-1.004.437-1.907 1.076-2.653 1.878-.746.802-1.32 1.75-1.683 2.782-.364 1.033-.511 2.13-.433 3.223l8.275 114.771c.167 2.319 1.206 4.489 2.909 6.073 1.702 1.584 3.94 2.465 6.266 2.465h95.973c1.598 0 3.169-.416 4.557-1.208 1.389-.791 2.547-1.931 3.361-3.306.814-1.375 1.255-2.939 1.281-4.537.026-1.598-.365-3.175-1.134-4.576l-7.071-12.879c-.793-1.444-1.96-2.65-3.379-3.489-1.419-.84-3.037-1.283-4.685-1.282z"/>
        <path fill="#26BED6" d="M99.644 121.125l.012-28.21c0-.806-.158-1.604-.466-2.348-.308-.744-.76-1.42-1.33-1.99-.57-.57-1.245-1.022-1.99-1.33-.744-.309-1.541-.468-2.347-.468h-49.06c-1.627 0-3.187.646-4.337 1.797-1.15 1.15-1.796 2.71-1.796 4.336v28.211c0 1.627.646 3.186 1.796 4.337 1.15 1.15 2.71 1.796 4.337 1.796h49.049c1.626 0 3.185-.646 4.335-1.796 1.15-1.149 1.797-2.708 1.797-4.335z"/>
        <path fill="#D3D3D3" d="M35.553 134.922h85.859v6.746h-85.86v-6.746z"/>
        <path fill="#003C71" d="M29.42 141.668h98.125v12.266H29.42v-12.266z"/>
        <path fill="#26BED6" d="M140.211 0h-11.192c-9.272 0-16.789 7.517-16.789 16.789v33.577c0 9.272 7.517 16.788 16.789 16.788h11.192c9.273 0 16.789-7.516 16.789-16.788V16.789C157 7.517 149.484 0 140.211 0z"/>
        <path fill="#EAEAE8" d="M157 16.789h-44.77c0-4.453 1.769-8.723 4.918-11.872C120.296 1.77 124.566 0 129.019 0h11.192c4.453 0 8.723 1.769 11.872 4.917C155.231 8.066 157 12.336 157 16.79z"/>
        <path fill="#DBDBDB" d="M123.423 49.255V16.789H112.23v33.577c0 4.453 1.769 8.723 4.918 11.872 3.148 3.148 7.418 4.917 11.871 4.917h8.394l-5.841-3.504c-2.485-1.492-4.542-3.602-5.971-6.125-1.428-2.522-2.178-5.372-2.178-8.271z"/>
        <path fill="#fff" d="M155.6 29.38c-2.264.003-4.475.695-6.338 1.983-1.863 1.288-3.29 3.112-4.092 5.23-2.367.503-4.464 1.864-5.887 3.822-1.423 1.958-2.07 4.373-1.817 6.78.253 2.406 1.388 4.634 3.187 6.253 1.799 1.62 4.133 2.515 6.553 2.514h8.818c.642-1.796.972-3.689.976-5.596V29.52c-.463-.076-.931-.123-1.4-.14z" opacity=".8"/>
    </g>
    <defs>
        <clipPath id="prefix__clip0">
            <path fill="#fff" d="M0 0H157V157H0z"/>
        </clipPath>
    </defs>
</svg>
