<svg width="18" height="19" viewBox="0 0 18 19" fill="none" xmlns="http://www.w3.org/2000/svg">
<g clip-path="url(#clip0)">
<path d="M14.6018 2.44287H11.9432V3.62551V4.04594C11.9432 4.46597 11.7941 4.84499 11.5123 5.14232C11.2304 5.43982 10.8711 5.59713 10.4736 5.59713H7.52549C7.12799 5.59713 6.76889 5.43982 6.48701 5.14252C6.20495 4.84499 6.05594 4.46597 6.05594 4.04594V3.62551V2.44287H3.39732C3.24558 2.44287 3.1141 2.50134 3.00332 2.61828C2.8925 2.73563 2.83691 2.8742 2.83691 3.03397V18.409C2.83691 18.569 2.89231 18.7077 3.00332 18.8247C3.1141 18.9416 3.24538 19.0003 3.39732 19.0003H7.14026C7.12662 18.9324 7.11824 18.8624 7.11824 18.7889V17.8175V16.0963C7.11824 15.8278 7.21089 15.5951 7.39737 15.398C7.58344 15.2022 7.80386 15.1036 8.05881 15.1036H9.94011C10.1946 15.1036 10.4151 15.2025 10.6015 15.398C10.7876 15.5951 10.8809 15.8278 10.8809 16.0963V17.8175V18.7889C10.8809 18.8624 10.8727 18.9324 10.8588 19.0004H14.6019C14.7535 19.0004 14.885 18.9417 14.9959 18.8247C15.1068 18.7076 15.1624 18.569 15.1624 18.409V3.03397C15.1624 2.874 15.1068 2.73543 14.9959 2.61828C14.8848 2.50134 14.7535 2.44287 14.6018 2.44287ZM13.6571 13.6115C13.5898 13.6826 13.5103 13.7179 13.4182 13.7179H12.7384C12.6464 13.7179 12.5665 13.6826 12.4993 13.6115C12.432 13.5405 12.3984 13.4565 12.3984 13.3593V12.6418C12.3984 12.5448 12.432 12.4606 12.4993 12.3896C12.5665 12.3188 12.6461 12.2829 12.7384 12.2829H13.4182C13.5103 12.2829 13.5898 12.3187 13.6571 12.3896C13.7244 12.4608 13.7582 12.5448 13.7582 12.6418V13.3593C13.7582 13.4565 13.7244 13.5407 13.6571 13.6115ZM13.7582 15.5119V16.2294C13.7582 16.3268 13.7244 16.411 13.6571 16.4817C13.5898 16.5529 13.5103 16.5881 13.4182 16.5881H12.7384C12.6464 16.5881 12.5665 16.5529 12.4993 16.4817C12.432 16.4108 12.3984 16.3268 12.3984 16.2294V15.5119C12.3984 15.4149 12.432 15.3307 12.4993 15.2597C12.5665 15.1889 12.6461 15.1533 12.7384 15.1533H13.4182C13.5103 15.1533 13.5898 15.1889 13.6571 15.2597C13.7244 15.3309 13.7582 15.4149 13.7582 15.5119ZM13.6571 10.7412C13.5898 10.8124 13.5103 10.8478 13.4182 10.8478H12.7384C12.6464 10.8478 12.5665 10.8124 12.4993 10.7412C12.432 10.6703 12.3984 10.5863 12.3984 10.489V9.77164C12.3984 9.67445 12.432 9.59021 12.4993 9.51939C12.5665 9.44837 12.6461 9.41278 12.7384 9.41278H13.4182C13.5103 9.41278 13.5898 9.44841 13.6571 9.51939C13.7244 9.59041 13.7582 9.67445 13.7582 9.77164V10.489C13.7582 10.5863 13.7244 10.6705 13.6571 10.7412ZM13.6571 7.87101C13.5898 7.94226 13.5103 7.97765 13.4182 7.97765H12.7384C12.6464 7.97765 12.5665 7.94223 12.4993 7.87101C12.432 7.80019 12.3984 7.71618 12.3984 7.61879V6.90126C12.3984 6.8043 12.432 6.72006 12.4993 6.64904C12.5665 6.57822 12.6461 6.54259 12.7384 6.54259H13.4182C13.5103 6.54259 13.5898 6.57822 13.6571 6.64904C13.7244 6.72029 13.7582 6.8043 13.7582 6.90126V7.61879C13.7582 7.71618 13.7244 7.80039 13.6571 7.87101ZM13.6571 5.00085C13.5898 5.07211 13.5103 5.1073 13.4182 5.1073H12.7384C12.6464 5.1073 12.5665 5.07211 12.4993 5.00085C12.432 4.93004 12.3984 4.84603 12.3984 4.74863V4.03107C12.3984 3.93411 12.432 3.84991 12.4993 3.77885C12.5665 3.70804 12.6461 3.67241 12.7384 3.67241H13.4182C13.5103 3.67241 13.5898 3.70804 13.6571 3.77885C13.7244 3.85007 13.7582 3.93408 13.7582 4.03107V4.74863C13.7582 4.84603 13.7244 4.93024 13.6571 5.00085ZM9.67933 6.90126C9.67933 6.8043 9.71289 6.72006 9.78018 6.64904C9.84746 6.57822 9.92704 6.54259 10.0191 6.54259H10.6989C10.7908 6.54259 10.8704 6.57822 10.9378 6.64904C11.0051 6.72029 11.0387 6.8043 11.0387 6.90126V7.61879C11.0387 7.71618 11.0051 7.80039 10.9378 7.87101C10.8704 7.94226 10.7908 7.97765 10.6989 7.97765H10.0191C9.92704 7.97765 9.84746 7.94223 9.78018 7.87101C9.71289 7.80019 9.67933 7.71618 9.67933 7.61879V6.90126ZM9.67933 9.77161C9.67933 9.67442 9.71289 9.59018 9.78018 9.51936C9.84746 9.44834 9.92704 9.41275 10.0191 9.41275H10.6989C10.7908 9.41275 10.8704 9.44837 10.9378 9.51936C11.0051 9.59038 11.0387 9.67442 11.0387 9.77161V10.4889C11.0387 10.5863 11.0051 10.6705 10.9378 10.7411C10.8704 10.8123 10.7908 10.8478 10.6989 10.8478H10.0191C9.92704 10.8478 9.84746 10.8123 9.78018 10.7411C9.71289 10.6703 9.67933 10.5863 9.67933 10.4889V9.77161ZM5.49988 13.6115C5.4324 13.6826 5.35282 13.7179 5.26074 13.7179H4.58098C4.4889 13.7179 4.40912 13.6826 4.34203 13.6115C4.27453 13.5405 4.241 13.4565 4.241 13.3593V12.6418C4.241 12.5448 4.27456 12.4606 4.34203 12.3896C4.40912 12.3188 4.4889 12.2829 4.58098 12.2829H5.26074C5.35282 12.2829 5.4324 12.3187 5.49988 12.3896C5.56697 12.4608 5.60072 12.5448 5.60072 12.6418V13.3593C5.60072 13.4565 5.56697 13.5407 5.49988 13.6115ZM5.60072 15.5119V16.2294C5.60072 16.3268 5.56697 16.411 5.49988 16.4817C5.4324 16.5529 5.35282 16.5881 5.26074 16.5881H4.58098C4.4889 16.5881 4.40912 16.5529 4.34203 16.4817C4.27453 16.4108 4.241 16.3268 4.241 16.2294V15.5119C4.241 15.4149 4.27456 15.3307 4.34203 15.2597C4.40912 15.1889 4.4889 15.1533 4.58098 15.1533H5.26074C5.35282 15.1533 5.4324 15.1889 5.49988 15.2597C5.56697 15.3309 5.60072 15.4149 5.60072 15.5119ZM5.49988 10.7412C5.4324 10.8124 5.35282 10.8478 5.26074 10.8478H4.58098C4.4889 10.8478 4.40912 10.8124 4.34203 10.7412C4.27453 10.6703 4.241 10.5863 4.241 10.489V9.77164C4.241 9.67445 4.27456 9.59021 4.34203 9.51939C4.40912 9.44837 4.4889 9.41278 4.58098 9.41278H5.26074C5.35282 9.41278 5.4324 9.44841 5.49988 9.51939C5.56697 9.59041 5.60072 9.67445 5.60072 9.77164V10.489C5.60072 10.5863 5.56697 10.6705 5.49988 10.7412ZM5.49988 7.87101C5.4324 7.94226 5.35282 7.97765 5.26074 7.97765H4.58098C4.4889 7.97765 4.40912 7.94223 4.34203 7.87101C4.27453 7.80019 4.241 7.71618 4.241 7.61879V6.90126C4.241 6.8043 4.27456 6.72006 4.34203 6.64904C4.40912 6.57822 4.4889 6.54259 4.58098 6.54259H5.26074C5.35282 6.54259 5.4324 6.57822 5.49988 6.64904C5.56697 6.72029 5.60072 6.8043 5.60072 6.90126V7.61879C5.60072 7.71618 5.56697 7.80039 5.49988 7.87101ZM5.49988 5.00085C5.4324 5.07211 5.35282 5.1073 5.26074 5.1073H4.58098C4.4889 5.1073 4.40912 5.07211 4.34203 5.00085C4.27453 4.93004 4.241 4.84603 4.241 4.74863V4.03107C4.241 3.93411 4.27456 3.84991 4.34203 3.77885C4.40912 3.70804 4.4889 3.67241 4.58098 3.67241H5.26074C5.35282 3.67241 5.4324 3.70804 5.49988 3.77885C5.56697 3.85007 5.60072 3.93408 5.60072 4.03107V4.74863C5.60072 4.84603 5.56697 4.93024 5.49988 5.00085ZM8.31981 13.3593C8.31981 13.4565 8.28605 13.5407 8.21896 13.6115C8.15146 13.6825 8.07187 13.7179 7.97983 13.7179H7.30003C7.20795 13.7179 7.1284 13.6825 7.06109 13.6115C6.99378 13.5405 6.96025 13.4565 6.96025 13.3593V12.6418C6.96025 12.5448 6.99378 12.4606 7.06109 12.3895C7.12837 12.3187 7.20795 12.2829 7.30003 12.2829H7.97983C8.07168 12.2829 8.15146 12.3187 8.21896 12.3895C8.28605 12.4608 8.31981 12.5448 8.31981 12.6418V13.3593ZM8.31981 10.489C8.31981 10.5864 8.28605 10.6705 8.21896 10.7412C8.15146 10.8124 8.07187 10.8478 7.97983 10.8478H7.30003C7.20795 10.8478 7.1284 10.8124 7.06109 10.7412C6.99378 10.6703 6.96025 10.5863 6.96025 10.489V9.77164C6.96025 9.67445 6.99378 9.59021 7.06109 9.51939C7.12837 9.44837 7.20795 9.41278 7.30003 9.41278H7.97983C8.07168 9.41278 8.15146 9.44841 8.21896 9.51939C8.28605 9.59041 8.31981 9.67445 8.31981 9.77164V10.489ZM8.31981 7.61879C8.31981 7.71618 8.28605 7.80039 8.21896 7.87101C8.15146 7.94226 8.07187 7.97765 7.97983 7.97765H7.30003C7.20795 7.97765 7.1284 7.94223 7.06109 7.87101C6.99378 7.80019 6.96025 7.71618 6.96025 7.61879V6.90126C6.96025 6.8043 6.99378 6.72006 7.06109 6.64904C7.12837 6.57822 7.20795 6.54259 7.30003 6.54259H7.97983C8.07168 6.54259 8.15146 6.57822 8.21896 6.64904C8.28605 6.72029 8.31981 6.8043 8.31981 6.90126V7.61879ZM10.6991 13.7179H10.0193C9.92723 13.7179 9.84765 13.6826 9.78037 13.6115C9.71309 13.5405 9.67953 13.4565 9.67953 13.3593V12.6418C9.67953 12.5448 9.71309 12.4606 9.78037 12.3896C9.84765 12.3188 9.92723 12.2829 10.0193 12.2829H10.6991C10.791 12.2829 10.8705 12.3187 10.938 12.3896C11.0053 12.4608 11.0389 12.5448 11.0389 12.6418V13.3593C11.0389 13.4565 11.0053 13.5407 10.938 13.6115C10.8705 13.6825 10.791 13.7179 10.6991 13.7179Z" fill="#003C71"/>
<path d="M6.96072 4.75838C7.12145 4.9027 7.3085 4.97911 7.5252 4.97911H8.23578H9.76306H10.4735C10.69 4.97911 10.877 4.9027 11.0379 4.75838C11.058 4.74045 11.0791 4.72544 11.0984 4.70526C11.2714 4.52264 11.358 4.30276 11.358 4.04559V3.62516V2.44252V0.933717C11.358 0.676553 11.2716 0.456665 11.0984 0.274053C10.9254 0.091407 10.7171 0 10.4735 0H7.5252C7.28157 0 7.07326 0.091407 6.90025 0.274053C6.72725 0.456665 6.64062 0.676553 6.64062 0.933717V2.44249V3.62513V4.04556C6.64062 4.30272 6.72703 4.52261 6.90025 4.70522C6.91954 4.72544 6.9408 4.74028 6.96072 4.75838ZM7.42687 2.44252V1.0373C7.42687 0.981288 7.44638 0.932506 7.4852 0.891529C7.52402 0.850552 7.57023 0.829963 7.6233 0.829963H8.01635C8.0696 0.829963 8.11563 0.850552 8.15445 0.891529C8.19327 0.932708 8.21277 0.981288 8.21277 1.0373V2.07461H9.78511V1.0373C9.78511 0.981288 9.80462 0.932506 9.84344 0.891529C9.88226 0.850552 9.92847 0.829963 9.98154 0.829963H10.3746C10.4278 0.829963 10.4739 0.850552 10.5127 0.891529C10.5515 0.932708 10.571 0.981288 10.571 1.0373V2.44252V3.62516V3.67212V3.94184C10.571 3.99805 10.5515 4.04663 10.5127 4.08761C10.4736 4.12879 10.4276 4.14918 10.3746 4.14918H9.98154C9.92828 4.14918 9.88226 4.12879 9.84344 4.08761C9.80443 4.04663 9.78511 3.99805 9.78511 3.94184V3.77362V3.62516V2.90453H8.21316V3.62516V3.77362V3.94184C8.21316 3.99805 8.19365 4.04663 8.15483 4.08761C8.11582 4.12879 8.0698 4.14918 8.01673 4.14918H7.62368C7.57043 4.14918 7.5244 4.12879 7.48558 4.08761C7.44657 4.04663 7.42726 3.99805 7.42726 3.94184V3.67212V3.62516V2.44252H7.42687Z" fill="#003C71"/>
</g>
<defs>
<clipPath id="clip0">
<rect width="18" height="19" fill="white"/>
</clipPath>
</defs>
</svg>
