<svg width="20" height="20" viewBox="0 0 20 20" fill="none" xmlns="http://www.w3.org/2000/svg">
<path d="M14 15C14.8284 15 15.5 14.3284 15.5 13.5C15.5 12.6716 14.8284 12 14 12C13.1716 12 12.5 12.6716 12.5 13.5C12.5 14.3284 13.1716 15 14 15Z" fill="#BDBDBD"/>
<path d="M16.1 8.99999H14.5C13.9 6.29999 11.3 4.49999 8.6 5.09999C6.6 5.49999 5 6.99999 4.6 8.99999H3.9C2.9 8.99999 2 9.89999 2 10.9V12.2C2 12.9 2.6 13.5 3.3 13.5H3.6C3.6 12.2 4.7 11.1 6 11.1C7.3 11.1 8.4 12.2 8.4 13.5H11.6C11.6 12.2 12.7 11.1 14 11.1C15.3 11.1 16.4 12.2 16.4 13.5H16.7C17.4 13.5 18 12.9 18 12.2V11C18 9.89999 17.1 8.99999 16.1 8.99999ZM6.2 8.99999C6.7 7.09999 8.7 6.09999 10.5 6.59999C11.6 6.89999 12.5 7.79999 12.9 8.99999H6.2ZM6 12C5.2 12 4.5 12.7 4.5 13.5C4.5 14.3 5.2 15 6 15C6.8 15 7.5 14.3 7.5 13.5C7.5 12.7 6.8 12 6 12Z" fill="#BDBDBD"/>
</svg>
