<svg xmlns="http://www.w3.org/2000/svg" width="16" height="16" fill="none" viewBox="0 0 16 16">
    <path fill="#26BED6" d="M15.447 12.296c.738-.738.738-1.936 0-2.67-.738-.739-1.936-.739-2.67 0l-1.003 1.001c-.278.278-.731.278-1.009 0L8.976 8.835c-.11-.111-.261-.173-.414-.173-.157 0-.307.062-.415.173-.49.49-1.14.76-1.835.76-.695 0-1.345-.27-1.835-.76l-1.619-1.62L6.524 3.55l1.62 1.619c.45.45.718 1.048.754 1.681.02.314.277.555.587.555h.036c.324-.02.572-.297.552-.62-.052-.924-.444-1.792-1.097-2.445l-1.62-1.62.18-.18c.229-.228.229-.6 0-.832-.228-.228-.6-.228-.832 0L5.552 2.861 3.554.863c-.229-.229-.601-.229-.833 0-.228.228-.228.6 0 .832L4.72 3.693 3.002 5.41 1.004 3.412c-.229-.228-.6-.228-.833 0-.228.229-.228.601 0 .833l2.002 1.998L1.02 7.395c-.228.229-.228.601 0 .833.114.114.265.173.415.173.15 0 .3-.059.414-.173l.18-.18 1.62 1.62c.71.711 1.658 1.103 2.663 1.103.807 0 1.577-.251 2.217-.722l1.407 1.408c.369.368.852.551 1.335.551s.966-.182 1.335-.551l1.003-1.003c.277-.277.73-.277 1.008 0 .278.278.278.732 0 1.01l-1.002 1.001c-.356.356-.552.83-.552 1.336 0 .506.196.979.552 1.335.114.114.265.173.415.173.15 0 .3-.059.414-.173.229-.229.229-.6 0-.833-.134-.134-.209-.313-.209-.502 0-.19.075-.37.21-.503l1.002-1.002z"/>
</svg>
