<svg xmlns="http://www.w3.org/2000/svg" width="24" height="24" fill="none" viewBox="0 0 24 24">
    <path fill="#003C71" d="M12.171 9.575L9.85 12.94l1.733 1.188 2.321-3.365-.347-1.347-1.386.159zM20.297 3.94h-.62V24h1.298C22.643 24 24 22.647 24 20.985V7.63c0-2.036-1.66-3.692-3.702-3.692z"/>
    <path fill="#003C71" d="M18.267 3.94h-.707c-.024-.368-.33-.659-.703-.659h-.037V1.774C16.82.796 16.014 0 15.023 0H8.976C7.986 0 7.18.796 7.18 1.774V3.28h-.037c-.374 0-.68.291-.703.658h-.707V24h12.535V3.94zM8.59 1.773c0-.21.167-.368.387-.368h6.047c.22 0 .387.158.387.368V3.28h-.037c-.374 0-.68.291-.703.658h-.595c.22.198.421.422.595.67.595.85.823 1.879.642 2.899-.08.45-.236.876-.464 1.268l.502 1.947c.05.197.014.406-.102.573l-2.903 4.208c-.137.199-.357.305-.582.305-.137 0-.277-.04-.399-.124L8.47 13.7c-.154-.106-.26-.268-.294-.451-.034-.184.007-.373.113-.527l2.903-4.208c.115-.167.298-.277.5-.3l1.982-.227c.12-.226.204-.469.25-.725.116-.65-.03-1.306-.409-1.847-.379-.541-.947-.903-1.599-1.018-.259-.046-.46-.227-.541-.458H9.329c-.024-.367-.33-.658-.703-.658h-.037V1.774zM4.322 3.938h-.62C1.662 3.938 0 5.594 0 7.63v13.354c0 1.662 1.357 3.015 3.024 3.015h1.298V3.939z"/>
</svg>
