<svg xmlns="http://www.w3.org/2000/svg" width="16" height="16" fill="none" viewBox="0 0 16 16">
    <path fill="#26BED6" d="M14.358 3.905h-3.234v-.792c0-.981-.799-1.78-1.78-1.78H6.655c-.981 0-1.78.799-1.78 1.78v.792H1.641C.736 3.905 0 4.64 0 5.546v8.064c0 .905.736 1.642 1.641 1.642h12.717c.906 0 1.642-.737 1.642-1.642V5.546c0-.905-.736-1.641-1.642-1.641zm-8.525-.792c0-.454.37-.824.824-.824h2.687c.454 0 .823.37.823.824v.792H5.833v-.792zm9.21 10.497c0 .378-.307.685-.684.685H1.641c-.378 0-.686-.307-.686-.685V5.546c0-.378.308-.685.685-.685h12.717c.378 0 .686.307.686.685v8.064z"/>
    <path fill="#26BED6" d="M2.313 13c.032-.602.156-1.126.37-1.572.219-.446.642-.852 1.27-1.216l.938-.542c.42-.244.714-.453.883-.625.267-.27.4-.58.4-.928 0-.407-.121-.729-.365-.967-.245-.24-.57-.36-.977-.36-.602 0-1.019.227-1.25.683-.124.244-.192.582-.205 1.015h-.894c.01-.608.122-1.105.337-1.489.381-.677 1.053-1.016 2.017-1.016.8 0 1.385.217 1.753.65.37.433.556.915.556 1.445 0 .56-.196 1.039-.59 1.436-.228.23-.637.51-1.226.84l-.669.37c-.319.176-.57.344-.752.503-.325.284-.53.598-.615.943h3.818V13h-4.8zm7.851.19c-.827 0-1.427-.226-1.802-.678-.37-.456-.556-1.01-.556-1.66h.918c.039.452.123.78.254.986.227.368.64.552 1.235.552.462 0 .833-.124 1.113-.371.28-.248.42-.567.42-.957 0-.482-.148-.82-.444-1.011-.293-.192-.702-.288-1.226-.288-.058 0-.119.001-.18.005-.06 0-.12.001-.181.004v-.776c.091.01.167.016.23.02.061.003.128.005.2.005.328 0 .598-.053.81-.157.371-.182.557-.508.557-.976 0-.349-.124-.617-.371-.806-.248-.189-.536-.283-.865-.283-.586 0-.99.195-1.215.586-.124.215-.194.52-.21.918h-.87c0-.521.105-.964.313-1.328.358-.651.988-.977 1.89-.977.713 0 1.264.16 1.655.479.39.315.586.774.586 1.377 0 .43-.116.778-.347 1.044-.143.166-.329.297-.556.391.367.101.654.296.859.586.208.287.312.638.312 1.055 0 .667-.22 1.21-.659 1.63-.44.42-1.063.63-1.87.63z"/>
</svg>
