<svg xmlns="http://www.w3.org/2000/svg" width="16" height="16" fill="none" viewBox="0 0 16 16">
    <g clip-path="url(#prefix__clip0)">
        <path fill="#828282" d="M11.608 6.746H8.992v-.64c0-.793-.645-1.439-1.439-1.439H5.381c-.793 0-1.439.646-1.439 1.44v.64H1.327C.595 6.746 0 7.34 0 8.072v6.519c0 .732.595 1.327 1.327 1.327h10.28c.732 0 1.328-.595 1.328-1.327V8.073c0-.732-.596-1.327-1.327-1.327zm-6.893-.64c0-.367.299-.666.666-.666h2.172c.368 0 .666.299.666.666v.64H4.715v-.64zm7.447 8.486c0 .305-.249.554-.554.554H1.327c-.305 0-.554-.249-.554-.554V8.073c0-.305.249-.554.554-.554h10.28c.306 0 .555.249.555.554v6.519z"/>
        <path fill="#26BED6" fill-rule="evenodd" d="M6.667 4.667C6.667 2.09 8.757 0 11.333 0 13.91 0 16 2.09 16 4.667c0 2.576-2.09 4.666-4.667 4.666-2.576 0-4.666-2.09-4.666-4.666zm5.133.466h1.4c.257 0 .467-.21.467-.466 0-.257-.21-.467-.467-.467h-1.4V2.8c0-.257-.21-.467-.467-.467-.256 0-.466.21-.466.467v1.4h-1.4C9.21 4.2 9 4.41 9 4.667c0 .256.21.466.467.466h1.4v1.4c0 .257.21.467.466.467.257 0 .467-.21.467-.467v-1.4z" clip-rule="evenodd"/>
    </g>
    <defs>
        <clipPath id="prefix__clip0">
            <path fill="#fff" d="M0 0H16V16H0z"/>
        </clipPath>
    </defs>
</svg>
