<svg xmlns="http://www.w3.org/2000/svg" width="24" height="24" fill="none" viewBox="0 0 24 24">
    <g clip-path="url(#prefix__clip0)">
        <path fill="#003C71" d="M22.901 18.09H1.1c-.264 0-.509.136-.65.36-.14.223-.155.502-.04.74l.684 1.42c.32.665.992 1.087 1.73 1.087h18.355c.737 0 1.409-.422 1.729-1.086l.685-1.421c.114-.238.098-.517-.042-.74-.14-.224-.385-.36-.649-.36zM23.997 15.761c-.474-5.195-5.322-9.32-11.345-9.6V5.41c.57-.251.97-.821.97-1.485 0-.896-.726-1.622-1.622-1.622-.896 0-1.622.726-1.622 1.622 0 .664.4 1.234.97 1.485v.752C5.325 6.44.477 10.566.003 15.762c-.02.214.052.426.197.585.145.16.35.25.566.25h22.468c.215 0 .42-.09.566-.25.145-.158.216-.371.197-.586zm-16.9-5.508c-1.692.963-2.864 2.423-3.302 4.111-.076.294-.34.488-.63.488-.054 0-.11-.006-.164-.02-.349-.09-.558-.447-.468-.795.527-2.032 1.918-3.778 3.918-4.917.313-.178.71-.069.889.244.178.313.069.711-.244.89z"/>
    </g>
    <defs>
        <clipPath id="prefix__clip0">
            <path fill="#fff" d="M0 0H24V24H0z"/>
        </clipPath>
    </defs>
</svg>
