<svg xmlns="http://www.w3.org/2000/svg" width="14" height="16" fill="none" viewBox="0 0 14 16">
    <path fill="#26BED6" d="M.604.587C.27.587 0 .85 0 1.174v4.113c0 .96.475 1.813 1.208 2.35v6.6c0 .972.813 1.762 1.813 1.762.999 0 1.812-.79 1.812-1.762v-6.6c.733-.537 1.208-1.39 1.208-2.35V1.174c0-.324-.27-.587-.604-.587-.334 0-.604.263-.604.587v2.938H3.625V1.174c0-.324-.27-.587-.604-.587-.334 0-.605.263-.605.587v2.938H1.208V1.174C1.208.85.938.587.604.587zm3.02 13.65c0 .324-.27.587-.603.587-.334 0-.605-.263-.605-.587v-6.07c.196.038.398.058.605.058.206 0 .408-.02.604-.059v6.07zM3.022 7.05c-1 0-1.813-.79-1.813-1.762h3.625c0 .971-.813 1.762-1.813 1.762zM10.678 16c.999 0 1.812-.79 1.812-1.763v-7.04C13.426 6.673 14 5.724 14 4.544c0-.926-.33-2.007-.884-2.892C12.449.587 11.583 0 10.678 0c-.906 0-1.772.587-2.439 1.653-.554.885-.884 1.966-.884 2.892 0 1.18.574 2.13 1.51 2.651v7.041c0 .972.813 1.763 1.813 1.763zm.604-1.763c0 .324-.271.588-.604.588-.334 0-.605-.264-.605-.588V7.595c.195.028.396.043.604.043.21 0 .41-.015.605-.043v6.642zm-.604-13.062c.46 0 .973.397 1.406 1.088.437.699.708 1.573.708 2.282 0 1.414-1.092 1.918-2.114 1.918-1.023 0-2.115-.504-2.115-1.918 0-1.41 1.066-3.37 2.114-3.37z"/>
</svg>
