<svg xmlns="http://www.w3.org/2000/svg" width="16" height="16" fill="none" viewBox="0 0 16 16">
    <g fill="#26BED6" clip-path="url(#prefix__clip0)">
        <path d="M10.463 7.281L6.928 5.347c-.203-.111-.444-.107-.643.011-.2.118-.318.327-.318.559v3.835c0 .23.118.439.316.557.104.062.218.093.333.093.105 0 .21-.026.308-.079l3.535-1.9c.21-.113.34-.331.341-.57.001-.238-.128-.457-.337-.572zM6.905 9.27V6.403L9.546 7.85l-2.641 1.42z"/>
        <path d="M15.882 4.798V4.79c-.014-.128-.149-1.274-.706-1.857-.643-.685-1.373-.768-1.724-.808l-.08-.01-.027-.002c-2.116-.154-5.31-.175-5.342-.175h-.006c-.032 0-3.226.02-5.36.175l-.029.002c-.022.004-.047.006-.075.01-.347.04-1.069.123-1.714.833-.53.576-.684 1.697-.7 1.823l-.001.017C.113 4.85 0 6.128 0 7.408v1.197c0 1.28.113 2.557.118 2.61v.008c.014.127.149 1.252.703 1.834.605.663 1.37.75 1.782.798.065.007.121.013.16.02l.037.005c1.22.116 5.05.174 5.212.176h.01c.032 0 3.226-.021 5.342-.175l.028-.003.09-.01c.344-.037 1.062-.113 1.699-.813.53-.577.684-1.698.7-1.823l.001-.017c.005-.053.118-1.33.118-2.61V7.408c0-1.28-.113-2.557-.118-2.61zm-.82 3.807c0 1.186-.103 2.406-.113 2.518-.04.31-.201 1.018-.46 1.3-.398.438-.808.481-1.106.513l-.1.01c-2.046.149-5.12.172-5.262.172-.158-.002-3.932-.06-5.116-.17-.06-.01-.126-.017-.195-.025-.35-.04-.83-.095-1.2-.5l-.008-.01c-.254-.265-.41-.928-.45-1.286-.008-.085-.114-1.32-.114-2.522V7.408c0-1.184.103-2.404.113-2.518.047-.364.212-1.03.46-1.3.41-.451.843-.501 1.13-.534l.076-.01c2.076-.148 5.172-.17 5.283-.17.111 0 3.206.022 5.263.17l.083.01c.294.034.74.085 1.148.52l.004.005c.254.264.41.939.45 1.304.008.08.114 1.318.114 2.523v1.197z"/>
    </g>
    <defs>
        <clipPath id="prefix__clip0">
            <path fill="#fff" d="M0 0H16V16H0z"/>
        </clipPath>
    </defs>
</svg>
