<svg xmlns="http://www.w3.org/2000/svg" width="24" height="24" fill="none" viewBox="0 0 24 24">
    <path fill="#003C71" d="M2.846.608C3.212.216 3.716 0 4.267 0H5.78c1.115 0 2.18.893 2.372 1.991l.095.544c.096.546-.033 1.064-.363 1.457-.33.393-.818.61-1.373.61H4.557c-.271 0-.534-.054-.777-.15l.208 1.774c.2-.084.419-.129.65-.129h2.23c.954 0 1.893.76 2.09 1.695l1.972 9.293 9.3-.668c.503-.036.923.134 1.183.469.244.313.315.733.2 1.183l-1.08 4.258c-.235.922-1.2 1.673-2.151 1.673H6.496c-.964 0-1.831-.78-1.933-1.74L3.037 7.878c-.009-.083-.01-.164-.007-.244l-.522-4.46c-.074-.192-.12-.397-.135-.608l-.035-.497c-.038-.549.142-1.067.508-1.46z"/>
</svg>
