<svg xmlns="http://www.w3.org/2000/svg" width="159" height="164" fill="none" viewBox="0 0 159 164">
    <path fill="#26BED6" d="M94.192 93.075c-.298 1.133-.283 2.325.043 3.449.327 1.124.954 2.14 1.813 2.937 1.343 1.007 2.785 1.874 4.305 2.587V86.497c-.228.058-.434.069-.668.14-1.417.471-2.678 1.32-3.646 2.455s-1.607 2.512-1.847 3.983zM107.567 110.66c-.668-.235-1.283-.46-1.901-.687v20.018c2.101-.519 4.004-1.641 5.472-3.227 1.469-1.586 2.44-3.567 2.792-5.698.435-2.214.023-4.51-1.155-6.436-1.177-1.927-3.036-3.343-5.208-3.97z"/>
    <path fill="#26BED6" d="M103.326 52.903c-11.012 0-21.776 3.258-30.931 9.362-9.156 6.103-16.292 14.779-20.506 24.93-4.214 10.15-5.316 21.318-3.168 32.094 2.148 10.775 7.45 20.673 15.237 28.441 7.786 7.769 17.707 13.059 28.506 15.203 10.8 2.143 21.994 1.043 32.167-3.161 10.174-4.205 18.869-11.325 24.986-20.459 6.118-9.135 9.383-19.875 9.383-30.861-.017-14.728-5.888-28.847-16.325-39.26-10.437-10.414-24.589-16.272-39.349-16.289zm15.825 69.039c-.545 3.373-2.141 6.488-4.562 8.904-2.422 2.416-5.544 4.009-8.925 4.552v4.796c0 .701-.279 1.374-.776 1.87-.498.496-1.172.775-1.875.775-.703 0-1.377-.279-1.875-.775-.497-.496-.776-1.169-.776-1.87v-4.595c-4.278-.015-8.44-1.388-11.883-3.92-.588-.386-.999-.989-1.142-1.677-.142-.689-.005-1.405.381-1.992.387-.587.992-.997 1.681-1.14.69-.142 1.408-.005 1.997.381 2.583 1.957 5.733 3.027 8.976 3.05v-22.418c-2.698-1.091-5.245-2.523-7.58-4.259-1.63-1.392-2.845-3.203-3.516-5.236-.67-2.034-.769-4.211-.285-6.297.416-2.425 1.493-4.689 3.114-6.543 1.62-1.854 3.721-3.227 6.072-3.969.721-.218 1.454-.394 2.195-.529v-4.34c0-.702.28-1.375.777-1.87.497-.497 1.171-.776 1.875-.776.703 0 1.377.28 1.874.775.497.496.777 1.17.777 1.87v4.14c3.418.346 6.656 1.695 9.305 3.878.257.235.465.518.612.832.147.315.231.656.246 1.003.016.347-.038.694-.157 1.02-.119.327-.301.627-.536.883-.235.256-.519.463-.834.61-.316.147-.657.23-1.005.246-.348.015-.696-.038-1.023-.157-.327-.119-.628-.3-.884-.535-1.664-1.29-3.638-2.125-5.724-2.42v18.111c1.129.436 2.327.883 3.666 1.354 3.357 1.03 6.214 3.26 8.024 6.262 1.81 3.002 2.446 6.565 1.786 10.006z"/>
    <path fill="#003C71" d="M100.301 43.732l3.556-3.526c.808-.754 1.456-1.663 1.905-2.673.449-1.01.69-2.098.709-3.203.018-1.104-.186-2.2-.601-3.225-.416-1.024-1.033-1.954-1.816-2.735-.782-.78-1.715-1.396-2.741-1.81-1.026-.415-2.125-.619-3.232-.6-1.107.018-2.199.258-3.21.707-1.012.448-1.923 1.094-2.68 1.9l-3.52 3.543c-7.382-5.466-16.013-9.011-25.112-10.314v-5.925h2.651c2.11 0 4.133-.836 5.624-2.324 1.492-1.489 2.33-3.507 2.33-5.612 0-2.104-.838-4.123-2.33-5.61C70.342.835 68.32 0 66.21 0H45c-2.109 0-4.132.836-5.623 2.324-1.492 1.488-2.33 3.507-2.33 5.611 0 2.105.838 4.124 2.33 5.612C40.868 15.035 42.89 15.87 45 15.87h2.651v5.925c-9.096 1.305-17.723 4.85-25.101 10.316l-3.532-3.544c-.756-.807-1.667-1.453-2.679-1.901-1.011-.449-2.103-.689-3.21-.707-1.107-.019-2.206.185-3.232.6-1.027.414-1.959 1.03-2.741 1.81-.783.781-1.4 1.711-1.816 2.735-.415 1.024-.619 2.121-.6 3.225.018 1.105.259 2.194.708 3.203.449 1.01 1.097 1.919 1.905 2.673l3.55 3.516C5.671 50.782 2.191 58.98.75 67.644c-1.44 8.663-.8 17.543 1.867 25.911 2.667 8.369 7.286 15.986 13.478 22.228 6.191 6.241 13.778 10.927 22.138 13.675 8.36 2.747 17.253 3.477 25.95 2.128 8.697-1.348 16.949-4.736 24.079-9.884 7.13-5.149 12.934-11.911 16.935-19.733 4.002-7.821 6.086-16.478 6.083-25.26-.004-11.885-3.855-23.45-10.979-32.977zm-4.355-11.435c.273-.275.599-.494.957-.644.359-.15.743-.227 1.132-.228.389-.001.774.074 1.133.222.36.148.686.366.961.64.275.274.493.6.641.959.148.358.224.742.223 1.13-.001.388-.079.772-.229 1.13-.15.357-.369.682-.645.955l-3.182 3.156c-1.309-1.45-2.693-2.831-4.146-4.137l3.155-3.183zM42.35 7.935c0-.701.279-1.374.776-1.87s1.172-.775 1.875-.775h21.21c.702 0 1.377.279 1.874.775.497.496.776 1.169.776 1.87 0 .702-.279 1.375-.776 1.87-.497.497-1.172.776-1.875.776H45c-.702 0-1.377-.279-1.874-.775-.497-.496-.776-1.169-.776-1.87zm10.604 7.936h5.303v5.425c-.886-.042-1.755-.135-2.651-.135-.897 0-1.766.093-2.652.135v-5.425zm-41.861 20.59c-.277-.273-.496-.598-.646-.955-.15-.358-.228-.742-.23-1.13 0-.388.076-.772.224-1.13.148-.359.366-.685.641-.959.275-.274.601-.492.96-.64.36-.148.745-.223 1.134-.222.389 0 .773.078 1.132.228.358.15.684.369.957.644l3.163 3.175c-1.453 1.306-2.837 2.686-4.146 4.137l-3.19-3.148zm44.513 90.507c-9.963 0-19.702-2.948-27.986-8.47-8.283-5.523-14.74-13.372-18.552-22.555-3.813-9.184-4.81-19.29-2.867-29.038 1.944-9.75 6.741-18.704 13.786-25.733s16.02-11.815 25.791-13.755c9.772-1.939 19.9-.944 29.104 2.86s17.071 10.246 22.606 18.51c5.535 8.266 8.49 17.983 8.49 27.923-.015 13.324-5.327 26.099-14.77 35.521-9.444 9.422-22.248 14.722-35.602 14.737z"/>
    <path fill="#003C71" d="M55.604 31.742c-8.914 0-17.628 2.637-25.04 7.578-7.411 4.941-13.188 11.965-16.6 20.181-3.41 8.217-4.303 17.259-2.564 25.982 1.74 8.722 6.032 16.735 12.335 23.024 6.303 6.289 14.334 10.571 23.076 12.306 8.743 1.735 17.805.845 26.04-2.559 8.236-3.403 15.275-9.167 20.227-16.562 4.952-7.394 7.596-16.088 7.596-24.982-.014-11.922-4.766-23.352-13.216-31.783-8.449-8.43-19.905-13.172-31.854-13.185zm0 84.645c-7.865 0-15.554-2.327-22.094-6.687-6.54-4.36-11.636-10.556-14.646-17.806-3.01-7.25-3.798-15.228-2.263-22.925 1.534-7.697 5.322-14.766 10.883-20.315 5.562-5.55 12.648-9.328 20.362-10.86 7.714-1.53 15.71-.745 22.976 2.259C78.09 43.056 84.3 48.14 88.67 54.666c4.37 6.525 6.702 14.196 6.702 22.044-.011 10.52-4.205 20.604-11.66 28.043-7.456 7.438-17.564 11.622-28.107 11.634z"/>
    <path fill="#003C71" d="M55.605 47.613c1.465 0 2.651-1.184 2.651-2.645s-1.187-2.646-2.65-2.646c-1.465 0-2.652 1.185-2.652 2.646 0 1.46 1.187 2.645 2.651 2.645zM55.605 111.097c1.465 0 2.651-1.185 2.651-2.645 0-1.461-1.187-2.646-2.65-2.646-1.465 0-2.652 1.185-2.652 2.646 0 1.46 1.187 2.645 2.651 2.645zM23.79 79.355c1.463 0 2.65-1.184 2.65-2.645s-1.187-2.645-2.65-2.645c-1.465 0-2.652 1.184-2.652 2.645 0 1.46 1.187 2.645 2.651 2.645zM87.418 79.355c1.464 0 2.65-1.184 2.65-2.645s-1.186-2.645-2.65-2.645c-1.465 0-2.652 1.184-2.652 2.645 0 1.46 1.187 2.645 2.651 2.645zM31.236 52.395c-.37.37-.623.841-.726 1.355-.102.513-.05 1.045.151 1.528.2.483.54.897.976 1.187.436.291.949.446 1.473.446.525 0 1.037-.155 1.473-.446.436-.29.776-.704.977-1.187.2-.483.253-1.015.15-1.528-.102-.514-.354-.985-.725-1.355-.497-.496-1.172-.774-1.875-.774-.703 0-1.377.278-1.874.774zM76.227 97.284c-.371.37-.624.841-.726 1.354-.102.513-.05 1.045.15 1.529.201.483.541.896.977 1.187.436.29.949.446 1.473.446.525 0 1.037-.156 1.473-.446.436-.291.776-.704.977-1.187.2-.484.253-1.016.15-1.529-.102-.513-.355-.984-.725-1.354-.498-.496-1.172-.775-1.875-.775-.703 0-1.377.279-1.874.775zM31.236 97.284c-.37.37-.623.841-.726 1.354-.102.513-.05 1.045.151 1.529.2.483.54.896.976 1.187.436.29.949.446 1.473.446.525 0 1.037-.156 1.473-.446.436-.291.776-.704.977-1.187.2-.484.253-1.016.15-1.529-.102-.513-.354-.984-.725-1.354-.497-.496-1.172-.775-1.875-.775-.703 0-1.377.279-1.874.775zM76.227 52.395c-.371.37-.624.841-.726 1.355-.102.513-.05 1.045.15 1.528.201.483.541.897.977 1.187.436.291.949.446 1.473.446.525 0 1.037-.155 1.473-.446.436-.29.776-.704.977-1.187.2-.483.253-1.015.15-1.528-.102-.514-.355-.985-.725-1.355-.498-.496-1.172-.774-1.875-.774-.703 0-1.377.278-1.874.774zM56.79 79.09L78 68.51c.629-.314 1.108-.864 1.33-1.53.223-.666.172-1.392-.143-2.02-.314-.628-.865-1.106-1.532-1.328-.668-.222-1.396-.17-2.026.143L58.256 72.43V55.548c0-.701-.279-1.374-.776-1.87s-1.172-.775-1.875-.775c-.703 0-1.377.279-1.874.775-.498.496-.777 1.169-.777 1.87V76.71c-.002.452.111.897.33 1.293.22.395.536.728.921.967s.824.375 1.277.396c.453.021.903-.074 1.308-.276z"/>
</svg>
