<svg xmlns="http://www.w3.org/2000/svg" width="16" height="16" fill="none"><rect id="backgroundrect" width="100%" height="100%" x="0" y="0" fill="none" stroke="none"/>
    
<g class="currentLayer" style=""><title>Layer 1</title><path fill="#26bed6" fill-rule="evenodd" d="M1.333 8C1.333 4.32 4.32 1.333 8 1.333c3.68 0 6.667 2.987 6.667 6.667 0 3.68-2.987 6.667-6.667 6.667-3.68 0-6.667-2.987-6.667-6.667zm2.467.467l2.394 2.393c.26.26.686.26.94 0l5.06-5.06c.26-.26.26-.68 0-.94-.26-.26-.68-.26-.94 0L6.667 9.447 4.74 7.527c-.26-.26-.68-.26-.94 0-.125.124-.195.293-.195.47 0 .176.07.345.195.47z" clip-rule="evenodd" id="svg_1" class="" fill-opacity="1"/></g></svg>