<svg xmlns="http://www.w3.org/2000/svg" width="20" height="20" fill="none" viewBox="0 0 20 20">
    <circle cx="10" cy="10" r="9.5" stroke="#BDBDBD"/>
    <path fill="#BDBDBD" fill-rule="evenodd" d="M11.944 16.311c1.436.374 2.63 1.15 3.356 2.151 2.816-1.771 4.697-4.897 4.697-8.462 0-5.514-4.485-10-9.999-10C7.675 0 5.54.798 3.844 2.133V2.12C1.504 3.949 0 6.799 0 9.999c0 3.201 1.504 6.05 3.844 7.881v-.017c.272.214.555.414.85.6.731-1.008 1.933-1.786 3.378-2.158v-1.466c-.832-1.381-1.62-3.025-1.62-4.32 0-2.154.972-4.054 2.421-4.73.397-.214 1.087-.71 1.17-1.207.02-.107.1-.191.206-.214.108-.023.216.023.274.115.018.027.348.551.162 1.144 1.65.45 2.856 2.473 2.856 4.892 0 1.285-.774 2.911-1.597 4.284v1.508z" clip-rule="evenodd"/>
</svg>
