<svg xmlns="http://www.w3.org/2000/svg" width="160" height="140" fill="none" viewBox="0 0 160 140">
    <path fill="#E2EFFA" d="M94.576 24.799l52.956-1.085s-3.387-13.326-12.931-9.607c.154-2.634-2.617-14.41-13.085-14.101-10.468.31-19.243 7.593-16.318 16.425-2.463.155-11.238.31-10.622 8.368z"/>
    <path fill="#26BED6" d="M147.531 139.505l-28.337-28.284c-.662-.66-.662-1.731 0-2.391l9.578-9.56c.662-.66 1.734-.66 2.395 0l28.337 28.284c.661.66.661 1.73 0 2.39l-9.579 9.561c-.661.66-1.733.66-2.394 0z"/>
    <path fill="#003C71" d="M107.922 94.014l5.986-5.975 13.046 13.023-5.985 5.974-13.047-13.022zM124.459 116.498l11.972-11.949 5.985 5.974-11.971 11.95-5.986-5.975z"/>
    <path fill="#3A7190" d="M74.771 0c-1.424 0-2.836.054-4.233.16 28.415 2.158 50.798 25.855 50.798 54.77 0 28.915-22.383 52.612-50.798 54.769 1.397.106 2.809.161 4.233.161 30.393 0 55.032-24.593 55.032-54.93S105.164 0 74.771 0z"/>
    <path fill="#003C71" fill-rule="evenodd" d="M129.803 54.93c0 30.336-24.638 54.929-55.031 54.929-30.393 0-55.032-24.593-55.032-54.93C19.74 24.593 44.38 0 74.772 0c30.393 0 55.031 24.593 55.031 54.93zm-8.467 0c0 25.669-20.847 46.478-46.565 46.478-25.717 0-46.565-20.81-46.565-46.479 0-25.67 20.848-46.479 46.565-46.479 25.718 0 46.565 20.81 46.565 46.48z" clip-rule="evenodd"/>
    <path fill="#F4FDFF" d="M89.636 127.477l49.311-1.378s.17-14.131-10.408-11.546c-2.048-5.342-12.456-19.3-26.277-.345-6.142-5.342-22.01 6.721-12.626 13.269z"/>
    <path fill="#74D0DE" d="M59.936 56.498l49.155-5.382-43.793 15.69-5.174-9.015-.188-1.292z"/>
    <path fill="#A3F2FF" d="M64.626 64.51l44.465-13.394-27.794 34.1L64.626 64.51z"/>
    <path fill="#A3F2FF" d="M60.068 57.547l49.023-6.43-57.143-6.374 8.12 12.804z"/>
    <path fill="#74D0DE" d="M60.124 57.791l-.86 20.515 5.361-13.796-4.501-6.719z"/>
    <path fill="#79BEC9" d="M70.506 71.81l-11.243 6.496 5.363-13.795 5.88 7.299z"/>
    <path fill="#E4FAFD" d="M1.947 56.922l68.767-2.077s-3.952-19.714-18.575-12.51c-5.709-15.912-27.05-17.945-32.495-3.933C3.66 33.938-3.85 50.734 1.947 56.922z"/>
</svg>
