<svg xmlns="http://www.w3.org/2000/svg" width="168" height="168" fill="none" viewBox="0 0 168 168">
    <g clip-path="url(#prefix__clip0)">
        <path fill="#26BED6" d="M109.574 168c-3.926 0-7.109-3.183-7.109-7.108v-12.661c0-3.02 2.448-5.468 5.468-5.468h3.281c3.02 0 5.468 2.448 5.468 5.468v12.661c0 3.925-3.182 7.108-7.108 7.108zM58.426 168c-3.926 0-7.108-3.183-7.108-7.108v-12.661c0-3.02 2.448-5.468 5.468-5.468h3.28c3.02 0 5.468 2.448 5.468 5.468v12.661c0 3.925-3.182 7.108-7.108 7.108zM107.238 67.134c-1.4 0-2.535-1.135-2.535-2.535V13.474c0-2.973-2.42-5.393-5.394-5.393H68.69c-2.973 0-5.393 2.42-5.393 5.393v51.124c0 1.4-1.135 2.536-2.535 2.536-1.4 0-2.535-1.135-2.535-2.535V13.474c0-5.77 4.694-10.463 10.464-10.463h30.62c5.769 0 10.463 4.694 10.463 10.463v51.124c0 1.4-1.135 2.536-2.535 2.536z"/>
        <path fill="#26BED6" d="M92.065 56.915h-16.13c-1.208 0-2.187-.98-2.187-2.188v-16.95c0-1.208.979-2.187 2.187-2.187h16.13c1.208 0 2.187.979 2.187 2.187v16.95c0 1.209-.98 2.188-2.187 2.188z"/>
        <path fill="#003C71" d="M95.67 11.093H71.405c-1.149 0-2.08-.932-2.08-2.08V2.08c0-1.149.931-2.08 2.08-2.08H95.67c1.149 0 2.08.931 2.08 2.08v6.933c0 1.148-.931 2.08-2.08 2.08zM117.49 154.015H50.51c-4.53 0-8.202-3.672-8.202-8.202V54.227c0-4.53 3.672-8.202 8.201-8.202h66.981c4.53 0 8.202 3.672 8.202 8.202v91.586c0 4.53-3.672 8.202-8.202 8.202z"/>
        <path fill="#26BED6" d="M109.014 139.578H58.986c-2.52 0-4.563-2.044-4.563-4.564s2.043-4.563 4.563-4.563h50.028c2.521 0 4.564 2.043 4.564 4.563 0 2.521-2.044 4.564-4.564 4.564zM109.014 116.329H58.986c-2.52 0-4.563-2.044-4.563-4.564s2.043-4.563 4.563-4.563h50.028c2.521 0 4.564 2.043 4.564 4.563 0 2.521-2.044 4.564-4.564 4.564zM109.014 93.08H58.986c-2.52 0-4.563-2.044-4.563-4.564s2.043-4.563 4.563-4.563h50.028c2.521 0 4.564 2.043 4.564 4.563 0 2.52-2.044 4.564-4.564 4.564zM109.014 69.83H58.986c-2.52 0-4.563-2.043-4.563-4.563 0-2.52 2.043-4.563 4.563-4.563h50.028c2.521 0 4.564 2.043 4.564 4.563 0 2.52-2.044 4.564-4.564 4.564z"/>
    </g>
    <defs>
        <clipPath id="prefix__clip0">
            <path fill="#fff" d="M0 0H168V168H0z"/>
        </clipPath>
    </defs>
</svg>
