<svg xmlns="http://www.w3.org/2000/svg" width="210" height="190" fill="none" viewBox="0 0 210 190">
    <path fill="#26BED6" d="M209.997 115.636c.055 13.884-.743 27.756-2.379 41.632-1.208 10.273-9.642 18.152-19.939 18.75-25.923 1.492-51.845 2.178-77.772 2.055l4.694-20.474 1.457-6.358 7.256-31.643h-20.383l23.928-64.014c20.273.178 40.546.851 60.819 2.021 10.298.59 18.731 8.472 19.94 18.746.114.94.224 1.878.325 2.823 1.336 12.155 2.02 24.311 2.054 36.462z" opacity=".5"/>
    <path fill="#003C71" d="M127.209 154.42c0 1.755-1.415 3.179-3.169 3.179h-9.439l1.457-6.358h7.982c1.753.001 3.169 1.424 3.169 3.179z" opacity=".5"/>
    <path fill="#FEEEC7" d="M173.141 162.251c9.225 0 16.703-7.501 16.703-16.754s-7.478-16.754-16.703-16.754c-9.224 0-16.703 7.501-16.703 16.754s7.479 16.754 16.703 16.754z"/>
    <path fill="#F59333" d="M149.813 162.251c9.225 0 16.703-7.501 16.703-16.754s-7.478-16.754-16.703-16.754-16.703 7.501-16.703 16.754 7.478 16.754 16.703 16.754z"/>
    <path fill="#26BED6" d="M81.38 131.525h20.38l-7.256 31.643-1.457 6.357L88.353 190c-22.01-.102-44.029-.784-66.034-2.056-10.294-.597-18.727-8.476-19.935-18.75C.748 155.318-.05 141.446.004 127.562c.034-12.151.727-24.306 2.058-36.461.102-.945.207-1.882.322-2.823 1.208-10.274 9.642-18.157 19.935-18.746 27.663-1.593 55.326-2.267 82.99-2.021l-23.928 64.014z" opacity=".5"/>
    <path fill="#26BED6" d="M21.34 187.865c-9.845-1.025-17.788-8.727-18.958-18.671-1.635-13.876-2.43-27.748-2.38-41.633.034-12.151.728-24.306 2.06-36.462.103-.943.21-1.883.32-2.822 1.17-9.94 9.109-17.642 18.95-18.662-5.572 3.523-9.505 9.427-10.322 16.36-.115.996-.226 1.986-.337 2.985-1.409 12.847-2.14 25.69-2.175 38.537-.055 14.671.784 29.332 2.512 43.998.818 6.938 4.755 12.843 10.33 16.37z" opacity=".3"/>
    <path fill="#FEEEC7" d="M50.33 127.785c-8.63.573-17.259.573-25.889 0-5.003-.332-8.994-4.336-9.325-9.354-.571-8.656-.571-17.312 0-25.968.33-5.018 4.323-9.022 9.325-9.354 8.63-.573 17.26-.573 25.89 0 5.002.332 8.994 4.336 9.325 9.354.57 8.656.57 17.312 0 25.968-.33 5.018-4.323 9.022-9.326 9.354z"/>
    <path fill="#003C71" d="M84.38 153.503H18.136c-1.75 0-3.17-1.423-3.17-3.178 0-1.756 1.42-3.179 3.17-3.179H84.38c1.75 0 3.169 1.423 3.169 3.179 0 1.755-1.419 3.178-3.169 3.178zM50.976 169.525h-32.84c-1.75 0-3.168-1.423-3.168-3.178 0-1.756 1.419-3.179 3.169-3.179h32.839c1.75 0 3.169 1.423 3.169 3.179 0 1.755-1.42 3.178-3.17 3.178zM94.505 163.168l-1.458 6.357H66.263c-1.754 0-3.17-1.424-3.17-3.178 0-1.755 1.416-3.179 3.17-3.179h28.242z" opacity=".5"/>
    <path fill="#26BED6" d="M107.652 26.485h-1.089c-3.842 0-7.028-2.984-7.29-6.828l-.81-11.825C98.175 3.596 101.522 0 105.755 0h2.707c4.233 0 7.58 3.596 7.29 7.832l-.808 11.825c-.263 3.844-3.449 6.828-7.291 6.828zM72.611 35.61l-.943.547c-3.328 1.926-7.574.94-9.718-2.257l-6.595-9.836c-2.362-3.523-1.255-8.316 2.41-10.438l2.344-1.358c3.666-2.123 8.357-.687 10.218 3.126L75.52 26.04c1.689 3.46.417 7.642-2.91 9.57zM142.549 36.156l-.944-.546c-3.327-1.927-4.598-6.109-2.91-9.57l5.194-10.646c1.861-3.814 6.552-5.25 10.218-3.126l2.344 1.357c3.665 2.123 4.772 6.916 2.41 10.439l-6.595 9.835c-2.144 3.198-6.39 4.184-9.717 2.257z" opacity=".4"/>
</svg>
