<svg xmlns="http://www.w3.org/2000/svg" width="120" height="120" fill="none" viewBox="0 0 120 120">
    <g clip-path="url(#prefix__clip0)">
        <path fill="#496D8C" d="M117.53 89.953L75.117 12.047C71.883 6.703 66.257 3.47 60 3.47c-6.258 0-11.883 3.234-15.117 8.578L2.47 89.953c-3.234 5.555-3.304 12.164-.14 17.719 3.164 5.554 8.859 8.859 15.257 8.859h84.825c6.399 0 12.094-3.305 15.258-8.859 3.164-5.555 3.094-12.164-.14-17.72z"/>
        <path fill="#FFDE33" d="M111.483 93.54L69.07 15.632C67.172 12.398 63.727 10.5 60 10.5c-3.727 0-7.172 1.899-9.07 5.133L8.517 93.539c-1.969 3.305-1.969 7.312-.07 10.617 1.898 3.375 5.343 5.344 9.14 5.344h84.826c3.797 0 7.242-1.969 9.14-5.344 1.899-3.305 1.899-7.312-.07-10.617z"/>
        <path fill="#496D8C" d="M60 102.469c-3.876 0-7.031-3.155-7.031-7.031 0-3.877 3.155-7.032 7.031-7.032s7.031 3.155 7.031 7.031c0 3.877-3.155 7.032-7.031 7.032zM67.031 74.344c0 3.876-3.155 7.031-7.031 7.031s-7.031-3.155-7.031-7.031V39.188c0-3.877 3.155-7.032 7.031-7.032s7.031 3.155 7.031 7.032v35.156z"/>
    </g>
    <defs>
        <clipPath id="prefix__clip0">
            <path fill="#fff" d="M0 0H120V120H0z"/>
        </clipPath>
    </defs>
</svg>
