<svg width="16" height="15" viewBox="0 0 16 15" fill="none" xmlns="http://www.w3.org/2000/svg">
<path fill-rule="evenodd" clip-rule="evenodd" d="M6.4 0H9.6C10.4837 0 11.2 0.716344 11.2 1.6V2.4H14.4C15.2837 2.4 16 3.11634 16 4V12.8C16 13.6837 15.2837 14.4 14.4 14.4H1.6C0.716344 14.4 0 13.6837 0 12.8V4C0 3.11634 0.716344 2.4 1.6 2.4H4.8V1.6C4.8 0.716344 5.51634 0 6.4 0ZM4.8 4V3.99961H1.6V8H7.2H8.8H14.4V3.99961H11.2V4H4.8ZM1.6 12.7996V9.6H7.2V10.4H8.8V9.6H14.4V12.7996H1.6ZM9.6 1.6V2.4H6.4V1.6H9.6Z" fill="#828282"/>
</svg>
