<svg width="14" height="14" viewBox="0 0 14 14" fill="none" xmlns="http://www.w3.org/2000/svg">
    <path d="M11.8 6.087V4.174C11.8 2.208 9.673.562 7 .562S2.2 2.155 2.2 4.174v1.913M2.855 6.14H2.2c-.655 0-1.2.637-1.2 1.381s.545 1.381 1.2 1.381h.655V6.14z" stroke="#3F3B3B" stroke-width=".5" stroke-miterlimit="10" stroke-linecap="round" stroke-linejoin="round"/>
    <path d="M11.146 6.087h.655c.654 0 1.2.637 1.2 1.381s-.546 1.381-1.2 1.381h-.656V6.087zM7.381 13.312h-.709c-.327 0-.545-.212-.545-.531v-.053a.54.54 0 0 1 .545-.531h.71c.327 0 .545.212.545.53v.054c-.055.319-.273.531-.545.531zM11.8 8.903v1.222c0 1.487-1.2 2.656-2.727 2.656H8.037" stroke="#3F3B3B" stroke-width=".5" stroke-miterlimit="10" stroke-linecap="round" stroke-linejoin="round"/>
</svg>
