<svg width="10" height="10" viewBox="0 0 10 10" fill="none" xmlns="http://www.w3.org/2000/svg">
    <path fill-rule="evenodd" clip-rule="evenodd" d="M0 2.796a.41.41 0 0 1 .41-.41h8.894a.41.41 0 1 1 0 .82H.41a.41.41 0 0 1-.41-.41z" fill="#3F3B3B"/>
    <path fill-rule="evenodd" clip-rule="evenodd" d="M7.787 4.743a.41.41 0 0 1-.023-.58l1.267-1.368-1.267-1.37A.41.41 0 0 1 8.366.87L9.89 2.516a.41.41 0 0 1 0 .557L8.366 4.72a.41.41 0 0 1-.58.022zM10 7.794a.41.41 0 0 1-.41.41H.696a.41.41 0 1 1 0-.82H9.59a.41.41 0 0 1 .41.41z" fill="#3F3B3B"/>
    <path fill-rule="evenodd" clip-rule="evenodd" d="M2.213 5.846a.41.41 0 0 1 .023.58L.969 7.794l1.267 1.369a.41.41 0 0 1-.602.557L.11 8.073a.41.41 0 0 1 0-.557L1.634 5.87a.41.41 0 0 1 .58-.023z" fill="#3F3B3B"/>
</svg>
