<svg width="258" height="15" viewBox="0 0 258 15" fill="none" xmlns="http://www.w3.org/2000/svg">
    <path d="M12 4.758a.727.727 0 0 0-.217-.516l-1.053-1.03a.76.76 0 0 0-1.053 0L4.6 8.19 2.323 5.955a.76.76 0 0 0-1.053 0L.217 6.985A.727.727 0 0 0 0 7.5c0 .19.077.379.217.515l2.802 2.743 1.053 1.03a.76.76 0 0 0 1.053 0l1.053-1.03 5.605-5.485A.727.727 0 0 0 12 4.758z" fill="#26BED6" opacity=".7"/>
    <circle cx="105.5" cy="7.5" r="7.5" fill="#26BED6"/>
    <path d="M103.88 5.854v-.08c0-.586.43-1.085 1.112-1.085.623 0 1.085.403 1.085 1.026 0 .553-.339.988-.817 1.493l-2.664 2.89V11h5.049V9.818h-3.072v-.043l1.654-1.858c.843-.902 1.289-1.482 1.289-2.336 0-1.198-.983-2.052-2.46-2.052-1.563 0-2.551 1.02-2.551 2.256v.07h1.375z" fill="#fff"/>
    <circle cx="195.5" cy="7.5" r="7.5" fill="#828282"/>
    <path d="M194.234 7.734h.779c.903 0 1.418.484 1.429 1.171.005.688-.516 1.203-1.418 1.203-.854 0-1.321-.488-1.391-1.106h-1.203c.032 1.16.848 2.148 2.556 2.148 1.547 0 2.777-.891 2.756-2.202a1.731 1.731 0 0 0-1.574-1.767v-.043c.564-.08 1.348-.682 1.327-1.719-.022-1.095-1.026-1.896-2.46-1.896-1.585 0-2.428.983-2.455 2.09h1.219c.033-.5.398-1.064 1.203-1.064.731 0 1.204.44 1.209 1.053.005.645-.5 1.106-1.241 1.106h-.736v1.026z" fill="#fff"/>
    <path opacity=".7" d="M80 7.5h15" stroke="#26BED6" stroke-width=".5"/>
    <path d="M171 7.5h15" stroke="#828282" stroke-width=".5"/>
    <path opacity=".7" d="M19.266 11V4.506h2.229v-.838h-5.388v.838h2.23V11h.929zm2.865 0h.924V7.562c0-.773.419-1.46 1.391-1.46.827 0 1.38.483 1.38 1.434V11h.924V7.38c0-1.375-.86-2.116-2.025-2.116-.913 0-1.434.478-1.643.838h-.027v-2.82h-.924V11zm6.56-6.375h.769l.634-.989h.01l.64.989h.762l-1.133-1.617h-.548l-1.133 1.617zm1.45 6.466c1.247 0 1.994-.693 2.209-1.627h-.919c-.183.526-.612.854-1.268.854-.918 0-1.466-.736-1.466-1.81v-.102h3.728v-.527c0-1.552-.849-2.615-2.326-2.615-1.483 0-2.326 1.063-2.326 2.55v.635c0 1.606.897 2.642 2.369 2.642zM28.698 7.66v-.016c0-.892.548-1.606 1.407-1.606.844 0 1.397.71 1.397 1.606v.016h-2.804zM33.507 11h.924V7.423c0-.854.542-1.327 1.235-1.327.768 0 1.23.473 1.23 1.338V11h.919V7.434c0-.785.445-1.338 1.246-1.338.805 0 1.219.532 1.219 1.252V11h.918V7.16c0-1.16-.703-1.896-1.896-1.896-.918 0-1.514.424-1.73.907h-.042c-.22-.553-.747-.907-1.628-.907-.746 0-1.246.397-1.428.784h-.049v-.693h-.918V11zm10.903 0h.924V7.562c0-.773.419-1.46 1.391-1.46.827 0 1.38.483 1.38 1.434V11h.924V7.38c0-1.375-.86-2.116-2.025-2.116-.913 0-1.434.478-1.643.838h-.027v-2.82h-.924V11zm8.306-6.375-.988-1.467h-.94l1.22 1.467h.708zm-.918 6.466c.832 0 1.348-.338 1.633-.795h.027V11h.886V7.106c0-1.187-.876-1.842-2.079-1.842-1.364 0-2.035.72-2.095 1.708h.87c.054-.564.468-.935 1.193-.935.763 0 1.192.408 1.192 1.15v.574h-1.487c-1.295.006-1.982.629-1.982 1.617 0 1.037.752 1.713 1.842 1.713zm.247-.768c-.59 0-1.144-.311-1.144-.977 0-.51.333-.876 1.106-.876h1.418v.655c0 .704-.59 1.198-1.38 1.198zm3.58.677h.923V7.562c0-.773.42-1.46 1.392-1.46.821 0 1.38.483 1.38 1.434V11h.924V7.38c0-1.375-.865-2.116-2.025-2.116-.919 0-1.44.478-1.649.838h-.027v-.747h-.918V11zm5.878 0h.924V7.562c0-.773.42-1.46 1.391-1.46.827 0 1.38.483 1.38 1.434V11h.924V7.38c0-1.375-.859-2.116-2.025-2.116-.913 0-1.434.478-1.643.838h-.027v-2.82h-.924V11zm7.794 0h.918V3.282h-.918V11zm3.789-6.375h.709l1.214-1.467h-.935l-.988 1.467zm2.932.73h-.983l-1.53 4.62h-.032l-1.526-4.62h-1.026L73 11.081l-.086.306c-.161.596-.467.816-1.112.816-.14 0-.317-.01-.408-.021v.752c.156.032.35.048.52.048.952 0 1.505-.365 1.945-1.563l.145-.392c.006-.005 1.96-5.49 2.014-5.672z" fill="#26BED6"/>
    <path d="M119.507 11V4.77h2.133V3.668h-5.549V4.77h2.127V11h1.289zm2.672 0h1.268V7.632c0-.736.403-1.31 1.208-1.31.677 0 1.193.392 1.193 1.289V11h1.267V7.348c0-1.391-.832-2.122-1.987-2.122-.934 0-1.445.516-1.633.897h-.048V3.282h-1.268V11zm9.161-.693h.048V11h1.203V7.138c0-1.289-.961-1.912-2.24-1.912-1.557 0-2.191.833-2.239 1.794h1.192c.038-.483.398-.816 1.021-.816.644 0 1.009.349 1.009.972v.526h-1.418c-1.31.006-2.014.65-2.014 1.665 0 1.058.763 1.719 1.864 1.719.838 0 1.332-.35 1.574-.779zm-1.177-.172c-.51 0-.993-.274-.993-.848 0-.457.317-.774.983-.774h1.181v.618c0 .596-.51 1.004-1.171 1.004zM133.7 11h1.268V7.632c0-.736.403-1.31 1.203-1.31.671 0 1.192.392 1.192 1.289V11h1.268V7.348c0-1.391-.827-2.122-1.987-2.122-.94 0-1.461.516-1.649.897h-.049v-.806H133.7V11zm6.045 0h1.268V7.632c0-.736.403-1.31 1.208-1.31.677 0 1.193.392 1.193 1.289V11h1.267V7.348c0-1.391-.832-2.122-1.987-2.122-.935 0-1.445.516-1.633.897h-.048V3.282h-1.268V11zm8.315-5.683h-.817v1.005h.795v3.077c0 1.145.408 1.639 1.805 1.639.258 0 .489-.027.591-.043v-.962c-.07.01-.172.01-.28.01-.623 0-.859-.17-.859-.772V6.32h1.106V5.318h-1.106V3.942h-1.235v1.375zm5.545-.096c-1.649 0-2.556 1.15-2.556 2.707v.44c0 1.617.902 2.729 2.556 2.729 1.649 0 2.546-1.112 2.546-2.734v-.44c0-1.558-.902-2.702-2.546-2.702zm0 .999c.86 0 1.268.714 1.268 1.713v.44c0 .973-.403 1.714-1.268 1.714-.87 0-1.278-.741-1.278-1.713v-.44c0-.995.413-1.714 1.278-1.714zm6.615 4.087h.048V11h1.203V7.138c0-1.289-.961-1.912-2.24-1.912-1.557 0-2.191.833-2.239 1.794h1.192c.038-.483.397-.816 1.02-.816.645 0 1.01.349 1.01.972v.526h-1.418c-1.31.006-2.014.65-2.014 1.665 0 1.058.763 1.719 1.864 1.719.838 0 1.332-.35 1.574-.779zm-1.177-.172c-.51 0-.993-.274-.993-.848 0-.457.317-.774.983-.774h1.181v.618c0 .596-.51 1.004-1.171 1.004zm.602-5.516 1.305-1.53h-1.155l-1.058 1.53h.908zM162.58 11h1.268V7.632c0-.736.403-1.31 1.203-1.31.671 0 1.192.392 1.192 1.289V11h1.268V7.348c0-1.391-.827-2.122-1.988-2.122-.939 0-1.46.516-1.648.897h-.049v-.806h-1.246V11z" fill="#26BED6"/>
    <path d="M212.365 11V3.674h-.801v3.158h-3.851V3.674h-.8V11h.8V7.557h3.851V11h.801zm3.606-5.715c-1.53 0-2.379 1.112-2.379 2.621v.553c0 1.515.843 2.632 2.379 2.632s2.374-1.117 2.374-2.632v-.553c0-1.509-.848-2.62-2.374-2.62zm0 .693c.999 0 1.585.747 1.585 1.966v.472c0 1.225-.586 1.972-1.585 1.972-1.004 0-1.589-.752-1.589-1.972v-.472c0-1.22.585-1.966 1.589-1.966zm6.701 4.292h.021V11h.768V7.09c0-1.155-.848-1.805-2.019-1.805-1.305 0-1.977.682-2.041 1.66h.746c.065-.596.489-.978 1.263-.978.8 0 1.262.425 1.262 1.214v.607h-1.531c-1.284.005-1.96.628-1.96 1.6 0 1.032.746 1.703 1.836 1.703.86 0 1.386-.37 1.655-.821zm-1.467.14c-.633 0-1.208-.34-1.208-1.037 0-.548.349-.94 1.171-.94h1.504v.692c0 .758-.629 1.284-1.467 1.284zm.64-5.796-1.005-1.467h-.838l1.22 1.467h.623zM224.807 11h.789V7.557c0-.806.441-1.547 1.472-1.547.881 0 1.445.532 1.445 1.493V11h.789V7.385c0-1.364-.864-2.1-2.025-2.1-.923 0-1.45.484-1.659.86h-.022v-.769h-.789V11zm8.024-5.624h-.768v.672h.768v3.416c0 1.085.247 1.59 1.531 1.59.188 0 .376-.022.456-.038v-.65c-.08.011-.161.011-.258.011-.714 0-.94-.172-.94-.865V6.048h1.15v-.672h-1.15V3.964h-.789v1.412zm3.08 5.624h.784V7.557c0-.806.446-1.547 1.477-1.547.881 0 1.445.532 1.445 1.493V11h.79V7.385c0-1.364-.865-2.1-2.025-2.1-.924 0-1.45.484-1.665.86h-.022V3.282h-.784V11zm8.962-.73h.021V11h.768V7.09c0-1.155-.848-1.805-2.019-1.805-1.305 0-1.977.682-2.041 1.66h.746c.065-.596.489-.978 1.263-.978.8 0 1.262.425 1.262 1.214v.607h-1.531c-1.284.005-1.96.628-1.96 1.6 0 1.032.746 1.703 1.836 1.703.86 0 1.386-.37 1.655-.821zm-1.467.14c-.633 0-1.208-.34-1.208-1.037 0-.548.349-.94 1.171-.94h1.504v.692c0 .758-.629 1.284-1.467 1.284zm.64-5.796-1.005-1.467h-.838l1.22 1.467h.623zM247.008 11h.789V7.557c0-.806.441-1.547 1.472-1.547.881 0 1.445.532 1.445 1.493V11h.789V7.385c0-1.364-.864-2.1-2.025-2.1-.923 0-1.45.484-1.659.86h-.022v-.769h-.789V11zm5.814 0h.784V7.557c0-.806.446-1.547 1.477-1.547.881 0 1.445.532 1.445 1.493V11h.789V7.385c0-1.364-.864-2.1-2.024-2.1-.924 0-1.451.484-1.666.86h-.021V3.282h-.784V11z" fill="#828282"/>
</svg>
