<svg width="251" height="15" viewBox="0 0 251 15" fill="none" xmlns="http://www.w3.org/2000/svg">
    <path d="M102 4.758a.724.724 0 0 0-.217-.516l-1.053-1.03a.759.759 0 0 0-1.053 0L94.6 8.19l-2.276-2.234a.76.76 0 0 0-1.053 0l-1.053 1.03A.726.726 0 0 0 90 7.5c0 .19.077.379.217.515l2.802 2.743 1.053 1.03a.76.76 0 0 0 1.053 0l1.053-1.03 5.605-5.485a.724.724 0 0 0 .217-.515z" fill="#26BED6" opacity=".7"/>
    <circle cx="186.5" cy="7.5" r="7.5" fill="#26BED6"/>
    <path d="M185.234 7.734h.779c.903 0 1.418.484 1.429 1.171.005.688-.516 1.203-1.418 1.203-.854 0-1.321-.488-1.391-1.106h-1.203c.032 1.16.848 2.148 2.556 2.148 1.547 0 2.777-.891 2.756-2.202a1.731 1.731 0 0 0-1.574-1.767v-.043c.564-.08 1.348-.682 1.327-1.719-.022-1.095-1.026-1.896-2.46-1.896-1.585 0-2.428.983-2.455 2.09h1.219c.033-.5.398-1.064 1.203-1.064.731 0 1.204.44 1.209 1.053.005.645-.5 1.106-1.241 1.106h-.736v1.026z" fill="#fff"/>
    <path opacity=".7" d="M71 7.5h15" stroke="#26BED6" stroke-width=".5"/>
    <path d="M12 3.758a.727.727 0 0 0-.217-.516l-1.053-1.03a.76.76 0 0 0-1.053 0L4.6 7.19 2.323 4.955a.76.76 0 0 0-1.053 0L.217 5.985A.727.727 0 0 0 0 6.5c0 .19.077.379.217.515l2.802 2.743 1.053 1.03a.76.76 0 0 0 1.053 0l1.053-1.03 5.605-5.485A.727.727 0 0 0 12 3.758zM19.196 10c2.197 0 3.239-1.31 3.239-3.663 0-2.347-1.058-3.658-3.24-3.658h-2.158v3.266h-.575v.607h.575V10h2.159zm-1.477-.623V6.552h2.084v-.607h-2.084V3.308h1.46c1.73 0 2.547 1.074 2.547 3.029 0 1.966-.811 3.04-2.546 3.04h-1.461zm8.945-8.11a.93.93 0 0 1 .462-.124c.328 0 .559.204.559.462 0 .236-.14.381-.457.526l.253.344c.376-.161.676-.451.676-.875 0-.51-.392-.865-.972-.865-.225 0-.435.054-.52.113v.419zm-2.078 2.325h.585l.784-1.17h.016l.785 1.17h.585l-1.17-1.665h-.415l-1.17 1.665zm1.37.715c-1.467 0-2.343 1.042-2.343 2.578v.628c0 1.536.876 2.578 2.342 2.578 1.467 0 2.342-1.042 2.342-2.578v-.628c0-1.526-.886-2.578-2.342-2.578zm0 .596c1.02 0 1.664.752 1.664 2.02v.547c0 1.279-.644 2.014-1.665 2.014-1.02 0-1.665-.74-1.665-2.014v-.548c0-1.273.645-2.02 1.665-2.02zM29.534 10h.677V4.398h-.677V10zm-.15-6.999c0 .269.22.49.488.49a.49.49 0 0 0 0-.984.492.492 0 0 0-.488.494zm3.985 4.507c0 1.525.838 2.583 2.266 2.583 1.322 0 1.96-.736 2.117-1.595h-.666c-.108.505-.548.978-1.397.978-1.004 0-1.643-.747-1.643-1.972V6.89c0-1.246.623-1.971 1.622-1.971.768 0 1.267.52 1.385 1.074h.672c-.054-.816-.795-1.686-2.095-1.686-1.386 0-2.261 1.004-2.261 2.535v.666zM38.872 10h.672V6.573c0-.848.489-1.649 1.568-1.649.913 0 1.483.591 1.483 1.553V10h.676V6.38c0-1.343-.854-2.073-1.998-2.073-.961 0-1.504.515-1.708.945h-.021V2.287h-.672V10zm10.042-5.602h-.677v3.437c0 .946-.596 1.639-1.563 1.639-.838 0-1.45-.446-1.45-1.488V4.398h-.677v3.77c0 1.279.832 1.923 1.966 1.923.956 0 1.504-.467 1.697-.945h.032V10h.672V4.398zm5.583 0h-.715l-1.665 4.829h-.026l-1.676-4.83h-.752l2.095 5.684-.13.402c-.171.559-.461.897-1.1.897-.135 0-.334-.016-.435-.037v.58c.14.027.343.048.531.048 1.01 0 1.375-.65 1.67-1.45l.183-.483 2.02-5.64zm4.288-2.03L60.038.864h-.72l-1.08 1.504h.548zm-3.023 1.224h.585l.784-1.17h.016l.785 1.17h.585l-1.17-1.665h-.415l-1.17 1.665zm1.418 6.5c1.246 0 1.944-.72 2.116-1.553h-.682c-.145.526-.607.967-1.413.967-1.015 0-1.627-.774-1.627-1.998V7.34h3.802v-.424c0-1.611-.843-2.61-2.24-2.61-1.412 0-2.24 1.01-2.24 2.562v.623c0 1.6.86 2.6 2.284 2.6zm-1.606-3.336V6.74c0-1.085.617-1.848 1.563-1.848.94 0 1.563.763 1.563 1.848v.016h-3.126zM60.56 10h.671V6.573c0-.848.483-1.649 1.563-1.649.913 0 1.482.591 1.482 1.553V10h.672V6.38c0-1.343-.849-2.073-1.993-2.073-.956 0-1.498.515-1.703.945h-.021v-.854h-.671V10z" fill="#26BED6" opacity=".7"/>
    <path d="M162 7.5h15" stroke="#26BED6" stroke-width=".5"/>
    <path opacity=".7" d="M110.158 11V4.302h2.304V3.68h-5.285v.623h2.304V11h.677zm3.054 0h.671V7.573c0-.848.489-1.649 1.568-1.649.913 0 1.483.591 1.483 1.553V11h.677V7.38c0-1.343-.854-2.073-1.999-2.073-.961 0-1.503.515-1.708.945h-.021V3.287h-.671V11zm8.934-.784h.022V11h.655V7.068c0-1.133-.816-1.761-1.976-1.761-1.273 0-1.923.66-1.999 1.606h.645c.081-.623.51-1.02 1.321-1.02.833 0 1.332.429 1.332 1.261v.666h-1.584c-1.273.006-1.939.629-1.939 1.585 0 1.031.741 1.686 1.831 1.686.93 0 1.461-.456 1.692-.875zm-1.547.29c-.692 0-1.272-.387-1.272-1.117 0-.586.375-1.005 1.256-1.005h1.563v.747c0 .816-.682 1.375-1.547 1.375zm3.607.494h.671V7.573c0-.848.484-1.649 1.563-1.649.914 0 1.483.591 1.483 1.553V11h.671V7.38c0-1.343-.848-2.073-1.992-2.073-.956 0-1.499.515-1.703.945h-.022v-.854h-.671V11zm5.755 0h.672V7.573c0-.848.488-1.649 1.568-1.649.913 0 1.482.591 1.482 1.553V11h.677V7.38c0-1.343-.854-2.073-1.998-2.073-.961 0-1.504.515-1.708.945h-.021V3.287h-.672V11zm7.976-5.602h-.806v.58h.806V9.55c0 1.047.269 1.504 1.472 1.504.209 0 .397-.022.483-.043v-.559a1.959 1.959 0 0 1-.328.022c-.709 0-.95-.178-.95-.865V5.978h1.224v-.58h-1.224V4.007h-.677v1.391zm5.009-.091c-1.467 0-2.342 1.042-2.342 2.578v.628c0 1.536.875 2.578 2.342 2.578 1.466 0 2.341-1.042 2.341-2.578v-.628c0-1.526-.886-2.578-2.341-2.578zm0 .596c1.02 0 1.665.752 1.665 2.02v.547c0 1.279-.645 2.014-1.665 2.014-1.021 0-1.666-.74-1.666-2.014v-.548c0-1.273.645-2.02 1.666-2.02zm6.716 4.313h.021V11h.656V7.068c0-1.133-.817-1.761-1.977-1.761-1.273 0-1.923.66-1.998 1.606h.645c.08-.623.51-1.02 1.321-1.02.832 0 1.332.429 1.332 1.261v.666h-1.584c-1.273.006-1.939.629-1.939 1.585 0 1.031.741 1.686 1.831 1.686.929 0 1.461-.456 1.692-.875zm-1.547.29c-.693 0-1.273-.387-1.273-1.117 0-.586.376-1.005 1.257-1.005h1.563v.747c0 .816-.682 1.375-1.547 1.375zm.494-5.914 1.252-1.504h-.72l-1.08 1.504h.548zM151.722 11h.671V7.573c0-.848.484-1.649 1.563-1.649.913 0 1.483.591 1.483 1.553V11h.671V7.38c0-1.343-.849-2.073-1.993-2.073-.956 0-1.498.515-1.702.945h-.022v-.854h-.671V11z" fill="#26BED6"/>
    <path d="M203.671 11V3.668h-1.3v3.024h-3.266V3.668h-1.299V11h1.299V7.788h3.266V11h1.3zm3.558-5.78c-1.649 0-2.556 1.15-2.556 2.708v.44c0 1.617.902 2.729 2.556 2.729 1.649 0 2.546-1.112 2.546-2.734v-.44c0-1.558-.902-2.702-2.546-2.702zm0 1c.86 0 1.268.714 1.268 1.713v.44c0 .973-.403 1.714-1.268 1.714-.87 0-1.278-.741-1.278-1.713v-.44c0-.995.413-1.714 1.278-1.714zm6.615 4.087h.048V11h1.203V7.138c0-1.289-.961-1.912-2.24-1.912-1.557 0-2.191.833-2.239 1.794h1.192c.038-.483.397-.816 1.02-.816.645 0 1.01.349 1.01.972v.526h-1.418c-1.31.006-2.014.65-2.014 1.665 0 1.058.763 1.719 1.864 1.719.838 0 1.332-.35 1.574-.779zm-1.177-.172c-.51 0-.993-.274-.993-.848 0-.457.317-.774.983-.774h1.181v.618c0 .596-.51 1.004-1.171 1.004zm.736-5.516-1.058-1.53h-1.155l1.305 1.53h.908zM216.204 11h1.268V7.632c0-.736.403-1.31 1.203-1.31.671 0 1.192.392 1.192 1.289V11h1.268V7.348c0-1.391-.827-2.122-1.988-2.122-.939 0-1.46.516-1.648.897h-.049v-.806h-1.246V11zm8.314-5.683h-.816v1.005h.795v3.077c0 1.145.408 1.639 1.805 1.639.257 0 .488-.027.59-.043v-.962c-.069.01-.171.01-.279.01-.623 0-.859-.17-.859-.772V6.32h1.106V5.318h-1.106V3.942h-1.236v1.375zM227.851 11h1.268V7.632c0-.736.403-1.31 1.208-1.31.677 0 1.193.392 1.193 1.289V11h1.267V7.348c0-1.391-.832-2.122-1.987-2.122-.935 0-1.445.516-1.633.897h-.048V3.282h-1.268V11zm9.16-.693h.049V11h1.203V7.138c0-1.289-.962-1.912-2.24-1.912-1.557 0-2.191.833-2.24 1.794h1.193c.037-.483.397-.816 1.02-.816.645 0 1.01.349 1.01.972v.526h-1.418c-1.31.006-2.014.65-2.014 1.665 0 1.058.763 1.719 1.864 1.719.838 0 1.332-.35 1.573-.779zm-1.176-.172c-.51 0-.993-.274-.993-.848 0-.457.316-.774.982-.774h1.182v.618c0 .596-.51 1.004-1.171 1.004zm.736-5.516-1.058-1.53h-1.155l1.305 1.53h.908zM239.372 11h1.268V7.632c0-.736.402-1.31 1.203-1.31.671 0 1.192.392 1.192 1.289V11h1.268V7.348c0-1.391-.828-2.122-1.988-2.122-.94 0-1.461.516-1.649.897h-.048v-.806h-1.246V11zm6.045 0h1.268V7.632c0-.736.402-1.31 1.208-1.31.677 0 1.192.392 1.192 1.289V11h1.268V7.348c0-1.391-.832-2.122-1.987-2.122-.935 0-1.445.516-1.633.897h-.048V3.282h-1.268V11z" fill="#26BED6"/>
</svg>
