<svg width="18" height="18" viewBox="0 0 18 18" fill="none" xmlns="http://www.w3.org/2000/svg">
    <path d="M16.933 13.816c-.066-.134-.333-.335-.866-.602-.134-.067-.334-.201-.6-.335-.267-.134-.534-.268-.734-.402-.2-.134-.4-.268-.6-.335 0 0-.133-.066-.266-.2a1.395 1.395 0 0 0-.4-.268c-.134-.067-.2-.067-.334-.067-.133 0-.333.134-.6.335-.2.2-.466.468-.6.736-.2.268-.4.469-.6.736-.2.201-.4.335-.533.335-.067 0-.133 0-.267-.067-.133-.067-.2-.067-.2-.067-.066 0-.133-.067-.266-.134-.134-.066-.2-.133-.2-.133A12.118 12.118 0 0 1 7.2 11.338a12.16 12.16 0 0 1-2-2.678s-.067-.067-.133-.2c-.067-.134-.134-.201-.134-.268s-.066-.134-.066-.201-.134-.335-.134-.402c0-.134.134-.335.334-.535.266-.201.466-.402.733-.603.267-.2.467-.402.733-.602.2-.201.334-.402.334-.603 0-.134 0-.2-.067-.335-.133-.134-.2-.267-.333-.401-.067-.201-.134-.268-.2-.268-.067-.2-.2-.402-.334-.67a5.893 5.893 0 0 1-.4-.669c-.133-.268-.266-.469-.333-.67-.267-.468-.467-.803-.6-.803-.067 0-.133-.067-.267-.067-.2 0-.466.067-.8.134A5.389 5.389 0 0 0 2.8 1.7c-.4.2-.8.67-1.2 1.406C1.2 3.84 1 4.51 1 5.247c0 .2 0 .402.067.603 0 .2.066.401.133.67.067.2.133.4.133.535.067.134.134.334.2.602.134.335.2.469.2.536.267.736.6 1.406.934 2.008.6 1.004 1.4 2.008 2.466 3.013 1.067 1.07 2.067 1.874 3 2.477.6.334 1.267.67 2 .937.067 0 .267.067.534.2.333.135.533.201.6.201.133.067.266.067.533.134s.467.134.667.134.4.067.6.067c.666 0 1.4-.2 2.133-.602.733-.402 1.2-.804 1.4-1.205.067-.201.133-.469.267-.804.066-.334.133-.602.133-.803 0 0 0-.067-.067-.134z" stroke="#26BED6" stroke-width=".75" stroke-miterlimit="10" stroke-linecap="round" stroke-linejoin="round"/>
</svg>
