<svg xmlns="http://www.w3.org/2000/svg" width="11" height="11" fill="none" viewBox="0 0 11 11">
    <path stroke="#219653" stroke-linecap="round" stroke-linejoin="round" stroke-miterlimit="10" stroke-width=".5" d="M9.655 9.715H1.417a.247.247 0 0 1-.248-.246V.507c0-.135.112-.245.248-.245h8.238c.137 0 .248.11.248.245V9.47a.247.247 0 0 1-.248.246zM1.17 1.571h8.733M1.227 5.357h8.618"/>
    <path stroke="#219653" stroke-linecap="round" stroke-linejoin="round" stroke-miterlimit="10" stroke-width=".5" d="M2.65 7.567a.421.421 0 0 0 .423-.42c0-.232-.19-.42-.423-.42a.421.421 0 0 0-.423.42c0 .232.19.42.423.42zM8.424 7.567a.421.421 0 0 0 .423-.42c0-.232-.19-.42-.423-.42a.421.421 0 0 0-.423.42c0 .232.19.42.423.42zM3.087 9.797v.695a.247.247 0 0 1-.247.246H1.767a.247.247 0 0 1-.247-.245v-.696M9.46 9.797v.695a.247.247 0 0 1-.248.246H8.14a.247.247 0 0 1-.248-.245v-.696M.262 3.474V1.817c0-.135.111-.246.247-.246h.743M10.738 3.474V1.817a.247.247 0 0 0-.247-.246h-.743"/>
</svg>
