<svg xmlns="http://www.w3.org/2000/svg" width="13" height="13" fill="none" viewBox="0 0 13 13">
    <path stroke="#fff" stroke-linecap="round" stroke-linejoin="round" stroke-miterlimit="10" stroke-width=".5" d="M11.45 11.521H1.635a.295.295 0 0 1-.294-.292V.552c0-.16.132-.292.294-.292h9.815c.162 0 .295.132.295.292V11.23c0 .16-.133.292-.295.292zM1.34 1.82h10.405M1.41 6.33h10.266"/>
    <path stroke="#fff" stroke-linecap="round" stroke-linejoin="round" stroke-miterlimit="10" stroke-width=".5" d="M3.105 8.962a.502.502 0 0 0 .503-.5c0-.276-.225-.5-.503-.5a.502.502 0 0 0-.504.5c0 .276.225.5.504.5zM9.983 8.962a.502.502 0 0 0 .504-.5c0-.276-.225-.5-.504-.5a.502.502 0 0 0-.503.5c0 .276.225.5.503.5zM3.626 11.619v.828c0 .161-.133.293-.295.293H2.053a.295.295 0 0 1-.294-.293v-.828M11.217 11.619v.828c0 .161-.133.293-.295.293H9.645a.295.295 0 0 1-.295-.293v-.828M.26 4.087V2.112c0-.16.133-.292.295-.292h.884M12.74 4.087V2.112a.295.295 0 0 0-.295-.292h-.884"/>
</svg>
