<svg xmlns="http://www.w3.org/2000/svg" width="15" height="15" fill="none" viewBox="0 0 15 15">
    <path stroke="#fff" stroke-miterlimit="10" stroke-width=".5" d="M14.34 8.506a15.156 15.156 0 0 0-1.133.006c-.173.01-.351.062-.512.144-.422.212-.84.452-1.259.681-.33.181-.662.357-.993.538l-.353.195c-.775-.099-1.55-.195-2.325-.286-.77-.09-1.542-.158-2.31-.257-.21-.025-1.217.574-1.101.63.424.213.863.38 1.295.566.577.25 1.154.51 1.734.753l.141.06c-.336.208-.67.42-1.006.63-.478.3-.954.605-1.432.908-.084.053-.164.062-.248-.003-.552-.421-1.106-.84-1.66-1.256-.026-.02-.063-.028-.088-.014-.162.085-.32.175-.481.266.014.045.02.079.034.104.421.83.845 1.655 1.264 2.484.042.085.08.099.144.076.385-.13.772-.249 1.157-.382.503-.172 1.004-.35 1.505-.537.401-.15.797-.32 1.196-.48.297-.12 3.199-1.446 3.247-1.475.218-.127.438-.248.659-.367.721-.39 1.437-.81 2.113-1.352.263-.212.526-.43.715-.786a.816.816 0 0 0 .096-.314c.023-.28-.16-.53-.398-.532z"/>
    <path stroke="#fff" stroke-linecap="round" stroke-miterlimit="10" stroke-width=".5" d="M3.358 10.42h-1.05V.706c0-.246.185-.446.414-.446h6.683c.226 0 .413.2.413.446v8.1M3.013 10.42H.26"/>
    <path stroke="#fff" stroke-linecap="round" stroke-miterlimit="10" stroke-width=".5" d="M5.024 3.483H4.012a.415.415 0 0 1-.413-.413V2.057c0-.226.186-.413.413-.413h1.012c.227 0 .413.187.413.413V3.07a.412.412 0 0 1-.413.413zM8.113 3.483H7.1a.415.415 0 0 1-.413-.413V2.057c0-.226.187-.413.413-.413h1.013c.226 0 .413.187.413.413V3.07a.415.415 0 0 1-.413.413zM5.024 6.755H4.012a.415.415 0 0 1-.413-.413V5.33c0-.226.186-.413.413-.413h1.012c.227 0 .413.187.413.413v1.012a.412.412 0 0 1-.413.413zM8.186 6.755h-1.16a.34.34 0 0 1-.339-.34V5.257a.34.34 0 0 1 .34-.34h1.16a.34.34 0 0 1 .339.34v1.16a.34.34 0 0 1-.34.34z"/>
</svg>
