<svg xmlns="http://www.w3.org/2000/svg" width="15" height="15" fill="none"><rect id="backgroundrect" width="100%" height="100%" x="0" y="0" fill="none" stroke="none"/>
    
    
    
<g class="currentLayer" style=""><title>Layer 1</title><path stroke="#333333" stroke-miterlimit="10" stroke-width=".5" d="M14.34,9.163894730567932 a15.156,15.156 0 0 0 -1.133,0.006000000000000002 c-0.17300000000000001,0.010000000000000002 -0.35100000000000003,0.06200000000000001 -0.512,0.14400000000000002 c-0.42200000000000004,0.21200000000000002 -0.8400000000000001,0.452 -1.259,0.6810000000000002 c-0.33000000000000007,0.18100000000000002 -0.6620000000000001,0.35700000000000004 -0.993,0.538 l-0.35300000000000004,0.19500000000000003 c-0.775,-0.09900000000000003 -1.55,-0.19500000000000003 -2.325,-0.28600000000000003 c-0.77,-0.09000000000000002 -1.542,-0.15800000000000003 -2.31,-0.257 c-0.21000000000000002,-0.025000000000000005 -1.217,0.5740000000000001 -1.101,0.6300000000000001 c0.42400000000000004,0.21300000000000002 0.8630000000000001,0.38000000000000006 1.295,0.5660000000000001 c0.5770000000000001,0.25 1.154,0.51 1.734,0.7530000000000001 l0.14100000000000001,0.06000000000000001 c-0.3360000000000001,0.20800000000000002 -0.6700000000000002,0.42000000000000004 -1.006,0.6300000000000001 c-0.47800000000000004,0.30000000000000004 -0.9540000000000001,0.6050000000000001 -1.432,0.908 c-0.08400000000000002,0.05300000000000001 -0.16400000000000003,0.06200000000000001 -0.24800000000000003,-0.003000000000000001 c-0.552,-0.42100000000000004 -1.106,-0.8400000000000001 -1.6600000000000001,-1.256 c-0.026000000000000006,-0.020000000000000004 -0.06300000000000001,-0.028000000000000004 -0.08800000000000002,-0.014000000000000002 c-0.16200000000000003,0.08500000000000002 -0.32000000000000006,0.17500000000000002 -0.48100000000000004,0.266 c0.014000000000000002,0.04500000000000001 0.020000000000000004,0.07900000000000001 0.03400000000000001,0.10400000000000001 c0.42100000000000004,0.8300000000000001 0.8450000000000001,1.6550000000000002 1.264,2.484 c0.04200000000000001,0.08500000000000002 0.08000000000000002,0.09900000000000003 0.14400000000000002,0.07600000000000001 c0.38500000000000006,-0.13 0.772,-0.24900000000000003 1.157,-0.38200000000000006 c0.503,-0.17200000000000001 1.004,-0.35000000000000003 1.505,-0.537 c0.401,-0.15000000000000002 0.797,-0.32000000000000006 1.196,-0.48000000000000004 c0.29700000000000004,-0.12000000000000001 3.199,-1.4460000000000002 3.247,-1.475 c0.21800000000000003,-0.127 0.43800000000000006,-0.24800000000000003 0.6590000000000001,-0.36700000000000005 c0.7210000000000001,-0.39000000000000007 1.437,-0.81 2.113,-1.352 c0.263,-0.21200000000000002 0.526,-0.43000000000000005 0.7150000000000001,-0.786 a0.8160000000000001,0.8160000000000001 0 0 0 0.09600000000000003,-0.31400000000000006 c0.023000000000000007,-0.28 -0.16000000000000003,-0.53 -0.3980000000000001,-0.532 z" id="svg_1" class="" fill="#feedc7" fill-opacity="1" stroke-opacity="1"/><path stroke="#333333" stroke-linecap="round" stroke-miterlimit="10" stroke-width=".5" d="M3.358,10.42 h-1.05 V0.7060000000000002 c0,-0.24600000000000005 0.18500000000000005,-0.4460000000000001 0.4140000000000001,-0.4460000000000001 h6.683 c0.22600000000000006,0 0.4130000000000001,0.2 0.4130000000000001,0.4460000000000001 v8.1 M3.013,10.42 H0.26 " id="svg_2" class="" fill="#feedc7" fill-opacity="1" stroke-opacity="1"/><path stroke="#333333" stroke-linecap="round" stroke-miterlimit="10" stroke-width=".5" d="M5.024 3.483H4.012a.415.415 0 0 1-.413-.413V2.057c0-.226.186-.413.413-.413h1.012c.227 0 .413.187.413.413V3.07a.412.412 0 0 1-.413.413zM8.113 3.483H7.1a.415.415 0 0 1-.413-.413V2.057c0-.226.187-.413.413-.413h1.013c.226 0 .413.187.413.413V3.07a.415.415 0 0 1-.413.413zM5.024 6.755H4.012a.415.415 0 0 1-.413-.413V5.33c0-.226.186-.413.413-.413h1.012c.227 0 .413.187.413.413v1.012a.412.412 0 0 1-.413.413zM8.186 6.755h-1.16a.34.34 0 0 1-.339-.34V5.257a.34.34 0 0 1 .34-.34h1.16a.34.34 0 0 1 .339.34v1.16a.34.34 0 0 1-.34.34z" id="svg_3" class="" fill="#feedc7" fill-opacity="1" stroke-opacity="1"/></g></svg>