<svg xmlns="http://www.w3.org/2000/svg" width="11" height="11" fill="none" viewBox="0 0 11 11">
    <path stroke="#219653" stroke-linecap="round" stroke-linejoin="round" stroke-miterlimit="10" stroke-width=".5" d="M7.31 4.812s-.219 1.467-.225 1.96c-.01.915.867 1.626 1.826 1.626.958 0 1.837-.713 1.827-1.626-.007-.493-.225-1.96-.225-1.96H7.31zM8.916 8.4v2.338M8.292 10.738h1.12M7.106 6.486h3.632M4.736 3.454c0-.454-.611-.84-1.47-.99V.263H1.731v2.203c-.856.147-1.47.533-1.47.989 0 .038.005.075.013.112a.205.205 0 0 0-.012.071v6.86c0 .123.103.22.227.22h4.018c.126 0 .227-.1.227-.22v-6.86a.205.205 0 0 0-.013-.071.403.403 0 0 0 .015-.112zM1.732 1.188h1.534"/>
    <path stroke="#219653" stroke-linecap="round" stroke-linejoin="round" stroke-miterlimit="10" stroke-width=".5" d="M2.844 4.436H.262v4.68h2.582v-4.68z"/>
</svg>
