<svg xmlns="http://www.w3.org/2000/svg" width="11" height="11" fill="none" viewBox="0 0 11 11">
    <path stroke="#219653" stroke-linecap="round" stroke-linejoin="round" stroke-miterlimit="10" stroke-width=".5" d="M5.121 2.169h.645v.54c.593 0 1.072.135 1.436.407.35.262.526.598.526 1.009 0 .061-.004.12-.014.182H6.355c0-.321-.196-.52-.589-.595V4.72c.248.095.495.185.743.275.386.149.683.319.89.511.288.27.434.6.434.988 0 .537-.197.95-.59 1.24-.364.266-.857.4-1.477.4v.7h-.645v-.7c-.476 0-.908-.144-1.295-.428-.44-.317-.659-.727-.659-1.226 0-.051.002-.104.007-.162h1.401c.043.238.088.401.14.492.08.16.214.25.406.274V5.956c-.607-.135-1.045-.309-1.317-.517-.346-.262-.518-.639-.518-1.128 0-.914.612-1.446 1.835-1.596V2.17zm-.35 1.723c-.087.094-.132.188-.132.286 0 .22.161.36.482.42v-.89a.657.657 0 0 0-.35.184zm.995 3.306c.16 0 .313-.063.462-.188.15-.127.211-.26.183-.399a.546.546 0 0 0-.26-.344.69.69 0 0 0-.385-.127v1.058z"/>
    <path stroke="#219653" stroke-linecap="round" stroke-linejoin="round" stroke-miterlimit="10" stroke-width=".5" d="M5.5 10.738A5.238 5.238 0 1 0 5.5.262a5.238 5.238 0 0 0 0 10.476z"/>
</svg>
