<svg xmlns="http://www.w3.org/2000/svg" width="11" height="11" fill="none" viewBox="0 0 11 11">
    <path stroke="#219653" stroke-linecap="round" stroke-linejoin="round" stroke-miterlimit="10" stroke-width=".5" d="M5.756 5.291L.528.334A.155.155 0 0 0 .344.31a.168.168 0 0 0-.08.174 6.976 6.976 0 0 0 2.063 3.87L4.24 6.166c.219.209.56.194.763-.033l.154-.17C6.69 7.73 8.95 10.077 9.227 10.34c.435.413 1.032.47 1.337.13.305-.339.199-.949-.237-1.362-.276-.26-2.736-2.386-4.57-3.816zM6.29 4.671c.278.217.57.45.867.69.395.014.794-.131 1.101-.438l2.384-2.69a.27.27 0 0 0-.006-.36.25.25 0 0 0-.37.003L8.331 4.01a.282.282 0 0 1-.407-.006.303.303 0 0 1 .006-.42l1.982-2.08a.29.29 0 0 0 0-.397.27.27 0 0 0-.384-.01L7.448 3.073a.282.282 0 0 1-.407-.006.303.303 0 0 1 .006-.42L9.177.723a.267.267 0 0 0 .014-.38.25.25 0 0 0-.35-.017L6.16 2.697c-.389.389-.53.941-.422 1.448l.553.526zM4.604 7.133c-.346 0-.677-.133-.929-.373l-.133-.127C2.17 7.824.862 9.02.672 9.211c-.412.412-.5 1.005-.197 1.326.303.322.882.25 1.293-.161.21-.209 1.615-1.744 2.908-3.245-.025.002-.047.002-.072.002z"/>
</svg>
