<svg xmlns="http://www.w3.org/2000/svg" width="14" height="13" fill="none" viewBox="0 0 14 13">
    <path stroke="#000" stroke-linecap="round" stroke-linejoin="round" stroke-miterlimit="10" stroke-width=".5" d="M6.805 6.251L.577.345A.185.185 0 0 0 .358.32a.2.2 0 0 0-.095.207A8.31 8.31 0 0 0 2.72 5.135l2.279 2.16c.26.248.668.231.91-.04l.182-.202c1.828 2.104 4.519 4.9 4.848 5.212.519.492 1.23.56 1.594.155.363-.404.236-1.13-.283-1.623-.329-.31-3.259-2.842-5.445-4.546zM7.441 5.513c.331.258.68.536 1.033.821.47.017.946-.156 1.312-.521l2.84-3.206a.32.32 0 0 0-.008-.429.298.298 0 0 0-.441.005L9.873 4.725a.336.336 0 0 1-.485-.007.36.36 0 0 1 .008-.5l2.362-2.478a.346.346 0 0 0 0-.473.322.322 0 0 0-.459-.013L8.821 3.61a.336.336 0 0 1-.486-.007.36.36 0 0 1 .008-.5L10.88.808a.318.318 0 0 0 .017-.453.298.298 0 0 0-.417-.02L7.285 3.162a1.884 1.884 0 0 0-.502 1.725l.658.627zM5.433 8.445c-.412 0-.807-.158-1.107-.444l-.158-.15C2.532 9.268.975 10.691.748 10.92c-.49.49-.595 1.197-.234 1.58.36.383 1.05.297 1.54-.193.25-.248 1.924-2.076 3.464-3.865-.03.002-.056.002-.085.002z"/>
</svg>
