<svg xmlns="http://www.w3.org/2000/svg" width="14" height="13" fill="none" viewBox="0 0 14 13">
    <path stroke="#fff" stroke-linecap="round" stroke-linejoin="round" stroke-miterlimit="10" stroke-width=".5" d="M3.915 2.022L.26 12.74l10.502-4.244"/>
    <path stroke="#fff" stroke-linecap="round" stroke-linejoin="round" stroke-miterlimit="10" stroke-width=".5" d="M10.812 8.428c.595-.629-.454-2.586-2.342-4.371C6.582 2.272 4.57 1.334 3.974 1.963c-.595.629.453 2.586 2.342 4.371 1.888 1.785 3.9 2.723 4.496 2.094zM8.912 7.402s3.12-1.292 3.828.414M5.23 4.306S9.447 1.211 6.35.26M11.945 2.78l-1.007-.197-.734.719-.125-1.019-.909-.475.931-.434.171-1.012.7.751 1.014-.148-.497.896.456.92zM11.362 5.89a.792.792 0 1 0 0-1.584.792.792 0 0 0 0 1.585z"/>
</svg>
