<svg xmlns="http://www.w3.org/2000/svg" width="13" height="13" fill="none" viewBox="0 0 13 13">
    <path stroke="#fff" stroke-linecap="round" stroke-linejoin="round" stroke-miterlimit="10" stroke-width=".5" d="M6.48 1.306A1.11 1.11 0 0 0 5.378.26a1.11 1.11 0 0 0-1.102 1.046h-.002v6.93M9.976 1.306A1.11 1.11 0 0 0 8.874.26a1.11 1.11 0 0 0-1.102 1.046h-.003v6.93M4.274 3.805h3.503M4.274 6.734h3.503M.284 8.752s.414 1.452 2.482 1.452 1.873-1.23 3.722-1.23 1.435 1.23 3.065 1.23 1.581-1.255 3.187-1.23M.26 11.288s.414 1.452 2.481 1.452c2.068 0 1.874-1.23 3.722-1.23 1.85 0 1.436 1.23 3.066 1.23s1.581-1.255 3.187-1.23"/>
</svg>
