<svg xmlns="http://www.w3.org/2000/svg" width="13" height="14" fill="none" viewBox="0 0 13 14">
    <path stroke="#000" stroke-linecap="round" stroke-linejoin="round" stroke-miterlimit="10" stroke-width=".5" d="M8.377 7.207a4.06 4.06 0 0 0-8.117 0h8.117z"/>
    <path stroke="#000" stroke-linecap="round" stroke-linejoin="round" stroke-width=".5" d="M4.33 8.157v.488"/>
    <path stroke="#000" stroke-dasharray="47.67 47.67" stroke-linecap="round" stroke-linejoin="round" stroke-width=".5" d="M4.33 9.808v1.742"/>
    <path stroke="#000" stroke-linecap="round" stroke-linejoin="round" stroke-width=".5" d="M4.33 12.13v.488M2.235 8.157l-.166.459"/>
    <path stroke="#000" stroke-dasharray="31.98 31.98" stroke-linecap="round" stroke-linejoin="round" stroke-width=".5" d="M1.803 9.35l-.929 2.566"/>
    <path stroke="#000" stroke-linecap="round" stroke-linejoin="round" stroke-width=".5" d="M.743 12.282l-.166.458M6.427 8.157l.166.459"/>
    <path stroke="#000" stroke-dasharray="31.98 31.98" stroke-linecap="round" stroke-linejoin="round" stroke-width=".5" d="M6.858 9.35l.93 2.566"/>
    <path stroke="#000" stroke-linecap="round" stroke-linejoin="round" stroke-width=".5" d="M7.919 12.282l.166.458"/>
    <path stroke="#000" stroke-linecap="round" stroke-linejoin="round" stroke-miterlimit="10" stroke-width=".5" d="M3.94 3.185A2.934 2.934 0 0 1 6.867.26h2.949a2.934 2.934 0 0 1 2.925 2.925v9.506"/>
</svg>
