<svg xmlns="http://www.w3.org/2000/svg" width="13" height="13" fill="none" viewBox="0 0 13 13">
    <path stroke="#fff" stroke-linecap="round" stroke-linejoin="round" stroke-miterlimit="10" stroke-width=".5" d="M6.883 2.537a.53.53 0 0 1-.007.738.53.53 0 0 1-.74.008L.26 9.156l3.58 3.583 5.876-5.874a.53.53 0 0 1 .008-.739.53.53 0 0 1 .739-.007l2.277-2.277L9.16.26 6.883 2.537z"/>
    <path stroke="#fff" stroke-linecap="round" stroke-linejoin="round" stroke-width=".5" d="M7.304 3.819l.261.256"/>
    <path stroke="#fff" stroke-dasharray="26.06 26.06" stroke-linecap="round" stroke-linejoin="round" stroke-width=".5" d="M8.017 4.52l.678.671"/>
    <path stroke="#fff" stroke-linecap="round" stroke-linejoin="round" stroke-width=".5" d="M8.922 5.415l.26.256"/>
    <path stroke="#fff" stroke-linecap="round" stroke-linejoin="round" stroke-miterlimit="10" stroke-width=".5" d="M5.527 4.813c-.1.142-.202.283-.292.432a.58.58 0 0 0-.079.231c-.029.215-.046.437-.068.654l-.053.514c-.005.06-.013.122-.017.185-.24.268-.476.536-.713.807-.234.268-.46.543-.697.81-.063.072-.097.609-.046.58.19-.106.366-.23.548-.344.244-.154.493-.305.734-.461a.809.809 0 0 0 .059-.04l-.022.547c-.01.258-.02.52-.027.777-.002.047-.017.078-.066.093-.302.1-.604.2-.907.302-.014.005-.027.017-.03.03-.009.082-.014.165-.023.25.02.008.034.013.048.015.425.054.846.107 1.27.164.045.005.06-.005.067-.034.05-.18.104-.356.156-.537.063-.236.126-.47.185-.71.046-.19.085-.384.13-.577.03-.144.28-1.587.282-1.611.007-.115.02-.23.032-.344.039-.375.066-.753.034-1.15a1.173 1.173 0 0 0-.112-.475.386.386 0 0 0-.093-.117c-.095-.083-.236-.078-.3.01z"/>
</svg>
