<svg xmlns="http://www.w3.org/2000/svg" width="11" height="11" fill="none" viewBox="0 0 11 11">
    <path stroke="#219653" stroke-linecap="round" stroke-linejoin="round" stroke-miterlimit="10" stroke-width=".5" d="M5.448 10.738c.537 0 .973-.458.973-1.024 0-.566-.436-1.024-.973-1.024-.537 0-.973.458-.973 1.024 0 .566.436 1.024.973 1.024zM5.448 7.124c.564 0 1.083.2 1.496.535l.942-1.389a3.933 3.933 0 0 0-2.44-.853c-.861 0-1.66.281-2.32.764l.948 1.384a2.37 2.37 0 0 1 1.374-.441z"/>
    <path stroke="#219653" stroke-linecap="round" stroke-linejoin="round" stroke-miterlimit="10" stroke-width=".5" d="M5.448 4.478c1.107 0 2.13.382 2.957 1.028l.945-1.39a6.55 6.55 0 0 0-1.336-.8 6.265 6.265 0 0 0-2.568-.547c-.89 0-1.753.183-2.568.546a6.579 6.579 0 0 0-1.224.715l.95 1.387a4.798 4.798 0 0 1 2.844-.94z"/>
    <path stroke="#219653" stroke-linecap="round" stroke-linejoin="round" stroke-miterlimit="10" stroke-width=".5" d="M5.448 1.969c1.624 0 3.125.557 4.343 1.498l.947-1.392a8.82 8.82 0 0 0-1.794-1.068A8.517 8.517 0 0 0 5.448.262c-1.212 0-2.387.25-3.494.742-.6.267-1.165.6-1.692.993l.95 1.386A7.08 7.08 0 0 1 5.448 1.97z"/>
</svg>
