<svg width="68" height="68" viewBox="0 0 68 68" fill="none" xmlns="http://www.w3.org/2000/svg">
    <g opacity=".5">
        <path d="M47.813 48.875a1.06 1.06 0 0 1-.752-.311l-7.437-7.438a1.062 1.062 0 1 1 1.502-1.502l7.438 7.437a1.062 1.062 0 0 1-.752 1.814z" fill="#003C71"/>
        <path d="M63.882 63.881a3.174 3.174 0 0 1-4.493 0L48.753 53.247l-4.526-4.526 4.495-4.494 4.526 4.526 10.634 10.635a3.176 3.176 0 0 1 0 4.493z" fill="#003C71"/>
        <path d="m53.243 48.748-4.522 4.466-4.493-4.493 4.494-4.494 4.52 4.52z" fill="#A3D4F7"/>
        <path d="M35.063 57.375H15.936V23.317l9.563-8.442 9.563 8.442v34.058z" fill="#26BED6"/>
        <path d="M25.5 26.563a2.125 2.125 0 1 0 0-4.25 2.125 2.125 0 0 0 0 4.25z" fill="#E9EEF2"/>
        <path d="M25.5 3.188a22.313 22.313 0 1 0 0 44.625 22.313 22.313 0 0 0 0-44.626zm0 40.374a18.062 18.062 0 1 1 0-36.124 18.062 18.062 0 0 1 0 36.124z" fill="#003C71"/>
        <path d="M28.688 35.063h-6.375a1.062 1.062 0 1 1 0-2.126h6.375a1.062 1.062 0 1 1 0 2.126zM28.688 39.313h-6.375a1.062 1.062 0 1 1 0-2.126h6.375a1.062 1.062 0 1 1 0 2.126zM24.438 54.188h-4.25a1.062 1.062 0 1 1 0-2.126h4.25a1.062 1.062 0 1 1 0 2.126zM30.813 54.188h-2.125a1.062 1.062 0 1 1 0-2.126h2.125a1.062 1.062 0 1 1 0 2.126z" fill="#003C71"/>
    </g>
</svg>
