<svg xmlns="http://www.w3.org/2000/svg" width="14" height="14" fill="none" viewBox="0 0 14 14">
    <path stroke="#E52822" stroke-miterlimit="10" stroke-width=".482735" d="M13.385 7.939a14.147 14.147 0 0 0-1.059.005 1.25 1.25 0 0 0-.478.135c-.393.198-.784.422-1.174.636-.31.169-.618.333-.927.502l-.33.182c-.723-.093-1.447-.182-2.17-.267-.718-.084-1.438-.148-2.156-.24-.196-.024-1.136.536-1.027.589.396.198.805.353 1.209.527.538.233 1.077.476 1.618.703l.132.055c-.314.195-.626.393-.94.589-.446.28-.89.565-1.336.847-.079.05-.153.058-.232-.003a216.78 216.78 0 0 0-1.55-1.172c-.023-.018-.058-.026-.081-.013-.15.08-.299.164-.45.248.014.043.02.074.033.098.393.773.789 1.544 1.18 2.318.04.079.073.092.134.071.36-.121.72-.232 1.08-.356.47-.161.937-.328 1.404-.502.375-.14.745-.298 1.117-.449.277-.11 2.985-1.349 3.03-1.375.204-.119.41-.232.615-.343.673-.364 1.341-.755 1.972-1.262.246-.198.491-.401.668-.734a.763.763 0 0 0 .09-.293c.021-.261-.15-.493-.372-.496z"/>
    <path stroke="#E52822" stroke-linecap="round" stroke-miterlimit="10" stroke-width=".482735" d="M3.134 9.726h-.98V.658c0-.23.172-.417.386-.417h6.238c.211 0 .385.188.385.417v7.56M2.812 9.726H.242"/>
    <path stroke="#E52822" stroke-linecap="round" stroke-miterlimit="10" stroke-width=".482735" d="M4.69 3.25h-.946a.388.388 0 0 1-.385-.385V1.92c0-.21.174-.385.385-.385h.945c.212 0 .386.174.386.385v.945a.384.384 0 0 1-.386.386zM7.572 3.25h-.945a.388.388 0 0 1-.385-.385V1.92c0-.21.174-.385.385-.385h.945c.211 0 .385.174.385.385v.945a.388.388 0 0 1-.385.386zM4.69 6.305h-.946a.388.388 0 0 1-.385-.385v-.946c0-.21.174-.385.385-.385h.945c.212 0 .386.174.386.385v.946a.384.384 0 0 1-.386.385zM7.64 6.305H6.559a.318.318 0 0 1-.316-.317V4.906c0-.174.142-.317.316-.317h1.083c.174 0 .316.143.316.317v1.082a.318.318 0 0 1-.316.317z"/>
</svg>
