<svg width="48" height="48" viewBox="0 0 48 48" fill="none" xmlns="http://www.w3.org/2000/svg">
<rect width="48" height="48" fill="white"/>
<path d="M17.8787 17.392H16.3131C16.1409 17.392 16 17.2512 16 17.0792C16 16.9071 16.1409 16.7664 16.3131 16.7664H17.8787C18.0509 16.7664 18.1918 16.9071 18.1918 17.0792C18.1918 17.2512 18.0509 17.392 17.8787 17.392Z" fill="black"/>
<path d="M31.6867 17.392H21.7611C21.5889 17.392 21.448 17.2512 21.448 17.0792C21.448 16.9071 21.5889 16.7664 21.7611 16.7664H31.6867C31.8589 16.7664 31.9998 16.9071 31.9998 17.0792C31.9998 17.2512 31.8589 17.392 31.6867 17.392Z" fill="black"/>
<path d="M19.8044 18.1584C19.2094 18.1584 18.7241 17.6735 18.7241 17.0792C18.7241 16.4848 19.2094 16 19.8044 16C20.3993 16 20.8846 16.4848 20.8846 17.0792C20.8846 17.6735 20.3993 18.1584 19.8044 18.1584ZM19.8044 16.6256C19.5539 16.6256 19.3503 16.8289 19.3503 17.0792C19.3503 17.3294 19.5539 17.5327 19.8044 17.5327C20.0548 17.5327 20.2584 17.3294 20.2584 17.0792C20.2584 16.8289 20.0548 16.6256 19.8044 16.6256Z" fill="black"/>
<path d="M31.6868 24.2893H29.495C29.3228 24.2893 29.1819 24.1485 29.1819 23.9765C29.1819 23.8045 29.3228 23.6637 29.495 23.6637H31.6868C31.859 23.6637 31.9999 23.8045 31.9999 23.9765C31.9999 24.1485 31.859 24.2893 31.6868 24.2893Z" fill="black"/>
<path d="M25.8003 24.2893H16.3131C16.1409 24.2893 16 24.1485 16 23.9765C16 23.8045 16.1409 23.6637 16.3131 23.6637H25.8003C25.9725 23.6637 26.1134 23.8045 26.1134 23.9765C26.1134 24.1485 25.9725 24.2893 25.8003 24.2893Z" fill="black"/>
<path d="M27.6322 25.0557C27.0373 25.0557 26.552 24.5708 26.552 23.9765C26.552 23.3822 27.0373 22.8973 27.6322 22.8973C28.2271 22.8973 28.7125 23.3822 28.7125 23.9765C28.7125 24.5708 28.2271 25.0557 27.6322 25.0557ZM27.6322 23.5229C27.3817 23.5229 27.1782 23.7263 27.1782 23.9765C27.1782 24.2268 27.3817 24.4301 27.6322 24.4301C27.8827 24.4301 28.0862 24.2268 28.0862 23.9765C28.0862 23.7263 27.8827 23.5229 27.6322 23.5229Z" fill="black"/>
<path d="M31.6869 31.2336H25.8944C25.7222 31.2336 25.5813 31.0929 25.5813 30.9208C25.5813 30.7488 25.7222 30.608 25.8944 30.608H31.6869C31.8592 30.608 32.0001 30.7488 32.0001 30.9208C32.0001 31.0929 31.8592 31.2336 31.6869 31.2336Z" fill="black"/>
<path d="M22.043 31.2336H16.3131C16.1409 31.2336 16 31.0929 16 30.9208C16 30.7488 16.1409 30.608 16.3131 30.608H22.043C22.2152 30.608 22.3561 30.7488 22.3561 30.9208C22.3561 31.0929 22.2152 31.2336 22.043 31.2336Z" fill="black"/>
<path d="M23.9687 32C23.3737 32 22.8884 31.5152 22.8884 30.9209C22.8884 30.3265 23.3737 29.8417 23.9687 29.8417C24.5636 29.8417 25.0489 30.3265 25.0489 30.9209C25.0489 31.5152 24.5636 32 23.9687 32ZM23.9687 30.4673C23.7182 30.4673 23.5146 30.6706 23.5146 30.9209C23.5146 31.1711 23.7182 31.3744 23.9687 31.3744C24.2191 31.3744 24.4227 31.1711 24.4227 30.9209C24.4227 30.6706 24.2191 30.4673 23.9687 30.4673Z" fill="black"/>
</svg>
