<svg xmlns="http://www.w3.org/2000/svg" width="182" height="130" fill="none" viewBox="0 0 182 130">
    <path fill="#fff" d="M8.986 53.697l-.22-.125a6.418 6.418 0 0 0-2.003-.345c-4.102 0-6.2 3.32-6.2 9.988 0 1.221.126 6.325.345 7.546v9.425c-.22 3.1-.344 3.663-.344 3.757h.219-.22c0 5.667 3.1 6.763 5.668 6.763.876 0 1.878-.126 2.661-.564 1.566-.877 2.568-2.567 2.661-4.32v-5.449c0-1.346.126-3.319.22-5.98.125-2.661.219-8.328.219-9.863 0-5.73-1.002-9.267-3.006-10.833zM1.221 83.442c.125.344.125.563 0 .657v-.657zM6.325 52.257h.219l.125-.125c3.1-1.222 4.665-3.883 4.665-7.765 0-4.321-2.567-5.23-4.665-5.23H5.667C2.004 39.702 0 41.8 0 45.338c0 1.785.658 3.444 1.785 4.665a6.821 6.821 0 0 0 4.54 2.255z"/>
    <path fill="#27BED7" d="M107.958 10.99L63.372 0l-3.35 12.524 1.22 3.131-2.097.094-4.227 15.968 10.207-4.32 2.568 5.886 40.265-22.293z"/>
    <path fill="#fff" d="M107.958 10.99L65.125 27.396l2.568 5.887 40.265-22.293zM60.022 12.524l1.22 3.131 46.716-4.665-47.936 1.534zM63.466 40.828h-.22c-1.346-.219-2.786-.125-4.007.439-1.346.344-2.442 1.346-3.006 2.661a113.21 113.21 0 0 1-5.229 15.75 49.672 49.672 0 0 1-8.547 13.431c-.439.439-1.096.564-2.098.22-1.66-.564-2.88-1.88-3.538-3.538C30.715 55.7 26.395 46.59 23.827 42.612c-1.002-1.565-2.787-2.567-4.665-2.442-.783 0-1.44.125-2.223.22-1.347.344-2.568 1.346-3.006 2.66-.658 1.222-.783 2.787-.22 4.102 4.447 9.111 7.328 14.967 8.768 17.972 2.223 5.23 3.757 8.861 4.54 10.99 4.32 10.207 8.422 15.186 12.65 15.186.343 0 .657 0 1.001-.126 2.442-.438 4.978-3.538 7.671-9.424 3.225-6.982 5.323-11.867 6.45-14.309 3.1-6.324 5.229-10.645 6.325-12.868v-.094c.563-1.566 1.346-3.1 2.097-4.665.877-1.566 1.44-3.32 1.66-5.23 0-1.346-.439-2.66-1.44-3.663v-.093h.03zM74.58 39.733l-.218-.126a6.548 6.548 0 0 0-2.098-.344c-4.102 0-6.2 3.319-6.2 10.082 0 1.346.126 2.661.345 3.882v27.084c-.22 3.1-.345 3.757-.345 3.882l.22.125h-.22c0 5.668 3.1 6.889 5.668 6.889.876 0 1.878-.126 2.661-.564 1.566-1.002 2.567-2.661 2.661-4.446V63.121c0-1.44.126-3.444.22-6.105.125-2.661.219-4.76.219-6.2.062-5.886-.94-9.55-2.912-11.083zm-7.764 43.803a1.8 1.8 0 0 1 .125.657l-.125-.657zM128.716 40.828h-.219c-1.346-.219-2.787-.125-4.008.439-1.346.344-2.442 1.346-3.005 2.661-1.441 5.323-3.1 10.646-5.229 15.75a49.684 49.684 0 0 1-8.548 13.431c-.438.439-1.096.564-2.004.22-1.659-.564-2.88-1.88-3.538-3.538-6.105-13.965-10.426-23.076-12.994-27.084-1.44-2.223-3.757-2.88-6.982-2.223-1.346.344-2.442 1.346-3.005 2.661-.658 1.222-.783 2.787-.22 4.102 4.321 8.86 7.327 14.966 8.767 17.972 2.223 5.229 3.757 8.861 4.665 10.99 4.321 10.207 8.423 15.092 12.65 15.092.344 0 .657 0 1.002-.126 2.442-.438 4.978-3.538 7.671-9.424 3.225-7.201 5.322-11.867 6.45-14.309a5665.736 5665.736 0 0 1 6.324-12.868v-.094c.658-1.566 1.347-3.1 2.223-4.54.877-1.566 1.441-3.32 1.66-5.229 0-1.346-.439-2.661-1.347-3.663l-.313-.22zM178.969 58.926c-.344-1.879-.438-3.663-.563-5.542V48.06c0-5.542-1.566-8.328-4.54-8.328-3.758 0-5.981 2.098-6.45 6.105v5.448c0 12.305-.126 19.538-.219 21.291-.345 2.88-1.785 5.542-3.883 7.546-2.317 2.442-4.759 3.663-7.327 3.663-.563 0-1.095-.125-1.659-.344-4.008-1.566-7.42-4.446-9.424-8.329-1.566-3.1-2.317-7.42-2.317-12.774v-9.425c.125-4.32-.658-8.547-2.004-12.65l-.125-.218-.22-.126c-.876-.782-2.097-1.22-3.318-1.346-1.66.125-3.225 1.096-4.102 2.442-1.096 1.347-1.785 2.88-1.879 4.666 0 .782 0 2.003.126 3.538.125 1.565.125 2.661.125 3.444 0 1.565 0 4.008-.125 7.107-.126 3.1-.126 5.542-.126 7.108-.125 4.32.439 8.547 1.785 12.649 2.098 5.761 2.442 6.45 2.661 6.669 3.319 4.665 8.423 6.982 15.092 6.982 1.002 0 2.442-.125 4.446-.219 2.004-.344 3.882-.877 5.667-1.66 1.66-.782 3.444-1.346 5.323-1.44 1.346 0 2.661.126 4.008.345 1.44.219 2.88.344 4.226.344 4.321 0 5.229-2.317 5.229-4.32V64.592c.157-1.91-.062-3.789-.407-5.667z"/>
    <path fill="#27BED7" d="M125.053 102.071c-1.565-1.565-3.444-2.661-5.542-3.225-2.567-.876-5.229-1.22-7.89-1.002-4.759.439-9.111 2.662-12.211 6.325l-.125.125c-.564.783-1.002 1.66-1.44 2.443-1.566 2.316-2.317 4.978-2.317 7.764 0 5.323 2.567 9.644 7.545 12.775a17.096 17.096 0 0 0 6.982 2.223c1.096.125 2.317.219 3.445.219 1.44 0 2.786-.438 4.007-1.096 1.566-.782 2.662-1.44 3.319-1.878 2.098-1.221 3.883-2.787 5.323-4.759 1.44-1.785 2.442-4.008 2.88-6.325.126-.438.126-1.002.126-1.44-.126-2.223-.439-4.446-1.221-6.544a19.402 19.402 0 0 0-2.881-5.605zm-3.663 12.994c.125 3.225-1.096 6.199-3.319 8.422 0 0-.219.22-1.221.439-3.1.438-3.757.563-3.883.563-2.223-.125-4.321-1.002-5.886-2.567-1.659-1.44-3.006-3.444-3.757-5.542-.439-1.346-.439-3.757 0-7.327.125-1.095 1.096-2.316 2.88-3.663 1.221-1.221 2.881-2.004 4.54-2.223h.219a9.642 9.642 0 0 1 7.671 3.319c1.879 2.474 2.975 5.448 2.756 8.579z"/>
    <path fill="#27BED7" d="M97.656 124.145h-2.88c-.564 0-1.002.125-1.566.344-.344.126-.657.22-1.001.22-3.006 0-5.98-1.347-8.767-4.102-2.787-2.755-4.227-5.542-4.227-8.423-.126-2.661 1.002-5.322 3.005-7.201 2.004-1.878 4.76-2.88 7.546-2.786.783 0 1.44.125 2.223.344a9.39 9.39 0 0 0 2.442.344c1.88 0 2.881-1.002 2.881-2.661 0-.877-.438-2.098-2.317-2.88a9.11 9.11 0 0 0-3.444-.658c-4.665 0-9.33 1.565-13.088 4.321-4.227 2.88-6.669 7.671-6.669 12.774-.125 4.666 2.098 9.112 5.98 11.773 3.758 2.442 8.11 4.008 12.65 4.321.438 0 .783.125 1.22.125 1.222 0 2.568-.219 3.758-.658 2.317-.782 3.444-2.003 3.444-3.663-.094-1.409-.97-1.534-1.19-1.534zM181.192 120.92c0-4.102-.219-8.203-.657-12.211-1.002-7.107-3.444-11.084-7.108-11.867a14.05 14.05 0 0 0-3.005-.344c-2.098 0-4.102.438-6.106 1.002-.877.344-1.565.877-2.223 1.44-.658.783-1.566 1.347-2.567 1.441-1.222-.126-2.443-.439-3.445-1.096-3.318-1.66-3.757-1.879-3.882-1.879-1.44-.564-2.881-.783-4.446-.783-2.004 0-6.888.564-8.986 1.879a5.726 5.726 0 0 0-4.008-1.221c-.563 0-1.221.125-1.784.344-1.566.564-2.317 1.44-2.443 2.442-.219 3.758-.219 10.208 0 19.319 0 .563 0 1.346-.125 2.223 0 1.096-.125 1.878-.125 2.317 0 4.446 1.785 5.448 3.319 5.448 1.002 0 1.878-.345 2.786-.783l.219-.125.126-.125c.438-.564.657-1.002.876-1.347l.126-.219v-.219c0-2.098-.126-4.102-.345-6.2-.219-3.224-.344-5.322-.344-6.449-.125-2.568.219-4.979 1.002-7.421.657-1.785 1.221-3.538 1.659-5.323 1.096 0 2.223.126 3.319.219l.125.126h.126c3.444.782 4.101 1.221 4.226 1.221 1.002.877 1.879 2.004 2.568 3.225.657 1.096 1.221 2.317 1.44 3.538.345 3.006.438 6.105.345 9.205 0 .438 0 1.346-.126 2.317-.125 1.002-.125 2.004-.125 2.567-.125 1.785.438 3.538 1.66 4.885.438.438 1.095.657 1.784.657 2.881 0 3.663-1.221 3.757-2.317.345-3.005.439-6.105.345-9.111-.125-4.446-.125-7.546 0-8.986a13.57 13.57 0 0 1 1.878-5.542c.22-.344.564-.657.877-.877a8.85 8.85 0 0 1 1.879-.219c2.223 0 4.321.564 6.199 1.785 1.879 1.002 3.006 2.787 3.1 4.884.219 10.99.438 17.096.877 18.536.438 2.004 2.661 2.567 5.541.783 1.347-.783 1.879-1.785 1.879-2.662 0-.876-.188-2.473-.188-4.477zM70.448 120.607c-.344 0-.783.125-1.096.219-1.44.658-2.442 2.223-2.223 3.757 0 1.096.344 2.223 1.002 3.1.564.877 1.566 1.44 2.567 1.346a4.346 4.346 0 0 0 2.787-1.002c.783-.657 1.096-1.659 1.096-2.661 0-1.221-.438-2.317-1.221-3.225-.783-.877-1.785-1.44-2.912-1.534z"/>
</svg>
