<svg xmlns="http://www.w3.org/2000/svg" width="290" height="319" fill="none" viewBox="0 0 290 319">
    <path fill="#EEFEFF" d="M270.886 311.684c11.363-20.517 17.857-44.063 17.857-69.176 0-79.148-64.359-143.312-143.748-143.312-79.39 0-143.748 64.164-143.748 143.312 0 25.113 6.493 48.659 17.857 69.176h24.822l103.425-13.052 82.688 13.052h40.847z"/>
    <path fill="#D8F5F9" d="M30.904 148.289l-1.929.939 64.019 130.704 1.93-.939-64.02-130.704z"/>
    <path fill="#D8F5F9" d="M32.3 153.597C4.18 167.276-7.865 200.376 5.384 227.524c-1.624-3.341.89-7.831 5.55-10.128 4.714-2.297 9.793-1.462 11.417 1.879-1.624-3.341.838-7.883 5.55-10.128 4.714-2.245 9.793-1.462 11.417 1.879-1.624-3.341.838-7.883 5.55-10.128 4.714-2.245 9.793-1.462 11.417 1.879-1.624-3.341.838-7.883 5.55-10.128 4.714-2.297 9.793-1.462 11.417 1.879-1.624-3.341.838-7.883 5.55-10.128 4.714-2.297 9.793-1.462 11.417 1.879-1.624-3.341.838-7.883 5.55-10.128 4.661-2.297 9.793-1.462 11.417 1.88-13.197-27.253-46.764-38.165-74.886-24.434z"/>
    <path fill="#CFE1ED" d="M151.75 259.789s63.312-54.14 30.583-168.059c8.064-4.803 5.76-.156 5.76-.156s41.423 97.473-3.09 180.38c-33.253-6.265-33.253-12.165-33.253-12.165z"/>
    <path fill="#CFE1ED" d="M184.061 93.975s-27.912-10.18-49.226 9.084c-21.313 19.265-26.707 47.458-26.707 47.458S79.85 133.392 99.802 99.3c18.904-32.265 76.351-23.076 84.887-7.466.524.94-.786 1.253-.628 2.14zM187.674 93.349s35.82-23.808 71.22-14.149C277.379 83.742 290 99.248 290 99.248s-1.362-41.976-45.193-43.594c-34.248-1.253-52.839 16.028-58.494 34.719-.419 1.305 1.676 1.566 1.361 2.975z"/>
    <path fill="#CFE1ED" d="M186.836 91.312s13.563-59.517 57.133-64.32c-29.483-14.984-50.535-2.768-61.794 16.863-6.86 11.956-1.571 38.739 3.09 49.598.314.73 1.309-2.767 1.571-2.14z"/>
    <path fill="#CFE1ED" d="M185.632 93.975S162.433 52.678 81.84 87.292c10.997-29.028 45.56-46.204 66.925-39.73 30.321 9.24 36.867 46.413 36.867 46.413z"/>
    <path fill="#CFE1ED" d="M185.632 93.975S145.78 31.795 178.667 0c2.304 12.008 6.965 93.975 6.965 93.975z"/>
    <path fill="#fff" d="M120.644 203.77l82.898-4.125s1.99-22.554-18.853-16.55c-3.037-11.747-38.437-23.024-47.968 3.759-5.551-5.221-25.87 4.803-16.077 16.916z"/>
    <path fill="#F6FCFC" d="M205.793 117.991h56.871s-1.885-17.907-14.506-11.486c-3.194-6.682-19.061-14.461-27.231-1.462-8.431.627-22.884 5.169-15.134 12.948z"/>
    <path fill="#DFF6F7" d="M43.664 311.684s20.633-63.276 93.319-58.734c72.686 4.542 93.109 58.734 93.109 58.734s-39.747 3.603-56.662-4.176c-16.914-7.779-41.317 0-52.315 5.221-10.944 5.22-71.167 11.485-77.45-1.045z"/>
</svg>
