<svg width="260" height="113" viewBox="0 0 260 113" fill="none" xmlns="http://www.w3.org/2000/svg">
<path d="M183.748 25.5758L222.861 24.392C222.861 24.392 220.613 13.1586 212.296 17.2641C209.049 8.19682 196.91 7.03822 193.813 15.0225C184.722 12.4786 180.451 22.0496 183.748 25.5758Z" fill="#E4FAFD"/>
<path d="M4.24433 56.8082L76.4254 54.7933C76.4254 54.7933 76.6751 34.14 61.1899 37.918C58.1928 30.1101 42.9573 9.70869 22.7267 37.4143C13.7353 29.6064 -9.49255 47.2372 4.24433 56.8082Z" fill="#F4FDFF"/>
<path d="M92.4351 48.093L203.704 35.9277L104.573 71.3909L92.8596 51.0147L92.4351 48.093Z" fill="#74D0DE"/>
<path d="M174.082 90.3069L260 88.5438C260 88.5438 254.505 66.883 239.02 72.9279C239.27 68.6461 234.774 49.5041 217.79 50.0078C200.807 50.5115 186.57 62.3494 191.316 76.7059C187.319 76.9578 173.083 77.2097 174.082 90.3069Z" fill="#E2EFFA"/>
<path d="M103.05 66.2024L203.704 35.9277L140.789 113L103.05 66.2024Z" fill="#A3F2FF"/>
<path d="M92.735 50.4613L203.704 35.9284L74.3525 21.5215L92.735 50.4613Z" fill="#A3F2FF"/>
<path d="M92.8598 51.0146L90.9116 97.3838L103.05 66.2024L92.8598 51.0146Z" fill="#74D0DE"/>
<path d="M116.362 82.7006L90.9116 97.3845L103.05 66.2031L116.362 82.7006Z" fill="#79BEC9"/>
<path d="M107.995 5.52797C108.12 7.06437 108.245 9.45713 107.346 10.4646C106.621 11.2958 104.998 10.8676 103.874 10.9683C101.351 11.195 99.1036 9.10451 98.8789 6.30876C98.6541 3.51301 100.502 1.09507 103.025 0.868388C105.547 0.641705 107.745 2.73222 107.995 5.52797Z" fill="#FFE6CC"/>
<path d="M99.728 24.8965C99.728 24.8965 99.3533 27.5159 99.3284 28.1456C99.3284 29.2286 98.679 30.8658 98.4792 33.1578C98.2794 35.4498 98.2544 40.9657 97.7049 41.4191C97.1554 41.8725 92.1602 42.8799 92.8096 43.8119C93.2342 44.1645 99.0536 43.56 99.4033 43.1318C100.028 42.4014 99.5282 42.2755 99.9278 40.2101C100.577 37.0618 101.876 32.3266 101.951 31.8481C102.201 30.2361 101.951 28.4478 101.951 28.4478L103.025 24.9217L99.728 24.8965Z" fill="#FFE6CC"/>
<path d="M105.772 9.23047C105.772 9.23047 106.047 12.4544 106.447 12.6307C106.846 12.807 110.118 13.21 110.118 13.21L107.596 15.7035L101.277 16.2576C101.277 16.2576 102.101 13.4115 103.175 13.1344C104.224 12.8574 102.525 10.2379 102.525 10.2379L105.772 9.23047Z" fill="#FFE6CC"/>
<path d="M157.473 35.2985C157.473 35.2985 161.319 32.9561 163.792 33.0569C166.264 33.1576 161.319 35.6763 160.395 36.8853C159.446 38.0943 158.772 38.5728 158.147 38.2202C157.523 37.8928 155.5 36.986 155.5 36.986L157.473 35.2985Z" fill="#F7D7BA"/>
<path d="M127.302 33.334C127.302 33.334 156.099 35.6764 158.023 35.5252C159.121 35.4245 158.072 38.2958 158.072 38.2958C158.072 38.2958 144.161 39.5048 143.386 39.5552C141.538 39.7063 139.915 39.1522 138.666 39.2781C134.97 39.6055 115.513 43.4591 115.338 41.3938C115.163 39.3285 127.302 33.334 127.302 33.334Z" fill="#002E56"/>
<path d="M156.349 35.6761C156.349 35.6761 160.645 31.6462 163.043 31.0418C165.44 30.4373 160.145 34.9457 159.571 36.3814C158.996 37.817 158.472 38.4467 157.773 38.3208C157.073 38.1948 154.9 37.8674 154.9 37.8674L156.349 35.6761Z" fill="#FFE6CC"/>
<path d="M117.286 24.9209C116.487 24.7194 109.094 27.6915 109.094 27.6915C109.094 27.6915 109.644 28.5227 109.369 29.7316C109.344 29.8072 109.319 29.9079 109.294 30.0591C110.818 28.7242 113.59 27.0114 118.26 26.0795C117.861 25.4499 117.511 24.9713 117.286 24.9209Z" fill="#FFE6CC"/>
<path d="M136.718 25.5002C135.369 25.7269 125.728 28.5226 121.358 31.268C120.383 30.1094 119.185 27.5907 118.26 26.0795C113.59 27.0114 110.818 28.7241 109.294 30.059C108.844 32.2755 107.271 42.2999 113.84 42.0732C119.309 41.8969 122.956 39.9071 126.253 38.3455C129.55 36.784 137.267 30.865 137.267 30.865C137.267 30.865 139.116 32.4266 141.413 33.4593C143.961 34.6179 155.15 38.4967 155.15 38.4967L156.699 34.8194C156.699 34.8446 138.067 25.2987 136.718 25.5002Z" fill="#0A4B85"/>
<path d="M109.219 13.084C109.219 13.084 113.915 14.167 114.289 15.1241C114.664 16.0812 114.664 19.6326 115.438 20.5645C116.212 21.4964 117.711 24.3174 117.761 24.8967C114.989 25.6271 108.819 27.9443 108.819 27.9443C108.819 27.9443 106.572 23.3099 104.548 22.4787C104.074 24.8967 103.799 25.1233 103.799 25.1233L99.3784 24.9218C99.3784 24.9218 100.902 16.7865 102.001 14.4693C103.899 14.6708 106.597 14.4945 109.219 13.084Z" fill="#26BED6"/>
<path d="M106.971 2.80722C106.971 2.80722 105.822 2.02642 105.148 4.44437C104.474 6.86231 104.449 7.86979 103.699 9.40619C102.95 10.9426 105.298 9.65806 104.549 12.5797C103.824 15.5014 100.028 16.66 100.577 19.078C101.102 21.4707 99.7032 24.8961 99.7032 24.8961C99.7032 24.8961 96.2565 26.634 96.5063 22.6545C96.756 18.675 98.8041 19.5817 97.805 17.1134C96.806 14.6199 91.8107 11.1189 94.3583 8.72614C96.9059 6.33339 96.756 4.67105 97.5053 3.21021C98.2546 1.74937 100.028 -0.467082 102.925 0.0870301C105.822 0.641142 108.67 -0.416708 108.77 1.95086C108.869 4.31843 108.02 4.59549 109.144 6.45932C110.268 8.32315 114.139 8.90245 113.365 11.2196C112.591 13.5368 110.668 13.4361 110.668 13.4361L106.447 12.6049C106.447 12.6049 106.022 12.1264 105.947 10.867C107.496 10.5648 108.195 9.20469 107.77 7.56755C107.346 5.9304 107.121 2.98353 107.121 2.98353L106.971 2.80722Z" fill="#003C71"/>
<path d="M144.735 44.9949C145.21 44.9949 145.21 44.2393 144.735 44.2393C144.261 44.2393 144.261 44.9949 144.735 44.9949Z" fill="#B2E4EA"/>
</svg>
