<svg width="182" height="200" viewBox="0 0 182 200" fill="none" xmlns="http://www.w3.org/2000/svg">
    <path d="M169.834 195.413c7.125-12.863 11.196-27.626 11.196-43.37 0-49.623-40.351-89.851-90.124-89.851C41.132 62.192.78 102.42.78 152.043c0 15.744 4.071 30.507 11.196 43.37H27.54l64.843-8.183 51.842 8.183h25.609z" fill="#EEFEFF"/>
    <path d="m19.376 92.971-1.21.59 40.137 81.945 1.21-.589-40.137-81.946z" fill="#D8F5F9"/>
    <path d="M20.251 96.3c-17.63 8.575-25.182 29.328-16.876 46.349-1.017-2.095.558-4.91 3.48-6.35 2.955-1.441 6.14-.917 7.158 1.178-1.018-2.095.525-4.943 3.48-6.35 2.955-1.408 6.14-.917 7.158 1.178-1.018-2.095.525-4.942 3.48-6.35 2.955-1.407 6.14-.916 7.157 1.178-1.018-2.094.526-4.942 3.48-6.35 2.955-1.44 6.14-.916 7.158 1.179-1.018-2.095.525-4.943 3.48-6.35 2.955-1.441 6.14-.917 7.157 1.178-1.017-2.095.526-4.943 3.48-6.35 2.923-1.44 6.14-.917 7.158 1.178-8.274-17.086-29.32-23.927-46.95-15.319z" fill="#D8F5F9"/>
    <path d="M95.14 162.877s39.695-33.943 19.175-105.366c5.056-3.011 3.611-.098 3.611-.098s25.97 61.112-1.937 113.091c-20.848-3.928-20.848-7.627-20.848-7.627z" fill="#CFE1ED"/>
    <path d="M115.398 58.919s-17.5-6.383-30.862 5.695C71.173 76.692 67.792 94.368 67.792 94.368s-17.73-10.736-5.22-32.11c11.852-20.23 47.869-14.468 53.22-4.681.329.589-.492.785-.394 1.342zM117.664 58.526s22.457-14.926 44.652-8.87c11.589 2.847 19.502 12.569 19.502 12.569s-.854-26.317-28.334-27.332c-21.472-.786-33.128 10.049-36.674 21.767-.262.818 1.051.982.854 1.866z" fill="#CFE1ED"/>
    <path d="M117.139 57.25s8.503-37.316 35.82-40.327c-18.485-9.395-31.683-1.735-38.742 10.572-4.301 7.496-.985 24.288 1.937 31.096.197.459.821-1.735.985-1.342z" fill="#CFE1ED"/>
    <path d="M116.384 58.919s-14.545-25.892-65.073-4.19c6.894-18.2 28.563-28.968 41.96-24.91 19.009 5.794 23.113 29.1 23.113 29.1z" fill="#CFE1ED"/>
    <path d="M116.384 58.919S91.399 19.934 112.018 0c1.444 7.528 4.366 58.919 4.366 58.919z" fill="#CFE1ED"/>
    <path d="m75.638 127.755 51.974-2.586s1.247-14.14-11.82-10.376c-1.904-7.365-24.099-14.435-30.074 2.357-3.48-3.273-16.22 3.011-10.08 10.605z" fill="#fff"/>
    <path d="M129.023 73.976h35.656s-1.182-11.228-9.094-7.202c-2.003-4.19-11.951-9.066-17.073-.916-5.286.393-14.348 3.24-9.489 8.118z" fill="#F6FCFC"/>
    <path d="M27.375 195.413s12.936-39.671 58.507-36.824c45.571 2.848 58.376 36.824 58.376 36.824s-24.92 2.259-35.525-2.618c-10.605-4.877-25.904 0-32.8 3.273-6.861 3.273-44.618 7.201-48.558-.655z" fill="#DFF6F7"/>
</svg>
