<svg width="153" height="122" viewBox="0 0 153 122" fill="none" xmlns="http://www.w3.org/2000/svg">
    <g opacity=".8" clip-path="url(#8c7a7agcha)">
        <path opacity=".18" d="M0 114.701C0 118.732 27.258 122 69.505 122S146 118.733 146 114.701c0-4.031-34.248-7.299-76.495-7.299C27.258 107.402 0 110.67 0 114.701z" fill="#32323F"/>
        <path d="M129.527 101.694c.857-.945 2.704-3.58 2.704-3.58L129.605 96l-2.738 3.983.867 2.564 1.793-.853z" fill="#F7CECB"/>
        <path d="M130.058 101.423c.327.157.001.327-.234.823-.536 1.136 2.885 3.964 3.335 4.471.232.262-.466 2.007-1.795.917-1.149-.943-4.841-3.951-6.091-4.99a.748.748 0 0 1-.203-.892c.515-1.1 1.729-2.471 2.105-2.215.671.262 1.521 1.231 2.883 1.886z" fill="#828282"/>
        <path d="M123.199 92.561c-.409.56-4.565 1.114-11.083 1.605-23.352 1.76-77.024 2.728-97.373.401-4.413-.504-7.259-1.164-7.888-2.004-2.49-3.33 6.225-18.824 11.78-19.703l.047-.007c8.353-1.269 90.571-.563 95.44.313.041.008.075.014.104.022 5.721 1.397 11.168 16.371 8.973 19.373z" fill="#69CDDD"/>
        <path d="M124.231 111.134c-.169 1.916-.491 3.468-1.033 4.308-2.381 3.688-112.994 5.032-115.298.314-.405-.831-.735-2.108-.997-3.647-1.234-7.219-.987-20.183-.049-19.545 5.463 3.713 111.875 3.377 116.343 0 .312-.235 1.657 11.565 1.034 18.57z" fill="#A5E1EB"/>
        <path d="M124.302 110.197c-.126 2.716-.479 4.298-1.104 5.245-2.686 4.071-112.994 5.76-115.298.314-.404-.958-.885-2.23-1.154-4.651 2.241 5.014 14.898 4.76 16.138 5.033 2.233.493 61.004 1.385 97.551-2.755 2.69-.304 3.552-2.386 3.867-3.186z" fill="#668AAA"/>
        <path opacity=".12" d="M17.327 91.85c-.467.907-1.393 1.825-2.585 2.716-4.414-.504-7.26-1.164-7.889-2.005-2.49-3.33 6.225-18.823 11.78-19.702a4.6 4.6 0 0 1 .047-.007c.576 9.556.7 15.023-1.353 18.999zM123.199 92.561c-.409.56-4.565 1.114-11.083 1.605-2.404-6.51.134-11.713 2.007-21 .04.008.074.014.103.022 5.721 1.397 11.168 16.371 8.973 19.373z" fill="#214146"/>
        <path d="M119.513 59.498c-.05 1.316-.121 2.441-.22 3.32l-.019.161c-.752 6.04-5.059 9.039-14.796 10.127-9.822 1.1-73.178-.79-73.178-.79-11.56.497-17.668-4.197-18.48-11.32a15.033 15.033 0 0 1-.088-2.106c.222-8.448-.395-33.622-.441-41.003-.003-.29-.004-.552-.004-.785 0-.682.032-1.35.095-2.004.594-6.076 4-10.759 11.08-11.233.201-.014.404-.024.61-.03 8.28-.267 77.178 0 82.138 0 1.095 0 2.114.105 3.058.308 6.023 1.288 9.045 6.485 9.513 13.064.044.61.065 1.23.065 1.86 0 .67.008 1.457.023 2.344.104 6.206.529 17.237.676 26.641.071 4.389.079 8.422-.032 11.447z" fill="#69CDDD"/>
        <path d="M53.346 74.136c12.694 0 27.362.115 39.236.304 18.316.294 20.859.605 21.193.668.822.206 1.833 1.01 2.847 2.265 1.059 1.31 2.088 3.054 2.975 5.044.889 1.995 1.566 4.083 1.903 5.88.27 1.44.252 2.327.184 2.783-1.307.318-6.196 1.135-23.563 1.916-13.7.617-30.03.97-44.8.97-12.137 0-22.632-.242-30.351-.702-4.24-.253-7.68-.57-10.222-.947-2.94-.434-3.995-.844-4.325-1.013-.059-.28-.08-1 .261-2.29.376-1.415 1.067-3.102 1.999-4.878 1.265-2.409 2.821-4.695 4.383-6.435 2.209-2.464 3.527-2.837 3.878-2.892 2.71-.427 15.247-.672 34.402-.672zm0-1.972c-16.904 0-31.534.196-34.708.697-5.556.878-14.27 16.372-11.78 19.701 1.844 2.47 22.818 3.38 46.464 3.38 31.88 0 68.619-1.656 69.879-3.38 2.195-3.001-3.252-17.976-8.972-19.373-2.218-.543-34.35-1.025-60.883-1.025z" fill="#668AAA"/>
        <path d="M37.048 5.467C36.91 2.616 37.32.037 34.726 0c-1.982-.028-2.036 1.356-2.048 3.443-.013 2.088-.043 1.902-.043 1.902l4.413.122zM94.089 5.467c-.136-2.851.273-5.43-2.322-5.467-1.982-.028-2.036 1.356-2.048 3.443-.013 2.088-.043 1.902-.043 1.902l4.413.122z" fill="#295C89"/>
        <path opacity=".38" d="M118.872 21.411c-1.722-2.389-3.971-5.867-4.028-7.813-.092-3.162-3.338-5.165-6.171-3.85-2.834 1.314-35.295 1.31-43.792 1.31s-39.707.549-44.391-1.61c-2.78-1.28-3.813 3.384-4.663 6.406-.516 1.836-1.71 1.902-3.535 2.034l-.003-.785c0-.682.032-1.35.095-2.004.594-6.076 4-10.759 11.08-11.233.201-.014.404-.024.61-.03 8.28-.267 77.178 0 82.138 0 1.095 0 2.114.106 3.058.308 6.023 1.288 9.045 6.485 9.513 13.065.044.608.065 1.23.065 1.858 0 .67.009 1.457.024 2.344z" fill="#2C575E"/>
        <path d="M109.269 4.143c-.988 1.415-2.25 2.945-3.484 3.668-2.615 1.528-74.949 0-77.78 0-2.223 0-3.506-.269-4.542-3.946.2-.014.403-.024.61-.03 8.28-.267 77.178 0 82.138 0 1.094 0 2.113.105 3.058.308zM16.894 59.109c-.627 1.255-2.55 1.72-4.072 1.887a15.062 15.062 0 0 1-.088-2.106c.231-8.78-.445-35.626-.445-41.788 0-.682.032-1.35.095-2.004 3.947.289 4.316 1.026 4.51 3.386.217 2.642 1.09 38.44 0 40.625zM119.54 60.893c.019.723-.01 1.426-.088 2.107l-.178-.02c-1.49-.185-3.291-.661-3.893-1.868-1.09-2.183-.219-37.982 0-40.625.173-2.116.488-2.927 3.402-3.28.044.608.065 1.23.065 1.858 0 5.368.53 18.24.699 28.986-.053 4.5-.075 8.583-.035 11.446.008.506.017.973.028 1.396zM26.916 93.571c.273 5.703-.547 10.861 4.643 10.935 3.963.055 4.07-2.712 4.096-6.886.026-4.174.085-3.803.085-3.803l-8.824-.246zM89.473 93.246c.272 5.395-.578 11.257 4.613 11.263 3.491.004 4.07-2.565 4.097-6.513.026-3.948.084-4.98.084-4.98l-8.794.23z" fill="#295C89"/>
        <path d="M31.327 111.554a4.198 4.198 0 0 1-4.194-4.202v-3.384a4.198 4.198 0 0 1 4.194-4.202 4.198 4.198 0 0 1 4.195 4.202v3.384a4.197 4.197 0 0 1-4.195 4.202zM93.87 111.554a4.198 4.198 0 0 1-4.194-4.202v-3.384a4.198 4.198 0 0 1 4.194-4.202 4.198 4.198 0 0 1 4.195 4.202v3.384a4.197 4.197 0 0 1-4.195 4.202z" fill="#295C89"/>
        <path fill-rule="evenodd" clip-rule="evenodd" d="m37.27 42.32-.223.198c.222-.198.222-.197.223-.197l.115.13a531.07 531.07 0 0 0 1.647 1.843c1.13 1.26 2.758 3.066 4.75 5.249a838.82 838.82 0 0 0 15.221 16.265c5.806 6.027 11.982 12.208 17.45 17.19 2.733 2.492 5.286 4.681 7.526 6.402 2.244 1.724 4.156 2.964 5.61 3.57a.298.298 0 0 1-.23.55c-1.527-.637-3.49-1.916-5.742-3.647-2.258-1.735-4.825-3.936-7.565-6.434-5.481-4.995-11.667-11.186-17.477-17.217a839.49 839.49 0 0 1-15.233-16.277 851.324 851.324 0 0 1-5.831-6.457c.674 3.511 2.38 8.123 4.612 13.15 2.452 5.517 5.529 11.508 8.543 17.046A446.71 446.71 0 0 0 62.204 93.59l.114.185.08.127.049.08.015.025h.001l-.203.129.203-.128a.298.298 0 0 1-.504.316l.208-.13-.209.13-.016-.027a189.077 189.077 0 0 1-.981-1.595A447.487 447.487 0 0 1 50.144 73.97c-3.018-5.545-6.103-11.552-8.564-17.09-2.457-5.53-4.304-10.618-4.828-14.32l-.139-.98.656.741z" fill="#F7F7F7"/>
        <path fill-rule="evenodd" clip-rule="evenodd" d="m37.344 42.536-.297-.017.297.017v.001l-.007.115-.018.342-.067 1.307a790.023 790.023 0 0 0-.745 19.852c-.14 5.73-.21 11.782-.105 17.05.105 5.275.384 9.738.935 12.305a.298.298 0 1 1-.581.126c-.565-2.631-.844-7.148-.949-12.42-.105-5.28-.035-11.34.105-17.075a789.692 789.692 0 0 1 .801-20.95 7.638 7.638 0 0 0-.256.286c-.334.393-.74.93-1.205 1.594-.932 1.328-2.096 3.149-3.412 5.308-2.632 4.319-5.863 9.976-9.049 15.725a786.834 786.834 0 0 0-8.766 16.261c-2.449 4.687-4.187 8.182-4.587 9.265a.297.297 0 1 1-.558-.207c.417-1.128 2.178-4.665 4.618-9.334a787.512 787.512 0 0 1 8.773-16.274c3.187-5.752 6.423-11.418 9.061-15.746 1.319-2.164 2.49-3.997 3.433-5.34.47-.672.888-1.226 1.24-1.639.34-.4.65-.706.909-.835l.458-.23-.028.513z" fill="#F7F7F7"/>
        <path fill-rule="evenodd" clip-rule="evenodd" d="M12.354 40.515a.298.298 0 0 1 .316-.279l-.019.298-.018.297a.298.298 0 0 1-.279-.316zm23.633 2.02a78.34 78.34 0 0 0-1.448-.145c-2.135-.199-5.28-.438-8.527-.67a1551.367 1551.367 0 0 0-13.07-.87l-.309-.019.018-.297.019-.298.308.02a1129.189 1129.189 0 0 1 3.948.252c2.534.165 5.88.387 9.128.618 3.247.231 6.398.47 8.54.67 1.069.1 1.895.19 2.358.264.116.019.215.038.291.056.038.01.077.02.112.034.023.008.09.033.145.087a.31.31 0 0 1 .002.446.384.384 0 0 1-.167.092h-.002c-.07.02-.162.031-.262.04-.326.028-.829.225-1.502.604-.663.372-1.455.9-2.35 1.548-1.79 1.297-3.97 3.063-6.303 5.002-.987.82-2 1.67-3.024 2.528-3.814 3.197-7.76 6.507-10.9 8.742a.297.297 0 1 1-.344-.486c3.117-2.22 7.038-5.507 10.85-8.703 1.026-.86 2.045-1.715 3.038-2.54 2.334-1.94 4.526-3.716 6.334-5.026.903-.654 1.717-1.197 2.408-1.585.248-.14.485-.262.709-.364zm1.16.174c.007.002.006.002 0 0zm.024-.507c.008-.003.01-.003.003 0h-.003z" fill="#F7F7F7"/>
        <path fill-rule="evenodd" clip-rule="evenodd" d="M29.196 3.469a.298.298 0 0 1 .351.232l-.291.06-.291.06a.298.298 0 0 1 .231-.352zM36.7 42.243c-.35-1.961-2.159-10.954-3.942-19.76A13772.409 13772.409 0 0 0 29.05 4.235l-.084-.414.291-.06.292-.06.084.415.24 1.172a14383.635 14383.635 0 0 1 3.468 17.076c1.912 9.441 3.863 19.146 4 20.112.015.101.011.302-.175.415-.145.088-.305.054-.385.033-.188-.051-.435-.187-.712-.363-.57-.364-1.394-.987-2.39-1.79-1.997-1.61-4.724-3.97-7.583-6.5-4.01-3.55-8.292-7.447-11.19-10.083-1.23-1.12-2.212-2.013-2.816-2.555a.298.298 0 0 1 .397-.444c.609.546 1.594 1.442 2.829 2.566 2.896 2.635 7.166 6.521 11.174 10.07 2.858 2.53 5.576 4.882 7.561 6.482.995.801 1.797 1.406 2.337 1.75.123.08.226.14.312.186zm.254.11a.03.03 0 0 1 .007 0h-.007z" fill="#F7F7F7"/>
        <path fill-rule="evenodd" clip-rule="evenodd" d="M48.02 3.496a.298.298 0 0 1 .13.4c-.927 1.81-2.183 5.247-3.52 9.375-1.335 4.121-2.745 8.911-3.98 13.414-1.236 4.503-2.295 8.713-2.93 11.677-.317 1.484-.526 2.644-.599 3.37-.012.124-.02.23-.024.32 1.944-1.844 12.146-10.962 22.123-19.85A17209.97 17209.97 0 0 1 78.417 5.128c.57-.505 1.016-.902 1.32-1.173l.467-.413.198.222.197.224-.466.414-1.32 1.172a19189.853 19189.853 0 0 0-19.197 17.074C48.999 32.105 38.175 41.78 37.259 42.726a.638.638 0 0 1-.151.118.392.392 0 0 1-.262.044.375.375 0 0 1-.236-.157.549.549 0 0 1-.078-.18c-.05-.199-.04-.513-.003-.879.076-.76.291-1.949.61-3.435.637-2.98 1.7-7.202 2.937-11.71 1.237-4.51 2.65-9.308 3.988-13.44 1.336-4.125 2.605-7.605 3.556-9.462a.297.297 0 0 1 .4-.13zm32.382.268.197.223a.298.298 0 0 0-.395-.446l.198.223z" fill="#F7F7F7"/>
        <path fill-rule="evenodd" clip-rule="evenodd" d="M119.099 29.61a.298.298 0 0 1-.035.42c-.282.24-.783.49-1.44.75a32.17 32.17 0 0 1-2.555.86c-2.055.614-4.794 1.308-8.023 2.042-6.459 1.47-14.892 3.105-23.763 4.588-8.871 1.484-18.184 2.816-26.401 3.68-8.211.863-15.35 1.26-19.86.866a.298.298 0 0 1 .051-.594c4.45.39 11.538-.002 19.746-.865 8.203-.862 17.503-2.192 26.366-3.674 8.862-1.483 17.284-3.115 23.729-4.582 3.223-.733 5.948-1.424 7.985-2.032a31.607 31.607 0 0 0 2.506-.843c.655-.26 1.075-.48 1.275-.65a.297.297 0 0 1 .419.035z" fill="#F7F7F7"/>
        <path fill-rule="evenodd" clip-rule="evenodd" d="M35.402 34.391h2.942l4.668 2.746.983 5.379-.009.051c-.06.36-.229.865-.437 1.401-.21.543-.47 1.139-.72 1.691a62.054 62.054 0 0 1-.955 2.003l-.016.032-.005.011-.266-.134.266.134-.043.085-2.965 1.581h-2.181l-3.528-1.714-1.44-1.936-2.73-4.062 2.316-3.273 4.12-3.995zm5.962 12.962.038-.078a57.955 57.955 0 0 0 .885-1.863c.249-.547.503-1.132.708-1.66.196-.505.339-.939.395-1.233l-.915-5.006-4.293-2.526h-2.54l-3.907 3.789-2.045 2.891 2.492 3.709 1.344 1.808 3.274 1.591h1.897l2.666-1.422z" fill="#F7F7F7"/>
        <path fill-rule="evenodd" clip-rule="evenodd" d="M34.517 29.505h5.042l8.367 3.299-.053.247c-.042.198-.055.494-.038.876.017.377.064.82.132 1.306.135.972.354 2.095.587 3.165a91.74 91.74 0 0 0 .958 3.957l.017.064.005.02v.001l-.286.078.253.157-.043.07-.123.2a178.362 178.362 0 0 0-1.791 2.993 79.379 79.379 0 0 0-1.404 2.486c-.2.374-.371.71-.501.986a3.877 3.877 0 0 0-.242.602l-.29 1.177c-.135.139-.303.156-.35.096l-.04.113h-.001l-.004-.002a7.133 7.133 0 0 0-1.243-.293c-.722-.101-1.542-.088-2.128.269l-1.3.792-.03.044-3.5.78-.108-.081-.003-.002-.011-.009a3.88 3.88 0 0 0-.259-.165 5.35 5.35 0 0 0-.787-.374c-.671-.256-1.601-.46-2.655-.268l-2.244.41c-.054.004-.109-.001-.053-.294l-.056.293-.078-.015-3.387-2.915-2.216-8.27.072-.11.004-.007.012-.019.048-.075c.041-.065.101-.16.174-.28.146-.24.346-.574.559-.956.43-.77.899-1.707 1.107-2.435.209-.732.26-1.38.26-1.844a5.45 5.45 0 0 0-.048-.719v-.007h-.001v-.001l-.013-.067.019-.066.287.079-.287-.079v-.003l.003-.008.008-.03.032-.108a14.634 14.634 0 0 1 .583-1.607c.197-.455.44-.938.722-1.345.276-.401.615-.766 1.017-.936.68-.287 2.016-.579 3.15-.796a66.043 66.043 0 0 1 2.087-.363l.034-.005.011-.002.045.294-.045-.294.023-.004zm.045.597-.021.003a53.524 53.524 0 0 0-.585.095 66.1 66.1 0 0 0-1.483.265c-1.149.22-2.419.501-3.03.76-.244.102-.503.354-.759.725-.25.363-.476.807-.665 1.244a14.072 14.072 0 0 0-.56 1.54l-.021.075.019.16c.014.143.029.348.029.602 0 .508-.057 1.213-.284 2.009-.228.8-.728 1.788-1.16 2.562a28.757 28.757 0 0 1-.745 1.257l2.1 7.837 3.08 2.65 2.104-.383c1.19-.217 2.233.015 2.974.297a5.941 5.941 0 0 1 1.088.549l3.076-.686 1.313-.8c.77-.469 1.765-.456 2.52-.35a7.73 7.73 0 0 1 1.053.225l.215-.87c.044-.178.147-.428.28-.712.137-.29.313-.635.515-1.013.405-.756.915-1.65 1.415-2.506a178.27 178.27 0 0 1 1.897-3.166 83.01 83.01 0 0 1-.285-1.103 92.074 92.074 0 0 1-.67-2.843 45.224 45.224 0 0 1-.595-3.21c-.069-.495-.118-.959-.136-1.361a5.352 5.352 0 0 1 .012-.775L39.446 30.1h-4.884zM44.878 50.95l-.06.167.06-.167zm4.37-8.432.253.157.068-.11-.034-.125-.287.078z" fill="#F7F7F7"/>
        <path fill-rule="evenodd" clip-rule="evenodd" d="m43.397 16.22.127.192c.273.41.978 1.163 1.957 2.082.97.912 2.19 1.967 3.474 2.973 1.283 1.007 2.625 1.962 3.841 2.677 1.23.722 2.286 1.172 3.013 1.22l.218.015.051.213c.533 2.194 2.108 5.676 3.803 8.76.845 1.54 1.715 2.97 2.491 4.082.388.556.75 1.028 1.072 1.394.327.37.595.61.792.724l.272.155-.168.264c-.319.5-.97 1.861-1.784 3.715a183.964 183.964 0 0 0-2.696 6.52c-.929 2.369-1.827 4.798-2.517 6.889-.693 2.1-1.165 3.83-1.258 4.813l-.018.191-.182.063c-1.666.571-3.407 1.183-4.906 1.983-1.5.8-2.723 1.77-3.385 3.038l-.079.15-.17.01c-3.676.19-5.89.092-7.448.022l-.181-.008c-1.567-.069-2.415-.089-3.501.269l-.127.041-.115-.066c-1.437-.832-4.036-1.779-6.601-2.468a34.28 34.28 0 0 0-3.636-.787c-1.103-.167-2.007-.217-2.585-.124l-.139.022-.105-.093c-1.29-1.142-2.174-2.557-2.999-3.9l-.057-.092c-.811-1.32-1.57-2.554-2.617-3.474l-.075-.066-.02-.098a378.623 378.623 0 0 0-1.053-4.926c-.45-2.062-.876-4.011-1.198-5.715-.286-1.515-.494-2.854-.567-3.925a8.695 8.695 0 0 1 .001-1.416c.04-.398.124-.75.28-1.016.101-.171.22-.525.35-1.05.127-.515.257-1.163.385-1.897.258-1.468.513-3.265.748-5.004l.21-1.562c.154-1.156.297-2.226.423-3.075.09-.61.173-1.113.245-1.455.035-.169.072-.313.11-.414a.57.57 0 0 1 .096-.174.335.335 0 0 1 .169-.106 969.59 969.59 0 0 0 8.701-5.704 2881.111 2881.111 0 0 0 5.211-3.454l.45-.299.165.248-.165-.248.146-.097.156.08c.48.251 1.288.43 2.296.535.998.104 2.157.134 3.317.108a35.22 35.22 0 0 0 3.301-.226c.993-.12 1.796-.272 2.264-.433l.217-.076zm-11.509.7-.309.205a2646.835 2646.835 0 0 1-5.212 3.454 961.666 961.666 0 0 1-8.751 5.737c-.02.061-.043.156-.07.287-.07.323-.15.81-.24 1.42-.124.844-.266 1.907-.42 3.06l-.21 1.57c-.237 1.738-.492 3.546-.752 5.026-.13.74-.262 1.403-.394 1.936-.128.523-.265.955-.414 1.21-.094.159-.166.411-.202.774a8.11 8.11 0 0 0 .001 1.316c.07 1.035.273 2.345.558 3.854.321 1.702.743 3.632 1.191 5.682a382.78 382.78 0 0 1 1.038 4.853c1.077.972 1.859 2.244 2.635 3.509l.078.126c.806 1.311 1.623 2.615 2.785 3.674.666-.08 1.589-.014 2.625.144 1.122.17 2.406.453 3.701.8 2.517.677 5.107 1.608 6.63 2.462 1.143-.353 2.08-.324 3.586-.257l.182.008c1.527.068 3.676.163 7.224-.015.758-1.344 2.06-2.34 3.55-3.136 1.493-.796 3.206-1.407 4.816-1.96.137-1.077.614-2.78 1.264-4.751.695-2.105 1.597-4.545 2.528-6.92.932-2.376 1.893-4.69 2.705-6.542.706-1.608 1.306-2.886 1.68-3.548a5.372 5.372 0 0 1-.693-.676c-.341-.388-.718-.88-1.113-1.447-.792-1.134-1.673-2.583-2.526-4.135-1.65-3.004-3.213-6.425-3.808-8.704-.848-.12-1.922-.612-3.056-1.278-1.247-.733-2.611-1.705-3.907-2.721a53.732 53.732 0 0 1-3.514-3.008c-.86-.806-1.546-1.52-1.913-2.003-.533.155-1.298.29-2.174.395a35.86 35.86 0 0 1-3.358.23c-1.177.026-2.363-.004-3.393-.111-.93-.098-1.764-.261-2.348-.52z" fill="#F7F7F7"/>
        <path d="M111.625 68.36c13.957-1.841 31.401-3.742 33.776-.265 3.019 4.42-10.994 34.299-13.314 32.7-2.321-1.599-5.788-2.769-5.018-4.114.77-1.345 14.357-23.444 10.839-23.251-3.519.193-23.333 4.053-24.694 3.281-1.363-.77-1.589-8.351-1.589-8.351z" fill="#3B3B4C"/>
        <path d="M111.625 68.36c13.957-1.841 31.401-3.742 33.776-.265 3.019 4.42-10.994 34.299-13.314 32.7-2.321-1.599-5.788-2.769-5.018-4.114.77-1.345 14.357-23.444 10.839-23.251-3.519.193-23.333 4.053-24.694 3.281-1.363-.77-1.589-8.351-1.589-8.351z" fill="#003C71"/>
        <path opacity=".36" d="M110.26 77.714c.599 4.504 12.379 2.096 12.379 2.096l-1.235-3.816-11.144 1.72z" fill="#0A0A0A"/>
        <path d="M140.914 110.122c.608-1.433 1.682-5.212 1.682-5.212l-3.871-1.381-1.561 5.692 2.025 2.606 1.725-1.705z" fill="#F7CECB"/>
        <path d="M141.415 109.598c.44.05.131.375.059 1.042-.163 1.526 4.911 3.41 5.633 3.813.373.21.267 2.5-1.702 1.778-1.701-.626-7.159-2.607-9.017-3.303a.915.915 0 0 1-.59-.948c.152-1.475 1.004-3.542 1.54-3.399.879.033 2.245.809 4.077 1.017z" fill="#828282"/>
        <path d="M108.237 68.8c-.366 2.46-.583 6.917 1.751 9.308 1.272 1.303 3.301 1.992 6.476 1.41 4.989-.913 26.944-1.794 26.816-.66-.128 1.134-6.806 26.945-5.908 28.129.899 1.184 5.908 2.411 6.293 1.026.385-1.386 9.232-30.842 5.651-34.775-3.018-3.314-27.544-3.488-29.954-4.672-2.408-1.182-11.125.233-11.125.233z" fill="#1C5282"/>
        <path d="M135.714 20.396c-.109-.845.327-.25.026-1.338-.29-1.052-.564-1.822-.139-2.711.348-.73.843-1.987-.182-2.556-.923-.513-2.502 1.205-2.623 1.816-.469 2.344-.08 1.657.219 3.513.179 1.115-.301 1.193-.074 1.626.224.433 2.773-.35 2.773-.35zM120.434 45.526l-3.217-1.183c.081-1.517-.551-5.129-.212-6.467.371-1.47.498-1.38.498-1.38l2.177 1.542 1.025.727s-.172.594.004 1.626c.124.722.417 1.658 1.056 2.756.479.822-1.331 2.379-1.331 2.379z" fill="#F7CECB"/>
        <path opacity=".14" d="M120.705 38.766s-.143.75.033 1.782c-2.111.784-3.202-.868-2.644-1.411.35-.34 1.586-1.097 1.586-1.097l1.025.726z" fill="#191937"/>
        <path d="M119.414 30.992c.915 1.286 3.912 3.002 2.999 3.542-.913.54 1.937 2.714.984 3.324-2.305 1.478-5.896 1.597-6.875.643-.98-.956-2.702-4.228-2.702-4.228l5.594-3.281z" fill="#F7CECB"/>
        <path d="M117.763 33.733c.794-.354.92-.194 1.29-.755.371-.56-.953-.743-.08-1.48.874-.737 1.903-1.43 1.345-2.6-.807-1.695-2.082-.598-2.85.11-.495.457-1.365-.69-2.464.035-.862.569-.451 1.025-1.196 1.567-.451.327-1.85.096-2.253 1.114-.747 1.887 1.183 2.511.712 4.334-.552 2.123 4.234 3.11 4.389 2.554.182-.65-1.254-1.657-1.021-2.231.352-.867.756-.37 1.594-.181.894.2 1.973-.399.673-1.038-1.301-.641-.857-1.108-.139-1.43z" fill="#282828"/>
        <path d="M117.016 40.702c1.369-.317 2.171 1.995 3.264 2.138.663.087.348-.944.679-1.25.203-.188.304-.364.649.043 5.923 6.953.283 24.937.283 24.937s-3.22 2.451-9.99 2.42c-4.122-.018-1.366-3.917-1.188-4.893.178-.976 3.33-20.038 3.33-20.038s.861-1.573 2.973-3.357z" fill="#fff"/>
        <path d="M135.412 32.32c-.559 1.933-3.428 6.75-5.733 10.518-1.543 2.522-2.832 4.573-3.007 4.971-.001.006-.004.011-.007.018-.128.303-.264.859-.397 1.567-.24 1.27-.473 3.03-.652 4.721-.22 2.093-.354 4.078-.306 4.894.11 1.85 2.119 6.045-1.665 9.307-1.549 1.334-3.682 1.375-4.473.544-1.355-1.425.952-6.228 1.734-11.079.746-4.616 2.007-7.31 1.715-11.178-.221-2.927-1.696-5.314-1.696-5.314 5.044.587 10.396-8.638 10.736-9.872.34-1.235 1.004-8.644.528-12.103 1.487-1.046 2.825-.597 3.945-.666.916 7.044.182 10.543-.722 13.671zM119.123 54.17a22.265 22.265 0 0 1-.059.578l-.017.119c-.005.04-.012.08-.019.122-.389 2.336-2.227 5.522-3.066 7.544v.001l-.084.209a13.121 13.121 0 0 0-.276.78l-.072.221-.077.251c-1.227 4.115-.468 6.713-2.252 8.47-1.605 1.58-9.807 6.066-12.98 3.196-.902-.816 1.121-2.34 3.106-4.304a.317.317 0 0 0 .018-.02c.73-.724 1.455-1.508 2.025-2.34 1.939-2.834 2.778-6.142 3.404-8.641.481-1.922.638-4.423.865-7.321.061-.763.125-1.554.202-2.369.234-2.496 2.151-5.758 3.297-6.89 2.724-2.69 3.832-3.049 3.832-3.049.026.941 1.05 3.92 1.692 7.334a31.035 31.035 0 0 1 .255 1.541c.22 1.53.326 3.097.206 4.567z" fill="#1C5282"/>
        <path opacity=".35" d="M120.439 82.773c.614.935 1.104 2.114 2.575 2.532 1.472.417.676.186.676.186l-.16-1.66-3.091-1.058z" fill="#0A0A0A"/>
        <path opacity=".17" d="m119.124 54.17-.01.122a8.889 8.889 0 0 1-.048.455l-.018.12c-.005.041-.012.08-.019.122-.403 2.336-2.231 5.524-3.066 7.544v.001c-.03.07-.058.14-.084.209a13.303 13.303 0 0 0-.277.78l-.071.221-.077.251c-4.75 6.096 1.033 7.893-1.531 7.108.73-.724-3.436-4.108-3.209-7.007l.406-13.32 7.543-2.716.092-.033c.017.314.085.871.161 1.559l.001.015c.145 1.305.313 3.074.207 4.568z" fill="#191937"/>
        <path d="M120.576 78.15c.464.816.454.002.91 1.161.441 1.12.711 1.98 1.674 2.481.791.412 2.059 1.19 1.533 2.373-.473 1.066-2.339.17-2.852-.288-1.967-1.754-1.388.124-2.215-.033s.384-.941-.585-2.774c-.581-1.101-1.056-.852-1.143-1.382-.085-.532 2.678-1.538 2.678-1.538z" fill="#F7CECB"/>
        <path d="M118.068 48.635c-2.307 12.167-1.44 14.973-.882 17.032.558 2.059 5.19 13.246 4.939 13.59-.25.345-2.909 2.89-3.686 2.26-.777-.628-4.921-10.929-5.943-14.7-1.024-3.774-1.42-17.328-1.42-17.328s.392-5.126 3.38-4.706c2.987.42 3.612 3.852 3.612 3.852z" fill="#1C5282"/>
        <path opacity=".17" d="m129.683 42.831-.003.007c-1.543 2.522-2.832 4.573-3.007 4.971-.001.006-.004.011-.007.018-.128.303-.264.859-.397 1.567-.239 1.27-.473 3.03-.652 4.721-.173-.946-.432-4.71-.227-6.087.099-.684.811-1.556 4.293-5.197z" fill="#191937"/>
        <path d="M146.23 6.412 125.098 3l-1.073 5.945.663 1.407-.942.143-1.369 7.587 4.557-2.355 1.455 2.606 17.841-11.92z" fill="#27BED7"/>
        <path d="m146.233 6.412-19.295 9.313 1.455 2.606 17.84-11.919z" fill="#00467F"/>
        <path d="m124.025 8.945.663 1.407 21.543-3.938-22.206 2.531z" fill="#00467F"/>
    </g>
    <defs>
        <clipPath id="8c7a7agcha">
            <path fill="#fff" d="M0 0h153v122H0z"/>
        </clipPath>
    </defs>
</svg>
