<svg xmlns="http://www.w3.org/2000/svg" width="260" height="113" fill="none" viewBox="0 0 260 113">
    <path fill="#E4FAFD" d="M183.748 25.576l39.113-1.184s-2.248-11.233-10.565-7.128c-3.247-9.067-15.386-10.226-18.483-2.241-9.091-2.544-13.362 7.027-10.065 10.553z"/>
    <path fill="#F4FDFF" d="M4.244 56.808l72.181-2.015s.25-20.653-15.235-16.875c-2.997-7.808-18.233-28.21-38.463-.504-8.992-7.808-32.22 9.823-18.483 19.394z"/>
    <path fill="#74D0DE" d="M92.435 48.093l111.269-12.165-99.131 35.463L92.86 51.015l-.425-2.922z"/>
    <path fill="#E2EFFA" d="M174.082 90.307L260 88.544s-5.495-21.66-20.98-15.616c.25-4.282-4.246-23.424-21.23-22.92-16.983.504-31.22 12.341-26.474 26.698-3.997.252-18.233.504-17.234 13.6z"/>
    <path fill="#A3F2FF" d="M103.05 66.202l100.654-30.274L140.789 113 103.05 66.202zM92.735 50.461l110.969-14.533L74.353 21.522l18.382 28.94z"/>
    <path fill="#74D0DE" d="M92.86 51.015l-1.948 46.369 12.138-31.182-10.19-15.187z"/>
    <path fill="#79BEC9" d="M116.362 82.7l-25.45 14.684 12.138-31.18L116.362 82.7z"/>
    <path fill="#FFE6CC" d="M107.995 5.528c.125 1.536.25 3.93-.649 4.937-.725.83-2.348.403-3.472.503-2.522.227-4.77-1.863-4.995-4.66-.225-2.795 1.623-5.213 4.146-5.44 2.523-.226 4.72 1.864 4.97 4.66zM99.728 24.896s-.375 2.62-.4 3.25c0 1.083-.649 2.72-.849 5.012-.2 2.292-.225 7.808-.774 8.261-.55.454-5.545 1.46-4.895 2.393.424.352 6.244-.252 6.593-.68.625-.73.125-.856.525-2.922.649-3.148 1.948-7.883 2.023-8.362.25-1.612 0-3.4 0-3.4l1.074-3.526-3.297-.026z"/>
    <path fill="#FFE6CC" d="M105.772 9.23s.275 3.224.675 3.4c.399.177 3.671.58 3.671.58l-2.522 2.493-6.319.555s.824-2.846 1.898-3.124c1.049-.277-.65-2.896-.65-2.896l3.247-1.008z"/>
    <path fill="#F7D7BA" d="M157.473 35.298s3.846-2.342 6.319-2.241c2.472.1-2.473 2.62-3.397 3.828-.949 1.21-1.623 1.688-2.248 1.335-.624-.327-2.647-1.234-2.647-1.234l1.973-1.688z"/>
    <path fill="#002E56" d="M127.302 33.334s28.797 2.342 30.721 2.191c1.098-.1.049 2.77.049 2.77s-13.911 1.21-14.685 1.26c-1.849.151-3.472-.403-4.721-.277-3.696.328-23.153 4.181-23.328 2.116-.175-2.066 11.964-8.06 11.964-8.06z"/>
    <path fill="#FFE6CC" d="M156.349 35.676s4.296-4.03 6.694-4.634c2.397-.605-2.898 3.904-3.472 5.34-.574 1.435-1.099 2.065-1.798 1.939-.7-.126-2.873-.454-2.873-.454l1.449-2.19zM117.286 24.92c-.799-.2-8.192 2.771-8.192 2.771s.55.832.275 2.04c-.025.076-.05.177-.075.328 1.524-1.335 4.296-3.047 8.966-3.98-.399-.63-.749-1.108-.974-1.158z"/>
    <path fill="#0A4B85" d="M136.718 25.5c-1.349.227-10.99 3.023-15.36 5.768-.975-1.159-2.173-3.677-3.098-5.189-4.67.932-7.442 2.645-8.966 3.98-.45 2.216-2.023 12.24 4.546 12.014 5.469-.176 9.116-2.166 12.413-3.727 3.297-1.562 11.014-7.481 11.014-7.481s1.849 1.562 4.146 2.594c2.548 1.159 13.737 5.038 13.737 5.038l1.549-3.678c0 .026-18.632-9.52-19.981-9.319z"/>
    <path fill="#26BED6" d="M109.219 13.084s4.696 1.083 5.07 2.04c.375.957.375 4.509 1.149 5.44.774.932 2.273 3.753 2.323 4.333-2.772.73-8.942 3.047-8.942 3.047s-2.247-4.634-4.271-5.465c-.474 2.418-.749 2.644-.749 2.644l-4.42-.201s1.523-8.136 2.622-10.453c1.898.202 4.596.026 7.218-1.385z"/>
    <path fill="#003C71" d="M106.971 2.807s-1.149-.78-1.823 1.637c-.674 2.418-.699 3.426-1.449 4.962-.749 1.537 1.599.252.85 3.174-.725 2.921-4.521 4.08-3.972 6.498.525 2.393-.874 5.818-.874 5.818s-3.447 1.738-3.197-2.242c.25-3.979 2.298-3.072 1.299-5.54-.999-2.494-5.994-5.995-3.447-8.388 2.548-2.393 2.398-4.055 3.147-5.516.75-1.46 2.523-3.677 5.42-3.123 2.897.554 5.745-.504 5.845 1.864.099 2.367-.75 2.644.374 4.508 1.124 1.864 4.995 2.443 4.221 4.76-.774 2.318-2.697 2.217-2.697 2.217l-4.221-.831s-.425-.479-.5-1.738c1.549-.302 2.248-1.662 1.824-3.3-.425-1.637-.65-4.583-.65-4.583l-.15-.177z"/>
    <path fill="#B2E4EA" d="M144.735 44.995c.475 0 .475-.756 0-.756-.474 0-.474.756 0 .756z"/>
</svg>
