<svg width="14" height="14" viewBox="0 0 14 14" fill="none" xmlns="http://www.w3.org/2000/svg">
<path d="M12.5 7.5C12.5 7.5 12.75 12 9.05 12H4.95C1.3 12 1.5 7.5 1.5 7.5" stroke="black" stroke-width="0.5" stroke-miterlimit="10" stroke-linecap="round" stroke-linejoin="round"/>
<path d="M6.7998 4C6.7998 3.3 6.2498 2.75 5.5498 2.75C4.8498 2.75 4.2998 3.3 4.2998 4H6.7998Z" stroke="black" stroke-width="0.5" stroke-miterlimit="10" stroke-linecap="round" stroke-linejoin="round"/>
<path d="M1.5 6V2.4C1.5 1.65 2.15 1 2.9 1H4.3C5.05 1 5.7 1.65 5.7 2.4" stroke="black" stroke-width="0.5" stroke-miterlimit="10" stroke-linecap="round" stroke-linejoin="round"/>
<path d="M12.75 7.25H1.25C1.1 7.25 1 7.15 1 7V6.5C1 6.35 1.1 6.25 1.25 6.25H12.75C12.9 6.25 13 6.35 13 6.5V7C13 7.15 12.9 7.25 12.75 7.25Z" stroke="black" stroke-width="0.5" stroke-miterlimit="10" stroke-linecap="round" stroke-linejoin="round"/>
<path d="M4.25 12.25V13" stroke="black" stroke-width="0.5" stroke-miterlimit="10" stroke-linecap="round" stroke-linejoin="round"/>
<path d="M9.75 12.25V13" stroke="black" stroke-width="0.5" stroke-miterlimit="10" stroke-linecap="round" stroke-linejoin="round"/>
</svg>
