<svg xmlns="http://www.w3.org/2000/svg" width="12" height="12" fill="none" viewBox="0 0 12 12">
    <path stroke="#000" stroke-linecap="round" stroke-linejoin="round" stroke-miterlimit="10" stroke-width=".480005" d="M6.282 5.77L.533.32A.17.17 0 0 0 .331.294a.185.185 0 0 0-.088.191A7.671 7.671 0 0 0 2.51 4.74l2.103 1.993a.58.58 0 0 0 .84-.036l.168-.186c1.688 1.941 4.172 4.522 4.475 4.81.48.455 1.137.518 1.472.144.335-.373.218-1.044-.261-1.498C11.004 9.68 8.3 7.343 6.282 5.77zM6.869 5.089c.306.238.627.495.954.758.434.016.873-.144 1.21-.482l2.621-2.958a.296.296 0 0 0-.007-.396.275.275 0 0 0-.407.004L9.114 4.362a.31.31 0 0 1-.448-.007.333.333 0 0 1 .007-.461l2.18-2.288a.32.32 0 0 0 0-.437.297.297 0 0 0-.423-.011L8.142 3.331a.31.31 0 0 1-.448-.006.333.333 0 0 1 .007-.462L10.043.746a.293.293 0 0 0 .016-.418.275.275 0 0 0-.385-.018l-2.95 2.607a1.74 1.74 0 0 0-.463 1.593l.608.579zM5.015 7.795a1.48 1.48 0 0 1-1.022-.41l-.146-.139C2.337 8.556.9 9.87.691 10.081c-.453.453-.55 1.105-.216 1.458.333.353.97.275 1.422-.177.23-.23 1.775-1.917 3.197-3.569-.027.002-.052.002-.08.002z"/>
</svg>
