<svg width="14" height="14" viewBox="0 0 14 14" fill="none" xmlns="http://www.w3.org/2000/svg">
<path d="M9.67895 13H8.23521L8.22583 8.76471H5.86099L5.84224 13H4.32349V1.28235C4.32349 1.12706 4.42192 1 4.5438 1H9.4563C9.57817 1 9.67661 1.12706 9.67661 1.28235V13H9.67895Z" stroke="black" stroke-width="0.5" stroke-miterlimit="10" stroke-linecap="round" stroke-linejoin="round"/>
<path d="M11.711 13.0002H9.68604V4.97669C9.68604 4.82139 9.8126 4.69434 9.96729 4.69434H11.4298C11.5845 4.69434 11.711 4.82139 11.711 4.97669V13.0002Z" stroke="black" stroke-width="0.5" stroke-miterlimit="10" stroke-linecap="round" stroke-linejoin="round"/>
<path d="M4.31406 13.0002H2.28906V4.97669C2.28906 4.82139 2.41563 4.69434 2.57031 4.69434H4.03281C4.1875 4.69434 4.31406 4.82139 4.31406 4.97669V13.0002Z" stroke="black" stroke-width="0.5" stroke-miterlimit="10" stroke-linecap="round" stroke-linejoin="round"/>
<path d="M5.125 7.16455H8.875" stroke="black" stroke-width="0.5" stroke-miterlimit="10" stroke-linecap="round" stroke-linejoin="round"/>
<path d="M5.125 5.68213H8.875" stroke="black" stroke-width="0.5" stroke-miterlimit="10" stroke-linecap="round" stroke-linejoin="round"/>
<path d="M5.125 4.2002H8.875" stroke="black" stroke-width="0.5" stroke-miterlimit="10" stroke-linecap="round" stroke-linejoin="round"/>
<path d="M5.125 2.71777H8.875" stroke="black" stroke-width="0.5" stroke-miterlimit="10" stroke-linecap="round" stroke-linejoin="round"/>
<path d="M1 13H5.64062" stroke="black" stroke-width="0.5" stroke-miterlimit="10" stroke-linecap="round" stroke-linejoin="round"/>
<path d="M8.35938 13H13" stroke="black" stroke-width="0.5" stroke-miterlimit="10" stroke-linecap="round" stroke-linejoin="round"/>
</svg>
