<svg xmlns="http://www.w3.org/2000/svg" width="14" height="14" fill="none" viewBox="0 0 14 14">
    <g clip-path="url(#clip0)">
        <path stroke="#333" stroke-width=".5" d="M.474 10.896h0c.037-.058.1-.093.167-.093H13.36c.068 0 .131.035.167.093.036.057.04.129.01.19l-.399.829h0c-.145.3-.449.492-.783.492H1.647c-.334 0-.639-.191-.784-.492h0l-.4-.83c-.029-.06-.025-.132.011-.19zM1.688 8.894c.052.013.106.02.158.02.28 0 .536-.188.61-.472l-.978-.254-.242-.062c-.087.336.115.68.452.768zm0 0l.062-.242-.062.242s0 0 0 0zm2.575-2.696c-.935.533-1.57 1.332-1.807 2.244l1.807-2.244zm0 0c.302-.172.408-.557.236-.86m-.236.86L3.64 5.103c.303-.172.688-.067.86.236m0 0l-.217.124.217-.124s0 0 0 0zm9.25 3.878h0c.005.055-.013.11-.05.15-.038.042-.09.065-.146.065H.447c-.055 0-.108-.023-.145-.064h0C.264 9.325.246 9.271.25 9.216h0c.263-2.88 2.964-5.215 6.38-5.373l.239-.011V2.992l-.15-.065c-.245-.108-.416-.353-.416-.638 0-.384.312-.696.696-.696.385 0 .696.312.696.696 0 .285-.17.53-.416.638l-.15.065v.841l.239.011c3.416.158 6.117 2.492 6.38 5.373z"/>
    </g>
    <defs>
        <clipPath id="clip0">
            <path fill="#fff" d="M0 0H14V14H0z"/>
        </clipPath>
    </defs>
</svg>
