<svg width="14" height="14" viewBox="0 0 14 14" fill="none" xmlns="http://www.w3.org/2000/svg">
<path d="M7.05166 9.92988C8.63862 9.92988 9.9251 8.6455 9.9251 7.06113C9.9251 5.47677 8.63862 4.19238 7.05166 4.19238C5.4647 4.19238 4.17822 5.47677 4.17822 7.06113C4.17822 8.6455 5.4647 9.92988 7.05166 9.92988Z" fill="#26BED6"/>
<path d="M7.05151 11.4389C9.47207 11.4389 11.4343 9.47871 11.4343 7.06074C11.4343 4.64277 9.47207 2.68262 7.05151 2.68262C4.63095 2.68262 2.6687 4.64277 2.6687 7.06074C2.6687 9.47871 4.63095 11.4389 7.05151 11.4389Z" stroke="#26BED6" stroke-width="0.5" stroke-miterlimit="10" stroke-linecap="round" stroke-linejoin="round"/>
<path d="M7.05153 1V2.56094" stroke="#26BED6" stroke-width="0.5" stroke-miterlimit="10" stroke-linecap="round" stroke-linejoin="round"/>
<path d="M7.06104 11.439V12.9999" stroke="#26BED6" stroke-width="0.5" stroke-miterlimit="10" stroke-linecap="round" stroke-linejoin="round"/>
<path d="M2.56328 7.07031H1" stroke="#26BED6" stroke-width="0.5" stroke-miterlimit="10" stroke-linecap="round" stroke-linejoin="round"/>
<path d="M13 7.05177H11.4368" stroke="#26BED6" stroke-width="0.5" stroke-miterlimit="10" stroke-linecap="round" stroke-linejoin="round"/>
</svg>
