<svg xmlns="http://www.w3.org/2000/svg" width="170" height="115" fill="none" viewBox="0 0 170 115">
    <path fill="#E0E0E0" d="M161.165 77.981L19.662 108.07c-1.14.243-2.273-.5-2.518-1.65L7.205 59.677c-.244-1.15.489-2.29 1.629-2.533l141.503-30.088c1.14-.242 2.274.5 2.519 1.65l9.938 46.743c.245 1.15-.488 2.29-1.629 2.532z"/>
    <path fill="#fff" d="M35.33 85.447l-1.334-6.274-5.338 1.135 1.334 6.274-4.095.87-3.335-15.684 4.094-.871 1.301 6.117 5.339-1.135-1.3-6.117 4.094-.871 3.335 15.685-4.095.871zM52.954 81.7l-10.626 2.26-3.335-15.686 10.625-2.26.69 3.242-6.583 1.4.656 3.085 6.168-1.312.634 2.98-6.169 1.312.668 3.137 6.582-1.4.69 3.242zM41.813 63.193l2.799-.595 3.607 2.184-2.851.606-1.689-1.062-.207.044-1.007 1.635-2.902.618 2.25-3.43zm5.405-3.117l2.695-.573-2.654 3.57-1.496-.665 1.455-2.332zM58.24 80.576l-2.623-12.34-4.147.882-.711-3.346 12.388-2.634.711 3.346-4.146.882 2.623 12.339-4.094.87zM75.95 60.416c3.68-.783 6.09 1.382 6.724 4.362.645 3.033-.699 5.887-4.43 6.68l-2.592.552.99 4.653-4.096.87-3.335-15.685 6.738-1.432zm-.943 8.561l1.4-.297c1.658-.353 2.54-1.306 2.183-2.979-.333-1.568-1.455-2.259-2.958-1.939l-1.659.353 1.034 4.862zM96.13 72.519l-1.334-6.274-5.339 1.135 1.335 6.274-4.095.87-3.335-15.684 4.094-.871 1.301 6.117 5.339-1.135-1.3-6.117 4.094-.871 3.335 15.685-4.095.871zM100.671 62.537c-.945-4.445.984-7.86 5.493-8.82 4.51-.958 7.66 1.378 8.606 5.822l.367 1.725c.934 4.392-1.006 7.755-5.515 8.714-4.51.96-7.65-1.324-8.584-5.716l-.367-1.725zm3.827-9.776l-4.121-1.802 3.783-.804 3.603 1.911-3.265.695zm.687 10.62c.545 2.561 1.963 3.626 3.725 3.251 1.71-.364 2.625-1.924 2.08-4.486l-.378-1.778c-.545-2.562-1.974-3.679-3.736-3.304-1.763.375-2.614 1.977-2.07 4.539l.379 1.777zM118.885 67.68l-3.335-15.685 3.162-.672 7.765 7.475.156-.033-1.857-8.731 3.784-.805 3.335 15.685-3.162.673-7.84-7.569-.155.033 1.88 8.836-3.733.794zM141.552 51.986c-.422-1.222-1.556-1.965-3.059-1.645-1.762.375-2.573 1.913-2.028 4.475l.378 1.778c.456 2.143 1.508 3.778 3.788 3.293 1.71-.364 2.41-1.66 2.155-2.863l-.111-.523-2.437.518-.6-2.823 6.324-1.344.644 3.032c.6 2.823-.495 6.335-5.315 7.36-4.976 1.058-7.646-1.817-8.49-5.79l-.39-1.83c-.89-4.183.965-7.692 5.474-8.651 4.406-.937 7.069 1.393 7.71 4.153l-4.043.86z"/>
    <path stroke="#E0E0E0" stroke-miterlimit="10" stroke-width="1.9938" d="M167.327 81.48l-151.87 32.292c-1.14.243-2.273-.5-2.518-1.65L1.044 56.178c-.245-1.15.488-2.29 1.629-2.533l151.87-32.292c1.14-.242 2.273.5 2.517 1.65l11.896 55.945c.244 1.15-.489 2.29-1.629 2.532z"/>
    <path fill="#E0E0E0" d="M72.882 10.573c2.863-.609 4.686-3.443 4.072-6.33C76.34 1.354 73.52-.494 70.659.115c-2.863.609-4.686 3.443-4.072 6.33.614 2.888 3.432 4.736 6.295 4.127z"/>
    <path stroke="#E0E0E0" stroke-miterlimit="10" stroke-width="1.9938" d="M5.782 52.984L68.204 3.097l5.91-1.256 77.318 20.173"/>
</svg>
