<svg width="14" height="14" viewBox="0 0 14 14" fill="none" xmlns="http://www.w3.org/2000/svg">
<path d="M6.98101 2.00592C6.94593 1.44497 6.48511 1 5.92136 1C5.35762 1 4.8968 1.44497 4.86171 2.00592H4.85938V8.66864" stroke="black" stroke-width="0.5" stroke-miterlimit="10" stroke-linecap="round" stroke-linejoin="round"/>
<path d="M10.3423 2.00592C10.3073 1.44497 9.84643 1 9.28269 1C8.71895 1 8.25813 1.44497 8.22304 2.00592H8.2207V8.66864" stroke="black" stroke-width="0.5" stroke-miterlimit="10" stroke-linecap="round" stroke-linejoin="round"/>
<path d="M4.85938 4.40833H8.2278" stroke="black" stroke-width="0.5" stroke-miterlimit="10" stroke-linecap="round" stroke-linejoin="round"/>
<path d="M4.85938 7.22485H8.2278" stroke="black" stroke-width="0.5" stroke-miterlimit="10" stroke-linecap="round" stroke-linejoin="round"/>
<path d="M1.02344 9.16565C1.02344 9.16565 1.4211 10.5621 3.4094 10.5621C5.39771 10.5621 5.21057 9.37867 6.98835 9.37867C8.76613 9.37867 8.36847 10.5621 9.93572 10.5621C11.503 10.5621 11.4562 9.355 13 9.37867" stroke="black" stroke-width="0.5" stroke-miterlimit="10" stroke-linecap="round" stroke-linejoin="round"/>
<path d="M1 11.6035C1 11.6035 1.39766 13 3.38596 13C5.37427 13 5.18713 11.8165 6.96491 11.8165C8.74269 11.8165 8.34503 13 9.91228 13C11.4795 13 11.4327 11.7929 12.9766 11.8165" stroke="black" stroke-width="0.5" stroke-miterlimit="10" stroke-linecap="round" stroke-linejoin="round"/>
</svg>
