<svg xmlns="http://www.w3.org/2000/svg" width="24" height="32" fill="none" viewBox="0 0 24 32">
    <path fill="#F2C94C" d="M12.21.64C5.71.64.42 5.927.42 12.428c0 2.755.95 5.291 2.54 7.3l9.25 11.632 9.251-11.631A11.732 11.732 0 0 0 24 12.429c0-6.5-5.289-11.79-11.79-11.79z"/>
    <path fill="#fff" d="M12.381 8.467c-2.7 0-5.108 1.543-6.928 4.073a.502.502 0 0 0 0 .68c1.82 2.53 4.227 4.072 6.928 4.072 2.7 0 5.108-1.543 6.928-4.073a.502.502 0 0 0 0-.679c-1.82-2.53-4.227-4.073-6.928-4.073z"/>
    <path stroke="#F2C94C" stroke-linecap="round" stroke-linejoin="round" stroke-miterlimit="10" stroke-width=".662" d="M12.557 15.996c-1.761.124-3.288-1.42-3.17-3.332.117-1.543 1.291-2.839 2.76-2.9 1.76-.124 3.287 1.419 3.17 3.332a3.047 3.047 0 0 1-2.76 2.9z"/>
    <path fill="#F2C94C" stroke="#F2C94C" stroke-width=".662" d="M13.636 12.952c-.05.717-.582 1.246-1.162 1.295-.727.046-1.395-.579-1.348-1.44.05-.717.582-1.246 1.162-1.294.728-.047 1.395.578 1.348 1.439z"/>
</svg>
