<svg xmlns="http://www.w3.org/2000/svg" width="12" height="12" fill="none" viewBox="0 0 12 12">
    <path stroke="#000" stroke-linecap="round" stroke-linejoin="round" stroke-miterlimit="10" stroke-width=".48" d="M5.584 2.337h.708v.594c.653 0 1.18.149 1.58.448.385.288.578.657.578 1.109 0 .068-.004.133-.016.2H6.94c0-.353-.216-.571-.648-.654v1.109c.273.103.545.202.817.301.425.165.752.351.979.563.317.297.477.659.477 1.087 0 .589-.216 1.044-.648 1.363-.4.293-.943.439-1.625.439v.77h-.708v-.77c-.524 0-1-.158-1.425-.47-.483-.35-.724-.8-.724-1.348 0-.056.002-.115.007-.178h1.541c.047.261.097.441.153.54a.54.54 0 0 0 .448.302v-1.24c-.668-.149-1.15-.34-1.45-.57-.38-.287-.568-.701-.568-1.24 0-1.005.672-1.59 2.018-1.754v-.601zm-.385 1.895c-.097.103-.146.207-.146.315 0 .24.177.396.53.46V4.03a.723.723 0 0 0-.384.203zm1.093 3.636c.176 0 .345-.07.509-.207.164-.14.232-.286.2-.44-.031-.148-.126-.274-.285-.377a.758.758 0 0 0-.424-.14v1.164z"/>
    <path stroke="#000" stroke-linecap="round" stroke-linejoin="round" stroke-miterlimit="10" stroke-width=".48" d="M6 11.76A5.76 5.76 0 1 0 6 .24a5.76 5.76 0 0 0 0 11.52z"/>
</svg>
