<svg xmlns="http://www.w3.org/2000/svg" width="10" height="10" fill="none" viewBox="0 0 10 10">
    <path stroke="#219653" stroke-linecap="round" stroke-linejoin="round" stroke-miterlimit="10" stroke-width=".47619" d="M4.953 9.762c.488 0 .884-.417.884-.931S5.441 7.9 4.953 7.9c-.489 0-.884.417-.884.93 0 .515.395.932.884.932zM4.953 6.476c.512 0 .984.182 1.36.487L7.169 5.7a3.576 3.576 0 0 0-2.218-.776c-.783 0-1.509.256-2.11.695l.863 1.259c.359-.254.788-.402 1.249-.402z"/>
    <path stroke="#219653" stroke-linecap="round" stroke-linejoin="round" stroke-miterlimit="10" stroke-width=".47619" d="M4.953 4.07c1.006 0 1.936.348 2.688.936L8.5 3.74a5.954 5.954 0 0 0-1.214-.727 5.696 5.696 0 0 0-2.335-.497c-.809 0-1.594.167-2.334.497a5.98 5.98 0 0 0-1.113.65l.864 1.26a4.362 4.362 0 0 1 2.585-.853z"/>
    <path stroke="#219653" stroke-linecap="round" stroke-linejoin="round" stroke-miterlimit="10" stroke-width=".47619" d="M4.953 1.79c1.476 0 2.841.506 3.948 1.361l.86-1.264a8.019 8.019 0 0 0-1.63-.972A7.743 7.743 0 0 0 4.953.238c-1.102 0-2.17.227-3.176.675a8.04 8.04 0 0 0-1.539.902l.864 1.26A6.437 6.437 0 0 1 4.953 1.79z"/>
</svg>
