<svg xmlns="http://www.w3.org/2000/svg" width="10" height="10" fill="none" viewBox="0 0 10 10">
    <path stroke="#219653" stroke-linecap="round" stroke-linejoin="round" stroke-miterlimit="10" stroke-width=".47619" d="M8.778 8.832h-7.49a.225.225 0 0 1-.225-.223V.46c0-.122.101-.223.225-.223h7.49c.123 0 .225.1.225.223V8.61a.225.225 0 0 1-.225.223zM1.063 1.429h7.94M1.116 4.87H8.95"/>
    <path stroke="#219653" stroke-linecap="round" stroke-linejoin="round" stroke-miterlimit="10" stroke-width=".47619" d="M2.41 6.879c.211 0 .383-.171.383-.382a.383.383 0 0 0-.384-.381.383.383 0 0 0-.384.381c0 .211.172.382.384.382zM7.658 6.879c.213 0 .385-.171.385-.382a.383.383 0 0 0-.385-.381.383.383 0 0 0-.384.381c0 .211.172.382.384.382zM2.806 8.906v.633a.225.225 0 0 1-.225.223h-.974a.225.225 0 0 1-.225-.223v-.633M8.6 8.906v.633a.225.225 0 0 1-.225.223H7.4a.225.225 0 0 1-.225-.223v-.633M.238 3.158V1.652c0-.123.101-.223.225-.223h.675M9.762 3.158V1.652a.225.225 0 0 0-.225-.223h-.675"/>
</svg>
