<svg xmlns="http://www.w3.org/2000/svg" width="10" height="10" fill="none" viewBox="0 0 10 10">
    <path stroke="#219653" stroke-linecap="round" stroke-linejoin="round" stroke-miterlimit="10" stroke-width=".476185" d="M6.645 4.375s-.199 1.334-.204 1.781c-.01.832.788 1.479 1.66 1.479.87 0 1.67-.648 1.66-1.479-.005-.447-.204-1.781-.204-1.781H6.645zM8.105 7.637v2.125M7.538 9.762h1.02M6.46 5.896h3.302M4.305 3.14c0-.413-.555-.764-1.336-.9V.239H1.574v2.003c-.779.133-1.336.484-1.336.899 0 .035.004.068.012.102a.187.187 0 0 0-.012.065v6.236c0 .111.094.2.206.2h3.653a.204.204 0 0 0 .206-.2V3.307a.187.187 0 0 0-.011-.065.367.367 0 0 0 .013-.102zM1.574 1.08H2.97"/>
    <path stroke="#219653" stroke-linecap="round" stroke-linejoin="round" stroke-miterlimit="10" stroke-width=".476185" d="M2.586 4.033H.238v4.254h2.348V4.033z"/>
</svg>
