<svg xmlns="http://www.w3.org/2000/svg" width="10" height="10" fill="none" viewBox="0 0 10 10">
    <path stroke="#219653" stroke-linecap="round" stroke-linejoin="round" stroke-miterlimit="10" stroke-width=".47619" d="M4.656 1.972h.586v.49c.54 0 .975.124 1.306.371.318.238.478.543.478.917 0 .056-.004.11-.013.166H5.778c0-.292-.179-.473-.536-.542v.917c.225.086.45.168.675.25.352.135.621.29.81.465.261.245.394.545.394.898 0 .487-.179.863-.536 1.127-.331.242-.78.363-1.343.363v.636h-.586v-.636a1.94 1.94 0 0 1-1.178-.389c-.4-.288-.599-.66-.599-1.114 0-.046.002-.095.006-.147h1.274c.04.216.08.365.127.446a.447.447 0 0 0 .37.25V5.415c-.553-.123-.95-.281-1.198-.47-.314-.239-.47-.581-.47-1.026 0-.831.556-1.315 1.668-1.45v-.497zm-.318 1.566c-.08.086-.121.171-.121.26 0 .2.147.328.439.382v-.81a.598.598 0 0 0-.318.168zm.904 3.006a.65.65 0 0 0 .42-.171c.136-.116.192-.236.166-.363a.496.496 0 0 0-.236-.312.627.627 0 0 0-.35-.116v.962z"/>
    <path stroke="#219653" stroke-linecap="round" stroke-linejoin="round" stroke-miterlimit="10" stroke-width=".47619" d="M5 9.762A4.762 4.762 0 1 0 5 .238a4.762 4.762 0 0 0 0 9.524z"/>
</svg>
