<svg xmlns="http://www.w3.org/2000/svg" width="10" height="10" fill="none" viewBox="0 0 10 10">
    <path stroke="#219653" stroke-linecap="round" stroke-linejoin="round" stroke-miterlimit="10" stroke-width=".476195" d="M5.233 4.81L.48.303a.14.14 0 0 0-.167-.02A.153.153 0 0 0 .24.44a6.342 6.342 0 0 0 1.875 3.517l1.74 1.648a.48.48 0 0 0 .693-.03l.14-.154c1.395 1.605 3.448 3.739 3.7 3.977.396.376.939.428 1.216.12.277-.31.18-.864-.216-1.24A100.255 100.255 0 0 0 5.233 4.81zM5.718 4.247c.253.197.519.409.789.626a1.34 1.34 0 0 0 1-.398L9.674 2.03a.245.245 0 0 0-.005-.327.227.227 0 0 0-.337.004l-1.758 1.94a.257.257 0 0 1-.37-.006.275.275 0 0 1 .006-.381l1.802-1.892a.264.264 0 0 0 0-.36.245.245 0 0 0-.35-.01L6.772 2.794a.257.257 0 0 1-.37-.006.275.275 0 0 1 .005-.381L8.343.657c.1-.09.106-.248.013-.346a.228.228 0 0 0-.318-.015L5.599 2.452a1.438 1.438 0 0 0-.383 1.317l.502.478zM4.186 6.484c-.315 0-.616-.12-.845-.338l-.12-.116C1.971 7.113.783 8.2.61 8.374c-.374.374-.454.913-.179 1.205.275.292.802.227 1.176-.147.19-.19 1.467-1.584 2.643-2.95-.023.002-.043.002-.065.002z"/>
</svg>
